<?xml version="1.0" encoding="utf-8"?> <!-- Generator: IcoMoon.io --> <!DOCTYPE svg PUBLIC "-//W3C//DTD SVG 1.1//EN" "http://www.w3.org/Graphics/SVG/1.1/DTD/svg11.dtd"> <svg version="1.1" xmlns="http://www.w3.org/2000/svg" xmlns:xlink="http://www.w3.org/1999/xlink" x="0px" y="0px" width="512px" height="512px" viewBox="0 0 512 512" enable-background="new 0 0 512 512" xml:space="preserve" fill="#333333"> <path d="M227.682,381c0,14.852-12.039,26.891-26.891,26.891S173.9,395.852,173.9,381 s12.039-26.891,26.891-26.891S227.682,366.148,227.682,381z M389.609,106.109l-59.18,188.166H159.338L94.416,144.609H50.418 l82.914,189.666h0.275h226.07l59.178-188.166h29.98l12.746-40H389.609z M289.676,354.109c-14.852,0-26.891,12.039-26.891,26.891 s12.039,26.891,26.891,26.891s26.891-12.039,26.891-26.891S304.527,354.109,289.676,354.109z M242.262,104.109 c-42.963,0-77.793,34.828-77.793,77.791c0,42.964,34.83,77.791,77.793,77.791s77.791-34.827,77.791-77.791 C320.053,138.938,285.225,104.109,242.262,104.109z M290.07,196.035h-33.674v33.673h-26.006v-33.673h-33.672V170.03h33.672v-33.672 h26.006v33.672h33.674V196.035z" ></path></svg>