<?xml version="1.0" encoding="utf-8"?> <!-- Generator: IcoMoon.io --> <!DOCTYPE svg PUBLIC "-//W3C//DTD SVG 1.1//EN" "http://www.w3.org/Graphics/SVG/1.1/DTD/svg11.dtd"> <svg version="1.1" xmlns="http://www.w3.org/2000/svg" xmlns:xlink="http://www.w3.org/1999/xlink" x="0px" y="0px" width="400" height="176" viewBox="0 0 400 176" enable-background="new 0 0 512 512" xml:space="preserve" fill="#333333"> <path d="M 14.438,4.007c-0.474,0.21-0.983,0.352-1.517,0.416c 0.545-0.327, 0.964-0.845, 1.161-1.461 c-0.51,0.303-1.076,0.523-1.677,0.641c-0.482-0.513-1.168-0.834-1.928-0.834c-1.705,0.00-2.958,1.591-2.573,3.243 c-2.195-0.11-4.142-1.162-5.444-2.76c-0.692,1.187-0.359,2.74, 0.817,3.527c-0.433-0.014-0.84-0.133-1.196-0.33 c-0.029,1.224, 0.848,2.368, 2.119,2.623c-0.372,0.101-0.779,0.124-1.193,0.045c 0.336,1.049, 1.312,1.813, 2.467,1.834 C 4.363,11.821, 2.964,12.21, 1.563,12.045c 1.169,0.749, 2.557,1.187, 4.049,1.187c 4.904,0.00, 7.675-4.142, 7.508-7.857 C 13.636,5.002, 14.083,4.537, 14.438,4.007zM 46.438,9.205c0.00,0.862-0.699,1.561-1.561,1.561l-4.343,0.00 L 40.533,5.401 c 0.166-0.061, 0.339-0.106, 0.518-0.134c 0.14-0.022, 0.284-0.034, 0.43-0.034c 1.454,0.00, 2.645,1.121, 2.758,2.546 c 0.195-0.087, 0.41-0.136, 0.637-0.136C 45.739,7.644, 46.438,8.343, 46.438,9.205z M 38.909,6.461l0.00,4.305 l 0.518,0.00 L 39.428,6.147 c-0.115,0.128-0.219,0.266-0.309,0.414C 39.051,6.524, 38.981,6.491, 38.909,6.461z M 39.713,10.766l 0.518,0.00 L 40.231,5.532 c-0.186,0.094-0.36,0.209-0.518,0.341L 39.713,10.766 z M 36.422,7.001l0.00,3.766 l 0.518,0.00 L 36.94,6.589 C 36.747,6.70, 36.573,6.839, 36.422,7.001z M 34.867,7.782l0.00,2.971 c 0.064,0.008, 0.128,0.013, 0.194,0.013l 0.272,0.00 l0.00-2.973 c-0.088-0.016-0.179-0.025-0.272-0.025C 34.995,7.769, 34.93,7.774, 34.867,7.782z M 34.18,10.48 c 0.118,0.086, 0.248,0.155, 0.389,0.203l0.00-2.831 c-0.14,0.049-0.271,0.118-0.389,0.203L 34.18,10.48 z M 35.618,7.877l0.00,2.89 l 0.518,0.00 L 36.137,7.378 c-0.117,0.194-0.205,0.407-0.259,0.633C 35.797,7.958, 35.71,7.913, 35.618,7.877z M 37.251,10.766l 0.518,0.00 L 37.769,6.31 c-0.18,0.023-0.354,0.068-0.518,0.131L 37.251,10.766 z M 38.08,10.766l 0.518,0.00 L 38.598,6.359 c-0.166-0.042-0.34-0.064-0.518-0.066L 38.08,10.766 z M 33.925,10.245l0.00-1.954 C 33.699,8.553, 33.563,8.894, 33.563,9.268C 33.563,9.641, 33.699,9.982, 33.925,10.245zM 72.302,1.563C 68.788,1.563, 67.016,4.082, 67.016,6.182c0.00,1.272, 0.482,2.404, 1.514,2.825 c 0.169,0.069, 0.321,0.002, 0.37-0.185c 0.034-0.13, 0.115-0.457, 0.151-0.593c 0.05-0.185, 0.03-0.251-0.106-0.412 c-0.298-0.351-0.488-0.806-0.488-1.45c0.00-1.869, 1.398-3.542, 3.641-3.542c 1.986,0.00, 3.077,1.213, 3.077,2.834 c0.00,2.132-0.944,3.932-2.345,3.932c-0.774,0.00-1.353-0.64-1.167-1.425c 0.222-0.937, 0.653-1.948, 0.653-2.624 c0.00-0.605-0.325-1.11-0.997-1.11c-0.791,0.00-1.426,0.818-1.426,1.914c0.00,0.698, 0.236,1.17, 0.236,1.17 s-0.809,3.429-0.951,4.03c-0.283,1.196-0.043,2.662-0.022,2.81c 0.012,0.088, 0.125,0.109, 0.176,0.042 c 0.073-0.095, 1.015-1.258, 1.335-2.42c 0.091-0.329, 0.52-2.033, 0.52-2.033c 0.257,0.49, 1.008,0.922, 1.806,0.922 c 2.377,0.00, 3.99-2.167, 3.99-5.068C 76.984,3.605, 75.126,1.563, 72.302,1.563zM 110.438,4.417l-1.707,0.00 l0.00,1.707 l-0.853,0.00 l0.00-1.707 l-1.707,0.00 l0.00-0.853 l 1.707,0.00 L 107.877,1.857 l 0.853,0.00 l0.00,1.707 L 110.438,3.564 L 110.438,4.417 z M 105.612,11.477 c0.00,1.279-1.168,2.837-4.107,2.837C 99.355,14.314, 97.563,13.387, 97.563,11.827c0.00-1.204, 0.762-2.766, 4.323-2.766 c-0.529-0.431-0.659-1.034-0.335-1.686c-2.085,0.00-3.152-1.226-3.152-2.782c0.00-1.523, 1.133-2.907, 3.442-2.907 c 0.583,0.00, 3.70,0.00, 3.70,0.00l-0.827,0.868l-0.971,0.00 c 0.685,0.393, 1.05,1.201, 1.05,2.092 c0.00,0.818-0.45,1.48-1.093,1.977c-1.141,0.882-0.849,1.374, 0.346,2.246C 105.223,9.752, 105.612,10.434, 105.612,11.477 z M 103.304,4.702c-0.172-1.31-1.025-2.384-2.022-2.414c-0.997-0.03-1.666,0.972-1.494,2.282 c 0.172,1.31, 1.12,2.224, 2.117,2.254C 102.903,6.854, 103.476,6.011, 103.304,4.702z M 104.332,11.608 c0.00-1.077-0.983-2.104-2.631-2.104c-1.486-0.016-2.745,0.939-2.745,2.046c0.00,1.13, 1.073,2.07, 2.559,2.07 C 103.415,13.621, 104.332,12.738, 104.332,11.608zM 142.426,7.833l 0.011-0.119c-0.716-0.069-1.427-0.076-2.118-0.023 c 0.111-0.355, 0.17-0.755, 0.165-1.211c-0.009-0.968-0.332-1.721-0.839-2.347c 0.097-0.589, 0.024-1.178-0.16-1.768 c-0.725,0.059-1.377,0.297-1.957,0.709c-1.085-0.22-2.17-0.234-3.255,0.00c-0.677-0.457-1.342-0.681-1.997-0.709 c-0.194,0.649-0.224,1.289-0.06,1.917c-0.571,0.606-0.79,1.342-0.779,2.157c 0.006,0.466, 0.078,0.882, 0.211,1.248 c-0.681-0.05-1.381-0.043-2.085,0.025l 0.011,0.119c 0.717-0.07, 1.43-0.075, 2.122-0.021c 0.025,0.062, 0.051,0.123, 0.08,0.182 c-0.75-0.02-1.426,0.045-2.058,0.201l 0.029,0.116c 0.642-0.158, 1.329-0.221, 2.097-0.195 c 0.508,0.902, 1.485,1.432, 2.908,1.60c-0.331,0.269-0.508,0.585-0.554,0.944c0.00,0.00-0.15,0.00-0.754,0.00 c-1.012,0.00-1.288-1.291-2.337-1.163C 132.125,10.00, 131.922,11.612, 133.55,11.612c 0.547,0.00, 0.663,0.00, 0.684,0.00l0.00,1.478 c 0.007,0.239-0.097,0.399-0.265,0.509c 0.583,0.059, 1.021-0.232, 1.021-0.589s0.00-1.78,0.00-1.954s 0.182-0.188, 0.182-0.188l0.00,2.281 c 0.008,0.227-0.103,0.356-0.22,0.479c 0.514,0.02, 0.997-0.082, 1.018-0.519c0.00,0.00,0.00-2.073,0.00-2.183s 0.18-0.112, 0.18,0.00 s0.00,2.081,0.00,2.081c 0.005,0.369, 0.324,0.668, 0.999,0.622c-0.18-0.145-0.236-0.292-0.236-0.505s0.00-2.256,0.00-2.256s 0.186-0.01, 0.186,0.188 s0.00,1.573,0.00,1.903c0.00,0.423, 0.508,0.598, 1.088,0.582c-0.19-0.142-0.319-0.312-0.319-0.539l0.00-2.288 c-0.02-0.336-0.156-0.653-0.424-0.949c 1.301-0.20, 2.239-0.719, 2.706-1.65c 0.77-0.026, 1.46,0.037, 2.103,0.195 l 0.029-0.116c-0.637-0.157-1.318-0.222-2.075-0.20c 0.026-0.059, 0.052-0.118, 0.075-0.181 C 140.98,7.757, 141.701,7.762, 142.426,7.833z M 131.563,9.688c-0.032,0.00-0.058-0.018-0.058-0.041c0.00-0.023, 0.026-0.041, 0.058-0.041 c 0.032,0.00, 0.058,0.018, 0.058,0.041C 131.62,9.67, 131.595,9.688, 131.563,9.688z M 131.745,9.813c-0.036,0.00-0.064-0.02-0.064-0.046 s 0.029-0.046, 0.064-0.046s 0.064,0.02, 0.064,0.046S 131.78,9.813, 131.745,9.813z M 131.93,9.974 c-0.042,0.00-0.075-0.024-0.075-0.053s 0.034-0.054, 0.075-0.054c 0.042,0.00, 0.075,0.024, 0.075,0.054S 131.971,9.974, 131.93,9.974z M 132.109,10.168c-0.049,0.00-0.088-0.028-0.088-0.063s 0.04-0.063, 0.088-0.063s 0.088,0.028, 0.088,0.063S 132.158,10.168, 132.109,10.168z M 132.307,10.387c-0.054,0.00-0.098-0.031-0.098-0.07s 0.044-0.07, 0.098-0.07s 0.098,0.031, 0.098,0.07 S 132.361,10.387, 132.307,10.387z M 132.536,10.61c-0.06,0.00-0.109-0.035-0.109-0.077s 0.049-0.077, 0.109-0.077 c 0.06,0.00, 0.109,0.035, 0.109,0.077S 132.597,10.61, 132.536,10.61z M 132.846,10.822c-0.067,0.00-0.121-0.038-0.121-0.086 c0.00-0.047, 0.054-0.086, 0.121-0.086s 0.121,0.038, 0.121,0.086C 132.967,10.783, 132.913,10.822, 132.846,10.822z M 133.23,10.935 c-0.067,0.00-0.121-0.038-0.121-0.086c0.00-0.047, 0.054-0.086, 0.121-0.086s 0.121,0.038, 0.121,0.086 C 133.352,10.896, 133.297,10.935, 133.23,10.935z M 133.635,10.948c-0.067,0.00-0.121-0.038-0.121-0.086 c0.00-0.047, 0.054-0.086, 0.121-0.086s 0.121,0.038, 0.121,0.086C 133.756,10.909, 133.702,10.948, 133.635,10.948z M 134.035,10.956 c-0.067,0.00-0.121-0.038-0.121-0.086c0.00-0.047, 0.054-0.086, 0.121-0.086s 0.121,0.038, 0.121,0.086 C 134.156,10.917, 134.102,10.956, 134.035,10.956zM 166.377,5.772l-1.348,0.00 l0.00,2.201 l 1.348,0.00 L 166.377,14.438 l 2.593,0.00 L 168.97,7.945 l 1.809,0.00 l 0.193-2.173l-2.001,0.00 c0.00,0.00,0.00-0.812,0.00-1.238c0.00-0.512, 0.103-0.715, 0.598-0.715c 0.399,0.00, 1.403,0.00, 1.403,0.00L 170.971,1.563 c0.00,0.00-1.479,0.00-1.795,0.00 c-1.929,0.00-2.799,0.849-2.799,2.476C 166.377,5.455, 166.377,5.772, 166.377,5.772zM 200.00,1.563C 196.445,1.563, 193.563,4.445, 193.563,8.00c0.00,3.555, 2.882,6.438, 6.438,6.438s 6.438-2.882, 6.438-6.438 C 206.438,4.445, 203.555,1.563, 200.00,1.563z M 205.303,7.70c-1.381-0.227-2.652-0.239-3.81-0.039c-0.131-0.302-0.267-0.603-0.411-0.901 c 1.239-0.536, 2.234-1.265, 2.976-2.19C 204.781,5.425, 205.236,6.511, 205.303,7.70z M 203.242,3.794 c-0.646,0.833-1.538,1.493-2.675,1.974c-0.545-0.998-1.168-1.972-1.872-2.917c 0.418-0.106, 0.854-0.169, 1.304-0.169 C 201.221,2.682, 202.343,3.10, 203.242,3.794z M 197.601,3.261c 0.714,0.935, 1.347,1.898, 1.897,2.887 c-1.304,0.384-2.86,0.581-4.659,0.593C 195.211,5.219, 196.235,3.955, 197.601,3.261z M 194.682,8.00 c0.00-0.046, 0.006-0.091, 0.007-0.137c 2.064-0.003, 3.845-0.24, 5.338-0.709c 0.125,0.255, 0.245,0.51, 0.359,0.768 c-1.813,0.567-3.307,1.728-4.472,3.476C 195.146,10.476, 194.682,9.291, 194.682,8.00z M 196.736,12.19 c 1.056-1.657, 2.405-2.735, 4.076-3.233c 0.497,1.298, 0.863,2.634, 1.096,4.002c-0.593,0.229-1.235,0.36-1.908,0.36 C 198.769,13.318, 197.638,12.894, 196.736,12.19z M 202.952,12.42c-0.235-1.262-0.579-2.496-1.03-3.70 c 1.006-0.142, 2.114-0.105, 3.325,0.105C 205.013,10.32, 204.159,11.611, 202.952,12.42zM 231.826,6.254c 2.328-0.042, 3.582,0.723, 3.883,2.208l-1.903,0.00 l0.00-1.598 c-0.503-0.175-1.034-0.246-1.583-0.242l0.00,3.021 L 238.438,9.643 c-0.30-2.411-3.068-4.299-6.438-4.299c-0.058,0.00-0.116,0.001-0.174,0.002 l0.00-1.106 c-0.529-0.035-1.05,0.048-1.559,0.271l0.00,1.005 C 227.722,6.033, 225.809,7.662, 225.563,9.643l 6.263,0.00 L 231.826,6.254 z M 230.267,8.462l-1.956,0.00 c 0.211-1.019, 0.862-1.695, 1.956-1.985L 230.267,8.462 zM 260.058,1.563l 0.773,0.00 l 0.529,1.986L 261.852,1.563l 0.78,0.00 l-0.893,2.953l0.00,2.015 l-0.767,0.00 l0.00-2.015 L 260.058,1.563z M 262.597,5.617c0.00,0.646, 0.338,0.982, 0.998,0.982c 0.548,0.00, 0.98-0.367, 0.98-0.982L 264.575,3.82 c0.00-0.574-0.427-0.985-0.98-0.985c-0.60,0.00-0.998,0.397-0.998,0.985L 262.597,5.617 z M 263.298,3.881 c0.00-0.201, 0.092-0.349, 0.284-0.349c 0.209,0.00, 0.298,0.144, 0.298,0.349l0.00,1.705 c0.00,0.20-0.102,0.347-0.285,0.347 c-0.188,0.00-0.297-0.154-0.297-0.347L 263.298,3.881 z M 266.417,2.866l0.00,2.782 c-0.083,0.104-0.268,0.274-0.401,0.274 c-0.146,0.00-0.182-0.10-0.182-0.247L 265.835,2.866 l-0.681,0.00 l0.00,3.063 c0.00,0.362, 0.111,0.655, 0.476,0.655c 0.206,0.00, 0.492-0.107, 0.788-0.458 l0.00,0.405 l 0.681,0.00 L 267.099,2.866 L 266.417,2.866 z M 265.415,10.379c 0.046,0.061, 0.069,0.15, 0.069,0.268l0.00,1.802 c0.00,0.111-0.019,0.191-0.056,0.241 c-0.072,0.094-0.226,0.089-0.332,0.036c-0.05-0.025-0.101-0.066-0.154-0.123l0.00-2.175 c 0.044-0.048, 0.089-0.083, 0.134-0.106 C 265.19,10.264, 265.336,10.276, 265.415,10.379z M 267.599,10.30c-0.24,0.00-0.29,0.169-0.29,0.409l0.00,0.353 l 0.573,0.00 l0.00-0.353 C 267.883,10.473, 267.833,10.30, 267.599,10.30z M 269.579,12.875c0.00,0.863-0.70,1.563-1.563,1.563L 259.984,14.438 c-0.863,0.00-1.563-0.70-1.563-1.563 L 258.421,8.928 c0.00-0.863, 0.70-1.563, 1.563-1.563l 8.032,0.00 c 0.863,0.00, 1.563,0.70, 1.563,1.563L 269.579,12.875 z M 261.054,9.223l 0.756,0.00 L 261.81,8.536 l-2.243,0.00 l0.00,0.687 l 0.756,0.00 l0.00,4.045 l 0.731,0.00 L 261.054,9.223 z M 263.654,9.777l-0.649,0.00 l0.00,2.65 c-0.079,0.099-0.255,0.261-0.382,0.261c-0.139,0.00-0.173-0.095-0.173-0.235 l0.00-2.676 l-0.649,0.00 l0.00,2.917 c0.00,0.708, 0.48,0.713, 0.83,0.512c 0.129-0.074, 0.254-0.182, 0.373-0.324l0.00,0.385 l 0.649,0.00 L 263.654,9.777 z M 266.152,10.608c0.00-0.473-0.157-0.875-0.633-0.875c-0.232,0.00-0.431,0.148-0.577,0.326L 264.942,8.536 l-0.655,0.00 l0.00,4.732 l 0.655,0.00 l0.00-0.268 c 0.181,0.226, 0.379,0.312, 0.616,0.312c 0.432,0.00, 0.593-0.335, 0.593-0.767L 266.152,10.608 z M 268.551,10.716 c0.00-0.631-0.301-1.027-0.923-1.027c-0.585,0.00-0.986,0.421-0.986,1.027l0.00,1.567 c0.00,0.628, 0.317,1.08, 0.937,1.08 c 0.684,0.00, 0.973-0.407, 0.973-1.08l0.00-0.262 l-0.668,0.00 l0.00,0.243 c0.00,0.304-0.016,0.488-0.29,0.488c-0.261,0.00-0.283-0.226-0.283-0.488 l0.00-0.658 l 1.241,0.00 L 268.551,10.716 zM 302.437,11.23l-2.498,0.00 c0.00-2.719-1.359-1.427-1.359-3.809c0.00-0.86, 0.563-1.327, 1.286-1.327 c 1.068,0.00, 1.812,1.02, 0.80,2.927c-0.332,0.627, 0.354,0.775, 1.091,0.945C 302.493,10.137, 302.437,10.525, 302.437,11.23z M 290.244,9.967c 0.737-0.17, 1.423-0.319, 1.091-0.945c-1.012-1.907-0.268-2.927, 0.80-2.927 c 0.723,0.00, 1.286,0.467, 1.286,1.327c0.00,2.382-1.359,1.09-1.359,3.809L 289.563,11.23 C 289.563,10.525, 289.507,10.137, 290.244,9.967z M 298.379,9.641c-0.927-0.214-1.79-0.401-1.372-1.189c 1.272-2.399, 0.337-3.682-1.006-3.682 c-1.37,0.00-2.282,1.332-1.006,3.682c 0.43,0.793-0.465,0.98-1.372,1.189c-0.927,0.214-0.856,0.702-0.856,1.589 l 6.468,0.00 C 299.234,10.343, 299.305,9.855, 298.379,9.641zM 330.463,1.563L 325.537,1.563 c-0.57,0.00-1.031,0.462-1.031,1.031l0.00,10.813 c0.00,0.57, 0.462,1.031, 1.031,1.031l 4.927,0.00 c 0.57,0.00, 1.031-0.462, 1.031-1.031L 331.495,2.594 C 331.495,2.024, 331.033,1.563, 330.463,1.563z M 327.453,2.507l 1.156,0.00 c 0.069,0.00, 0.125,0.056, 0.125,0.125s-0.056,0.125-0.125,0.125l-1.156,0.00 c-0.069,0.00-0.125-0.056-0.125-0.125S 327.384,2.507, 327.453,2.507z M 328.031,13.845c-0.276,0.00-0.50-0.224-0.50-0.50s 0.224-0.50, 0.50-0.50 c 0.276,0.00, 0.50,0.224, 0.50,0.50S 328.307,13.845, 328.031,13.845z M 330.711,12.305L 325.289,12.305 l0.00-8.609 L 330.711,3.695 L 330.711,12.305 zM 364.792,6.758c-0.326-1.718-1.833-2.993-3.618-2.993c-1.097,0.00-2.113,0.478-2.808,1.30 c-1.161-0.31-2.377,0.368-2.717,1.524C 354.442,6.943, 353.581,8.059, 353.581,9.353c0.00,1.589, 1.293,2.882, 2.913,2.882L 363.537,12.235 c 1.589,0.00, 2.882-1.293, 2.882-2.882C 366.419,8.231, 365.779,7.233, 364.792,6.758z M 363.537,10.985L 356.494,10.985 c-0.931,0.00-1.663-0.732-1.663-1.632c0.00-1.065, 0.864-1.877, 1.943-1.682c-0.36-1.237, 1.379-1.935, 2.02-1.011 c 0.161-0.456, 0.807-1.646, 2.379-1.646c 1.188,0.00, 2.418,0.815, 2.458,2.656c 0.793,0.003, 1.537,0.576, 1.537,1.683 C 365.169,10.253, 364.437,10.985, 363.537,10.985zM 396.691,7.114c-0.139-1.749-1.602-3.125-3.387-3.125c-1.213,0.00-2.277,0.636-2.879,1.592 c-1.131-0.639-2.573,0.113-2.663,1.434C 386.523,7.167, 385.563,8.223, 385.563,9.504c0.00,1.385, 1.123,2.508, 2.508,2.508l 3.071,0.00 l0.00-2.291 l-1.038,0.00 l 2.209-2.213l 2.209,2.213l-1.038,0.00 l0.00,2.291 l 2.446,0.00 c 1.385,0.00, 2.508-1.123, 2.508-2.508 C 398.438,8.384, 397.704,7.436, 396.691,7.114zM 12.691,39.114c-0.139-1.749-1.602-3.125-3.387-3.125c-1.213,0.00-2.277,0.636-2.879,1.592 c-1.131-0.639-2.573,0.113-2.663,1.434C 2.523,39.167, 1.563,40.223, 1.563,41.504c0.00,1.385, 1.123,2.508, 2.508,2.508l 7.86,0.00 c 1.385,0.00, 2.508-1.123, 2.508-2.508C 14.438,40.384, 13.704,39.436, 12.691,39.114z M 8.312,43.008l-2.147-2.15l 1.038,0.00 l0.00-2.225 l 2.218,0.00 l0.00,2.225 l 1.038,0.00 L 8.312,43.008zM 44.945,45.438L 44.945,34.563 c0.00-0.552-0.448-1.00-1.00-1.00l-7.891,0.00 c-0.552,0.00-1.00,0.448-1.00,1.00l0.00,10.875 c0.00,0.552, 0.448,1.00, 1.00,1.00 l 7.891,0.00 C 44.498,46.438, 44.945,45.99, 44.945,45.438z M 36.305,45.031L 36.305,34.969 l 7.391,0.00 l0.00,10.063 L 36.305,45.031 z M 39.734,45.742c0.00-0.147, 0.119-0.266, 0.266-0.266 c 0.147,0.00, 0.266,0.119, 0.266,0.266c0.00,0.147-0.119,0.266-0.266,0.266C 39.853,46.008, 39.734,45.889, 39.734,45.742zM 70.175,44.708c-0.14,0.496-0.819,1.176-1.316,1.316l 6.281,0.00 c-0.479-0.124-1.192-0.836-1.316-1.316L 70.175,44.708 z M 77.656,33.976L 66.344,33.976 c-0.431,0.00-0.781,0.35-0.781,0.781l0.00,8.391 c0.00,0.431, 0.35,0.781, 0.781,0.781 l 11.313,0.00 c 0.431,0.00, 0.781-0.35, 0.781-0.781L 78.438,34.757 C 78.438,34.326, 78.088,33.976, 77.656,33.976z M 77.122,41.406L 66.878,41.406 l0.00-6.114l 10.243,0.00L 77.122,41.406 z M 107.673,34.552c-0.284,0.00-0.557-0.112-0.758-0.313L 106.234,33.563l-4.469,0.00 l-0.68,0.677 c-0.202,0.20-0.474,0.313-0.758,0.313L 98.484,34.552 L 98.484,46.438 l 11.031,0.00 L 109.516,34.552 L 107.673,34.552 z M 108.25,45.172L 99.719,45.172 l0.00-9.375 l 1.948,0.00 l 0.779,0.781L 105.609,36.578 l 0.789-0.781L 108.25,35.797 L 108.25,45.172 z M 100.777,39.152l 0.281-0.26c 0.329,0.159, 0.538,0.28, 0.907,0.544c 0.695-0.789, 1.155-1.189, 2.008-1.72 l 0.092,0.211c-0.704,0.615-1.22,1.299-1.963,2.631C 101.646,40.017, 101.34,39.673, 100.777,39.152z M 100.777,42.496 l 0.281-0.26c 0.329,0.159, 0.538,0.28, 0.907,0.544c 0.695-0.789, 1.155-1.189, 2.008-1.72l 0.092,0.211 c-0.704,0.615-1.22,1.299-1.963,2.631C 101.646,43.361, 101.34,43.017, 100.777,42.496z M 107.174,38.891l-2.188,0.00 l0.00-0.625 l 2.188,0.00 L 107.174,38.891 z M 107.174,39.438l-2.188,0.00 l0.00,0.625 l 2.188,0.00 L 107.174,39.438 z M 107.174,42.536l-2.188,0.00 l0.00-0.625 l 2.188,0.00 L 107.174,42.536 z M 107.174,43.083l-2.188,0.00 l0.00,0.625 l 2.188,0.00 L 107.174,43.083 zM 140.418,35.692c0.00,0.314-0.254,0.568-0.568,0.568s-0.568-0.254-0.568-0.568L 139.283,34.263 c0.00-0.314, 0.254-0.568, 0.568-0.568s 0.568,0.254, 0.568,0.568L 140.418,35.692 z M 132.747,34.26c0.00-0.314-0.254-0.568-0.568-0.568 c-0.314,0.00-0.568,0.254-0.568,0.568l0.00,1.429 c0.00,0.314, 0.254,0.568, 0.568,0.568c 0.314,0.00, 0.568-0.254, 0.568-0.568L 132.747,34.26 z M 141.105,35.089l0.00,0.582 c0.00,0.692-0.563,1.254-1.254,1.254c-0.692,0.00-1.254-0.563-1.254-1.254L 138.596,35.089 L 133.433,35.089 l0.00,0.579 c0.00,0.692-0.563,1.254-1.254,1.254c-0.692,0.00-1.254-0.563-1.254-1.254L 130.925,35.089 L 129.563,35.089 l0.00,11.219 l 12.875,0.00 l0.00-11.219 L 141.105,35.089 z M 141.188,45.058L 130.813,45.058 L 130.813,38.106 l 10.375,0.00 L 141.188,45.058 z M 136.318,42.474c0.00-0.46-0.24-0.82-0.637-0.973c 0.304-0.152, 0.48-0.463, 0.48-0.863 c0.00-0.772-0.753-1.234-1.481-1.234c-0.847,0.00-1.487,0.531-1.526,1.586l 0.944,0.00 c-0.008-0.437, 0.156-0.755, 0.588-0.755 c 0.258,0.00, 0.535,0.156, 0.535,0.499c0.00,0.433-0.469,0.495-0.90,0.457l0.00,0.735 c 0.613,0.00, 0.978,0.039, 0.978,0.565 c0.00,0.416-0.314,0.602-0.626,0.602c-0.472,0.00-0.665-0.352-0.682-0.833l-0.937,0.00 c-0.018,1.086, 0.64,1.659, 1.631,1.659 C 135.571,43.919, 136.318,43.378, 136.318,42.474z M 138.793,43.841L 138.793,39.49 l-0.799,0.00 c-0.099,0.662-0.571,0.856-1.246,0.838 l0.00,0.773 l 1.063,0.00 l0.00,2.741 L 138.793,43.841 zM 170.61,43.572L 165.36,43.572 l0.00-0.938 l 5.251,0.00 L 170.61,43.572 z M 170.609,41.841l-2.045,0.00 l0.00-0.938 l 2.045,0.00 L 170.609,41.841 z M 170.609,40.111l-2.045,0.00 l0.00-0.938 l 2.045,0.00 L 170.609,40.111 z M 169.307,34.813l0.00,2.68 l 2.683,0.00 L 171.99,45.188 L 164.01,45.188 L 164.01,34.813 L 169.307,34.813 M 170.088,33.563L 162.76,33.563 l0.00,12.875 l 10.48,0.00 L 173.24,36.711 L 170.088,33.563z M 167.719,41.841l-2.359,0.00 l0.00-2.667 L 167.719,39.174 L 167.719,41.841 zM 200.00,33.878L 201.52,38.555L 206.438,38.555L 202.459,41.445L 203.979,46.122L 200.00,43.232L 196.021,46.122L 197.541,41.445L 193.563,38.555L 198.48,38.555 zM 234.927,35.695l 0.656-0.954l 1.029,0.71l-0.653,0.95 C 235.64,36.133, 235.295,35.896, 234.927,35.695z M 231.054,33.535l0.00,1.491 c 0.308-0.048, 0.624-0.073, 0.946-0.073 c 0.316,0.00, 0.626,0.024, 0.929,0.07L 232.929,33.535 L 231.054,33.535 z M 237.365,41.10c0.00,2.963-2.402,5.365-5.365,5.365 c-2.963,0.00-5.365-2.402-5.365-5.365c0.00-2.963, 2.402-5.365, 5.365-5.365 C 234.963,35.734, 237.365,38.136, 237.365,41.10z M 235.959,41.10c0.00-2.188-1.771-3.959-3.959-3.959 c-2.188,0.00-3.959,1.771-3.959,3.959c0.00,2.188, 1.771,3.959, 3.959,3.959 C 234.188,45.059, 235.959,43.288, 235.959,41.10z M 233.04,41.382c0.00,0.544-0.441,0.984-0.984,0.984 c-0.544,0.00-0.984-0.441-0.984-0.984c0.00-0.353, 0.186-0.663, 0.465-0.836l 0.36-2.706c 0.007-0.061, 0.058-0.107, 0.12-0.108 c 0.061-0.001, 0.114,0.043, 0.124,0.103l 0.417,2.701C 232.846,40.707, 233.04,41.022, 233.04,41.382zM 270.423,39.859c 0.009,0.439-0.025,0.872-0.103,1.302L 268.953,40.81 c 0.051-0.318, 0.072-0.633, 0.063-0.951L 270.423,39.859 z M 270.085,42.069l-1.367-0.351c-0.112,0.307-0.252,0.601-0.419,0.877 l 1.149,0.817C 269.709,42.993, 269.924,42.543, 270.085,42.069z M 267.735,45.234c 0.428-0.307, 0.817-0.666, 1.158-1.067 l-1.152-0.819c-0.218,0.244-0.459,0.467-0.72,0.665L 267.735,45.234z M 257.55,40.00c0.00,3.555, 2.882,6.438, 6.438,6.438 c 1.063,0.00, 2.065-0.258, 2.949-0.714l-0.711-1.217C 265.551,44.842, 264.791,45.031, 263.987,45.031c-2.779,0.00-5.031-2.253-5.031-5.031 s 2.253-5.031, 5.031-5.031c 1.368,0.00, 2.734,0.546, 3.641,1.433l-1.121,1.121l 3.943,0.72L 269.731,34.299l-1.108,1.108 C 267.461,34.266, 265.744,33.563, 263.987,33.563C 260.432,33.563, 257.55,36.445, 257.55,40.00z M 265.642,41.86l0.00-0.819 l-1.496,0.00 l0.00-0.747 l 1.57-2.107l 0.743,0.00 l0.00,2.128 l 0.47,0.00 l0.00,0.726 l-0.47,0.00 l0.00,0.819 L 265.642,41.86 z M 265.642,40.315l0.00-0.978 l-0.728,0.978L 265.642,40.315 z M 261.161,41.86c0.00-0.554, 0.159-0.986, 0.712-1.395c 0.651-0.482, 1.148-0.672, 1.148-1.118c0.00-0.295-0.178-0.478-0.463-0.478 c-0.398,0.00-0.494,0.417-0.494,0.814l-0.82,0.00 c-0.035-1.028, 0.549-1.565, 1.349-1.565c 0.742,0.00, 1.281,0.494, 1.281,1.174 c0.00,0.34-0.105,0.609-0.332,0.848c-0.359,0.378-0.896,0.569-1.248,0.97l 1.601,0.00 l0.00,0.751 L 261.161,41.86 zM 296.559,36.248l0.00-0.895 l 1.486-1.486c 0.22,0.073, 0.434,0.157, 0.642,0.253 L 296.559,36.248z M 300.346,35.213L 296.559,38.999l0.00,0.441 l 0.454,0.00 l 3.779-3.779C 300.651,35.505, 300.502,35.355, 300.346,35.213z M 296.559,34.425l 0.754-0.754c-0.247-0.051-0.498-0.087-0.754-0.109L 296.559,34.425 z M 302.331,38.697l-0.743,0.743L 302.438,39.44 C 302.416,39.188, 302.38,38.94, 302.331,38.697z M 302.136,37.964c-0.073-0.22-0.157-0.434-0.252-0.643l-2.12,2.12l 0.895,0.00 L 302.136,37.964z M 301.566,36.711c-0.11-0.186-0.229-0.366-0.356-0.539L 297.942,39.44l 0.895,0.00 L 301.566,36.711z M 299.836,34.795c-0.173-0.128-0.353-0.246-0.538-0.357l-2.738,2.738l0.00,0.895 L 299.836,34.795z M 295.464,40.536L 295.464,33.563 C 292.158,33.841, 289.563,36.611, 289.563,39.988C 289.563,43.55, 292.45,46.438, 296.012,46.438C 299.389,46.438, 302.159,43.841, 302.438,40.536L 295.464,40.536 zM 334.438,44.429l0.00,1.25 L 321.563,45.679 L 321.563,34.321 l 1.25,0.00 l0.00,10.107 L 334.438,44.429 z M 333.78,35.855l-2.978,0.563l 0.718,0.709 l-2.787,2.759l-1.257-1.182l-3.382,3.373l 1.061,1.064l 2.347-2.341l 1.253,1.178l 3.834-3.795l 0.665,0.657 L 333.78,35.855zM 364.712,41.022c0.00,0.00-4.693-6.271-5.25-6.973C 359.213,33.734, 358.83,33.563, 358.361,33.563 c-0.578,0.00-1.287,0.26-2.041,0.831c-1.366,1.034-1.724,2.148-1.18,2.917c 0.544,0.769, 5.283,7.02, 5.283,7.02 L 365.415,46.438L 364.712,41.022z M 363.679,41.101c-0.255,0.196-0.603,0.301-0.991,0.293c-0.60-0.012-1.158-0.288-1.493-0.738 c0.00,0.00-2.142-2.862-2.701-3.608c 0.706-0.485, 1.395-0.62, 1.65-0.656C 361.348,37.99, 362.985,40.174, 363.679,41.101z M 359.716,35.825c-0.417,0.096-1.042,0.306-1.673,0.763c-0.63,0.456-1.019,1.061-1.237,1.498 c-0.17-0.226-0.324-0.433-0.458-0.613c 0.152-0.355, 0.503-1.022, 1.141-1.484c 0.829-0.60, 1.658-0.706, 1.808-0.72 C 359.421,35.434, 359.563,35.622, 359.716,35.825z M 355.832,36.263c 0.139-0.365, 0.50-0.781, 1.017-1.172 c 0.548-0.415, 1.10-0.653, 1.513-0.653c 0.194,0.00, 0.334,0.052, 0.415,0.154c 0.021,0.027, 0.049,0.062, 0.081,0.104 c-0.415,0.088-1.076,0.295-1.743,0.778c-0.592,0.428-0.971,0.989-1.197,1.419c-0.025-0.035-0.047-0.064-0.063-0.088 C 355.814,36.747, 355.706,36.594, 355.832,36.263z M 357.242,38.668c 0.114-0.286, 0.402-0.892, 0.939-1.374 c 0.483,0.645, 2.108,2.816, 2.70,3.608c 0.306,0.41, 0.426,0.962, 0.329,1.516c-0.066,0.38-0.234,0.716-0.449,0.909 C 360.052,42.39, 358.437,40.257, 357.242,38.668z M 363.702,44.764l-2.684-1.133c 0.287-0.253, 0.501-0.668, 0.584-1.145 c 0.059-0.335, 0.049-0.671-0.022-0.986c 0.329,0.18, 0.707,0.284, 1.10,0.292c 0.016,0.00, 0.032,0.00, 0.048,0.00 c 0.443,0.00, 0.846-0.124, 1.157-0.348l 0.38,2.925C 363.997,44.396, 363.806,44.524, 363.702,44.764zM 397.438,35.821l0.00,2.416 l-1.972,0.00 l-2.345-1.803l-0.785,1.021l 1.019,0.782l-1.058,0.00 l-2.345-1.803 l-1.387,1.803L 386.531,38.236 L 386.531,34.802 l 3.136,0.00 l 0.718,0.714c 0.197,0.196, 0.463,0.305, 0.74,0.305L 397.438,35.821 z M 398.438,39.329L 385.563,39.329 L 386.313,45.198l 11.206,0.00 L 398.438,39.329zM 1.593,76.284c 0.467-0.93, 0.986-2.206, 0.96-3.096 c-0.63-0.759-0.986-1.738-0.986-2.735c0.00-2.81, 2.726-4.865, 5.778-4.865c 3.033,0.00, 5.778,2.039, 5.778,4.865 c0.00,2.942-3.242,5.69-7.689,4.598C 4.627,75.551, 2.846,76.056, 1.593,76.284z M 13.764,76.31 c 0.849-1.024, 0.936-2.555-0.006-3.714c-0.969,2.183-3.358,3.814-6.425,3.794 c 0.89,1.045, 2.509,1.668, 4.475,1.185c 0.548,0.339, 1.757,0.682, 2.608,0.837 C 14.098,77.78, 13.745,76.914, 13.764,76.31zM 33.554,67.231l0.00,9.537 L 33.566,76.769 l 12.849,0.00 l 0.031,0.00 L 46.446,67.231 L 33.554,67.231 z M 44.985,68.325L 39.998,72.14 L 35.015,68.325L 44.985,68.325 z M 34.648,69.422l 2.672,2.045L 34.648,74.139L 34.648,69.422 z M 34.659,75.675l 3.537-3.537l 1.802,1.379 l 1.793-1.371l 3.529,3.529L 34.659,75.675 z M 45.352,74.159l-2.684-2.684l 2.684-2.053L 45.352,74.159 zM 72.592,70.025c-0.002-0.004, 0.01-0.043, 0.021-0.039c 0.007,0.002, 0.004,0.006, 0.013,0.006 c 0.008,0.001, 0.014-0.009, 0.022-0.008c 0.014,0.002, 0.023,0.015, 0.038,0.016c 0.011,0.00, 0.018-0.011, 0.028-0.012 c 0.008-0.001, 0.015,0.004, 0.022,0.003c 0.008-0.002, 0.014-0.007, 0.021-0.011c 0.014-0.008, 0.012-0.001, 0.027-0.003 c 0.005-0.001, 0.009-0.003, 0.014-0.004c 0.001,0.00, 0.002,0.00, 0.003,0.00c 0.007,0.001, 0.01,0.005, 0.008,0.013 c-0.003,0.018-0.018,0.032-0.02,0.05c-0.002,0.012, 0.014,0.019, 0.01,0.032c-0.01,0.032-0.019,0.034-0.025,0.035 c-0.009,0.002-0.015-0.001-0.019-0.003c-0.011-0.005-0.019-0.015-0.029-0.022c-0.006-0.003-0.012-0.004-0.018-0.007 c-0.018-0.008-0.071-0.045-0.088-0.043c-0.006,0.00-0.011,0.005-0.017,0.004c0.00,0.00-0.001,0.00-0.001,0.00 C 72.60,70.032, 72.595,70.031, 72.592,70.025z M 71.482,68.44c0.00,0.00,0.00,0.000.00,0.00c-0.001,0.002-0.002,0.003-0.003,0.005 c-0.002,0.003-0.001,0.007, 0.003,0.009c 0.003,0.002, 0.007,0.001, 0.01-0.001c 0.003-0.003, 0.007-0.008, 0.012-0.014 c 0.005-0.005, 0.006-0.007, 0.013-0.01c 0.005-0.002, 0.011-0.004, 0.016-0.006c 0.002-0.001, 0.004,0.00, 0.006,0.001 s 0.003,0.003, 0.003,0.006c-0.001,0.013, 0.004,0.026-0.009,0.036c-0.007,0.006-0.013,0.01-0.017,0.014 c-0.004,0.004-0.005,0.01-0.003,0.015c 0.003,0.005, 0.008,0.007, 0.014,0.006c0.00,0.00,0.00,0.00, 0.001,0.00c 0.00,0.00, 0.001,0.001, 0.001,0.001 c 0.004,0.015, 0.004,0.015, 0.024,0.003c 0.001,0.00, 0.001,0.00, 0.002,0.00c 0.00,0.00, 0.001,0.00, 0.001,0.001 c 0.003,0.005, 0.007,0.009, 0.012,0.012c 0.007,0.004, 0.013,0.01, 0.015,0.019c 0.00,0.00, 0.00,0.001, 0.00,0.002 c 0.00,0.00, 0.00,0.001, 0.00,0.001c 0.007,0.02, 0.001,0.043-0.014,0.058c-0.015,0.015-0.038,0.02-0.058,0.014 c0.00,0.000.00,0.000.00,0.00c-0.003-0.001-0.007,0.00-0.009,0.003s-0.002,0.007, 0.00,0.01c 0.002,0.003, 0.004,0.005, 0.004,0.008 c0.00,0.013-0.016,0.008-0.021,0.016c0.00,0.000.00,0.000.00,0.00c0.00,0.001-0.001,0.001-0.001,0.002 c0.00,0.002, 0.001,0.003, 0.002,0.004c 0.001,0.001, 0.003,0.002, 0.005,0.001c 0.007-0.002, 0.013-0.008, 0.021-0.008 c 0.015-0.001, 0.004,0.036-0.001,0.041c-0.005,0.006-0.042,0.019-0.054,0.021c-0.007,0.001-0.013,0.002-0.015,0.005 c-0.002,0.003-0.004,0.018, 0.006,0.023c 0.016,0.008, 0.031-0.006, 0.046-0.002c0.00,0.00,0.00,0.00, 0.00,0.00c 0.015,0.004, 0.028,0.012, 0.039,0.023 c 0.001,0.001, 0.002,0.002, 0.003,0.002c 0.005,0.002, 0.011,0.002, 0.016,0.00c 0.001-0.001, 0.002-0.001, 0.003-0.002 c 0.004-0.004, 0.009-0.005, 0.013-0.005c 0.003,0.00, 0.006,0.002, 0.008,0.005c 0.001,0.003,0.00,0.007-0.003,0.009 c-0.011,0.008-0.023,0.017-0.039,0.015c-0.009-0.001-0.017-0.001-0.026,0.00c-0.026,0.003-0.051,0.014-0.07,0.033 c-0.006,0.006-0.013,0.013-0.019,0.019c-0.003,0.003-0.004,0.009-0.001,0.012c 0.003,0.004, 0.008,0.005, 0.012,0.002 c 0.003-0.002, 0.006-0.004, 0.009-0.006c 0.011-0.007, 0.032-0.015, 0.043,0.006c 0.00,0.00, 0.00,0.00, 0.001,0.00 c 0.002,0.001, 0.003,0.00, 0.005-0.001c 0.015-0.011, 0.023-0.033, 0.045-0.034c 0.016-0.001, 0.027,0.014, 0.044,0.011 c 0.018-0.004, 0.033-0.018, 0.053-0.017c 0.007,0.00, 0.027,0.006, 0.029,0.007c 0.005,0.003, 0.005,0.003, 0.035,0.004 c 0.012,0.00, 0.021,0.01, 0.033,0.012c 0.014,0.002, 0.027-0.006, 0.041-0.005c 0.00,0.00, 0.00,0.00, 0.00,0.00c 0.00,0.00, 0.00,0.00, 0.00,0.00 c 0.00,0.00, 0.042-0.008, 0.042-0.025c0.00,0.000.00-0.001-0.001-0.001c0.00,0.000.00,0.00-0.001,0.00 c-0.015-0.009-0.025-0.024-0.027-0.041c0.00-0.001, 0.001-0.003, 0.002-0.003c 0.001,0.00, 0.003,0.00, 0.004,0.001 c 0.001,0.001, 0.002,0.001, 0.003,0.002c 0.005,0.003, 0.007,0.004, 0.009,0.002c 0.01-0.007, 0.021-0.014, 0.032-0.02 c 0.006-0.003, 0.009-0.01, 0.013-0.022c 0.001-0.004, 0.005-0.024-0.021-0.038c0.00,0.000.00,0.00-0.001,0.00 c-0.002-0.001-0.049-0.026-0.063-0.018c-0.009,0.005-0.009,0.005-0.025-0.004c-0.001-0.002, 0.00-0.005, 0.002-0.006 c 0.019-0.014, 0.019-0.015, 0.018-0.019c-0.001-0.009-0.005-0.015-0.011-0.021c-0.005-0.005-0.005-0.013-0.001-0.019 c 0.00,0.00, 0.00,0.00, 0.00,0.00c 0.004-0.005-0.015-0.045-0.015-0.045c-0.001-0.001-0.002-0.002-0.004-0.002 c-0.008,0.001-0.016,0.001-0.024,0.001c-0.001,0.00-0.002,0.00-0.004,0.00c0.00,0.000.00,0.00-0.001,0.00 c0.00-0.001-0.001-0.0020.00-0.003c 0.003-0.01-0.007-0.016-0.008-0.025c-0.001-0.009, 0.002-0.018, 0.003-0.027 c 0.001-0.0080.00-0.017-0.003-0.026c-0.009-0.033-0.008-0.067, 0.004-0.098c 0.005-0.013, 0.012-0.025, 0.02-0.037 c 0.019-0.026-0.065-0.023-0.081-0.022c-0.001,0.00-0.002-0.001-0.003-0.002c-0.001-0.001-0.001-0.002, 0.00-0.003 c 0.004-0.006, 0.005-0.014, 0.01-0.019c 0.008-0.007, 0.018-0.01, 0.027-0.015c 0.019-0.012, 0.003-0.019-0.004-0.021 c-0.017-0.004-0.035-0.007-0.052-0.007c-0.007,0.00-0.013,0.001-0.02,0.003c-0.004,0.002-0.009,0.007-0.015,0.014 c-0.011,0.015-0.023,0.028-0.037,0.039c-0.001,0.001-0.002,0.001-0.002,0.002c-0.004,0.003-0.009,0.004-0.013,0.002 c-0.003-0.001-0.005-0.001-0.008,0.00c-0.001,0.00-0.001,0.00-0.002,0.001c-0.005,0.003-0.008,0.006-0.011,0.011 c-0.003,0.005-0.003,0.012, 0.002,0.016c 0.004,0.004, 0.011,0.006, 0.016,0.003c 0.00,0.00, 0.00,0.00, 0.00,0.00 c 0.001,0.002, 0.001,0.0040.00,0.005c-0.003,0.007-0.004,0.014-0.007,0.021c0.00,0.001-0.001,0.001-0.002,0.001 c-0.001,0.00-0.003,0.00-0.003-0.001c-0.004-0.005-0.005-0.006-0.008-0.005c0.00,0.00-0.001,0.00-0.001,0.00 c-0.01,0.002-0.017,0.025-0.017,0.032c 0.00,0.002, 0.001,0.004, 0.002,0.005C 71.492,68.404, 71.493,68.425, 71.482,68.44z M 78.438,72.00C 78.438,75.555, 75.555,78.438, 72.00,78.438C 68.445,78.438, 65.563,75.555, 65.563,72.00C 65.563,68.445, 68.445,65.563, 72.00,65.563 C 75.555,65.563, 78.438,68.445, 78.438,72.00z M 73.905,69.229c0.00-0.015, 0.026-0.015, 0.028-0.034c 0.001-0.009-0.003-0.017-0.01-0.022 c-0.009-0.006-0.013-0.004-0.025,0.001c-0.007,0.003-0.014,0.007-0.023,0.006c-0.007,0.00-0.012-0.005-0.014-0.011 c-0.001-0.006, 0.002-0.012, 0.007-0.015c 0.002-0.001, 0.003-0.004, 0.002-0.005c0.00,0.000.00,0.000.00,0.00 c-0.001-0.001-0.002-0.003-0.004-0.003c-0.018-0.004-0.033-0.007-0.045-0.008c-0.023-0.003-0.047-0.001-0.07,0.005 c-0.019,0.005-0.02,0.008-0.024,0.02c-0.011,0.032-0.016,0.045-0.02,0.051c-0.016,0.02-0.027,0.044-0.033,0.068 c-0.002,0.009-0.007,0.018-0.018,0.023c0.00,0.000.00,0.00-0.001,0.00c0.00,0.00-0.007,0.058-0.006,0.064c 0.001,0.013, 0.009,0.026, 0.004,0.04 c-0.004,0.012-0.02,0.009-0.025,0.021c0.00,0.000.00,0.000.00,0.001c-0.007,0.02, 0.002,0.049, 0.006,0.069 c 0.00,0.0020.00,0.004-0.002,0.004c-0.002,0.001-0.004,0.001-0.005-0.001c0.00,0.000.00,0.000.00,0.00 c-0.008-0.008-0.013-0.005-0.015-0.002c-0.002,0.003-0.001,0.006, 0.00,0.008c0.00,0.00, 0.00,0.00, 0.00,0.00l 0.024,0.034 c 0.024,0.034, 0.057,0.06, 0.095,0.076c 0.00,0.00, 0.00,0.00, 0.00,0.00c 0.021,0.009, 0.041-0.005, 0.061-0.003 c 0.023,0.003, 0.046-0.001, 0.069-0.001c 0.008,0.00, 0.024-0.002, 0.034-0.007c 0.008-0.004, 0.009-0.009, 0.01-0.016 c 0.00-0.001, 0.00-0.001, 0.00-0.002c 0.00-0.006, 0.001-0.007, 0.027-0.027c 0.018-0.015, 0.041-0.022, 0.059-0.037 c 0.031-0.025, 0.071,0.00, 0.105-0.01c 0.008-0.002, 0.114,0.038, 0.121,0.041c 0.00,0.00, 0.00,0.00, 0.00,0.00 c 0.031,0.013, 0.115,0.014, 0.136,0.019c 0.008,0.002, 0.021,0.005, 0.032,0.005c 0.001,0.00, 0.002-0.001, 0.002-0.001 c 0.017-0.008, 0.027-0.034, 0.05-0.022c 0.04,0.02, 0.154,0.003, 0.126-0.091c-0.015-0.051-0.082-0.079-0.102-0.086 c-0.061-0.022-0.101-0.074-0.154-0.107c-0.024-0.014-0.051-0.002-0.076-0.011c-0.055-0.022-0.055-0.022-0.058-0.038 c0.00-0.001, 0.00-0.002, 0.001-0.004c 0.015-0.021, 0.026-0.044, 0.033-0.068c 0.00,0.00, 0.00,0.00, 0.00-0.001 c 0.003-0.009, 0.006-0.013-0.004-0.019c-0.013-0.008-0.037,0.00-0.039-0.021c-0.002-0.016, 0.034-0.035, 0.048-0.043 c 0.012-0.007, 0.017-0.016, 0.019-0.022c 0.003-0.009-0.008-0.021-0.013-0.021c-0.017,0.002-0.063,0.029-0.07,0.03 c0.00,0.000.00,0.000.00,0.00c-0.002,0.00-0.004,0.001-0.006,0.002c0.00,0.00,0.00,0.000.00,0.00l-0.106,0.061 c0.00,0.000.00,0.000.00,0.00c-0.019,0.014-0.029,0.036-0.028,0.06c 0.002,0.023, 0.015,0.044, 0.036,0.055 c 0.009,0.005, 0.021,0.007, 0.017,0.016c0.00,0.000.00,0.000.00,0.00c-0.002,0.004-0.06,0.059-0.066,0.06 c-0.016,0.002-0.021-0.006-0.022-0.008c-0.001-0.001-0.001-0.002-0.001-0.003c-0.009-0.026-0.03-0.048-0.059-0.056 C 73.909,69.241, 73.905,69.236, 73.905,69.229z M 77.153,72.00c0.00-0.534-0.091-1.073-0.185-1.358 c-0.029-0.089-0.097-0.161-0.185-0.195c-0.088-0.034-0.186-0.027-0.268,0.02c-0.206,0.117-0.20,0.132-0.272,0.128 c-0.033-0.002-0.181,0.097-0.234-0.016c-0.01-0.021-0.062-0.117-0.134,0.015c-0.019,0.036-0.126,0.009-0.161-0.011 c-0.104-0.058-0.232-0.194-0.263-0.228c0.00,0.000.00,0.000.00,0.00c0.00,0.000.00,0.000.00,0.00 c-0.035-0.041-0.138,0.015-0.063,0.127c 0.253,0.377, 0.297,0.38, 0.369,0.418c 0.00,0.00, 0.00,0.00, 0.00,0.00 c 0.034-0.025, 0.029-0.033, 0.073-0.04c 0.027-0.004, 0.051-0.021, 0.063-0.046c 0.00,0.00, 0.00,0.00, 0.00-0.001 c 0.014-0.028, 0.04-0.049, 0.071-0.055s 0.063,0.002, 0.087,0.023c 0.00,0.00, 0.001,0.00, 0.001,0.001 c 0.044,0.038, 0.10,0.003, 0.147,0.025c 0.118,0.055, 0.073,0.168, 0.05,0.302c0.00,0.000.00,0.001-0.001,0.001 c0.00,0.00-0.001,0.00-0.001,0.00c-0.011-0.002-0.021,0.006-0.021,0.017c0.00,0.042, 0.027,0.082, 0.018,0.125 c0.00,0.002-0.001,0.003-0.003,0.004c-0.014,0.007-0.027,0.016-0.038,0.028c-0.034,0.036-0.036,0.081-0.065,0.122 c-0.028,0.038, 0.002,0.124-0.064,0.124c-0.025,0.00-0.11,0.049-0.123,0.104c-0.015,0.066-0.051,0.124-0.103,0.168 c-0.038,0.032-0.09,0.074-0.161,0.129c-0.034,0.026-0.171,0.174-0.289,0.202c-0.016,0.004-0.033-0.002-0.043-0.016 c-0.001-0.001-0.001-0.002-0.002-0.003c-0.078-0.12-0.094-0.265-0.155-0.392c-0.072-0.15-0.267-0.19-0.322-0.357 c-0.046-0.141-0.065-0.20-0.129-0.236c-0.045-0.025-0.082-0.061-0.11-0.104c-0.045-0.071-0.114-0.171-0.17-0.225 c-0.025-0.025-0.042-0.057-0.048-0.091c-0.003-0.016-0.026-0.015-0.027,0.001c-0.003,0.056, 0.007,0.074-0.008,0.085 c-0.013,0.01-0.029,0.004-0.041-0.007c-0.04-0.041-0.106-0.117-0.122-0.159c0.00,0.000.00,0.000.00,0.001 c-0.004,0.016-0.001,0.034, 0.009,0.048c 0.087,0.124, 0.51,0.735, 0.521,0.793c 0.07,0.385, 0.368,0.477, 0.52,0.618 c 0.029,0.027, 0.047,0.061, 0.055,0.098c 0.007,0.035, 0.024,0.066, 0.05,0.09c 0.028,0.026, 0.056,0.022, 0.215,0.003 c 0.026-0.003, 0.043-0.022, 0.062-0.039c 0.016-0.014, 0.144-0.06, 0.161-0.071c 0.035-0.023-0.008-0.009, 0.071-0.047 c 0.031-0.015, 0.068-0.109, 0.062-0.002c-0.001,0.028, 0.014,0.052, 0.011,0.08c-0.017,0.162-0.03,0.189-0.039,0.22 c-0.012,0.041-0.029,0.081-0.039,0.124c-0.049,0.199-0.126,0.411-0.259,0.568c-0.003,0.003-0.006,0.006-0.009,0.009 c-0.074,0.068-0.209,0.195-0.319,0.41c-0.069,0.135-0.167,0.253-0.239,0.386c-0.024,0.045-0.03,0.057-0.009,0.117 c 0.015,0.043, 0.061,0.244, 0.068,0.502c 0.008,0.281-0.038,0.327-0.127,0.392c-0.144,0.104-0.242,0.175-0.309,0.225 c-0.079,0.058-0.126,0.15-0.127,0.248c0.00,0.036-0.009,0.082-0.034,0.137c 0.00,0.00, 0.00,0.00, 0.00,0.00 c 0.005,0.01-0.185,0.105-0.251,0.183c0.00,0.000.00,0.000.00,0.00c0.00,0.0020.00,0.004, 0.00,0.006 c 0.044,0.139-0.518,0.542-0.635,0.541c-0.084-0.001-0.292,0.032-0.391,0.075c-0.067,0.028-0.247-0.033-0.26-0.071 c-0.002-0.006-0.003-0.016, 0.002-0.02c 0.044-0.036-0.105-0.251-0.14-0.276c-0.023-0.016-0.066-0.116-0.084-0.141 c-0.054-0.077, 0.039-0.185-0.021-0.261c-0.003-0.004-0.006-0.008-0.009-0.013l-0.175-0.245c-0.027-0.038-0.105-0.083-0.105-0.13 c0.00,0.00,0.00,0.00,0.00,0.00c0.00-0.051, 0.091-0.297, 0.098-0.307c 0.008-0.012, 0.016-0.025, 0.023-0.038 c 0.004-0.007, 0.011-0.013, 0.024-0.02c 0.044-0.023, 0.108-0.079, 0.035-0.198c-0.004-0.007-0.004,0.024-0.027-0.141 c-0.015-0.108-0.158-0.354-0.182-0.38c0.00,0.00-0.165-0.079-0.241-0.234c 0.004-0.009, 0.01-0.017, 0.017-0.023 c 0.07-0.056, 0.057-0.126, 0.078-0.277c 0.001-0.007, 0.002-0.015, 0.004-0.023c 0.00,0.00, 0.00-0.001, 0.00-0.001l 0.002-0.01 c 0.00,0.00, 0.00-0.001, 0.00-0.001c 0.00,0.00, 0.00,0.00, 0.00,0.00c 0.006-0.03, 0.014-0.069-0.027-0.131 c-0.007-0.011-0.02-0.017-0.032-0.015c-0.001,0.00-0.001,0.00-0.002,0.00c-0.022,0.002-0.042-0.014-0.044-0.037 c0.00,0.000.00-0.0010.00-0.001c0.00,0.000.00-0.0010.00-0.001c-0.033-0.013-0.069-0.015-0.103-0.005 c-0.075,0.022-0.233,0.054-0.25-0.048c-0.024-0.138-0.118-0.168-0.164-0.165c-0.197,0.014-0.363,0.183-0.566,0.169 c-0.009,0.00-0.021-0.005-0.029-0.008c-0.175-0.066-0.364-0.068-0.543-0.102c-0.06-0.012-0.148-0.041-0.191-0.084l-0.25-0.246 c-0.016-0.016-0.031-0.034-0.043-0.053c-0.079-0.122-0.109-0.39-0.13-0.438c-0.003-0.007-0.007-0.014-0.01-0.021l-0.021-0.041 c0.00-0.001-0.001-0.001-0.001-0.001c0.00,0.000.00,0.000.00,0.00c-0.058-0.076-0.076-0.176-0.049-0.267l 0.099-0.328 c 0.001-0.005, 0.003-0.01, 0.004-0.015c 0.003-0.01, 0.005-0.021, 0.006-0.032c 0.023-0.163-0.008-0.223-0.023-0.252 c-0.028-0.054-0.028-0.054, 0.113-0.251c 0.257-0.358, 0.301-0.376, 0.352-0.396c0.00,0.00,0.00,0.00,0.00,0.00c 0.00,0.00, 0.00,0.00, 0.001,0.00 c 0.112,0.013, 0.323-0.123, 0.319-0.197c-0.001-0.024-0.004-0.073, 0.038-0.139c 0.016-0.025, 0.037-0.048, 0.06-0.067l 0.231-0.187 c 0.043-0.035, 0.103-0.038, 0.148-0.007c0.00,0.00,0.00,0.00, 0.00,0.00c 0.031-0.011, 0.065-0.01, 0.096,0.004c 0.039,0.017, 0.065,0.005, 0.077-0.001 c 0.14-0.067, 0.292-0.087, 1.00-0.133c 0.024-0.002, 0.047,0.009, 0.062,0.028c 0.00,0.00, 0.00,0.00, 0.00,0.001 c 0.042,0.054, 0.011,0.047, 0.058,0.127c 0.018,0.03, 0.00,0.053-0.056,0.11c-0.021,0.022-0.018,0.056-0.011,0.057 c 0.019,0.001, 0.065,0.013, 0.103,0.033c 0.05,0.026, 0.13,0.052, 0.195,0.071c 0.06,0.017, 0.113,0.052, 0.153,0.10 c 0.026,0.031, 0.376,0.241, 0.362-0.044c-0.001-0.02, 0.018-0.054, 0.051-0.081c 0.114-0.093, 0.197,0.027, 0.229,0.034 c 0.05,0.011, 0.057,0.011, 0.09,0.011c 0.00,0.00, 0.001,0.00, 0.001,0.00c 0.00,0.00, 0.00,0.00, 0.001,0.00c 0.031,0.001, 0.046,0.036, 0.146,0.03 c 0.173-0.012, 0.348,0.016, 0.52-0.015c 0.019-0.003, 0.046-0.01, 0.061-0.022c 0.191-0.158-0.003-0.351, 0.027-0.525 c 0.00-0.0010.00-0.0010.00-0.001c0.00,0.00-0.001-0.001-0.001-0.001c0.00,0.000.00,0.000.00,0.00 c-0.059,0.005-0.115,0.028-0.16,0.067c-0.016,0.014-0.036,0.024-0.063,0.027c-0.048,0.005-0.085-0.026-0.127-0.042 c-0.021-0.008-0.044,0.003-0.052,0.023c0.00,0.000.00,0.000.00,0.00c-0.016,0.039-0.198,0.01-0.253-0.081 c-0.017-0.028-0.041-0.049-0.071-0.061c0.00,0.000.00,0.000.00,0.00c 0.001-0.001, 0.001-0.001, 0.002-0.002 c 0.054-0.051-0.028-0.09-0.037-0.129c-0.004-0.02, 0.006-0.04, 0.024-0.047c 0.00,0.00, 0.001,0.00, 0.001,0.00 c 0.045-0.017, 0.065-0.041, 0.056-0.035c-0.019,0.014-0.041,0.022-0.065,0.023c0.00,0.000.00,0.000.00,0.00 c-0.013,0.001-0.025-0.002-0.036-0.008c-0.026-0.015-0.056-0.022-0.087-0.022c-0.036,0.00-0.073,0.01-0.081,0.046 c-0.001,0.007-0.005,0.013-0.011,0.017c0.00,0.000.00,0.000.00,0.00c-0.005,0.003-0.011,0.004-0.016,0.002 c-0.009-0.004-0.018-0.003-0.025,0.002c-0.007,0.005-0.012,0.013-0.011,0.025c 0.003,0.031, 0.087,0.063, 0.019,0.095l0.00,0.00 c0.00,0.00-0.029,0.017-0.032,0.018c-0.028,0.014-0.065-0.017-0.089-0.018c-0.008,0.00-0.016,0.003-0.024,0.003c0.00,0.000.00,0.00-0.001,0.00 c-0.005,0.00-0.008-0.002-0.009-0.003c0.00,0.000.00,0.000.00,0.00c-0.002-0.002-0.029-0.026-0.033-0.033 c-0.01-0.018-0.011-0.019-0.017-0.025c-0.004-0.005-0.012-0.01-0.018-0.015c-0.013-0.009-0.022-0.024-0.023-0.041 c0.00,0.00,0.00,0.00,0.00,0.00c-0.001-0.013-0.002-0.031-0.005-0.05c-0.005-0.044-0.027-0.084-0.062-0.111 c-0.009-0.007-0.02-0.011-0.031-0.01c-0.007,0.00-0.014-0.002-0.021-0.006c-0.029-0.019-0.048-0.023-0.048-0.023 c0.00,0.000.00,0.000.00,0.00l-0.226-0.165c-0.013-0.009-0.029-0.014-0.045-0.013c-0.013,0.001-0.02-0.012-0.028-0.023 c-0.015-0.022-0.042-0.032-0.067-0.025c-0.001,0.00-0.002,0.001-0.003,0.001c-0.016,0.006-0.023,0.025-0.015,0.041 c 0.005,0.009, 0.01,0.017, 0.015,0.025l 0.132,0.192c 0.022,0.032, 0.058,0.051, 0.097,0.05c 0.016,0.00, 0.029,0.012, 0.031,0.027 c 0.001,0.008, 0.005,0.015, 0.012,0.019c 0.063,0.036, 0.144,0.041, 0.188,0.11c 0.00,0.001, 0.001,0.001, 0.001,0.002 c 0.00,0.00, 0.00,0.00, 0.00,0.001c0.00,0.00,0.00,0.00,0.00,0.00c 0.00,0.005-0.003,0.021-0.006,0.026 c-0.005,0.009-0.021,0.012-0.026,0.008c-0.004-0.003-0.003-0.011-0.003-0.019c 0.00-0.003-0.001-0.006-0.002-0.009 c-0.007-0.018-0.02-0.022-0.038-0.029c-0.024-0.01-0.052,0.001-0.063,0.024c0.00,0.000.00,0.000.00,0.001 c0.00,0.001-0.001,0.001-0.001,0.002c-0.011,0.027, 0.007,0.035, 0.016,0.04c 0.015,0.007, 0.037,0.018, 0.031,0.049 c-0.002,0.013-0.017,0.009-0.025,0.014c0.00,0.00, 0.005-0.005-0.021,0.048c-0.009,0.018-0.001,0.022-0.024,0.034 c-0.02,0.01-0.029-0.003-0.031-0.007c-0.008-0.014, 0.003-0.027, 0.003-0.041c0.00-0.0060.00-0.012, 0.018-0.019 c 0.026-0.011-0.002-0.053-0.017-0.077c0.00,0.000.00-0.0010.00-0.001c-0.032-0.055-0.011-0.01-0.047-0.045 c-0.023-0.021-0.082-0.056-0.093-0.071c-0.078-0.096-0.205-0.142-0.272-0.249c-0.014-0.022-0.033-0.039-0.056-0.05 c-0.015-0.007-0.033-0.012-0.053-0.011c-0.019,0.001-0.111,0.053-0.185,0.095c-0.069,0.04-0.12-0.054-0.187-0.027 c-0.073,0.029-0.03,0.124-0.092,0.16c-0.07,0.04-0.155,0.054-0.217,0.11c-0.003,0.002-0.004,0.006-0.006,0.009 c-0.019,0.044-0.052,0.063-0.054,0.074c-0.002,0.009-0.003,0.013, 0.001,0.025c 0.008,0.0260.00,0.055-0.021,0.073 c0.00,0.000.00,0.000.00,0.00c-0.014,0.012-0.002,0.05-0.015,0.057c-0.023,0.012-0.048-0.001-0.071,0.006 c-0.035,0.01-0.037,0.056-0.072,0.066c-0.045,0.014-0.089-0.015-0.134-0.005c-0.102,0.022-0.102,0.022-0.105,0.031 c-0.004,0.008-0.012,0.022-0.026,0.022c-0.053-0.001-0.033-0.067-0.058-0.096c-0.027-0.031-0.034-0.028-0.047-0.022 c-0.016,0.007-0.044,0.019-0.052,0.014c-0.011-0.007-0.02-0.017-0.033-0.021c-0.009-0.003-0.017-0.009-0.021-0.017 c-0.008-0.015, 0.011-0.075, 0.016-0.092c 0.003-0.01, 0.002-0.021-0.002-0.031c-0.005-0.012-0.016-0.02-0.028-0.02 c-0.002,0.00-0.005-0.001-0.006-0.003c-0.015-0.016, 0.046-0.077, 0.063-0.109c 0.003-0.005, 0.005-0.012, 0.007-0.017 c 0.052-0.132, 0.052-0.177, 0.041-0.221c-0.005-0.02, 0.009-0.038, 0.029-0.04c 0.011-0.001, 0.023-0.001, 0.032-0.002c0.00,0.00, 0.00,0.00,0.00,0.00 c 0.021-0.025, 0.057-0.032, 0.087-0.017c 0.04,0.02, 0.12,0.049, 0.256,0.056c 0.033,0.002, 0.066,0.009, 0.097,0.02 c 0.029,0.011, 0.053-0.014, 0.064-0.028c 0.025-0.032, 0.021-0.073, 0.027-0.111c 0.003-0.02, 0.014-0.038, 0.031-0.049c0.00,0.00,0.00,0.00, 0.00,0.00 c 0.004-0.003, 0.007-0.008, 0.006-0.014c-0.001-0.007-0.007-0.064-0.014-0.065c0.00,0.00-0.001,0.00-0.001,0.00 c-0.056-0.006-0.038-0.078-0.075-0.102c-0.031-0.02-0.03-0.033-0.108-0.042c-0.011-0.001, 0.015-0.055, 0.061-0.07 c 0.003-0.001, 0.005-0.001, 0.008,0.001c 0.028,0.014, 0.059,0.021, 0.09,0.019c 0.012-0.001, 0.023-0.006, 0.03-0.016 c 0.007-0.01, 0.009-0.022, 0.006-0.033c0.00,0.000.00,0.000.00-0.001c-0.003-0.012, 0.007-0.03, 0.02-0.021 c 0.026,0.017, 0.039,0.028, 0.084,0.021c 0.011-0.002, 0.02-0.01, 0.023-0.021c 0.001-0.005, 0.005-0.01, 0.009-0.012 c 0.051-0.029, 0.072-0.041, 0.082-0.053c 0.024-0.028, 0.052-0.051, 0.084-0.069c 0.046-0.026, 0.068-0.042, 0.112-0.082 c 0.019-0.017, 0.041-0.029, 0.066-0.035c 0.008-0.002, 0.012-0.009, 0.011-0.017c0.00-0.001, 0.00-0.003, 0.001-0.004 c 0.008-0.011, 0.021-0.018, 0.034-0.019c 0.032-0.003, 0.051-0.003, 0.064-0.003c 0.00,0.00, 0.00,0.00, 0.00,0.00 c 0.009-0.011, 0.023-0.017, 0.037-0.016c 0.033,0.001, 0.077,0.016, 0.07-0.075c-0.011-0.082, 0.017-0.165, 0.074-0.226 c 0.00,0.00, 0.00,0.00, 0.00,0.00c 0.026,0.011, 0.02,0.037, 0.025,0.065c 0.003,0.017-0.002,0.034-0.014,0.046 c0.00,0.000.00,0.00-0.001,0.001c-0.11,0.122, 0.031,0.118, 0.035,0.149c 0.00,0.00, 0.00,0.00, 0.00,0.001 c 0.001,0.005, 0.003,0.01, 0.008,0.013c 0.004,0.003, 0.01,0.003, 0.015,0.002c 0.005-0.002, 0.113-0.047, 0.118-0.044 c 0.021,0.013, 0.005,0.02, 0.021,0.035c 0.00,0.00, 0.00,0.00, 0.00,0.00c 0.025,0.023, 0.061,0.027, 0.09,0.012 c 0.062-0.033, 0.134-0.044, 0.203-0.031c 0.034,0.006, 0.119-0.076, 0.103-0.121c0.00,0.00,0.00,0.000.00,0.00 c-0.01-0.028-0.011-0.058-0.005-0.086c 0.004-0.018-0.003-0.028, 0.017-0.041c 0.01-0.007, 0.023-0.008, 0.035-0.003 c 0.015,0.007, 0.031,0.007, 0.046,0.001c 0.02-0.009, 0.034-0.028, 0.035-0.049c0.00,0.00, 0.00,0.00, 0.00,0.00 c 0.00-0.004-0.002-0.009-0.005-0.011c-0.019-0.012-0.029-0.033-0.026-0.056c 0.003-0.025, 0.022-0.045, 0.047-0.049 c 0.072-0.013, 0.085,0.027, 0.153-0.034c 0.004-0.004, 0.006-0.009, 0.004-0.015c-0.001-0.005-0.006-0.009-0.011-0.011 c0.00,0.000.00,0.000.00,0.00c-0.057-0.012-0.115-0.009-0.17,0.011l-0.066,0.023c0.00,0.000.00,0.000.00,0.00 c0.00,0.000.00,0.000.00,0.00c0.00,0.000.00,0.000.00,0.00c-0.011,0.007-0.024,0.011-0.037,0.009 c-0.046-0.004-0.075-0.047-0.093-0.095c-0.021-0.056-0.014-0.118, 0.019-0.168c 0.016-0.025, 0.024-0.056, 0.042-0.08 c 0.007-0.009, 0.01-0.022, 0.008-0.034c-0.007-0.033-0.065-0.048-0.097-0.041c-0.064,0.014-0.021,0.091-0.047,0.131 c-0.015,0.023-0.076,0.039-0.082,0.071c-0.013,0.081-0.021,0.123-0.015,0.151c 0.012,0.06, 0.006,0.121-0.017,0.178 c0.00,0.000.00,0.0010.00,0.001c-0.018,0.048, 0.019,0.098-0.006,0.146c-0.029,0.056-0.097,0.012-0.113,0.079 c-0.006,0.028-0.062-0.013-0.081-0.032c-0.002-0.055-0.023-0.081-0.039-0.124c-0.013-0.035-0.041-0.062-0.077-0.073 c-0.095-0.028-0.114,0.064-0.198,0.039c-0.067-0.021-0.115-0.082-0.118-0.152s 0.037-0.136, 0.102-0.163c 0.00,0.00, 0.00,0.00, 0.00,0.00 c 0.221-0.093, 0.263-0.171, 0.277-0.224c 0.003-0.012, 0.013-0.021, 0.024-0.025c 0.00,0.00, 0.00,0.00, 0.00,0.00 c 0.00,0.00, 0.00,0.00, 0.00,0.00c 0.002-0.012, 0.008-0.023, 0.017-0.031c 0.023-0.021, 0.038-0.049, 0.059-0.073 c 0.022-0.026, 0.045-0.065, 0.045-0.065s0.00,0.00, 0.00,0.00c0.00,0.00, 0.115-0.112, 0.236-0.151c 0.056-0.018, 0.097-0.017, 0.111-0.014 c 0.014,0.003, 0.035,0.007, 0.067,0.013c0.00,0.00,0.00,0.00,0.00,0.00c-0.002,0.011, 0.001,0.022, 0.008,0.031c 0.015,0.02, 0.066,0.015, 0.126,0.043 c 0.07,0.033, 0.154,0.023, 0.23,0.039c 0.031,0.006, 0.052,0.035, 0.048,0.067c-0.004,0.031-0.031,0.055-0.062,0.054 c-0.022-0.001-0.042,0.013-0.049,0.033c-0.007,0.021-0.001,0.044, 0.016,0.057c 0.027,0.021, 0.058,0.038, 0.09,0.05 c 0.038,0.013, 0.10,0.023, 0.073-0.007c0.00,0.000.00,0.00,0.00,0.00c-0.01-0.011-0.023-0.017-0.038-0.017c-0.052,0.00-0.036-0.048-0.008-0.035 c 0.031,0.014, 0.118,0.024, 0.058-0.035c-0.007-0.007-0.008-0.019-0.002-0.027c 0.01-0.013, 0.018-0.027, 0.024-0.042 c 0.013-0.032, 0.01-0.022, 0.051-0.009c 0.007,0.002, 0.014,0.001, 0.02-0.003c 0.012-0.008, 0.027-0.014, 0.016-0.023 c-0.01-0.007, 0.01-0.024, 0.017-0.022c 0.012,0.004, 0.025,0.00, 0.033-0.01c 0.006-0.008, 0.008-0.018, 0.005-0.027 c-0.007-0.024, 0.012-0.087, 0.046-0.10c 0.008-0.003, 0.017-0.003, 0.025-0.001c 0.00,0.00, 0.00,0.00, 0.00,0.00 c 0.007-0.006, 0.015-0.012, 0.024-0.015c 0.015-0.006, 0.041-0.017, 0.059-0.032c 0.019-0.016, 0.044-0.022, 0.068-0.016 c 0.00,0.00, 0.001,0.00, 0.001,0.00c 0.007-0.008, 0.007-0.021-0.001-0.029c-0.014-0.014-0.062-0.039-0.055-0.058 c 0.002-0.006, 0.032-0.013, 0.036-0.039c 0.003-0.018-0.007-0.035-0.024-0.041c-0.499-0.196-1.036-0.316-1.597-0.347 c-0.103,0.064-0.207,0.135-0.30,0.212c-0.34,0.281-0.876,0.398-0.864,0.367c-0.051,0.001-0.065-0.013-0.065-0.013 c-0.017,0.004-0.032,0.014-0.045,0.004c0.00,0.000.00,0.000.00,0.00c 0.001-0.007-0.003-0.013-0.008-0.017 c-0.018-0.012-0.053,0.016-0.138,0.059c0.00,0.00-0.001,0.00-0.001,0.00c-0.002,0.001-0.003,0.002-0.005,0.002 c-0.036,0.019-0.076,0.024-0.103,0.024c-0.02,0.00-0.039,0.004-0.057,0.011c-0.003,0.001-0.006,0.00-0.007-0.002 c-0.006-0.01, 0.025-0.021, 0.036-0.026c 0.01-0.004, 0.005-0.015-0.037,0.009c-0.009,0.005-0.02,0.007-0.03,0.004 c-0.043-0.011-0.094,0.023-0.127,0.051c-0.005,0.004-0.012,0.007-0.02,0.003c-0.012-0.005-0.022-0.003-0.019,0.015 c 0.004,0.02-0.108,0.069-0.11,0.061c-0.002-0.006-0.009-0.01-0.015-0.008c-0.015,0.003-0.033,0.015-0.042,0.034 c-0.018,0.034-0.067,0.04-0.091,0.06c-0.025,0.02-0.061,0.041-0.061,0.041c-0.013,0.016-0.023,0.024-0.037,0.025 c-0.014,0.001-0.022-0.024-0.016-0.033c 0.004-0.006, 0.031-0.032, 0.024-0.034c-0.003-0.001-0.005-0.002-0.006-0.005 c-0.005-0.009, 0.016-0.018, 0.011-0.029c-0.004-0.007-0.044-0.01-0.047-0.013c-0.002-0.003-0.003-0.006-0.001-0.01 c 0.025-0.051, 0.029-0.055, 0.063-0.089c0.00,0.000.00,0.000.00-0.001c-0.004-0.005-0.004-0.012, 0.00-0.018 c 0.019-0.028, 0.083-0.112, 0.157-0.122c 0.02-0.003, 0.007-0.007, 0.007-0.007c-0.019-0.007-0.042-0.013-0.029-0.027 c 0.026-0.029, 0.067-0.067, 0.112-0.089c 0.022-0.011, 0.042-0.024, 0.06-0.039c 0.018-0.015, 0.08-0.042, 0.147-0.045 c 0.00,0.00, 0.00,0.00, 0.00,0.00c 0.056-0.004, 0.204-0.104, 0.205-0.106c0.00,0.000.00,0.000.00,0.00 c-0.005-0.004, 0.002-0.019, 0.001-0.027c-0.001-0.003, 0.001-0.006, 0.004-0.008c 0.015-0.008, 0.031-0.011, 0.046-0.017 c 0.002-0.001, 0.003-0.003, 0.004-0.005c 0.001-0.006-0.006-0.009-0.011-0.007c-0.031,0.011-0.043,0.016-0.051,0.018 c-0.004,0.001-0.008-0.001-0.01-0.004c-0.002-0.004-0.001-0.008, 0.002-0.011c 0.035-0.03, 0.082-0.031, 0.124-0.045 c 0.018-0.006, 0.018-0.045-0.02-0.039c-0.187,0.031-0.356,0.086-0.533,0.145c 0.00,0.00, 0.00,0.00, 0.00,0.00 c 0.001,0.005-0.036,0.023-0.04,0.027c-0.002,0.002-0.003,0.006-0.002,0.009c 0.00,0.00, 0.00,0.00, 0.00,0.001 c 0.002,0.00, 0.003,0.003, 0.001,0.004c-0.007,0.005-0.02,0.00-0.024,0.007c-0.005,0.009, 0.012,0.005, 0.015,0.012 c 0.002,0.005, 0.002,0.01-0.002,0.014c0.00,0.000.00,0.000.00,0.00c-0.006,0.006-0.033,0.018-0.037,0.013 c-0.004-0.005-0.005-0.009-0.01-0.005c-0.02,0.013-0.032,0.02-0.044,0.022c-0.04,0.007-0.091,0.028-0.091,0.028 c 0.006-0.005, 0.025-0.023, 0.028-0.03c 0.011-0.022, 0.023-0.029, 0.036-0.032c 0.01-0.002, 0.011-0.016-0.032,0.00 c-0.039,0.015-0.074,0.037-0.104,0.065c-0.025,0.024-0.055,0.049-0.076,0.061c 0.004-0.007, 0.001-0.009-0.002-0.007 c-0.002,0.001-0.023,0.02-0.031,0.017c-0.026-0.007, 0.008-0.021, 0.008-0.047c 0.003-0.004, 0.006-0.008, 0.01-0.011 c0.00,0.000.00,0.000.00,0.00c-0.029,0.012-0.055,0.031-0.077,0.054c-0.017,0.019-0.031,0.041-0.05,0.023 c-0.009-0.009-0.022-0.011-0.034-0.006c-0.071,0.033-0.141,0.068-0.211,0.104c-0.007,0.004-0.014,0.008-0.021,0.014 c-0.005,0.004-0.008,0.01-0.009,0.016c-0.001,0.007-0.014,0.024-0.018,0.031c-0.002,0.004-0.002,0.008, 0.00,0.011 c 0.006,0.01, 0.028,0.003, 0.039-0.001c 0.016-0.005, 0.033,0.001, 0.042,0.016c 0.008,0.014, 0.006,0.032-0.005,0.043 c-0.009,0.01-0.019,0.02-0.027,0.031c-0.017,0.023-0.033,0.046-0.057,0.062c-0.015,0.009-0.029,0.02-0.042,0.032 c-0.133,0.12-0.138,0.338-0.236,0.381c0.00,0.000.00,0.00-0.001,0.00c-0.075,0.033-0.102,0.005-0.192,0.038 c-0.018,0.007-0.034,0.002-0.051-0.003c-0.014-0.004-0.025-0.014-0.031-0.027c0.00,0.00,0.00,0.00,0.00,0.00c-0.02-0.05-0.077-0.075-0.127-0.055 c-0.008,0.003-0.017,0.005-0.027,0.002c0.00,0.000.00,0.000.00,0.00c0.00,0.000.00,0.000.00,0.00 c-0.017,0.005-0.122,0.038-0.115,0.053c 0.00,0.00, 0.186-0.057, 0.144,0.044c0.00,0.000.00,0.000.00,0.00 c-0.007,0.002-0.013,0.007-0.016,0.013c-0.004,0.009-0.01,0.015-0.025,0.018c-0.018,0.004-0.036-0.001-0.05-0.013 c0.00,0.000.00,0.000.00,0.00c-0.009,0.002-0.014,0.025-0.01,0.031c 0.005,0.008, 0.029,0.008, 0.004,0.024 c-0.015,0.009-0.035,0.014-0.042,0.03c-0.008,0.019-0.018,0.038-0.029,0.055c-0.012,0.018, 0.014,0.024-0.006,0.041 c-0.025,0.02-0.109,0.001-0.139,0.006c0.00,0.00-0.051,0.005-0.081,0.016s-0.086,0.024-0.116,0.061 c-0.052,0.063-0.048,0.077-0.109,0.06c-0.003-0.001-0.007,0.00-0.01,0.003c-0.623,0.661-1.074,1.488-1.279,2.406 c0.00,0.0010.00,0.002-0.001,0.002c-0.014,0.059-0.029,0.13-0.052,0.264c-0.001,0.0030.00,0.006, 0.00,0.009 c 0.003,0.015, 0.006,0.019, 0.025,0.019c 0.045,0.00, 0.084,0.032, 0.092,0.077c 0.002,0.013, 0.01,0.022, 0.02,0.026 c 0.01,0.004, 0.022,0.003, 0.032-0.004c 0.007-0.005, 0.046,0.029, 0.048,0.07c 0.001,0.022, 0.01,0.048, 0.014,0.07 c 0.005,0.026-0.002,0.054-0.019,0.075c-0.003,0.003-0.004,0.008-0.003,0.012c 0.022,0.085, 0.12,0.445, 0.14,0.464 c 0.012-0.002, 0.021,0.002, 0.028,0.009c 0.198,0.224, 0.422,0.588, 0.416,0.703c-0.045,0.084-0.04,0.079-0.003,0.125 c 0.069,0.085, 0.068,0.089, 0.042,0.176l 0.00,0.00c 0.015-0.025, 0.042-0.04, 0.071-0.04c 0.029,0.00, 0.056,0.015, 0.071,0.04 c 0.011,0.018, 0.023,0.037, 0.038,0.051c 0.041,0.037, 0.062,0.09, 0.057,0.145c0.00,0.00, 0.063,0.001, 0.15,0.066 c 0.11,0.083, 0.50,0.529, 0.515,0.651c 0.007,0.054-0.015,0.108-0.043,0.155c-0.032,0.054-0.136,0.167-0.154,0.228 c-0.009,0.03-0.057,0.044-0.057,0.062c 0.001,0.025, 0.008,0.076, 0.044,0.178c 0.011,0.03, 0.035,0.253, 0.023,0.343 c-0.007,0.053-0.007,0.062, 0.006,0.12c 0.004,0.018-0.041,0.07-0.072,0.047c-0.039-0.028-0.072-0.024-0.076-0.016 c0.00,0.000.00,0.000.00,0.00c-0.054,0.089-0.248,0.104-0.205,0.199c 0.013,0.028, 0.026,0.056, 0.037,0.084 c 0.013,0.033, 0.02,0.069, 0.021,0.105c 0.00,0.015, 0.054,0.129, 0.097,0.174c 0.938,0.981, 2.26,1.592, 3.724,1.592 C 74.846,77.153, 77.153,74.846, 77.153,72.00z M 71.238,68.716c 0.021-0.009, 0.041-0.022, 0.064-0.028 c 0.00,0.00, 0.001,0.00, 0.001,0.00c 0.031-0.009, 0.059,0.00, 0.068-0.012c 0.009-0.012, 0.025-0.033, 0.032-0.05 c 0.004-0.008-0.005-0.02, 0.006-0.027c 0.013-0.007, 0.002-0.02, 0.005-0.03c 0.009-0.026, 0.014-0.026, 0.025-0.028 c 0.01-0.001, 0.019-0.003, 0.023-0.008c 0.016-0.024-0.041-0.093-0.077-0.083c-0.037,0.01-0.067,0.064-0.08,0.063 c-0.016-0.001-0.023-0.001-0.034,0.007c-0.008,0.006-0.009,0.017-0.015,0.024c-0.007,0.009-0.016,0.016-0.024,0.025 c-0.006,0.007-0.008,0.014, 0.00,0.022c 0.006,0.005, 0.01,0.009-0.009,0.033c-0.015,0.02-0.041,0.03-0.051,0.054 c-0.004,0.009-0.003,0.026-0.002,0.033C 71.176,68.736, 71.215,68.726, 71.238,68.716zM 109.109,72.619l0.00,5.194 L 105.398,77.813 l0.00-2.823 l-2.795,0.00 l0.00,2.823 L 98.891,77.813 L 98.891,72.619 L 97.563,72.619 L 104.00,66.187l 6.438,6.433L 109.109,72.619 z M 108.315,66.765l-1.497,0.00 l0.00,1.197 l 1.497,1.501L 108.315,66.765 zM 142.438,72.867l0.00-1.734 l-0.937-0.333c-0.357-0.127-0.645-0.40-0.79-0.75 c0.00,0.000.00,0.000.00,0.00c-0.146-0.351-0.135-0.747, 0.028-1.091l 0.427-0.898l-1.226-1.226l-0.897,0.427 c-0.343,0.163-0.74,0.173-1.091,0.028c0.00,0.000.00,0.000.00,0.00c-0.35-0.145-0.623-0.432-0.75-0.79L 136.867,65.563 l-1.734,0.00 l-0.333,0.937c-0.127,0.357-0.40,0.645-0.75,0.79c0.00,0.000.00,0.000.00,0.00 c-0.351,0.146-0.747,0.135-1.091-0.028l-0.898-0.427l-1.226,1.226l 0.427,0.898c 0.163,0.343, 0.173,0.74, 0.028,1.091 c0.00,0.000.00,0.000.00,0.00c-0.145,0.35-0.432,0.623-0.79,0.75L 129.563,71.133l0.00,1.734 l 0.937,0.333 c 0.357,0.127, 0.645,0.40, 0.79,0.75c 0.00,0.00, 0.00,0.00, 0.00,0.00c 0.146,0.351, 0.135,0.748-0.028,1.091l-0.427,0.898 l 1.226,1.226l 0.898-0.427c 0.343-0.163, 0.74-0.173, 1.091-0.028c 0.00,0.00, 0.00,0.00, 0.00,0.00 c 0.35,0.145, 0.623,0.432, 0.75,0.79L 135.133,78.438l 1.734,0.00 l 0.331-0.931c 0.128-0.361, 0.403-0.651, 0.757-0.798 c 0.00,0.00, 0.00,0.00, 0.00,0.00c 0.348-0.145, 0.74-0.135, 1.081,0.027l 0.903,0.429l 1.226-1.226l-0.427-0.898 c-0.163-0.343-0.173-0.739-0.028-1.09c 0.00,0.00, 0.00,0.00, 0.00,0.00c 0.145-0.351, 0.433-0.623, 0.791-0.751 L 142.438,72.867z M 136.00,74.361c-1.304,0.00-2.361-1.057-2.361-2.361s 1.057-2.361, 2.361-2.361 c 1.304,0.00, 2.361,1.057, 2.361,2.361S 137.304,74.361, 136.00,74.361zM 161.563,66.297l0.00,11.406 l 12.875,0.00 l0.00-11.406 L 161.563,66.297 z M 172.875,76.141L 163.125,76.141 l0.00-6.813 l 9.75,0.00 L 172.875,76.141 z M 167.546,72.762l-2.375,2.387 l-0.858-0.854l 1.525-1.533l-1.527-1.535l 0.858-0.854L 167.546,72.762z M 171.75,73.923L 168.203,73.923 l0.00,1.188 L 171.75,75.11 L 171.75,73.923 zM 197.928,72.612l 1.182,0.00 l-2.774,2.778L 193.563,72.612l 1.182,0.00 c0.00,0.00-0.002-5.653, 6.656-6.041 C 197.188,68.376, 197.928,72.612, 197.928,72.612z M 198.60,77.429c 6.658-0.388, 6.656-6.041, 6.656-6.041L 206.438,71.388 l-2.773-2.778 l-2.774,2.778l 1.182,0.00 C 202.072,71.388, 202.812,75.624, 198.60,77.429zM 229.868,77.039L 231.263,78.438L 225.563,78.438 L 225.563,72.737 l 1.398,1.396l 3.05-3.05l 2.907,2.907L 229.868,77.039z M 232.737,65.563l 1.396,1.398l-3.017,3.017l 2.907,2.907l 3.017-3.017L 238.438,71.263L 238.438,65.563 L 232.737,65.563 zM 262.514,75.374c-2.705,0.00-4.906-2.201-4.906-4.906C 257.609,67.763, 259.809,65.563, 262.514,65.563 c 2.705,0.00, 4.906,2.201, 4.906,4.906C 267.42,73.174, 265.22,75.374, 262.514,75.374z M 262.514,67.238 c-1.782,0.00-3.231,1.449-3.231,3.231s 1.449,3.231, 3.231,3.231c 1.782,0.00, 3.231-1.449, 3.231-3.231 S 264.296,67.238, 262.514,67.238z M 267.484,73.913c-0.438,0.631-0.994,1.174-1.634,1.599L 268.775,78.438l 1.617-1.617 L 267.484,73.913zM 301.23,68.371L 302.438,67.168l0.00,4.88 L 297.554,72.047 l 1.318-1.318 c-3.215-4.066-11.663,0.052-6.06,7.188C 284.436,71.455, 294.075,61.576, 301.23,68.371zM 331.188,77.918C 336.79,70.782, 328.343,66.663, 325.128,70.729l 1.318,1.318L 321.563,72.047 L 321.563,67.168 l 1.207,1.204 C 329.925,61.576, 339.564,71.454, 331.188,77.918zM 360.00,65.563C 356.445,65.563, 353.563,68.445, 353.563,72.00s 2.882,6.438, 6.438,6.438s 6.438-2.882, 6.438-6.438S 363.555,65.563, 360.00,65.563z M 362.441,75.83l-2.41-2.41l-2.41,2.41l-1.295-1.295l 2.41-2.41l-2.41-2.41l 1.295-1.294l 2.409,2.409 l 2.409-2.409l 1.296,1.295l-2.409,2.41l 2.41,2.409L 362.441,75.83zM 392.00,65.563C 388.445,65.563, 385.563,68.445, 385.563,72.00s 2.882,6.438, 6.438,6.438s 6.438-2.882, 6.438-6.438S 395.555,65.563, 392.00,65.563z M 390.905,75.467l-3.041-3.042l 1.295-1.295l 1.746,1.747l 4.032-4.032l 1.296,1.295L 390.905,75.467zM 8.00,97.563C 4.445,97.563, 1.563,100.445, 1.563,104.00s 2.882,6.438, 6.438,6.438s 6.438-2.882, 6.438-6.438S 11.555,97.563, 8.00,97.563z M 11.956,105.17l-2.787,0.00 L 9.17,107.956 l-2.152,0.00 l0.00-2.787 l-2.787,0.00 l0.00-2.152 l 2.787,0.00 L 7.018,100.231 l 2.152,0.00 l0.00,2.787 l 2.787,0.00 L 11.956,105.17 zM 41.205,107.033l 0.00,0.00L 46.438,103.416L 41.205,99.799l0.00,1.541 c0.00,0.00-6.365,1.295-7.643,6.861 c 2.721-2.913, 7.643-2.708, 7.643-2.708L 41.205,107.033 L 41.205,107.033zM 69.055,108.695c0.00,0.962-0.78,1.742-1.742,1.742c-0.962,0.00-1.742-0.78-1.742-1.742 s 0.78-1.742, 1.742-1.742C 68.275,106.953, 69.055,107.733, 69.055,108.695z M 65.571,101.951l0.00,2.581 C 68.812,104.565, 71.443,107.196, 71.476,110.438l 2.581,0.00 C 74.024,105.765, 70.243,101.984, 65.571,101.951z M 65.571,100.144 c 2.74,0.012, 5.315,1.084, 7.254,3.023c 1.943,1.943, 3.016,4.524, 3.024,7.27l 2.581,0.00 C 78.413,103.339, 72.667,97.587, 65.571,97.563L 65.571,100.144 zM 108.944,102.066l-1.626,0.00 l0.00-1.473 l 0.356-1.216L 107.674,97.977 l-2.278,0.00 c0.00,0.00-0.584,1.284-0.79,1.78 c-0.677,1.634-1.377,3.322-2.822,3.603l0.00-0.724 L 97.563,102.637 l0.00,7.13 l 4.222,0.00 l0.00-0.616 l 1.432,0.00 l 1.592,0.872l 3.873,0.00 L 110.438,108.453 L 110.438,103.038 L 108.944,102.066z M 105.058,109.114l-1.547-0.872l-1.723,0.002L 101.788,104.281 c 0.014-0.002, 0.03-0.004, 0.047-0.007 c 2.007-0.301, 2.858-2.356, 3.61-4.169c 0.141-0.34, 0.44-1.021, 0.528-1.22l 0.793,0.00 l0.00,0.464 l-0.356,1.216l0.00,2.408 l 2.293,0.00 l 0.827,0.527l0.00,4.612 l-1.143,1.001L 105.058,109.114 zM 140.733,107.265c-1.845-0.426-3.562-0.798-2.73-2.366 c 2.532-4.773, 0.671-7.325-2.002-7.325c-2.726,0.00-4.541,2.65-2.002,7.325c 0.857,1.578-0.925,1.95-2.73,2.366 c-1.844,0.425-1.702,1.398-1.702,3.162l 12.87,0.00 C 142.435,108.662, 142.577,107.69, 140.733,107.265zM 174.437,107.23l-2.498,0.00 c0.00-2.719-1.359-1.427-1.359-3.809c0.00-0.86, 0.563-1.327, 1.286-1.327 c 1.068,0.00, 1.812,1.02, 0.80,2.927c-0.332,0.627, 0.354,0.775, 1.091,0.945C 174.493,106.137, 174.437,106.525, 174.437,107.23z M 162.244,105.967c 0.737-0.17, 1.423-0.319, 1.091-0.945c-1.012-1.907-0.268-2.927, 0.80-2.927 c 0.723,0.00, 1.286,0.467, 1.286,1.327c0.00,2.382-1.359,1.09-1.359,3.809L 161.563,107.23 C 161.563,106.525, 161.507,106.137, 162.244,105.967z M 170.379,105.641c-0.927-0.214-1.79-0.401-1.372-1.189c 1.272-2.399, 0.337-3.682-1.006-3.682 c-1.37,0.00-2.282,1.332-1.006,3.682c 0.43,0.793-0.465,0.98-1.372,1.189c-0.927,0.214-0.856,0.702-0.856,1.589 l 6.468,0.00 C 171.234,106.343, 171.305,105.855, 170.379,105.641zM 204.246,109.561L 202.415,105.957c-0.004,0.002-1.027,0.515-1.074,0.536 c-1.165,0.576-3.536-4.148-2.397-4.77l 1.083-0.544L 198.21,97.563c-0.001,0.001-1.078,0.542-1.096,0.551 c-0.748,0.398-2.779,1.338, 0.257,7.385c 3.062,6.099, 4.962,4.99, 5.776,4.61 C 203.211,110.079, 204.242,109.563, 204.246,109.561zM 229.33,103.47L 225.563,100.577l0.00,6.661 L 229.33,103.47z M 238.404,99.231L 225.607,99.231 l 6.394,4.911 L 238.404,99.231z M 233.792,104.147l-1.793,1.375l-1.795-1.379L 225.578,108.769l 12.836,0.00 L 233.792,104.147z M 234.668,103.475 L 238.438,107.245L 238.438,100.584 L 234.668,103.475zM 266.614,104.671c0.00,0.918-0.747,1.666-1.666,1.666c-0.918,0.00-1.666-0.747-1.666-1.666 c0.00-0.918, 0.747-1.666, 1.666-1.666C 265.867,103.006, 266.614,103.753, 266.614,104.671z M 270.438,100.629l0.00,8.344 L 257.563,108.973 l0.00-8.344 l 3.538,0.00 c 0.352,0.00, 0.674-0.197, 0.834-0.51l 0.56-1.092l 4.802,0.00 l 0.619,1.118c 0.165,0.298, 0.479,0.483, 0.82,0.483L 270.438,100.629 z M 260.838,102.449c0.00-0.354-0.287-0.641-0.641-0.641s-0.641,0.287-0.641,0.641s 0.287,0.641, 0.641,0.641S 260.838,102.803, 260.838,102.449z M 268.047,104.671c0.00-1.708-1.39-3.027-3.098-3.027c-1.708,0.00-3.098,1.318-3.098,3.027c0.00,1.708, 1.39,3.098, 3.098,3.098 C 266.657,107.77, 268.047,106.38, 268.047,104.671z M 260.448,99.27l-2.047,0.00 l0.00,0.844 l 2.047,0.00 L 260.448,99.27 zM 300.444,98.906L 294.242,105.109L 291.555,102.421L 289.563,104.414L 294.242,109.094L 302.438,100.898 zM 333.70,107.706L 329.992,103.999L 333.699,100.292L 331.706,98.30L 328.00,102.007L 324.293,98.301L 322.30,100.292L 326.008,103.999L 322.301,107.707L 324.292,109.70L 328.00,105.992L 331.708,109.699 zM 359.606,101.214l 6.742-1.336l-0.005-0.023L 365.892,97.578l-11.356,2.251 C 353.971,99.941, 353.563,100.437, 353.563,101.013c0.00,0.51,0.00,7.575,0.00,7.575c0.00,1.011, 0.822,1.833, 1.833,1.833l 9.208,0.00 c 1.011,0.00, 1.833-0.822, 1.833-1.833L 366.438,101.237 l0.00-0.023 L 359.606,101.214 z M 365.188,108.588c0.00,0.322-0.262,0.583-0.583,0.583L 355.396,109.172 C 355.074,109.172, 354.813,108.91, 354.813,108.588L 354.813,104.18 l 10.375,0.00 L 365.188,108.588 z M 362.61,101.839l-1.092,1.092l-1.638,0.00 l 1.092-1.092L 362.61,101.839 z M 364.351,98.521l 1.286,0.86l-1.606,0.319l-1.287-0.861L 364.351,98.521z M 361.187,99.148l 1.287,0.862l-1.606,0.319 l-1.288-0.862L 361.187,99.148z M 358.02,99.776l 1.289,0.863l-1.606,0.319L 356.412,100.094L 358.02,99.776z M 357.743,101.839 l 1.638,0.00 l-1.092,1.092l-1.638,0.00 L 357.743,101.839z M 363.106,102.93l 1.092-1.092l 1.638,0.00 l-1.092,1.092L 363.106,102.93 z M 359.279,108.291 L 359.279,104.892 l 2.772,1.699L 359.279,108.291zM 392.00,97.563C 388.445,97.563, 385.563,100.445, 385.563,104.00c0.00,3.555, 2.882,6.437, 6.438,6.437 c 3.555,0.00, 6.438-2.882, 6.438-6.437C 398.438,100.445, 395.555,97.563, 392.00,97.563z M 391.875,107.779 c-0.928,0.326-1.693-0.048-1.54-0.939c 0.154-0.891, 1.034-2.80, 1.16-3.16c 0.126-0.361-0.115-0.46-0.373-0.313 c-0.149,0.086-0.37,0.258-0.56,0.425c-0.053-0.106-0.127-0.227-0.182-0.343c 0.31-0.31, 0.828-0.727, 1.441-0.878 c 0.733-0.181, 1.957,0.108, 1.431,1.508c-0.376,0.998-0.642,1.687-0.809,2.20c-0.167,0.513, 0.031,0.621, 0.324,0.421 c 0.229-0.156, 0.473-0.369, 0.652-0.534c 0.083,0.134, 0.109,0.177, 0.191,0.332C 393.299,106.816, 392.487,107.56, 391.875,107.779z M 393.797,101.605c-0.421,0.358-1.045,0.35-1.394-0.018c-0.349-0.368-0.291-0.956, 0.13-1.315 c 0.421-0.358, 1.045-0.35, 1.394,0.017C 394.276,100.658, 394.218,101.247, 393.797,101.605zM 8.00,129.563C 4.445,129.563, 1.563,132.445, 1.563,136.00s 2.882,6.438, 6.438,6.438s 6.438-2.882, 6.438-6.438S 11.555,129.563, 8.00,129.563z M 8.07,140.278c-0.505,0.00-0.915-0.41-0.915-0.915c0.00-0.505, 0.41-0.914, 0.915-0.914c 0.505,0.00, 0.915,0.409, 0.915,0.914 C 8.985,139.869, 8.575,140.278, 8.07,140.278z M 8.789,137.575l0.00,0.165 c0.00,0.00-1.371,0.00-1.508,0.00l0.00-0.165 c0.00-0.466, 0.068-1.063, 0.608-1.582c 0.541-0.519, 1.216-0.948, 1.216-1.597c0.00-0.717-0.498-1.097-1.125-1.097 c-1.046,0.00-1.114,1.085-1.14,1.323l-1.466,0.00 c 0.039-1.131, 0.517-2.713, 2.615-2.713c 1.818,0.00, 2.636,1.218, 2.636,2.36 C 10.625,136.087, 8.789,136.402, 8.789,137.575zM 41.21,136.00L 36.789,140.442L 33.563,140.442 L 37.983,136.00L 33.563,131.558l 3.227,0.00 L 41.21,136.00z M 42.017,131.558L 38.79,131.558 L 43.211,136.00L 38.79,140.442l 3.227,0.00 L 46.438,136.00L 42.017,131.558zM 74.125,135.594c0.00,1.174-0.951,2.125-2.125,2.125c-1.174,0.00-2.125-0.951-2.125-2.125L 69.875,131.688 c0.00-1.174, 0.951-2.125, 2.125-2.125 c 1.174,0.00, 2.125,0.951, 2.125,2.125L 74.125,135.594 z M 75.063,134.50l0.00,1.094 c0.00,1.689-1.374,3.063-3.063,3.063c-1.689,0.00-3.063-1.374-3.063-3.063l0.00-1.094 l-1.25,0.00 l0.00,1.094 c0.00,2.378, 1.935,4.313, 4.313,4.313c 2.378,0.00, 4.313-1.935, 4.313-4.313l0.00-1.094 L 75.063,134.50 z M 72.00,140.531l-2.781,1.906l 5.375,0.00 L 72.00,140.531zM 107.512,130.356L 100.501,130.356 L 97.563,135.134l0.00,6.51 l 12.875,0.00 L 110.438,135.134 L 107.512,130.356z M 105.587,137.398L 102.413,137.398 c-0.291,0.00-0.527-0.236-0.527-0.527c0.00-0.291, 0.236-0.527, 0.527-0.527l 3.174,0.00 c 0.291,0.00, 0.527,0.236, 0.527,0.527 C 106.114,137.162, 105.878,137.398, 105.587,137.398z M 99.03,135.134l 2.152-3.525l 5.645,0.00 l 2.144,3.525L 99.03,135.134 z M 107.487,133.548 L 100.549,133.548 l 0.401-0.656l 6.138,0.00 L 107.487,133.548z M 106.866,132.527L 101.172,132.527 l 0.343-0.563l 5.008,0.00 L 106.866,132.527z M 108.152,134.641L 99.881,134.641 l 0.42-0.688l 7.433,0.00 L 108.152,134.641zM 129.563,130.297l0.00,11.406 l 12.875,0.00 l0.00-11.406 L 129.563,130.297 z M 140.875,136.26L 136.469,136.26 L 136.469,133.328 l 4.406,0.00 L 140.875,136.26 z M 131.125,133.328l 4.406,0.00 l0.00,6.813 L 131.125,140.141 L 131.125,133.328 z M 136.469,140.141l0.00-2.943 l 4.406,0.00 L 140.875,140.141 L 136.469,140.141 zM 168.372,137.029c 0.199,0.199, 0.199,0.522,0.00,0.721c-0.199,0.199-0.522,0.199-0.721,0.00 c-0.199-0.199-0.199-0.522,0.00-0.721C 167.85,136.829, 168.173,136.829, 168.372,137.029z M 169.188,137.251l 1.177-2.215l-2.215,1.177 c-0.355-0.041-0.712,0.075-0.975,0.339c-0.261,0.261-0.375,0.615-0.34,0.957l-1.199,2.257l 2.256-1.199 c 0.348,0.035, 0.698-0.081, 0.958-0.341C 169.099,137.977, 169.231,137.625, 169.188,137.251z M 169.36,132.557 c 0.339-0.317, 0.549-0.752, 0.549-1.231c0.00-0.969-0.856-1.757-1.909-1.757s-1.909,0.788-1.909,1.757 c0.00,0.479, 0.21,0.914, 0.549,1.231c-2.117,0.593-3.67,2.537-3.67,4.844c0.00,2.778, 2.252,5.03, 5.03,5.03 c 2.778,0.00, 5.03-2.252, 5.03-5.03C 173.03,135.094, 171.478,133.15, 169.36,132.557z M 168.00,130.506 c 0.536,0.00, 0.972,0.368, 0.972,0.82s-0.436,0.82-0.972,0.82s-0.972-0.368-0.972-0.82S 167.464,130.506, 168.00,130.506z M 170.728,140.13c-0.729,0.729-1.698,1.13-2.728,1.13s-2.00-0.401-2.728-1.13 c-0.729-0.729-1.13-1.698-1.13-2.728s 0.401-2.00, 1.13-2.728c 0.729-0.729, 1.698-1.13, 2.728-1.13 s 2.00,0.401, 2.728,1.13s 1.13,1.698, 1.13,2.728S 171.457,139.401, 170.728,140.13zM 204.296,131.67l-2.394,6.47l-0.784-3.277l-3.283-0.821L 204.296,131.67 M 206.409,129.563 L 193.591,134.269l 6.489,1.623L 201.646,142.438L 206.409,129.563zM 232.00,130.813c 1.559,0.00, 2.828,1.269, 2.828,2.828c0.00,1.799-1.876,4.737-2.828,6.34 c-1.611-2.712-2.828-4.785-2.828-6.34C 229.172,132.081, 230.441,130.813, 232.00,130.813 M 232.00,129.563c-2.252,0.00-4.078,1.826-4.078,4.078 c0.00,2.252, 1.785,4.87, 4.078,8.797c 2.293-3.927, 4.078-6.545, 4.078-8.797C 236.078,131.388, 234.252,129.563, 232.00,129.563L 232.00,129.563z M 232.00,132.186c-0.783,0.00-1.419,0.635-1.419,1.419s 0.635,1.419, 1.419,1.419s 1.419-0.635, 1.419-1.419 S 232.784,132.186, 232.00,132.186L 232.00,132.186zM 264.00,129.563c-2.252,0.00-4.078,1.826-4.078,4.078c0.00,3.349, 3.208,3.703, 4.078,8.797 c 0.871-5.094, 4.078-5.448, 4.078-8.797C 268.078,131.388, 266.252,129.563, 264.00,129.563z M 264.00,135.004c-0.808,0.00-1.463-0.655-1.463-1.462 s 0.655-1.462, 1.463-1.462s 1.463,0.655, 1.463,1.462S 264.808,135.004, 264.00,135.004zM 296.00,129.563c-2.252,0.00-4.078,1.826-4.078,4.078c0.00,2.252, 1.785,4.87, 4.078,8.797 c 2.293-3.927, 4.078-6.545, 4.078-8.797C 300.078,131.388, 298.252,129.563, 296.00,129.563z M 296.00,136.458 c-1.551,0.00-2.808-1.257-2.808-2.808c0.00-1.551, 1.257-2.808, 2.808-2.808c 1.551,0.00, 2.808,1.257, 2.808,2.808 C 298.808,135.201, 297.551,136.458, 296.00,136.458zM 328.00,129.563c-2.908,0.00-5.266,2.357-5.266,5.266C 322.734,137.781, 325.295,139.729, 328.00,142.438 c 2.705-2.708, 5.266-4.656, 5.266-7.609C 333.266,131.92, 330.908,129.563, 328.00,129.563z M 328.00,138.53c-2.134,0.00-3.863-1.73-3.863-3.863 c0.00-2.134, 1.73-3.863, 3.863-3.863c 2.134,0.00, 3.863,1.73, 3.863,3.863C 331.863,136.80, 330.134,138.53, 328.00,138.53zM 355.961,133.911l 2.879-2.879c 0.214-0.214, 0.56-0.214, 0.773,0.00c 0.214,0.214, 0.214,0.56,0.00,0.773 l-2.105,2.105L 355.961,133.911 z M 362.492,133.911l 1.547,0.00 l-2.879-2.879c-0.214-0.214-0.56-0.214-0.773,0.00 c-0.214,0.214-0.214,0.56,0.00,0.773L 362.492,133.911z M 353.563,134.682l0.00,1.25 l 0.345,0.00 c 0.286,0.00, 0.548,0.163, 0.674,0.421l 2.335,4.776L 363.094,141.128 l 2.325-4.775c 0.126-0.258, 0.387-0.422, 0.674-0.422L 366.438,135.932 l0.00-1.25 L 353.563,134.682 z M 358.664,139.387c0.00,0.216-0.175,0.391-0.391,0.391 s-0.391-0.175-0.391-0.391l0.00-2.892 c0.00-0.216, 0.175-0.391, 0.391-0.391s 0.391,0.175, 0.391,0.391L 358.664,139.387 z M 360.414,139.387 c0.00,0.216-0.175,0.391-0.391,0.391s-0.391-0.175-0.391-0.391l0.00-2.892 c0.00-0.216, 0.175-0.391, 0.391-0.391s 0.391,0.175, 0.391,0.391L 360.414,139.387 z M 362.161,139.387c0.00,0.216-0.175,0.391-0.391,0.391s-0.391-0.175-0.391-0.391l0.00-2.892 c0.00-0.216, 0.175-0.391, 0.391-0.391s 0.391,0.175, 0.391,0.391 L 362.161,139.387 zM 398.432,131.285l-0.398,1.25l-0.937,0.00 l-1.849,5.88L 388.152,138.415 L 385.568,132.488l 9.273,0.00 l-1.438,4.648l 0.941,0.00 l 1.839-5.851L 398.432,131.285 z M 393.06,139.035c-0.464,0.00-0.84,0.376-0.84,0.84 s 0.376,0.84, 0.84,0.84s 0.84-0.376, 0.84-0.84S 393.524,139.035, 393.06,139.035z M 390.282,139.035 c-0.464,0.00-0.84,0.376-0.84,0.84s 0.376,0.84, 0.84,0.84c 0.464,0.00, 0.84-0.376, 0.84-0.84 S 390.747,139.035, 390.282,139.035zM 12.844,166.101l-2.532,5.197L 5.697,171.298 l-2.526-5.197L 1.563,166.101 l0.00,1.25 l 0.345,0.00 c 0.286,0.00, 0.548,0.163, 0.674,0.421l 2.335,4.776L 11.094,172.548 l 2.325-4.775c 0.126-0.258, 0.387-0.422, 0.674-0.422L 14.438,167.351 l0.00-1.25 L 12.844,166.101 z M 8.031,164.563c-1.343,0.00-2.431,1.088-2.431,2.431c0.00,1.343, 1.088,2.431, 2.431,2.431s 2.431-1.088, 2.431-2.431 C 10.462,165.651, 9.374,164.563, 8.031,164.563z M 9.525,167.436l-1.052,0.00 l0.00,1.052 L 7.66,168.488 l0.00-1.052 l-1.052,0.00 l0.00-0.813 l 1.052,0.00 l0.00-1.052 l 0.813,0.00 l0.00,1.052 l 1.052,0.00 L 9.525,167.436 zM 42.841,164.488L 33.568,164.488 l 1.674,3.786l 6.409,0.00 L 42.841,164.488z M 46.432,163.285l-0.398,1.25 l-0.937,0.00 l-1.849,5.88L 36.152,170.415 l-0.551-1.25L 42.334,169.165 l 1.849-5.88L 46.432,163.285 z M 41.90,171.875c0.00,0.464-0.376,0.84-0.84,0.84 S 40.22,172.339, 40.22,171.875s 0.376-0.84, 0.84-0.84S 41.90,171.411, 41.90,171.875z M 39.123,171.875 c0.00,0.464-0.376,0.84-0.84,0.84c-0.464,0.00-0.84-0.376-0.84-0.84s 0.376-0.84, 0.84-0.84 C 38.747,171.035, 39.123,171.411, 39.123,171.875zM 71.115,171.906c0.00,0.464-0.376,0.84-0.84,0.84S 69.434,172.37, 69.434,171.906 s 0.376-0.84, 0.84-0.84S 71.115,171.442, 71.115,171.906z M 76.175,163.316l-1.849,5.88L 68.979,169.196 L 66.95,164.519L 65.576,164.519 l 2.591,5.927l 0.009,0.00 l 7.065,0.00 l 1.849-5.88l 0.937,0.00 l 0.398-1.25L 76.175,163.316 z M 73.052,171.066c-0.464,0.00-0.84,0.376-0.84,0.84 s 0.376,0.84, 0.84,0.84s 0.84-0.376, 0.84-0.84S 73.516,171.066, 73.052,171.066z M 71.571,163.253 c-1.343,0.00-2.431,1.088-2.431,2.431c0.00,1.343, 1.088,2.431, 2.431,2.431s 2.431-1.088, 2.431-2.431 C 74.002,164.342, 72.913,163.253, 71.571,163.253z M 73.065,166.126l-1.052,0.00 l0.00,1.052 l-0.813,0.00 l0.00-1.052 l-1.052,0.00 L 70.147,165.313 l 1.052,0.00 l0.00-1.052 l 0.813,0.00 l0.00,1.052 l 1.052,0.00 L 73.065,166.126 zM 100.542,166.979l0.00-1.958 C 100.542,163.114, 102.093,161.563, 104.00,161.563c 1.907,0.00, 3.458,1.551, 3.458,3.458l0.00,1.958 l-1.563,0.00 l0.00-1.958 C 105.896,163.975, 105.045,163.125, 104.00,163.125c-1.045,0.00-1.896,0.85-1.896,1.896l0.00,1.958 L 100.542,166.979 z M 99.375,167.917L 99.375,174.438 l 9.25,0.00 L 108.625,167.917 L 99.375,167.917 zM 132.188,170.262c 1.145-4.987, 6.848-6.148, 6.848-6.148L 139.036,162.579 L 142.438,165.975l-3.401,3.396 l0.00-1.535 C 139.036,167.835, 134.626,167.652, 132.188,170.262z M 139.064,170.888l0.00,1.251 L 130.844,172.139 L 130.844,166.815 l 1.799,0.00 c 0.359-0.463, 0.768-0.89, 1.218-1.282L 129.563,165.534 l0.00,7.887 l 10.783,0.00 L 140.346,169.609 L 139.064,170.888zM 173.454,164.801L 162.546,164.801 l0.00,2.734 l 10.908,0.00 L 173.454,164.801 z M 163.271,166.768l 0.48-1.199l 0.579,0.00 l-0.48,1.199 L 163.271,166.768 z M 164.211,166.768l 0.48-1.199l 0.579,0.00 l-0.48,1.199L 164.211,166.768 z M 165.15,166.768l 0.48-1.199l 0.579,0.00 l-0.48,1.199 L 165.15,166.768 z M 166.089,166.768l 0.48-1.199l 0.579,0.00 l-0.48,1.199L 166.089,166.768 z M 167.607,166.768l-0.579,0.00 l 0.48-1.199l 0.579,0.00 L 167.607,166.768z M 172.159,166.569c-0.221,0.00-0.40-0.179-0.40-0.401s 0.179-0.40, 0.40-0.40 c 0.221,0.00, 0.401,0.179, 0.401,0.40S 172.38,166.569, 172.159,166.569z M 172.853,164.082l-9.682,0.00 L 165.08,161.563l 5.84,0.00 L 172.853,164.082 z M 173.454,168.255L 162.546,168.255 l0.00,2.734 l 10.908,0.00 L 173.454,168.255 z M 163.271,170.221l 0.48-1.199l 0.579,0.00 l-0.48,1.199L 163.271,170.221 z M 164.211,170.221 l 0.48-1.199l 0.579,0.00 l-0.48,1.199L 164.211,170.221 z M 165.15,170.221l 0.48-1.199l 0.579,0.00 l-0.48,1.199L 165.15,170.221 z M 166.089,170.221 l 0.48-1.199l 0.579,0.00 l-0.48,1.199L 166.089,170.221 z M 167.607,170.221l-0.579,0.00 l 0.48-1.199l 0.579,0.00 L 167.607,170.221z M 172.159,170.022 c-0.221,0.00-0.40-0.179-0.40-0.40c0.00-0.221, 0.179-0.40, 0.40-0.40c 0.221,0.00, 0.401,0.179, 0.401,0.40 C 172.559,169.843, 172.38,170.022, 172.159,170.022z M 173.454,171.703L 162.546,171.703 L 162.546,174.438 l 10.908,0.00 L 173.454,171.703 z M 163.271,173.67l 0.48-1.199 l 0.579,0.00 l-0.48,1.199L 163.271,173.67 z M 164.211,173.67l 0.48-1.199l 0.579,0.00 l-0.48,1.199L 164.211,173.67 z M 165.15,173.67l 0.48-1.199 l 0.579,0.00 l-0.48,1.199L 165.15,173.67 z M 166.089,173.67l 0.48-1.199l 0.579,0.00 l-0.48,1.199L 166.089,173.67 z M 167.607,173.67l-0.579,0.00 l 0.48-1.199l 0.579,0.00 L 167.607,173.67z M 172.159,173.471c-0.221,0.00-0.40-0.179-0.40-0.40c0.00-0.221, 0.179-0.40, 0.40-0.40 c 0.221,0.00, 0.401,0.179, 0.401,0.40C 172.559,173.292, 172.38,173.471, 172.159,173.471zM 205.191,171.113l0.00,1.454 C 205.191,173.60, 202.867,174.438, 200.00,174.438c-2.867,0.00-5.191-0.838-5.191-1.871 l0.00-1.454 c 0.321,0.231, 0.725,0.435, 1.203,0.607C 197.091,172.109, 198.508,172.323, 200.00,172.323 c 1.492,0.00, 2.909-0.214, 3.989-0.604C 204.467,171.547, 204.87,171.344, 205.191,171.113z M 203.989,168.681 c-1.08,0.389-2.496,0.604-3.989,0.604c-1.492,0.00-2.909-0.214-3.989-0.604c-0.478-0.172-0.881-0.376-1.203-0.607 l0.00,1.441 c0.00,1.033, 2.324,1.871, 5.191,1.871c 2.867,0.00, 5.191-0.838, 5.191-1.871l0.00-1.441 C 204.87,168.305, 204.467,168.509, 203.989,168.681z M 200.00,161.563c-2.867,0.00-5.191,0.838-5.191,1.871 c0.00,1.033, 2.324,1.871, 5.191,1.871c 2.867,0.00, 5.191-0.838, 5.191-1.871C 205.191,162.40, 202.867,161.563, 200.00,161.563z M 203.989,165.638C 202.909,166.028, 201.492,166.242, 200.00,166.242c-1.492,0.00-2.909-0.214-3.989-0.604 c-0.478-0.172-0.881-0.376-1.203-0.607l0.00,1.445 c0.00,1.033, 2.324,1.871, 5.191,1.871c 2.867,0.00, 5.191-0.838, 5.191-1.871 l0.00-1.444 C 204.87,165.262, 204.467,165.466, 203.989,165.638zM 238.438,171.25l0.00,0.406 c0.00,0.345-0.28,0.625-0.625,0.625L 226.188,172.281 c-0.345,0.00-0.625-0.28-0.625-0.625l0.00-0.406 l 5.221,0.00 c 0.043,0.192, 0.214,0.305, 0.419,0.305l 1.594,0.00 c 0.205,0.00, 0.376-0.113, 0.419-0.305L 238.438,171.25 z M 236.495,164.563L 227.505,164.563 l0.00,5.375 l 8.99,0.00 L 236.495,164.563 M 237.339,170.781 L 226.662,170.781 L 226.662,164.344 c0.00-0.345, 0.28-0.625, 0.625-0.625l 9.427,0.00 c 0.345,0.00, 0.625,0.28, 0.625,0.625L 237.339,170.781 zM 266.70,165.30c 0.313,0.313, 0.313,0.820.00,1.133L 262.433,170.701 c-0.313,0.313-0.82,0.313-1.133,0.00l0.00,0.00c-0.313-0.313-0.313-0.820.00-1.133l 4.268-4.268 C 265.88,164.987, 266.387,164.987, 266.70,165.30L 266.70,165.30z M 261.798,172.481c-0.628,0.628-1.65,0.628-2.279,0.00 c-0.628-0.628-0.628-1.65,0.00-2.279l 3.025-3.021c-1.015-0.246-2.13,0.027-2.923,0.819L 258.469,169.152 c-1.209,1.209-1.209,3.17,0.00,4.379c 1.209,1.209, 3.17,1.209, 4.379,0.00l 1.152-1.152 c 0.792-0.792, 1.065-1.908, 0.819-2.922L 261.798,172.481z M 265.152,162.469l-1.152,1.152 c-0.793,0.793-1.067,1.906-0.821,2.921l 3.023-3.023c 0.628-0.628, 1.65-0.628, 2.279,0.00 c 0.628,0.628, 0.628,1.65, 0.00,2.279l-3.023,3.023c 1.015,0.246, 2.128-0.028, 2.921-0.821l 1.152-1.152 c 1.209-1.209, 1.209-3.170.00-4.379C 268.321,161.26, 266.361,161.26, 265.152,162.469zM 295.498,167.23l 1.004,0.00 l0.00,3.044 l-1.004,0.00 L 295.498,167.23 z M 296.00,171.844c-0.299,0.00-0.542-0.243-0.542-0.542 c0.00-0.299, 0.242-0.542, 0.542-0.542c 0.299,0.00, 0.542,0.243, 0.542,0.542C 296.542,171.602, 296.299,171.844, 296.00,171.844z M 296.00,162.44 L 289.563,173.59l 12.875,0.00 L 296.00,162.44z M 296.00,164.94l 4.272,7.40L 291.728,172.34 L 296.00,164.94zM 334.438,168.609c0.00-3.555-2.882-6.438-6.438-6.438s-6.438,2.882-6.438,6.438c0.00,1.386, 0.438,2.669, 1.183,3.719 l 2.338,0.00 C 325.582,173.213, 326.70,173.828, 328.00,173.828s 2.418-0.616, 2.917-1.499l 2.338,0.00 C 334.00,171.278, 334.438,169.995, 334.438,168.609z M 332.027,165.157l-1.182,1.182c-0.17-0.212-0.362-0.405-0.575-0.575l 1.182-1.182 C 331.658,164.758, 331.851,164.951, 332.027,165.157z M 329.651,163.566c 0.257,0.084, 0.509,0.189, 0.75,0.312l-0.64,1.544 c-0.238-0.132-0.49-0.236-0.751-0.311L 329.651,163.566z M 327.594,163.32c 0.137-0.01, 0.273-0.016, 0.406-0.016s 0.269,0.005, 0.406,0.016l0.00,1.671 c-0.135-0.015-0.271-0.023-0.406-0.023s-0.271,0.008-0.406,0.023L 327.594,163.32 z M 327.394,168.921L 328.00,166.081l 0.606,2.84 c 0.386,0.214, 0.647,0.625, 0.647,1.097c0.00,0.692-0.561,1.253-1.253,1.253c-0.692,0.00-1.253-0.561-1.253-1.253 C 326.747,169.546, 327.008,169.134, 327.394,168.921z M 326.329,163.573l 0.646,1.542c-0.261,0.076-0.512,0.182-0.749,0.314 l-0.646-1.542C 325.821,163.764, 326.072,163.658, 326.329,163.573z M 324.547,164.582l 1.182,1.182 c-0.212,0.17-0.405,0.362-0.575,0.575l-1.182-1.182C 324.149,164.951, 324.342,164.758, 324.547,164.582z M 322.957,166.959 c 0.084-0.257, 0.189-0.509, 0.311-0.75l 1.544,0.64c-0.132,0.238-0.236,0.49-0.311,0.751L 322.957,166.959z M 331.483,167.545 c-0.079-0.259-0.188-0.509-0.323-0.745l 1.534-0.664c 0.126,0.239, 0.235,0.489, 0.323,0.746L 331.483,167.545zM 360.00,174.157C 355.255,169.539, 353.921,167.84, 353.632,166.099 C 353.279,163.968, 354.865,161.843, 357.336,161.843c 1.059,0.00, 2.021,0.407, 2.664,1.086c 0.643-0.679, 1.605-1.086, 2.664-1.086 c 2.46,0.00, 4.059,2.115, 3.704,4.256C 366.085,167.802, 364.839,169.447, 360.00,174.157z M 357.336,163.093 c-0.998,0.00-1.839,0.502-2.25,1.344c-1.053,2.154, 1.318,4.342, 4.915,7.945 C 363.61,168.765, 365.965,166.586, 364.914,164.436c-0.411-0.841-1.252-1.344-2.25-1.344c-1.608,0.00-2.293,1.266-2.664,1.864 C 359.651,164.395, 359.025,163.093, 357.336,163.093zM 394.666,161.563L 389.333,161.563 L 385.563,165.333l0.00,5.333 L 389.333,174.438l 5.333,0.00 L 398.438,170.666L 398.438,165.333 L 394.666,161.563z M 394.134,171.294l-2.102-2.102l-2.102,2.103l-1.129-1.13l 2.102-2.102l-2.102-2.102l 1.13-1.129l 2.102,2.102 l 2.101-2.102l 1.13,1.129l-2.102,2.102l 2.102,2.102L 394.134,171.294z"></path></svg>