<?xml version="1.0" encoding="utf-8"?> <!-- Generator: IcoMoon.io --> <!DOCTYPE svg PUBLIC "-//W3C//DTD SVG 1.1//EN" "http://www.w3.org/Graphics/SVG/1.1/DTD/svg11.dtd"> <svg version="1.1" xmlns="http://www.w3.org/2000/svg" xmlns:xlink="http://www.w3.org/1999/xlink" x="0px" y="0px" width="1600" height="704" viewBox="0 0 1600 704" enable-background="new 0 0 512 512" xml:space="preserve" fill="#333333"> <path d="M 57.75,16.028c-1.895,0.841-3.931,1.409-6.068,1.664c 2.181-1.308, 3.857-3.378, 4.646-5.846 c-2.042,1.211-4.303,2.09-6.71,2.564c-1.927-2.054-4.673-3.336-7.712-3.336c-6.82,0.00-11.834,6.364-10.292,12.973 c-8.781-0.441-16.567-4.647-21.778-11.039c-2.768,4.748-1.436,10.961, 3.27,14.106c-1.732-0.055-3.361-0.53-4.786-1.322 c-0.115,4.895, 3.393,9.473, 8.474,10.494c-1.487,0.405-3.116,0.497-4.771,0.181c 1.344,4.197, 5.247,7.252, 9.87,7.337 C 17.451,47.285, 11.856,48.84, 6.25,48.179c 4.676,2.998, 10.23,4.747, 16.196,4.747c 19.616,0.00, 30.699-16.569, 30.031-31.429 C 54.542,20.008, 56.334,18.147, 57.75,16.028zM 185.75,36.82c0.00,3.449-2.796,6.245-6.245,6.245l-17.371,0.00 L 162.133,21.603 c 0.664-0.242, 1.357-0.422, 2.073-0.534c 0.56-0.087, 1.134-0.134, 1.719-0.134c 5.814,0.00, 10.581,4.485, 11.03,10.184 c 0.778-0.349, 1.641-0.544, 2.549-0.544C 182.954,30.575, 185.75,33.371, 185.75,36.82z M 155.638,25.846l0.00,17.22 l 2.073,0.00 L 157.711,24.587 c-0.461,0.511-0.876,1.065-1.237,1.656C 156.204,26.096, 155.924,25.964, 155.638,25.846z M 158.851,43.065l 2.073,0.00 L 160.924,22.128 c-0.743,0.377-1.438,0.836-2.073,1.365L 158.851,43.065 z M 145.687,28.003l0.00,15.063 l 2.073,0.00 L 147.76,26.357 C 146.989,26.801, 146.291,27.357, 145.687,28.003z M 139.467,31.128l0.00,11.886 c 0.255,0.033, 0.514,0.052, 0.777,0.052l 1.089,0.00 l0.00-11.89 c-0.353-0.065-0.717-0.099-1.089-0.099C 139.981,31.076, 139.722,31.095, 139.467,31.128z M 136.72,41.919 c 0.471,0.343, 0.994,0.619, 1.555,0.814l0.00-11.324 c-0.561,0.195-1.084,0.471-1.555,0.814L 136.721,41.919 z M 142.473,31.506l0.00,11.559 l 2.073,0.00 L 144.547,29.512 c-0.466,0.776-0.82,1.628-1.035,2.533C 143.186,31.833, 142.838,31.653, 142.473,31.506z M 149.004,43.065l 2.073,0.00 L 151.077,25.24 c-0.722,0.092-1.416,0.271-2.073,0.524L 149.004,43.065 z M 152.321,43.065l 2.073,0.00 L 154.394,25.435 c-0.665-0.166-1.359-0.258-2.073-0.266L 152.321,43.065 z M 135.701,40.979l0.00-7.816 C 134.798,34.212, 134.25,35.577, 134.25,37.07C 134.25,38.564, 134.798,39.929, 135.701,40.979zM 289.207,6.25C 275.152,6.25, 268.066,16.326, 268.066,24.729c0.00,5.088, 1.926,9.614, 6.058,11.301 c 0.677,0.277, 1.284,0.01, 1.481-0.741c 0.137-0.519, 0.46-1.829, 0.604-2.374c 0.198-0.742, 0.121-1.002-0.425-1.649 c-1.191-1.405-1.953-3.224-1.953-5.801c0.00-7.476, 5.593-14.168, 14.564-14.168c 7.944,0.00, 12.308,4.854, 12.308,11.336 c0.00,8.529-3.775,15.728-9.378,15.728c-3.095,0.00-5.411-2.559-4.669-5.698c 0.889-3.748, 2.612-7.792, 2.612-10.497 c0.00-2.421-1.30-4.441-3.99-4.441c-3.163,0.00-5.705,3.273-5.705,7.657c0.00,2.792, 0.944,4.681, 0.944,4.681 s-3.237,13.717-3.805,16.119c-1.13,4.784-0.17,10.649-0.088,11.241c 0.048,0.351, 0.499,0.434, 0.703,0.169 c 0.292-0.381, 4.06-5.032, 5.341-9.68c 0.362-1.316, 2.081-8.131, 2.081-8.131c 1.028,1.96, 4.031,3.687, 7.226,3.687 c 9.509,0.00, 15.961-8.669, 15.961-20.273C 307.934,14.422, 300.502,6.25, 289.207,6.25zM 441.75,17.668l-6.828,0.00 l0.00,6.828 l-3.414,0.00 l0.00-6.828 l-6.828,0.00 l0.00-3.414 l 6.828,0.00 L 431.509,7.427 l 3.414,0.00 l0.00,6.828 L 441.75,14.255 L 441.75,17.668 z M 422.448,45.907 c0.00,5.118-4.673,11.348-16.429,11.348C 397.421,57.256, 390.25,53.547, 390.25,47.31c0.00-4.814, 3.048-11.064, 17.29-11.064 c-2.115-1.724-2.634-4.135-1.342-6.745c-8.339,0.00-12.61-4.903-12.61-11.128c0.00-6.091, 4.53-11.629, 13.769-11.629 c 2.333,0.00, 14.80,0.00, 14.80,0.00l-3.307,3.471l-3.885,0.00 c 2.741,1.57, 4.198,4.804, 4.198,8.369 c0.00,3.272-1.802,5.922-4.373,7.91c-4.563,3.528-3.395,5.497, 1.386,8.984C 420.89,39.009, 422.448,41.735, 422.448,45.907 z M 413.217,18.807c-0.688-5.238-4.101-9.536-8.088-9.655c-3.989-0.119-6.664,3.89-5.975,9.129 c 0.689,5.238, 4.479,8.897, 8.469,9.017C 411.61,27.417, 413.905,24.045, 413.217,18.807z M 417.329,46.433 c0.00-4.308-3.93-8.415-10.524-8.415c-5.943-0.065-10.979,3.755-10.979,8.184c0.00,4.519, 4.292,8.281, 10.235,8.281 C 413.658,54.483, 417.329,50.952, 417.329,46.433zM 569.704,31.331l 0.046-0.477c-2.862-0.278-5.708-0.302-8.474-0.091 c 0.445-1.418, 0.679-3.021, 0.662-4.842c-0.036-3.871-1.327-6.885-3.355-9.387c 0.39-2.357, 0.096-4.713-0.639-7.07 c-2.898,0.237-5.507,1.187-7.829,2.836c-4.341-0.88-8.681-0.937-13.021,0.00c-2.709-1.828-5.37-2.725-7.989-2.836 c-0.776,2.596-0.896,5.154-0.24,7.67c-2.285,2.425-3.159,5.368-3.116,8.627c 0.025,1.866, 0.312,3.526, 0.842,4.994 c-2.724-0.20-5.525-0.173-8.341,0.10l 0.046,0.477c 2.868-0.279, 5.72-0.301, 8.49-0.085c 0.102,0.247, 0.204,0.492, 0.321,0.727 c-3.001-0.079-5.702,0.182-8.232,0.804l 0.114,0.465c 2.567-0.631, 5.317-0.885, 8.388-0.782 c 2.031,3.608, 5.94,5.728, 11.633,6.401c-1.323,1.074-2.034,2.341-2.217,3.775c0.00,0.00-0.598,0.00-3.015,0.00 c-4.049,0.00-5.153-5.163-9.347-4.654C 528.50,40.00, 527.688,46.45, 534.198,46.45c 2.188,0.00, 2.653,0.00, 2.735,0.00l0.00,5.912 c 0.029,0.955-0.387,1.594-1.059,2.037c 2.332,0.235, 4.084-0.929, 4.084-2.357s0.00-7.119,0.00-7.815s 0.729-0.75, 0.729-0.75l0.00,9.124 c 0.031,0.908-0.41,1.424-0.879,1.917c 2.054,0.082, 3.986-0.329, 4.074-2.077c0.00,0.00,0.00-8.293,0.00-8.732s 0.72-0.45, 0.72,0.00 s0.00,8.322,0.00,8.322c 0.021,1.475, 1.295,2.671, 3.994,2.487c-0.722-0.581-0.944-1.169-0.944-2.019s0.00-9.023,0.00-9.023s 0.744-0.038, 0.744,0.75 s0.00,6.291,0.00,7.61c0.00,1.694, 2.033,2.393, 4.354,2.327c-0.76-0.57-1.274-1.249-1.278-2.157l0.00-9.152 c-0.079-1.345-0.625-2.613-1.698-3.795c 5.204-0.799, 8.955-2.876, 10.822-6.599c 3.081-0.106, 5.839,0.148, 8.413,0.781 l 0.114-0.465c-2.549-0.627-5.273-0.887-8.302-0.802c 0.105-0.236, 0.209-0.474, 0.299-0.723 C 563.92,31.027, 566.804,31.049, 569.704,31.331z M 526.25,38.753c-0.128,0.00-0.232-0.073-0.232-0.164c0.00-0.091, 0.104-0.164, 0.232-0.164 c 0.128,0.00, 0.232,0.073, 0.232,0.164C 526.482,38.679, 526.378,38.753, 526.25,38.753z M 526.979,39.25c-0.142,0.00-0.258-0.082-0.258-0.182 s 0.115-0.183, 0.258-0.183s 0.257,0.082, 0.257,0.183S 527.121,39.25, 526.979,39.25z M 527.719,39.897 c-0.167,0.00-0.302-0.096-0.302-0.214s 0.135-0.214, 0.302-0.214c 0.167,0.00, 0.302,0.096, 0.302,0.214S 527.885,39.897, 527.719,39.897z M 528.438,40.672c-0.195,0.00-0.353-0.112-0.353-0.25s 0.158-0.251, 0.353-0.251s 0.353,0.112, 0.353,0.251S 528.633,40.672, 528.438,40.672z M 529.229,41.549c-0.217,0.00-0.392-0.124-0.392-0.278s 0.176-0.279, 0.392-0.279s 0.392,0.125, 0.392,0.279 S 529.446,41.549, 529.229,41.549z M 530.146,42.44c-0.241,0.00-0.436-0.138-0.436-0.309s 0.195-0.309, 0.436-0.309 c 0.241,0.00, 0.436,0.139, 0.436,0.309S 530.387,42.44, 530.146,42.44z M 531.385,43.286c-0.268,0.00-0.484-0.154-0.484-0.344 c0.00-0.19, 0.217-0.344, 0.484-0.344s 0.484,0.154, 0.484,0.344C 531.87,43.133, 531.653,43.286, 531.385,43.286z M 532.922,43.739 c-0.268,0.00-0.484-0.154-0.484-0.344c0.00-0.19, 0.217-0.344, 0.484-0.344s 0.484,0.154, 0.484,0.344 C 533.406,43.586, 533.189,43.739, 532.922,43.739z M 534.542,43.792c-0.268,0.00-0.484-0.154-0.484-0.344 c0.00-0.19, 0.217-0.344, 0.484-0.344s 0.484,0.154, 0.484,0.344C 535.026,43.638, 534.809,43.792, 534.542,43.792z M 536.141,43.823 c-0.268,0.00-0.484-0.154-0.484-0.344c0.00-0.19, 0.217-0.344, 0.484-0.344s 0.484,0.154, 0.484,0.344 C 536.625,43.669, 536.408,43.823, 536.141,43.823zM 665.508,23.087l-5.393,0.00 l0.00,8.803 l 5.393,0.00 L 665.508,57.75 l 10.371,0.00 L 675.879,31.78 l 7.235,0.00 l 0.77-8.693l-8.005,0.00 c0.00,0.00,0.00-3.246,0.00-4.952c0.00-2.05, 0.413-2.861, 2.393-2.861c 1.596,0.00, 5.612,0.00, 5.612,0.00L 683.884,6.25 c0.00,0.00-5.916,0.00-7.18,0.00 c-7.717,0.00-11.196,3.397-11.196,9.904C 665.508,21.821, 665.508,23.087, 665.508,23.087zM 800.00,6.25C 785.779,6.25, 774.25,17.779, 774.25,32.00c0.00,14.221, 11.529,25.75, 25.75,25.75s 25.75-11.529, 25.75-25.75 C 825.75,17.779, 814.221,6.25, 800.00,6.25z M 821.211,30.80c-5.525-0.906-10.607-0.955-15.241-0.157c-0.523-1.209-1.067-2.413-1.645-3.605 c 4.955-2.145, 8.938-5.061, 11.905-8.758C 819.126,21.701, 820.944,26.044, 821.211,30.80z M 812.966,15.175 c-2.584,3.333-6.153,5.971-10.698,7.896c-2.181-3.993-4.673-7.887-7.486-11.668c 1.673-0.425, 3.415-0.675, 5.218-0.675 C 804.882,10.728, 809.372,12.399, 812.966,15.175z M 790.402,13.042c 2.857,3.739, 5.388,7.591, 7.589,11.547 c-5.214,1.535-11.44,2.324-18.635,2.373C 780.842,20.878, 784.94,15.819, 790.402,13.042z M 778.728,32.00 c0.00-0.185, 0.023-0.365, 0.028-0.549c 8.258-0.011, 15.382-0.962, 21.351-2.837c 0.50,1.018, 0.979,2.042, 1.437,3.072 c-7.252,2.267-13.228,6.913-17.889,13.906C 780.582,41.904, 778.728,37.165, 778.728,32.00z M 786.945,48.758 c 4.225-6.626, 9.619-10.939, 16.304-12.933c 1.99,5.193, 3.453,10.535, 4.383,16.008c-2.373,0.916-4.94,1.439-7.632,1.439 C 795.078,53.272, 790.553,51.576, 786.945,48.758z M 811.807,49.681c-0.94-5.048-2.318-9.985-4.12-14.80 c 4.024-0.568, 8.455-0.42, 13.301,0.421C 820.05,41.281, 816.637,46.445, 811.807,49.681zM 927.303,25.015c 9.311-0.169, 14.33,2.893, 15.531,8.831l-7.611,0.00 l0.00-6.391 c-2.014-0.70-4.134-0.985-6.333-0.968l0.00,12.084 L 953.75,38.571 c-1.202-9.643-12.27-17.197-25.75-17.197c-0.233,0.00-0.465,0.003-0.697,0.007 l0.00-4.423 c-2.118-0.139-4.199,0.194-6.236,1.085l0.00,4.021 C 910.89,24.134, 903.237,30.647, 902.25,38.571l 25.053,0.00 L 927.303,25.015 z M 921.067,33.846l-7.824,0.00 c 0.844-4.076, 3.446-6.779, 7.824-7.94L 921.067,33.846 zM 1040.233,6.25l 3.092,0.00 l 2.117,7.944L 1047.408,6.25l 3.119,0.00 l-3.572,11.813l0.00,8.061 l-3.07,0.00 l0.00-8.061 L 1040.233,6.25z M 1050.388,22.467c0.00,2.583, 1.35,3.929, 3.994,3.929c 2.192,0.00, 3.919-1.466, 3.919-3.929L 1058.30,15.281 c0.00-2.295-1.709-3.939-3.919-3.939c-2.401,0.00-3.994,1.586-3.994,3.939L 1050.388,22.467 z M 1053.193,15.523 c0.00-0.802, 0.369-1.398, 1.135-1.398c 0.836,0.00, 1.194,0.578, 1.194,1.398l0.00,6.819 c0.00,0.798-0.407,1.388-1.14,1.388 c-0.753,0.00-1.188-0.616-1.188-1.388L 1053.193,15.523 z M 1065.669,11.463l0.00,11.128 c-0.332,0.416-1.071,1.098-1.603,1.098 c-0.583,0.00-0.726-0.398-0.726-0.988L 1063.34,11.463 l-2.726,0.00 l0.00,12.254 c0.00,1.448, 0.443,2.619, 1.904,2.619c 0.825,0.00, 1.969-0.429, 3.15-1.83 l0.00,1.618 l 2.726,0.00 L 1068.394,11.463 L 1065.669,11.463 z M 1061.659,41.517c 0.185,0.244, 0.278,0.602, 0.278,1.073l0.00,7.209 c0.00,0.445-0.075,0.766-0.225,0.962 c-0.286,0.374-0.906,0.357-1.328,0.144c-0.199-0.10-0.403-0.264-0.615-0.491l0.00-8.701 c 0.176-0.192, 0.354-0.334, 0.535-0.425 C 1060.759,41.057, 1061.345,41.102, 1061.659,41.517z M 1070.398,41.20c-0.962,0.00-1.16,0.677-1.16,1.636l0.00,1.413 l 2.293,0.00 l0.00-1.413 C 1071.531,41.893, 1071.331,41.20, 1070.398,41.20z M 1078.315,51.50c0.00,3.452-2.798,6.25-6.25,6.25L 1039.935,57.75 c-3.452,0.00-6.25-2.798-6.25-6.25 L 1033.685,35.711 c0.00-3.452, 2.798-6.25, 6.25-6.25l 32.129,0.00 c 3.452,0.00, 6.25,2.798, 6.25,6.25L 1078.314,51.50 z M 1044.217,36.891l 3.024,0.00 L 1047.241,34.144 l-8.972,0.00 l0.00,2.747 l 3.024,0.00 l0.00,16.18 l 2.924,0.00 L 1044.217,36.891 z M 1054.616,39.109l-2.596,0.00 l0.00,10.598 c-0.317,0.397-1.02,1.046-1.526,1.046c-0.555,0.00-0.691-0.379-0.691-0.941 l0.00-10.703 l-2.596,0.00 l0.00,11.67 c0.00,2.833, 1.921,2.85, 3.32,2.049c 0.518-0.297, 1.015-0.73, 1.494-1.298l0.00,1.541 l 2.596,0.00 L 1054.616,39.109 z M 1064.608,42.432c0.00-1.894-0.63-3.50-2.531-3.50c-0.927,0.00-1.722,0.591-2.308,1.305L 1059.769,34.144 l-2.621,0.00 l0.00,18.927 l 2.621,0.00 l0.00-1.073 c 0.724,0.902, 1.515,1.25, 2.466,1.25c 1.727,0.00, 2.373-1.342, 2.373-3.069L 1064.608,42.432 z M 1074.203,42.863 c0.00-2.523-1.203-4.107-3.694-4.107c-2.342,0.00-3.943,1.683-3.943,4.107l0.00,6.267 c0.00,2.513, 1.268,4.32, 3.746,4.32 c 2.736,0.00, 3.89-1.629, 3.89-4.32l0.00-1.049 l-2.672,0.00 l0.00,0.97 c0.00,1.216-0.064,1.953-1.16,1.953c-1.045,0.00-1.134-0.906-1.134-1.953 l0.00-2.634 l 4.965,0.00 L 1074.203,42.863 zM 1209.746,44.92l-9.992,0.00 c-0.001-10.875-5.436-5.706-5.436-15.236c0.00-3.44, 2.252-5.307, 5.144-5.307 c 4.273,0.00, 7.246,4.079, 3.20,11.707c-1.329,2.506, 1.415,3.102, 4.364,3.782C 1209.973,40.546, 1209.746,42.10, 1209.746,44.92z M 1160.975,39.867c 2.949-0.68, 5.693-1.276, 4.364-3.782c-4.046-7.628-1.073-11.707, 3.20-11.707 c 2.892,0.00, 5.144,1.867, 5.144,5.307c0.00,9.53-5.436,4.361-5.436,15.236L 1158.254,44.92 C 1158.254,42.10, 1158.027,40.546, 1160.975,39.867z M 1193.514,38.564c-3.709-0.856-7.161-1.605-5.489-4.757c 5.089-9.595, 1.349-14.726-4.025-14.726 c-5.48,0.00-9.128,5.328-4.025,14.726c 1.722,3.171-1.86,3.92-5.489,4.757c-3.707,0.855-3.422,2.81-3.422,6.356 l 25.873,0.00 C 1196.937,41.373, 1197.222,39.419, 1193.514,38.564zM 1321.854,6.25L 1302.146,6.25 c-2.278,0.00-4.125,1.847-4.125,4.125l0.00,43.25 c0.00,2.278, 1.847,4.125, 4.125,4.125l 19.708,0.00 c 2.278,0.00, 4.125-1.847, 4.125-4.125L 1325.979,10.375 C 1325.979,8.097, 1324.132,6.25, 1321.854,6.25z M 1309.813,10.028l 4.625,0.00 c 0.276,0.00, 0.50,0.224, 0.50,0.50s-0.224,0.50-0.50,0.50l-4.625,0.00 c-0.276,0.00-0.50-0.224-0.50-0.50S 1309.536,10.028, 1309.813,10.028z M 1312.125,55.382c-1.105,0.00-2.00-0.895-2.00-2.00s 0.895-2.00, 2.00-2.00 c 1.104,0.00, 2.00,0.895, 2.00,2.00S 1313.23,55.382, 1312.125,55.382z M 1322.844,49.219L 1301.157,49.219 l0.00-34.438 L 1322.844,14.781 L 1322.844,49.219 zM 1459.167,27.032c-1.302-6.87-7.333-11.972-14.473-11.972c-4.387,0.00-8.454,1.911-11.234,5.198 c-4.644-1.238-9.51,1.473-10.867,6.097C 1417.77,27.772, 1414.325,32.237, 1414.325,37.413c0.00,6.356, 5.171,11.528, 11.653,11.528L 1454.148,48.941 c 6.356,0.00, 11.528-5.171, 11.528-11.528C 1465.675,32.924, 1463.118,28.932, 1459.167,27.032z M 1454.148,43.94L 1425.978,43.94 c-3.724,0.00-6.653-2.928-6.653-6.528c0.00-4.26, 3.456-7.51, 7.773-6.727c-1.442-4.949, 5.516-7.741, 8.08-4.043 c 0.645-1.823, 3.228-6.583, 9.516-6.583c 4.753,0.00, 9.67,3.26, 9.833,10.623c 3.17,0.012, 6.147,2.304, 6.147,6.731 C 1460.675,41.012, 1457.747,43.94, 1454.148,43.94zM 1586.763,28.455c-0.555-6.996-6.409-12.50-13.547-12.50c-4.852,0.00-9.11,2.543-11.514,6.369 c-4.523-2.557-10.291,0.451-10.652,5.737C 1546.091,28.669, 1542.25,32.892, 1542.25,38.014c0.00,5.54, 4.491,10.031, 10.031,10.031l 12.284,0.00 l0.00-9.163 l-4.152,0.00 l 8.838-8.851l 8.837,8.851l-4.152,0.00 l0.00,9.163 l 9.784,0.00 c 5.54,0.00, 10.031-4.491, 10.031-10.031 C 1593.75,33.536, 1590.815,29.744, 1586.763,28.455zM 50.763,156.455c-0.555-6.996-6.409-12.50-13.547-12.50c-4.852,0.00-9.11,2.543-11.514,6.369 c-4.523-2.557-10.291,0.451-10.652,5.737C 10.091,156.669, 6.25,160.892, 6.25,166.014c0.00,5.54, 4.491,10.031, 10.031,10.031l 31.439,0.00 c 5.54,0.00, 10.031-4.491, 10.031-10.031C 57.75,161.536, 54.815,157.744, 50.763,156.455z M 33.25,172.031l-8.587-8.601l 4.152,0.00 l0.00-8.90 l 8.871,0.00 l0.00,8.90 l 4.152,0.00 L 33.25,172.031zM 179.781,181.75L 179.781,138.25 c0.00-2.209-1.791-4.00-4.00-4.00l-31.563,0.00 c-2.209,0.00-4.00,1.791-4.00,4.00l0.00,43.50 c0.00,2.209, 1.791,4.00, 4.00,4.00 l 31.563,0.00 C 177.99,185.75, 179.781,183.959, 179.781,181.75z M 145.219,180.125L 145.219,139.875 l 29.563,0.00 l0.00,40.25 L 145.219,180.125 z M 158.938,182.969c0.00-0.587, 0.476-1.063, 1.063-1.063 c 0.587,0.00, 1.063,0.476, 1.063,1.063c0.00,0.587-0.476,1.063-1.063,1.063C 159.413,184.031, 158.938,183.556, 158.938,182.969zM 280.701,178.832c-0.56,1.986-3.278,4.704-5.263,5.263l 25.125,0.00 c-1.918-0.496-4.768-3.346-5.263-5.263L 280.701,178.832 z M 310.625,135.905L 265.375,135.905 c-1.726,0.00-3.125,1.399-3.125,3.125l0.00,33.566 c0.00,1.726, 1.399,3.125, 3.125,3.125 l 45.25,0.00 c 1.726,0.00, 3.125-1.399, 3.125-3.125L 313.75,139.03 C 313.75,137.304, 312.351,135.905, 310.625,135.905z M 308.486,165.625L 267.514,165.625 l0.00-24.457l 40.973,0.00L 308.486,165.625 z M 430.691,138.208c-1.137,0.00-2.227-0.45-3.033-1.251L 424.938,134.25l-17.875,0.00 l-2.721,2.707 c-0.806,0.801-1.896,1.251-3.033,1.251L 393.938,138.208 L 393.938,185.75 l 44.125,0.00 L 438.063,138.208 L 430.691,138.208 z M 433.00,180.688L 398.875,180.688 l0.00-37.50 l 7.792,0.00 l 3.115,3.125L 422.438,146.313 l 3.156-3.125L 433.00,143.188 L 433.00,180.688 z M 403.109,156.608l 1.125-1.04c 1.316,0.637, 2.151,1.121, 3.63,2.176c 2.781-3.156, 4.618-4.757, 8.034-6.882 l 0.366,0.842c-2.817,2.458-4.88,5.196-7.85,10.523C 406.582,160.069, 405.359,158.693, 403.109,156.608z M 403.109,169.983 l 1.125-1.04c 1.316,0.637, 2.151,1.121, 3.63,2.176c 2.781-3.156, 4.618-4.757, 8.034-6.882l 0.366,0.842 c-2.817,2.458-4.88,5.196-7.85,10.523C 406.582,173.444, 405.359,172.068, 403.109,169.983z M 428.698,155.563l-8.75,0.00 l0.00-2.50 l 8.75,0.00 L 428.698,155.563 z M 428.698,157.75l-8.75,0.00 l0.00,2.50 l 8.75,0.00 L 428.698,157.75 z M 428.698,170.146l-8.75,0.00 l0.00-2.50 l 8.75,0.00 L 428.698,170.146 z M 428.698,172.333l-8.75,0.00 l0.00,2.50 l 8.75,0.00 L 428.698,172.333 zM 561.674,142.766c0.00,1.254-1.017,2.271-2.271,2.271s-2.271-1.017-2.271-2.271L 557.131,137.05 c0.00-1.254, 1.017-2.271, 2.271-2.271s 2.271,1.017, 2.271,2.271L 561.674,142.766 z M 530.986,137.04c0.00-1.254-1.017-2.271-2.271-2.271 c-1.254,0.00-2.271,1.017-2.271,2.271l0.00,5.716 c0.00,1.254, 1.017,2.271, 2.271,2.271c 1.254,0.00, 2.271-1.017, 2.271-2.271L 530.986,137.04 z M 564.419,140.356l0.00,2.327 c0.00,2.766-2.251,5.017-5.017,5.017c-2.766,0.00-5.017-2.251-5.017-5.017L 554.386,140.356 L 533.732,140.356 l0.00,2.317 c0.00,2.766-2.251,5.017-5.017,5.017c-2.766,0.00-5.017-2.251-5.017-5.017L 523.698,140.356 L 518.25,140.356 l0.00,44.875 l 51.50,0.00 l0.00-44.875 L 564.419,140.356 z M 564.75,180.231L 523.25,180.231 L 523.25,152.422 l 41.50,0.00 L 564.75,180.231 z M 545.27,169.897c0.00-1.841-0.96-3.28-2.548-3.89c 1.214-0.607, 1.92-1.852, 1.92-3.451 c0.00-3.089-3.013-4.935-5.926-4.935c-3.39,0.00-5.949,2.123-6.104,6.345l 3.775,0.00 c-0.033-1.746, 0.623-3.019, 2.353-3.019 c 1.031,0.00, 2.141,0.625, 2.141,1.996c0.00,1.731-1.874,1.979-3.599,1.828l0.00,2.938 c 2.451,0.00, 3.913,0.155, 3.913,2.262 c0.00,1.663-1.257,2.407-2.503,2.407c-1.89,0.00-2.661-1.41-2.729-3.333l-3.748,0.00 c-0.071,4.343, 2.561,6.635, 6.525,6.635 C 542.283,175.678, 545.27,173.513, 545.27,169.897z M 555.172,175.364L 555.172,157.958 l-3.195,0.00 c-0.396,2.648-2.285,3.423-4.986,3.35 l0.00,3.091 l 4.25,0.00 l0.00,10.964 L 555.172,175.364 zM 682.441,174.289L 661.438,174.289 l0.00-3.75 l 21.003,0.00 L 682.441,174.289 z M 682.437,167.362l-8.18,0.00 l0.00-3.75 l 8.18,0.00 L 682.437,167.362 z M 682.437,160.445l-8.18,0.00 l0.00-3.75 l 8.18,0.00 L 682.437,160.445 z M 677.227,139.25l0.00,10.719 l 10.733,0.00 L 687.96,180.75 L 656.04,180.75 L 656.04,139.25 L 677.227,139.25 M 680.352,134.25L 651.04,134.25 l0.00,51.50 l 41.921,0.00 L 692.96,146.844 L 680.352,134.25z M 670.875,167.362l-9.437,0.00 l0.00-10.667 L 670.875,156.695 L 670.875,167.362 zM 800.00,135.51L 806.079,154.219L 825.75,154.219L 809.836,165.781L 815.914,184.49L 800.00,172.927L 784.086,184.49L 790.164,165.781L 774.25,154.219L 793.921,154.219 zM 939.707,142.782l 2.623-3.818l 4.115,2.841l-2.611,3.80 C 942.562,144.531, 941.18,143.583, 939.707,142.782z M 924.215,134.14l0.00,5.963 c 1.234-0.192, 2.498-0.291, 3.785-0.291 c 1.263,0.00, 2.503,0.096, 3.715,0.28L 931.715,134.14 L 924.215,134.14 z M 949.462,164.398c0.00,11.853-9.608,21.462-21.462,21.462 c-11.853,0.00-21.462-9.609-21.462-21.462c0.00-11.853, 9.608-21.462, 21.462-21.462 C 939.853,142.936, 949.462,152.545, 949.462,164.398z M 943.837,164.398c0.00-8.754-7.085-15.837-15.837-15.837 c-8.754,0.00-15.837,7.085-15.837,15.837c0.00,8.754, 7.085,15.837, 15.837,15.837 C 936.754,180.235, 943.837,173.151, 943.837,164.398z M 932.158,165.528c0.00,2.175-1.763,3.938-3.938,3.938 c-2.175,0.00-3.938-1.763-3.938-3.938c0.00-1.413, 0.744-2.651, 1.862-3.346l 1.441-10.826c 0.029-0.244, 0.234-0.428, 0.479-0.434 c 0.245-0.005, 0.457,0.171, 0.497,0.413l 1.666,10.806C 931.383,162.828, 932.158,164.087, 932.158,165.528zM 1081.691,159.438c 0.038,1.758-0.098,3.486-0.412,5.207L 1075.813,163.24 c 0.206-1.272, 0.288-2.531, 0.253-3.802L 1081.691,159.437 z M 1080.34,168.275l-5.47-1.405c-0.446,1.229-1.009,2.402-1.675,3.506 l 4.595,3.266C 1078.835,171.971, 1079.696,170.173, 1080.34,168.275z M 1070.941,180.936c 1.714-1.229, 3.27-2.664, 4.633-4.268 l-4.606-3.275c-0.871,0.976-1.836,1.867-2.881,2.659L 1070.941,180.936z M 1030.198,160.00c0.00,14.221, 11.529,25.75, 25.75,25.75 c 4.251,0.00, 8.261-1.031, 11.794-2.855l-2.844-4.867C 1062.203,179.37, 1059.164,180.125, 1055.948,180.125c-11.115,0.00-20.125-9.01-20.125-20.125 s 9.01-20.125, 20.125-20.125c 5.474,0.00, 10.936,2.186, 14.564,5.731l-4.483,4.482l 15.772,2.879L 1078.923,137.196l-4.433,4.433 C 1069.844,137.065, 1062.975,134.25, 1055.948,134.25C 1041.727,134.25, 1030.198,145.779, 1030.198,160.00z M 1062.568,167.441l0.00-3.275 l-5.985,0.00 l0.00-2.987 l 6.281-8.429l 2.972,0.00 l0.00,8.512 l 1.881,0.00 l0.00,2.905 l-1.881,0.00 l0.00,3.275 L 1062.568,167.441 z M 1062.568,161.261l0.00-3.912 l-2.914,3.912L 1062.568,161.261 z M 1044.644,167.441c0.00-2.217, 0.636-3.943, 2.849-5.581c 2.605-1.93, 4.592-2.687, 4.592-4.474c0.00-1.181-0.71-1.914-1.853-1.914 c-1.593,0.00-1.975,1.668-1.975,3.255l-3.28,0.00 c-0.138-4.111, 2.195-6.261, 5.396-6.261c 2.968,0.00, 5.122,1.976, 5.122,4.697 c0.00,1.358-0.422,2.436-1.328,3.39c-1.435,1.512-3.584,2.275-4.994,3.882l 6.402,0.00 l0.00,3.006 L 1044.644,167.441 zM 1186.238,144.994l0.00-3.579 l 5.945-5.945c 0.878,0.292, 1.736,0.629, 2.569,1.01 L 1186.238,144.994z M 1201.383,140.853L 1186.238,155.998l0.00,1.763 l 1.816,0.00 l 15.117-15.117C 1202.604,142.019, 1202.007,141.421, 1201.383,140.853z M 1186.238,137.702l 3.017-3.017c-0.986-0.202-1.993-0.349-3.017-0.435L 1186.238,137.702 z M 1209.324,154.787l-2.973,2.973L 1209.75,157.761 C 1209.665,156.752, 1209.521,155.76, 1209.324,154.787z M 1208.543,151.855c-0.291-0.879-0.627-1.738-1.007-2.573l-8.478,8.478l 3.579,0.00 L 1208.543,151.855z M 1206.264,146.842c-0.44-0.743-0.914-1.463-1.424-2.155L 1191.767,157.761l 3.579,0.00 L 1206.264,146.842z M 1199.343,139.181c-0.692-0.51-1.411-0.986-2.153-1.426l-10.951,10.952l0.00,3.579 L 1199.343,139.181z M 1181.854,162.145L 1181.854,134.25 C 1168.633,135.362, 1158.25,146.444, 1158.25,159.952C 1158.25,174.20, 1169.799,185.75, 1184.047,185.75C 1197.555,185.75, 1208.636,175.366, 1209.75,162.145L 1181.854,162.145 zM 1337.75,177.715l0.00,5.00 L 1286.25,182.715 L 1286.25,137.286 l 5.00,0.00 l0.00,40.429 L 1337.75,177.715 z M 1335.121,143.419l-11.914,2.252l 2.872,2.836 l-11.148,11.036l-5.028-4.727l-13.527,13.49l 4.244,4.257l 9.388-9.364l 5.013,4.713l 15.335-15.181l 2.662,2.629 L 1335.121,143.419zM 1458.849,164.087c0.00,0.00-18.773-25.083-21.00-27.894C 1436.852,134.935, 1435.322,134.25, 1433.446,134.25 c-2.312,0.00-5.149,1.039-8.164,3.322c-5.462,4.136-6.894,8.591-4.72,11.667c 2.174,3.076, 21.132,28.079, 21.132,28.079 L 1461.66,185.75L 1458.849,164.087z M 1454.715,164.406c-1.021,0.783-2.41,1.203-3.965,1.171c-2.40-0.048-4.633-1.151-5.972-2.952 c0.00,0.00-8.568-11.446-10.802-14.431c 2.823-1.94, 5.581-2.482, 6.601-2.623C 1445.391,151.959, 1451.938,160.697, 1454.715,164.406z M 1438.866,143.301c-1.667,0.384-4.169,1.224-6.694,3.051c-2.518,1.822-4.075,4.244-4.95,5.994 c-0.678-0.904-1.296-1.73-1.833-2.45c 0.608-1.422, 2.011-4.089, 4.563-5.935c 3.317-2.40, 6.631-2.822, 7.232-2.881 C 1437.683,141.737, 1438.25,142.486, 1438.866,143.301z M 1423.328,145.051c 0.557-1.46, 2.001-3.125, 4.066-4.689 c 2.192-1.66, 4.398-2.612, 6.051-2.612c 0.777,0.00, 1.336,0.208, 1.661,0.617c 0.084,0.106, 0.195,0.248, 0.326,0.417 c-1.658,0.352-4.303,1.181-6.973,3.113c-2.368,1.714-3.886,3.957-4.786,5.674c-0.10-0.138-0.186-0.258-0.254-0.353 C 1423.257,146.988, 1422.823,146.374, 1423.328,145.051z M 1428.968,154.671c 0.458-1.146, 1.607-3.57, 3.755-5.497 c 1.931,2.579, 8.434,11.264, 10.80,14.434c 1.224,1.64, 1.704,3.849, 1.317,6.062c-0.266,1.521-0.937,2.863-1.795,3.636 C 1440.207,169.56, 1433.747,161.026, 1428.968,154.671z M 1454.806,179.056l-10.736-4.534c 1.148-1.014, 2.003-2.672, 2.337-4.578 c 0.234-1.341, 0.198-2.685-0.088-3.944c 1.317,0.721, 2.829,1.135, 4.399,1.167c 0.064,0.001, 0.128,0.002, 0.192,0.002 c 1.773,0.00, 3.384-0.494, 4.628-1.394l 1.518,11.70C 1455.987,177.583, 1455.226,178.096, 1454.806,179.056zM 1589.75,143.283l0.00,9.663 l-7.89,0.00 l-9.38-7.213l-3.141,4.085l 4.077,3.129l-4.23,0.00 l-9.38-7.213 l-5.547,7.213L 1546.125,152.946 L 1546.125,139.207 l 12.544,0.00 l 2.872,2.854c 0.787,0.782, 1.852,1.221, 2.962,1.221L 1589.75,143.283 z M 1593.75,157.316L 1542.25,157.316 L 1545.25,180.792l 44.823,0.00 L 1593.75,157.316zM 6.373,305.138c 1.87-3.719, 3.946-8.824, 3.839-12.384 c-2.519-3.038-3.942-6.952-3.942-10.939c0.00-11.241, 10.905-19.459, 23.114-19.459c 12.133,0.00, 23.114,8.157, 23.114,19.459 c0.00,11.769-12.966,22.761-30.757,18.392C 18.509,302.204, 11.385,304.224, 6.373,305.138z M 55.054,305.239 c 3.396-4.095, 3.743-10.22-0.023-14.857c-3.876,8.73-13.433,15.255-25.701,15.176 c 3.56,4.179, 10.034,6.671, 17.899,4.739c 2.193,1.356, 7.029,2.727, 10.431,3.347 C 56.391,311.12, 54.982,307.655, 55.054,305.239zM 134.218,268.926l0.00,38.148 L 134.263,307.074 l 51.395,0.00 l 0.125,0.00 L 185.782,268.926 L 134.218,268.926 z M 179.942,273.301L 159.993,288.558 L 140.059,273.301L 179.942,273.301 z M 138.593,277.688l 10.688,8.18L 138.593,296.556L 138.593,277.688 z M 138.637,302.699l 14.148-14.148l 7.207,5.516 l 7.172-5.485l 14.118,14.117L 138.637,302.699 z M 181.407,296.637l-10.737-10.737l 10.737-8.212L 181.407,296.637 zM 290.367,280.10c-0.009-0.015, 0.041-0.172, 0.085-0.157c 0.028,0.009, 0.018,0.023, 0.052,0.026 c 0.034,0.003, 0.054-0.037, 0.089-0.031c 0.055,0.01, 0.094,0.061, 0.152,0.063c 0.044,0.001, 0.07-0.043, 0.113-0.046 c 0.031-0.003, 0.059,0.017, 0.09,0.01c 0.033-0.008, 0.058-0.029, 0.085-0.045c 0.054-0.032, 0.047-0.004, 0.11-0.01 c 0.02-0.003, 0.036-0.013, 0.055-0.017c 0.004-0.001, 0.008-0.001, 0.013-0.001c 0.028,0.003, 0.039,0.02, 0.033,0.053 c-0.013,0.072-0.072,0.127-0.081,0.201c-0.006,0.048, 0.056,0.075, 0.04,0.127c-0.04,0.13-0.077,0.137-0.102,0.141 c-0.035,0.006-0.06-0.005-0.075-0.013c-0.044-0.021-0.075-0.062-0.117-0.087c-0.022-0.014-0.049-0.017-0.072-0.028 c-0.073-0.031-0.286-0.178-0.352-0.174c-0.024,0.001-0.043,0.019-0.066,0.017c-0.001,0.00-0.002,0.00-0.003,0.00 C 290.401,280.127, 290.38,280.124, 290.367,280.10z M 285.926,273.762c0.00,0.00,0.00,0.000.00,0.00c-0.005,0.006-0.009,0.013-0.012,0.02 c-0.007,0.013-0.002,0.029, 0.01,0.038c 0.013,0.008, 0.029,0.006, 0.039-0.005c 0.012-0.014, 0.027-0.032, 0.046-0.055 c 0.018-0.022, 0.025-0.03, 0.051-0.041c 0.021-0.009, 0.043-0.018, 0.065-0.025c 0.008-0.003, 0.018-0.001, 0.024,0.004 s 0.011,0.014, 0.011,0.022c-0.002,0.05, 0.015,0.105-0.036,0.144c-0.029,0.023-0.052,0.041-0.069,0.055 c-0.017,0.014-0.022,0.038-0.011,0.058c 0.011,0.02, 0.033,0.029, 0.055,0.023c0.00,0.00,0.00,0.00, 0.003,0.002c 0.002,0.001, 0.003,0.003, 0.004,0.006 c 0.014,0.059, 0.016,0.059, 0.095,0.012c 0.003-0.002, 0.005-0.002, 0.008-0.001c 0.001,0.00, 0.003,0.001, 0.003,0.003 c 0.011,0.021, 0.028,0.037, 0.049,0.048c 0.029,0.014, 0.051,0.041, 0.058,0.074c 0.00,0.002, 0.001,0.004, 0.001,0.006 c 0.001,0.002, 0.001,0.004, 0.002,0.006c 0.027,0.082, 0.005,0.172-0.056,0.232c-0.061,0.061-0.151,0.082-0.233,0.055 c0.00,0.000.00,0.000.00,0.00c-0.014-0.004-0.029,0.001-0.037,0.012s-0.007,0.028, 0.002,0.039c 0.008,0.01, 0.018,0.019, 0.017,0.033 c-0.001,0.051-0.065,0.032-0.085,0.066c0.00,0.001-0.001,0.001-0.001,0.001c-0.001,0.002-0.002,0.005-0.003,0.008 c-0.001,0.006, 0.002,0.013, 0.007,0.018c 0.005,0.004, 0.012,0.006, 0.018,0.005c 0.029-0.006, 0.053-0.031, 0.084-0.034 c 0.059-0.004, 0.014,0.143-0.005,0.164c-0.021,0.024-0.169,0.076-0.216,0.083c-0.03,0.005-0.05,0.007-0.06,0.018 c-0.009,0.011-0.015,0.072, 0.026,0.092c 0.063,0.03, 0.122-0.025, 0.185-0.009c0.00,0.00,0.00,0.00, 0.00,0.00c 0.059,0.015, 0.113,0.048, 0.155,0.092 c 0.004,0.004, 0.008,0.006, 0.013,0.008c 0.02,0.008, 0.043,0.008, 0.063-0.001c 0.005-0.002, 0.01-0.005, 0.014-0.009 c 0.017-0.015, 0.034-0.02, 0.052-0.02c 0.013-0.001, 0.026,0.008, 0.03,0.021c 0.004,0.013,0.00,0.027-0.011,0.035 c-0.046,0.033-0.092,0.066-0.155,0.059c-0.034-0.004-0.069-0.004-0.102-0.001c-0.105,0.011-0.204,0.058-0.279,0.134 c-0.025,0.025-0.052,0.052-0.076,0.077c-0.013,0.013-0.014,0.034-0.003,0.049c 0.012,0.015, 0.032,0.018, 0.048,0.009 c 0.011-0.007, 0.023-0.014, 0.036-0.022c 0.045-0.028, 0.127-0.061, 0.172,0.025c 0.001,0.00, 0.001,0.00, 0.002,0.001 c 0.007,0.002, 0.014,0.001, 0.019-0.004c 0.06-0.045, 0.091-0.13, 0.18-0.138c 0.063-0.005, 0.11,0.057, 0.174,0.043 c 0.072-0.015, 0.132-0.071, 0.211-0.066c 0.029,0.002, 0.109,0.023, 0.117,0.028c 0.022,0.013, 0.022,0.013, 0.14,0.015 c 0.05,0.001, 0.085,0.041, 0.132,0.048c 0.057,0.009, 0.109-0.025, 0.165-0.02c 0.00,0.00, 0.00,0.00, 0.001,0.00c 0.001,0.00, 0.001,0.00, 0.001,0.00 c 0.002,0.00, 0.17-0.032, 0.166-0.102c0.00-0.001-0.001-0.003-0.002-0.003c-0.001,0.00-0.001-0.001-0.002-0.001 c-0.059-0.035-0.098-0.096-0.106-0.164c-0.001-0.005, 0.003-0.01, 0.008-0.012c 0.005-0.002, 0.011-0.001, 0.016,0.003 c 0.003,0.003, 0.007,0.005, 0.01,0.007c 0.018,0.012, 0.029,0.014, 0.036,0.009c 0.04-0.029, 0.083-0.056, 0.127-0.08 c 0.023-0.013, 0.037-0.039, 0.05-0.09c 0.004-0.016, 0.019-0.096-0.083-0.153c-0.001,0.00-0.001-0.001-0.002-0.001 c-0.008-0.005-0.198-0.102-0.252-0.073c-0.036,0.019-0.036,0.019-0.102-0.015c-0.002-0.01, 0.001-0.02, 0.009-0.026 c 0.075-0.058, 0.075-0.059, 0.073-0.075c-0.003-0.036-0.022-0.062-0.043-0.086c-0.019-0.021-0.021-0.051-0.005-0.074 c 0.00,0.00, 0.001-0.001, 0.001-0.001c 0.014-0.019-0.061-0.18-0.061-0.181c-0.005-0.005-0.008-0.008-0.018-0.008 c-0.031,0.002-0.065,0.003-0.096,0.003c-0.004,0.00-0.009,0.001-0.017,0.002c-0.001,0.00-0.002,0.00-0.002-0.001 c-0.002-0.003-0.002-0.007-0.001-0.01c 0.01-0.04-0.029-0.065-0.032-0.101c-0.004-0.037, 0.006-0.073, 0.01-0.109 c 0.003-0.032-0.001-0.069-0.011-0.105c-0.038-0.13-0.032-0.268, 0.014-0.392c 0.019-0.052, 0.046-0.102, 0.078-0.146 c 0.075-0.104-0.261-0.09-0.324-0.086c-0.005,0.00-0.01-0.002-0.012-0.006c-0.003-0.004-0.002-0.009, 0.00-0.014 c 0.016-0.025, 0.018-0.057, 0.041-0.078c 0.031-0.029, 0.072-0.038, 0.107-0.06c 0.077-0.048, 0.013-0.078-0.016-0.085 c-0.067-0.017-0.138-0.026-0.207-0.026c-0.026,0.00-0.053,0.004-0.08,0.014c-0.018,0.006-0.038,0.028-0.059,0.057 c-0.042,0.059-0.091,0.111-0.148,0.156c-0.003,0.002-0.006,0.005-0.009,0.007c-0.016,0.012-0.036,0.014-0.054,0.007 c-0.01-0.004-0.022-0.004-0.032,0.00c-0.002,0.001-0.004,0.002-0.006,0.003c-0.019,0.01-0.034,0.025-0.044,0.042 c-0.013,0.021-0.01,0.048, 0.006,0.066c 0.017,0.018, 0.044,0.023, 0.065,0.011c 0.00,0.00, 0.00,0.001, 0.00,0.001 c 0.003,0.007, 0.003,0.0150.00,0.021c-0.013,0.028-0.016,0.058-0.028,0.086c-0.001,0.003-0.004,0.005-0.007,0.006 c-0.005,0.001-0.01-0.001-0.013-0.006c-0.014-0.022-0.021-0.022-0.031-0.02c-0.001,0.00-0.002,0.001-0.003,0.001 c-0.04,0.008-0.068,0.102-0.066,0.129c 0.001,0.009, 0.003,0.016, 0.008,0.021C 285.967,273.615, 285.972,273.70, 285.926,273.762z M 313.75,288.00C 313.75,302.221, 302.221,313.75, 288.00,313.75C 273.779,313.75, 262.25,302.221, 262.25,288.00C 262.25,273.779, 273.779,262.25, 288.00,262.25 C 302.221,262.25, 313.75,273.779, 313.75,288.00z M 295.619,276.918c-0.001-0.061, 0.102-0.06, 0.112-0.137c 0.004-0.035-0.011-0.069-0.04-0.089 c-0.037-0.025-0.054-0.018-0.099,0.003c-0.027,0.013-0.057,0.026-0.09,0.026c-0.027,0.00-0.05-0.02-0.054-0.046 c-0.004-0.024, 0.007-0.047, 0.028-0.059c 0.008-0.004, 0.011-0.014, 0.007-0.022c0.00,0.000.00,0.000.00,0.00 c-0.003-0.006-0.008-0.01-0.015-0.012c-0.071-0.017-0.131-0.028-0.181-0.034c-0.093-0.011-0.189-0.004-0.279,0.021 c-0.074,0.021-0.079,0.033-0.096,0.082c-0.045,0.128-0.064,0.18-0.081,0.202c-0.062,0.082-0.107,0.174-0.132,0.274 c-0.009,0.038-0.029,0.071-0.073,0.092c0.00,0.00-0.001,0.00-0.004,0.00c0.00,0.001-0.026,0.233-0.024,0.257c 0.004,0.053, 0.034,0.103, 0.016,0.158 c-0.016,0.047-0.082,0.036-0.098,0.083c0.00,0.001-0.001,0.002-0.001,0.002c-0.027,0.078, 0.006,0.197, 0.025,0.276 c 0.002,0.007-0.002,0.014-0.008,0.018c-0.006,0.003-0.014,0.002-0.019-0.003c0.00,0.00-0.001,0.00-0.001-0.001 c-0.034-0.032-0.05-0.021-0.058-0.007c-0.006,0.011-0.005,0.023, 0.002,0.033c0.00,0.00, 0.00,0.00, 0.00,0.00l 0.096,0.134 c 0.096,0.135, 0.226,0.239, 0.379,0.304c 0.00,0.00, 0.00,0.00, 0.00,0.00c 0.083,0.036, 0.163-0.019, 0.246-0.01 c 0.092,0.011, 0.183-0.005, 0.275-0.006c 0.031,0.00, 0.094-0.009, 0.134-0.026c 0.033-0.014, 0.035-0.037, 0.038-0.064 c 0.00-0.002, 0.00-0.005, 0.001-0.007c 0.002-0.024, 0.006-0.027, 0.108-0.107c 0.073-0.058, 0.163-0.089, 0.238-0.147 c 0.126-0.098, 0.286,0.00, 0.421-0.042c 0.031-0.009, 0.457,0.151, 0.485,0.164c 0.001,0.00, 0.001,0.001, 0.002,0.001 c 0.125,0.052, 0.462,0.055, 0.542,0.078c 0.033,0.009, 0.082,0.02, 0.13,0.019c 0.003-0.002, 0.006-0.003, 0.009-0.004 c 0.067-0.032, 0.109-0.136, 0.202-0.089c 0.161,0.081, 0.616,0.01, 0.505-0.366c-0.06-0.204-0.329-0.315-0.41-0.344 c-0.244-0.088-0.403-0.297-0.618-0.429c-0.095-0.058-0.206-0.006-0.304-0.045c-0.22-0.088-0.22-0.088-0.232-0.151 c-0.001-0.005, 0.001-0.01, 0.004-0.015c 0.059-0.083, 0.104-0.175, 0.132-0.274c 0.00-0.001, 0.001-0.002, 0.001-0.003 c 0.01-0.035, 0.023-0.052-0.015-0.077c-0.05-0.032-0.147-0.001-0.157-0.084c-0.008-0.066, 0.134-0.139, 0.192-0.172 c 0.049-0.028, 0.069-0.065, 0.078-0.088c 0.013-0.036-0.031-0.085-0.051-0.082c-0.067,0.008-0.253,0.118-0.28,0.121 c0.00,0.00-0.001,0.00-0.001,0.00c-0.008,0.001-0.017,0.004-0.024,0.008c-0.001,0.00,0.00,0.00-0.001,0.00l-0.424,0.245 c-0.001,0.00-0.001,0.001-0.002,0.001c-0.075,0.055-0.117,0.145-0.11,0.239c 0.007,0.093, 0.061,0.176, 0.143,0.22 c 0.035,0.019, 0.085,0.028, 0.068,0.064c0.00,0.000.00,0.000.00,0.00c-0.009,0.018-0.24,0.237-0.264,0.24 c-0.063,0.007-0.084-0.023-0.089-0.033c-0.002-0.004-0.004-0.008-0.005-0.012c-0.036-0.105-0.12-0.19-0.238-0.226 C 295.636,276.965, 295.62,276.943, 295.619,276.918z M 308.611,288.00c0.00-2.134-0.366-4.291-0.74-5.43 c-0.117-0.357-0.388-0.644-0.738-0.78c-0.351-0.136-0.744-0.107-1.071,0.078c-0.826,0.467-0.80,0.526-1.088,0.512 c-0.132-0.006-0.724,0.387-0.936-0.064c-0.04-0.085-0.248-0.468-0.537,0.06c-0.078,0.143-0.505,0.035-0.646-0.044 c-0.415-0.232-0.927-0.774-1.053-0.911c0.00,0.00-0.001,0.00-0.001,0.001c0.00,0.000.00,0.001-0.001,0.00 c-0.142-0.164-0.552,0.06-0.251,0.509c 1.011,1.507, 1.188,1.52, 1.475,1.67c 0.00,0.00, 0.00,0.00, 0.001,0.00 c 0.135-0.102, 0.116-0.133, 0.291-0.158c 0.109-0.015, 0.203-0.084, 0.251-0.182c 0.00-0.001, 0.001-0.002, 0.002-0.003 c 0.055-0.114, 0.16-0.195, 0.284-0.221s 0.253,0.008, 0.348,0.09c 0.001,0.001, 0.002,0.002, 0.003,0.003 c 0.175,0.151, 0.401,0.011, 0.587,0.10c 0.472,0.222, 0.292,0.672, 0.198,1.206c0.00,0.002-0.001,0.003-0.002,0.004 c-0.001,0.001-0.003,0.001-0.004,0.001c-0.044-0.009-0.084,0.025-0.085,0.069c-0.002,0.17, 0.107,0.328, 0.074,0.50 c-0.001,0.006-0.005,0.012-0.011,0.015c-0.057,0.028-0.107,0.065-0.151,0.112c-0.135,0.143-0.144,0.325-0.261,0.487 c-0.11,0.153, 0.008,0.496-0.256,0.498c-0.101,0.001-0.439,0.195-0.491,0.417c-0.062,0.263-0.206,0.498-0.412,0.672 c-0.152,0.128-0.359,0.294-0.643,0.516c-0.136,0.105-0.683,0.697-1.155,0.807c-0.065,0.015-0.133-0.01-0.172-0.063 c-0.003-0.003-0.005-0.007-0.007-0.01c-0.31-0.482-0.375-1.061-0.62-1.569c-0.288-0.602-1.069-0.761-1.286-1.428 c-0.183-0.563-0.261-0.80-0.517-0.945c-0.179-0.101-0.329-0.242-0.44-0.416c-0.18-0.283-0.454-0.685-0.679-0.902 c-0.102-0.099-0.17-0.226-0.193-0.366c-0.011-0.063-0.103-0.058-0.107,0.006c-0.013,0.224, 0.029,0.294-0.034,0.342 c-0.052,0.04-0.117,0.018-0.163-0.029c-0.16-0.166-0.423-0.466-0.489-0.634c0.00,0.0010.00,0.002-0.001,0.003 c-0.017,0.065-0.004,0.135, 0.034,0.19c 0.347,0.495, 2.04,2.939, 2.083,3.17c 0.282,1.538, 1.473,1.907, 2.081,2.474 c 0.114,0.107, 0.189,0.245, 0.219,0.393c 0.028,0.142, 0.096,0.264, 0.202,0.362c 0.112,0.104, 0.224,0.09, 0.859,0.01 c 0.105-0.014, 0.174-0.089, 0.247-0.156c 0.062-0.058, 0.578-0.24, 0.645-0.282c 0.139-0.09-0.034-0.037, 0.286-0.189 c 0.125-0.06, 0.272-0.437, 0.247-0.01c-0.005,0.11, 0.056,0.209, 0.044,0.32c-0.066,0.649-0.12,0.756-0.158,0.882 c-0.049,0.166-0.115,0.326-0.156,0.495c-0.195,0.795-0.502,1.643-1.037,2.27c-0.011,0.013-0.023,0.026-0.036,0.038 c-0.296,0.274-0.836,0.78-1.275,1.641c-0.276,0.542-0.668,1.012-0.957,1.546c-0.097,0.181-0.121,0.226-0.035,0.469 c 0.061,0.174, 0.245,0.977, 0.273,2.006c 0.031,1.122-0.15,1.307-0.51,1.567c-0.576,0.417-0.968,0.701-1.238,0.90 c-0.316,0.233-0.505,0.601-0.509,0.993c-0.002,0.144-0.036,0.327-0.135,0.546c 0.00,0.001, 0.001,0.001, 0.001,0.002 c 0.021,0.039-0.742,0.421-1.005,0.731c0.00,0.000.00,0.000.00,0.001c-0.001,0.008-0.001,0.015, 0.002,0.023 c 0.177,0.556-2.071,2.168-2.538,2.164c-0.338-0.003-1.167,0.13-1.562,0.299c-0.266,0.114-0.987-0.131-1.04-0.284 c-0.008-0.023-0.01-0.065, 0.008-0.081c 0.176-0.146-0.418-1.005-0.56-1.103c-0.091-0.063-0.264-0.464-0.335-0.564 c-0.217-0.307, 0.156-0.739-0.086-1.045c-0.013-0.016-0.026-0.033-0.038-0.05l-0.701-0.979c-0.109-0.152-0.419-0.332-0.42-0.519 c0.00,0.00,0.00-0.001,0.00-0.001c-0.002-0.204, 0.362-1.188, 0.392-1.23c 0.034-0.048, 0.065-0.10, 0.091-0.152 c 0.015-0.029, 0.043-0.051, 0.097-0.079c 0.178-0.091, 0.432-0.315, 0.141-0.791c-0.017-0.029-0.017,0.097-0.11-0.563 c-0.06-0.434-0.63-1.415-0.727-1.518c0.00,0.00-0.661-0.315-0.964-0.937c 0.015-0.036, 0.039-0.066, 0.069-0.091 c 0.279-0.224, 0.229-0.504, 0.312-1.107c 0.004-0.03, 0.009-0.061, 0.016-0.09c 0.00-0.002, 0.001-0.003, 0.001-0.005l 0.008-0.04 c 0.00-0.002, 0.001-0.003, 0.001-0.004c 0.00-0.001, 0.00-0.001, 0.00-0.001c 0.025-0.119, 0.057-0.278-0.106-0.524 c-0.028-0.043-0.078-0.067-0.13-0.061c-0.003,0.00-0.005,0.001-0.008,0.001c-0.089,0.008-0.168-0.058-0.177-0.147 c0.00-0.0010.00-0.003-0.001-0.003c0.00-0.002-0.001-0.002-0.002-0.003c-0.131-0.053-0.276-0.06-0.411-0.021 c-0.298,0.087-0.931,0.217-1.002-0.193c-0.096-0.55-0.472-0.671-0.657-0.658c-0.786,0.055-1.452,0.731-2.264,0.676 c-0.036-0.002-0.082-0.019-0.116-0.032c-0.701-0.265-1.458-0.27-2.171-0.407c-0.242-0.046-0.59-0.164-0.766-0.337l-0.999-0.982 c-0.065-0.064-0.123-0.134-0.172-0.21c-0.317-0.487-0.435-1.559-0.519-1.751c-0.013-0.028-0.026-0.056-0.04-0.083l-0.086-0.162 c-0.001-0.002-0.002-0.003-0.003-0.005c0.00,0.000.00,0.000.00,0.00c-0.233-0.304-0.305-0.703-0.195-1.07l 0.395-1.313 c 0.006-0.019, 0.011-0.04, 0.016-0.059c 0.01-0.042, 0.019-0.085, 0.025-0.127c 0.094-0.652-0.031-0.89-0.092-1.007 c-0.114-0.218-0.114-0.218, 0.45-1.003c 1.026-1.431, 1.202-1.502, 1.407-1.585c0.00,0.00,0.00,0.00,0.00,0.001c 0.001,0.00, 0.001,0.00, 0.002,0.00 c 0.446,0.051, 1.291-0.494, 1.276-0.789c-0.004-0.095-0.015-0.292, 0.151-0.555c 0.065-0.101, 0.146-0.193, 0.239-0.269l 0.922-0.75 c 0.17-0.138, 0.41-0.15, 0.594-0.029c0.00,0.00,0.00,0.00, 0.00,0.00c 0.125-0.044, 0.261-0.038, 0.382,0.015c 0.158,0.07, 0.259,0.021, 0.308-0.002 c 0.559-0.268, 1.168-0.35, 4.00-0.53c 0.096-0.006, 0.189,0.035, 0.247,0.111c 0.001,0.001, 0.001,0.001, 0.002,0.002 c 0.167,0.216, 0.042,0.188, 0.232,0.506c 0.072,0.121, 0.001,0.213-0.225,0.441c-0.086,0.087-0.072,0.225-0.044,0.229 c 0.078,0.004, 0.262,0.052, 0.414,0.132c 0.201,0.105, 0.518,0.208, 0.782,0.284c 0.239,0.069, 0.453,0.209, 0.613,0.40 c 0.104,0.125, 1.506,0.962, 1.449-0.176c-0.004-0.08, 0.074-0.217, 0.204-0.324c 0.456-0.371, 0.79,0.109, 0.915,0.137 c 0.201,0.046, 0.227,0.046, 0.362,0.043c 0.001,0.00, 0.003,0.00, 0.004,0.00c 0.001,0.00, 0.001,0.00, 0.002,0.00c 0.125,0.002, 0.183,0.145, 0.583,0.118 c 0.692-0.047, 1.39,0.062, 2.079-0.059c 0.077-0.014, 0.185-0.039, 0.245-0.089c 0.764-0.631-0.011-1.404, 0.108-2.10 c 0.00-0.0020.00-0.004-0.002-0.006c-0.001-0.002-0.003-0.002-0.005-0.002c0.00,0.000.00,0.000.00,0.00 c-0.236,0.018-0.46,0.112-0.639,0.266c-0.065,0.055-0.143,0.095-0.252,0.106c-0.191,0.019-0.34-0.105-0.506-0.168 c-0.084-0.032-0.177,0.01-0.209,0.094c0.00,0.0010.00,0.001-0.001,0.002c-0.064,0.155-0.793,0.041-1.011-0.324 c-0.066-0.111-0.166-0.197-0.286-0.245c0.00,0.00-0.001,0.00-0.001,0.00c 0.003-0.002, 0.005-0.005, 0.008-0.007 c 0.215-0.203-0.114-0.358-0.15-0.516c-0.018-0.079, 0.023-0.158, 0.098-0.189c 0.001-0.001, 0.003-0.001, 0.004-0.002 c 0.179-0.068, 0.26-0.165, 0.224-0.138c-0.076,0.056-0.166,0.088-0.26,0.094c0.00,0.000.00,0.00-0.001,0.00 c-0.05,0.003-0.099-0.009-0.142-0.033c-0.106-0.059-0.225-0.089-0.346-0.089c-0.145,0.00-0.292,0.042-0.322,0.185 c-0.005,0.027-0.021,0.05-0.043,0.066c0.00,0.000.00,0.000.00,0.00c-0.018,0.013-0.043,0.016-0.064,0.006 c-0.037-0.017-0.073-0.013-0.101,0.006c-0.03,0.021-0.047,0.053-0.043,0.099c 0.011,0.125, 0.349,0.253, 0.075,0.38l-0.002,0.001 c0.00,0.00-0.118,0.069-0.128,0.074c-0.113,0.056-0.259-0.068-0.357-0.074c-0.032-0.002-0.063,0.012-0.095,0.011c-0.001,0.00-0.002,0.00-0.003,0.00 c-0.019,0.00-0.031-0.008-0.035-0.012c-0.001-0.001-0.001-0.001-0.001-0.001c-0.01-0.008-0.115-0.102-0.132-0.131 c-0.041-0.07-0.045-0.077-0.068-0.101c-0.018-0.018-0.049-0.042-0.073-0.059c-0.053-0.038-0.087-0.098-0.092-0.163 c0.00,0.00,0.00,0.00,0.00,0.00c-0.004-0.051-0.01-0.122-0.019-0.20c-0.021-0.175-0.109-0.335-0.246-0.446 c-0.035-0.029-0.08-0.043-0.125-0.042c-0.029,0.001-0.058-0.007-0.083-0.023c-0.116-0.077-0.193-0.093-0.193-0.093 c0.00,0.00-0.001-0.001-0.001-0.001l-0.905-0.66c-0.052-0.038-0.115-0.056-0.179-0.052c-0.053,0.003-0.082-0.047-0.111-0.091 c-0.058-0.089-0.168-0.129-0.27-0.098c-0.004,0.001-0.008,0.003-0.013,0.004c-0.064,0.024-0.094,0.101-0.059,0.164 c 0.019,0.034, 0.04,0.068, 0.062,0.10l 0.526,0.766c 0.087,0.127, 0.232,0.202, 0.386,0.20c 0.063,0.00, 0.116,0.047, 0.123,0.11 c 0.003,0.03, 0.021,0.058, 0.049,0.075c 0.251,0.144, 0.576,0.165, 0.75,0.439c 0.002,0.003, 0.003,0.006, 0.003,0.009 c 0.00,0.001, 0.00,0.002, 0.00,0.003c0.00,0.001,0.00,0.001,0.00,0.001c 0.001,0.021-0.013,0.086-0.023,0.106 c-0.018,0.034-0.085,0.049-0.105,0.031c-0.014-0.013-0.013-0.043-0.012-0.075c 0.001-0.01-0.002-0.022-0.007-0.036 c-0.026-0.073-0.081-0.088-0.151-0.118c-0.097-0.041-0.208,0.002-0.253,0.097c0.00,0.001-0.001,0.002-0.001,0.003 c-0.001,0.003-0.003,0.005-0.004,0.008c-0.042,0.108, 0.028,0.141, 0.065,0.16c 0.059,0.028, 0.148,0.07, 0.124,0.197 c-0.01,0.054-0.069,0.035-0.10,0.058c0.00,0.00, 0.02-0.018-0.085,0.192c-0.037,0.072-0.003,0.088-0.095,0.136 c-0.078,0.038-0.115-0.012-0.124-0.029c-0.034-0.058, 0.013-0.109, 0.011-0.165c-0.001-0.025-0.002-0.047, 0.071-0.077 c 0.103-0.044-0.006-0.213-0.068-0.309c-0.001-0.001-0.001-0.002-0.002-0.003c-0.127-0.22-0.043-0.042-0.19-0.178 c-0.09-0.085-0.327-0.226-0.373-0.284c-0.311-0.385-0.82-0.568-1.087-0.997c-0.054-0.087-0.133-0.156-0.226-0.199 c-0.061-0.028-0.133-0.048-0.214-0.044c-0.077,0.004-0.444,0.213-0.739,0.381c-0.278,0.159-0.478-0.216-0.749-0.109 c-0.292,0.116-0.119,0.498-0.367,0.64c-0.282,0.161-0.619,0.214-0.867,0.442c-0.01,0.009-0.018,0.023-0.024,0.038 c-0.076,0.175-0.209,0.251-0.218,0.295c-0.008,0.036-0.011,0.052, 0.005,0.102c 0.033,0.1050.00,0.221-0.084,0.292 c0.00,0.000.00,0.00-0.001,0.00c-0.054,0.048-0.009,0.199-0.059,0.226c-0.092,0.048-0.192-0.004-0.285,0.022 c-0.141,0.04-0.148,0.222-0.286,0.265c-0.18,0.054-0.355-0.059-0.535-0.02c-0.406,0.088-0.406,0.088-0.421,0.125 c-0.014,0.033-0.047,0.089-0.104,0.088c-0.211-0.004-0.133-0.268-0.233-0.382c-0.108-0.124-0.138-0.11-0.186-0.09 c-0.066,0.029-0.176,0.076-0.21,0.057c-0.045-0.028-0.081-0.07-0.134-0.085c-0.036-0.01-0.066-0.035-0.083-0.069 c-0.03-0.059, 0.045-0.30, 0.062-0.369c 0.01-0.042, 0.008-0.086-0.008-0.126c-0.018-0.047-0.063-0.079-0.113-0.08 c-0.01,0.00-0.019-0.004-0.025-0.012c-0.059-0.065, 0.183-0.31, 0.25-0.435c 0.01-0.019, 0.021-0.047, 0.029-0.068 c 0.207-0.529, 0.207-0.709, 0.164-0.886c-0.019-0.078, 0.038-0.154, 0.118-0.159c 0.044-0.002, 0.091-0.004, 0.129-0.006c0.00,0.00, 0.00,0.00,0.00,0.00 c 0.086-0.10, 0.229-0.128, 0.346-0.069c 0.16,0.081, 0.478,0.197, 1.023,0.222c 0.132,0.006, 0.264,0.034, 0.387,0.081 c 0.115,0.044, 0.213-0.057, 0.256-0.112c 0.102-0.13, 0.086-0.291, 0.106-0.442c 0.011-0.08, 0.056-0.151, 0.123-0.196c0.00,0.00,0.00,0.00, 0.00,0.00 c 0.018-0.012, 0.027-0.034, 0.023-0.055c-0.005-0.029-0.029-0.257-0.057-0.259c-0.001,0.00-0.003,0.00-0.004,0.00 c-0.225-0.024-0.154-0.314-0.301-0.408c-0.125-0.08-0.12-0.134-0.431-0.168c-0.045-0.005, 0.061-0.221, 0.242-0.279 c 0.01-0.003, 0.022-0.003, 0.032,0.003c 0.111,0.056, 0.235,0.082, 0.36,0.076c 0.047-0.002, 0.091-0.026, 0.118-0.064 c 0.028-0.038, 0.036-0.087, 0.024-0.132c0.00-0.0010.00-0.002-0.001-0.002c-0.013-0.047, 0.028-0.12, 0.081-0.085 c 0.103,0.068, 0.155,0.112, 0.336,0.086c 0.044-0.006, 0.081-0.04, 0.091-0.083c 0.005-0.021, 0.018-0.039, 0.037-0.049 c 0.203-0.115, 0.288-0.166, 0.329-0.212c 0.096-0.111, 0.209-0.203, 0.338-0.275c 0.183-0.102, 0.273-0.169, 0.448-0.327 c 0.075-0.068, 0.165-0.116, 0.264-0.139c 0.03-0.007, 0.05-0.036, 0.045-0.067c-0.001-0.006, 0.001-0.012, 0.004-0.017 c 0.033-0.043, 0.083-0.071, 0.138-0.076c 0.128-0.012, 0.204-0.012, 0.257-0.012c 0.001-0.001, 0.001-0.001, 0.001-0.002 c 0.037-0.042, 0.091-0.066, 0.147-0.065c 0.134,0.004, 0.309,0.065, 0.281-0.301c-0.042-0.33, 0.068-0.662, 0.298-0.902 c 0.00,0.00, 0.001-0.001, 0.001-0.001c 0.104,0.044, 0.081,0.15, 0.098,0.262c 0.011,0.067-0.01,0.135-0.055,0.185 c-0.001,0.001-0.001,0.002-0.002,0.002c-0.439,0.487, 0.124,0.471, 0.139,0.596c 0.00,0.001, 0.00,0.001, 0.00,0.002 c 0.002,0.021, 0.014,0.04, 0.032,0.051c 0.018,0.011, 0.04,0.013, 0.06,0.006c 0.019-0.007, 0.453-0.188, 0.47-0.177 c 0.082,0.051, 0.02,0.078, 0.086,0.138c 0.001,0.001, 0.001,0.001, 0.002,0.002c 0.098,0.09, 0.243,0.109, 0.361,0.046 c 0.249-0.133, 0.536-0.176, 0.814-0.125c 0.137,0.025, 0.474-0.302, 0.412-0.485c0.00,0.00,0.00,0.000.00,0.00 c-0.038-0.111-0.044-0.231-0.019-0.346c 0.016-0.072-0.013-0.111, 0.069-0.166c 0.041-0.027, 0.094-0.032, 0.139-0.011 c 0.058,0.026, 0.126,0.028, 0.186,0.002c 0.08-0.034, 0.134-0.11, 0.141-0.197c0.00-0.001, 0.00-0.001, 0.00-0.002 c 0.002-0.017-0.007-0.034-0.022-0.043c-0.075-0.047-0.117-0.134-0.105-0.223c 0.013-0.099, 0.088-0.178, 0.186-0.196 c 0.287-0.053, 0.339,0.109, 0.612-0.134c 0.017-0.015, 0.024-0.037, 0.018-0.059c-0.006-0.021-0.023-0.038-0.044-0.042 c0.00,0.000.00,0.000.00,0.00c-0.226-0.049-0.462-0.034-0.68,0.042l-0.263,0.092c-0.001,0.00-0.001,0.00-0.001,0.00 c0.00,0.00-0.001,0.00-0.001,0.001c0.00,0.000.00,0.00-0.001,0.00c-0.044,0.029-0.097,0.042-0.15,0.038 c-0.184-0.015-0.299-0.189-0.371-0.381c-0.083-0.223-0.055-0.474, 0.075-0.673c 0.065-0.099, 0.097-0.226, 0.17-0.318 c 0.03-0.038, 0.041-0.087, 0.03-0.134c-0.03-0.132-0.26-0.191-0.388-0.163c-0.256,0.057-0.084,0.363-0.187,0.523 c-0.059,0.092-0.305,0.158-0.327,0.283c-0.054,0.322-0.082,0.491-0.06,0.603c 0.046,0.24, 0.023,0.485-0.07,0.712 c-0.001,0.002-0.001,0.003-0.002,0.004c-0.073,0.193, 0.077,0.394-0.023,0.585c-0.117,0.223-0.389,0.046-0.452,0.315 c-0.026,0.113-0.247-0.053-0.323-0.129c-0.008-0.221-0.093-0.323-0.155-0.496c-0.05-0.14-0.164-0.248-0.306-0.29 c-0.379-0.113-0.456,0.258-0.791,0.154c-0.27-0.083-0.459-0.326-0.473-0.608s 0.149-0.543, 0.409-0.653c 0.00,0.00, 0.00,0.00, 0.00,0.00 c 0.886-0.372, 1.051-0.685, 1.11-0.895c 0.013-0.047, 0.05-0.085, 0.098-0.098c 0.00,0.00, 0.001,0.00, 0.002,0.00 c 0.00,0.00, 0.00,0.00, 0.00,0.00c 0.009-0.048, 0.034-0.091, 0.07-0.124c 0.091-0.084, 0.153-0.197, 0.234-0.29 c 0.089-0.102, 0.181-0.26, 0.181-0.26s0.00,0.00, 0.00,0.00c0.00,0.00, 0.459-0.449, 0.943-0.603c 0.224-0.07, 0.389-0.068, 0.442-0.057 c 0.056,0.011, 0.139,0.027, 0.269,0.052c0.00,0.00,0.00,0.00,0.00,0.00c-0.007,0.044, 0.004,0.088, 0.031,0.124c 0.061,0.082, 0.263,0.062, 0.505,0.174 c 0.281,0.13, 0.618,0.091, 0.921,0.154c 0.123,0.026, 0.207,0.141, 0.193,0.267c-0.015,0.125-0.122,0.219-0.248,0.215 c-0.087-0.002-0.167,0.051-0.196,0.134c-0.03,0.082-0.004,0.174, 0.065,0.229c 0.108,0.086, 0.232,0.153, 0.362,0.199 c 0.153,0.054, 0.401,0.093, 0.292-0.026c0.00,0.000.00,0.00,0.00,0.00c-0.039-0.043-0.093-0.067-0.15-0.068c-0.21-0.001-0.144-0.193-0.031-0.142 c 0.125,0.057, 0.474,0.094, 0.232-0.139c-0.03-0.029-0.033-0.075-0.007-0.108c 0.04-0.051, 0.073-0.108, 0.097-0.168 c 0.05-0.128, 0.041-0.087, 0.205-0.037c 0.028,0.009, 0.058,0.003, 0.08-0.013c 0.046-0.032, 0.108-0.057, 0.063-0.092 c-0.038-0.029, 0.04-0.097, 0.068-0.087c 0.048,0.016, 0.10,0.001, 0.132-0.038c 0.025-0.031, 0.032-0.071, 0.022-0.108 c-0.028-0.094, 0.049-0.349, 0.184-0.399c 0.033-0.012, 0.068-0.013, 0.102-0.003c 0.00,0.00, 0.00,0.00, 0.00,0.00 c 0.028-0.026, 0.061-0.046, 0.097-0.059c 0.06-0.022, 0.163-0.066, 0.235-0.129c 0.074-0.064, 0.175-0.089, 0.27-0.066 c 0.001,0.00, 0.002,0.00, 0.003-0.001c 0.03-0.033, 0.029-0.083-0.003-0.115c-0.057-0.057-0.249-0.155-0.221-0.23 c 0.009-0.024, 0.129-0.053, 0.145-0.155c 0.011-0.07-0.028-0.139-0.094-0.165c-1.996-0.784-4.144-1.264-6.387-1.387 c-0.413,0.256-0.827,0.541-1.199,0.849c-1.358,1.126-3.504,1.591-3.456,1.466c-0.205,0.003-0.259-0.053-0.259-0.053 c-0.067,0.017-0.126,0.055-0.182,0.016c-0.001,0.00-0.001-0.001-0.001-0.001c 0.002-0.027-0.01-0.052-0.032-0.068 c-0.072-0.048-0.212,0.065-0.552,0.238c-0.001,0.001-0.003,0.001-0.004,0.002c-0.006,0.003-0.013,0.006-0.019,0.01 c-0.143,0.076-0.304,0.094-0.413,0.096c-0.078,0.001-0.155,0.016-0.228,0.045c-0.011,0.004-0.024,0.00-0.03-0.01 c-0.025-0.04, 0.099-0.086, 0.144-0.102c 0.041-0.016, 0.021-0.061-0.149,0.036c-0.037,0.021-0.08,0.027-0.121,0.016 c-0.17-0.044-0.375,0.093-0.51,0.205c-0.021,0.018-0.048,0.028-0.081,0.014c-0.047-0.02-0.089-0.013-0.075,0.06 c 0.016,0.078-0.433,0.277-0.441,0.243c-0.009-0.025-0.034-0.039-0.06-0.033c-0.059,0.013-0.13,0.06-0.169,0.134 c-0.072,0.136-0.267,0.159-0.362,0.238c-0.099,0.082-0.245,0.163-0.245,0.163c-0.054,0.062-0.09,0.097-0.147,0.099 c-0.056,0.002-0.089-0.096-0.064-0.133c 0.015-0.023, 0.123-0.129, 0.097-0.134c-0.011-0.002-0.02-0.009-0.025-0.019 c-0.018-0.035, 0.066-0.072, 0.044-0.115c-0.015-0.029-0.177-0.038-0.19-0.053c-0.009-0.011-0.012-0.026-0.005-0.039 c 0.101-0.205, 0.114-0.218, 0.251-0.354c-0.001-0.001-0.001-0.001-0.002-0.002c-0.014-0.021-0.014-0.049, 0.00-0.07 c 0.077-0.112, 0.331-0.446, 0.627-0.487c 0.079-0.011, 0.028-0.028, 0.028-0.028c-0.074-0.029-0.169-0.05-0.115-0.109 c 0.105-0.115, 0.267-0.267, 0.447-0.357c 0.086-0.043, 0.167-0.095, 0.242-0.157c 0.074-0.061, 0.321-0.169, 0.589-0.18 c 0.00,0.00, 0.001,0.00, 0.001,0.00c 0.224-0.014, 0.815-0.417, 0.82-0.422c0.00,0.000.00,0.00-0.001-0.001 c-0.018-0.017, 0.009-0.077, 0.004-0.108c-0.002-0.013, 0.004-0.026, 0.015-0.032c 0.058-0.031, 0.125-0.042, 0.185-0.068 c 0.008-0.004, 0.014-0.011, 0.015-0.019c 0.003-0.023-0.023-0.037-0.044-0.029c-0.122,0.046-0.174,0.064-0.202,0.073 c-0.016,0.005-0.032-0.002-0.04-0.016c-0.008-0.014-0.004-0.032, 0.008-0.042c 0.14-0.121, 0.33-0.123, 0.496-0.181 c 0.072-0.025, 0.073-0.179-0.079-0.154c-0.746,0.123-1.424,0.345-2.132,0.579c 0.00,0.001, 0.00,0.001, 0.001,0.002 c 0.005,0.021-0.143,0.092-0.161,0.11c-0.009,0.009-0.013,0.023-0.009,0.035c 0.00,0.001, 0.00,0.002, 0.001,0.003 c 0.009,0.001, 0.012,0.012, 0.005,0.017c-0.028,0.021-0.081-0.001-0.097,0.03c-0.019,0.036, 0.049,0.022, 0.061,0.047 c 0.01,0.019, 0.006,0.042-0.008,0.057c0.00,0.000.00,0.000.00,0.00c-0.022,0.022-0.133,0.071-0.149,0.051 c-0.015-0.019-0.018-0.036-0.04-0.022c-0.079,0.051-0.129,0.082-0.174,0.089c-0.16,0.028-0.362,0.113-0.362,0.113 c 0.024-0.021, 0.10-0.092, 0.112-0.119c 0.043-0.088, 0.091-0.116, 0.144-0.13c 0.038-0.01, 0.044-0.064-0.127,0.001 c-0.154,0.058-0.297,0.148-0.416,0.261c-0.101,0.095-0.22,0.198-0.305,0.242c 0.016-0.028, 0.004-0.035-0.007-0.029 c-0.01,0.005-0.091,0.079-0.123,0.07c-0.102-0.028, 0.031-0.086, 0.031-0.187c 0.011-0.017, 0.024-0.03, 0.039-0.043 c0.00,0.00-0.001,0.00-0.001,0.00c-0.116,0.05-0.221,0.124-0.307,0.217c-0.069,0.075-0.125,0.165-0.20,0.092 c-0.035-0.035-0.089-0.044-0.134-0.023c-0.284,0.133-0.565,0.273-0.842,0.418c-0.029,0.015-0.057,0.034-0.082,0.055 c-0.019,0.016-0.032,0.039-0.035,0.064c-0.004,0.03-0.055,0.095-0.073,0.126c-0.008,0.014-0.008,0.032, 0.001,0.046 c 0.025,0.039, 0.11,0.011, 0.155-0.004c 0.064-0.021, 0.133,0.005, 0.167,0.062c 0.034,0.056, 0.025,0.127-0.021,0.174 c-0.038,0.039-0.074,0.081-0.107,0.124c-0.068,0.091-0.132,0.186-0.23,0.247c-0.06,0.038-0.117,0.081-0.169,0.128 c-0.534,0.479-0.551,1.35-0.944,1.525c-0.001,0.00-0.002,0.001-0.003,0.001c-0.301,0.134-0.406,0.018-0.767,0.153 c-0.07,0.026-0.136,0.007-0.202-0.01c-0.056-0.015-0.102-0.056-0.123-0.11c0.00,0.00,0.00,0.00,0.00,0.00c-0.079-0.201-0.306-0.30-0.507-0.221 c-0.034,0.013-0.069,0.019-0.109,0.009c-0.001,0.00-0.001-0.001-0.002-0.001c0.00,0.00-0.001-0.001-0.001-0.001 c-0.066,0.019-0.489,0.154-0.459,0.213c 0.00,0.00, 0.745-0.227, 0.577,0.175c0.00,0.00-0.001,0.00-0.001,0.00 c-0.028,0.008-0.051,0.028-0.063,0.054c-0.018,0.038-0.04,0.06-0.102,0.074c-0.071,0.016-0.146-0.004-0.20-0.053 c-0.001-0.001-0.001-0.001-0.002-0.001c-0.038,0.006-0.054,0.10-0.039,0.126c 0.02,0.033, 0.118,0.033, 0.016,0.096 c-0.06,0.037-0.141,0.056-0.168,0.122c-0.032,0.077-0.071,0.151-0.117,0.22c-0.048,0.073, 0.057,0.096-0.025,0.162 c-0.098,0.08-0.436,0.003-0.554,0.025c0.00,0.00-0.203,0.02-0.326,0.063s-0.343,0.098-0.465,0.245 c-0.209,0.253-0.191,0.306-0.436,0.238c-0.014-0.004-0.029,0.00-0.039,0.011c-2.493,2.646-4.294,5.951-5.114,9.626 c-0.001,0.003-0.001,0.006-0.002,0.009c-0.054,0.234-0.116,0.521-0.206,1.058c-0.002,0.013-0.002,0.025, 0.001,0.038 c 0.012,0.06, 0.024,0.076, 0.101,0.076c 0.181,0.00, 0.336,0.128, 0.37,0.306c 0.009,0.051, 0.039,0.087, 0.081,0.104 c 0.04,0.017, 0.086,0.013, 0.129-0.017c 0.028-0.019, 0.182,0.115, 0.192,0.28c 0.005,0.089, 0.04,0.191, 0.057,0.278 c 0.021,0.106-0.007,0.215-0.076,0.299c-0.011,0.013-0.014,0.03-0.01,0.046c 0.087,0.339, 0.479,1.782, 0.56,1.856 c 0.047-0.009, 0.085,0.007, 0.111,0.036c 0.793,0.894, 1.688,2.353, 1.663,2.811c-0.179,0.335-0.16,0.318-0.011,0.499 c 0.276,0.339, 0.271,0.355, 0.167,0.704l 0.00,0.00c 0.061-0.099, 0.169-0.159, 0.286-0.159c 0.117,0.00, 0.225,0.06, 0.286,0.16 c 0.045,0.074, 0.091,0.147, 0.153,0.202c 0.163,0.146, 0.248,0.362, 0.228,0.58c0.00,0.001, 0.251,0.003, 0.60,0.264 c 0.441,0.332, 1.998,2.115, 2.059,2.603c 0.027,0.218-0.062,0.431-0.173,0.62c-0.129,0.217-0.544,0.669-0.615,0.913 c-0.035,0.121-0.229,0.176-0.227,0.248c 0.002,0.099, 0.032,0.305, 0.174,0.711c 0.042,0.12, 0.14,1.011, 0.092,1.37 c-0.029,0.21-0.028,0.248, 0.024,0.479c 0.017,0.072-0.164,0.279-0.289,0.19c-0.157-0.112-0.287-0.095-0.303-0.063 c0.00,0.000.00,0.000.00,0.001c-0.216,0.354-0.994,0.417-0.821,0.795c 0.051,0.112, 0.103,0.223, 0.147,0.336 c 0.052,0.134, 0.081,0.277, 0.086,0.42c 0.002,0.062, 0.216,0.516, 0.388,0.695c 3.753,3.924, 9.039,6.369, 14.897,6.369 C 299.383,308.611, 308.611,299.383, 308.611,288.00z M 284.953,274.865c 0.086-0.037, 0.165-0.088, 0.256-0.113 c 0.001,0.00, 0.002-0.001, 0.003-0.001c 0.125-0.034, 0.234,0.00, 0.272-0.048c 0.037-0.047, 0.10-0.132, 0.129-0.20 c 0.014-0.034-0.022-0.082, 0.023-0.106c 0.05-0.028, 0.006-0.081, 0.019-0.119c 0.035-0.103, 0.058-0.106, 0.099-0.112 c 0.04-0.006, 0.077-0.011, 0.09-0.032c 0.065-0.096-0.164-0.37-0.307-0.334c-0.149,0.038-0.268,0.255-0.318,0.252 c-0.063-0.003-0.092-0.005-0.134,0.028c-0.033,0.025-0.037,0.067-0.061,0.097c-0.028,0.037-0.066,0.065-0.095,0.101 c-0.024,0.03-0.033,0.056, 0.001,0.087c 0.025,0.022, 0.039,0.034-0.035,0.13c-0.061,0.079-0.162,0.12-0.204,0.217 c-0.015,0.035-0.013,0.105-0.008,0.133C 284.703,274.946, 284.859,274.905, 284.953,274.865zM 436.437,290.477l0.00,20.777 L 421.591,311.254 l0.00-11.291 l-11.181,0.00 l0.00,11.291 L 395.563,311.254 L 395.563,290.477 L 390.25,290.477 L 416.00,264.746l 25.75,25.73L 436.437,290.477 z M 433.259,267.059l-5.99,0.00 l0.00,4.789 l 5.99,6.003L 433.259,267.059 zM 569.75,291.468l0.00-6.936 l-3.748-1.333c-1.429-0.508-2.579-1.599-3.159-3.00 c0.00-0.001-0.001-0.001-0.001-0.002c-0.582-1.404-0.542-2.99, 0.111-4.363l 1.707-3.591l-4.904-4.904l-3.59,1.706 c-1.372,0.652-2.96,0.693-4.364,0.111c-0.001,0.00-0.001,0.00-0.002-0.001c-1.402-0.581-2.492-1.729-3.00-3.159L 547.468,262.25 l-6.936,0.00 l-1.333,3.748c-0.508,1.429-1.599,2.578-3.00,3.159c-0.001,0.00-0.001,0.001-0.002,0.001 c-1.404,0.583-2.99,0.542-4.363-0.111l-3.59-1.707l-4.904,4.904l 1.707,3.59c 0.652,1.372, 0.693,2.96, 0.111,4.364 c0.00,0.001-0.001,0.001-0.001,0.002c-0.581,1.402-1.729,2.491-3.159,3.00L 518.25,284.532l0.00,6.936 l 3.748,1.333 c 1.429,0.508, 2.578,1.599, 3.159,3.00c 0.00,0.001, 0.00,0.001, 0.001,0.002c 0.583,1.405, 0.542,2.99-0.111,4.363l-1.707,3.59 l 4.904,4.904l 3.59-1.706c 1.372-0.652, 2.96-0.693, 4.364-0.111c 0.001,0.00, 0.001,0.001, 0.002,0.001 c 1.402,0.581, 2.491,1.729, 3.00,3.159L 540.532,313.75l 6.936,0.00 l 1.324-3.724c 0.513-1.442, 1.613-2.603, 3.027-3.191 c 0.001,0.00, 0.001-0.001, 0.002-0.001c 1.391-0.579, 2.962-0.539, 4.322,0.108l 3.613,1.717l 4.904-4.904l-1.708-3.592 c-0.652-1.371-0.692-2.957-0.111-4.36c 0.00-0.001, 0.001-0.001, 0.001-0.002c 0.582-1.403, 1.731-2.494, 3.162-3.003 L 569.75,291.468z M 544.00,297.443c-5.215,0.00-9.444-4.228-9.444-9.443s 4.228-9.443, 9.444-9.443 c 5.215,0.00, 9.443,4.228, 9.443,9.443S 549.215,297.443, 544.00,297.443zM 646.25,265.188l0.00,45.625 l 51.50,0.00 l0.00-45.625 L 646.25,265.188 z M 691.50,304.563L 652.50,304.563 l0.00-27.25 l 39.00,0.00 L 691.50,304.563 z M 670.182,291.049l-9.50,9.55 l-3.433-3.417l 6.10-6.133l-6.109-6.142l 3.433-3.416L 670.182,291.049z M 687.00,295.691L 672.813,295.691 l0.00,4.75 L 687.00,300.441 L 687.00,295.691 zM 791.711,290.45l 4.726,0.00 l-11.094,11.113L 774.25,290.45l 4.726,0.00 c0.00,0.00-0.006-22.612, 26.625-24.165 C 788.753,273.505, 791.711,290.45, 791.711,290.45z M 794.398,309.715c 26.631-1.553, 26.625-24.165, 26.625-24.165L 825.75,285.55 l-11.094-11.113 l-11.094,11.113l 4.726,0.00 C 808.289,285.55, 811.247,302.495, 794.398,309.715zM 919.471,308.157L 925.054,313.75L 902.25,313.75 L 902.25,290.947 l 5.593,5.583l 12.20-12.20l 11.627,11.627L 919.471,308.157z M 930.947,262.25l 5.583,5.593l-12.068,12.068l 11.627,11.627l 12.068-12.068L 953.75,285.053L 953.75,262.25 L 930.947,262.25 zM 1050.058,301.498c-10.82,0.00-19.624-8.803-19.624-19.624C 1030.434,271.053, 1039.237,262.25, 1050.058,262.25 c 10.821,0.00, 19.624,8.803, 19.624,19.624C 1069.682,292.694, 1060.879,301.498, 1050.058,301.498z M 1050.058,268.95 c-7.126,0.00-12.924,5.798-12.924,12.924s 5.797,12.924, 12.924,12.924c 7.126,0.00, 12.924-5.798, 12.924-12.924 S 1057.184,268.95, 1050.058,268.95z M 1069.935,295.653c-1.754,2.522-3.975,4.696-6.536,6.396L 1075.10,313.75l 6.466-6.466 L 1069.935,295.653zM 1204.921,273.485L 1209.75,268.671l0.00,19.519 L 1190.217,288.189 l 5.272-5.272 c-12.86-16.265-46.65,0.209-24.24,28.753C 1137.743,285.818, 1176.30,246.306, 1204.921,273.485zM 1324.752,311.671C 1347.162,283.126, 1313.371,266.653, 1300.511,282.918l 5.272,5.272L 1286.25,288.19 L 1286.25,268.67 l 4.829,4.815 C 1319.70,246.306, 1358.257,285.818, 1324.752,311.671zM 1440.00,262.25C 1425.779,262.25, 1414.25,273.779, 1414.25,288.00s 11.529,25.75, 25.75,25.75s 25.75-11.529, 25.75-25.75S 1454.221,262.25, 1440.00,262.25z M 1449.766,303.318l-9.64-9.64l-9.64,9.641l-5.178-5.181l 9.638-9.64l-9.639-9.639l 5.181-5.178l 9.638,9.636 l 9.636-9.638l 5.182,5.179l-9.638,9.639l 9.639,9.638L 1449.766,303.318zM 1568.00,262.25C 1553.779,262.25, 1542.25,273.779, 1542.25,288.00s 11.529,25.75, 25.75,25.75s 25.75-11.529, 25.75-25.75S 1582.221,262.25, 1568.00,262.25z M 1563.619,301.87l-12.166-12.169l 5.18-5.181l 6.986,6.987l 16.127-16.127l 5.182,5.179L 1563.619,301.87zM 32.00,390.25C 17.779,390.25, 6.25,401.779, 6.25,416.00s 11.529,25.75, 25.75,25.75s 25.75-11.529, 25.75-25.75S 46.221,390.25, 32.00,390.25z M 47.825,420.679l-11.146,0.00 L 36.679,431.825 l-8.608,0.00 l0.00-11.146 l-11.146,0.00 l0.00-8.608 l 11.146,0.00 L 28.071,400.925 l 8.608,0.00 l0.00,11.146 l 11.146,0.00 L 47.825,420.679 zM 164.82,428.134l 0.00,0.00L 185.75,413.665L 164.82,399.197l0.00,6.164 c0.00,0.00-25.458,5.181-30.57,27.442 c 10.883-11.653, 30.57-10.834, 30.57-10.834L 164.82,428.134 L 164.82,428.134zM 276.22,434.781c0.00,3.849-3.12,6.969-6.969,6.969c-3.849,0.00-6.969-3.12-6.969-6.969 s 3.12-6.969, 6.969-6.969C 273.099,427.812, 276.22,430.932, 276.22,434.781z M 262.282,407.803l0.00,10.324 C 275.249,418.26, 285.771,428.783, 285.905,441.75l 10.324,0.00 C 296.096,423.06, 280.972,407.936, 262.282,407.803z M 262.282,400.575 c 10.962,0.048, 21.261,4.337, 29.017,12.093c 7.772,7.772, 12.063,18.096, 12.094,29.081l 10.325,0.00 C 313.654,413.357, 290.667,390.349, 262.282,390.25L 262.282,400.575 zM 435.776,408.262l-6.505,0.00 l0.00-5.891 l 1.425-4.865L 430.697,391.91 l-9.111,0.00 c0.00,0.00-2.337,5.136-3.159,7.122 c-2.709,6.535-5.507,13.288-11.288,14.412l0.00-2.896 L 390.25,410.547 l0.00,28.521 l 16.888,0.00 l0.00-2.465 l 5.729,0.00 l 6.367,3.487l 15.492,0.00 L 441.75,433.812 L 441.75,412.152 L 435.776,408.262z M 420.234,436.458l-6.187-3.487l-6.894,0.007L 407.153,417.124 c 0.057-0.008, 0.121-0.017, 0.189-0.027 c 8.027-1.202, 11.434-9.422, 14.44-16.675c 0.564-1.361, 1.762-4.085, 2.112-4.88l 3.171,0.00 l0.00,1.857 l-1.425,4.865l0.00,9.631 l 9.172,0.00 l 3.306,2.11l0.00,18.449 l-4.571,4.005L 420.234,436.458 zM 562.931,429.059c-7.38-1.702-14.249-3.193-10.922-9.465 c 10.126-19.091, 2.684-29.301-8.009-29.301c-10.904,0.00-18.163,10.601-8.009,29.301c 3.426,6.31-3.701,7.799-10.922,9.465 c-7.377,1.701-6.809,5.59-6.809,12.647l 51.48,0.00 C 569.74,434.65, 570.307,430.76, 562.931,429.059zM 697.746,428.92l-9.992,0.00 c-0.001-10.875-5.436-5.706-5.436-15.236c0.00-3.44, 2.252-5.307, 5.144-5.307 c 4.273,0.00, 7.246,4.079, 3.20,11.707c-1.329,2.506, 1.415,3.102, 4.364,3.782C 697.973,424.546, 697.746,426.10, 697.746,428.92z M 648.975,423.867c 2.949-0.68, 5.693-1.276, 4.364-3.782c-4.046-7.628-1.073-11.707, 3.20-11.707 c 2.892,0.00, 5.144,1.867, 5.144,5.307c0.00,9.53-5.436,4.361-5.436,15.236L 646.254,428.92 C 646.254,426.10, 646.027,424.546, 648.975,423.867z M 681.514,422.564c-3.709-0.856-7.161-1.605-5.489-4.757c 5.089-9.595, 1.349-14.726-4.025-14.726 c-5.48,0.00-9.128,5.328-4.025,14.726c 1.722,3.171-1.86,3.92-5.489,4.757c-3.707,0.855-3.422,2.81-3.422,6.356 l 25.873,0.00 C 684.937,425.373, 685.222,423.419, 681.514,422.564zM 816.984,438.242L 809.66,423.826c-0.016,0.008-4.107,2.059-4.296,2.144 c-4.659,2.305-14.145-16.591-9.589-19.081l 4.333-2.176L 792.842,390.25c-0.005,0.002-4.311,2.168-4.384,2.205 c-2.993,1.59-11.117,5.351, 1.029,29.539c 12.25,24.395, 19.849,19.958, 23.106,18.44 C 812.845,440.318, 816.968,438.25, 816.984,438.242zM 917.318,413.881L 902.25,402.307l0.00,26.643 L 917.318,413.881z M 953.616,396.926L 902.427,396.926 l 25.574,19.645 L 953.616,396.926z M 935.169,416.587l-7.17,5.499l-7.182-5.517L 902.313,435.074l 51.344,0.00 L 935.169,416.587z M 938.671,413.901 L 953.75,428.981L 953.75,402.337 L 938.671,413.901zM 1066.456,418.685c0.00,3.674-2.989,6.662-6.662,6.662c-3.674,0.00-6.662-2.989-6.662-6.662 c0.00-3.674, 2.989-6.662, 6.662-6.662C 1063.468,412.023, 1066.456,415.011, 1066.456,418.685z M 1081.75,402.516l0.00,33.375 L 1030.25,435.891 l0.00-33.375 l 14.152,0.00 c 1.407,0.00, 2.695-0.787, 3.337-2.039l 2.24-4.367l 19.208,0.00 l 2.477,4.473c 0.661,1.193, 1.917,1.933, 3.28,1.933L 1081.75,402.516 z M 1043.354,409.797c0.00-1.415-1.147-2.563-2.563-2.563s-2.563,1.147-2.563,2.563s 1.147,2.563, 2.563,2.563S 1043.354,411.212, 1043.354,409.797z M 1072.188,418.685c0.00-6.834-5.56-12.107-12.393-12.107c-6.834,0.00-12.393,5.273-12.393,12.107c0.00,6.834, 5.56,12.393, 12.393,12.393 C 1066.628,431.078, 1072.188,425.519, 1072.188,418.685z M 1041.791,397.078l-8.188,0.00 l0.00,3.375 l 8.188,0.00 L 1041.791,397.078 zM 1201.777,395.623L 1176.966,420.434L 1166.219,409.684L 1158.25,417.655L 1176.967,436.377L 1209.75,403.591 zM 1334.799,430.824L 1319.97,415.997L 1334.797,401.169L 1326.824,393.201L 1311.999,408.028L 1297.172,393.203L 1289.201,401.169L 1304.031,415.998L 1289.203,430.828L 1297.169,438.799L 1312.00,423.967L 1326.831,438.797 zM 1438.424,404.854l 26.968-5.346l-0.018-0.091L 1463.57,390.313l-45.425,9.004 C 1415.884,399.765, 1414.25,401.748, 1414.25,404.053c0.00,2.039,0.00,30.301,0.00,30.301c0.00,4.044, 3.29,7.334, 7.333,7.334l 36.833,0.00 c 4.044,0.00, 7.333-3.29, 7.333-7.334L 1465.75,404.947 l0.00-0.093 L 1438.424,404.854 z M 1460.75,434.354c0.00,1.287-1.047,2.334-2.333,2.334L 1421.584,436.688 C 1420.297,436.688, 1419.25,435.641, 1419.25,434.354L 1419.25,416.721 l 41.50,0.00 L 1460.75,434.354 z M 1450.441,407.354l-4.366,4.366l-6.553,0.00 l 4.366-4.366L 1450.441,407.354 z M 1457.403,394.084l 5.142,3.441l-6.425,1.277l-5.146-3.444L 1457.403,394.084z M 1444.748,396.592l 5.15,3.446l-6.424,1.277 l-5.154-3.449L 1444.748,396.592z M 1432.078,399.103l 5.157,3.451l-6.424,1.277L 1425.65,400.378L 1432.078,399.103z M 1430.971,407.354 l 6.553,0.00 l-4.366,4.366l-6.553,0.00 L 1430.971,407.354z M 1452.423,411.721l 4.366-4.366l 6.553,0.00 l-4.366,4.366L 1452.423,411.721 z M 1437.115,433.164 L 1437.115,419.569 l 11.087,6.798L 1437.115,433.164zM 1568.00,390.25C 1553.779,390.25, 1542.25,401.779, 1542.25,416.00c0.00,14.221, 11.529,25.75, 25.75,25.75 c 14.221,0.00, 25.75-11.529, 25.75-25.75C 1593.75,401.779, 1582.221,390.25, 1568.00,390.25z M 1567.499,431.116 c-3.712,1.304-6.772-0.191-6.158-3.756c 0.614-3.565, 4.136-11.199, 4.639-12.642c 0.502-1.443-0.461-1.839-1.493-1.252 c-0.595,0.344-1.48,1.032-2.24,1.701c-0.211-0.424-0.507-0.909-0.729-1.373c 1.239-1.242, 3.311-2.907, 5.763-3.51 c 2.93-0.723, 7.828,0.433, 5.723,6.034c-1.503,3.992-2.566,6.747-3.236,8.799c-0.669,2.052, 0.126,2.483, 1.298,1.683 c 0.916-0.625, 1.891-1.476, 2.606-2.135c 0.331,0.538, 0.437,0.709, 0.764,1.327C 1573.195,427.263, 1569.948,430.24, 1567.499,431.116z M 1575.19,406.422c-1.684,1.433-4.179,1.402-5.575-0.07c-1.396-1.471-1.163-3.826, 0.52-5.259 c 1.683-1.433, 4.179-1.402, 5.575,0.069C 1577.105,402.633, 1576.873,404.988, 1575.19,406.422zM 32.00,518.25C 17.779,518.25, 6.25,529.779, 6.25,544.00s 11.529,25.75, 25.75,25.75s 25.75-11.529, 25.75-25.75S 46.221,518.25, 32.00,518.25z M 32.281,561.112c-2.02,0.00-3.659-1.638-3.659-3.659c0.00-2.02, 1.638-3.658, 3.659-3.658c 2.021,0.00, 3.659,1.638, 3.659,3.658 C 35.94,559.474, 34.302,561.112, 32.281,561.112z M 35.158,550.298l0.00,0.658 c0.00,0.00-5.485,0.00-6.031,0.00l0.00-0.658 c0.00-1.862, 0.272-4.252, 2.434-6.329c 2.162-2.077, 4.864-3.793, 4.864-6.388c0.00-2.869-1.991-4.386-4.501-4.386 c-4.183,0.00-4.456,4.338-4.559,5.293l-5.866,0.00 c 0.156-4.524, 2.068-10.851, 10.46-10.851c 7.273,0.00, 10.543,4.871, 10.543,9.438 C 42.502,544.346, 35.158,545.609, 35.158,550.298zM 164.839,544.00L 147.156,561.767L 134.25,561.767 L 151.933,544.00L 134.25,526.233l 12.906,0.00 L 164.839,544.00z M 168.067,526.233L 155.161,526.233 L 172.843,544.00L 155.161,561.767l 12.906,0.00 L 185.75,544.00L 168.067,526.233zM 296.50,542.375c0.00,4.694-3.805,8.50-8.50,8.50c-4.694,0.00-8.50-3.805-8.50-8.50L 279.50,526.75 c0.00-4.694, 3.806-8.50, 8.50-8.50 c 4.694,0.00, 8.50,3.806, 8.50,8.50L 296.50,542.375 z M 300.25,538.00l0.00,4.375 c0.00,6.755-5.495,12.25-12.25,12.25c-6.755,0.00-12.25-5.495-12.25-12.25l0.00-4.375 l-5.00,0.00 l0.00,4.375 c0.00,9.512, 7.738,17.25, 17.25,17.25c 9.512,0.00, 17.25-7.738, 17.25-17.25l0.00-4.375 L 300.25,538.00 z M 288.00,562.125l-11.125,7.625l 21.50,0.00 L 288.00,562.125zM 430.046,521.424L 402.003,521.424 L 390.25,540.537l0.00,26.039 l 51.50,0.00 L 441.75,540.537 L 430.046,521.424z M 422.349,549.592L 409.651,549.592 c-1.165,0.00-2.109-0.944-2.109-2.109c0.00-1.165, 0.944-2.109, 2.109-2.109l 12.697,0.00 c 1.165,0.00, 2.109,0.944, 2.109,2.109 C 424.458,548.648, 423.513,549.592, 422.349,549.592z M 396.12,540.537l 8.608-14.101l 22.58,0.00 l 8.578,14.101L 396.12,540.537 z M 429.948,534.191 L 402.197,534.191 l 1.602-2.625l 24.553,0.00 L 429.948,534.191z M 427.465,530.108L 404.689,530.108 l 1.373-2.25l 20.033,0.00 L 427.465,530.108z M 432.61,538.566L 399.526,538.566 l 1.679-2.75l 29.732,0.00 L 432.61,538.566zM 518.25,521.188l0.00,45.625 l 51.50,0.00 l0.00-45.625 L 518.25,521.188 z M 563.50,545.042L 545.875,545.042 L 545.875,533.313 l 17.625,0.00 L 563.50,545.042 z M 524.50,533.313l 17.625,0.00 l0.00,27.25 L 524.50,560.563 L 524.50,533.313 z M 545.875,560.563l0.00-11.771 l 17.625,0.00 L 563.50,560.563 L 545.875,560.563 zM 673.49,548.115c 0.796,0.796, 0.796,2.087,0.00,2.884c-0.796,0.797-2.088,0.796-2.884,0.00 c-0.796-0.796-0.796-2.088,0.00-2.884C 671.402,547.318, 672.693,547.318, 673.49,548.115z M 676.752,549.006l 4.708-8.861l-8.861,4.707 c-1.42-0.163-2.846,0.301-3.90,1.355c-1.045,1.045-1.498,2.461-1.361,3.828l-4.797,9.03l 9.025-4.795 c 1.391,0.14, 2.792-0.323, 3.832-1.363C 676.397,551.906, 676.925,550.502, 676.752,549.006z M 677.442,530.228 c 1.356-1.269, 2.195-3.008, 2.195-4.925c0.00-3.876-3.426-7.029-7.636-7.029s-7.636,3.153-7.636,7.029 c0.00,1.917, 0.839,3.656, 2.195,4.925c-8.469,2.373-14.68,10.149-14.68,19.377c0.00,11.113, 9.009,20.122, 20.122,20.122 c 11.113,0.00, 20.122-9.009, 20.122-20.122C 692.122,540.377, 685.911,532.601, 677.442,530.228z M 672.00,522.024 c 2.143,0.00, 3.886,1.471, 3.886,3.279s-1.743,3.279-3.886,3.279s-3.886-1.471-3.886-3.279S 669.857,522.024, 672.00,522.024z M 682.914,560.518c-2.915,2.915-6.791,4.521-10.914,4.521s-7.998-1.605-10.914-4.521 c-2.915-2.915-4.521-6.791-4.521-10.914s 1.605-7.998, 4.521-10.914c 2.915-2.915, 6.791-4.521, 10.914-4.521 s 7.998,1.605, 10.914,4.521s 4.521,6.791, 4.521,10.914S 685.829,557.603, 682.914,560.518zM 817.186,526.679l-9.574,25.878l-3.134-13.106l-13.133-3.284L 817.186,526.679 M 825.636,518.25 L 774.364,537.075l 25.956,6.491L 806.582,569.75L 825.636,518.25zM 928.00,523.25c 6.238,0.00, 11.313,5.075, 11.313,11.313c0.00,7.197-7.505,18.948-11.313,25.358 c-6.444-10.85-11.313-19.141-11.313-25.358C 916.688,528.325, 921.762,523.25, 928.00,523.25 M 928.00,518.25c-9.009,0.00-16.313,7.303-16.313,16.313 c0.00,9.009, 7.139,19.479, 16.313,35.188c 9.173-15.708, 16.313-26.178, 16.313-35.188C 944.313,525.553, 937.009,518.25, 928.00,518.25L 928.00,518.25z M 928.00,528.742c-3.134,0.00-5.675,2.541-5.675,5.675s 2.541,5.675, 5.675,5.675s 5.675-2.541, 5.675-5.675 S 931.134,528.742, 928.00,528.742L 928.00,528.742zM 1056.00,518.25c-9.009,0.00-16.313,7.303-16.313,16.313c0.00,13.396, 12.83,14.813, 16.313,35.188 c 3.483-20.375, 16.313-21.792, 16.313-35.188C 1072.313,525.553, 1065.009,518.25, 1056.00,518.25z M 1056.00,540.017c-3.231,0.00-5.85-2.619-5.85-5.85 s 2.619-5.85, 5.85-5.85s 5.85,2.619, 5.85,5.85S 1059.231,540.017, 1056.00,540.017zM 1184.00,518.25c-9.009,0.00-16.313,7.303-16.313,16.313c0.00,9.009, 7.139,19.479, 16.313,35.188 c 9.174-15.708, 16.313-26.178, 16.313-35.188C 1200.313,525.553, 1193.009,518.25, 1184.00,518.25z M 1184.00,545.833 c-6.203,0.00-11.232-5.029-11.232-11.232c0.00-6.203, 5.029-11.232, 11.232-11.232c 6.203,0.00, 11.232,5.029, 11.232,11.232 C 1195.232,540.804, 1190.203,545.833, 1184.00,545.833zM 1312.00,518.25c-11.633,0.00-21.063,9.43-21.063,21.063C 1290.938,551.125, 1301.179,558.917, 1312.00,569.75 c 10.821-10.833, 21.063-18.625, 21.063-30.438C 1333.063,527.68, 1323.633,518.25, 1312.00,518.25z M 1312.00,554.12c-8.534,0.00-15.453-6.919-15.453-15.453 c0.00-8.534, 6.919-15.453, 15.453-15.453c 8.534,0.00, 15.453,6.918, 15.453,15.453C 1327.453,547.201, 1320.535,554.12, 1312.00,554.12zM 1423.844,535.643l 11.515-11.515c 0.854-0.854, 2.24-0.854, 3.094,0.00c 0.854,0.854, 0.854,2.239,0.00,3.094 l-8.422,8.422L 1423.844,535.643 z M 1449.969,535.643l 6.187,0.00 l-11.515-11.515c-0.854-0.854-2.239-0.854-3.094,0.00 c-0.854,0.854-0.854,2.239,0.00,3.094L 1449.969,535.643z M 1414.25,538.727l0.00,5.00 l 1.38,0.00 c 1.146,0.00, 2.192,0.653, 2.695,1.682l 9.341,19.104L 1452.375,564.513 l 9.301-19.10c 0.502-1.032, 1.55-1.687, 2.697-1.687L 1465.75,543.726 l0.00-5.00 L 1414.25,538.726 z M 1434.656,557.548c0.00,0.863-0.70,1.563-1.563,1.563 s-1.563-0.70-1.563-1.563l0.00-11.569 c0.00-0.863, 0.70-1.563, 1.563-1.563s 1.563,0.70, 1.563,1.563L 1434.656,557.548 z M 1441.656,557.548 c0.00,0.863-0.70,1.563-1.563,1.563s-1.563-0.70-1.563-1.563l0.00-11.569 c0.00-0.863, 0.70-1.563, 1.563-1.563s 1.563,0.70, 1.563,1.563L 1441.656,557.548 z M 1448.646,557.548c0.00,0.863-0.70,1.563-1.563,1.563s-1.563-0.70-1.563-1.563l0.00-11.569 c0.00-0.863, 0.70-1.563, 1.563-1.563s 1.563,0.70, 1.563,1.563 L 1448.646,557.548 zM 1593.729,525.139l-1.593,5.00l-3.748,0.00 l-7.397,23.521L 1552.607,553.659 L 1542.271,529.951l 37.093,0.00 l-5.753,18.59l 3.765,0.00 l 7.356-23.403L 1593.729,525.139 z M 1572.241,556.139c-1.857,0.00-3.361,1.505-3.361,3.361 s 1.505,3.361, 3.361,3.361s 3.361-1.505, 3.361-3.361S 1574.097,556.139, 1572.241,556.139z M 1561.13,556.139 c-1.857,0.00-3.361,1.505-3.361,3.361s 1.505,3.361, 3.361,3.361c 1.857,0.00, 3.362-1.505, 3.362-3.361 S 1562.987,556.139, 1561.13,556.139zM 51.376,664.405l-10.128,20.786L 22.788,685.192 l-10.106-20.786L 6.25,664.405 l0.00,5.00 l 1.38,0.00 c 1.146,0.00, 2.192,0.653, 2.695,1.682l 9.341,19.104L 44.375,690.192 l 9.301-19.10c 0.502-1.032, 1.55-1.687, 2.697-1.687L 57.75,669.405 l0.00-5.00 L 51.376,664.405 z M 32.125,658.252c-5.37,0.00-9.724,4.354-9.724,9.724c0.00,5.37, 4.354,9.724, 9.724,9.724s 9.724-4.353, 9.724-9.724 C 41.849,662.606, 37.495,658.252, 32.125,658.252z M 38.101,669.743l-4.209,0.00 l0.00,4.209 L 30.641,673.952 l0.00-4.209 l-4.209,0.00 l0.00-3.251 l 4.209,0.00 l0.00-4.209 l 3.251,0.00 l0.00,4.209 l 4.209,0.00 L 38.101,669.743 zM 171.364,657.951L 134.271,657.951 l 6.695,15.146l 25.636,0.00 L 171.364,657.951z M 185.729,653.139l-1.593,5.00 l-3.748,0.00 l-7.397,23.521L 144.607,681.659 l-2.203-5.00L 169.335,676.659 l 7.397-23.521L 185.729,653.139 z M 167.602,687.50c0.00,1.857-1.505,3.361-3.361,3.361 S 160.879,689.356, 160.879,687.50s 1.505-3.361, 3.361-3.361S 167.602,685.644, 167.602,687.50z M 156.492,687.50 c0.00,1.857-1.505,3.361-3.362,3.361c-1.857,0.00-3.361-1.505-3.361-3.361s 1.505-3.361, 3.361-3.361 C 154.987,684.139, 156.492,685.644, 156.492,687.50zM 284.46,687.625c0.00,1.857-1.505,3.361-3.361,3.361S 277.738,689.481, 277.738,687.625 s 1.505-3.361, 3.361-3.361S 284.46,685.769, 284.46,687.625z M 304.701,653.264l-7.397,23.521L 275.917,676.784 L 267.802,658.076L 262.302,658.076 l 10.364,23.708l 0.034,0.00 l 28.259,0.00 l 7.397-23.521l 3.748,0.00 l 1.593-5.00L 304.701,653.264 z M 292.209,684.264c-1.857,0.00-3.361,1.505-3.361,3.361 s 1.505,3.361, 3.361,3.361s 3.361-1.505, 3.361-3.361S 294.066,684.264, 292.209,684.264z M 286.283,653.014 c-5.37,0.00-9.724,4.354-9.724,9.724c0.00,5.37, 4.354,9.724, 9.724,9.724s 9.724-4.353, 9.724-9.724 C 296.007,657.367, 291.653,653.014, 286.283,653.014z M 292.259,664.504l-4.209,0.00 l0.00,4.209 l-3.251,0.00 l0.00-4.209 l-4.209,0.00 L 280.59,661.254 l 4.209,0.00 l0.00-4.209 l 3.251,0.00 l0.00,4.209 l 4.209,0.00 L 292.259,664.504 zM 402.167,667.917l0.00-7.833 C 402.167,652.456, 408.372,646.25, 416.00,646.25c 7.628,0.00, 13.833,6.206, 13.833,13.833l0.00,7.833 l-6.25,0.00 l0.00-7.833 C 423.583,655.902, 420.181,652.50, 416.00,652.50c-4.181,0.00-7.583,3.402-7.583,7.583l0.00,7.833 L 402.167,667.917 z M 397.50,671.667L 397.50,697.75 l 37.00,0.00 L 434.50,671.667 L 397.50,671.667 zM 528.753,681.048c 4.581-19.948, 27.393-24.59, 27.393-24.59L 556.145,650.317 L 569.75,663.899l-13.604,13.582 l0.00-6.141 C 556.145,671.34, 538.505,670.606, 528.753,681.048z M 556.256,683.553l0.00,5.003 L 523.376,688.557 L 523.376,667.26 l 7.195,0.00 c 1.438-1.852, 3.07-3.561, 4.872-5.126L 518.25,662.134 l0.00,31.549 l 43.132,0.00 L 561.382,678.435 L 556.256,683.553zM 693.816,659.205L 650.184,659.205 l0.00,10.936 l 43.632,0.00 L 693.816,659.205 z M 653.086,667.071l 1.919-4.797l 2.318,0.00 l-1.919,4.797 L 653.086,667.071 z M 656.843,667.071l 1.919-4.797l 2.318,0.00 l-1.919,4.797L 656.843,667.071 z M 660.599,667.071l 1.919-4.797l 2.318,0.00 l-1.919,4.797 L 660.599,667.071 z M 664.356,667.071l 1.919-4.797l 2.317,0.00 l-1.918,4.797L 664.356,667.071 z M 670.43,667.071l-2.317,0.00 l 1.919-4.797l 2.318,0.00 L 670.43,667.071z M 688.636,666.275c-0.884,0.00-1.602-0.717-1.602-1.602s 0.718-1.602, 1.602-1.602 c 0.885,0.00, 1.602,0.717, 1.602,1.602S 689.521,666.275, 688.636,666.275z M 691.41,656.327l-38.727,0.00 L 660.32,646.25l 23.359,0.00 L 691.41,656.327 z M 693.816,673.018L 650.184,673.018 l0.00,10.936 l 43.632,0.00 L 693.816,673.018 z M 653.086,680.885l 1.919-4.797l 2.318,0.00 l-1.919,4.797L 653.086,680.885 z M 656.843,680.885 l 1.919-4.797l 2.318,0.00 l-1.919,4.797L 656.843,680.885 z M 660.599,680.885l 1.919-4.797l 2.318,0.00 l-1.919,4.797L 660.599,680.885 z M 664.356,680.885 l 1.919-4.797l 2.317,0.00 l-1.918,4.797L 664.356,680.885 z M 670.43,680.885l-2.317,0.00 l 1.919-4.797l 2.318,0.00 L 670.43,680.885z M 688.636,680.088 c-0.884,0.00-1.602-0.717-1.602-1.602c0.00-0.885, 0.718-1.602, 1.602-1.602c 0.885,0.00, 1.602,0.717, 1.602,1.602 C 690.238,679.371, 689.521,680.088, 688.636,680.088z M 693.816,686.814L 650.184,686.814 L 650.184,697.75 l 43.632,0.00 L 693.816,686.814 z M 653.086,694.68l 1.919-4.797 l 2.318,0.00 l-1.919,4.797L 653.086,694.68 z M 656.843,694.68l 1.919-4.797l 2.318,0.00 l-1.919,4.797L 656.843,694.68 z M 660.599,694.68l 1.919-4.797 l 2.318,0.00 l-1.919,4.797L 660.599,694.68 z M 664.356,694.68l 1.919-4.797l 2.317,0.00 l-1.918,4.797L 664.356,694.68 z M 670.43,694.68l-2.317,0.00 l 1.919-4.797l 2.318,0.00 L 670.43,694.68z M 688.636,693.883c-0.884,0.00-1.602-0.717-1.602-1.601c0.00-0.885, 0.718-1.602, 1.602-1.602 c 0.885,0.00, 1.602,0.717, 1.602,1.602C 690.238,693.167, 689.521,693.883, 688.636,693.883zM 820.765,684.451l0.00,5.816 C 820.765,694.40, 811.468,697.75, 800.00,697.75c-11.468,0.00-20.765-3.35-20.765-7.484 l0.00-5.816 c 1.285,0.924, 2.898,1.738, 4.811,2.428C 788.365,688.435, 794.031,689.292, 800.00,689.292 c 5.969,0.00, 11.635-0.857, 15.955-2.414C 817.867,686.189, 819.48,685.375, 820.765,684.451z M 815.955,674.724 c-4.319,1.557-9.986,2.414-15.955,2.414c-5.969,0.00-11.635-0.857-15.955-2.414c-1.912-0.689-3.525-1.504-4.811-2.428 l0.00,5.763 c0.00,4.133, 9.297,7.484, 20.765,7.484c 11.468,0.00, 20.765-3.35, 20.765-7.484l0.00-5.763 C 819.48,673.22, 817.867,674.034, 815.955,674.724z M 800.00,646.25c-11.468,0.00-20.765,3.351-20.765,7.484 c0.00,4.133, 9.297,7.484, 20.765,7.484c 11.468,0.00, 20.765-3.351, 20.765-7.484C 820.765,649.601, 811.468,646.25, 800.00,646.25z M 815.955,662.553C 811.635,664.11, 805.969,664.968, 800.00,664.968c-5.969,0.00-11.635-0.857-15.955-2.414 c-1.912-0.689-3.525-1.504-4.811-2.428l0.00,5.778 c0.00,4.133, 9.297,7.484, 20.765,7.484c 11.468,0.00, 20.765-3.351, 20.765-7.484 l0.00-5.778 C 819.48,661.05, 817.867,661.864, 815.955,662.553zM 953.75,685.00l0.00,1.625 c0.00,1.381-1.119,2.50-2.50,2.50L 904.75,689.125 c-1.381,0.00-2.50-1.119-2.50-2.50l0.00-1.625 l 20.886,0.00 c 0.171,0.769, 0.856,1.219, 1.677,1.219l 6.375,0.00 c 0.82,0.00, 1.505-0.45, 1.677-1.219L 953.75,685.00 z M 945.979,658.25L 910.021,658.25 l0.00,21.50 l 35.959,0.00 L 945.979,658.25 M 949.354,683.125 L 906.646,683.125 L 906.646,657.375 c0.00-1.381, 1.119-2.50, 2.50-2.50l 37.708,0.00 c 1.381,0.00, 2.50,1.119, 2.50,2.50L 949.354,683.125 zM 1066.802,661.198c 1.252,1.252, 1.252,3.2810.00,4.533L 1049.731,682.803 c-1.252,1.252-3.281,1.252-4.533,0.00l0.00,0.00c-1.252-1.252-1.252-3.2810.00-4.533l 17.071-17.071 C 1063.52,659.946, 1065.55,659.946, 1066.802,661.198L 1066.802,661.198z M 1047.193,689.922c-2.513,2.513-6.602,2.513-9.115,0.00 c-2.513-2.513-2.513-6.602,0.00-9.115l 12.099-12.085c-4.06-0.986-8.521,0.107-11.691,3.277L 1033.877,676.607 c-4.837,4.837-4.837,12.679,0.00,17.515c 4.837,4.837, 12.679,4.837, 17.515,0.00l 4.608-4.608 c 3.17-3.17, 4.262-7.63, 3.277-11.69L 1047.193,689.922z M 1060.607,649.877l-4.608,4.608 c-3.17,3.17-4.269,7.625-3.284,11.684l 12.092-12.092c 2.513-2.513, 6.601-2.513, 9.114,0.00 c 2.513,2.513, 2.513,6.601, 0.00,9.114l-12.091,12.091c 4.059,0.985, 8.514-0.113, 11.684-3.283l 4.608-4.608 c 4.837-4.837, 4.837-12.6780.00-17.515C 1073.286,645.041, 1065.444,645.041, 1060.607,649.877zM 1181.992,668.919l 4.015,0.00 l0.00,12.178 l-4.015,0.00 L 1181.992,668.919 z M 1184.00,687.377c-1.197,0.00-2.167-0.97-2.167-2.167 c0.00-1.197, 0.97-2.167, 2.167-2.167c 1.197,0.00, 2.167,0.97, 2.167,2.167C 1186.167,686.407, 1185.197,687.377, 1184.00,687.377z M 1184.00,649.759 L 1158.25,694.359l 51.50,0.00 L 1184.00,649.759z M 1184.00,659.759l 17.09,29.60L 1166.91,689.359 L 1184.00,659.759zM 1337.75,674.438c0.00-14.221-11.529-25.75-25.75-25.75s-25.75,11.529-25.75,25.75c0.00,5.543, 1.752,10.676, 4.731,14.878 l 9.351,0.00 C 1302.328,692.85, 1306.801,695.313, 1312.00,695.313s 9.672-2.462, 11.669-5.997l 9.351,0.00 C 1335.998,685.114, 1337.75,679.98, 1337.75,674.438z M 1328.109,660.626l-4.727,4.727c-0.678-0.849-1.45-1.62-2.298-2.298l 4.727-4.727 C 1326.633,659.033, 1327.404,659.805, 1328.109,660.626z M 1318.603,654.265c 1.026,0.336, 2.034,0.754, 3.002,1.246l-2.56,6.177 c-0.951-0.526-1.958-0.944-3.002-1.245L 1318.603,654.265z M 1310.375,653.28c 0.548-0.042, 1.094-0.063, 1.625-0.063s 1.077,0.021, 1.625,0.063l0.00,6.684 c-0.539-0.06-1.085-0.09-1.625-0.09s-1.086,0.03-1.625,0.09L 1310.375,653.28 z M 1309.576,675.683L 1312.00,664.324l 2.424,11.359 c 1.544,0.854, 2.59,2.499, 2.59,4.389c0.00,2.769-2.244,5.013-5.013,5.013c-2.769,0.00-5.013-2.244-5.013-5.013 C 1306.987,678.182, 1308.033,676.537, 1309.576,675.683z M 1305.317,654.292l 2.586,6.167c-1.042,0.305-2.048,0.727-2.997,1.257 l-2.585-6.167C 1303.284,655.055, 1304.29,654.633, 1305.317,654.292z M 1298.189,658.328l 4.727,4.727 c-0.849,0.678-1.62,1.449-2.298,2.298l-4.727-4.727C 1296.596,659.805, 1297.367,659.033, 1298.189,658.328z M 1291.826,667.838 c 0.336-1.027, 0.754-2.035, 1.246-3.002l 6.178,2.559c-0.526,0.951-0.944,1.958-1.245,3.002L 1291.826,667.838z M 1325.931,670.179 c-0.317-1.037-0.75-2.038-1.293-2.982l 6.138-2.656c 0.504,0.956, 0.938,1.957, 1.291,2.982L 1325.931,670.179zM 1440.00,696.629C 1421.02,678.156, 1415.684,671.361, 1414.529,664.395 C 1413.115,655.873, 1419.458,647.371, 1429.342,647.371c 4.236,0.00, 8.085,1.628, 10.658,4.346c 2.572-2.718, 6.421-4.346, 10.657-4.346 c 9.841,0.00, 16.235,8.46, 14.814,17.024C 1464.341,671.209, 1459.357,677.789, 1440.00,696.629z M 1429.342,652.371 c-3.991,0.00-7.356,2.009-9.001,5.375c-4.212,8.617, 5.274,17.368, 19.658,31.782 C 1454.439,675.059, 1463.86,666.343, 1459.658,657.745c-1.645-3.365-5.01-5.375-9.001-5.375c-6.432,0.00-9.173,5.064-10.657,7.456 C 1438.606,657.581, 1436.10,652.371, 1429.342,652.371zM 1578.666,646.25L 1557.334,646.25 L 1542.25,661.334l0.00,21.332 L 1557.334,697.75l 21.332,0.00 L 1593.75,682.666L 1593.75,661.334 L 1578.666,646.25z M 1576.535,685.176l-8.409-8.409l-8.409,8.41l-4.517-4.519l 8.408-8.409l-8.409-8.408l 4.519-4.517l 8.407,8.406 l 8.406-8.407l 4.521,4.518l-8.407,8.408l 8.408,8.407L 1576.535,685.176z"></path></svg>