<?xml version="1.0" encoding="utf-8"?> <!-- Generator: IcoMoon.io --> <!DOCTYPE svg PUBLIC "-//W3C//DTD SVG 1.1//EN" "http://www.w3.org/Graphics/SVG/1.1/DTD/svg11.dtd"> <svg width="512" height="512" viewBox="0 0 512 512" xmlns="http://www.w3.org/2000/svg" xmlns:xlink="http://www.w3.org/1999/xlink" fill="#333333"><path d="M 432.00,287.008l0.00-48.00 l 32.00,0.00 l0.00,48.00 L 432.00,287.008 z M 432.00,176.00l 32.00,0.00 l0.00,48.00 l-32.00,0.00 L 432.00,176.00 z M 432.00,112.00l 32.00,0.00 l0.00,48.00 l-32.00,0.00 L 432.00,112.00 z M 384.00,464.00L 96.00,464.00 c-17.664,0.00-32.00-14.336-32.00-32.00l 8.00,0.00 C 85.248,432.00, 96.00,421.248, 96.00,408.00S 85.248,384.00, 72.00,384.00L 64.00,384.00 l0.00-16.00 l 8.00,0.00 C 85.248,368.00, 96.00,357.248, 96.00,344.00S 85.248,320.00, 72.00,320.00L 64.00,320.00 l0.00-16.00 l 8.00,0.00 C 85.248,304.00, 96.00,293.248, 96.00,280.00S 85.248,256.00, 72.00,256.00L 64.00,256.00 l0.00-16.00 l 8.00,0.00 C 85.248,240.00, 96.00,229.248, 96.00,216.00S 85.248,192.00, 72.00,192.00L 64.00,192.00 l0.00-16.00 l 8.00,0.00 C 85.248,176.00, 96.00,165.248, 96.00,152.00 S 85.248,128.00, 72.00,128.00L 64.00,128.00 L 64.00,80.00 c0.00-17.664, 14.336-32.00, 32.00-32.00l 288.00,0.00 c 11.808,0.00, 22.016,6.464, 27.568,16.00L 96.00,64.00 C 87.152,64.00, 80.00,71.152, 80.00,80.00c0.00,8.832, 7.152,16.00, 16.00,16.00l 320.00,0.00 l0.00,336.00 C 416.00,449.664, 401.664,464.00, 384.00,464.00z M 248.00,152.992c-19.328,0.00-35.008,20.592-35.008,46.00s 15.664,46.00, 35.008,46.00s 35.008-20.592, 35.008-46.00 S 267.328,152.992, 248.00,152.992z M 303.84,267.008c-8.624-5.744-33.456-9.568-33.456-9.568s-16.096,17.20-22.928,17.20 c-6.848,0.00-22.944-17.20-22.944-17.20s-24.832,3.808-33.44,9.568c-8.624,5.728-12.432,36.176-12.432,36.176l 137.84,0.00 C 316.496,303.168, 313.968,273.744, 303.84,267.008z M 80.00,152.00C 80.00,156.416, 76.416,160.00, 72.00,160.00l-16.00,0.00 C 51.584,160.00, 48.00,156.416, 48.00,152.00S 51.584,144.00, 56.00,144.00l 16.00,0.00 C 76.416,144.00, 80.00,147.584, 80.00,152.00z M 56.00,208.00l 16.00,0.00 C 76.416,208.00, 80.00,211.584, 80.00,216.00S 76.416,224.00, 72.00,224.00l-16.00,0.00 C 51.584,224.00, 48.00,220.416, 48.00,216.00S 51.584,208.00, 56.00,208.00z M 56.00,272.00 l 16.00,0.00 C 76.416,272.00, 80.00,275.584, 80.00,280.00S 76.416,288.00, 72.00,288.00l-16.00,0.00 C 51.584,288.00, 48.00,284.416, 48.00,280.00S 51.584,272.00, 56.00,272.00z M 56.00,336.00l 16.00,0.00 C 76.416,336.00, 80.00,339.584, 80.00,344.00 S 76.416,352.00, 72.00,352.00l-16.00,0.00 C 51.584,352.00, 48.00,348.416, 48.00,344.00S 51.584,336.00, 56.00,336.00z M 56.00,400.00l 16.00,0.00 C 76.416,400.00, 80.00,403.584, 80.00,408.00S 76.416,416.00, 72.00,416.00l-16.00,0.00 C 51.584,416.00, 48.00,412.416, 48.00,408.00S 51.584,400.00, 56.00,400.00z" ></path></svg>