<?xml version="1.0" encoding="utf-8"?> <!-- Generator: IcoMoon.io --> <!DOCTYPE svg PUBLIC "-//W3C//DTD SVG 1.1//EN" "http://www.w3.org/Graphics/SVG/1.1/DTD/svg11.dtd"> <svg width="512" height="512" viewBox="0 0 512 512" xmlns="http://www.w3.org/2000/svg" xmlns:xlink="http://www.w3.org/1999/xlink" fill="#333333"><path d="M 368.88,142.496c 8.912,0.00, 16.128,7.216, 16.128,16.128l-29.232,321.488 c0.00,8.912-7.216,16.128-16.128,16.128L 172.336,496.24 c-8.912,0.00-16.128-7.216-16.128-16.128L 127.008,158.624c0.00-8.912, 7.216-16.128, 16.128-16.128l 144.16,0.00 l 17.056-86.976l 77.424-39.76l-5.568,20.768l-57.472,28.816l-15.008,77.152L 368.88,142.496 z M 280.224,255.376l 64.464,0.00 l-18.144,208.608l-141.088,0.00 l-18.144-208.608 l 96.464,0.00 l 20.144-96.752l-140.80,0.00 l 29.216,321.488l 167.296,0.00 l 29.232-321.488l-68.512,0.00 L 280.224,255.376z" ></path></svg>