<?xml version="1.0" encoding="utf-8"?> <!-- Generator: IcoMoon.io --> <!DOCTYPE svg PUBLIC "-//W3C//DTD SVG 1.1//EN" "http://www.w3.org/Graphics/SVG/1.1/DTD/svg11.dtd"> <svg width="584" height="512" viewBox="0 0 584 512" xmlns="http://www.w3.org/2000/svg" xmlns:xlink="http://www.w3.org/1999/xlink" fill="#333333"><path d="M 531.648,126.848l 52.544,7.424l-46.72,24.736l 33.872,30.944l-49.04-6.192l 30.352,63.12 l-60.72-45.792l-50.224,60.64l 23.36-75.472l-73.584,39.60l 51.376-55.68l-3.52-13.696c-13.872,6.912-33.52,13.968-54.064,13.152 c-27.248,0.00-61.088-19.008-101.52-52.992c0.00,0.00-45.776-48.416-84.256-48.416c-39.584,0.00-35.712,59.552-35.664,60.144l 44.832,0.00 l0.00,40.512 c 56.992,21.952, 95.504,77.088, 95.504,141.84c0.00,84.00-68.096,152.096-152.096,152.096S0.00,394.688,0.00,310.688c0.00-64.736, 39.504-119.888, 96.496-141.84L 96.496,128.336 l 40.064,0.00 C 136.512,128.032, 131.952,84.432, 154.96,60.24c 12.272-12.896, 27.264-19.344, 45.008-19.344c 53.392,0.00, 101.312,56.192, 101.312,56.192 c 35.12,30.144, 63.76,45.20, 85.92,45.20c 8.992,0.00, 27.296-5.664, 36.704-8.784l-28.912-22.752l 50.224,3.696l-38.528-59.392l 63.056,44.544 l 7.008-42.08l 11.664,38.368l 46.72-55.68l-10.512,61.872l 53.712-12.368L 531.648,126.848z" ></path></svg>