<?xml version="1.0" encoding="utf-8"?> <!-- Generator: IcoMoon.io --> <!DOCTYPE svg PUBLIC "-//W3C//DTD SVG 1.1//EN" "http://www.w3.org/Graphics/SVG/1.1/DTD/svg11.dtd"> <svg width="512" height="512" viewBox="0 0 512 512" xmlns="http://www.w3.org/2000/svg" xmlns:xlink="http://www.w3.org/1999/xlink" fill="#333333"><path d="M 384.50,314.50q 9.00,8.50 33.50,4.00t 45.00-19.50q 25.00,39.50 37.25,74.25t 11.75,59.75t-6.75,42.25t-17.75,28.25q-23.00,23.50 -72.75-15.25t-164.75-154.25l-36.00-36.00q-120.50-120.50 -144.50-146.00q-68.50-74.50 -69.50-106.00q-0.50-12.50 8.50-21.50q 10.50-10.50 26.50-16.75t 38.75-7.50t 54.50,8.50t 67.75,30.25q-4.00,5.50 -5.50,7.00q-13.00,15.00 -30.25,27.00 t-31.75,17.50q 5.50,4.50 16.75,5.25t 24.25-2.50t 26.75-11.00t 23.75-18.75q0.00-0.50 4.50-6.50q 46.50,31.00 98.50,79.50q-0.50,0.00 -2.00,2.25t-2.50,3.25q-13.50,15.00 -30.50,27.00t-31.50,17.50q 5.50,4.50 16.75,5.25t 24.00-2.50t 26.50-11.00t 23.75-18.25l 1.25,1.25l 1.25,1.25q 56.50,56.50 94.50,109.50q-29.50,31.50 -60.00,42.50z" ></path></svg>