<?xml version="1.0" encoding="utf-8"?> <!-- Generator: IcoMoon.io --> <!DOCTYPE svg PUBLIC "-//W3C//DTD SVG 1.1//EN" "http://www.w3.org/Graphics/SVG/1.1/DTD/svg11.dtd"> <svg width="500.00000000000006" height="500" viewBox="0 0 500 500" xmlns="http://www.w3.org/2000/svg" xmlns:xlink="http://www.w3.org/1999/xlink" fill="#333333"><path d="M 162.80,234.575l 174.45,0.00 L 337.25,193.425 L 162.80,193.425 L 162.80,234.575 z M 162.80,311.725l 174.45,0.00 l0.00-41.15 L 162.80,270.575 L 162.80,311.725 z M 250.00,10.00c-132.55,0.00-240.00,107.45-240.00,240.00 s 107.45,240.00, 240.00,240.00s 240.00-107.45, 240.00-240.00S 382.55,10.00, 250.00,10.00z M 250.00,446.00c-108.25,0.00-196.00-87.75-196.00-196.00S 141.75,54.00, 250.00,54.00 s 196.00,87.75, 196.00,196.00S 358.25,446.00, 250.00,446.00z" ></path></svg>