<?xml version="1.0" encoding="utf-8"?> <!-- Generator: IcoMoon.io --> <!DOCTYPE svg PUBLIC "-//W3C//DTD SVG 1.1//EN" "http://www.w3.org/Graphics/SVG/1.1/DTD/svg11.dtd"> <svg width="500.00000000000006" height="500" viewBox="0 0 500 500" xmlns="http://www.w3.org/2000/svg" xmlns:xlink="http://www.w3.org/1999/xlink" fill="#333333"><path d="M 348.15,181.45l-52.30,0.00 L 295.85,129.15 c0.00-3.70-1.275-6.85-3.85-9.45c-2.575-2.55-5.725-3.85-9.425-3.85L 150.575,115.85 C 147.15,116.425, 144.275,117.95, 142.025,120.35C 139.725,122.775, 138.575,125.70, 138.575,129.15l0.00,176.55 c0.00,3.70, 1.30,6.85, 3.85,9.425 s 5.725,3.85, 9.425,3.85l 52.30,0.00 l0.00,52.30 c0.00,3.70, 1.275,6.85, 3.85,9.425c 2.575,2.575, 5.725,3.85, 9.425,3.85l 130.725,0.00 c 3.70,0.00, 6.85-1.30, 9.425-3.85s 3.85-5.725, 3.85-9.425L 361.425,194.725 c0.00-3.70-1.30-6.85-3.85-9.425 C 355.00,182.725, 351.85,181.45, 348.15,181.45z M 215.725,181.45C 212.575,182.00, 209.875,183.525, 207.575,185.95S 204.15,191.275, 204.15,194.725l0.00,98.125 L 164.725,292.85 L 164.725,142.425 l 105.00,0.00 l0.00,39.025 L 215.725,181.45 z M 335.275,358.00l-105.00,0.00 L 230.275,207.575 l 105.00,0.00 L 335.275,358.00 z M 250.00,10.00c-132.55,0.00-240.00,107.45-240.00,240.00s 107.45,240.00, 240.00,240.00 s 240.00-107.45, 240.00-240.00S 382.55,10.00, 250.00,10.00z M 250.00,446.00c-108.25,0.00-196.00-87.75-196.00-196.00S 141.75,54.00, 250.00,54.00s 196.00,87.75, 196.00,196.00 S 358.25,446.00, 250.00,446.00z" ></path></svg>