<?xml version="1.0" encoding="utf-8"?> <!-- Generator: IcoMoon.io --> <!DOCTYPE svg PUBLIC "-//W3C//DTD SVG 1.1//EN" "http://www.w3.org/Graphics/SVG/1.1/DTD/svg11.dtd"> <svg width="500.00000000000006" height="500" viewBox="0 0 500 500" xmlns="http://www.w3.org/2000/svg" xmlns:xlink="http://www.w3.org/1999/xlink" fill="#333333"><path d="M 248.75,123.575c-27.45,0.00-50.725,8.05-69.875,24.20s-31.00,38.95-35.575,68.35L 124.475,216.125 l 47.55,47.575l 47.575-47.575L 202.025,216.125 c 4.00-28.275, 22.00-42.40, 54.00-42.40c 17.70,0.00, 31.30,6.625, 40.70,19.925c 9.45,13.275, 14.15,32.65, 14.15,58.05 c0.00,24.30-5.15,43.725-15.425,58.275c-10.30,14.575-23.875,21.875-40.70,21.875c-33.75,0.00-51.325-14.575-52.725-43.725L 141.60,288.125 c 4.00,30.00, 15.85,53.15, 35.575,69.425c 19.70,16.275, 43.15,24.425, 70.275,24.425c 36.90,0.00, 66.875-12.20, 90.025-36.625 c 23.15-24.45, 34.725-55.075, 34.725-91.95c0.00-38.00-11.15-69.15-33.425-93.40C 316.45,135.725, 286.45,123.575, 248.75,123.575z M 250.00,10.00 c-132.55,0.00-240.00,107.45-240.00,240.00s 107.45,240.00, 240.00,240.00s 240.00-107.45, 240.00-240.00S 382.55,10.00, 250.00,10.00z M 250.00,446.00c-108.25,0.00-196.00-87.75-196.00-196.00 S 141.75,54.00, 250.00,54.00s 196.00,87.75, 196.00,196.00S 358.25,446.00, 250.00,446.00z" ></path></svg>