<?xml version="1.0" encoding="utf-8"?> <!-- Generator: IcoMoon.io --> <!DOCTYPE svg PUBLIC "-//W3C//DTD SVG 1.1//EN" "http://www.w3.org/Graphics/SVG/1.1/DTD/svg11.dtd"> <svg width="512" height="512" viewBox="0 0 512 512" xmlns="http://www.w3.org/2000/svg" xmlns:xlink="http://www.w3.org/1999/xlink" fill="#333333"><path d="M 256.00,64.00C 149.952,64.00, 64.00,149.968, 64.00,256.00c0.00,106.032, 85.952,192.00, 192.00,192.00c 106.032,0.00, 192.00-85.968, 192.00-192.00C 448.00,149.968, 362.032,64.00, 256.00,64.00z M 256.00,360.992 c-57.44,0.00-104.00-46.56-104.00-104.00s 46.56-104.00, 104.00-104.00s 104.00,46.56, 104.00,104.00S 313.44,360.992, 256.00,360.992z M 269.328,252.224 c 4.544-1.696, 7.952-4.128, 10.192-7.264s 3.36-6.832, 3.36-11.072c0.00-6.656-2.432-12.304-7.312-16.928 c-4.864-4.64-11.28-6.96-19.28-6.96c-7.952,0.00-14.32,2.272-19.088,6.80c-4.80,4.528-7.184,10.128-7.184,16.768 c0.00,4.40, 1.12,8.176, 3.408,11.344c 2.256,3.152, 5.744,5.60, 10.432,7.296c-5.632,1.472-9.968,4.208-13.008,8.224 c-3.04,4.032-4.576,9.024-4.576,14.992c0.00,8.00, 2.768,14.688, 8.32,20.048c 5.536,5.344, 12.832,8.032, 21.872,8.032 c 9.024,0.00, 16.336-2.672, 21.872-8.00c 5.536-5.344, 8.32-11.936, 8.32-19.76c0.00-5.664-1.472-10.544-4.416-14.64S 274.976,254.064, 269.328,252.224z M 241.632,233.184c0.00-3.808, 1.392-7.088, 4.192-9.824c 2.784-2.736, 6.336-4.112, 10.624-4.112c 4.256,0.00, 7.776,1.392, 10.592,4.208 c 2.816,2.80, 4.224,6.256, 4.224,10.352c0.00,3.936-1.376,7.264-4.096,9.984s-6.256,4.08-10.592,4.08 c-4.464,0.00-8.064-1.376-10.816-4.112S 241.632,237.504, 241.632,233.184z M 269.808,289.056c-3.472,3.472-7.888,5.184-13.28,5.184 c-3.44,0.00-6.672-0.816-9.664-2.464c-3.008-1.648-5.264-3.968-6.752-6.976s-2.24-6.112-2.24-9.312c0.00-5.248, 1.712-9.632, 5.152-13.12 s 7.808-5.248, 13.12-5.248c 5.44,0.00, 9.936,1.776, 13.504,5.312s 5.344,8.032, 5.344,13.44C 275.008,281.216, 273.264,285.616, 269.808,289.056z" ></path></svg>