<?xml version="1.0" encoding="utf-8"?> <!-- Generator: IcoMoon.io --> <!DOCTYPE svg PUBLIC "-//W3C//DTD SVG 1.1//EN" "http://www.w3.org/Graphics/SVG/1.1/DTD/svg11.dtd"> <svg width="512" height="512" viewBox="0 0 512 512" xmlns="http://www.w3.org/2000/svg" xmlns:xlink="http://www.w3.org/1999/xlink" fill="#333333"><path d="M 384.00,448.00l0.00-32.00 l-0.40,0.00 C 383.744,413.344, 384.00,410.704, 384.00,408.00L 384.00,272.00 l0.00-40.00 C 384.00,156.896, 323.104,96.00, 248.00,96.00S 112.00,156.896, 112.00,232.00L 112.00,272.00 l0.00,136.00 c0.00,2.704, 0.256,5.344, 0.40,8.00L 112.00,416.00 l0.00,32.00 c0.00,0.00-80.00-1.344-80.00-88.00c0.00-49.152, 25.712-70.832, 48.00-80.40 L 80.00,232.00 C 80.00,139.216, 155.216,64.00, 248.00,64.00S 416.00,139.216, 416.00,232.00l0.00,47.60 c 22.288,9.584, 48.00,31.248, 48.00,80.40C 464.00,446.656, 384.00,448.00, 384.00,448.00z M 144.00,448.00L 128.00,448.00 L 128.00,272.00 l 16.00,0.00 L 144.00,448.00 z M 368.00,448.00 l-16.00,0.00 L 352.00,272.00 l 16.00,0.00 L 368.00,448.00 z" ></path></svg>