<?xml version="1.0" encoding="utf-8"?> <!-- Generator: IcoMoon.io --> <!DOCTYPE svg PUBLIC "-//W3C//DTD SVG 1.1//EN" "http://www.w3.org/Graphics/SVG/1.1/DTD/svg11.dtd"> <svg width="512" height="512" viewBox="0 0 512 512" xmlns="http://www.w3.org/2000/svg" xmlns:xlink="http://www.w3.org/1999/xlink" fill="#333333"><path d="M 373.936,472.464c0.00,0.00, 5.36-32.192-27.696-71.504c 32.176-90.256, 36.64-172.448, 36.64-172.448 s 66.128,15.20, 66.128,80.416C 448.992,420.624, 373.936,472.464, 373.936,472.464z M 191.664,433.248c0.00,0.00-44.288-142.128-44.288-201.088 c0.00-26.528, 2.992-50.128, 7.648-71.552l 201.76,0.00 c 4.688,21.44, 7.696,45.056, 7.696,71.568c0.00,58.064-44.16,201.072-44.16,201.072L 191.664,433.248 z M 255.84,193.104 c-22.688,0.00-41.088,18.40-41.088,41.104c0.00,22.688, 18.40,41.104, 41.088,41.104c 22.704,0.00, 41.104-18.40, 41.104-41.104 C 296.96,211.504, 278.544,193.104, 255.84,193.104z M 247.008,9.536l0.00-55.968 l 16.00,0.00 l0.00,54.544 c 18.288,13.312, 67.776,55.648, 90.16,137.20L 158.608,145.312 C 180.24,66.00, 227.344,24.128, 247.008,9.536z M 138.064,472.464c0.00,0.00-75.056-51.84-75.056-163.536c0.00-65.216, 66.128-80.416, 66.128-80.416 s 4.464,82.192, 36.624,172.448C 132.688,440.288, 138.064,472.464, 138.064,472.464z M 283.056,480.72l-13.408-13.408L 255.36,512.00l-16.992-44.688 l-11.616,23.216l-16.992-42.00l 92.032,0.00 L 283.056,480.72z" ></path></svg>