<?xml version="1.0" encoding="utf-8"?> <!-- Generator: IcoMoon.io --> <!DOCTYPE svg PUBLIC "-//W3C//DTD SVG 1.1//EN" "http://www.w3.org/Graphics/SVG/1.1/DTD/svg11.dtd"> <svg width="512" height="512" viewBox="0 0 512 512" xmlns="http://www.w3.org/2000/svg" xmlns:xlink="http://www.w3.org/1999/xlink" fill="#333333"><path d="M 256.00,223.50q-57.00,0.00 -133.25,7.25t-122.75,15.75q 1.50-50.50 22.50-96.25t 55.00-79.00t 80.75-52.75t 97.75-19.50t 97.75,19.50t 80.75,52.75t 55.00,79.00t 22.50,96.25q-46.50-8.50 -122.75-15.75t-133.25-7.25zM 111.50,319.50l 75.00-62.00q 38.50-2.00 69.50-2.00t 69.50,2.00l 75.00,62.00l 32.00-54.00q 49.00,5.50 79.00,11.50q-5.50,65.00 -40.75,118.75 t-92.00,85.00t-122.75,31.25t-123.00-31.25t-92.00-85.00t-40.50-118.75q 30.00-6.00 79.00-11.50z" ></path></svg>