<?xml version="1.0" encoding="utf-8"?> <!-- Generator: IcoMoon.io --> <!DOCTYPE svg PUBLIC "-//W3C//DTD SVG 1.1//EN" "http://www.w3.org/Graphics/SVG/1.1/DTD/svg11.dtd"> <svg width="512" height="512" viewBox="0 0 512 512" xmlns="http://www.w3.org/2000/svg" xmlns:xlink="http://www.w3.org/1999/xlink" fill="#333333"><path d="M 431.168,56.608c-85.792,1.696-185.184,16.56-270.992,44.608c-0.048-0.56, 0.32,254.848, 0.32,254.848 c-15.488-3.504-32.992-1.472-51.376,6.912c-34.112,15.504-52.72,46.848-41.552,70.00c 11.168,23.184, 47.872,29.408, 81.984,13.872 c 31.184-16.72, 41.216-31.84, 42.24-53.712l 0.768-221.312c 67.616-19.888, 139.12-31.68, 206.768-35.328l0.00,197.856 c-15.664-3.84-36.416-1.904-55.216,6.624 c-34.112,15.536-52.72,46.88-41.552,70.032c 11.168,23.184, 47.872,29.376, 82.00,13.872c 24.256-11.024, 43.664-30.064, 47.088-48.464 C 431.664,376.40, 430.832,56.176, 431.168,56.608z" ></path></svg>