<?xml version="1.0" encoding="utf-8"?> <!-- Generator: IcoMoon.io --> <!DOCTYPE svg PUBLIC "-//W3C//DTD SVG 1.1//EN" "http://www.w3.org/Graphics/SVG/1.1/DTD/svg11.dtd"> <svg width="512" height="512" viewBox="0 0 512 512" xmlns="http://www.w3.org/2000/svg" xmlns:xlink="http://www.w3.org/1999/xlink" fill="#333333"><path d="M 313.136,173.712l-50.304,75.712l-36.56-36.848l-36.576,59.152l-27.424-27.152L 132.576,304.00 l 233.152,0.00 L 313.136,173.712z M 64.00,80.00l0.00,368.00 l 368.00,0.00 L 432.00,80.00 L 64.00,80.00 z M 400.00,336.00L 96.00,336.00 L 96.00,112.00 l 304.00,0.00 L 400.00,336.00 z M 167.856,209.136c 13.264,0.00, 24.00-10.736, 24.00-24.00s-10.736-24.00-24.00-24.00 c-13.248,0.00-24.00,10.736-24.00,24.00S 154.608,209.136, 167.856,209.136z" ></path></svg>