<?xml version="1.0" encoding="utf-8"?> <!-- Generator: IcoMoon.io --> <!DOCTYPE svg PUBLIC "-//W3C//DTD SVG 1.1//EN" "http://www.w3.org/Graphics/SVG/1.1/DTD/svg11.dtd"> <svg width="512" height="512" viewBox="0 0 512 512" xmlns="http://www.w3.org/2000/svg" xmlns:xlink="http://www.w3.org/1999/xlink" fill="#333333"><path d="M 128.00,432.00c0.00,8.848, 7.152,16.00, 16.00,16.00l 16.00,0.00 l0.00,16.00 l 32.00,0.00 l0.00-16.00 l 128.00,0.00 l0.00,16.00 l 32.00,0.00 l0.00-16.00 l 16.00,0.00 c 8.832,0.00, 16.00-7.152, 16.00-16.00l0.00-128.00 L 128.00,304.00 L 128.00,432.00 z M 144.00,320.00l 16.00,0.00 l0.00,48.00 L 144.00,368.00 L 144.00,320.00 z M 368.00,64.00L 144.00,64.00 C 135.152,64.00, 128.00,71.168, 128.00,80.00l0.00,208.00 l 256.00,0.00 L 384.00,80.00 C 384.00,71.168, 376.848,64.00, 368.00,64.00z M 160.00,272.00L 144.00,272.00 l0.00-48.00 l 16.00,0.00 L 160.00,272.00 z" ></path></svg>