<?xml version="1.0" encoding="utf-8"?> <!-- Generator: IcoMoon.io --> <!DOCTYPE svg PUBLIC "-//W3C//DTD SVG 1.1//EN" "http://www.w3.org/Graphics/SVG/1.1/DTD/svg11.dtd"> <svg width="512" height="512" viewBox="0 0 512 512" xmlns="http://www.w3.org/2000/svg" xmlns:xlink="http://www.w3.org/1999/xlink" fill="#333333"><path d="M 473.00,234.00q-25.00,90.00 -25.00,150.00l0.00,96.00 l-32.00,0.00 l0.00-128.00 q0.00-63.50 -21.00-87.50q-11.50,9.00 -24.50,29.75t-23.75,44.00t-24.75,49.00t-27.50,46.00t-32.00,33.50t-38.50,13.25q-51.00,0.00 -100.75-5.00t-86.50-16.50t-36.75-26.50q0.00-13.00 32.50-39.50t 71.00-48.50t 56.50-24.00q 9.00,9.00 15.25,14.25t 20.25,11.50t 28.50,6.25q 11.50,0.00 43.50-41.25t 64.75-94.50t 58.25-107.50 t 25.50-76.75q 40.00,0.00 68.00,32.75t 28.00,79.25q0.00,27.00 -10.50,50.50t-28.50,39.50z" ></path></svg>