<?xml version="1.0" encoding="utf-8"?> <!-- Generator: IcoMoon.io --> <!DOCTYPE svg PUBLIC "-//W3C//DTD SVG 1.1//EN" "http://www.w3.org/Graphics/SVG/1.1/DTD/svg11.dtd"> <svg width="512" height="512" viewBox="0 0 512 512" xmlns="http://www.w3.org/2000/svg" xmlns:xlink="http://www.w3.org/1999/xlink" fill="#333333"><path d="M 344.992,32.00L 160.176,32.00 L 28.00,163.824L 28.00,348.16 L 160.176,480.00l 184.816-1.168l 131.008-130.672L 476.00,163.824 L 344.992,32.00z M 460.00,341.584l-121.664,121.328L 166.736,464.00L 44.00,341.584L 44.00,170.40 L 166.736,48.00l 171.616,0.00 l 121.664,122.40L 460.016,341.584 z M 387.056,255.632 c 3.072-0.816, 5.648-2.256, 7.68-4.32c 1.824-1.856, 3.168-3.872, 4.00-6.064C 399.584,243.04, 400.00,240.496, 400.00,237.568 c0.00-3.184-0.544-5.952-1.664-8.32c-1.104-2.336-2.784-4.272-5.024-5.76c-1.968-1.28-4.24-2.192-6.848-2.72 s-5.84-0.816-9.712-0.816l-10.256,0.00 l0.00,36.88 l 8.432,0.00 C 379.936,256.832, 383.984,256.432, 387.056,255.632z M 320.048,227.60 c-2.448-3.216-5.424-5.632-8.912-7.232c-3.488-1.60-7.392-2.40-11.728-2.40c-4.496,0.00-8.432,0.784-11.792,2.336 c-3.36,1.584-6.336,4.00-8.928,7.296c-2.448,3.168-4.336,7.152-5.664,11.936c-1.312,4.80-1.968,10.224-1.968,16.272 c0.00,12.224, 2.56,21.584, 7.68,28.064c 5.136,6.48, 12.016,9.712, 20.656,9.712c 8.624,0.00, 15.504-3.232, 20.608-9.712s 7.664-15.84, 7.664-28.064 c0.00-6.176-0.672-11.632-2.00-16.384C 324.336,234.656, 322.464,230.72, 320.048,227.60z M 170.016,56.00L 52.00,173.696l0.00,164.576 l 118.016,117.712 l 165.008-1.04l 116.976-116.672L 452.00,173.696 L 335.024,56.00L 170.016,56.00 z M 168.032,286.64c-1.488,3.536-3.568,6.528-6.224,8.992 c-3.008,2.704-6.40,4.80-10.176,6.256c-3.776,1.472-8.496,2.192-14.176,2.192c-6.768,0.00-12.496-0.704-17.232-2.096 S 111.04,298.88, 106.88,296.832l0.00-15.504 l 0.88,0.00 c 4.096,3.808, 8.72,6.768, 13.888,8.864s 10.16,3.136, 14.96,3.136 c 6.848,0.00, 12.016-1.424, 15.52-4.272c 3.52-2.864, 5.264-6.608, 5.264-11.28c0.00-3.68-0.928-6.72-2.768-9.04s-4.768-4.048-8.784-5.168 c-2.896-0.848-5.52-1.536-7.888-2.064c-2.384-0.544-5.376-1.28-8.96-2.208c-3.216-0.832-6.112-1.888-8.64-3.184 c-2.544-1.28-4.816-2.976-6.768-5.056c-1.92-2.048-3.424-4.448-4.48-7.216c-1.056-2.784-1.60-5.968-1.60-9.616 c0.00-7.552, 2.944-13.856, 8.832-18.976s 13.408-7.664, 22.544-7.664c 5.216,0.00, 10.16,0.528, 14.816,1.568s 8.976,2.512, 12.944,4.416l0.00,14.768 l-0.944,0.00 c-2.976-2.672-6.768-4.992-11.408-7.008s-9.52-3.008-14.608-3.008c-5.76,0.00-10.416,1.344-13.968,4.032s-5.328,6.208-5.328,10.576 c0.00,3.952, 1.04,7.088, 3.136,9.424c 2.096,2.336, 5.12,4.048, 9.088,5.12c 2.624,0.704, 5.84,1.52, 9.648,2.40s 6.96,1.712, 9.472,2.464 c 6.416,1.968, 11.12,4.928, 14.08,8.896c 2.976,3.952, 4.448,8.832, 4.448,14.624C 170.256,279.504, 169.52,283.088, 168.032,286.64z M 254.192,222.208l-30.256,0.00 l0.00,80.128 l-15.376,0.00 l0.00-80.128 l-29.248,0.00 l0.00-14.00 l 74.88,0.00 L 254.192,222.208 z M 354.128,209.20l 23.376,0.00 c 5.504,0.00, 10.192,0.464, 14.064,1.376 c 3.872,0.928, 7.296,2.40, 10.256,4.432c 3.456,2.368, 6.176,5.392, 8.128,9.024c 1.952,3.664, 2.944,8.064, 2.944,13.216 c0.00,4.048-0.72,7.872-2.16,11.472c-1.44,3.616-3.424,6.688-5.968,9.216c-3.20,3.168-6.992,5.568-11.312,7.184 c-4.336,1.632-9.808,2.432-16.432,2.432l-10.496,0.00 l0.00,34.752 l-12.368,0.00 L 354.16,209.20 z M 340.56,255.792c0.00,7.568-0.96,14.384-2.88,20.48 s-4.688,11.20-8.336,15.344c-3.792,4.336-8.224,7.552-13.28,9.616c-5.072,2.064-10.64,3.088-16.736,3.088 c-6.304,0.00-11.968-1.056-17.008-3.184s-9.376-5.296-13.008-9.52c-3.584-4.144-6.336-9.232-8.256-15.28 c-1.92-6.064-2.88-12.912-2.88-20.544c0.00-7.84, 0.976-14.736, 2.912-20.656c 1.936-5.936, 4.704-11.024, 8.288-15.28 c 3.60-4.144, 7.92-7.28, 12.992-9.424c 5.056-2.16, 10.736-3.232, 16.992-3.232c 6.336,0.00, 12.048,1.104, 17.136,3.328 c 5.072,2.208, 9.376,5.312, 12.88,9.328c 3.552,4.096, 6.304,9.152, 8.272,15.216C 339.584,241.12, 340.56,248.032, 340.56,255.792z" ></path></svg>