<?xml version="1.0" encoding="utf-8"?> <!-- Generator: IcoMoon.io --> <!DOCTYPE svg PUBLIC "-//W3C//DTD SVG 1.1//EN" "http://www.w3.org/Graphics/SVG/1.1/DTD/svg11.dtd"> <svg width="384" height="448" viewBox="0 0 384 448" xmlns="http://www.w3.org/2000/svg" xmlns:xlink="http://www.w3.org/1999/xlink" fill="#333333"><path d="M 64.00,336.00q0.00-6.50 -4.75-11.25t-11.25-4.75t-11.25,4.75t-4.75,11.25t 4.75,11.25t 11.25,4.75t 11.25-4.75t 4.75-11.25zM 352.00,192.00q0.00-12.75 -9.75-22.375t-22.25-9.625l-88.00,0.00 q0.00-14.50 12.00-39.875t 12.00-40.125q0.00-24.50 -8.00-36.25t-32.00-11.75q-6.50,6.50 -9.50,21.25t-7.625,31.375t-14.875,27.375q-5.50,5.75 -19.25,22.75q-1.00,1.25 -5.75,7.50t-7.875,10.25t-8.625,10.625 t-10.00,11.00t-9.625,8.875t-10.00,6.75t-8.875,2.25l-8.00,0.00 l0.00,160.00 l 8.00,0.00 q 3.25,0.00 7.875,0.75t 8.25,1.625t 9.50,2.75t 8.75,2.875t 8.875,3.125t 7.25,2.625q 52.75,18.25 85.50,18.25l 30.25,0.00 q 48.00,0.00 48.00-41.75q0.00-6.50 -1.25-14.00q 7.50-4.00 11.875-13.125t 4.375-18.375t-4.50-17.25q 13.25-12.50 13.25-29.75q0.00-6.25 -2.50-13.875t-6.25-11.875q 8.00-0.25 13.375-11.75t 5.375-20.25zM 384.00,191.75 q0.00,22.25 -12.25,40.75q 2.25,8.25 2.25,17.25q0.00,19.25 -9.50,36.00q 0.75,5.25 0.75,10.75q0.00,25.25 -15.00,44.50q 0.25,34.75 -21.25,54.875t-56.75,20.125l-9.00,0.00 l-23.25,0.00 q-24.00,0.00 -47.375-5.625t-54.125-16.375q-29.00-10.00 -34.50-10.00l-72.00,0.00 q-13.25,0.00 -22.625-9.375t-9.375-22.625l0.00-160.00 q0.00-13.25 9.375-22.625t 22.625-9.375l 68.50,0.00 q 9.00-6.00 34.25-38.75q 14.50-18.75 26.75-32.00 q 6.00-6.25 8.875-21.375t 7.625-31.625t 15.50-27.00q 9.75-9.25 22.50-9.25q 21.00,0.00 37.75,8.125t 25.50,25.375t 8.75,46.50q0.00,23.25 -12.00,48.00l 44.00,0.00 q 26.00,0.00 45.00,19.00t 19.00,44.75z" ></path></svg>