<?xml version="1.0" encoding="utf-8"?> <!-- Generator: IcoMoon.io --> <!DOCTYPE svg PUBLIC "-//W3C//DTD SVG 1.1//EN" "http://www.w3.org/Graphics/SVG/1.1/DTD/svg11.dtd"> <svg width="512" height="512" viewBox="0 0 512 512" xmlns="http://www.w3.org/2000/svg" xmlns:xlink="http://www.w3.org/1999/xlink" fill="#333333"><path d="M 15.552,208.912C 38.416,98.912, 132.88,16.40, 246.048,16.40 c 113.184,0.00, 207.648,82.496, 230.496,192.496L 15.552,208.896 z M 265.104,103.84l-18.272-37.28l-18.784,37.28l-36.784,0.00 l 29.264,29.008l-7.776,39.20l 33.024-16.112 l 37.248,15.84l-11.472-37.584l 30.32-30.368L 265.104,103.824 z M 112.144,458.864c-44.064-32.576-79.728-82.448-93.984-138.08l 93.984,0.00 L 112.144,458.864 z M 143.936,288.256 L 127.664,288.256 l0.00-64.08 l 16.272,0.00 L 143.936,288.256 z M 160.208,224.176l 15.264,0.00 l0.00,64.08 l-15.264,0.00 L 160.208,224.176 z M 160.208,303.52L 143.936,303.52 l0.00-15.264 l 16.272,0.00 L 160.208,303.52 z M 223.008,503.248 c-22.80-2.336-43.632-8.064-64.064-16.592L 158.944,320.784 l 64.064,0.00 L 223.008,503.248 z M 208.00,303.52l0.00-15.264 l 16.272,0.00 l0.00,15.264 L 208.00,303.52 z M 191.728,288.256l0.00-47.808 L 208.00,240.448 l0.00,47.808 L 191.728,288.256 z M 208.00,224.176l 16.272,0.00 l0.00,16.272 L 208.00,240.448 L 208.00,224.176 z M 239.552,240.432l0.00,47.808 l-15.28,0.00 l0.00-47.808 L 239.552,240.432 z M 303.616,224.176l0.00,16.272 l-15.264,0.00 l0.00,63.072 l-16.272,0.00 l0.00-63.072 l-16.272,0.00 l0.00-16.272 L 303.616,224.176 z M 335.888,485.52c-20.40,8.816-41.248,14.832-64.08,17.392L 271.808,320.784 l 64.08,0.00 L 335.888,485.52 z M 319.888,224.176l 47.776,0.00 l0.00,16.272 l-31.536,0.00 l0.00,16.272 l 31.536,0.00 l0.00,16.288 l-31.536,0.00 l0.00,15.264 l 31.536,0.00 l0.00,15.264 l-47.776,0.00 L 319.888,224.176 z M 383.664,456.816l0.00-136.032 l 90.256,0.00 C 459.952,375.248, 426.368,424.288, 383.664,456.816z" ></path></svg>