<?xml version="1.0" encoding="utf-8"?> <!-- Generator: IcoMoon.io --> <!DOCTYPE svg PUBLIC "-//W3C//DTD SVG 1.1//EN" "http://www.w3.org/Graphics/SVG/1.1/DTD/svg11.dtd"> <svg width="384" height="448" viewBox="0 0 384 448" xmlns="http://www.w3.org/2000/svg" xmlns:xlink="http://www.w3.org/1999/xlink" fill="#333333"><path d="M 12.00,55.75q-9.25-0.50 -11.25-1.00l-0.75-22.00q 3.25-0.25 10.00-0.25q 15.00,0.00 28.00,1.00q 33.00,1.75 41.50,1.75q 21.50,0.00 42.00-0.75q 29.00-1.00 36.50-1.25q 14.00,0.00 21.50-0.50l-0.25,3.50l 0.50,16.00l0.00,2.25 q-15.00,2.25 -31.00,2.25q-15.00,0.00 -19.75,6.25q-3.25,3.50 -3.25,33.00q0.00,3.25 0.125,8.125t 0.125,6.375l 0.25,57.25l 3.50,70.00q 1.50,31.00 12.75,50.50q 8.75,14.75 24.00,23.00q 22.00,11.75 44.25,11.75 q 26.00,0.00 47.75-7.00q 14.00-4.50 24.75-12.75q 12.00-9.00 16.25-16.00q 9.00-14.00 13.25-28.50q 5.25-18.25 5.25-57.25q0.00-19.75 -0.875-32.00t-2.75-30.625t-3.375-39.875l-1.00-14.75q-1.25-16.75 -6.00-22.00q-8.50-8.75 -19.25-8.50l-25.00,0.50l-3.50-0.75l 0.50-21.50l 21.00,0.00 l 51.25,2.50q 19.00,0.75 49.00-2.50l 4.50,0.50q 1.50,9.50 1.50,12.75q0.00,1.75 -1.00,7.75q-11.25,3.00 -21.00,3.25q-18.25,2.75 -19.75,4.25q-3.75,3.75 -3.75,10.25 q0.00,1.75 0.375,6.75t 0.375,7.75q 2.00,4.75 5.50,99.00q 1.50,48.75 -3.75,76.00q-3.75,19.00 -10.25,30.50q-9.50,16.25 -28.00,30.75q-18.75,14.25 -45.50,22.25q-27.25,8.25 -63.75,8.25q-41.75,0.00 -71.00-11.50q-29.75-11.75 -44.75-30.50q-15.25-19.00 -20.75-48.75q-4.00-20.00 -4.00-59.25l0.00-83.25 q0.00-47.00 -4.25-53.25q-6.25-9.00 -36.75-9.75zM 384.00,408.00l0.00-16.00 q0.00-3.50 -2.25-5.75t-5.75-2.25l-368.00,0.00 q-3.50,0.00 -5.75,2.25t-2.25,5.75l0.00,16.00 q0.00,3.50 2.25,5.75t 5.75,2.25l 368.00,0.00 q 3.50,0.00 5.75-2.25t 2.25-5.75z" ></path></svg>