<?xml version="1.0" encoding="utf-8"?> <!-- Generator: IcoMoon.io --> <!DOCTYPE svg PUBLIC "-//W3C//DTD SVG 1.1//EN" "http://www.w3.org/Graphics/SVG/1.1/DTD/svg11.dtd"> <svg width="512" height="512" viewBox="0 0 512 512" xmlns="http://www.w3.org/2000/svg" xmlns:xlink="http://www.w3.org/1999/xlink" fill="#333333"><path d="M 344.00,335.808c 30.944,0.00, 56.00,32.256, 56.00,72.00c0.00,39.776-25.056,72.00-56.00,72.00 s-56.00-32.224-56.00-72.00c0.00-23.968, 9.216-45.056, 23.232-58.16L 256.00,270.368l-55.248,79.28C 214.784,362.752, 224.00,383.84, 224.00,407.808 c0.00,39.776-25.072,72.00-56.00,72.00c-30.928,0.00-56.00-32.224-56.00-72.00c0.00-39.744, 25.072-72.00, 56.00-72.00c 3.184,0.00, 6.272,0.56, 9.312,1.216l 55.60-99.808 l-58.096-83.392c-47.376-82.064-9.92-121.664-9.92-121.664L 256.00,195.76l 91.104-163.584c0.00,0.00, 37.456,39.60-9.92,121.664l-58.096,83.392l 55.60,99.808 C 337.712,336.368, 340.816,335.808, 344.00,335.808z M 168.00,367.504c-17.664,0.00-32.00,17.904-32.00,40.00s 14.336,40.00, 32.00,40.00s 32.00-17.904, 32.00-40.00 S 185.664,367.504, 168.00,367.504z M 256.00,225.168c-8.832,0.00-16.00,7.152-16.00,16.00c0.00,8.832, 7.168,16.00, 16.00,16.00c 8.848,0.00, 16.00-7.168, 16.00-16.00 C 272.00,232.32, 264.848,225.168, 256.00,225.168z M 312.00,407.504c0.00,22.096, 14.336,40.00, 32.00,40.00s 32.00-17.904, 32.00-40.00s-14.336-40.00-32.00-40.00S 312.00,385.408, 312.00,407.504z " ></path></svg>