<?xml version="1.0" encoding="utf-8"?> <!-- Generator: IcoMoon.io --> <!DOCTYPE svg PUBLIC "-//W3C//DTD SVG 1.1//EN" "http://www.w3.org/Graphics/SVG/1.1/DTD/svg11.dtd"> <svg width="512" height="512" viewBox="0 0 512 512" xmlns="http://www.w3.org/2000/svg" xmlns:xlink="http://www.w3.org/1999/xlink" fill="#333333"><path d="M 289.488,256.592c 36.624-63.408, 47.072-104.368, 47.072-143.296c0.00-59.408-53.392-81.84-84.416-81.84s-84.112,21.664-84.112,81.856 c0.00,38.432, 9.92,79.76, 46.496,142.736l-85.84,151.36l 36.576,73.152L 251.20,321.44l 96.464,159.12l 35.664-66.224L 289.488,256.592z M 214.336,103.376 c0.00-30.544, 18.784-37.20, 37.744-37.20c 19.008,0.00, 37.248,6.496, 37.248,37.056s-37.20,81.456-37.20,81.456S 214.336,133.952, 214.336,103.376z" ></path></svg>