<?xml version="1.0" encoding="utf-8"?> <!-- Generator: IcoMoon.io --> <!DOCTYPE svg PUBLIC "-//W3C//DTD SVG 1.1//EN" "http://www.w3.org/Graphics/SVG/1.1/DTD/svg11.dtd"> <svg width="512" height="512" viewBox="0 0 512 512" xmlns="http://www.w3.org/2000/svg" xmlns:xlink="http://www.w3.org/1999/xlink" fill="#333333"><path d="M 256.00,464.00C 141.136,464.00, 48.00,370.88, 48.00,256.00S 141.136,48.00, 256.00,48.00c 114.88,0.00, 208.00,93.12, 208.00,208.00S 370.88,464.00, 256.00,464.00z M 256.00,416.00c 35.376,0.00, 67.984-11.632, 94.48-31.056L 127.072,161.552C 107.616,188.032, 96.00,220.624, 96.00,256.00C 96.00,344.352, 167.632,416.00, 256.00,416.00z M 256.00,96.00 c-35.648,0.00-68.464,11.792-95.056,31.52l 223.536,223.552C 404.192,324.464, 416.00,291.664, 416.00,256.00C 416.00,167.632, 344.368,96.00, 256.00,96.00z" ></path></svg>