<?xml version="1.0" encoding="utf-8"?> <!-- Generator: IcoMoon.io --> <!DOCTYPE svg PUBLIC "-//W3C//DTD SVG 1.1//EN" "http://www.w3.org/Graphics/SVG/1.1/DTD/svg11.dtd"> <svg width="500.00000000000006" height="500" viewBox="0 0 500 500" xmlns="http://www.w3.org/2000/svg" xmlns:xlink="http://www.w3.org/1999/xlink" fill="#333333"><path d="M 250.00,10.00c-132.55,0.00-240.00,107.45-240.00,240.00s 107.45,240.00, 240.00,240.00s 240.00-107.45, 240.00-240.00S 382.55,10.00, 250.00,10.00z M 62.75,192.00l 122.175,54.40L 157.875,246.40 l0.00,37.375 l 56.20,0.00 l 5.50,11.375l0.00,18.125 L 157.875,313.275 l0.00,37.35 l 61.70,0.00 l0.00,54.25 l 59.725,0.00 l0.00-54.25 l 62.125,0.00 l0.00-34.525 l 76.925,34.25C 384.15,407.625, 321.55,446.00, 250.00,446.00 c-108.25,0.00-196.00-87.75-196.00-196.00C 54.00,229.80, 57.05,210.325, 62.75,192.00z M 279.325,313.25l0.00-18.125 l 2.80-5.45l 52.95,23.55L 279.325,313.225 z M 341.425,263.575L 341.425,246.375 l-37.35,0.00 l 60.95-112.25l-63.70,0.00 l-41.95,92.90L 237.075,217.125L 198.75,134.125L 135.05,134.125 L 161.50,183.45L 82.45,148.275 C 116.85,91.75, 179.00,54.00, 250.00,54.00c 108.25,0.00, 196.00,87.75, 196.00,196.00c0.00,19.625-2.925,38.55-8.275,56.425L 341.425,263.575z" ></path></svg>