<?xml version="1.0" encoding="utf-8"?> <!-- Generator: IcoMoon.io --> <!DOCTYPE svg PUBLIC "-//W3C//DTD SVG 1.1//EN" "http://www.w3.org/Graphics/SVG/1.1/DTD/svg11.dtd"> <svg width="500.00000000000006" height="500" viewBox="0 0 500 500" xmlns="http://www.w3.org/2000/svg" xmlns:xlink="http://www.w3.org/1999/xlink" fill="#333333"><path d="M 250.00,10.00c-132.55,0.00-240.00,107.45-240.00,240.00s 107.45,240.00, 240.00,240.00s 240.00-107.45, 240.00-240.00S 382.55,10.00, 250.00,10.00z M 64.575,186.50l 77.225,34.15 c-1.95,9.925-3.00,20.275-3.00,30.90c0.00,95.825, 71.50,122.80, 116.50,122.80c 26.55,0.00, 49.475-8.55, 67.45-21.125 c 3.425-2.45, 6.525-4.90, 9.375-7.425l-34.975-42.50c-1.025,1.175-2.10,2.275-3.20,3.275c-13.625,12.925-28.575,12.925-31.90,12.925 c-36.275,0.00-51.625-37.90-52.10-68.675l 211.775,93.725c-33.375,60.475-97.75,101.45-171.70,101.45c-108.25,0.00-196.00-87.75-196.00-196.00 C 54.00,227.75, 57.775,206.425, 64.575,186.50z M 220.30,203.65C 228.15,189.45, 241.15,178.25, 259.775,178.25c 10.825,0.00, 19.375,3.60, 26.125,8.10 c 2.80,2.025, 5.225,4.05, 7.275,6.075l 39.075-40.20c-26.25-22.575-56.075-26.60-75.60-26.60c-45.85,0.00-79.075,20.525-98.225,50.625 L 85.275,143.85C 120.175,89.825, 180.875,54.00, 250.00,54.00c 108.25,0.00, 196.00,87.75, 196.00,196.00c0.00,17.50-2.325,34.45-6.625,50.55L 220.30,203.65z" ></path></svg>