<?xml version="1.0" encoding="utf-8"?> <!-- Generator: IcoMoon.io --> <!DOCTYPE svg PUBLIC "-//W3C//DTD SVG 1.1//EN" "http://www.w3.org/Graphics/SVG/1.1/DTD/svg11.dtd"> <svg width="512" height="512" viewBox="0 0 512 512" xmlns="http://www.w3.org/2000/svg" xmlns:xlink="http://www.w3.org/1999/xlink" fill="#333333"><path d="M 512.00,134.833c0.00-49.146-40.00-89.124-89.167-89.124c-2.396,0.00-4.771,0.083-7.146,0.27 C 392.562,17.146, 357.709,0.00, 320.00,0.00c-37.688,0.00-72.562,17.146-95.688,45.979c-2.375-0.187-4.771-0.27-7.188-0.27 C 168.00,45.709, 128.00,85.688, 128.00,134.833c0.00,5.146, 0.688,10.125, 1.50,15.042c-0.542,0.708-1.188,1.354-1.708,2.083 c-5.229-0.75-10.479-1.125-15.792-1.125c-61.75,0.00-112.00,50.25-112.00,112.00c0.00,61.751, 50.25,112.00, 112.00,112.00c 13.688,0.00, 27.084-2.499, 39.709-7.333 c 18.354,16.00, 40.104,26.938, 63.207,33.208L 192.00,416.00l 32.00,32.00l-32.00,64.00l 96.00-64.00l-32.00-32.00l 4.812-9.583c 36.75-1.125, 71.75-14.729, 99.479-38.917 c 12.625,4.834, 26.021,7.333, 39.709,7.333c 61.75,0.00, 112.00-50.249, 112.00-112.00c0.00-25.666-9.042-49.083-23.666-68.00 C 502.916,178.958, 512.00,158.021, 512.00,134.833z M 400.00,342.833c-17.125,0.00-32.916-5.50-45.938-14.646c-19.00,22.896-45.75,38.729-76.229,44.125 l-23.771,2.312C 215.25,374.00, 181.00,356.00, 157.938,328.188c-13.00,9.146-28.812,14.646-45.938,14.646c-44.188,0.00-80.00-35.791-80.00-80.00 c0.00-44.167, 35.812-80.00, 80.00-80.00c 10.812,0.00, 21.062,2.209, 30.438,6.083c 0.562-1.083, 1.25-2.00, 1.812-3.042 c 5.625-10.271, 12.562-19.667, 20.666-28.042c 23.084-23.896, 55.167-39.00, 91.084-39.00c 49.709,0.00, 92.334,28.667, 113.541,70.083 c 5.646-2.333, 11.668-3.833, 17.875-4.833l 12.584-1.25c 12.334,0.00, 23.875,3.042, 34.312,8.00c 11.312,5.417, 21.021,13.375, 28.646,23.208 c 10.50,13.521, 17.042,30.334, 17.042,48.792C 480.00,307.042, 444.188,342.833, 400.00,342.833z M 465.562,172.458 c-18.479-13.438-41.00-21.625-65.562-21.625c-5.312,0.00-10.562,0.375-15.792,1.125C 354.334,111.271, 307.188,86.833, 256.00,86.833 c-34.125,0.00-66.312,11.062-92.938,30.354c 7.479-22.853, 28.729-39.478, 54.062-39.478c 7.75,0.00, 15.062,1.562, 21.75,4.333 C 254.062,52.458, 284.50,32.00, 320.00,32.00s 65.958,20.458, 81.084,50.042c 6.729-2.771, 14.083-4.333, 21.749-4.333 c 31.584,0.00, 57.167,25.583, 57.167,57.124C 480.00,149.333, 474.438,162.396, 465.562,172.458z" ></path></svg>