<?xml version="1.0" encoding="utf-8"?> <!-- Generator: IcoMoon.io --> <!DOCTYPE svg PUBLIC "-//W3C//DTD SVG 1.1//EN" "http://www.w3.org/Graphics/SVG/1.1/DTD/svg11.dtd"> <svg width="480" height="448" viewBox="0 0 480 448" xmlns="http://www.w3.org/2000/svg" xmlns:xlink="http://www.w3.org/1999/xlink" fill="#333333"><path d="M 448.00,248.00l0.00-208.00 q0.00-3.25 -2.375-5.625t-5.625-2.375l-400.00,0.00 q-3.25,0.00 -5.625,2.375t-2.375,5.625l0.00,208.00 q0.00,3.25 2.375,5.625t 5.625,2.375l 400.00,0.00 q 3.25,0.00 5.625-2.375t 2.375-5.625zM 480.00,40.00l0.00,272.00 q0.00,16.50 -11.75,28.25t-28.25,11.75l-136.00,0.00 q0.00,9.25 4.00,19.375t 8.00,17.75t 4.00,10.875q0.00,6.50 -4.75,11.25t-11.25,4.75l-128.00,0.00 q-6.50,0.00 -11.25-4.75 t-4.75-11.25q0.00-3.50 4.00-11.00t 8.00-17.50t 4.00-19.50l-136.00,0.00 q-16.50,0.00 -28.25-11.75t-11.75-28.25l0.00-272.00 q0.00-16.50 11.75-28.25t 28.25-11.75l 400.00,0.00 q 16.50,0.00 28.25,11.75t 11.75,28.25z" ></path></svg>