<?xml version="1.0" encoding="utf-8"?> <!-- Generator: IcoMoon.io --> <!DOCTYPE svg PUBLIC "-//W3C//DTD SVG 1.1//EN" "http://www.w3.org/Graphics/SVG/1.1/DTD/svg11.dtd"> <svg width="480" height="448" viewBox="0 0 480 448" xmlns="http://www.w3.org/2000/svg" xmlns:xlink="http://www.w3.org/1999/xlink" fill="#333333"><path d="M 475.00,64.50q 5.00,2.00 5.00,7.50l0.00,304.00 q0.00,5.50 -5.00,7.50q-2.00,0.50 -3.00,0.50q-3.00,0.00 -5.75-2.25l-146.25-146.50l0.00,76.75 q0.00,29.75 -21.125,50.875t-50.875,21.125l-176.00,0.00 q-29.75,0.00 -50.875-21.125t-21.125-50.875l0.00-176.00 q0.00-29.75 21.125-50.875t 50.875-21.125l 176.00,0.00 q 29.75,0.00 50.875,21.125t 21.125,50.875l0.00,76.75 l 146.25-146.50q 4.00-3.75 8.75-1.75z" ></path></svg>