<?xml version="1.0" encoding="utf-8"?> <!-- Generator: IcoMoon.io --> <!DOCTYPE svg PUBLIC "-//W3C//DTD SVG 1.1//EN" "http://www.w3.org/Graphics/SVG/1.1/DTD/svg11.dtd"> <svg width="512" height="512" viewBox="0 0 512 512" xmlns="http://www.w3.org/2000/svg" xmlns:xlink="http://www.w3.org/1999/xlink" fill="#333333"><path d="M 208.531,177.271c-3.604-3.396-7.791-6.084-12.541-8.062c-4.812-1.938-9.938-2.938-15.375-2.938 c-5.459,0.00-10.584,1.00-15.375,2.938c-4.75,1.979-8.938,4.667-12.542,8.062c-3.583,3.416-6.396,7.416-8.459,12.041 c-2.042,4.605-3.062,9.479-3.062,14.584c0.00,5.125, 1.02,10.00, 3.062,14.604c 2.063,4.604, 4.876,8.625, 8.459,12.021 c 3.604,3.416, 7.792,6.125, 12.542,8.062c 4.791,1.979, 9.916,2.958, 15.375,2.958c 5.438,0.00, 10.562-0.979, 15.375-2.958 c 4.75-1.938, 8.938-4.646, 12.541-8.062c 3.584-3.396, 6.396-7.417, 8.416-12.021c 2.042-4.604, 3.105-9.479, 3.105-14.604 c0.00-5.104-1.063-9.979-3.105-14.584C 214.927,184.687, 212.115,180.687, 208.531,177.271z M 193.177,215.937 c-3.438,3.417-7.625,5.126-12.562,5.126s-9.125-1.709-12.562-5.126c-3.396-3.416-5.125-7.416-5.125-12.041 c0.00-4.75, 1.729-8.833, 5.125-12.146c 3.438-3.333, 7.625-4.979, 12.562-4.979s 9.125,1.646, 12.562,4.979 c 3.374,3.312, 5.104,7.396, 5.104,12.146C 198.281,208.521, 196.551,212.521, 193.177,215.937z M 370.822,200.833l0.00-31.50 L 249.24,169.333 l0.00,176.396 l 35.063,0.00 l0.00-71.938 l 73.979,0.00 l0.00-31.479 l-73.979,0.00 l0.00-41.479 L 370.822,200.833 z" ></path></svg>