<?xml version="1.0" encoding="utf-8"?> <!-- Generator: IcoMoon.io --> <!DOCTYPE svg PUBLIC "-//W3C//DTD SVG 1.1//EN" "http://www.w3.org/Graphics/SVG/1.1/DTD/svg11.dtd"> <svg width="500.00000000000006" height="500" viewBox="0 0 500 500" xmlns="http://www.w3.org/2000/svg" xmlns:xlink="http://www.w3.org/1999/xlink" fill="#333333"><path d="M 203.20,345.05c-17.25,29.90-5.65,54.50, 18.275,68.30s 51.05,11.60, 68.30-18.30c 17.25-29.875, 126.175-296.65, 116.70-302.125 C 397.025,87.45, 220.45,315.15, 203.20,345.05z M 250.00,155.05c 10.95,0.00, 21.625,0.95, 32.025,2.70c 10.95-13.70, 23.225-28.80, 35.15-43.175 C 295.875,108.40, 273.40,105.05, 250.00,105.05c-140.175,0.00-250.00,118.20-250.00,269.10c0.00,9.30, 0.425,18.575, 1.225,27.625 c 1.225,13.75, 13.50,23.875, 27.125,22.675c 13.75-1.25, 23.90-13.375, 22.675-27.125C 50.35,389.75, 50.00,381.95, 50.00,374.15 C 50.00,251.30, 137.875,155.05, 250.00,155.05z M 430.475,186.275c-6.975,18.75-14.35,37.85-20.85,54.375C 435.05,277.40, 450.00,323.475, 450.00,374.15 c0.00,7.925-0.35,15.90-1.05,23.625c-1.25,13.75, 8.875,25.90, 22.625,27.175c 0.775,0.075, 1.525,0.10, 2.30,0.10 c 12.775,0.00, 23.675-9.775, 24.85-22.725C 499.575,393.075, 500.00,383.60, 500.00,374.15C 500.00,300.375, 473.70,234.425, 430.475,186.275z" ></path></svg>