<?xml version="1.0" encoding="utf-8"?> <!-- Generator: IcoMoon.io --> <!DOCTYPE svg PUBLIC "-//W3C//DTD SVG 1.1//EN" "http://www.w3.org/Graphics/SVG/1.1/DTD/svg11.dtd"> <svg width="512" height="512" viewBox="0 0 512 512" xmlns="http://www.w3.org/2000/svg" xmlns:xlink="http://www.w3.org/1999/xlink" fill="#333333"><path d="M 432.00,448.496l-32.00,0.00 l0.00,31.008 l-64.00,0.00 l0.00-31.008 L 160.00,448.496 l0.00,31.008 L 96.00,479.504 l0.00-31.008 L 64.00,448.496 c-17.68,0.00-32.00-14.336-32.00-32.00l0.00-272.00 c0.00-17.68, 14.32-32.00, 32.00-32.00l 368.00,0.00 c 17.664,0.00, 32.00,14.336, 32.00,32.00l0.00,272.00 C 464.00,434.176, 449.664,448.496, 432.00,448.496z M 335.984,256.496L 272.00,256.496 l0.00-64.00 l-48.00,0.00 l0.00,64.00 l-64.00,0.00 l0.00,48.00 l 64.00,0.00 l0.00,64.00 l 48.00,0.00 l0.00-64.00 l 63.984,0.00 L 335.984,256.496 z M 304.00,64.16l-96.00,0.00 l0.00,32.336 l-32.00,0.00 L 176.00,80.832 l 16.00,0.00 L 192.00,32.496 l 127.328,0.00 l0.00,48.00 L 336.00,80.496 l0.00,16.00 l-32.00,0.00 L 304.00,64.16 z" ></path></svg>