<?xml version="1.0" encoding="utf-8"?> <!-- Generator: IcoMoon.io --> <!DOCTYPE svg PUBLIC "-//W3C//DTD SVG 1.1//EN" "http://www.w3.org/Graphics/SVG/1.1/DTD/svg11.dtd"> <svg width="512" height="512" viewBox="0 0 512 512" xmlns="http://www.w3.org/2000/svg" xmlns:xlink="http://www.w3.org/1999/xlink" fill="#333333"><path d="M 256.00,480.00q-55.50,0.00 -100.00-13.25t-80.50-42.25t-55.75-79.75t-19.75-120.75l0.00-128.00 q0.00-26.50 18.75-45.25t 45.25-18.75l 384.00,0.00 q 26.50,0.00 45.25,18.75t 18.75,45.25l0.00,128.00 q0.00,70.00 -19.75,120.75t-55.75,79.75t-80.50,42.25t-100.00,13.25zM 256.00,320.00q-21.50,0.00 -37.75-5.50t-30.00-19.00t-21.00-39.50t-7.25-64.00l0.00-64.00 l-96.00,0.00 l0.00,96.00 q 0.50,42.00 10.75,75.00t 27.25,54.75t 41.50,36.00t 52.25,20.25t 60.25,6.00q 38.00,0.00 69.25-8.50t 57.75-26.75t 43.25-50.00t 21.75-74.75l-96.00,0.00 q-18.50,64.00 -96.00,64.00zM 384.00,96.00l-32.00,96.00l 96.00,32.00l 32.00-96.00z" ></path></svg>