<?xml version="1.0" encoding="utf-8"?> <!-- Generator: IcoMoon.io --> <!DOCTYPE svg PUBLIC "-//W3C//DTD SVG 1.1//EN" "http://www.w3.org/Graphics/SVG/1.1/DTD/svg11.dtd"> <svg width="448" height="448" viewBox="0 0 448 448" xmlns="http://www.w3.org/2000/svg" xmlns:xlink="http://www.w3.org/1999/xlink" fill="#333333"><path d="M 320.00,280.00l0.00-48.00 q0.00-3.50 -2.25-5.75t-5.75-2.25l-56.00,0.00 l0.00-56.00 q0.00-3.50 -2.25-5.75t-5.75-2.25l-48.00,0.00 q-3.50,0.00 -5.75,2.25t-2.25,5.75l0.00,56.00 l-56.00,0.00 q-3.50,0.00 -5.75,2.25t-2.25,5.75l0.00,48.00 q0.00,3.50 2.25,5.75t 5.75,2.25l 56.00,0.00 l0.00,56.00 q0.00,3.50 2.25,5.75t 5.75,2.25l 48.00,0.00 q 3.50,0.00 5.75-2.25t 2.25-5.75l0.00-56.00 l 56.00,0.00 q 3.50,0.00 5.75-2.25t 2.25-5.75zM 160.00,96.00l 128.00,0.00 l0.00-32.00 l-128.00,0.00 l0.00,32.00 zM 64.00,96.00l0.00,320.00 l-8.00,0.00 q-23.00,0.00 -39.50-16.50t-16.50-39.50l0.00-208.00 q0.00-23.00 16.50-39.50t 39.50-16.50l 8.00,0.00 zM 360.00,96.00l0.00,320.00 l-272.00,0.00 l0.00-320.00 l 40.00,0.00 l0.00-40.00 q0.00-10.00 7.00-17.00t 17.00-7.00l 144.00,0.00 q 10.00,0.00 17.00,7.00t 7.00,17.00l0.00,40.00 l 40.00,0.00 zM 448.00,152.00l0.00,208.00 q0.00,23.00 -16.50,39.50t-39.50,16.50l-8.00,0.00 l0.00-320.00 l 8.00,0.00 q 23.00,0.00 39.50,16.50t 16.50,39.50z" ></path></svg>