<?xml version="1.0" encoding="utf-8"?> <!-- Generator: IcoMoon.io --> <!DOCTYPE svg PUBLIC "-//W3C//DTD SVG 1.1//EN" "http://www.w3.org/Graphics/SVG/1.1/DTD/svg11.dtd"> <svg width="500.00000000000006" height="500" viewBox="0 0 500 500" xmlns="http://www.w3.org/2000/svg" xmlns:xlink="http://www.w3.org/1999/xlink" fill="#333333"><path d="M 50.05,69.975l0.00,59.20 c 177.15,0.00, 320.75,143.625, 320.75,320.775l 59.225,0.00 C 430.025,240.10, 259.90,69.975, 50.05,69.975z M 50.05,188.40l0.00,59.225 c 111.75,0.00, 202.35,90.575, 202.35,202.325l 59.175,0.00 C 311.575,305.525, 194.50,188.40, 50.05,188.40z M 106.80,336.45c-31.325,0.00-56.75,25.425-56.75,56.775 s 25.425,56.75, 56.75,56.75c 31.35,0.00, 56.775-25.40, 56.775-56.75S 138.15,336.45, 106.80,336.45z" ></path></svg>