<?xml version="1.0" encoding="utf-8"?> <!-- Generator: IcoMoon.io --> <!DOCTYPE svg PUBLIC "-//W3C//DTD SVG 1.1//EN" "http://www.w3.org/Graphics/SVG/1.1/DTD/svg11.dtd"> <svg width="512" height="512" viewBox="0 0 512 512" xmlns="http://www.w3.org/2000/svg" xmlns:xlink="http://www.w3.org/1999/xlink" fill="#333333"><path d="M 394.448,171.696c0.00,0.00, 7.664-103.104-86.816-114.88c-80.992-8.272-105.632,66.992-105.632,66.992S 177.648,100.352, 144.544,119.52 c-29.616,18.288-24.368,51.744-24.368,51.744S 54.40,184.048, 54.40,251.088c 1.472,66.976, 71.424,67.648, 71.424,67.648l 257.312,0.00 c0.00,0.00, 65.088,0.064, 74.256-63.632C 461.728,185.44, 394.448,171.696, 394.448,171.696z M 157.248,393.152c 20.656-31.872, 15.824-36.352-14.48-13.488 c-7.936-37.136-14.528-36.912-19.776,0.704c-31.872-20.656-36.368-15.824-13.504,14.48c-37.136,7.936-36.912,14.528, 0.704,19.792 c-20.656,31.856-15.808,36.352, 14.496,13.488c 7.92,37.136, 14.512,36.912, 19.776-0.704c 31.872,20.656, 36.368,15.824, 13.488-14.496 C 195.104,405.008, 194.864,398.416, 157.248,393.152z M 269.248,393.152c 20.656-31.872, 15.824-36.352-14.48-13.488 c-7.936-37.136-14.528-36.912-19.776,0.704c-31.872-20.656-36.368-15.824-13.504,14.48c-37.136,7.936-36.912,14.528, 0.704,19.792 c-20.656,31.856-15.808,36.352, 14.496,13.488c 7.92,37.136, 14.512,36.912, 19.776-0.704c 31.872,20.656, 36.368,15.824, 13.488-14.496 C 307.104,405.008, 306.864,398.416, 269.248,393.152z M 381.248,393.152c 20.656-31.872, 15.824-36.352-14.48-13.488 c-7.936-37.136-14.528-36.912-19.776,0.704c-31.872-20.656-36.368-15.824-13.504,14.48c-37.136,7.936-36.912,14.528, 0.704,19.792 c-20.656,31.856-15.824,36.352, 14.48,13.488c 7.936,37.136, 14.528,36.912, 19.792-0.704c 31.856,20.656, 36.352,15.824, 13.488-14.496 C 419.104,405.008, 418.864,398.416, 381.248,393.152z" ></path></svg>