<?xml version="1.0" encoding="utf-8"?> <!-- Generator: IcoMoon.io --> <!DOCTYPE svg PUBLIC "-//W3C//DTD SVG 1.1//EN" "http://www.w3.org/Graphics/SVG/1.1/DTD/svg11.dtd"> <svg width="512" height="512" viewBox="0 0 512 512" xmlns="http://www.w3.org/2000/svg" xmlns:xlink="http://www.w3.org/1999/xlink" fill="#333333"><path d="M 460.624,162.448c-0.096-0.24-0.224-0.48-0.336-0.736l 0.464,0.08L 460.624,162.448z M 404.00,355.472l-74.688,3.104l-39.008-68.56l 40.368-72.896l 78.192,2.592l 33.376,68.144L 404.00,355.472z M 203.328,289.04l-39.184-70.896 l 40.96-68.336l 83.536-1.28l 41.024,68.048l-40.32,72.752L 203.328,289.04z M 205.056,148.64l-30.88-53.168l 41.024-50.048l 71.60-2.288l 38.16,47.264 l-36.528,56.96L 205.056,148.64z M 165.984,355.984l-66.16-6.464l-31.872-63.728l 27.808-64.608l 67.28-2.576l 39.20,70.928L 165.984,355.984z M 396.976,98.544l 6.336-12.592c 24.00,20.816, 43.472,46.592, 56.976,75.76l-23.712-3.776L 396.976,98.544z M 326.16,90.00l-38.224-47.312 c 0.944-1.152, 6.032-7.344, 6.128-7.44c-34.256-5.728-65.504-2.80-86.096,2.032c 0.144,0.096, 5.104,6.368, 6.128,7.664l-41.04,50.048 L 111.856,105.296L 106.40,88.608L 105.456,88.896C 145.36,52.928, 198.032,30.832, 256.00,30.832c 55.968,0.00, 107.024,20.528, 146.40,54.32l-6.464,12.864L 326.16,90.00z M 74.224,163.552l-25.728,6.064l 0.288,1.12l 25.28-5.952l 20.80,55.552l-27.904,64.848c-3.776-0.368-32.976-3.168-32.976-1.392 c 5.12,42.96, 21.424,80.336, 49.504,115.296l 16.48-48.368l 66.048,6.448l 41.712,63.296l-28.80,46.896C 92.608,435.824, 30.832,353.232, 30.832,256.00 c0.00-66.336, 28.848-125.76, 74.48-166.976l 5.536,16.992L 74.224,163.552z M 285.744,422.96l 34.336,48.08l 0.976-0.688l-34.128-47.728l 42.40-62.88 l 74.624-3.088c 1.504,3.376, 20.624,46.368, 20.496,46.368c 31.472-36.848, 47.28-73.776, 52.992-115.872c-0.064,0.00-30.624,0.128-34.224,0.16 l-33.408-68.288l 26.944-59.856l 23.776,3.792l 0.064-0.496c 13.056,28.512, 20.528,60.128, 20.528,93.552c0.00,124.352-100.816,225.168-225.152,225.168 c-26.704,0.00-52.192-4.896-75.952-13.424l 28.752-46.80L 285.744,422.96z M 179.744,468.272l-0.992-0.608l 0.192-0.32 c 0.368,0.144, 0.752,0.272, 1.12,0.40L 179.744,468.272z M 105.296,88.96l 0.176-0.064C 105.408,88.944, 105.36,88.992, 105.328,89.024L 105.296,88.96z M 402.624,84.72l 1.024,0.512l-0.336,0.72c-0.32-0.272-0.592-0.544-0.912-0.816L 402.624,84.72z" ></path></svg>