<?xml version="1.0" encoding="utf-8"?> <!-- Generator: IcoMoon.io --> <!DOCTYPE svg PUBLIC "-//W3C//DTD SVG 1.1//EN" "http://www.w3.org/Graphics/SVG/1.1/DTD/svg11.dtd"> <svg width="512" height="512" viewBox="0 0 512 512" xmlns="http://www.w3.org/2000/svg" xmlns:xlink="http://www.w3.org/1999/xlink" fill="#333333"><path d="M 480.00,416.00l0.00-96.00 l-64.00,0.00 l0.00,96.00 l-32.00,0.00 l0.00-32.00 l-256.00,0.00 l0.00,32.00 l-32.00,0.00 l0.00-96.00 l-64.00,0.00 l0.00,96.00 l-32.00,0.00 l0.00-128.00 l 32.00,0.00 l0.00-64.00 l 64.00,0.00 l0.00-64.00 l 64.00,0.00 l0.00-32.00 l 32.00,0.00 l0.00,32.00 l 128.00,0.00 l0.00-32.00 l 32.00,0.00 l0.00,32.00 l 64.00,0.00 l0.00,64.00 l 64.00,0.00 l0.00,64.00 l 32.00,0.00 l0.00,32.00 l0.00,96.00 l-32.00,0.00 zM 192.00,224.00l-64.00,0.00 l0.00,64.00 l 64.00,0.00 l0.00-64.00 zM 384.00,224.00l-64.00,0.00 l0.00,64.00 l 64.00,0.00 l0.00-64.00 zM 288.00,448.00l0.00-32.00 l 96.00,0.00 l0.00,32.00 l-96.00,0.00 zM 224.00,448.00l-96.00,0.00 l0.00-32.00 l 96.00,0.00 l0.00,32.00 z M 128.00,96.00l 32.00,0.00 l0.00,32.00 l-32.00,0.00 l0.00-32.00 zM 64.00,64.00l 64.00,0.00 l0.00,32.00 l-64.00,0.00 l0.00-32.00 zM 384.00,96.00l0.00,32.00 l-32.00,0.00 l0.00-32.00 l 32.00,0.00 zM 448.00,64.00l0.00,32.00 l-64.00,0.00 l0.00-32.00 l 64.00,0.00 z" ></path></svg>