<?xml version="1.0" encoding="utf-8"?> <!-- Generator: IcoMoon.io --> <!DOCTYPE svg PUBLIC "-//W3C//DTD SVG 1.1//EN" "http://www.w3.org/Graphics/SVG/1.1/DTD/svg11.dtd"> <svg width="512" height="512" viewBox="0 0 512 512" xmlns="http://www.w3.org/2000/svg" xmlns:xlink="http://www.w3.org/1999/xlink" fill="#333333"><path d="M 128.496,264.00c0.00,66.288, 53.728,120.00, 120.00,120.00c 66.288,0.00, 120.00-53.712, 120.00-120.00 S 314.784,144.00, 248.496,144.00C 182.224,144.00, 128.496,197.712, 128.496,264.00z M 248.496,60.00l-33.744,67.504l 67.504,0.00 L 248.496,60.00z M 392.688,119.312l-71.60,23.856 l 47.712,47.728L 392.688,119.312z M 175.904,143.168L 104.32,119.312l 23.856,71.60L 175.904,143.168z M 111.504,229.744L 44.00,263.504l 67.504,33.744L 111.504,229.744 z M 384.496,298.256l 67.504-33.744l-67.504-33.744L 384.496,298.256 z M 248.496,468.00l 33.744-67.504l-67.504,0.00 L 248.496,468.00z M 321.088,384.832l 71.60,23.856 l-23.872-71.60L 321.088,384.832z M 104.32,408.688l 71.60-23.856l-47.728-47.728L 104.32,408.688z" ></path></svg>