<?xml version="1.0" encoding="utf-8"?> <!-- Generator: IcoMoon.io --> <!DOCTYPE svg PUBLIC "-//W3C//DTD SVG 1.1//EN" "http://www.w3.org/Graphics/SVG/1.1/DTD/svg11.dtd"> <svg width="512" height="512" viewBox="0 0 512 512" xmlns="http://www.w3.org/2000/svg" xmlns:xlink="http://www.w3.org/1999/xlink" fill="#333333"><path d="M 177.615,288.00c 7.438-36.521, 39.688-64.00, 78.396-64.00 c 38.709,0.00, 70.958,27.479, 78.376,64.00l 32.00,0.00 c-7.834-54.125-54.084-96.00-110.376-96.00c-56.271,0.00-102.541,41.875-110.375,96.00L 177.615,288.00 z M 256.011,160.00c 8.833,0.00, 16.00-7.167, 16.00-16.00l0.00-32.00 c0.00-8.833-7.167-16.00-16.00-16.00c-8.832,0.00-16.00,7.167-16.00,16.00l0.00,32.00 C 240.011,152.833, 247.179,160.00, 256.011,160.00z M 403.073,156.917c-6.249-6.25-16.374-6.25-22.625,0.00l-22.625,22.625 c-6.249,6.25-6.249,16.375,0.00,22.625c 6.251,6.25, 16.376,6.25, 22.625,0.00l 22.625-22.625 C 409.323,173.292, 409.323,163.167, 403.073,156.917z M 154.177,179.542l-22.625-22.625c-6.249-6.25-16.373-6.25-22.625,0.00 c-6.249,6.25-6.249,16.375,0.00,22.625l 22.625,22.625c 6.252,6.25, 16.376,6.25, 22.625,0.00 C 160.429,195.917, 160.429,185.792, 154.177,179.542z M 352.011,320.00l-192.00,0.00 c-8.832,0.00-16.00,7.167-16.00,16.00s 7.168,16.00, 16.00,16.00l 192.00,0.00 c 8.833,0.00, 16.00-7.167, 16.00-16.00S 360.844,320.00, 352.011,320.00z M 320.011,384.00l-128.00,0.00 c-8.832,0.00-16.00,7.167-16.00,16.00s 7.168,16.00, 16.00,16.00l 128.00,0.00 c 8.833,0.00, 16.00-7.167, 16.00-16.00S 328.844,384.00, 320.011,384.00z" ></path></svg>