<?xml version="1.0" encoding="utf-8"?> <!-- Generator: IcoMoon.io --> <!DOCTYPE svg PUBLIC "-//W3C//DTD SVG 1.1//EN" "http://www.w3.org/Graphics/SVG/1.1/DTD/svg11.dtd"> <svg width="512" height="512" viewBox="0 0 512 512" xmlns="http://www.w3.org/2000/svg" xmlns:xlink="http://www.w3.org/1999/xlink" fill="#333333"><path d="M 303.344,286.608l0.00-14.672 l 49.008,0.00 l0.00,14.672 L 303.344,286.608 z M 303.344,239.60l 49.008,0.00 l0.00,15.664 l-49.008,0.00 L 303.344,239.60 z M 303.344,208.24l 49.008,0.00 l0.00,15.68 l-49.008,0.00 L 303.344,208.24 z M 303.344,175.888l 49.008,0.00 l0.00,15.664 l-49.008-0.992L 303.344,175.888 z M 303.344,142.544l 49.008,0.00 l0.00,16.672 l-49.008,0.00 L 303.344,142.544 z M 303.344,111.20l 49.008,0.00 L 352.352,126.88 l-49.008,0.00 L 303.344,111.20 z M 331.728,386.448c0.00,51.936-42.112,94.048-94.048,94.048s-94.048-42.112-94.048-94.048 c0.00-35.616, 18.80-66.576, 47.984-82.544L 191.616,94.512 c0.00-25.968, 22.048-47.008, 48.016-47.008s 47.024,21.04, 47.024,47.008l0.00,211.76 C 313.664,322.816, 331.728,352.48, 331.728,386.448z M 270.992,315.76L 270.992,94.512 c0.00-17.312-14.032-31.344-31.344-31.344s-31.344,14.032-31.344,31.344l0.00,219.376 c-28.704,11.648-48.992,39.68-48.992,72.56c0.00,43.28, 35.088,78.368, 78.368,78.368c 43.28,0.00, 78.352-35.088, 78.352-78.368 C 316.048,355.12, 297.552,328.32, 270.992,315.76z M 237.68,449.152c-34.64,0.00-62.704-28.08-62.704-62.704c0.00-29.904, 20.976-54.816, 48.992-61.088 l0.00-149.472 l 31.36,0.00 l0.00,150.688 c 25.968,7.664, 45.056,31.424, 45.056,59.872C 300.384,421.072, 272.32,449.152, 237.68,449.152z" ></path></svg>