<?xml version="1.0" encoding="utf-8"?> <!-- Generator: IcoMoon.io --> <!DOCTYPE svg PUBLIC "-//W3C//DTD SVG 1.1//EN" "http://www.w3.org/Graphics/SVG/1.1/DTD/svg11.dtd"> <svg width="512" height="512" viewBox="0 0 512 512" xmlns="http://www.w3.org/2000/svg" xmlns:xlink="http://www.w3.org/1999/xlink" fill="#333333"><path d="M 64.00,208.00l0.00,240.00 c0.00,8.848, 7.152,16.00, 16.00,16.00l 336.00,0.00 c 8.832,0.00, 16.00-7.152, 16.00-16.00L 432.00,208.00 c0.00,0.00-90.288-32.992-184.16-32.992C 157.792,175.008, 64.00,208.00, 64.00,208.00z M 344.00,322.00c0.00,50.816-41.184,92.00-92.00,92.00S 160.00,372.816, 160.00,322.00 s 41.184-92.00, 92.00-92.00S 344.00,271.184, 344.00,322.00z M 416.00,64.00L 80.00,64.00 C 71.152,64.00, 64.00,71.152, 64.00,80.00l0.00,112.00 c0.00,0.00, 92.992-32.00, 183.84-32.00C 340.992,160.00, 432.00,192.00, 432.00,192.00L 432.00,80.00 C 432.00,71.152, 424.832,64.00, 416.00,64.00z M 176.00,128.00L 96.00,128.00 L 96.00,96.00 l 80.00,0.00 L 176.00,128.00 z M 295.984,128.00C 287.152,128.00, 280.00,120.832, 280.00,112.00s 7.152-16.00, 15.984-16.00C 304.832,96.00, 312.00,103.168, 312.00,112.00 S 304.832,128.00, 295.984,128.00z M 344.00,128.00c-8.848,0.00-16.00-7.168-16.00-16.00s 7.152-16.00, 16.00-16.00c 8.832,0.00, 16.00,7.168, 16.00,16.00S 352.832,128.00, 344.00,128.00z M 391.008,128.00 c-8.848,0.00-16.00-7.168-16.00-16.00s 7.152-16.00, 16.00-16.00c 8.832,0.00, 16.00,7.168, 16.00,16.00S 399.824,128.00, 391.008,128.00z M 176.992,322.00c0.00,41.424, 33.584,75.008, 75.008,75.008 s 75.008-33.584, 75.008-75.008c0.00-0.096-25.664,26.336-75.008-3.008C 202.656,289.664, 176.992,321.904, 176.992,322.00z" ></path></svg>