<?xml version="1.0" encoding="utf-8"?> <!-- Generator: IcoMoon.io --> <!DOCTYPE svg PUBLIC "-//W3C//DTD SVG 1.1//EN" "http://www.w3.org/Graphics/SVG/1.1/DTD/svg11.dtd"> <svg width="500.00000000000006" height="500" viewBox="0 0 500 500" xmlns="http://www.w3.org/2000/svg" xmlns:xlink="http://www.w3.org/1999/xlink" fill="#333333"><path d="M 424.20,125.00c0.00-25.00-24.875-25.00-24.875-25.00L 100.675,100.00 c0.00,0.00-24.875,0.00-24.875,25.00l0.00,25.00 l 348.40,0.00 L 424.20,125.00 z M 349.525,50.00L 150.45,50.00 c0.00,0.00-24.875,0.00-24.875,25.00l 248.85,0.00 C 374.425,50.00, 349.525,50.00, 349.525,50.00z M 473.95,150.00c-14.725-14.80-14.725-14.80-14.725-14.80L 459.225,175.00 L 40.75,175.00 L 40.75,135.20 c0.00,0.00,0.00,0.00-14.725,14.80 S 0.75,168.775, 6.70,200.025C 12.575,231.15, 41.15,401.90, 45.375,425.00c 4.675,25.35, 30.425,25.00, 30.425,25.00l 348.40,0.00 c0.00,0.00, 25.75,0.35, 30.425-25.00 c 4.25-23.10, 32.80-193.85, 38.70-224.975C 499.25,168.775, 488.70,164.80, 473.95,150.00z M 349.525,285.00c0.00,0.00,0.00,25.00-24.90,25.00L 175.35,310.00 c-24.875,0.00-24.875-25.00-24.875-25.00l0.00-50.00 l 34.85,0.00 L 185.325,275.00 l 129.325,0.00 L 314.65,235.00 l 34.90,0.00 L 349.55,285.00 z" ></path></svg>