<?xml version="1.0" encoding="utf-8"?> <!-- Generator: IcoMoon.io --> <!DOCTYPE svg PUBLIC "-//W3C//DTD SVG 1.1//EN" "http://www.w3.org/Graphics/SVG/1.1/DTD/svg11.dtd"> <svg width="512" height="512" viewBox="0 0 512 512" xmlns="http://www.w3.org/2000/svg" xmlns:xlink="http://www.w3.org/1999/xlink" fill="#333333"><path d="M 424.992,128.336l-167.936,147.408l0.00,191.024 L 350.512,512.00L 131.488,512.00 l 93.472-45.216L 224.96,275.744 L 55.008,128.336L 314.24,128.336 l 51.888-89.904l 13.952,8.048l-47.248,81.84L 424.992,128.32 z M 385.776,143.44l-61.808,0.24l-19.04,32.992l 43.92,0.00 L 385.776,143.44z M 257.056,241.104c 9.456,0.00, 17.104-7.664, 17.104-17.12c0.00-9.456-7.664-17.12-17.104-17.12s-17.12,7.664-17.12,17.12 C 239.936,233.456, 247.616,241.104, 257.056,241.104z M 94.24,143.44l 37.232,33.232l 154.864,0.00 l 19.008-32.912L 94.24,143.44z" ></path></svg>