<?xml version="1.0" encoding="utf-8"?> <!-- Generator: IcoMoon.io --> <!DOCTYPE svg PUBLIC "-//W3C//DTD SVG 1.1//EN" "http://www.w3.org/Graphics/SVG/1.1/DTD/svg11.dtd"> <svg width="512" height="512" viewBox="0 0 512 512" xmlns="http://www.w3.org/2000/svg" xmlns:xlink="http://www.w3.org/1999/xlink" fill="#333333"><path d="M 502.50,55.00l-154.00,154.00q 9.50,25.50 -4.50,39.50t-39.50,4.50l-0.50,0.50q 14.50,23.50 15.25,47.50t-8.75,43.50t-27.00,36.50q-44.50,44.50 -64.00,131.00q-23.00-11.50 -50.50-30.00q-5.50-25.00 2.00-49.50t 26.00-41.50q-23.00,7.50 -39.50,25.00t-22.50,40.50q-24.50-19.50 -42.50-37.00q-1.00-1.00 -2.75-3.00t-2.25-3.00q 17.00-17.00 24.00-38.50q-17.50,15.50 -39.00,22.50q-15.50-17.50 -27.50-33.50q 22.00-7.00 39.00-23.25 t 24.00-38.75q-16.00,18.00 -39.00,25.75t-47.00,3.75q-13.50-21.50 -22.00-39.00q 86.50-20.00 131.00-64.00q 17.00-17.50 36.50-27.00t 43.50-8.75t 47.50,15.25l 0.50-0.50q-9.50-25.50 4.50-39.50t 39.50-4.50l 154.00-154.00q 9.50-9.50 22.75-9.50t 22.75,9.50t 9.50,22.75t-9.50,22.75z" ></path></svg>