<?xml version="1.0" encoding="utf-8"?> <!-- Generator: IcoMoon.io --> <!DOCTYPE svg PUBLIC "-//W3C//DTD SVG 1.1//EN" "http://www.w3.org/Graphics/SVG/1.1/DTD/svg11.dtd"> <svg width="512" height="512" viewBox="0 0 512 512" xmlns="http://www.w3.org/2000/svg" xmlns:xlink="http://www.w3.org/1999/xlink" fill="#333333"><path d="M 448.00,480.00L 64.00,480.00 c-17.664,0.00-32.00-14.336-32.00-32.00L 32.00,112.00 c0.00-17.664, 14.336-32.00, 32.00-32.00l 32.00,0.00 l0.00,16.00 c0.00,26.512, 21.488,48.00, 48.00,48.00 s 48.00-21.488, 48.00-48.00L 192.00,80.00 l 128.00,0.00 l0.00,16.00 c0.00,26.512, 21.504,48.00, 48.00,48.00s 48.00-21.488, 48.00-48.00L 416.00,80.00 l 32.00,0.00 c 17.664,0.00, 32.00,14.336, 32.00,32.00l0.00,336.00 C 480.00,465.664, 465.664,480.00, 448.00,480.00z M 448.00,192.00L 64.00,192.00 l0.00,256.00 l 384.00,0.00 L 448.00,192.00 z M 209.104,317.264c 3.152-5.024, 4.736-10.336, 4.736-15.888c0.00-12.368-6.656-18.56-19.968-18.56c-11.568,0.00-22.624,4.592-33.184,13.776l0.00-26.064 c 11.68-7.568, 24.88-11.344, 39.568-11.344c 13.744,0.00, 24.48,3.456, 32.208,10.352s 11.584,16.24, 11.584,27.984c0.00,15.68-9.408,31.904-28.224,48.656 l-27.664,24.56l0.00,0.56 l 54.56,0.00 l0.00,24.56 L 154.224,395.856 l0.00-23.056 l 38.528-36.848C 200.496,328.528, 205.952,322.304, 209.104,317.264z M 317.392,370.656 c 4.224-3.248, 6.336-7.776, 6.336-13.60c0.00-6.00-2.608-10.624-7.824-13.872s-12.384-4.88-21.52-4.88l-12.096,0.00 l0.00-22.688 l 11.152,0.00 c 17.504,0.00, 26.256-5.808, 26.256-17.44c0.00-10.944-6.72-16.40-20.16-16.40c-8.992,0.00-17.744,2.912-26.256,8.72l0.00-24.192 c 9.44-4.752, 20.432-7.12, 32.992-7.12c 13.744,0.00, 24.448,3.088, 32.112,9.28s 11.488,14.224, 11.488,24.096c0.00,17.568-8.912,28.56-26.72,32.992l0.00,0.464 c 9.504,1.184, 16.992,4.64, 22.496,10.352s 8.256,12.736, 8.256,21.04c0.00,12.56-4.592,22.496-13.776,29.808s-21.872,10.976-38.064,10.976 c-13.872,0.00-25.152-2.256-33.84-6.752l0.00-25.776 c 8.992,6.56, 19.504,9.84, 31.504,9.84C 307.28,375.536, 313.168,373.904, 317.392,370.656z M 367.504,128.00C 350.096,128.00, 336.00,113.904, 336.00,96.496L 336.00,63.504 C 336.00,46.096, 350.096,32.00, 367.504,32.00s 31.504,14.096, 31.504,31.504l0.00,32.992 C 399.008,113.904, 384.912,128.00, 367.504,128.00z M 143.504,128.00C 126.096,128.00, 112.00,113.904, 112.00,96.496L 112.00,63.504 C 112.00,46.096, 126.096,32.00, 143.504,32.00s 31.504,14.096, 31.504,31.504l0.00,32.992 C 175.008,113.904, 160.896,128.00, 143.504,128.00z" ></path></svg>