<?xml version="1.0" encoding="utf-8"?> <!-- Generator: IcoMoon.io --> <!DOCTYPE svg PUBLIC "-//W3C//DTD SVG 1.1//EN" "http://www.w3.org/Graphics/SVG/1.1/DTD/svg11.dtd"> <svg width="512" height="512" viewBox="0 0 512 512" xmlns="http://www.w3.org/2000/svg" xmlns:xlink="http://www.w3.org/1999/xlink" fill="#333333"><path d="M 256.00,464.00C 141.12,464.00, 48.00,370.88, 48.00,256.00S 141.12,48.00, 256.00,48.00s 208.00,93.12, 208.00,208.00S 370.88,464.00, 256.00,464.00z M 351.376,195.344c 3.904-3.904, 3.904-10.256,0.00-14.16l-21.248-21.232c-3.904-3.904-10.256-3.904-14.16,0.00l-60.176,60.176l-60.176-60.176 c-3.904-3.904-10.256-3.904-14.16,0.00l-21.248,21.232c-3.904,3.904-3.904,10.256,0.00,14.16l 60.192,60.192l-60.192,60.16 c-3.904,3.904-3.904,10.256,0.00,14.16l 21.248,21.248c 3.904,3.904, 10.256,3.904, 14.16,0.00l 60.176-60.192l 60.176,60.192 c 3.904,3.904, 10.256,3.904, 14.16,0.00l 21.248-21.248c 3.904-3.904, 3.904-10.256,0.00-14.16l-60.192-60.16L 351.376,195.344z" ></path></svg>