<?xml version="1.0" encoding="utf-8"?> <!-- Generator: IcoMoon.io --> <!DOCTYPE svg PUBLIC "-//W3C//DTD SVG 1.1//EN" "http://www.w3.org/Graphics/SVG/1.1/DTD/svg11.dtd"> <svg width="512" height="512" viewBox="0 0 512 512" xmlns="http://www.w3.org/2000/svg" xmlns:xlink="http://www.w3.org/1999/xlink" fill="#333333"><path d="M 480.00,407.00l0.00,41.00 q0.00,13.50 -9.25,22.75t-22.50,9.25t-22.75-9.25t-9.50-22.75l0.00-32.00 l-320.00,0.00 l0.00,32.00 q0.00,13.50 -9.25,22.75t-22.50,9.25t-22.75-9.25t-9.50-22.75l0.00-41.00 q-14.50-8.50 -23.25-23.00t-8.75-32.00l0.00-96.00 q0.00-14.00 11.50-32.25t 29.00-34.75l 23.50-93.00q0.00-26.50 18.75-45.25t 45.25-18.75l 256.00,0.00 q 26.50,0.00 45.25,18.75t 18.75,45.25l 23.50,93.00 q 17.50,16.50 29.00,34.75t 11.50,32.25l0.00,96.00 q0.00,17.50 -8.75,32.00t-23.25,23.00zM 64.00,320.25q0.00,13.25 9.25,22.50t 22.50,9.25t 22.75-9.25t 9.50-22.50t-9.50-22.75t-22.75-9.50t-22.50,9.50t-9.25,22.75zM 400.00,128.00q0.00-13.00 -9.25-22.50t-22.75-9.50l-224.00,0.00 q-13.00,0.00 -22.50,9.50t-9.50,22.50l-16.00,64.00q0.00,13.50 9.25,22.75t 22.75,9.25l 256.00,0.00 q 13.50,0.00 22.75-9.25t 9.25-22.75zM 416.25,288.00q-13.25,0.00 -22.75,9.50t-9.50,22.75t 9.50,22.50t 22.75,9.25t 22.50-9.25t 9.25-22.50t-9.25-22.75t-22.50-9.50z" ></path></svg>