<?xml version="1.0" encoding="utf-8"?> <!-- Generator: IcoMoon.io --> <!DOCTYPE svg PUBLIC "-//W3C//DTD SVG 1.1//EN" "http://www.w3.org/Graphics/SVG/1.1/DTD/svg11.dtd"> <svg width="500.00000000000006" height="500" viewBox="0 0 500 500" xmlns="http://www.w3.org/2000/svg" xmlns:xlink="http://www.w3.org/1999/xlink" fill="#333333"><path d="M 250.00,162.125c 22.30,0.00, 33.45-11.125, 33.45-33.40c0.00-22.575-11.15-33.85-33.45-33.85S 216.575,106.15, 216.575,128.725 C 216.575,151.00, 227.70,162.125, 250.00,162.125zM 299.30,175.025L 200.725,175.025 c-4.30,0.00-7.925,1.50-10.95,4.50s-4.50,6.65-4.50,10.925l0.00,98.15 l 27.425,0.00 l0.00,116.575 l 74.55,0.00 l0.00-116.575 l 27.45,0.00 L 314.70,190.425 c0.00-4.275-1.575-7.90-4.70-10.925C 306.85,176.525, 303.30,175.025, 299.30,175.025zM 250.00,10.00c-132.55,0.00-240.00,107.45-240.00,240.00s 107.45,240.00, 240.00,240.00s 240.00-107.45, 240.00-240.00S 382.55,10.00, 250.00,10.00z M 250.00,446.00 c-108.25,0.00-196.00-87.75-196.00-196.00S 141.75,54.00, 250.00,54.00s 196.00,87.75, 196.00,196.00S 358.25,446.00, 250.00,446.00z" ></path></svg>