<?xml version="1.0" encoding="utf-8"?> <!-- Generator: IcoMoon.io --> <!DOCTYPE svg PUBLIC "-//W3C//DTD SVG 1.1//EN" "http://www.w3.org/Graphics/SVG/1.1/DTD/svg11.dtd"> <svg width="500.00000000000006" height="500" viewBox="0 0 500 500" xmlns="http://www.w3.org/2000/svg" xmlns:xlink="http://www.w3.org/1999/xlink" fill="#333333"><path d="M 250.00,111.875c-79.225,0.00-99.15,74.75-99.15,138.125S 170.775,388.15, 250.00,388.15c 79.25,0.00, 99.175-74.775, 99.175-138.15S 329.25,111.875, 250.00,111.875z M 207.325,250.00c0.00-27.90, 1.925-86.05, 42.675-86.05c 3.225,0.00, 6.15,0.525, 8.90,1.20c 5.725,4.90, 8.50,11.70, 3.025,21.175l-52.75,96.975 C 207.55,271.025, 207.325,258.95, 207.325,250.00z M 250.00,336.025c-3.20,0.00-6.15-0.325-8.875-1.00c-0.525-0.15-1.025-0.325-1.55-0.50 c-0.825-0.275-1.725-0.525-2.525-0.85c-9.05-3.85-14.775-10.85-6.55-23.20l 58.975-101.85c 2.80,14.90, 3.20,30.45, 3.20,41.35 C 292.70,277.925, 290.75,336.025, 250.00,336.025z M 250.00,10.00c-132.55,0.00-240.00,107.45-240.00,240.00s 107.45,240.00, 240.00,240.00s 240.00-107.45, 240.00-240.00S 382.55,10.00, 250.00,10.00 z M 250.00,446.00c-108.25,0.00-196.00-87.75-196.00-196.00S 141.75,54.00, 250.00,54.00s 196.00,87.75, 196.00,196.00S 358.25,446.00, 250.00,446.00z" ></path></svg>