<?xml version="1.0" encoding="utf-8"?> <!-- Generator: IcoMoon.io --> <!DOCTYPE svg PUBLIC "-//W3C//DTD SVG 1.1//EN" "http://www.w3.org/Graphics/SVG/1.1/DTD/svg11.dtd"> <svg width="512" height="512" viewBox="0 0 512 512" xmlns="http://www.w3.org/2000/svg" xmlns:xlink="http://www.w3.org/1999/xlink" fill="#333333"><path d="M 271.968,239.072c0.00,0.00, 1.536-191.776,0.00-191.776c 110.336,0.00, 191.776,81.44, 191.776,191.776 C 463.744,239.68, 271.968,239.072, 271.968,239.072z M 447.776,278.432c0.00,114.736-93.024,207.76-207.76,207.76 c-114.752,0.00-207.76-93.024-207.76-207.76c0.00-114.752, 93.008-207.76, 207.76-207.76c 5.392,0.00, 10.688,0.384, 15.984,0.80l0.00,183.584 l 190.528,0.00 C 447.328,262.416, 447.776,270.864, 447.776,278.432z M 430.80,272.032L 240.016,272.032 L 240.016,86.656 c-105.92,0.00-191.776,85.872-191.776,191.792 s 85.856,191.76, 191.776,191.76s 191.776-85.84, 191.776-191.76C 431.792,257.808, 430.80,272.032, 430.80,272.032z" ></path></svg>