<?xml version="1.0" encoding="utf-8"?> <!-- Generator: IcoMoon.io --> <!DOCTYPE svg PUBLIC "-//W3C//DTD SVG 1.1//EN" "http://www.w3.org/Graphics/SVG/1.1/DTD/svg11.dtd"> <svg width="512" height="512" viewBox="0 0 512 512" xmlns="http://www.w3.org/2000/svg" xmlns:xlink="http://www.w3.org/1999/xlink" fill="#333333"><path d="M 416.00,512.00L 96.00,512.00 c-17.68,0.00-32.00-14.304-32.00-31.936L 64.00,79.84 c0.00-17.648, 14.32-31.936, 32.00-31.936l 96.00,0.00 L 192.00,79.84 L 112.00,79.84 c-8.832,0.00-16.00,7.136-16.00,15.968l0.00,368.288 c0.00,8.816, 7.168,15.968, 16.00,15.968l 288.00,0.00 c 8.848,0.00, 16.00-7.152, 16.00-15.968L 416.00,95.808 c0.00-8.832-7.152-15.968-16.00-15.968l-80.00,0.00 L 320.00,47.904 l 96.00,0.00 c 17.664,0.00, 32.00,14.304, 32.00,31.936l0.00,400.224 C 448.00,497.696, 433.664,512.00, 416.00,512.00z M 400.00,95.808l0.00,368.288 L 112.00,464.096 L 112.00,95.808 l 16.00,0.00 l0.00,64.88 l 256.00,0.00 L 384.00,95.808 L 400.00,95.808 z M 176.00,208.592l-16.00,0.00 l0.00,15.968 l 16.00,0.00 L 176.00,208.592 z M 176.00,240.528l-16.00,0.00 l0.00,15.968 l 16.00,0.00 L 176.00,240.528 z M 176.00,272.464l-16.00,0.00 l0.00,15.968 l 16.00,0.00 L 176.00,272.464 z M 176.00,304.40l-16.00,0.00 l0.00,15.968 l 16.00,0.00 L 176.00,304.40 z M 176.00,336.336l-16.00,0.00 l0.00,15.968 l 16.00,0.00 L 176.00,336.336 z M 176.00,368.288l-16.00,0.00 l0.00,15.968 l 16.00,0.00 L 176.00,368.288 z M 176.00,400.224l-16.00,0.00 l0.00,15.968 l 16.00,0.00 L 176.00,400.224 z M 352.00,208.592L 192.00,208.592 l0.00,15.968 l 160.00,0.00 L 352.00,208.592 z M 352.00,240.528L 192.00,240.528 l0.00,15.968 l 160.00,0.00 L 352.00,240.528 z M 352.00,272.464L 192.00,272.464 l0.00,15.968 l 160.00,0.00 L 352.00,272.464 z M 352.00,304.40L 192.00,304.40 l0.00,15.968 l 160.00,0.00 L 352.00,304.40 z M 352.00,336.336L 192.00,336.336 l0.00,15.968 l 160.00,0.00 L 352.00,336.336 z M 352.00,368.288L 192.00,368.288 l0.00,15.968 l 160.00,0.00 L 352.00,368.288 z M 352.00,400.224L 192.00,400.224 l0.00,15.968 l 160.00,0.00 L 352.00,400.224 z M 352.00,95.808c 8.848,0.00, 16.00,7.136, 16.00,15.968c0.00,8.816,0.00,31.936,0.00,31.936L 144.00,143.712 c0.00,0.00,0.00-23.12,0.00-31.936 c0.00-8.832, 7.152-15.968, 16.00-15.968l 48.00,0.00 c0.00,0.00, 0.192-20.384, 0.192-46.336C 208.192,22.528, 228.992,0.00, 256.00,0.00s 48.528,23.68, 48.528,49.648 C 304.528,77.584, 304.00,95.808, 304.00,95.808L 352.00,95.808 z M 256.00,47.904c-8.848,0.00-16.00,7.136-16.00,15.968c0.00,8.816, 7.152,15.968, 16.00,15.968s 16.00-7.152, 16.00-15.968 C 272.00,55.04, 264.848,47.904, 256.00,47.904z" ></path></svg>