<?xml version="1.0" encoding="utf-8"?> <!-- Generator: IcoMoon.io --> <!DOCTYPE svg PUBLIC "-//W3C//DTD SVG 1.1//EN" "http://www.w3.org/Graphics/SVG/1.1/DTD/svg11.dtd"> <svg width="512" height="512" viewBox="0 0 512 512" xmlns="http://www.w3.org/2000/svg" xmlns:xlink="http://www.w3.org/1999/xlink" fill="#333333"><path d="M 479.744,248.768c-6.048-58.224-65.008-57.888-95.632-56.848 c 0.144-8.848, 0.24-15.984, 0.24-15.984L 31.92,175.824c0.00,0.00,0.00,48.224,0.00,49.424c0.00,68.496, 39.12,127.744, 96.176,156.944l0.00,17.088 l 160.304,0.00 l0.00-17.088 c 16.00-8.192, 30.352-18.944, 43.056-31.376C 410.096,332.00, 492.576,304.848, 479.744,248.768z M 356.00,321.056c 17.968-27.60, 28.576-60.40, 28.576-95.808 c0.00,0.272, 0.016-0.464, 0.032-1.856c 28.56-0.944, 60.08-3.792, 67.216,24.64C 458.992,279.312, 406.752,304.784, 356.00,321.056z M 141.28,111.84 c0.00,16.00-26.24,33.04-26.24,33.04s 51.424-9.184, 51.424-33.184s-50.992-8.00-50.992-26.00s 25.232-35.04, 25.232-35.04S 92.304,60.848, 92.304,85.84 S 141.28,95.84, 141.28,111.84z M 221.28,127.84c0.00,16.00-26.24,33.04-26.24,33.04s 51.424-9.184, 51.424-33.184s-50.992-8.00-50.992-26.00 s 25.232-35.04, 25.232-35.04s-48.416,10.192-48.416,35.184S 221.28,111.84, 221.28,127.84z M 285.28,111.84c0.00,16.00-26.24,33.04-26.24,33.04 s 51.424-9.184, 51.424-33.184s-50.992-8.00-50.992-26.00s 25.232-35.04, 25.232-35.04s-48.416,10.192-48.416,35.184S 285.28,95.84, 285.28,111.84z M 30.928,414.848c0.00,22.096, 78.80,40.00, 176.00,40.00s 176.00-17.904, 176.00-40.00C 382.928,415.312, 30.928,415.312, 30.928,414.848z" ></path></svg>