<?xml version="1.0" encoding="utf-8"?> <!-- Generator: IcoMoon.io --> <!DOCTYPE svg PUBLIC "-//W3C//DTD SVG 1.1//EN" "http://www.w3.org/Graphics/SVG/1.1/DTD/svg11.dtd"> <svg width="512" height="512" viewBox="0 0 512 512" xmlns="http://www.w3.org/2000/svg" xmlns:xlink="http://www.w3.org/1999/xlink" fill="#333333"><path d="M 400.032,134.304l0.00,200.528 l 64.624,0.00 l0.00,64.624 L 111.712,399.456 L 111.712,48.512 l 64.624,0.00 l0.00,63.632 L 375.20,112.144 l 74.224-74.224 l 22.48,22.496L 400.032,134.304z M 176.336,175.76L 176.336,312.00 l 135.232-136.24L 176.336,175.76 z M 335.408,197.92l-137.904,136.912l 137.904,0.00 L 335.408,197.92 z M 48.096,112.144l 48.72,0.00 l0.00,63.632 L 48.096,175.776 L 48.096,112.144 z M 400.032,463.072l-64.624,0.00 L 335.408,415.36 l 64.624,0.00 L 400.032,463.072 z" ></path></svg>