<?xml version="1.0" encoding="utf-8"?> <!-- Generator: IcoMoon.io --> <!DOCTYPE svg PUBLIC "-//W3C//DTD SVG 1.1//EN" "http://www.w3.org/Graphics/SVG/1.1/DTD/svg11.dtd"> <svg width="512" height="512" viewBox="0 0 512 512" xmlns="http://www.w3.org/2000/svg" xmlns:xlink="http://www.w3.org/1999/xlink" fill="#333333"><path d="M 509.75,240.25q-6.25,19.75 -24.50,34.00t-38.25,14.25l-79.50,0.00 l 32.00-96.00l 77.00,0.00 q 20.00,0.00 29.75,14.00t 3.50,33.75zM 303.50,192.50l-80.00,0.00 l 32.00-96.00l 77.50,0.00 q 19.50,0.00 29.25,14.00t 3.75,34.00t-24.25,34.00t-38.25,14.00zM 301.00,224.50q 19.50,0.00 29.25,14.00t 3.75,33.75t-24.25,33.75t-38.25,14.00l-80.00,0.00 l 32.00-95.50l 77.50,0.00 zM 112.00,192.50l-80.00,0.00 l 32.00-96.00l 77.00,0.00 q 20.00,0.00 29.75,14.00t 3.75,34.00t-24.50,34.00t-38.00,14.00zM 109.00,224.50q 20.00,0.00 29.75,14.00t 3.75,33.75t-24.50,33.75t-38.00,14.00l-80.00,0.00 l 32.00-95.50l 77.00,0.00 zM 269.00,352.00q 19.50,0.00 29.25,14.00t 3.75,34.00t-24.25,34.00t-38.25,14.00l-80.00,0.00 l 32.00-96.00l 77.50,0.00 zM 444.50,320.00q 20.00,0.00 29.75,14.25t 3.75,34.00t-24.50,33.75t-38.00,14.00l-80.00,0.00 l 32.00-96.00l 77.00,0.00 z" ></path></svg>