<?xml version="1.0" encoding="utf-8"?> <!-- Generator: IcoMoon.io --> <!DOCTYPE svg PUBLIC "-//W3C//DTD SVG 1.1//EN" "http://www.w3.org/Graphics/SVG/1.1/DTD/svg11.dtd"> <svg width="512" height="512" viewBox="0 0 512 512" xmlns="http://www.w3.org/2000/svg" xmlns:xlink="http://www.w3.org/1999/xlink" fill="#333333"><path d="M 364.00,239.50q-37.50-18.50 -75.50-31.50q 16.50-8.50 30.50-16.00l-126.00,0.00 q 10.50,5.50 63.00,32.00q 32.00,10.50 63.75,25.00t 67.50,38.25t 62.50,50.75t 44.50,64.25t 17.75,77.75q0.00,13.00 -9.25,22.50t-22.50,9.50t-22.75-9.50t-9.50-22.50l-384.00,0.00 q0.00,13.00 -9.50,22.50t-22.75,9.50t-22.50-9.50t-9.25-22.50q0.00-34.00 12.00-65.75t 33.75-57.25t 46.75-46.00t 55.50-38.50 q 37.50,18.50 75.50,31.50q-16.50,8.50 -30.50,16.00l 126.00,0.00 q-10.50-5.50 -63.00-32.00q-32.00-10.50 -63.75-25.25t-67.50-38.25t-62.50-50.50t-44.50-64.25t-17.75-77.75q0.00-13.50 9.25-22.75t 22.50-9.25t 22.75,9.25t 9.50,22.75l 384.00,0.00 q0.00-13.50 9.50-22.75t 22.75-9.25t 22.50,9.25t 9.25,22.75q0.00,34.00 -12.00,65.50t-33.75,57.25t-46.75,46.25t-55.50,38.50z M 68.00,448.00l 375.50,0.00 q-4.00-16.00 -13.00-32.00l-349.00,0.00 q-9.50,16.00 -13.50,32.00zM 142.50,352.00q-23.50,17.00 -37.50,32.00l 301.50,0.00 q-15.50-16.50 -36.50-32.00l-227.50,0.00 zM 142.00,160.00l 227.50,0.00 q 23.50-17.00 37.00-32.00l-301.00,0.00 q 15.50,16.50 36.50,32.00zM 68.50,64.00q 4.00,16.00 13.00,32.00l 349.00,0.00 q 9.50-16.00 13.50-32.00l-375.50,0.00 z" ></path></svg>