<?xml version="1.0" encoding="utf-8"?> <!-- Generator: IcoMoon.io --> <!DOCTYPE svg PUBLIC "-//W3C//DTD SVG 1.1//EN" "http://www.w3.org/Graphics/SVG/1.1/DTD/svg11.dtd"> <svg width="512" height="512" viewBox="0 0 512 512" xmlns="http://www.w3.org/2000/svg" xmlns:xlink="http://www.w3.org/1999/xlink" fill="#333333"><path d="M 209.12,83.232L 116.384,58.384C 107.856,56.096, 99.088,61.168, 96.80,69.696L 1.552,425.152 c-2.288,8.544, 2.784,17.312, 11.328,19.616L 105.60,469.616c 8.528,2.288, 17.312-2.784, 19.60-11.312l 95.248-355.472 C 222.72,94.304, 217.664,85.52, 209.12,83.232z M 124.48,399.088c-6.864,25.616-33.168,40.80-58.784,33.936s-40.80-33.168-33.936-58.784 s 33.168-40.816, 58.784-33.936C 116.16,347.168, 131.344,373.488, 124.48,399.088z M 142.864,330.512l-92.72-24.848L 99.824,120.208l 92.736,24.864 L 142.864,330.512z M 303.008,368.00c-13.264,0.00-24.00,10.752-24.00,24.00s 10.736,24.00, 24.00,24.00c 13.248,0.00, 24.00-10.752, 24.00-24.00S 316.256,368.00, 303.008,368.00z M 172.976,156.368L 111.136,139.808L 107.008,155.264l 61.824,16.56L 172.976,156.368z M 160.528,202.736l 4.16-15.456L 102.864,170.72L 98.72,186.176 L 160.528,202.736z M 84.08,364.448c-12.80-3.44-25.968,4.176-29.392,16.976c-3.44,12.816, 4.16,25.968, 16.976,29.392 c 12.80,3.44, 25.968-4.16, 29.392-16.976C 104.48,381.04, 96.88,367.888, 84.08,364.448z M 479.008,144.00l-64.00,0.00 l0.00,16.00 l 64.00,0.00 L 479.008,144.00 z M 479.008,208.00l-64.00,0.00 l0.00,16.00 l 64.00,0.00 L 479.008,208.00 z M 479.008,176.00 l-64.00,0.00 l0.00,16.00 l 64.00,0.00 L 479.008,176.00 z M 447.008,368.00c-13.264,0.00-24.00,10.752-24.00,24.00s 10.736,24.00, 24.00,24.00c 13.248,0.00, 24.00-10.752, 24.00-24.00S 460.256,368.00, 447.008,368.00z M 495.008,64.00 l-96.00,0.00 c-8.848,0.00-16.00,7.152-16.00,16.00l0.00,368.00 c0.00,8.832, 7.152,16.00, 16.00,16.00l 96.00,0.00 c 8.832,0.00, 16.00-7.168, 16.00-16.00L 511.008,80.00 C 511.008,71.152, 503.824,64.00, 495.008,64.00z M 447.008,440.00 c-26.512,0.00-48.00-21.504-48.00-48.00c0.00-26.512, 21.488-48.00, 48.00-48.00c 26.496,0.00, 48.00,21.488, 48.00,48.00C 495.008,418.496, 473.504,440.00, 447.008,440.00z M 495.008,320.00l-96.00,0.00 L 399.008,128.00 l 96.00,0.00 L 495.008,320.00 z M 335.008,144.00l-64.00,0.00 l0.00,16.00 l 64.00,0.00 L 335.008,144.00 z M 335.008,208.00l-64.00,0.00 l0.00,16.00 l 64.00,0.00 L 335.008,208.00 z M 351.008,64.00l-96.00,0.00 c-8.848,0.00-16.00,7.152-16.00,16.00l0.00,368.00 c0.00,8.832, 7.152,16.00, 16.00,16.00l 96.00,0.00 c 8.832,0.00, 16.00-7.168, 16.00-16.00L 367.008,80.00 C 367.008,71.152, 359.824,64.00, 351.008,64.00z M 303.008,439.008c-26.512,0.00-48.00-21.504-48.00-48.00c0.00-26.512, 21.488-48.00, 48.00-48.00c 26.496,0.00, 48.00,21.488, 48.00,48.00 C 351.008,417.504, 329.504,439.008, 303.008,439.008z M 351.008,320.00l-96.00,0.00 L 255.008,128.00 l 96.00,0.00 L 351.008,320.00 z M 335.008,176.00l-64.00,0.00 l0.00,16.00 l 64.00,0.00 L 335.008,176.00 z M 90.432,217.072l 61.808,16.56l 4.16-15.456 l-61.824-16.56L 90.432,217.072z" ></path></svg>