<?xml version="1.0" encoding="utf-8"?> <!-- Generator: IcoMoon.io --> <!DOCTYPE svg PUBLIC "-//W3C//DTD SVG 1.1//EN" "http://www.w3.org/Graphics/SVG/1.1/DTD/svg11.dtd"> <svg width="416" height="448" viewBox="0 0 416 448" xmlns="http://www.w3.org/2000/svg" xmlns:xlink="http://www.w3.org/1999/xlink" fill="#333333"><path d="M 352.00,248.00l0.00,120.00 q0.00,6.50 -4.75,11.25t-11.25,4.75l-96.00,0.00 l0.00-96.00 l-64.00,0.00 l0.00,96.00 l-96.00,0.00 q-6.50,0.00 -11.25-4.75t-4.75-11.25l0.00-120.00 q0.00-0.25 0.125-0.75t 0.125-0.75l 143.75-118.50l 143.75,118.50q 0.25,0.50 0.25,1.50zM 407.75,230.75l-15.50,18.50q-2.00,2.25 -5.25,2.75l-0.75,0.00 q-3.25,0.00 -5.25-1.75l-173.00-144.25l-173.00,144.25q-3.00,2.00 -6.00,1.75q-3.25-0.50 -5.25-2.75l-15.50-18.50q-2.00-2.50 -1.75-5.875t 2.75-5.375 l 179.75-149.75q 8.00-6.50 19.00-6.50t 19.00,6.50l 61.00,51.00l0.00-48.75 q0.00-3.50 2.25-5.75t 5.75-2.25l 48.00,0.00 q 3.50,0.00 5.75,2.25t 2.25,5.75l0.00,102.00 l 54.75,45.50q 2.50,2.00 2.75,5.375t-1.75,5.875z" ></path></svg>