<?xml version="1.0" encoding="utf-8"?> <!-- Generator: IcoMoon.io --> <!DOCTYPE svg PUBLIC "-//W3C//DTD SVG 1.1//EN" "http://www.w3.org/Graphics/SVG/1.1/DTD/svg11.dtd"> <svg width="512" height="512" viewBox="0 0 512 512" xmlns="http://www.w3.org/2000/svg" xmlns:xlink="http://www.w3.org/1999/xlink" fill="#333333"><path d="M 432.00,384.00q-6.50,0.00 -11.25-4.75t-4.75-11.25l0.00-16.00 l-32.00,0.00 l0.00,96.00 q 13.50,0.00 22.75,9.25t 9.25,22.50t-9.25,22.75t-22.75,9.50l-256.00,0.00 q-13.00,0.00 -22.50-9.50t-9.50-22.75t 9.50-22.50t 22.50-9.25l0.00-96.00 l-32.00,0.00 l0.00,16.00 q0.00,6.50 -4.75,11.25t-11.25,4.75q-20.00,0.00 -34.00-18.75t-14.00-45.25t 14.00-45.25t 34.00-18.75q 6.50,0.00 11.25,4.75t 4.75,11.25l0.00,16.00 l 32.00,0.00 l0.00-64.00 q-13.00,0.00 -22.50-9.50t-9.50-22.75t 9.50-22.50t 22.50-9.25q0.00-44.50 27.00-78.75t 69.00-45.25l0.00-4.00 q0.00-13.50 9.50-22.75t 22.75-9.25t 22.50,9.25t 9.25,22.75l0.00,4.00 q 42.00,11.00 69.00,45.50t 27.00,78.50q 13.50,0.00 22.75,9.25t 9.25,22.50t-9.25,22.75t-22.75,9.50l0.00,64.00 l 32.00,0.00 l0.00-16.00 q0.00-6.50 4.75-11.25t 11.25-4.75q 20.00,0.00 34.00,18.75t 14.00,45.25t-14.00,45.25t-34.00,18.75 z" ></path></svg>