<?xml version="1.0" encoding="utf-8"?> <!-- Generator: IcoMoon.io --> <!DOCTYPE svg PUBLIC "-//W3C//DTD SVG 1.1//EN" "http://www.w3.org/Graphics/SVG/1.1/DTD/svg11.dtd"> <svg width="500.00000000000006" height="500" viewBox="0 0 500 500" xmlns="http://www.w3.org/2000/svg" xmlns:xlink="http://www.w3.org/1999/xlink" fill="#333333"><path d="M 442.25,118.15c-12.55-74.45-80.50-124.175-151.725-111.025c-71.25,13.125-131.35,70.40-118.80,144.85C 174.45,168.00, 181.925,193.10, 190.80,211.10 l-129.375,193.075c-4.775,7.125-7.475,19.975-6.05,28.525l 8.325,49.275c 1.45,8.55, 9.325,14.30, 17.50,12.80l 37.90-6.975 c 8.20-1.525, 18.575-8.725, 23.10-16.025l 51.175-82.75l 0.45-0.525l 34.625-6.40l 59.725-96.95c 19.65,3.475, 47.80,2.30, 64.45-0.775 C 423.90,271.225, 454.825,192.60, 442.25,118.15z M 379.15,156.30c-19.60,29.225-39.575,8.625-67.575-11.875 c-27.975-20.475-53.375-33.075-33.775-62.30c 19.60-29.25, 58.15-36.375, 86.15-15.875C 391.95,86.725, 398.75,127.075, 379.15,156.30z" ></path></svg>