<?xml version="1.0" encoding="utf-8"?> <!-- Generator: IcoMoon.io --> <!DOCTYPE svg PUBLIC "-//W3C//DTD SVG 1.1//EN" "http://www.w3.org/Graphics/SVG/1.1/DTD/svg11.dtd"> <svg width="576" height="512" viewBox="0 0 576 512" xmlns="http://www.w3.org/2000/svg" xmlns:xlink="http://www.w3.org/1999/xlink" fill="#333333"><path d="M 560.00,448.00l-127.984,0.00 L 432.016,80.00 L 560.00,80.00 c 8.848,0.00, 16.00,7.152, 16.00,16.00l0.00,336.00 C 576.00,440.832, 568.848,448.00, 560.00,448.00z M 496.016,384.00 l 16.00,0.00 l0.00-16.00 l-16.00,0.00 L 496.016,384.00 z M 496.016,352.00l 16.00,0.00 l0.00-16.00 l-16.00,0.00 L 496.016,352.00 z M 496.016,320.00l 16.00,0.00 l0.00-16.00 l-16.00,0.00 L 496.016,320.00 z M 464.016,384.00L 480.00,384.00 l0.00-16.00 l-15.984,0.00 L 464.016,384.00 z M 464.016,352.00L 480.00,352.00 l0.00-16.00 l-15.984,0.00 L 464.016,352.00 z M 464.016,320.00 L 480.00,320.00 l0.00-16.00 l-15.984,0.00 L 464.016,320.00 z M 544.016,144.00l-80.00,0.00 l0.00,48.00 l 80.00,0.00 L 544.016,144.00 z M 544.016,304.00l-16.00,0.00 l0.00,16.00 l 16.00,0.00 L 544.016,304.00 z M 544.016,336.00l-16.00,0.00 l0.00,16.00 l 16.00,0.00 L 544.016,336.00 z M 544.016,368.00l-16.00,0.00 l0.00,16.00 l 16.00,0.00 L 544.016,368.00 z M0.00,432.00L0.00,96.00 c0.00-8.848, 7.168-16.00, 16.016-16.00l 400.00,0.00 l0.00,368.00 l-400.00,0.00 C 7.168,448.00,0.00,440.832,0.00,432.00z M 384.624,280.144c 8.848,0.00, 16.00-7.168, 16.00-16.00c0.00-8.848-7.152-16.00-16.00-16.00 c-8.832,0.00-16.00,7.152-16.00,16.00C 368.624,272.976, 375.792,280.144, 384.624,280.144z M 64.00,368.00c0.00,8.832, 7.168,16.00, 16.016,16.00L 336.00,384.00 c 8.848,0.00, 16.00-7.168, 16.00-16.00L 352.00,160.00 c0.00-8.848-7.152-16.00-16.00-16.00L 80.016,144.00 C 71.168,144.00, 64.00,151.152, 64.00,160.00L 64.00,368.00 z" ></path></svg>