<?xml version="1.0" encoding="utf-8"?> <!-- Generator: IcoMoon.io --> <!DOCTYPE svg PUBLIC "-//W3C//DTD SVG 1.1//EN" "http://www.w3.org/Graphics/SVG/1.1/DTD/svg11.dtd"> <svg width="512" height="512" viewBox="0 0 512 512" xmlns="http://www.w3.org/2000/svg" xmlns:xlink="http://www.w3.org/1999/xlink" fill="#333333"><path d="M 430.672,296.288L 215.712,81.328c-9.376-9.376-9.376-24.576,0.00-33.936 c 9.376-9.376, 24.56-9.376, 33.936,0.00l 50.912,50.912l 62.24-62.224c 9.376-9.376, 24.56-9.376, 33.936,0.00c 9.376,9.36, 9.376,24.56,0.00,33.936 l-62.224,62.224l 45.248,45.248l 62.224-62.224c 9.376-9.376, 24.576-9.376, 33.952,0.00c 9.36,9.376, 9.36,24.56,0.00,33.936l-62.24,62.24l 50.928,50.912 c 9.36,9.376, 9.36,24.56,0.00,33.936C 455.248,305.664, 440.048,305.664, 430.672,296.288z M 334.512,381.136c-20.752,20.736-113.136,22.624-113.136,22.624 l-113.136-113.136c0.00,0.00, 1.888-92.384, 22.624-113.136c 20.752-20.736, 79.20-79.184, 79.20-79.184l 203.648,203.648 C 413.696,301.936, 355.248,360.384, 334.512,381.136z M 108.24,313.248l 90.512,90.512c 6.256,6.256, 6.256,16.368,0.00,22.624s-16.384,6.256-22.64,0.00 l-90.496-90.512c-6.256-6.256-6.256-16.368,0.00-22.624S 101.984,307.008, 108.24,313.248z M 153.488,426.384c0.00,0.00-7.60,7.616-16.976,16.976 c-9.376,9.376-24.56,9.376-33.936,0.00l-5.664-5.664l-45.264,45.248l-22.624-22.624l 45.264-45.248L 68.64,409.424 c-9.376-9.376-9.376-24.576,0.00-33.952s 17.904-16.016, 17.904-16.016L 153.488,426.384z" ></path></svg>