<?xml version="1.0" encoding="utf-8"?> <!-- Generator: IcoMoon.io --> <!DOCTYPE svg PUBLIC "-//W3C//DTD SVG 1.1//EN" "http://www.w3.org/Graphics/SVG/1.1/DTD/svg11.dtd"> <svg width="512" height="512" viewBox="0 0 512 512" xmlns="http://www.w3.org/2000/svg" xmlns:xlink="http://www.w3.org/1999/xlink" fill="#333333"><path d="M 432.032,80.08L 63.952,80.08 C 55.136,80.08, 48.00,72.928, 48.00,64.08c0.00-8.832, 7.136-15.984, 15.952-15.984 l 168.576,0.00 l0.00-16.00 c0.00-8.832, 7.152-15.984, 15.968-15.984s 15.952,7.152, 15.952,15.984l0.00,16.00 l 167.584,0.00 C 440.864,48.096, 448.00,55.264, 448.00,64.08 C 448.00,72.928, 440.864,80.08, 432.032,80.08z M 432.032,335.968l-143.632,0.00 l0.00,0.00L 256.48,335.968 l-15.968,0.00 l-31.92,0.00 l0.00,0.00l-144.64,0.00 L 63.952,96.064 l 368.08,0.00 L 432.032,335.968 z M 112.00,208.512 c0.00,35.408, 28.656,64.112, 64.00,64.112s 64.00-28.704, 64.00-64.112l-64.00,0.00 L 176.00,144.368 C 140.656,144.368, 112.00,173.088, 112.00,208.512z M 288.384,144.048l-15.952,0.00 l0.00,15.984 l 15.952,0.00 L 288.384,144.048 z M 288.384,176.032l-15.952,0.00 l0.00,15.984 l 15.952,0.00 L 288.384,176.032 z M 288.384,208.016l-15.952,0.00 L 272.432,224.00 l 15.952,0.00 L 288.384,208.016 z M 288.384,240.00l-15.952,0.00 L 272.432,256.00 l 15.952,0.00 L 288.384,240.00 z M 288.384,272.00 l-15.952,0.00 l0.00,16.00 l 15.952,0.00 L 288.384,272.00 z M 384.16,144.048l-79.792,0.00 l0.00,15.984 l 79.792,0.00 L 384.16,144.048 z M 384.16,176.032l-79.792,0.00 l0.00,15.984 l 79.792,0.00 L 384.16,176.032 z M 384.16,208.016l-79.792,0.00 L 304.368,224.00 l 79.792,0.00 L 384.16,208.016 z M 384.16,240.00l-79.792,0.00 L 304.368,256.00 l 79.792,0.00 L 384.16,240.00 z M 384.16,272.00l-79.792,0.00 l0.00,16.00 l 79.792,0.00 L 384.16,272.00 z M 204.496,415.936l 36.016,0.00 l0.00-79.968 l 15.968,0.00 l0.00,79.968 l 35.456,0.00 l-35.456-79.968l 31.92,0.00 l 63.824,143.936L 320.32,479.904 l-21.28-48.00L 256.48,431.904 l0.00,79.968 l-15.968,0.00 l0.00-79.968 l-43.216,0.00 l-21.616,48.00L 143.76,479.904 l 64.832-143.936l 31.92,0.00 L 204.496,415.936z M 256.48,335.968L 256.48,335.968L 256.48,335.968L 256.48,335.968z M 240.512,335.968L 240.512,335.968L 240.512,335.968L 240.512,335.968z" ></path></svg>