<?xml version="1.0" encoding="utf-8"?> <!-- Generator: IcoMoon.io --> <!DOCTYPE svg PUBLIC "-//W3C//DTD SVG 1.1//EN" "http://www.w3.org/Graphics/SVG/1.1/DTD/svg11.dtd"> <svg width="352" height="448" viewBox="0 0 352 448" xmlns="http://www.w3.org/2000/svg" xmlns:xlink="http://www.w3.org/1999/xlink" fill="#333333"><path d="M 324.50,330.50q0.00,10.00 -7.00,17.00l-34.00,34.00q-7.00,7.00 -17.00,7.00t-17.00-7.00l-73.50-73.50l-73.50,73.50q-7.00,7.00 -17.00,7.00t-17.00-7.00l-34.00-34.00q-7.00-7.00 -7.00-17.00t 7.00-17.00l 73.50-73.50l-73.50-73.50q-7.00-7.00 -7.00-17.00t 7.00-17.00l 34.00-34.00q 7.00-7.00 17.00-7.00t 17.00,7.00l 73.50,73.50l 73.50-73.50q 7.00-7.00 17.00-7.00t 17.00,7.00l 34.00,34.00q 7.00,7.00 7.00,17.00 t-7.00,17.00l-73.50,73.50l 73.50,73.50q 7.00,7.00 7.00,17.00z" ></path></svg>