<?xml version="1.0" encoding="utf-8"?> <!-- Generator: IcoMoon.io --> <!DOCTYPE svg PUBLIC "-//W3C//DTD SVG 1.1//EN" "http://www.w3.org/Graphics/SVG/1.1/DTD/svg11.dtd"> <svg width="480" height="448" viewBox="0 0 480 448" xmlns="http://www.w3.org/2000/svg" xmlns:xlink="http://www.w3.org/1999/xlink" fill="#333333"><path d="M 277.75,249.00l0.00-1.00 l-6.00-80.00q-0.25-3.25 -2.75-5.625t-5.75-2.375l-46.50,0.00 q-3.25,0.00 -5.75,2.375t-2.75,5.625l-6.00,80.00l0.00,1.00 q-0.25,3.00 2.00,5.00t 5.25,2.00l 61.00,0.00 q 3.00,0.00 5.25-2.00t 2.00-5.00zM 467.50,365.75q0.00,18.25 -11.50,18.25l-176.00,0.00 q 3.25,0.00 5.50-2.375t 2.00-5.625l-5.00-64.00q-0.25-3.25 -2.75-5.625t-5.75-2.375l-68.00,0.00 q-3.25,0.00 -5.75,2.375t-2.75,5.625l-5.00,64.00 q-0.25,3.25 2.00,5.625t 5.50,2.375l-176.00,0.00 q-11.50,0.00 -11.50-18.25q0.00-13.50 6.50-29.00l 104.25-261.00q 2.00-4.75 6.50-8.25t 9.50-3.50l 84.75,0.00 q-3.25,0.00 -5.75,2.375t-2.75,5.625l-3.75,48.00q-0.25,3.50 2.00,5.75t 5.50,2.25l 41.50,0.00 q 3.25,0.00 5.50-2.25t 2.00-5.75l-3.75-48.00q-0.25-3.25 -2.75-5.625t-5.75-2.375l 84.75,0.00 q 5.00,0.00 9.50,3.50t 6.50,8.25l 104.25,261.00q 6.50,15.50 6.50,29.00z" ></path></svg>