<?xml version="1.0" encoding="utf-8"?> <!-- Generator: IcoMoon.io --> <!DOCTYPE svg PUBLIC "-//W3C//DTD SVG 1.1//EN" "http://www.w3.org/Graphics/SVG/1.1/DTD/svg11.dtd"> <svg width="512" height="512" viewBox="0 0 512 512" xmlns="http://www.w3.org/2000/svg" xmlns:xlink="http://www.w3.org/1999/xlink" fill="#333333"><path d="M 432.00,464.00l-31.984-0.992L 400.016,496.00 l-48.00,0.00 l0.00-32.00 L 161.008,464.00 l-0.992,32.00l-48.00,0.00 l0.00-31.008 L 80.00,464.00 c-17.664,0.00-32.00-14.336-32.00-32.00L 48.00,48.00 c0.00-17.664, 14.336-32.00, 32.00-32.00l 352.00,0.00 c 17.664,0.00, 32.00,14.336, 32.00,32.00l0.00,384.00 C 464.00,449.664, 449.664,464.00, 432.00,464.00z M 416.00,64.00L 96.00,64.00 l0.00,63.328 L 80.336,127.008 l0.00,49.328 L 96.00,176.336 l0.00,126.672 L 80.00,303.008 L 80.00,352.00 l 16.00,0.00 l0.00,64.00 l 320.00,0.00 L 416.00,64.00 z M 400.00,400.00L 112.00,400.00 l0.00-48.00 l 16.00,0.00 l0.00-48.992 L 112.00,303.008 L 112.00,176.00 l 16.00,0.00 l 0.336-48.672L 112.00,127.328 L 112.00,80.00 l 288.00,0.00 L 400.00,400.00 z M 232.992,168.992c-35.344,0.00-64.00,28.656-64.00,64.00 s 28.656,64.00, 64.00,64.00c 35.36,0.00, 64.00-28.656, 64.00-64.00S 268.352,168.992, 232.992,168.992z M 376.00,184.288c0.00-8.848-7.152-16.00-16.00-16.00c-8.832,0.00-16.00,7.152-16.00,16.00 c0.00,5.856, 3.312,10.768, 8.00,13.552l0.00,84.624 c-4.688,2.784-8.00,7.68-8.00,13.552c0.00,8.832, 7.168,16.00, 16.00,16.00c 8.848,0.00, 16.00-7.168, 16.00-16.00 c0.00-6.304-3.712-11.616-8.992-14.224l0.00-83.28 C 372.288,195.888, 376.00,190.576, 376.00,184.288z M 232.00,260.00c-13.248,0.00-24.00-10.752-24.00-24.00 c0.00-13.264, 10.752-24.00, 24.00-24.00c 13.264,0.00, 24.00,10.736, 24.00,24.00C 256.00,249.248, 245.264,260.00, 232.00,260.00z" ></path></svg>