<?xml version="1.0" encoding="utf-8"?> <!-- Generator: IcoMoon.io --> <!DOCTYPE svg PUBLIC "-//W3C//DTD SVG 1.1//EN" "http://www.w3.org/Graphics/SVG/1.1/DTD/svg11.dtd"> <svg width="384" height="448" viewBox="0 0 384 448" xmlns="http://www.w3.org/2000/svg" xmlns:xlink="http://www.w3.org/1999/xlink" fill="#333333"><path d="M 64.00,112.00q0.00-6.50 -4.75-11.25t-11.25-4.75t-11.25,4.75t-4.75,11.25t 4.75,11.25t 11.25,4.75t 11.25-4.75t 4.75-11.25zM 352.00,256.00q0.00-8.75 -5.375-20.25t-13.375-11.75q 3.75-4.25 6.25-11.875t 2.50-13.875q0.00-17.25 -13.25-29.75q 4.50-8.00 4.50-17.25t-4.375-18.375t-11.875-13.125q 1.25-7.50 1.25-14.00q0.00-21.25 -12.25-31.50t-34.00-10.25l-32.00,0.00 q-32.75,0.00 -85.50,18.25q-1.25,0.50 -7.25,2.625 t-8.875,3.125t-8.75,2.875t-9.50,2.75t-8.25,1.625t-7.875,0.75l-8.00,0.00 l0.00,160.00 l 8.00,0.00 q 4.00,0.00 8.875,2.25t 10.00,6.75t 9.625,8.875t 10.00,11.00t 8.625,10.625t 7.875,10.25t 5.75,7.50q 13.75,17.00 19.25,22.75q 10.25,10.75 14.875,27.375t 7.625,31.375t 9.50,21.25q 24.00,0.00 32.00-11.75t 8.00-36.25q0.00-14.75 -12.00-40.125t-12.00-39.875l 88.00,0.00 q 12.50,0.00 22.25-9.625t 9.75-22.375z M 384.00,256.25q0.00,25.75 -19.00,44.75t-45.00,19.00l-44.00,0.00 q 12.00,24.75 12.00,48.00q0.00,29.50 -8.75,46.50q-8.75,17.25 -25.50,25.375t-37.75,8.125q-12.75,0.00 -22.50-9.25q-8.50-8.25 -13.50-20.50t-6.375-22.625t-4.375-21.125t-7.75-16.00q-12.00-12.50 -26.75-31.75q-25.25-32.75 -34.25-38.75l-68.50,0.00 q-13.25,0.00 -22.625-9.375t-9.375-22.625l0.00-160.00 q0.00-13.25 9.375-22.625t 22.625-9.375 l 72.00,0.00 q 5.50,0.00 34.50-10.00q 32.00-11.00 55.75-16.50t 50.00-5.50l 28.00,0.00 q 35.00,0.00 56.625,19.75t 21.375,54.00l0.00,1.25 q 15.00,19.25 15.00,44.50q0.00,5.50 -0.75,10.75q 9.50,16.75 9.50,36.00q0.00,9.00 -2.25,17.25q 12.25,18.50 12.25,40.75z" ></path></svg>