<?xml version="1.0" encoding="utf-8"?> <!-- Generator: IcoMoon.io --> <!DOCTYPE svg PUBLIC "-//W3C//DTD SVG 1.1//EN" "http://www.w3.org/Graphics/SVG/1.1/DTD/svg11.dtd"> <svg width="448" height="448" viewBox="0 0 448 448" xmlns="http://www.w3.org/2000/svg" xmlns:xlink="http://www.w3.org/1999/xlink" fill="#333333"><path d="M 424.00,96.00q 10.00,0.00 17.00,7.00t 7.00,17.00l0.00,304.00 q0.00,10.00 -7.00,17.00t-17.00,7.00l-240.00,0.00 q-10.00,0.00 -17.00-7.00t-7.00-17.00l0.00-72.00 l-136.00,0.00 q-10.00,0.00 -17.00-7.00t-7.00-17.00l0.00-168.00 q0.00-10.00 5.00-22.00t 12.00-19.00l 102.00-102.00q 7.00-7.00 19.00-12.00t 22.00-5.00l 104.00,0.00 q 10.00,0.00 17.00,7.00t 7.00,17.00l0.00,82.00 q 17.00-10.00 32.00-10.00l 104.00,0.00 zM 288.00,149.25l-74.75,74.75l 74.75,0.00 l0.00-74.75 zM 128.00,53.25l-74.75,74.75 l 74.75,0.00 l0.00-74.75 zM 177.00,215.00l 79.00-79.00l0.00-104.00 l-96.00,0.00 l0.00,104.00 q0.00,10.00 -7.00,17.00t-17.00,7.00l-104.00,0.00 l0.00,160.00 l 128.00,0.00 l0.00-64.00 q0.00-10.00 5.00-22.00t 12.00-19.00zM 416.00,416.00l0.00-288.00 l-96.00,0.00 l0.00,104.00 q0.00,10.00 -7.00,17.00t-17.00,7.00l-104.00,0.00 l0.00,160.00 l 224.00,0.00 z" ></path></svg>