<?xml version="1.0" encoding="utf-8"?> <!-- Generator: IcoMoon.io --> <!DOCTYPE svg PUBLIC "-//W3C//DTD SVG 1.1//EN" "http://www.w3.org/Graphics/SVG/1.1/DTD/svg11.dtd"> <svg width="256" height="448" viewBox="0 0 256 448" xmlns="http://www.w3.org/2000/svg" xmlns:xlink="http://www.w3.org/1999/xlink" fill="#333333"><path d="M0.00,415.50l 4.25-21.25q 1.00-0.25 19.25-5.00q 19.00-4.75 29.00-9.75q 7.25-9.25 10.25-25.25l 6.75-34.75l 14.00-67.00l 3.00-16.00q 2.00-11.00 4.25-21.125t 4.00-16.75t 3.125-11.625t 2.25-7.625t 0.875-2.875l 7.25-39.25l 4.00-15.75l 5.50-33.75l 2.00-12.50l0.00-9.50 q-10.25-5.50 -36.00-7.00q-7.00-0.50 -9.50-1.00l 4.75-25.75l 79.25,3.50q 9.75,0.50 18.25,0.50q 16.50,0.00 53.50-2.25q 8.25-0.50 17.00-1.125t 9.00-0.625q-0.50,4.75 -1.50,9.50 q-1.75,7.25 -3.25,12.75q-13.75,4.75 -27.25,7.75q-16.00,4.00 -25.25,7.75q-3.00,7.75 -6.00,22.00q-2.25,11.00 -3.25,20.50q-11.00,49.75 -16.50,76.50l-15.25,77.75l-9.50,39.50l-10.75,58.75l-3.00,11.25q-0.50,1.75 0.25,6.75q 16.00,3.75 29.75,5.25q 9.00,1.25 16.50,2.50q-0.25,7.25 -1.75,14.50q-1.75,7.75 -2.25,10.25q-4.50,0.00 -5.75,0.25q-6.00,0.50 -10.50,0.50q-2.25,0.00 -7.00-0.75q-4.75-1.00 -36.25-4.25 l-49.50-0.50q-10.25-0.25 -43.50,2.75q-18.50,1.75 -24.50,2.25z" ></path></svg>