<?xml version="1.0" encoding="utf-8"?> <!-- Generator: IcoMoon.io --> <!DOCTYPE svg PUBLIC "-//W3C//DTD SVG 1.1//EN" "http://www.w3.org/Graphics/SVG/1.1/DTD/svg11.dtd"> <svg width="352" height="448" viewBox="0 0 352 448" xmlns="http://www.w3.org/2000/svg" xmlns:xlink="http://www.w3.org/1999/xlink" fill="#333333"><path d="M 138.75,380.25q 19.00,8.00 35.00,8.00q 32.75,0.00 54.00-10.25t 30.50-28.25q 9.50-17.50 9.50-45.25q0.00-28.50 -10.25-45.00q-14.50-23.50 -35.25-31.50q-20.00-8.00 -61.75-8.00q-18.50,0.00 -25.25,2.50l0.00,36.00 l-0.25,43.25l 0.75,67.50q0.00,3.75 3.00,11.00zM 135.25,193.75q 10.75,1.75 27.25,1.75q 43.75,0.00 66.00-16.25t 22.25-56.00q0.00-28.00 -21.25-46.75q-21.00-18.75 -63.75-18.75q-13.00,0.00 -32.50,3.25q0.00,11.00 0.50,19.25 q 1.75,30.50 1.50,69.75l-0.25,24.50q0.00,10.75 0.25,19.25zM0.00,416.00l 0.50-23.50q 11.25-2.25 17.00-3.00q 19.25-3.00 30.75-7.75q 4.25-6.75 5.25-12.75q 2.25-16.50 2.25-48.50l-0.50-124.25q-1.25-64.00 -2.25-101.00q-0.25-21.75 -2.75-27.25q-0.25-1.00 -3.00-3.00q-4.50-3.00 -17.25-3.75q-7.50-0.50 -28.50-3.25l-1.00-20.75l 65.00-1.50l 95.00-3.25l 11.25-0.25q 1.25,0.00 3.50-0.125t 3.50-0.125q 0.25,0.00 5.375,0.125t 10.125,0.125l 18.50,0.00 q 22.00,0.00 47.75,6.75 q 10.75,3.25 24.00,9.75q 14.25,7.25 25.50,19.00q 11.00,11.75 16.25,26.00t 5.25,30.50q0.00,17.50 -8.00,32.00t-23.75,26.25q-6.50,5.00 -37.50,19.25q 44.25,10.25 66.75,36.50q 23.00,26.50 23.00,59.00q0.00,19.00 -7.25,40.25q-5.25,15.50 -17.75,29.25q-16.50,18.00 -35.00,27.00q-18.25,9.00 -50.75,15.00q-20.50,3.75 -49.50,2.75l-49.25-1.00q-21.00-0.50 -74.50,2.75q-8.25,0.75 -68.00,2.75z" ></path></svg>