<?xml version="1.0" encoding="utf-8"?> <!-- Generator: IcoMoon.io --> <!DOCTYPE svg PUBLIC "-//W3C//DTD SVG 1.1//EN" "http://www.w3.org/Graphics/SVG/1.1/DTD/svg11.dtd"> <svg version="1.1" xmlns="http://www.w3.org/2000/svg" xmlns:xlink="http://www.w3.org/1999/xlink" x="0px" y="0px" width="700" height="308" viewBox="0 0 700 308" enable-background="new 0 0 512 512" xml:space="preserve" fill="#333333"> <path d="M 25.266,7.012c-0.829,0.368-1.72,0.616-2.655,0.728c 0.954-0.572, 1.687-1.478, 2.032-2.557 c-0.893,0.53-1.882,0.914-2.935,1.122c-0.843-0.898-2.045-1.46-3.374-1.46c-2.984,0.00-5.177,2.784-4.503,5.676 c-3.842-0.193-7.248-2.033-9.528-4.83c-1.211,2.077-0.628,4.796, 1.431,6.171c-0.758-0.024-1.471-0.232-2.094-0.578 c-0.05,2.142, 1.485,4.144, 3.708,4.591c-0.651,0.177-1.363,0.218-2.087,0.079c 0.588,1.836, 2.295,3.173, 4.318,3.21 C 7.635,20.687, 5.187,21.368, 2.734,21.079c 2.046,1.312, 4.475,2.077, 7.086,2.077c 8.582,0.00, 13.431-7.249, 13.139-13.75 C 23.862,8.753, 24.646,7.939, 25.266,7.012zM 81.266,16.109c0.00,1.509-1.223,2.732-2.732,2.732l-7.60,0.00 L 70.933,9.451 c 0.29-0.106, 0.594-0.185, 0.907-0.234c 0.245-0.038, 0.496-0.059, 0.752-0.059c 2.544,0.00, 4.629,1.962, 4.826,4.455 c 0.341-0.153, 0.718-0.238, 1.115-0.238C 80.042,13.376, 81.266,14.60, 81.266,16.109z M 68.092,11.307l0.00,7.534 l 0.907,0.00 L 68.999,10.757 c-0.202,0.224-0.383,0.466-0.541,0.724C 68.339,11.417, 68.217,11.359, 68.092,11.307z M 69.497,18.841l 0.907,0.00 L 70.404,9.681 c-0.325,0.165-0.629,0.366-0.907,0.597L 69.497,18.841 z M 63.738,12.251l0.00,6.59 l 0.907,0.00 L 64.645,11.531 C 64.308,11.726, 64.002,11.969, 63.738,12.251z M 61.017,13.618l0.00,5.20 c 0.111,0.014, 0.225,0.023, 0.34,0.023l 0.476,0.00 l0.00-5.202 c-0.154-0.028-0.314-0.043-0.476-0.043C 61.242,13.596, 61.128,13.604, 61.017,13.618z M 59.815,18.34 c 0.206,0.15, 0.435,0.271, 0.68,0.356l0.00-4.954 c-0.245,0.085-0.474,0.206-0.68,0.356L 59.815,18.34 z M 62.332,13.784l0.00,5.057 l 0.907,0.00 L 63.239,12.912 c-0.204,0.34-0.359,0.712-0.453,1.108C 62.644,13.927, 62.492,13.848, 62.332,13.784z M 65.189,18.841l 0.907,0.00 L 66.096,11.042 c-0.316,0.04-0.619,0.119-0.907,0.229L 65.189,18.841 z M 66.64,18.841l 0.907,0.00 L 67.547,11.128 c-0.291-0.073-0.595-0.113-0.907-0.116L 66.64,18.841 z M 59.369,17.928l0.00-3.42 C 58.974,14.968, 58.734,15.565, 58.734,16.218C 58.734,16.872, 58.974,17.469, 59.369,17.928zM 126.528,2.734C 120.379,2.734, 117.279,7.143, 117.279,10.819c0.00,2.226, 0.843,4.206, 2.65,4.944 c 0.296,0.121, 0.562,0.004, 0.648-0.324c 0.06-0.227, 0.201-0.80, 0.264-1.039c 0.087-0.325, 0.053-0.438-0.186-0.721 c-0.521-0.615-0.854-1.411-0.854-2.538c0.00-3.271, 2.447-6.198, 6.372-6.198c 3.475,0.00, 5.385,2.124, 5.385,4.96 c0.00,3.732-1.651,6.881-4.103,6.881c-1.354,0.00-2.367-1.12-2.043-2.493c 0.389-1.64, 1.143-3.409, 1.143-4.592 c0.00-1.059-0.569-1.943-1.746-1.943c-1.384,0.00-2.496,1.432-2.496,3.35c0.00,1.222, 0.413,2.048, 0.413,2.048 s-1.416,6.001-1.665,7.052c-0.495,2.093-0.074,4.659-0.039,4.918c 0.021,0.154, 0.218,0.19, 0.307,0.074 c 0.128-0.167, 1.776-2.202, 2.337-4.235c 0.159-0.576, 0.91-3.557, 0.91-3.557c 0.45,0.858, 1.764,1.613, 3.161,1.613 c 4.16,0.00, 6.983-3.793, 6.983-8.87C 134.721,6.31, 131.47,2.734, 126.528,2.734zM 193.266,7.73l-2.987,0.00 l0.00,2.987 l-1.494,0.00 l0.00-2.987 l-2.987,0.00 l0.00-1.494 l 2.987,0.00 L 188.785,3.249 l 1.494,0.00 l0.00,2.987 L 193.266,6.236 L 193.266,7.73 z M 184.821,20.085 c0.00,2.239-2.044,4.965-7.188,4.965C 173.872,25.049, 170.734,23.427, 170.734,20.698c0.00-2.106, 1.333-4.84, 7.565-4.84 c-0.925-0.754-1.153-1.809-0.587-2.951c-3.648,0.00-5.517-2.145-5.517-4.868c0.00-2.665, 1.982-5.088, 6.024-5.088 c 1.02,0.00, 6.475,0.00, 6.475,0.00l-1.447,1.519l-1.70,0.00 c 1.199,0.687, 1.837,2.102, 1.837,3.661 c0.00,1.431-0.788,2.591-1.913,3.461c-1.996,1.543-1.485,2.405, 0.606,3.93C 184.139,17.067, 184.821,18.259, 184.821,20.085 z M 180.783,8.228c-0.301-2.292-1.794-4.172-3.538-4.224c-1.745-0.052-2.915,1.702-2.614,3.994 c 0.301,2.292, 1.96,3.893, 3.705,3.945C 180.079,11.995, 181.084,10.52, 180.783,8.228z M 182.581,20.314 c0.00-1.885-1.719-3.681-4.604-3.681c-2.60-0.029-4.803,1.643-4.803,3.58c0.00,1.977, 1.878,3.623, 4.478,3.623 C 180.976,23.836, 182.581,22.292, 182.581,20.314zM 249.246,13.707l 0.02-0.209c-1.252-0.121-2.497-0.132-3.707-0.04 c 0.195-0.621, 0.297-1.321, 0.29-2.119c-0.016-1.693-0.581-3.012-1.468-4.107c 0.17-1.031, 0.042-2.062-0.28-3.093 c-1.268,0.104-2.409,0.519-3.425,1.241c-1.899-0.385-3.798-0.41-5.697,0.00c-1.185-0.80-2.349-1.192-3.495-1.241 c-0.34,1.136-0.392,2.255-0.105,3.355c-1.00,1.061-1.382,2.349-1.363,3.774c 0.011,0.816, 0.137,1.543, 0.368,2.185 c-1.192-0.087-2.417-0.076-3.649,0.044l 0.02,0.209c 1.255-0.122, 2.502-0.132, 3.714-0.037c 0.045,0.108, 0.089,0.215, 0.14,0.318 c-1.313-0.035-2.495,0.079-3.601,0.352l 0.05,0.204c 1.123-0.276, 2.326-0.387, 3.67-0.342 c 0.888,1.579, 2.599,2.506, 5.089,2.80c-0.579,0.47-0.89,1.024-0.97,1.652c0.00,0.00-0.262,0.00-1.319,0.00 c-1.772,0.00-2.255-2.259-4.089-2.036C 231.219,17.50, 230.863,20.322, 233.712,20.322c 0.957,0.00, 1.161,0.00, 1.197,0.00l0.00,2.587 c 0.013,0.418-0.169,0.697-0.463,0.891c 1.02,0.103, 1.787-0.406, 1.787-1.031s0.00-3.114,0.00-3.419s 0.319-0.328, 0.319-0.328l0.00,3.992 c 0.013,0.397-0.18,0.623-0.385,0.839c 0.899,0.036, 1.744-0.144, 1.782-0.909c0.00,0.00,0.00-3.628,0.00-3.82s 0.315-0.197, 0.315,0.00 s0.00,3.641,0.00,3.641c 0.009,0.645, 0.567,1.169, 1.747,1.088c-0.316-0.254-0.413-0.511-0.413-0.883s0.00-3.947,0.00-3.947s 0.325-0.017, 0.325,0.328 s0.00,2.752,0.00,3.329c0.00,0.741, 0.89,1.047, 1.905,1.018c-0.333-0.249-0.558-0.546-0.559-0.944l0.00-4.004 c-0.034-0.589-0.274-1.143-0.743-1.66c 2.277-0.35, 3.918-1.258, 4.735-2.887c 1.348-0.046, 2.555,0.065, 3.681,0.342 l 0.05-0.204c-1.115-0.274-2.307-0.388-3.632-0.351c 0.046-0.103, 0.091-0.207, 0.131-0.316 C 246.715,13.574, 247.977,13.584, 249.246,13.707z M 230.234,16.954c-0.056,0.00-0.101-0.032-0.101-0.072c0.00-0.04, 0.045-0.072, 0.101-0.072 c 0.056,0.00, 0.101,0.032, 0.101,0.072C 230.336,16.922, 230.29,16.954, 230.234,16.954z M 230.553,17.172c-0.062,0.00-0.113-0.036-0.113-0.08 s 0.05-0.08, 0.113-0.08s 0.113,0.036, 0.113,0.08S 230.616,17.172, 230.553,17.172z M 230.877,17.455 c-0.073,0.00-0.132-0.042-0.132-0.094s 0.059-0.094, 0.132-0.094c 0.073,0.00, 0.132,0.042, 0.132,0.094S 230.95,17.455, 230.877,17.455z M 231.191,17.794c-0.085,0.00-0.154-0.049-0.154-0.11s 0.069-0.11, 0.154-0.11s 0.154,0.049, 0.154,0.11S 231.277,17.794, 231.191,17.794z M 231.538,18.178c-0.095,0.00-0.172-0.054-0.172-0.122s 0.077-0.122, 0.172-0.122s 0.172,0.055, 0.172,0.122 S 231.633,18.178, 231.538,18.178z M 231.939,18.567c-0.105,0.00-0.191-0.061-0.191-0.135s 0.085-0.135, 0.191-0.135 c 0.105,0.00, 0.191,0.061, 0.191,0.135S 232.044,18.567, 231.939,18.567z M 232.481,18.938c-0.117,0.00-0.212-0.067-0.212-0.15 c0.00-0.083, 0.095-0.15, 0.212-0.15s 0.212,0.067, 0.212,0.15C 232.693,18.87, 232.598,18.938, 232.481,18.938z M 233.153,19.136 c-0.117,0.00-0.212-0.067-0.212-0.15c0.00-0.083, 0.095-0.15, 0.212-0.15s 0.212,0.067, 0.212,0.15 C 233.365,19.069, 233.27,19.136, 233.153,19.136z M 233.862,19.159c-0.117,0.00-0.212-0.067-0.212-0.15 c0.00-0.083, 0.095-0.15, 0.212-0.15s 0.212,0.067, 0.212,0.15C 234.074,19.092, 233.979,19.159, 233.862,19.159z M 234.562,19.173 c-0.117,0.00-0.212-0.067-0.212-0.15c0.00-0.083, 0.095-0.15, 0.212-0.15s 0.212,0.067, 0.212,0.15 C 234.773,19.105, 234.679,19.173, 234.562,19.173zM 291.16,10.10l-2.359,0.00 l0.00,3.851 l 2.359,0.00 L 291.16,25.266 l 4.537,0.00 L 295.697,13.904 l 3.165,0.00 l 0.337-3.803l-3.502,0.00 c0.00,0.00,0.00-1.42,0.00-2.166c0.00-0.897, 0.181-1.252, 1.047-1.252c 0.698,0.00, 2.455,0.00, 2.455,0.00L 299.199,2.734 c0.00,0.00-2.588,0.00-3.141,0.00 c-3.376,0.00-4.898,1.486-4.898,4.333C 291.16,9.547, 291.16,10.10, 291.16,10.10zM 350.00,2.734C 343.778,2.734, 338.734,7.778, 338.734,14.00c0.00,6.222, 5.044,11.266, 11.266,11.266s 11.266-5.044, 11.266-11.266 C 361.266,7.778, 356.222,2.734, 350.00,2.734z M 359.28,13.475c-2.417-0.397-4.64-0.418-6.668-0.069c-0.229-0.529-0.467-1.056-0.72-1.577 c 2.168-0.939, 3.91-2.214, 5.208-3.832C 358.367,9.494, 359.163,11.394, 359.28,13.475z M 355.673,6.639 c-1.131,1.458-2.692,2.612-4.68,3.454c-0.954-1.747-2.044-3.451-3.275-5.105c 0.732-0.186, 1.494-0.295, 2.283-0.295 C 352.136,4.694, 354.10,5.425, 355.673,6.639z M 345.801,5.706c 1.25,1.636, 2.357,3.321, 3.32,5.052 c-2.281,0.672-5.005,1.017-8.153,1.038C 341.618,9.134, 343.411,6.921, 345.801,5.706z M 340.694,14.00 c0.00-0.081, 0.01-0.16, 0.012-0.24c 3.613-0.005, 6.73-0.421, 9.341-1.241c 0.219,0.445, 0.428,0.893, 0.629,1.344 c-3.173,0.992-5.787,3.024-7.826,6.084C 341.505,18.333, 340.694,16.26, 340.694,14.00z M 344.289,21.332 c 1.848-2.899, 4.208-4.786, 7.133-5.658c 0.871,2.272, 1.511,4.609, 1.917,7.003c-1.038,0.401-2.161,0.629-3.339,0.629 C 347.847,23.306, 345.867,22.564, 344.289,21.332z M 355.165,21.736c-0.411-2.208-1.014-4.368-1.802-6.475 c 1.76-0.248, 3.699-0.184, 5.819,0.184C 358.772,18.06, 357.279,20.32, 355.165,21.736zM 405.695,10.944c 4.074-0.074, 6.269,1.266, 6.795,3.864l-3.33,0.00 l0.00-2.796 c-0.881-0.306-1.809-0.431-2.771-0.424l0.00,5.287 L 417.266,16.875 c-0.526-4.219-5.368-7.524-11.266-7.524c-0.102,0.00-0.204,0.001-0.305,0.003 l0.00-1.935 c-0.927-0.061-1.837,0.085-2.728,0.474l0.00,1.759 C 398.514,10.559, 395.166,13.408, 394.734,16.875l 10.961,0.00 L 405.695,10.944 z M 402.967,14.808l-3.423,0.00 c 0.369-1.783, 1.508-2.966, 3.423-3.474L 402.967,14.808 zM 455.102,2.734l 1.353,0.00 l 0.926,3.475L 458.241,2.734l 1.365,0.00 l-1.563,5.168l0.00,3.527 l-1.343,0.00 l0.00-3.527 L 455.102,2.734z M 459.545,9.829c0.00,1.13, 0.591,1.719, 1.747,1.719c 0.959,0.00, 1.714-0.641, 1.714-1.719L 463.006,6.686 c0.00-1.004-0.748-1.723-1.714-1.723c-1.05,0.00-1.747,0.694-1.747,1.723L 459.545,9.829 z M 460.772,6.791 c0.00-0.351, 0.162-0.612, 0.497-0.612c 0.366,0.00, 0.522,0.253, 0.522,0.612l0.00,2.983 c0.00,0.349-0.178,0.607-0.499,0.607 c-0.329,0.00-0.52-0.269-0.52-0.607L 460.772,6.791 z M 466.23,5.015l0.00,4.869 c-0.145,0.182-0.469,0.48-0.701,0.48 c-0.255,0.00-0.318-0.174-0.318-0.432L 465.211,5.015 l-1.193,0.00 l0.00,5.361 c0.00,0.634, 0.194,1.146, 0.833,1.146c 0.361,0.00, 0.862-0.188, 1.378-0.801 l0.00,0.708 l 1.193,0.00 L 467.422,5.015 L 466.23,5.015 z M 464.476,18.164c 0.081,0.107, 0.121,0.263, 0.121,0.469l0.00,3.154 c0.00,0.195-0.033,0.335-0.098,0.421 c-0.125,0.164-0.396,0.156-0.581,0.063c-0.087-0.044-0.176-0.115-0.269-0.215l0.00-3.807 c 0.077-0.084, 0.155-0.146, 0.234-0.186 C 464.082,17.963, 464.339,17.982, 464.476,18.164z M 468.299,18.025c-0.421,0.00-0.507,0.296-0.507,0.716l0.00,0.618 l 1.003,0.00 l0.00-0.618 C 468.795,18.328, 468.707,18.025, 468.299,18.025z M 471.763,22.531c0.00,1.51-1.224,2.734-2.734,2.734L 454.972,25.266 c-1.51,0.00-2.734-1.224-2.734-2.734 L 452.237,15.623 c0.00-1.51, 1.224-2.734, 2.734-2.734l 14.056,0.00 c 1.51,0.00, 2.734,1.224, 2.734,2.734L 471.763,22.531 z M 456.845,16.14l 1.323,0.00 L 458.168,14.938 l-3.925,0.00 l0.00,1.202 l 1.323,0.00 l0.00,7.079 l 1.279,0.00 L 456.845,16.14 z M 461.394,17.11l-1.136,0.00 l0.00,4.637 c-0.139,0.174-0.446,0.457-0.668,0.457c-0.243,0.00-0.302-0.166-0.302-0.412 l0.00-4.683 l-1.136,0.00 l0.00,5.106 c0.00,1.239, 0.84,1.247, 1.453,0.896c 0.226-0.13, 0.444-0.319, 0.653-0.568l0.00,0.674 l 1.136,0.00 L 461.394,17.11 z M 465.766,18.564c0.00-0.829-0.275-1.531-1.107-1.531c-0.406,0.00-0.754,0.259-1.01,0.571L 463.649,14.938 l-1.147,0.00 l0.00,8.281 l 1.147,0.00 l0.00-0.47 c 0.317,0.395, 0.663,0.547, 1.079,0.547c 0.756,0.00, 1.038-0.587, 1.038-1.343L 465.766,18.564 z M 469.964,18.752 c0.00-1.104-0.526-1.797-1.616-1.797c-1.025,0.00-1.725,0.736-1.725,1.797l0.00,2.742 c0.00,1.10, 0.555,1.89, 1.639,1.89 c 1.197,0.00, 1.702-0.713, 1.702-1.89l0.00-0.459 l-1.169,0.00 l0.00,0.425 c0.00,0.532-0.028,0.854-0.507,0.854c-0.457,0.00-0.496-0.396-0.496-0.854 l0.00-1.152 l 2.172,0.00 L 469.964,18.752 zM 529.264,19.652l-4.372,0.00 c0.00-4.758-2.378-2.496-2.378-6.666c0.00-1.505, 0.985-2.322, 2.25-2.322 c 1.869,0.00, 3.17,1.785, 1.40,5.122c-0.582,1.096, 0.619,1.357, 1.909,1.655C 529.363,17.739, 529.264,18.419, 529.264,19.652z M 507.926,17.442c 1.29-0.298, 2.491-0.558, 1.909-1.655c-1.77-3.337-0.469-5.122, 1.40-5.122 c 1.265,0.00, 2.25,0.817, 2.25,2.322c0.00,4.169-2.378,1.908-2.378,6.666L 506.736,19.652 C 506.736,18.419, 506.637,17.739, 507.926,17.442z M 522.163,16.872c-1.623-0.374-3.133-0.702-2.401-2.081c 2.227-4.198, 0.59-6.443-1.761-6.443 c-2.398,0.00-3.994,2.331-1.761,6.443c 0.753,1.387-0.814,1.715-2.402,2.081c-1.622,0.374-1.497,1.229-1.497,2.781 l 11.319,0.00 C 523.66,18.101, 523.785,17.246, 522.163,16.872zM 578.311,2.734L 569.689,2.734 c-0.997,0.00-1.805,0.808-1.805,1.805l0.00,18.922 c0.00,0.997, 0.808,1.805, 1.805,1.805l 8.622,0.00 c 0.997,0.00, 1.805-0.808, 1.805-1.805L 580.116,4.539 C 580.116,3.542, 579.308,2.734, 578.311,2.734z M 573.043,4.387l 2.023,0.00 c 0.121,0.00, 0.219,0.098, 0.219,0.219s-0.098,0.219-0.219,0.219l-2.023,0.00 c-0.121,0.00-0.219-0.098-0.219-0.219S 572.922,4.387, 573.043,4.387z M 574.055,24.23c-0.483,0.00-0.875-0.392-0.875-0.875s 0.392-0.875, 0.875-0.875 c 0.483,0.00, 0.875,0.392, 0.875,0.875S 574.538,24.23, 574.055,24.23z M 578.744,21.533L 569.256,21.533 l0.00-15.066 L 578.744,6.467 L 578.744,21.533 zM 638.386,11.826c-0.57-3.006-3.208-5.238-6.332-5.238c-1.919,0.00-3.699,0.836-4.915,2.274 c-2.032-0.542-4.161,0.644-4.754,2.668C 620.274,12.15, 618.767,14.104, 618.767,16.368c0.00,2.781, 2.262,5.043, 5.098,5.043L 636.19,21.411 c 2.781,0.00, 5.043-2.262, 5.043-5.043C 641.233,14.404, 640.114,12.658, 638.386,11.826z M 636.19,19.224L 623.865,19.224 c-1.629,0.00-2.911-1.281-2.911-2.856c0.00-1.864, 1.512-3.286, 3.401-2.943c-0.631-2.165, 2.413-3.387, 3.535-1.769 c 0.282-0.797, 1.412-2.88, 4.163-2.88c 2.08,0.00, 4.231,1.426, 4.302,4.647c 1.387,0.005, 2.69,1.008, 2.69,2.945 C 639.045,17.943, 637.764,19.224, 636.19,19.224zM 694.209,12.449c-0.243-3.061-2.804-5.469-5.927-5.469c-2.123,0.00-3.986,1.113-5.037,2.786 c-1.979-1.119-4.502,0.197-4.66,2.51C 676.415,12.543, 674.734,14.39, 674.734,16.631c0.00,2.424, 1.965,4.388, 4.388,4.388l 5.374,0.00 l0.00-4.009 l-1.816,0.00 l 3.866-3.872l 3.866,3.872l-1.816,0.00 l0.00,4.009 l 4.28,0.00 c 2.424,0.00, 4.388-1.965, 4.388-4.388 C 697.266,14.672, 695.981,13.013, 694.209,12.449zM 22.209,68.449c-0.243-3.061-2.804-5.469-5.927-5.469c-2.123,0.00-3.986,1.113-5.037,2.786 c-1.979-1.119-4.502,0.197-4.66,2.51C 4.415,68.543, 2.734,70.39, 2.734,72.631c0.00,2.424, 1.965,4.388, 4.388,4.388l 13.754,0.00 c 2.424,0.00, 4.388-1.965, 4.388-4.388C 25.266,70.672, 23.981,69.013, 22.209,68.449z M 14.547,75.264l-3.757-3.763l 1.816,0.00 l0.00-3.894 l 3.881,0.00 l0.00,3.894 l 1.816,0.00 L 14.547,75.264zM 78.654,79.516L 78.654,60.484 c0.00-0.967-0.783-1.75-1.75-1.75l-13.809,0.00 c-0.966,0.00-1.75,0.783-1.75,1.75l0.00,19.031 c0.00,0.966, 0.784,1.75, 1.75,1.75 l 13.809,0.00 C 77.871,81.266, 78.654,80.482, 78.654,79.516z M 63.533,78.805L 63.533,61.195 l 12.934,0.00 l0.00,17.609 L 63.533,78.805 z M 69.535,80.049c0.00-0.257, 0.208-0.465, 0.465-0.465 c 0.257,0.00, 0.465,0.208, 0.465,0.465c0.00,0.257-0.208,0.465-0.465,0.465C 69.743,80.514, 69.535,80.306, 69.535,80.049zM 122.807,78.239c-0.245,0.869-1.434,2.058-2.303,2.303l 10.992,0.00 c-0.839-0.217-2.086-1.464-2.303-2.303L 122.807,78.239 z M 135.898,59.458L 116.102,59.458 c-0.755,0.00-1.367,0.612-1.367,1.367l0.00,14.685 c0.00,0.755, 0.612,1.367, 1.367,1.367 l 19.797,0.00 c 0.755,0.00, 1.367-0.612, 1.367-1.367L 137.266,60.825 C 137.266,60.07, 136.654,59.458, 135.898,59.458z M 134.963,72.461L 117.037,72.461 l0.00-10.70l 17.926,0.00L 134.963,72.461 z M 188.427,60.466c-0.497,0.00-0.974-0.197-1.327-0.547L 185.91,58.734l-7.82,0.00 l-1.19,1.184 c-0.353,0.351-0.83,0.547-1.327,0.547L 172.348,60.466 L 172.348,81.266 l 19.305,0.00 L 191.652,60.466 L 188.427,60.466 z M 189.438,79.051L 174.508,79.051 l0.00-16.406 l 3.409,0.00 l 1.363,1.367L 184.816,64.012 l 1.381-1.367L 189.438,62.645 L 189.438,79.051 z M 176.36,68.516l 0.492-0.455c 0.576,0.279, 0.941,0.491, 1.588,0.952c 1.217-1.381, 2.021-2.081, 3.515-3.011 l 0.16,0.368c-1.232,1.075-2.135,2.273-3.434,4.604C 177.88,70.03, 177.345,69.428, 176.36,68.516z M 176.36,74.367 l 0.492-0.455c 0.576,0.279, 0.941,0.491, 1.588,0.952c 1.217-1.381, 2.021-2.081, 3.515-3.011l 0.16,0.368 c-1.232,1.075-2.135,2.273-3.434,4.604C 177.88,75.882, 177.345,75.28, 176.36,74.367z M 187.555,68.059l-3.828,0.00 l0.00-1.094 l 3.828,0.00 L 187.555,68.059 z M 187.555,69.016l-3.828,0.00 l0.00,1.094 l 3.828,0.00 L 187.555,69.016 z M 187.555,74.439l-3.828,0.00 l0.00-1.094 l 3.828,0.00 L 187.555,74.439 z M 187.555,75.396l-3.828,0.00 l0.00,1.094 l 3.828,0.00 L 187.555,75.396 zM 245.732,62.46c0.00,0.549-0.445,0.994-0.994,0.994s-0.994-0.445-0.994-0.994L 243.745,59.959 c0.00-0.549, 0.445-0.994, 0.994-0.994s 0.994,0.445, 0.994,0.994L 245.732,62.46 z M 232.306,59.955c0.00-0.549-0.445-0.994-0.994-0.994 c-0.549,0.00-0.994,0.445-0.994,0.994l0.00,2.501 c0.00,0.549, 0.445,0.994, 0.994,0.994c 0.549,0.00, 0.994-0.445, 0.994-0.994L 232.306,59.955 z M 246.933,61.406l0.00,1.018 c0.00,1.21-0.985,2.195-2.195,2.195c-1.21,0.00-2.195-0.985-2.195-2.195L 242.544,61.406 L 233.508,61.406 l0.00,1.014 c0.00,1.21-0.985,2.195-2.195,2.195c-1.21,0.00-2.195-0.985-2.195-2.195L 229.118,61.406 L 226.734,61.406 l0.00,19.633 l 22.531,0.00 l0.00-19.633 L 246.933,61.406 z M 247.078,78.851L 228.922,78.851 L 228.922,66.685 l 18.156,0.00 L 247.078,78.851 z M 238.556,74.33c0.00-0.806-0.42-1.435-1.115-1.702c 0.531-0.265, 0.84-0.81, 0.84-1.51 c0.00-1.352-1.318-2.159-2.592-2.159c-1.483,0.00-2.603,0.929-2.67,2.776l 1.651,0.00 c-0.014-0.764, 0.273-1.321, 1.03-1.321 c 0.451,0.00, 0.937,0.273, 0.937,0.873c0.00,0.757-0.82,0.866-1.574,0.80l0.00,1.285 c 1.072,0.00, 1.712,0.068, 1.712,0.989 c0.00,0.727-0.55,1.053-1.095,1.053c-0.827,0.00-1.164-0.617-1.194-1.458l-1.64,0.00 c-0.031,1.90, 1.12,2.903, 2.855,2.903 C 237.249,76.859, 238.556,75.912, 238.556,74.33z M 242.888,76.722L 242.888,69.107 l-1.398,0.00 c-0.173,1.159-1.00,1.498-2.181,1.466 l0.00,1.352 l 1.86,0.00 l0.00,4.797 L 242.888,76.722 zM 298.568,76.251L 289.379,76.251 l0.00-1.641 l 9.189,0.00 L 298.568,76.251 z M 298.566,73.221l-3.579,0.00 l0.00-1.641 l 3.579,0.00 L 298.566,73.221 z M 298.566,70.195l-3.579,0.00 l0.00-1.641 l 3.579,0.00 L 298.566,70.195 z M 296.287,60.922l0.00,4.689 l 4.696,0.00 L 300.983,79.078 L 287.017,79.078 L 287.017,60.922 L 296.287,60.922 M 297.654,58.734L 284.83,58.734 l0.00,22.531 l 18.34,0.00 L 303.17,64.244 L 297.654,58.734z M 293.508,73.221l-4.129,0.00 l0.00-4.667 L 293.508,68.554 L 293.508,73.221 zM 350.00,59.286L 352.659,67.471L 361.266,67.471L 354.303,72.529L 356.963,80.714L 350.00,75.656L 343.037,80.714L 345.697,72.529L 338.734,67.471L 347.341,67.471 zM 411.122,62.467l 1.148-1.67l 1.80,1.243l-1.142,1.663 C 412.371,63.232, 411.766,62.817, 411.122,62.467z M 404.344,58.686l0.00,2.609 c 0.54-0.084, 1.093-0.127, 1.656-0.127 c 0.552,0.00, 1.095,0.042, 1.625,0.123L 407.625,58.686 L 404.344,58.686 z M 415.389,71.924c0.00,5.186-4.204,9.39-9.39,9.39 c-5.186,0.00-9.389-4.204-9.389-9.39c0.00-5.186, 4.204-9.39, 9.389-9.39 C 411.186,62.535, 415.389,66.738, 415.389,71.924z M 412.929,71.924c0.00-3.83-3.099-6.929-6.929-6.929 c-3.83,0.00-6.929,3.10-6.929,6.929c0.00,3.83, 3.10,6.929, 6.929,6.929 C 409.83,78.853, 412.929,75.753, 412.929,71.924z M 407.819,72.419c0.00,0.951-0.771,1.723-1.723,1.723 c-0.951,0.00-1.723-0.771-1.723-1.723c0.00-0.618, 0.326-1.16, 0.815-1.464l 0.63-4.736c 0.013-0.107, 0.102-0.187, 0.21-0.19 c 0.107-0.002, 0.20,0.075, 0.218,0.181l 0.729,4.728C 407.48,71.237, 407.819,71.788, 407.819,72.419zM 473.24,69.754c 0.017,0.769-0.043,1.525-0.18,2.278L 470.668,71.417 c 0.09-0.556, 0.126-1.107, 0.111-1.664L 473.24,69.754 z M 472.649,73.62l-2.393-0.615c-0.195,0.538-0.441,1.051-0.733,1.534 l 2.01,1.429C 471.99,75.237, 472.367,74.451, 472.649,73.62z M 468.537,79.16c 0.75-0.538, 1.431-1.166, 2.027-1.867 l-2.015-1.433c-0.381,0.427-0.803,0.817-1.26,1.163L 468.537,79.16z M 450.712,70.00c0.00,6.222, 5.044,11.266, 11.266,11.266 c 1.86,0.00, 3.614-0.451, 5.16-1.249l-1.244-2.129C 464.714,78.474, 463.384,78.805, 461.977,78.805c-4.863,0.00-8.805-3.942-8.805-8.805 s 3.942-8.805, 8.805-8.805c 2.395,0.00, 4.784,0.956, 6.372,2.508l-1.961,1.961l 6.90,1.26L 472.029,60.023l-1.939,1.939 C 468.057,59.966, 465.052,58.734, 461.977,58.734C 455.756,58.734, 450.712,63.778, 450.712,70.00z M 464.873,73.255l0.00-1.433 l-2.618,0.00 l0.00-1.307 l 2.748-3.688l 1.30,0.00 l0.00,3.724 l 0.823,0.00 l0.00,1.271 l-0.823,0.00 l0.00,1.433 L 464.873,73.255 z M 464.873,70.552l0.00-1.711 l-1.275,1.711L 464.873,70.552 z M 457.032,73.255c0.00-0.97, 0.278-1.725, 1.246-2.442c 1.14-0.844, 2.009-1.176, 2.009-1.957c0.00-0.517-0.311-0.837-0.811-0.837 c-0.697,0.00-0.864,0.73-0.864,1.424l-1.435,0.00 c-0.06-1.799, 0.96-2.739, 2.361-2.739c 1.298,0.00, 2.241,0.864, 2.241,2.055 c0.00,0.594-0.185,1.066-0.581,1.483c-0.628,0.661-1.568,0.995-2.185,1.698l 2.801,0.00 l0.00,1.315 L 457.032,73.255 zM 518.979,63.435l0.00-1.566 l 2.601-2.601c 0.384,0.128, 0.759,0.275, 1.124,0.442 L 518.979,63.435z M 525.605,61.623L 518.979,68.249l0.00,0.771 l 0.794,0.00 l 6.613-6.613C 526.139,62.133, 525.878,61.872, 525.605,61.623z M 518.979,60.245l 1.32-1.32c-0.431-0.088-0.872-0.153-1.32-0.19L 518.979,60.245 z M 529.079,67.719l-1.301,1.301L 529.266,69.02 C 529.228,68.579, 529.165,68.145, 529.079,67.719z M 528.738,66.437c-0.127-0.385-0.274-0.76-0.441-1.126l-3.709,3.709l 1.566,0.00 L 528.738,66.437z M 527.741,64.243c-0.192-0.325-0.40-0.64-0.623-0.943L 521.398,69.02l 1.566,0.00 L 527.741,64.243z M 524.712,60.892c-0.303-0.223-0.617-0.431-0.942-0.624l-4.791,4.791l0.00,1.566 L 524.712,60.892z M 517.061,70.938L 517.061,58.734 C 511.277,59.221, 506.734,64.069, 506.734,69.979C 506.734,76.212, 511.787,81.266, 518.02,81.266C 523.93,81.266, 528.778,76.723, 529.266,70.938L 517.061,70.938 zM 585.266,77.75l0.00,2.188 L 562.734,79.938 L 562.734,60.062 l 2.188,0.00 l0.00,17.688 L 585.266,77.75 z M 584.115,62.746l-5.212,0.985l 1.257,1.241 l-4.877,4.828l-2.20-2.068l-5.918,5.902l 1.857,1.862l 4.107-4.097l 2.193,2.062l 6.709-6.642l 1.165,1.15 L 584.115,62.746zM 638.247,71.788c0.00,0.00-8.213-10.974-9.187-12.204C 628.623,59.034, 627.953,58.734, 627.133,58.734 c-1.011,0.00-2.253,0.455-3.572,1.453c-2.39,1.81-3.016,3.759-2.065,5.104c 0.951,1.346, 9.245,12.285, 9.245,12.285 L 639.476,81.266L 638.247,71.788z M 636.438,71.927c-0.447,0.342-1.054,0.526-1.735,0.512c-1.05-0.021-2.027-0.504-2.613-1.291 c0.00,0.00-3.748-5.008-4.726-6.313c 1.235-0.849, 2.442-1.086, 2.888-1.147C 632.358,66.482, 635.223,70.305, 636.438,71.927z M 629.504,62.694c-0.729,0.168-1.824,0.535-2.929,1.335c-1.102,0.797-1.783,1.857-2.166,2.622 c-0.297-0.396-0.567-0.757-0.802-1.072c 0.266-0.622, 0.88-1.789, 1.996-2.597c 1.451-1.05, 2.901-1.235, 3.164-1.26 C 628.987,62.01, 629.234,62.338, 629.504,62.694z M 622.706,63.46c 0.244-0.639, 0.875-1.367, 1.779-2.051 c 0.959-0.726, 1.924-1.143, 2.647-1.143c 0.34,0.00, 0.585,0.091, 0.727,0.27c 0.037,0.046, 0.085,0.108, 0.143,0.183 c-0.726,0.154-1.883,0.517-3.051,1.362c-1.036,0.75-1.70,1.731-2.094,2.483c-0.044-0.06-0.081-0.113-0.111-0.154 C 622.675,64.307, 622.485,64.039, 622.706,63.46z M 625.174,67.669c 0.20-0.501, 0.703-1.562, 1.643-2.405 c 0.845,1.128, 3.69,4.928, 4.725,6.315c 0.536,0.717, 0.746,1.684, 0.576,2.652c-0.116,0.665-0.41,1.253-0.785,1.591 C 630.091,74.182, 627.264,70.449, 625.174,67.669z M 636.478,78.337l-4.697-1.984c 0.502-0.443, 0.877-1.169, 1.022-2.003 c 0.103-0.587, 0.086-1.175-0.039-1.725c 0.576,0.316, 1.238,0.497, 1.925,0.51c 0.028,0.001, 0.056,0.001, 0.084,0.001 c 0.776,0.00, 1.48-0.216, 2.025-0.61l 0.664,5.119C 636.994,77.693, 636.661,77.917, 636.478,78.337zM 695.516,62.686l0.00,4.228 l-3.452,0.00 l-4.104-3.156l-1.374,1.787l 1.784,1.369l-1.851,0.00 l-4.104-3.156 l-2.427,3.156L 676.43,66.914 L 676.43,60.903 l 5.488,0.00 l 1.257,1.249c 0.344,0.342, 0.81,0.534, 1.296,0.534L 695.516,62.686 z M 697.266,68.826L 674.734,68.826 L 676.047,79.097l 19.61,0.00 L 697.266,68.826zM 2.788,133.498c 0.818-1.627, 1.726-3.861, 1.68-5.418 c-1.102-1.329-1.725-3.042-1.725-4.786c0.00-4.918, 4.771-8.513, 10.112-8.513c 5.308,0.00, 10.112,3.569, 10.112,8.513 c0.00,5.149-5.673,9.958-13.456,8.046C 8.098,132.214, 4.981,133.098, 2.788,133.498z M 24.086,133.542 c 1.486-1.792, 1.638-4.471-0.01-6.50c-1.696,3.819-5.877,6.674-11.244,6.639 c 1.557,1.828, 4.39,2.919, 7.831,2.073c 0.959,0.593, 3.075,1.193, 4.563,1.464 C 24.671,136.115, 24.055,134.599, 24.086,133.542zM 58.72,117.655l0.00,16.69 L 58.74,134.345 l 22.485,0.00 l 0.055,0.00 L 81.28,117.655 L 58.72,117.655 z M 78.724,119.569L 69.997,126.244 L 61.276,119.569L 78.724,119.569 z M 60.634,121.489l 4.676,3.579L 60.634,129.743L 60.634,121.489 z M 60.654,132.431l 6.19-6.19l 3.153,2.413 l 3.138-2.40l 6.176,6.176L 60.654,132.431 z M 79.366,129.779l-4.697-4.697l 4.697-3.593L 79.366,129.779 zM 127.035,122.544c-0.004-0.007, 0.018-0.075, 0.037-0.069c 0.012,0.004, 0.008,0.01, 0.023,0.011 c 0.015,0.001, 0.024-0.016, 0.039-0.014c 0.024,0.004, 0.041,0.027, 0.067,0.028c 0.019,0.00, 0.031-0.019, 0.049-0.02 c 0.014-0.001, 0.026,0.007, 0.039,0.004c 0.014-0.003, 0.025-0.013, 0.037-0.02c 0.024-0.014, 0.021-0.002, 0.048-0.005 c 0.009-0.001, 0.016-0.006, 0.024-0.007c 0.002,0.00, 0.004,0.00, 0.005,0.00c 0.012,0.001, 0.017,0.009, 0.014,0.023 c-0.006,0.032-0.031,0.055-0.035,0.088c-0.003,0.021, 0.025,0.033, 0.017,0.056c-0.017,0.057-0.034,0.06-0.045,0.062 c-0.016,0.003-0.026-0.002-0.033-0.006c-0.019-0.009-0.033-0.027-0.051-0.038c-0.01-0.006-0.021-0.008-0.032-0.012 c-0.032-0.014-0.125-0.078-0.154-0.076c-0.01,0.001-0.019,0.008-0.029,0.007c0.00,0.00-0.001,0.00-0.001,0.00 C 127.051,122.556, 127.041,122.554, 127.035,122.544z M 125.093,119.771c0.00,0.00,0.00,0.000.00,0.00c-0.002,0.003-0.004,0.006-0.005,0.009 c-0.003,0.006-0.001,0.013, 0.004,0.017c 0.006,0.004, 0.013,0.003, 0.017-0.002c 0.005-0.006, 0.012-0.014, 0.02-0.024 c 0.008-0.01, 0.011-0.013, 0.023-0.018c 0.009-0.004, 0.019-0.008, 0.028-0.011c 0.004-0.001, 0.008-0.001, 0.011,0.002 s 0.005,0.006, 0.005,0.01c-0.001,0.022, 0.006,0.046-0.016,0.063c-0.013,0.01-0.023,0.018-0.03,0.024 c-0.007,0.006-0.009,0.017-0.005,0.025c 0.005,0.009, 0.015,0.013, 0.024,0.01c0.00,0.00,0.00,0.00, 0.001,0.001c 0.001,0.001, 0.001,0.001, 0.002,0.003 c 0.006,0.026, 0.007,0.026, 0.041,0.005c 0.001-0.001, 0.002-0.001, 0.004,0.00c 0.001,0.00, 0.001,0.001, 0.001,0.001 c 0.005,0.009, 0.012,0.016, 0.021,0.021c 0.013,0.006, 0.022,0.018, 0.025,0.033c 0.00,0.001, 0.00,0.002, 0.001,0.003 c 0.00,0.001, 0.00,0.002, 0.001,0.002c 0.012,0.036, 0.002,0.075-0.024,0.102c-0.027,0.027-0.066,0.036-0.102,0.024 c0.00,0.000.00,0.000.00,0.00c-0.006-0.002-0.013,0.00-0.016,0.005s-0.003,0.012, 0.001,0.017c 0.004,0.004, 0.008,0.008, 0.008,0.014 c-0.001,0.022-0.029,0.014-0.037,0.029c0.00,0.000.00,0.000.00,0.00c-0.001,0.001-0.001,0.002-0.001,0.004 c0.00,0.003, 0.001,0.006, 0.003,0.008c 0.002,0.002, 0.005,0.003, 0.008,0.002c 0.013-0.003, 0.023-0.014, 0.037-0.015 c 0.026-0.002, 0.006,0.062-0.002,0.072c-0.009,0.01-0.074,0.033-0.095,0.036c-0.013,0.002-0.022,0.003-0.026,0.008 c-0.004,0.005-0.007,0.032, 0.011,0.04c 0.028,0.013, 0.053-0.011, 0.081-0.004c0.00,0.00,0.00,0.00, 0.00,0.00c 0.026,0.007, 0.049,0.021, 0.068,0.04 c 0.002,0.002, 0.004,0.003, 0.005,0.004c 0.009,0.004, 0.019,0.003, 0.028,0.00c 0.002-0.001, 0.004-0.002, 0.006-0.004 c 0.007-0.006, 0.015-0.009, 0.023-0.009c 0.006,0.00, 0.011,0.004, 0.013,0.009c 0.002,0.006,0.00,0.012-0.005,0.015 c-0.02,0.014-0.04,0.029-0.068,0.026c-0.015-0.002-0.03-0.002-0.045,0.00c-0.046,0.005-0.089,0.025-0.122,0.058 c-0.011,0.011-0.023,0.023-0.033,0.034c-0.006,0.006-0.006,0.015-0.001,0.021c 0.005,0.006, 0.014,0.008, 0.021,0.004 c 0.005-0.003, 0.01-0.006, 0.016-0.01c 0.02-0.012, 0.056-0.027, 0.075,0.011c 0.00,0.00, 0.001,0.00, 0.001,0.00 c 0.003,0.001, 0.006,0.00, 0.008-0.002c 0.026-0.02, 0.04-0.057, 0.079-0.06c 0.028-0.002, 0.048,0.025, 0.076,0.019 c 0.032-0.007, 0.058-0.031, 0.092-0.029c 0.013,0.001, 0.048,0.01, 0.051,0.012c 0.01,0.006, 0.01,0.006, 0.061,0.007 c 0.022,0.00, 0.037,0.018, 0.058,0.021c 0.025,0.004, 0.048-0.011, 0.072-0.009c 0.00,0.00, 0.00,0.00, 0.00,0.00c 0.00,0.00, 0.00,0.00, 0.00,0.00 c 0.001,0.00, 0.074-0.014, 0.073-0.044c0.00-0.0010.00-0.001-0.001-0.001c0.00,0.00-0.001,0.00-0.001-0.001 c-0.026-0.015-0.043-0.042-0.047-0.072c0.00-0.002, 0.001-0.004, 0.003-0.005c 0.002-0.001, 0.005,0.00, 0.007,0.001 c 0.001,0.001, 0.003,0.002, 0.004,0.003c 0.008,0.005, 0.013,0.006, 0.016,0.004c 0.018-0.013, 0.036-0.025, 0.055-0.035 c 0.01-0.006, 0.016-0.017, 0.022-0.039c 0.002-0.007, 0.008-0.042-0.036-0.067c0.00,0.00-0.001,0.00-0.001,0.00 c-0.004-0.002-0.087-0.045-0.11-0.032c-0.016,0.008-0.016,0.008-0.044-0.007c-0.001-0.004, 0.001-0.009, 0.004-0.011 c 0.033-0.025, 0.033-0.026, 0.032-0.033c-0.001-0.016-0.009-0.027-0.019-0.037c-0.008-0.009-0.009-0.023-0.002-0.033 c 0.00,0.00, 0.00,0.00, 0.00,0.00c 0.006-0.009-0.027-0.079-0.027-0.079c-0.002-0.002-0.003-0.004-0.008-0.003 c-0.014,0.001-0.028,0.001-0.042,0.001c-0.002,0.00-0.004,0.00-0.007,0.001c0.00,0.00-0.001,0.00-0.001,0.00 c-0.001-0.001-0.001-0.0030.00-0.004c 0.004-0.017-0.013-0.028-0.014-0.044c-0.002-0.016, 0.003-0.032, 0.004-0.048 c 0.001-0.0140.00-0.03-0.005-0.046c-0.017-0.057-0.014-0.117, 0.006-0.172c 0.008-0.023, 0.02-0.044, 0.034-0.064 c 0.033-0.045-0.114-0.04-0.142-0.038c-0.002,0.00-0.004-0.001-0.005-0.003c-0.001-0.002-0.001-0.004, 0.00-0.006 c 0.007-0.011, 0.008-0.025, 0.018-0.034c 0.013-0.013, 0.032-0.017, 0.047-0.026c 0.034-0.021, 0.006-0.034-0.007-0.037 c-0.029-0.008-0.06-0.012-0.091-0.012c-0.012,0.00-0.023,0.002-0.035,0.006c-0.008,0.003-0.017,0.012-0.026,0.025 c-0.018,0.026-0.04,0.048-0.065,0.068c-0.001,0.001-0.003,0.002-0.004,0.003c-0.007,0.005-0.016,0.006-0.024,0.003 c-0.005-0.002-0.01-0.002-0.014,0.00c-0.001,0.00-0.002,0.001-0.003,0.001c-0.008,0.004-0.015,0.011-0.019,0.018 c-0.006,0.009-0.004,0.021, 0.003,0.029c 0.007,0.008, 0.019,0.01, 0.029,0.005c 0.00,0.00, 0.00,0.00, 0.00,0.00 c 0.001,0.003, 0.001,0.0060.00,0.009c-0.006,0.012-0.007,0.025-0.012,0.038c-0.001,0.001-0.002,0.002-0.003,0.003 c-0.002,0.00-0.004-0.001-0.006-0.003c-0.006-0.01-0.009-0.01-0.013-0.009c0.00,0.00-0.001,0.00-0.001,0.00 c-0.017,0.004-0.03,0.045-0.029,0.056c 0.00,0.004, 0.001,0.007, 0.003,0.009C 125.111,119.707, 125.113,119.744, 125.093,119.771z M 137.266,126.00C 137.266,132.222, 132.222,137.266, 126.00,137.266C 119.778,137.266, 114.734,132.222, 114.734,126.00C 114.734,119.778, 119.778,114.734, 126.00,114.734 C 132.222,114.734, 137.266,119.778, 137.266,126.00z M 129.333,121.152c-0.001-0.027, 0.045-0.026, 0.049-0.06c 0.002-0.015-0.005-0.03-0.018-0.039 c-0.016-0.011-0.023-0.008-0.043,0.001c-0.012,0.005-0.025,0.011-0.04,0.011c-0.012,0.00-0.022-0.009-0.024-0.02 c-0.002-0.01, 0.003-0.021, 0.012-0.026c 0.003-0.002, 0.005-0.006, 0.003-0.01c0.00,0.000.00,0.000.00,0.00 c-0.001-0.003-0.004-0.004-0.006-0.005c-0.031-0.008-0.057-0.012-0.079-0.015c-0.041-0.005-0.083-0.002-0.122,0.009 c-0.033,0.009-0.034,0.014-0.042,0.036c-0.02,0.056-0.028,0.079-0.035,0.088c-0.027,0.036-0.047,0.076-0.058,0.12 c-0.004,0.017-0.013,0.031-0.032,0.04c0.00,0.000.00,0.00-0.002,0.00c0.00,0.00-0.012,0.102-0.011,0.113c 0.002,0.023, 0.015,0.045, 0.007,0.069 c-0.007,0.021-0.036,0.016-0.043,0.036c0.00,0.000.00,0.0010.00,0.001c-0.012,0.034, 0.003,0.086, 0.011,0.121 c 0.001,0.003-0.001,0.006-0.004,0.008c-0.003,0.001-0.006,0.001-0.008-0.001c0.00,0.000.00,0.000.00,0.00 c-0.015-0.014-0.022-0.009-0.025-0.003c-0.003,0.005-0.002,0.01, 0.001,0.014c0.00,0.00, 0.00,0.00, 0.00,0.00l 0.042,0.059 c 0.042,0.059, 0.099,0.105, 0.166,0.133c 0.00,0.00, 0.00,0.00, 0.00,0.00c 0.036,0.016, 0.071-0.009, 0.107-0.004 c 0.04,0.005, 0.08-0.002, 0.12-0.002c 0.014,0.00, 0.041-0.004, 0.059-0.012c 0.014-0.006, 0.016-0.016, 0.017-0.028 c 0.00-0.001, 0.00-0.002, 0.00-0.003c 0.001-0.01, 0.003-0.012, 0.047-0.047c 0.032-0.025, 0.071-0.039, 0.104-0.064 c 0.055-0.043, 0.125,0.00, 0.184-0.018c 0.014-0.004, 0.20,0.066, 0.212,0.072c 0.00,0.00, 0.001,0.00, 0.001,0.00 c 0.055,0.023, 0.202,0.024, 0.237,0.034c 0.014,0.004, 0.036,0.009, 0.057,0.008c 0.001-0.001, 0.003-0.001, 0.004-0.002 c 0.029-0.014, 0.048-0.06, 0.088-0.039c 0.07,0.035, 0.269,0.004, 0.221-0.16c-0.026-0.089-0.144-0.138-0.179-0.151 c-0.107-0.039-0.176-0.13-0.27-0.188c-0.041-0.025-0.09-0.003-0.133-0.02c-0.096-0.038-0.096-0.038-0.101-0.066 c0.00-0.002, 0.00-0.004, 0.002-0.006c 0.026-0.036, 0.045-0.077, 0.058-0.12c 0.00,0.00, 0.00-0.001, 0.00-0.001 c 0.005-0.015, 0.01-0.023-0.006-0.034c-0.022-0.014-0.064-0.001-0.069-0.037c-0.003-0.029, 0.059-0.061, 0.084-0.075 c 0.021-0.012, 0.03-0.028, 0.034-0.039c 0.006-0.016-0.014-0.037-0.022-0.036c-0.029,0.003-0.111,0.052-0.122,0.053 c0.00,0.000.00,0.000.00,0.00c-0.004,0.00-0.007,0.002-0.01,0.004c0.00,0.00,0.00,0.000.00,0.00l-0.185,0.107 c0.00,0.000.00,0.00-0.001,0.00c-0.033,0.024-0.051,0.064-0.048,0.104c 0.003,0.041, 0.027,0.077, 0.063,0.096 c 0.015,0.008, 0.037,0.012, 0.03,0.028c0.00,0.000.00,0.000.00,0.00c-0.004,0.008-0.105,0.104-0.116,0.105 c-0.027,0.003-0.037-0.01-0.039-0.014c-0.001-0.002-0.002-0.004-0.002-0.005c-0.016-0.046-0.052-0.083-0.104-0.099 C 129.341,121.172, 129.334,121.163, 129.333,121.152z M 135.017,126.00c0.00-0.934-0.16-1.877-0.324-2.376 c-0.051-0.156-0.17-0.282-0.323-0.341c-0.153-0.06-0.325-0.047-0.468,0.034c-0.361,0.204-0.35,0.23-0.476,0.224 c-0.058-0.003-0.317,0.169-0.41-0.028c-0.018-0.037-0.108-0.205-0.235,0.026c-0.034,0.063-0.221,0.015-0.283-0.019 c-0.182-0.102-0.406-0.339-0.461-0.398c0.00,0.000.00,0.000.00,0.00c0.00,0.000.00,0.000.00,0.00 c-0.062-0.072-0.242,0.026-0.11,0.223c 0.442,0.659, 0.52,0.665, 0.645,0.731c 0.00,0.00, 0.00,0.00, 0.00,0.00 c 0.059-0.045, 0.051-0.058, 0.127-0.069c 0.048-0.007, 0.089-0.037, 0.11-0.08c 0.00,0.00, 0.00-0.001, 0.001-0.001 c 0.024-0.05, 0.07-0.085, 0.124-0.097s 0.11,0.003, 0.152,0.04c 0.00,0.00, 0.001,0.001, 0.001,0.001 c 0.077,0.066, 0.175,0.005, 0.257,0.044c 0.206,0.097, 0.128,0.294, 0.087,0.528c0.00,0.001-0.001,0.001-0.001,0.002 c-0.001,0.00-0.001,0.001-0.002,0.00c-0.019-0.004-0.037,0.011-0.037,0.03c-0.001,0.074, 0.047,0.143, 0.032,0.219 c-0.001,0.003-0.002,0.005-0.005,0.006c-0.025,0.012-0.047,0.029-0.066,0.049c-0.059,0.063-0.063,0.142-0.114,0.213 c-0.048,0.067, 0.004,0.217-0.112,0.218c-0.044,0.00-0.192,0.085-0.215,0.182c-0.027,0.115-0.09,0.218-0.18,0.294 c-0.066,0.056-0.157,0.129-0.281,0.226c-0.059,0.046-0.299,0.305-0.505,0.353c-0.028,0.007-0.058-0.004-0.075-0.028 c-0.001-0.001-0.002-0.003-0.003-0.004c-0.136-0.211-0.164-0.464-0.271-0.686c-0.126-0.263-0.468-0.333-0.563-0.625 c-0.08-0.246-0.114-0.35-0.226-0.414c-0.078-0.044-0.144-0.106-0.192-0.182c-0.079-0.124-0.199-0.30-0.297-0.395 c-0.045-0.043-0.074-0.099-0.084-0.16c-0.005-0.027-0.045-0.025-0.047,0.003c-0.006,0.098, 0.013,0.129-0.015,0.15 c-0.023,0.017-0.051,0.008-0.071-0.013c-0.07-0.072-0.185-0.204-0.214-0.277c0.00,0.000.00,0.0010.00,0.001 c-0.007,0.029-0.002,0.059, 0.015,0.083c 0.152,0.216, 0.893,1.286, 0.911,1.387c 0.123,0.673, 0.644,0.834, 0.91,1.082 c 0.05,0.047, 0.083,0.107, 0.096,0.172c 0.012,0.062, 0.042,0.116, 0.088,0.158c 0.049,0.045, 0.098,0.039, 0.376,0.004 c 0.046-0.006, 0.076-0.039, 0.108-0.068c 0.027-0.025, 0.253-0.105, 0.282-0.124c 0.061-0.039-0.015-0.016, 0.125-0.082 c 0.055-0.026, 0.119-0.191, 0.108-0.004c-0.002,0.048, 0.025,0.092, 0.019,0.14c-0.029,0.284-0.053,0.331-0.069,0.386 c-0.022,0.073-0.05,0.143-0.068,0.216c-0.085,0.348-0.22,0.719-0.454,0.993c-0.005,0.006-0.01,0.011-0.016,0.017 c-0.129,0.12-0.366,0.341-0.558,0.718c-0.121,0.237-0.292,0.443-0.419,0.676c-0.042,0.079-0.053,0.099-0.015,0.205 c 0.027,0.076, 0.107,0.427, 0.119,0.878c 0.013,0.491-0.066,0.572-0.223,0.686c-0.252,0.182-0.424,0.307-0.541,0.394 c-0.138,0.102-0.221,0.263-0.223,0.435c-0.001,0.063-0.016,0.143-0.059,0.239c 0.00,0.00, 0.00,0.00, 0.00,0.001 c 0.009,0.017-0.325,0.184-0.44,0.32c0.00,0.000.00,0.000.00,0.00c-0.001,0.0030.00,0.007, 0.001,0.01 c 0.078,0.243-0.906,0.948-1.111,0.947c-0.148-0.001-0.511,0.057-0.684,0.131c-0.116,0.05-0.432-0.057-0.455-0.124 c-0.004-0.01-0.005-0.028, 0.004-0.035c 0.077-0.064-0.183-0.44-0.245-0.483c-0.04-0.028-0.115-0.203-0.146-0.247 c-0.095-0.134, 0.068-0.323-0.038-0.457c-0.006-0.007-0.011-0.015-0.017-0.022l-0.306-0.428c-0.048-0.067-0.183-0.145-0.184-0.227 c0.00,0.00,0.00,0.00,0.00,0.00c-0.001-0.089, 0.159-0.52, 0.171-0.538c 0.015-0.021, 0.028-0.044, 0.04-0.067 c 0.007-0.013, 0.019-0.022, 0.042-0.034c 0.078-0.04, 0.189-0.138, 0.062-0.346c-0.007-0.013-0.007,0.042-0.048-0.246 c-0.026-0.19-0.276-0.619-0.318-0.664c0.00,0.00-0.289-0.138-0.422-0.41c 0.007-0.016, 0.017-0.029, 0.03-0.04 c 0.122-0.098, 0.10-0.221, 0.136-0.484c 0.002-0.013, 0.004-0.027, 0.007-0.04c 0.00-0.001, 0.00-0.001, 0.00-0.002l 0.004-0.018 c 0.00-0.001, 0.00-0.001, 0.00-0.002c 0.00,0.00, 0.00,0.00, 0.00,0.00c 0.011-0.052, 0.025-0.122-0.046-0.229 c-0.012-0.019-0.034-0.029-0.057-0.027c-0.001,0.00-0.002,0.00-0.003,0.00c-0.039,0.003-0.073-0.025-0.077-0.064 c0.00-0.0010.00-0.0010.00-0.001c0.00-0.0010.00-0.001-0.001-0.001c-0.057-0.023-0.121-0.026-0.18-0.009 c-0.13,0.038-0.407,0.095-0.438-0.084c-0.042-0.241-0.206-0.293-0.287-0.288c-0.344,0.024-0.635,0.32-0.991,0.296 c-0.016-0.001-0.036-0.009-0.051-0.014c-0.307-0.116-0.638-0.118-0.95-0.178c-0.106-0.02-0.258-0.072-0.335-0.147l-0.437-0.43 c-0.028-0.028-0.054-0.059-0.075-0.092c-0.139-0.213-0.19-0.682-0.227-0.766c-0.005-0.012-0.011-0.025-0.018-0.036l-0.038-0.071 c0.00-0.001-0.001-0.001-0.001-0.002c0.00,0.000.00,0.000.00,0.00c-0.102-0.133-0.134-0.308-0.085-0.468l 0.173-0.574 c 0.003-0.008, 0.005-0.017, 0.007-0.026c 0.004-0.018, 0.008-0.037, 0.011-0.056c 0.041-0.285-0.013-0.389-0.04-0.441 c-0.05-0.095-0.05-0.095, 0.197-0.439c 0.449-0.626, 0.526-0.657, 0.616-0.693c0.00,0.00,0.00,0.00,0.00,0.00c 0.00,0.00, 0.001,0.00, 0.001,0.00 c 0.195,0.022, 0.565-0.216, 0.558-0.345c-0.002-0.041-0.007-0.128, 0.066-0.243c 0.028-0.044, 0.064-0.084, 0.105-0.117l 0.404-0.328 c 0.074-0.061, 0.179-0.066, 0.26-0.013c0.00,0.00,0.00,0.00, 0.00,0.00c 0.055-0.019, 0.114-0.017, 0.167,0.007c 0.069,0.03, 0.113,0.009, 0.135-0.001 c 0.244-0.117, 0.511-0.153, 1.75-0.232c 0.042-0.003, 0.082,0.016, 0.108,0.049c 0.00,0.00, 0.00,0.001, 0.001,0.001 c 0.073,0.094, 0.018,0.082, 0.101,0.222c 0.032,0.053, 0.001,0.093-0.099,0.193c-0.038,0.038-0.031,0.098-0.019,0.10 c 0.034,0.002, 0.115,0.023, 0.181,0.058c 0.088,0.046, 0.227,0.091, 0.342,0.124c 0.105,0.03, 0.198,0.091, 0.268,0.175 c 0.045,0.055, 0.659,0.421, 0.634-0.077c-0.002-0.035, 0.032-0.095, 0.089-0.142c 0.199-0.162, 0.346,0.048, 0.40,0.06 c 0.088,0.02, 0.099,0.02, 0.158,0.019c 0.00,0.00, 0.001,0.00, 0.002,0.00c 0.00,0.00, 0.001,0.00, 0.001,0.00c 0.055,0.001, 0.08,0.064, 0.255,0.052 c 0.303-0.02, 0.608,0.027, 0.91-0.026c 0.034-0.006, 0.081-0.017, 0.107-0.039c 0.334-0.276-0.005-0.614, 0.047-0.919 c 0.00-0.0010.00-0.002-0.001-0.002c-0.001-0.001-0.001-0.001-0.002-0.001c0.00,0.000.00,0.000.00,0.00 c-0.103,0.008-0.201,0.049-0.28,0.116c-0.028,0.024-0.063,0.042-0.11,0.047c-0.084,0.008-0.149-0.046-0.221-0.073 c-0.037-0.014-0.077,0.004-0.092,0.041c0.00,0.000.00,0.000.00,0.001c-0.028,0.068-0.347,0.018-0.442-0.142 c-0.029-0.049-0.073-0.086-0.125-0.107c0.00,0.000.00,0.000.00,0.00c 0.001-0.001, 0.002-0.002, 0.003-0.003 c 0.094-0.089-0.05-0.157-0.066-0.226c-0.008-0.034, 0.01-0.069, 0.043-0.083c 0.001,0.00, 0.001,0.00, 0.002-0.001 c 0.078-0.03, 0.114-0.072, 0.098-0.061c-0.033,0.024-0.072,0.039-0.114,0.041c0.00,0.000.00,0.000.00,0.00 c-0.022,0.001-0.043-0.004-0.062-0.014c-0.046-0.026-0.099-0.039-0.152-0.039c-0.063,0.00-0.128,0.018-0.141,0.081 c-0.002,0.012-0.009,0.022-0.019,0.029c0.00,0.000.00,0.000.00,0.00c-0.008,0.006-0.019,0.007-0.028,0.003 c-0.016-0.008-0.032-0.006-0.044,0.003c-0.013,0.009-0.02,0.023-0.019,0.043c 0.005,0.055, 0.153,0.111, 0.033,0.166l-0.001,0.001 c0.00,0.00-0.052,0.03-0.056,0.032c-0.049,0.025-0.113-0.03-0.156-0.032c-0.014-0.001-0.027,0.005-0.042,0.005c0.00,0.00-0.001,0.00-0.001,0.00 c-0.008,0.00-0.014-0.003-0.015-0.005c0.00,0.000.00,0.00-0.001,0.00c-0.004-0.004-0.05-0.045-0.058-0.057 c-0.018-0.031-0.02-0.034-0.03-0.044c-0.008-0.008-0.021-0.018-0.032-0.026c-0.023-0.017-0.038-0.043-0.04-0.071 c0.00,0.00,0.00,0.00,0.00,0.00c-0.002-0.022-0.004-0.053-0.008-0.088c-0.009-0.077-0.048-0.147-0.108-0.195 c-0.016-0.013-0.035-0.019-0.055-0.018c-0.013,0.001-0.025-0.003-0.036-0.01c-0.051-0.034-0.084-0.041-0.084-0.041 c0.00,0.000.00,0.000.00,0.00l-0.396-0.289c-0.023-0.017-0.05-0.025-0.078-0.023c-0.023,0.001-0.036-0.02-0.049-0.04 c-0.025-0.039-0.073-0.056-0.118-0.043c-0.002,0.001-0.004,0.001-0.005,0.002c-0.028,0.011-0.041,0.044-0.026,0.072 c 0.008,0.015, 0.017,0.03, 0.027,0.044l 0.23,0.335c 0.038,0.056, 0.102,0.088, 0.169,0.088c 0.028,0.00, 0.051,0.021, 0.054,0.048 c 0.001,0.013, 0.009,0.026, 0.021,0.033c 0.11,0.063, 0.252,0.072, 0.328,0.192c 0.001,0.001, 0.001,0.002, 0.001,0.004 c 0.00,0.00, 0.00,0.001, 0.00,0.001c0.00,0.00,0.00,0.00,0.00,0.00c 0.00,0.009-0.005,0.038-0.01,0.046 c-0.008,0.015-0.037,0.021-0.046,0.014c-0.006-0.006-0.006-0.019-0.005-0.033c 0.00-0.004-0.001-0.01-0.003-0.016 c-0.011-0.032-0.035-0.038-0.066-0.052c-0.042-0.018-0.091,0.001-0.111,0.043c0.00,0.000.00,0.001-0.001,0.001 c-0.001,0.001-0.001,0.002-0.002,0.004c-0.018,0.047, 0.012,0.062, 0.029,0.07c 0.026,0.012, 0.065,0.031, 0.054,0.086 c-0.004,0.023-0.03,0.015-0.044,0.025c0.00,0.00, 0.009-0.008-0.037,0.084c-0.016,0.031-0.001,0.039-0.042,0.06 c-0.034,0.017-0.05-0.005-0.054-0.012c-0.015-0.025, 0.006-0.048, 0.005-0.072c0.00-0.011-0.001-0.021, 0.031-0.034 c 0.045-0.019-0.003-0.093-0.03-0.135c0.00,0.00-0.001-0.001-0.001-0.001c-0.056-0.096-0.019-0.018-0.083-0.078 c-0.039-0.037-0.143-0.099-0.163-0.124c-0.136-0.168-0.359-0.248-0.476-0.436c-0.024-0.038-0.058-0.068-0.099-0.087 c-0.027-0.012-0.058-0.021-0.093-0.019c-0.034,0.002-0.194,0.093-0.323,0.167c-0.122,0.07-0.209-0.095-0.328-0.048 c-0.128,0.051-0.052,0.218-0.161,0.28c-0.123,0.07-0.271,0.094-0.379,0.193c-0.004,0.004-0.008,0.01-0.011,0.017 c-0.033,0.077-0.091,0.11-0.095,0.129c-0.003,0.016-0.005,0.023, 0.002,0.045c 0.014,0.0460.00,0.096-0.037,0.128 c0.00,0.000.00,0.000.00,0.00c-0.024,0.021-0.004,0.087-0.026,0.099c-0.04,0.021-0.084-0.002-0.125,0.01 c-0.062,0.017-0.065,0.097-0.125,0.116c-0.079,0.024-0.155-0.026-0.234-0.009c-0.178,0.039-0.178,0.039-0.184,0.055 c-0.006,0.015-0.021,0.039-0.046,0.039c-0.092-0.002-0.058-0.117-0.102-0.167c-0.047-0.054-0.06-0.048-0.081-0.039 c-0.029,0.012-0.077,0.033-0.092,0.025c-0.02-0.012-0.035-0.03-0.058-0.037c-0.016-0.005-0.029-0.015-0.036-0.03 c-0.013-0.026, 0.02-0.131, 0.027-0.161c 0.005-0.018, 0.003-0.037-0.003-0.055c-0.008-0.021-0.027-0.034-0.049-0.035 c-0.004,0.00-0.008-0.002-0.011-0.005c-0.026-0.028, 0.08-0.136, 0.109-0.19c 0.005-0.008, 0.009-0.021, 0.013-0.03 c 0.091-0.232, 0.09-0.31, 0.072-0.388c-0.008-0.034, 0.017-0.067, 0.052-0.069c 0.019-0.001, 0.04-0.002, 0.056-0.003c0.00,0.00, 0.00,0.00,0.00,0.00 c 0.038-0.044, 0.10-0.056, 0.152-0.03c 0.07,0.035, 0.209,0.086, 0.448,0.097c 0.058,0.003, 0.115,0.015, 0.169,0.035 c 0.05,0.019, 0.093-0.025, 0.112-0.049c 0.044-0.057, 0.038-0.127, 0.047-0.193c 0.005-0.035, 0.024-0.066, 0.054-0.086c0.00,0.00,0.00,0.00, 0.00,0.00 c 0.008-0.005, 0.012-0.015, 0.01-0.024c-0.002-0.013-0.013-0.112-0.025-0.113c-0.001,0.00-0.001,0.00-0.002,0.00 c-0.099-0.011-0.067-0.137-0.132-0.178c-0.055-0.035-0.052-0.058-0.189-0.073c-0.02-0.002, 0.027-0.097, 0.106-0.122 c 0.005-0.001, 0.01-0.001, 0.014,0.001c 0.049,0.025, 0.103,0.036, 0.157,0.033c 0.021-0.001, 0.04-0.011, 0.052-0.028 c 0.012-0.017, 0.016-0.038, 0.01-0.058c0.00,0.000.00-0.0010.00-0.001c-0.006-0.021, 0.012-0.052, 0.035-0.037 c 0.045,0.03, 0.068,0.049, 0.147,0.038c 0.019-0.003, 0.035-0.017, 0.04-0.036c 0.002-0.009, 0.008-0.017, 0.016-0.022 c 0.089-0.05, 0.126-0.073, 0.144-0.093c 0.042-0.049, 0.091-0.089, 0.148-0.12c 0.08-0.045, 0.119-0.074, 0.196-0.143 c 0.033-0.03, 0.072-0.051, 0.116-0.061c 0.013-0.003, 0.022-0.016, 0.02-0.029c0.00-0.003, 0.00-0.005, 0.002-0.007 c 0.014-0.019, 0.036-0.031, 0.06-0.033c 0.056-0.005, 0.089-0.005, 0.113-0.005c 0.00,0.00, 0.00,0.00, 0.001-0.001 c 0.016-0.019, 0.04-0.029, 0.064-0.028c 0.059,0.002, 0.135,0.029, 0.123-0.132c-0.018-0.144, 0.03-0.29, 0.13-0.395 c 0.00,0.00, 0.00,0.00, 0.00,0.00c 0.045,0.019, 0.035,0.066, 0.043,0.114c 0.005,0.029-0.004,0.059-0.024,0.081 c0.00,0.00-0.001,0.001-0.001,0.001c-0.192,0.213, 0.054,0.206, 0.061,0.261c 0.00,0.00, 0.00,0.001, 0.00,0.001 c 0.001,0.009, 0.006,0.017, 0.014,0.022c 0.008,0.005, 0.017,0.006, 0.026,0.003c 0.008-0.003, 0.198-0.082, 0.206-0.077 c 0.036,0.023, 0.009,0.034, 0.037,0.06c 0.00,0.00, 0.00,0.00, 0.001,0.001c 0.043,0.04, 0.106,0.048, 0.158,0.02 c 0.109-0.058, 0.235-0.077, 0.356-0.055c 0.06,0.011, 0.208-0.132, 0.18-0.212c0.00,0.00,0.00,0.000.00,0.00 c-0.017-0.049-0.019-0.101-0.008-0.151c 0.007-0.031-0.006-0.049, 0.03-0.072c 0.018-0.012, 0.041-0.014, 0.061-0.005 c 0.025,0.011, 0.055,0.012, 0.081,0.001c 0.035-0.015, 0.059-0.048, 0.062-0.086c0.00,0.00, 0.00,0.00, 0.00-0.001 c 0.001-0.008-0.003-0.015-0.01-0.019c-0.033-0.02-0.051-0.058-0.046-0.097c 0.006-0.043, 0.038-0.078, 0.081-0.086 c 0.126-0.023, 0.148,0.048, 0.268-0.059c 0.007-0.006, 0.01-0.016, 0.008-0.026c-0.003-0.009-0.01-0.017-0.019-0.019 c0.00,0.000.00,0.000.00,0.00c-0.099-0.021-0.202-0.015-0.297,0.018l-0.115,0.04c0.00,0.000.00,0.00-0.001,0.00 c0.00,0.000.00,0.000.00,0.00c0.00,0.000.00,0.000.00,0.00c-0.019,0.013-0.043,0.018-0.066,0.017 c-0.08-0.006-0.131-0.083-0.162-0.167c-0.036-0.098-0.024-0.207, 0.033-0.294c 0.028-0.043, 0.042-0.099, 0.074-0.139 c 0.013-0.017, 0.018-0.038, 0.013-0.059c-0.013-0.058-0.114-0.084-0.17-0.071c-0.112,0.025-0.037,0.159-0.082,0.229 c-0.026,0.04-0.134,0.069-0.143,0.124c-0.024,0.141-0.036,0.215-0.026,0.264c 0.02,0.105, 0.01,0.212-0.031,0.311 c0.00,0.001-0.001,0.001-0.001,0.002c-0.032,0.084, 0.034,0.172-0.01,0.256c-0.051,0.097-0.17,0.02-0.198,0.138 c-0.011,0.049-0.108-0.023-0.141-0.056c-0.003-0.097-0.041-0.141-0.068-0.217c-0.022-0.061-0.072-0.108-0.134-0.127 c-0.166-0.049-0.199,0.113-0.346,0.068c-0.118-0.036-0.201-0.143-0.207-0.266s 0.065-0.238, 0.179-0.286c 0.00,0.00, 0.00,0.00, 0.00,0.00 c 0.388-0.163, 0.46-0.30, 0.486-0.392c 0.006-0.021, 0.022-0.037, 0.043-0.043c 0.00,0.00, 0.00,0.00, 0.001,0.00 c 0.00,0.00, 0.00,0.00, 0.00,0.00c 0.004-0.021, 0.015-0.04, 0.031-0.054c 0.04-0.037, 0.067-0.086, 0.102-0.127 c 0.039-0.045, 0.079-0.114, 0.079-0.114s0.00,0.00, 0.00,0.00c0.00,0.00, 0.201-0.196, 0.413-0.264c 0.098-0.031, 0.17-0.03, 0.193-0.025 c 0.025,0.005, 0.061,0.012, 0.118,0.023c0.00,0.00,0.00,0.00,0.00,0.00c-0.003,0.019, 0.002,0.039, 0.013,0.054c 0.027,0.036, 0.115,0.027, 0.221,0.076 c 0.123,0.057, 0.27,0.04, 0.403,0.068c 0.054,0.011, 0.091,0.062, 0.084,0.117c-0.006,0.055-0.054,0.096-0.109,0.094 c-0.038-0.001-0.073,0.023-0.086,0.058c-0.013,0.036-0.002,0.076, 0.028,0.10c 0.047,0.037, 0.101,0.067, 0.158,0.087 c 0.067,0.024, 0.175,0.041, 0.128-0.012c0.00,0.000.00,0.00,0.00,0.00c-0.017-0.019-0.041-0.029-0.066-0.03c-0.092,0.00-0.063-0.085-0.013-0.062 c 0.055,0.025, 0.207,0.041, 0.101-0.061c-0.013-0.013-0.014-0.033-0.003-0.047c 0.018-0.022, 0.032-0.047, 0.042-0.073 c 0.022-0.056, 0.018-0.038, 0.09-0.016c 0.012,0.004, 0.025,0.001, 0.035-0.006c 0.02-0.014, 0.047-0.025, 0.028-0.04 c-0.017-0.013, 0.018-0.042, 0.03-0.038c 0.021,0.007, 0.044,0.00, 0.058-0.017c 0.011-0.013, 0.014-0.031, 0.009-0.047 c-0.012-0.041, 0.022-0.153, 0.081-0.175c 0.014-0.005, 0.03-0.006, 0.045-0.001c 0.00,0.00, 0.00,0.00, 0.00,0.00 c 0.012-0.011, 0.027-0.02, 0.042-0.026c 0.026-0.01, 0.071-0.029, 0.103-0.056c 0.032-0.028, 0.077-0.039, 0.118-0.029 c 0.00,0.00, 0.001,0.00, 0.001,0.00c 0.013-0.014, 0.013-0.036-0.001-0.05c-0.025-0.025-0.109-0.068-0.097-0.101 c 0.004-0.011, 0.056-0.023, 0.063-0.068c 0.005-0.031-0.012-0.061-0.041-0.072c-0.873-0.343-1.813-0.553-2.794-0.607 c-0.181,0.112-0.362,0.237-0.524,0.371c-0.594,0.492-1.533,0.696-1.512,0.642c-0.09,0.001-0.113-0.023-0.113-0.023 c-0.029,0.007-0.055,0.024-0.08,0.007c0.00,0.000.00,0.00-0.001,0.00c 0.001-0.012-0.004-0.023-0.014-0.03 c-0.031-0.021-0.093,0.029-0.242,0.104c-0.001,0.00-0.001,0.001-0.002,0.001c-0.003,0.001-0.006,0.003-0.008,0.004 c-0.063,0.033-0.133,0.041-0.181,0.042c-0.034,0.001-0.068,0.007-0.10,0.02c-0.005,0.002-0.01,0.00-0.013-0.004 c-0.011-0.018, 0.043-0.037, 0.063-0.045c 0.018-0.007, 0.009-0.027-0.065,0.016c-0.016,0.009-0.035,0.012-0.053,0.007 c-0.075-0.019-0.164,0.041-0.223,0.09c-0.009,0.008-0.021,0.012-0.035,0.006c-0.021-0.009-0.039-0.006-0.033,0.026 c 0.007,0.034-0.19,0.121-0.193,0.106c-0.004-0.011-0.015-0.017-0.026-0.015c-0.026,0.005-0.057,0.026-0.074,0.059 c-0.032,0.059-0.117,0.069-0.159,0.104c-0.043,0.036-0.107,0.071-0.107,0.071c-0.024,0.027-0.039,0.042-0.064,0.043 c-0.025,0.001-0.039-0.042-0.028-0.058c 0.007-0.01, 0.054-0.056, 0.042-0.059c-0.005-0.001-0.009-0.004-0.011-0.008 c-0.008-0.015, 0.029-0.032, 0.019-0.05c-0.006-0.013-0.077-0.017-0.083-0.023c-0.004-0.005-0.005-0.011-0.002-0.017 c 0.044-0.09, 0.05-0.096, 0.11-0.155c0.00,0.000.00-0.001-0.001-0.001c-0.006-0.009-0.006-0.022, 0.00-0.031 c 0.034-0.049, 0.145-0.195, 0.275-0.213c 0.034-0.005, 0.012-0.012, 0.012-0.012c-0.032-0.013-0.074-0.022-0.05-0.048 c 0.046-0.05, 0.117-0.117, 0.196-0.156c 0.038-0.019, 0.073-0.042, 0.106-0.069c 0.032-0.027, 0.141-0.074, 0.258-0.079 c 0.00,0.00, 0.00,0.00, 0.00,0.00c 0.098-0.006, 0.356-0.182, 0.359-0.185c0.00,0.000.00,0.000.00,0.00 c-0.008-0.008, 0.004-0.034, 0.002-0.047c-0.001-0.006, 0.002-0.011, 0.007-0.014c 0.025-0.013, 0.055-0.018, 0.081-0.03 c 0.004-0.002, 0.006-0.005, 0.007-0.009c 0.001-0.01-0.01-0.016-0.019-0.013c-0.054,0.02-0.076,0.028-0.088,0.032 c-0.007,0.002-0.014-0.001-0.017-0.007c-0.003-0.006-0.002-0.014, 0.003-0.019c 0.061-0.053, 0.144-0.054, 0.217-0.079 c 0.032-0.011, 0.032-0.078-0.034-0.068c-0.326,0.054-0.623,0.151-0.933,0.253c 0.00,0.00, 0.00,0.00, 0.00,0.001 c 0.002,0.009-0.062,0.04-0.07,0.048c-0.004,0.004-0.006,0.01-0.004,0.015c 0.00,0.00, 0.00,0.001, 0.00,0.001 c 0.004,0.00, 0.005,0.005, 0.002,0.007c-0.012,0.009-0.036,0.00-0.043,0.013c-0.008,0.016, 0.021,0.01, 0.027,0.021 c 0.004,0.008, 0.003,0.018-0.004,0.025c0.00,0.000.00,0.000.00,0.00c-0.01,0.01-0.058,0.031-0.065,0.022 c-0.007-0.008-0.008-0.016-0.018-0.009c-0.035,0.022-0.056,0.036-0.076,0.039c-0.07,0.012-0.158,0.049-0.158,0.049 c 0.011-0.009, 0.044-0.04, 0.049-0.052c 0.019-0.039, 0.04-0.051, 0.063-0.057c 0.017-0.004, 0.019-0.028-0.056,0.001 c-0.067,0.025-0.13,0.065-0.182,0.114c-0.044,0.042-0.096,0.087-0.133,0.106c 0.007-0.012, 0.002-0.015-0.003-0.013 c-0.004,0.002-0.04,0.034-0.054,0.031c-0.045-0.012, 0.014-0.037, 0.014-0.082c 0.005-0.007, 0.011-0.013, 0.017-0.019 c0.00,0.000.00,0.000.00,0.00c-0.051,0.022-0.097,0.054-0.134,0.095c-0.03,0.033-0.055,0.072-0.087,0.04 c-0.015-0.015-0.039-0.019-0.059-0.01c-0.124,0.058-0.247,0.119-0.368,0.183c-0.013,0.007-0.025,0.015-0.036,0.024 c-0.008,0.007-0.014,0.017-0.015,0.028c-0.002,0.013-0.024,0.041-0.032,0.055c-0.004,0.006-0.004,0.014, 0.00,0.02 c 0.011,0.017, 0.048,0.005, 0.068-0.002c 0.028-0.009, 0.058,0.002, 0.073,0.027c 0.015,0.025, 0.011,0.056-0.009,0.076 c-0.017,0.017-0.032,0.036-0.047,0.054c-0.03,0.04-0.058,0.081-0.10,0.108c-0.026,0.016-0.051,0.035-0.074,0.056 c-0.234,0.209-0.241,0.591-0.413,0.667c0.00,0.00-0.001,0.00-0.001,0.00c-0.132,0.059-0.178,0.008-0.336,0.067 c-0.031,0.011-0.06,0.003-0.088-0.005c-0.025-0.007-0.045-0.024-0.054-0.048c0.00,0.00,0.00,0.00,0.00,0.00c-0.035-0.088-0.134-0.131-0.222-0.097 c-0.015,0.006-0.03,0.008-0.048,0.004c0.00,0.00-0.001,0.00-0.001,0.00c0.00,0.000.00,0.000.00,0.00 c-0.029,0.008-0.214,0.067-0.201,0.093c 0.00,0.00, 0.326-0.099, 0.253,0.077c0.00,0.000.00,0.000.00,0.00 c-0.012,0.004-0.022,0.012-0.028,0.024c-0.008,0.017-0.017,0.026-0.045,0.032c-0.031,0.007-0.064-0.002-0.087-0.023 c0.00,0.000.00,0.00-0.001,0.00c-0.017,0.003-0.024,0.044-0.017,0.055c 0.009,0.015, 0.052,0.014, 0.007,0.042 c-0.026,0.016-0.062,0.025-0.073,0.053c-0.014,0.034-0.031,0.066-0.051,0.096c-0.021,0.032, 0.025,0.042-0.011,0.071 c-0.043,0.035-0.191,0.001-0.242,0.011c0.00,0.00-0.089,0.009-0.143,0.027s-0.15,0.043-0.203,0.107 c-0.092,0.111-0.084,0.134-0.191,0.104c-0.006-0.002-0.013,0.00-0.017,0.005c-1.091,1.157-1.879,2.603-2.237,4.211 c0.00,0.001-0.001,0.003-0.001,0.004c-0.024,0.102-0.051,0.228-0.09,0.463c-0.001,0.006-0.001,0.011, 0.00,0.017 c 0.005,0.026, 0.011,0.033, 0.044,0.033c 0.079,0.00, 0.147,0.056, 0.162,0.134c 0.004,0.022, 0.017,0.038, 0.035,0.045 c 0.018,0.007, 0.038,0.006, 0.056-0.007c 0.012-0.009, 0.08,0.05, 0.084,0.122c 0.002,0.039, 0.017,0.083, 0.025,0.122 c 0.009,0.046-0.003,0.094-0.033,0.131c-0.005,0.006-0.006,0.013-0.005,0.02c 0.038,0.148, 0.21,0.779, 0.245,0.812 c 0.021-0.004, 0.037,0.003, 0.049,0.016c 0.347,0.391, 0.739,1.03, 0.727,1.23c-0.078,0.147-0.07,0.139-0.005,0.219 c 0.121,0.148, 0.119,0.156, 0.073,0.308l 0.00,0.00c 0.027-0.043, 0.074-0.07, 0.125-0.07c 0.051,0.00, 0.098,0.026, 0.125,0.07 c 0.02,0.032, 0.04,0.064, 0.067,0.089c 0.071,0.064, 0.108,0.158, 0.10,0.254c0.00,0.00, 0.11,0.001, 0.262,0.116 c 0.193,0.145, 0.874,0.925, 0.901,1.139c 0.012,0.095-0.027,0.189-0.076,0.271c-0.056,0.095-0.238,0.293-0.269,0.399 c-0.015,0.053-0.10,0.077-0.099,0.108c 0.001,0.043, 0.014,0.133, 0.076,0.311c 0.018,0.053, 0.061,0.442, 0.04,0.599 c-0.013,0.092-0.012,0.108, 0.01,0.21c 0.007,0.032-0.072,0.122-0.127,0.083c-0.069-0.049-0.126-0.042-0.133-0.027 c0.00,0.000.00,0.000.00,0.00c-0.095,0.155-0.435,0.183-0.359,0.348c 0.022,0.049, 0.045,0.098, 0.065,0.147 c 0.023,0.058, 0.036,0.121, 0.038,0.184c 0.001,0.027, 0.095,0.226, 0.17,0.304c 1.642,1.717, 3.955,2.787, 6.518,2.787 C 130.98,135.017, 135.017,130.98, 135.017,126.00z M 124.667,120.253c 0.037-0.016, 0.072-0.039, 0.112-0.049 c 0.00,0.00, 0.001,0.00, 0.001,0.00c 0.055-0.015, 0.102,0.00, 0.119-0.021c 0.016-0.021, 0.044-0.058, 0.057-0.088 c 0.006-0.015-0.01-0.036, 0.01-0.046c 0.022-0.012, 0.003-0.035, 0.008-0.052c 0.015-0.045, 0.025-0.046, 0.043-0.049 c 0.017-0.003, 0.034-0.005, 0.04-0.014c 0.028-0.042-0.072-0.162-0.134-0.146c-0.065,0.017-0.117,0.112-0.139,0.11 c-0.028-0.001-0.04-0.002-0.059,0.012c-0.014,0.011-0.016,0.029-0.027,0.042c-0.012,0.016-0.029,0.028-0.042,0.044 c-0.011,0.013-0.014,0.025, 0.00,0.038c 0.011,0.01, 0.017,0.015-0.015,0.057c-0.027,0.034-0.071,0.053-0.089,0.095 c-0.007,0.015-0.006,0.046-0.004,0.058C 124.557,120.289, 124.626,120.271, 124.667,120.253zM 190.941,127.084l0.00,9.09 L 184.446,136.173 l0.00-4.94 l-4.892,0.00 l0.00,4.94 L 173.059,136.173 L 173.059,127.084 L 170.734,127.084 L 182.00,115.827l 11.266,11.257L 190.941,127.084 z M 189.551,116.838l-2.62,0.00 l0.00,2.095 l 2.62,2.626L 189.551,116.838 zM 249.266,127.517l0.00-3.034 l-1.64-0.583c-0.625-0.222-1.128-0.70-1.382-1.313 c0.00,0.000.00,0.000.00-0.001c-0.255-0.614-0.237-1.308, 0.049-1.909l 0.747-1.571l-2.146-2.146l-1.571,0.747 c-0.60,0.285-1.295,0.303-1.909,0.049c0.00,0.00-0.001,0.00-0.001,0.00c-0.613-0.254-1.09-0.757-1.313-1.382L 239.517,114.734 l-3.034,0.00 l-0.583,1.64c-0.222,0.625-0.70,1.128-1.313,1.382c0.00,0.000.00,0.00-0.001,0.00 c-0.614,0.255-1.308,0.237-1.909-0.049l-1.571-0.747l-2.146,2.146l 0.747,1.571c 0.285,0.60, 0.303,1.295, 0.049,1.909 c0.00,0.000.00,0.000.00,0.001c-0.254,0.613-0.757,1.09-1.382,1.312L 226.734,124.483l0.00,3.034 l 1.64,0.583 c 0.625,0.222, 1.128,0.70, 1.382,1.313c 0.00,0.00, 0.00,0.001, 0.00,0.001c 0.255,0.614, 0.237,1.308-0.049,1.909l-0.747,1.571 l 2.146,2.146l 1.571-0.747c 0.60-0.285, 1.295-0.303, 1.909-0.049c 0.00,0.00, 0.001,0.00, 0.001,0.00 c 0.613,0.254, 1.09,0.756, 1.312,1.382L 236.483,137.266l 3.034,0.00 l 0.579-1.629c 0.224-0.631, 0.706-1.139, 1.324-1.396 c 0.00,0.00, 0.00,0.00, 0.001,0.00c 0.609-0.253, 1.296-0.236, 1.891,0.047l 1.581,0.751l 2.146-2.146l-0.747-1.572 c-0.285-0.60-0.303-1.294-0.048-1.907c 0.00,0.00, 0.00,0.00, 0.00-0.001c 0.255-0.614, 0.757-1.091, 1.383-1.314 L 249.266,127.517z M 238.00,130.131c-2.282,0.00-4.132-1.85-4.132-4.131s 1.85-4.131, 4.132-4.131 c 2.282,0.00, 4.131,1.85, 4.131,4.131S 240.282,130.131, 238.00,130.131zM 282.734,116.02l0.00,19.961 l 22.531,0.00 l0.00-19.961 L 282.734,116.02 z M 302.531,133.246L 285.469,133.246 l0.00-11.922 l 17.063,0.00 L 302.531,133.246 z M 293.205,127.334l-4.156,4.178 l-1.502-1.495l 2.669-2.683l-2.673-2.687l 1.502-1.495L 293.205,127.334z M 300.563,129.365L 294.355,129.365 l0.00,2.078 L 300.563,131.443 L 300.563,129.365 zM 346.374,127.072l 2.068,0.00 l-4.854,4.862L 338.734,127.072l 2.068,0.00 c0.00,0.00-0.003-9.893, 11.648-10.572 C 345.079,119.659, 346.374,127.072, 346.374,127.072z M 347.549,135.501c 11.651-0.679, 11.648-10.572, 11.648-10.572L 361.266,124.928 l-4.854-4.862 l-4.854,4.862l 2.068,0.00 C 353.626,124.928, 354.921,132.341, 347.549,135.501zM 402.268,134.819L 404.711,137.266L 394.734,137.266 L 394.734,127.289 l 2.447,2.443l 5.337-5.337l 5.087,5.087L 402.268,134.819z M 407.289,114.734l 2.443,2.447l-5.28,5.28l 5.087,5.087l 5.28-5.28L 417.266,124.711L 417.266,114.734 L 407.289,114.734 zM 459.40,131.905c-4.734,0.00-8.585-3.851-8.585-8.585C 450.815,118.586, 454.666,114.734, 459.40,114.734 c 4.734,0.00, 8.585,3.851, 8.585,8.585C 467.986,128.054, 464.134,131.905, 459.40,131.905z M 459.40,117.666 c-3.118,0.00-5.654,2.536-5.654,5.654s 2.536,5.654, 5.654,5.654c 3.118,0.00, 5.654-2.536, 5.654-5.654 S 462.518,117.666, 459.40,117.666z M 468.097,129.348c-0.767,1.103-1.739,2.054-2.86,2.798L 470.356,137.266l 2.829-2.829 L 468.097,129.348zM 527.153,119.65L 529.266,117.543l0.00,8.54 L 520.72,126.083 l 2.306-2.307 c-5.626-7.116-20.41,0.091-10.605,12.58C 497.762,125.045, 514.631,107.759, 527.153,119.65zM 579.579,136.356C 589.383,123.868, 574.60,116.661, 568.974,123.776l 2.306,2.307L 562.734,126.083 L 562.734,117.543 l 2.113,2.107 C 577.369,107.759, 594.238,125.045, 579.579,136.356zM 630.00,114.734C 623.778,114.734, 618.734,119.778, 618.734,126.00s 5.044,11.266, 11.266,11.266s 11.266-5.044, 11.266-11.266S 636.222,114.734, 630.00,114.734z M 634.272,132.702l-4.218-4.217l-4.218,4.218l-2.265-2.267l 4.217-4.217l-4.217-4.217l 2.267-2.265l 4.217,4.216 l 4.216-4.217l 2.267,2.266l-4.217,4.217l 4.217,4.217L 634.272,132.702zM 686.00,114.734C 679.778,114.734, 674.734,119.778, 674.734,126.00s 5.044,11.266, 11.266,11.266s 11.266-5.044, 11.266-11.266S 692.222,114.734, 686.00,114.734z M 684.083,132.068l-5.323-5.324l 2.266-2.267l 3.056,3.057l 7.056-7.056l 2.267,2.266L 684.083,132.068zM 14.00,170.734C 7.778,170.734, 2.734,175.778, 2.734,182.00s 5.044,11.266, 11.266,11.266s 11.266-5.044, 11.266-11.266S 20.222,170.734, 14.00,170.734z M 20.923,184.047l-4.876,0.00 L 16.047,188.923 l-3.766,0.00 l0.00-4.876 l-4.876,0.00 l0.00-3.766 l 4.876,0.00 L 12.281,175.405 l 3.766,0.00 l0.00,4.876 l 4.876,0.00 L 20.923,184.047 zM 72.109,187.309l 0.00,0.00L 81.266,180.979L 72.109,174.649l0.00,2.697 c0.00,0.00-11.138,2.267-13.374,12.006 c 4.761-5.098, 13.374-4.74, 13.374-4.74L 72.109,187.309 L 72.109,187.309zM 120.846,190.217c0.00,1.684-1.365,3.049-3.049,3.049c-1.684,0.00-3.049-1.365-3.049-3.049 s 1.365-3.049, 3.049-3.049C 119.481,187.168, 120.846,188.533, 120.846,190.217z M 114.748,178.414l0.00,4.517 C 120.422,182.989, 125.025,187.592, 125.083,193.266l 4.517,0.00 C 129.542,185.089, 122.925,178.472, 114.748,178.414z M 114.748,175.252 c 4.796,0.021, 9.301,1.897, 12.695,5.291c 3.40,3.40, 5.278,7.917, 5.291,12.723l 4.517,0.00 C 137.223,180.844, 127.167,170.778, 114.748,170.734L 114.748,175.252 zM 190.652,178.615l-2.846,0.00 l0.00-2.578 l 0.624-2.128L 188.43,171.461 l-3.986,0.00 c0.00,0.00-1.022,2.247-1.382,3.116 c-1.185,2.859-2.409,5.814-4.938,6.305l0.00-1.267 L 170.734,179.614 l0.00,12.478 l 7.389,0.00 l0.00-1.078 l 2.506,0.00 l 2.786,1.525l 6.778,0.00 L 193.266,189.793 L 193.266,180.317 L 190.652,178.615z M 183.852,190.95l-2.707-1.526l-3.016,0.003L 178.13,182.492 c 0.025-0.003, 0.053-0.007, 0.082-0.012 c 3.512-0.526, 5.002-4.122, 6.317-7.295c 0.247-0.595, 0.771-1.787, 0.924-2.135l 1.387,0.00 l0.00,0.812 l-0.623,2.128l0.00,4.213 l 4.013,0.00 l 1.447,0.923l0.00,8.071 l-2.00,1.752L 183.852,190.95 zM 246.282,187.713c-3.229-0.745-6.234-1.397-4.778-4.141 c 4.43-8.352, 1.174-12.819-3.504-12.819c-4.77,0.00-7.946,4.638-3.504,12.819c 1.499,2.761-1.619,3.412-4.778,4.141 c-3.227,0.744-2.979,2.446-2.979,5.533l 22.522,0.00 C 249.261,190.159, 249.509,188.458, 246.282,187.713zM 305.264,187.652l-4.372,0.00 c0.00-4.758-2.378-2.496-2.378-6.666c0.00-1.505, 0.985-2.322, 2.25-2.322 c 1.869,0.00, 3.17,1.785, 1.40,5.122c-0.582,1.096, 0.619,1.357, 1.909,1.655C 305.363,185.739, 305.264,186.419, 305.264,187.652z M 283.926,185.442c 1.29-0.298, 2.491-0.558, 1.909-1.655c-1.77-3.337-0.469-5.122, 1.40-5.122 c 1.265,0.00, 2.25,0.817, 2.25,2.322c0.00,4.169-2.378,1.908-2.378,6.666L 282.736,187.652 C 282.736,186.419, 282.637,185.739, 283.926,185.442z M 298.163,184.872c-1.623-0.374-3.133-0.702-2.401-2.081c 2.227-4.198, 0.59-6.443-1.761-6.443 c-2.398,0.00-3.994,2.331-1.761,6.443c 0.753,1.387-0.814,1.715-2.402,2.081c-1.622,0.374-1.497,1.229-1.497,2.781 l 11.319,0.00 C 299.66,186.101, 299.785,185.246, 298.163,184.872zM 357.43,191.731L 354.226,185.424c-0.007,0.004-1.797,0.901-1.88,0.938 c-2.038,1.009-6.189-7.258-4.195-8.348l 1.896-0.952L 346.868,170.734c-0.002,0.001-1.886,0.949-1.918,0.965 c-1.309,0.696-4.863,2.341, 0.45,12.923c 5.359,10.673, 8.684,8.732, 10.109,8.068 C 355.62,192.639, 357.424,191.734, 357.43,191.731zM 401.327,181.073L 394.734,176.009l0.00,11.656 L 401.327,181.073z M 417.207,173.655L 394.812,173.655 l 11.189,8.595 L 417.207,173.655z M 409.137,182.257l-3.137,2.406l-3.142-2.414L 394.762,190.345l 22.463,0.00 L 409.137,182.257z M 410.669,181.082 L 417.266,187.679L 417.266,176.022 L 410.669,181.082zM 466.575,183.175c0.00,1.607-1.308,2.915-2.915,2.915c-1.607,0.00-2.915-1.308-2.915-2.915 c0.00-1.607, 1.308-2.915, 2.915-2.915C 465.267,180.26, 466.575,181.567, 466.575,183.175z M 473.266,176.101l0.00,14.602 L 450.734,190.702 l0.00-14.602 l 6.192,0.00 c 0.615,0.00, 1.179-0.344, 1.46-0.892l 0.98-1.911l 8.404,0.00 l 1.084,1.957c 0.289,0.522, 0.839,0.846, 1.435,0.846L 473.266,176.101 z M 456.467,179.286c0.00-0.619-0.502-1.121-1.121-1.121s-1.121,0.502-1.121,1.121s 0.502,1.121, 1.121,1.121S 456.467,179.905, 456.467,179.286z M 469.082,183.175c0.00-2.99-2.432-5.297-5.422-5.297c-2.99,0.00-5.422,2.307-5.422,5.297c0.00,2.99, 2.432,5.422, 5.422,5.422 C 466.65,188.597, 469.082,186.164, 469.082,183.175z M 455.784,173.722l-3.582,0.00 l0.00,1.477 l 3.582,0.00 L 455.784,173.722 zM 525.778,173.085L 514.923,183.94L 510.221,179.237L 506.734,182.724L 514.923,190.915L 529.266,176.571 zM 583.975,188.486L 577.487,181.999L 583.974,175.511L 580.486,172.025L 574.00,178.512L 567.513,172.026L 564.025,175.511L 570.513,181.999L 564.026,188.487L 567.511,191.975L 574.00,185.485L 580.489,191.974 zM 629.31,177.124l 11.799-2.339l-0.008-0.04L 640.312,170.762l-19.873,3.939 C 619.449,174.897, 618.734,175.765, 618.734,176.773c0.00,0.892,0.00,13.257,0.00,13.257c0.00,1.769, 1.439,3.208, 3.208,3.208l 16.114,0.00 c 1.769,0.00, 3.208-1.439, 3.208-3.208L 641.266,177.164 l0.00-0.041 L 629.31,177.124 z M 639.078,190.03c0.00,0.563-0.458,1.021-1.021,1.021L 621.943,191.051 C 621.38,191.051, 620.922,190.593, 620.922,190.03L 620.922,182.315 l 18.156,0.00 L 639.078,190.03 z M 634.568,178.217l-1.91,1.91l-2.867,0.00 l 1.91-1.91L 634.568,178.217 z M 637.614,172.412l 2.25,1.505l-2.811,0.559l-2.251-1.507L 637.614,172.412z M 632.077,173.509l 2.253,1.508l-2.811,0.559 l-2.255-1.509L 632.077,173.509z M 626.534,174.608l 2.256,1.51l-2.811,0.559L 623.722,175.165L 626.534,174.608z M 626.05,178.217 l 2.867,0.00 l-1.91,1.91l-2.867,0.00 L 626.05,178.217z M 635.435,180.128l 1.91-1.91l 2.867,0.00 l-1.91,1.91L 635.435,180.128 z M 628.738,189.509 L 628.738,183.561 l 4.85,2.974L 628.738,189.509zM 686.00,170.734C 679.778,170.734, 674.734,175.778, 674.734,182.00c0.00,6.222, 5.044,11.266, 11.266,11.266 c 6.222,0.00, 11.266-5.044, 11.266-11.266C 697.266,175.778, 692.222,170.734, 686.00,170.734z M 685.781,188.613 c-1.624,0.571-2.963-0.084-2.694-1.643c 0.269-1.56, 1.81-4.899, 2.029-5.531c 0.22-0.631-0.202-0.805-0.653-0.548 c-0.26,0.15-0.647,0.451-0.98,0.744c-0.092-0.186-0.222-0.398-0.319-0.601c 0.542-0.543, 1.449-1.272, 2.522-1.536 c 1.282-0.316, 3.425,0.189, 2.504,2.64c-0.658,1.747-1.123,2.952-1.416,3.849c-0.293,0.898, 0.055,1.086, 0.568,0.736 c 0.401-0.273, 0.827-0.646, 1.14-0.934c 0.145,0.235, 0.191,0.31, 0.334,0.58C 688.273,186.928, 686.852,188.23, 685.781,188.613z M 689.145,177.809c-0.737,0.627-1.828,0.613-2.439-0.031c-0.611-0.644-0.509-1.674, 0.228-2.301 c 0.737-0.627, 1.828-0.613, 2.439,0.03C 689.984,176.152, 689.882,177.182, 689.145,177.809zM 14.00,226.734C 7.778,226.734, 2.734,231.778, 2.734,238.00s 5.044,11.266, 11.266,11.266s 11.266-5.044, 11.266-11.266S 20.222,226.734, 14.00,226.734z M 14.123,245.487c-0.884,0.00-1.601-0.717-1.601-1.601c0.00-0.884, 0.717-1.60, 1.601-1.60c 0.884,0.00, 1.601,0.717, 1.601,1.60 C 15.724,244.77, 15.007,245.487, 14.123,245.487z M 15.382,240.755l0.00,0.288 c0.00,0.00-2.40,0.00-2.639,0.00l0.00-0.288 c0.00-0.815, 0.119-1.86, 1.065-2.769c 0.946-0.909, 2.128-1.66, 2.128-2.795c0.00-1.255-0.871-1.919-1.969-1.919 c-1.83,0.00-1.95,1.898-1.995,2.316l-2.566,0.00 c 0.068-1.979, 0.905-4.747, 4.576-4.747c 3.182,0.00, 4.612,2.131, 4.612,4.129 C 18.594,238.151, 15.382,238.704, 15.382,240.755zM 72.117,238.00L 64.381,245.773L 58.734,245.773 L 66.47,238.00L 58.734,230.227l 5.647,0.00 L 72.117,238.00z M 73.529,230.227L 67.883,230.227 L 75.619,238.00L 67.883,245.773l 5.647,0.00 L 81.266,238.00L 73.529,230.227zM 129.719,237.289c0.00,2.054-1.665,3.719-3.719,3.719c-2.054,0.00-3.719-1.665-3.719-3.719L 122.281,230.453 c0.00-2.054, 1.665-3.719, 3.719-3.719 c 2.054,0.00, 3.719,1.665, 3.719,3.719L 129.719,237.289 z M 131.359,235.375l0.00,1.914 c0.00,2.955-2.404,5.359-5.359,5.359c-2.955,0.00-5.359-2.404-5.359-5.359l0.00-1.914 l-2.188,0.00 l0.00,1.914 c0.00,4.161, 3.386,7.547, 7.547,7.547c 4.161,0.00, 7.547-3.385, 7.547-7.547l0.00-1.914 L 131.359,235.375 z M 126.00,245.93l-4.867,3.336l 9.406,0.00 L 126.00,245.93zM 188.145,228.123L 175.876,228.123 L 170.734,236.485l0.00,11.392 l 22.531,0.00 L 193.266,236.485 L 188.145,228.123z M 184.777,240.446L 179.222,240.446 c-0.51,0.00-0.923-0.413-0.923-0.923c0.00-0.51, 0.413-0.923, 0.923-0.923l 5.555,0.00 c 0.51,0.00, 0.923,0.413, 0.923,0.923 C 185.70,240.033, 185.287,240.446, 184.777,240.446z M 173.303,236.485l 3.766-6.169l 9.879,0.00 l 3.753,6.169L 173.303,236.485 z M 188.102,233.709 L 175.961,233.709 l 0.701-1.148l 10.742,0.00 L 188.102,233.709z M 187.016,231.922L 177.052,231.922 l 0.601-0.984l 8.764,0.00 L 187.016,231.922z M 189.267,235.623L 174.793,235.623 l 0.734-1.203l 13.008,0.00 L 189.267,235.623zM 226.734,228.02l0.00,19.961 l 22.531,0.00 l0.00-19.961 L 226.734,228.02 z M 246.531,238.456L 238.82,238.456 L 238.82,233.324 l 7.711,0.00 L 246.531,238.456 z M 229.469,233.324l 7.711,0.00 l0.00,11.922 L 229.469,245.246 L 229.469,233.324 z M 238.82,245.246l0.00-5.15 l 7.711,0.00 L 246.531,245.246 L 238.82,245.246 zM 294.652,239.80c 0.348,0.348, 0.348,0.913,0.00,1.262c-0.348,0.349-0.913,0.348-1.262,0.00 c-0.348-0.348-0.348-0.913,0.00-1.262C 293.738,239.452, 294.303,239.452, 294.652,239.80z M 296.079,240.19l 2.06-3.877l-3.877,2.06 c-0.621-0.071-1.245,0.132-1.706,0.593c-0.457,0.457-0.655,1.076-0.595,1.675l-2.099,3.95l 3.948-2.098 c 0.609,0.061, 1.221-0.141, 1.676-0.596C 295.924,241.459, 296.154,240.845, 296.079,240.19z M 296.381,231.975 c 0.593-0.555, 0.96-1.316, 0.96-2.155c0.00-1.696-1.499-3.075-3.341-3.075s-3.341,1.38-3.341,3.075 c0.00,0.838, 0.367,1.599, 0.96,2.155c-3.705,1.038-6.423,4.44-6.423,8.477c0.00,4.862, 3.941,8.803, 8.803,8.803 c 4.862,0.00, 8.803-3.941, 8.803-8.803C 302.803,236.415, 300.086,233.013, 296.381,231.975z M 294.00,228.385 c 0.938,0.00, 1.70,0.644, 1.70,1.435s-0.763,1.435-1.70,1.435s-1.70-0.644-1.70-1.435S 293.062,228.385, 294.00,228.385z M 298.775,245.227c-1.275,1.275-2.971,1.978-4.775,1.978s-3.499-0.702-4.775-1.978 c-1.275-1.275-1.978-2.971-1.978-4.775s 0.702-3.499, 1.978-4.775c 1.275-1.275, 2.971-1.978, 4.775-1.978 s 3.499,0.702, 4.775,1.978s 1.978,2.971, 1.978,4.775S 300.05,243.951, 298.775,245.227zM 357.519,230.422l-4.189,11.322l-1.371-5.734l-5.746-1.437L 357.519,230.422 M 361.216,226.734 L 338.784,234.97l 11.356,2.84L 352.88,249.266L 361.216,226.734zM 406.00,228.922c 2.729,0.00, 4.949,2.22, 4.949,4.949c0.00,3.149-3.284,8.29-4.949,11.094 c-2.819-4.747-4.949-8.374-4.949-11.094C 401.051,231.142, 403.271,228.922, 406.00,228.922 M 406.00,226.734c-3.941,0.00-7.137,3.195-7.137,7.137 c0.00,3.941, 3.123,8.522, 7.137,15.395c 4.013-6.872, 7.137-11.453, 7.137-15.395C 413.137,229.93, 409.942,226.734, 406.00,226.734L 406.00,226.734z M 406.00,231.325c-1.371,0.00-2.483,1.112-2.483,2.483s 1.112,2.483, 2.483,2.483s 2.483-1.111, 2.483-2.483 S 407.371,231.325, 406.00,231.325L 406.00,231.325zM 462.00,226.734c-3.941,0.00-7.137,3.195-7.137,7.137c0.00,5.861, 5.613,6.481, 7.137,15.395 c 1.524-8.914, 7.137-9.534, 7.137-15.395C 469.137,229.93, 465.942,226.734, 462.00,226.734z M 462.00,236.257c-1.414,0.00-2.559-1.146-2.559-2.559 s 1.146-2.559, 2.559-2.559s 2.559,1.146, 2.559,2.559S 463.414,236.257, 462.00,236.257zM 518.00,226.734c-3.941,0.00-7.137,3.195-7.137,7.137c0.00,3.941, 3.123,8.522, 7.137,15.395 c 4.013-6.872, 7.137-11.453, 7.137-15.395C 525.137,229.93, 521.942,226.734, 518.00,226.734z M 518.00,238.802 c-2.714,0.00-4.914-2.20-4.914-4.914c0.00-2.714, 2.20-4.914, 4.914-4.914c 2.714,0.00, 4.914,2.20, 4.914,4.914 C 522.914,236.602, 520.714,238.802, 518.00,238.802zM 574.00,226.734c-5.089,0.00-9.215,4.126-9.215,9.215C 564.785,241.117, 569.266,244.526, 574.00,249.266 c 4.734-4.74, 9.215-8.148, 9.215-13.316C 583.215,230.86, 579.089,226.734, 574.00,226.734z M 574.00,242.427c-3.734,0.00-6.761-3.027-6.761-6.761 c0.00-3.734, 3.027-6.761, 6.761-6.761c 3.734,0.00, 6.761,3.027, 6.761,6.761C 580.761,239.40, 577.734,242.427, 574.00,242.427zM 622.932,234.344l 5.038-5.038c 0.374-0.374, 0.98-0.374, 1.354,0.00c 0.374,0.374, 0.374,0.98,0.00,1.353 l-3.685,3.685L 622.932,234.344 z M 634.361,234.344l 2.707,0.00 l-5.038-5.038c-0.374-0.374-0.98-0.374-1.353,0.00 c-0.374,0.374-0.374,0.98,0.00,1.353L 634.361,234.344z M 618.734,235.693l0.00,2.188 l 0.604,0.00 c 0.501,0.00, 0.959,0.286, 1.179,0.736l 4.087,8.358L 635.414,246.974 l 4.069-8.356c 0.22-0.451, 0.678-0.738, 1.18-0.738L 641.266,237.88 l0.00-2.188 L 618.734,235.693 z M 627.662,243.927c0.00,0.378-0.306,0.684-0.684,0.684 s-0.684-0.306-0.684-0.684l0.00-5.062 c0.00-0.378, 0.306-0.684, 0.684-0.684s 0.684,0.306, 0.684,0.684L 627.662,243.927 z M 630.725,243.927 c0.00,0.378-0.306,0.684-0.684,0.684s-0.684-0.306-0.684-0.684l0.00-5.062 c0.00-0.378, 0.306-0.684, 0.684-0.684s 0.684,0.306, 0.684,0.684L 630.725,243.927 z M 633.783,243.927c0.00,0.378-0.306,0.684-0.684,0.684s-0.684-0.306-0.684-0.684l0.00-5.062 c0.00-0.378, 0.306-0.684, 0.684-0.684s 0.684,0.306, 0.684,0.684 L 633.783,243.927 zM 697.256,229.748l-0.697,2.188l-1.64,0.00 l-3.236,10.29L 679.266,242.226 L 674.744,231.854l 16.228,0.00 l-2.517,8.133l 1.647,0.00 l 3.218-10.239L 697.256,229.748 z M 687.855,243.311c-0.812,0.00-1.471,0.658-1.471,1.471 s 0.658,1.471, 1.471,1.471s 1.471-0.658, 1.471-1.471S 688.667,243.311, 687.855,243.311z M 682.994,243.311 c-0.812,0.00-1.471,0.658-1.471,1.471s 0.658,1.471, 1.471,1.471c 0.812,0.00, 1.471-0.658, 1.471-1.471 S 683.807,243.311, 682.994,243.311zM 22.477,290.677l-4.431,9.094L 9.97,299.771 l-4.421-9.094L 2.734,290.677 l0.00,2.188 l 0.604,0.00 c 0.501,0.00, 0.959,0.286, 1.179,0.736l 4.087,8.358L 19.414,301.959 l 4.069-8.356c 0.22-0.451, 0.678-0.738, 1.18-0.738L 25.266,292.865 l0.00-2.188 L 22.477,290.677 z M 14.055,287.985c-2.35,0.00-4.254,1.905-4.254,4.254c0.00,2.35, 1.905,4.254, 4.254,4.254s 4.254-1.905, 4.254-4.254 C 18.309,289.89, 16.404,287.985, 14.055,287.985z M 16.669,293.013l-1.842,0.00 l0.00,1.841 L 13.406,294.854 l0.00-1.841 l-1.841,0.00 l0.00-1.422 l 1.841,0.00 l0.00-1.841 l 1.422,0.00 l0.00,1.841 l 1.842,0.00 L 16.669,293.013 zM 74.972,287.854L 58.744,287.854 l 2.929,6.626l 11.216,0.00 L 74.972,287.854z M 81.256,285.748l-0.697,2.188 l-1.64,0.00 l-3.236,10.29L 63.266,298.226 l-0.964-2.188L 74.084,296.038 l 3.236-10.29L 81.256,285.748 z M 73.326,300.781c0.00,0.812-0.658,1.471-1.471,1.471 S 70.385,301.593, 70.385,300.781s 0.658-1.471, 1.471-1.471S 73.326,299.969, 73.326,300.781z M 68.465,300.781 c0.00,0.812-0.658,1.471-1.471,1.471c-0.812,0.00-1.471-0.658-1.471-1.471s 0.658-1.471, 1.471-1.471 C 67.807,299.311, 68.465,299.969, 68.465,300.781zM 124.451,300.836c0.00,0.812-0.658,1.471-1.471,1.471S 121.51,301.648, 121.51,300.836 s 0.658-1.471, 1.471-1.471S 124.451,300.024, 124.451,300.836z M 133.307,285.803l-3.236,10.29L 120.714,296.093 L 117.163,287.908L 114.757,287.908 l 4.534,10.372l 0.015,0.00 l 12.363,0.00 l 3.236-10.29l 1.64,0.00 l 0.697-2.188L 133.307,285.803 z M 127.842,299.365c-0.812,0.00-1.471,0.658-1.471,1.471 s 0.658,1.471, 1.471,1.471s 1.471-0.658, 1.471-1.471S 128.654,299.365, 127.842,299.365z M 125.249,285.693 c-2.35,0.00-4.254,1.905-4.254,4.254c0.00,2.35, 1.905,4.254, 4.254,4.254s 4.254-1.905, 4.254-4.254 C 129.503,287.598, 127.598,285.693, 125.249,285.693z M 127.863,290.721l-1.842,0.00 l0.00,1.841 l-1.422,0.00 l0.00-1.841 l-1.841,0.00 L 122.758,289.299 l 1.841,0.00 l0.00-1.841 l 1.422,0.00 l0.00,1.841 l 1.842,0.00 L 127.863,290.721 zM 175.948,292.214l0.00-3.427 C 175.948,285.449, 178.663,282.734, 182.00,282.734c 3.337,0.00, 6.052,2.715, 6.052,6.052l0.00,3.427 l-2.734,0.00 l0.00-3.427 C 185.318,286.957, 183.829,285.469, 182.00,285.469c-1.829,0.00-3.318,1.488-3.318,3.318l0.00,3.427 L 175.948,292.214 z M 173.906,293.854L 173.906,305.266 l 16.188,0.00 L 190.094,293.854 L 173.906,293.854 zM 231.329,297.959c 2.004-8.727, 11.984-10.758, 11.984-10.758L 243.314,284.514 L 249.266,290.456l-5.952,5.942 l0.00-2.687 C 243.314,293.711, 235.596,293.39, 231.329,297.959z M 243.362,299.055l0.00,2.189 L 228.977,301.244 L 228.977,291.926 l 3.148,0.00 c 0.629-0.81, 1.343-1.558, 2.132-2.243L 226.734,289.684 l0.00,13.803 l 18.87,0.00 L 245.605,296.815 L 243.362,299.055zM 303.544,288.402L 284.455,288.402 l0.00,4.784 l 19.089,0.00 L 303.545,288.402 z M 285.725,291.844l 0.839-2.099l 1.014,0.00 l-0.839,2.099 L 285.725,291.844 z M 287.369,291.844l 0.839-2.099l 1.014,0.00 l-0.839,2.099L 287.369,291.844 z M 289.012,291.844l 0.839-2.099l 1.014,0.00 l-0.839,2.099 L 289.012,291.844 z M 290.656,291.844l 0.839-2.099l 1.014,0.00 l-0.839,2.099L 290.656,291.844 z M 293.313,291.844l-1.014,0.00 l 0.839-2.099l 1.014,0.00 L 293.313,291.844z M 301.278,291.495c-0.387,0.00-0.701-0.314-0.701-0.701s 0.314-0.701, 0.701-0.701 c 0.387,0.00, 0.701,0.314, 0.701,0.701S 301.665,291.495, 301.278,291.495z M 302.492,287.143l-16.943,0.00 L 288.89,282.734l 10.22,0.00 L 302.492,287.143 z M 303.544,294.445L 284.455,294.445 l0.00,4.785 l 19.089,0.00 L 303.545,294.445 z M 285.725,297.887l 0.839-2.099l 1.014,0.00 l-0.839,2.099L 285.725,297.887 z M 287.369,297.887 l 0.839-2.099l 1.014,0.00 l-0.839,2.099L 287.369,297.887 z M 289.012,297.887l 0.839-2.099l 1.014,0.00 l-0.839,2.099L 289.012,297.887 z M 290.656,297.887 l 0.839-2.099l 1.014,0.00 l-0.839,2.099L 290.656,297.887 z M 293.313,297.887l-1.014,0.00 l 0.839-2.099l 1.014,0.00 L 293.313,297.887z M 301.278,297.539 c-0.387,0.00-0.701-0.314-0.701-0.701c0.00-0.387, 0.314-0.701, 0.701-0.701c 0.387,0.00, 0.701,0.314, 0.701,0.701 C 301.979,297.225, 301.665,297.539, 301.278,297.539z M 303.544,300.481L 284.455,300.481 L 284.455,305.266 l 19.089,0.00 L 303.545,300.481 z M 285.725,303.923l 0.839-2.099 l 1.014,0.00 l-0.839,2.099L 285.725,303.923 z M 287.369,303.923l 0.839-2.099l 1.014,0.00 l-0.839,2.099L 287.369,303.923 z M 289.012,303.923l 0.839-2.099 l 1.014,0.00 l-0.839,2.099L 289.012,303.923 z M 290.656,303.923l 0.839-2.099l 1.014,0.00 l-0.839,2.099L 290.656,303.923 z M 293.313,303.923l-1.014,0.00 l 0.839-2.099l 1.014,0.00 L 293.313,303.923z M 301.278,303.574c-0.387,0.00-0.701-0.314-0.701-0.701c0.00-0.387, 0.314-0.701, 0.701-0.701 c 0.387,0.00, 0.701,0.314, 0.701,0.701C 301.979,303.26, 301.665,303.574, 301.278,303.574zM 359.085,299.447l0.00,2.544 C 359.085,303.80, 355.017,305.266, 350.00,305.266c-5.017,0.00-9.085-1.466-9.085-3.274 l0.00-2.544 c 0.562,0.404, 1.268,0.761, 2.105,1.062C 344.91,301.19, 347.389,301.565, 350.00,301.565 c 2.611,0.00, 5.09-0.375, 6.98-1.056C 357.817,300.208, 358.522,299.851, 359.085,299.447z M 356.98,295.192 c-1.89,0.681-4.369,1.056-6.98,1.056c-2.611,0.00-5.09-0.375-6.98-1.056c-0.837-0.302-1.542-0.658-2.105-1.062 l0.00,2.521 c0.00,1.808, 4.067,3.274, 9.085,3.274c 5.017,0.00, 9.085-1.466, 9.085-3.274l0.00-2.521 C 358.522,294.534, 357.817,294.89, 356.98,295.192z M 350.00,282.734c-5.017,0.00-9.085,1.466-9.085,3.274 c0.00,1.808, 4.067,3.274, 9.085,3.274c 5.017,0.00, 9.085-1.466, 9.085-3.274C 359.085,284.20, 355.017,282.734, 350.00,282.734z M 356.98,289.867C 355.09,290.548, 352.611,290.923, 350.00,290.923c-2.611,0.00-5.09-0.375-6.98-1.056 c-0.837-0.302-1.542-0.658-2.105-1.062l0.00,2.528 c0.00,1.808, 4.067,3.274, 9.085,3.274c 5.017,0.00, 9.085-1.466, 9.085-3.274 l0.00-2.528 C 358.522,289.209, 357.817,289.566, 356.98,289.867zM 417.266,299.688l0.00,0.711 c0.00,0.604-0.49,1.094-1.094,1.094L 395.828,301.492 c-0.604,0.00-1.094-0.49-1.094-1.094l0.00-0.711 l 9.138,0.00 c 0.075,0.336, 0.375,0.533, 0.733,0.533l 2.789,0.00 c 0.359,0.00, 0.659-0.197, 0.733-0.533L 417.266,299.688 z M 413.866,287.984L 398.134,287.984 l0.00,9.406 l 15.732,0.00 L 413.866,287.984 M 415.343,298.867 L 396.658,298.867 L 396.658,287.602 c0.00-0.604, 0.49-1.094, 1.094-1.094l 16.497,0.00 c 0.604,0.00, 1.094,0.49, 1.094,1.094L 415.343,298.867 zM 466.726,289.274c 0.548,0.548, 0.548,1.4360.00,1.983L 459.257,298.726 c-0.548,0.548-1.436,0.548-1.983,0.00l0.00,0.00c-0.548-0.548-0.548-1.4360.00-1.983l 7.469-7.469 C 465.29,288.726, 466.178,288.726, 466.726,289.274L 466.726,289.274z M 458.147,301.841c-1.099,1.099-2.888,1.099-3.988,0.00 c-1.099-1.099-1.099-2.888,0.00-3.988l 5.293-5.287c-1.776-0.431-3.728,0.047-5.115,1.434L 452.321,296.016 c-2.116,2.116-2.116,5.547,0.00,7.663c 2.116,2.116, 5.547,2.116, 7.663,0.00l 2.016-2.016 c 1.387-1.387, 1.865-3.338, 1.434-5.114L 458.147,301.841z M 464.016,284.321l-2.016,2.016 c-1.387,1.387-1.868,3.336-1.437,5.112l 5.29-5.29c 1.099-1.099, 2.888-1.099, 3.988,0.00 c 1.099,1.099, 1.099,2.888, 0.00,3.988l-5.29,5.29c 1.776,0.431, 3.725-0.049, 5.112-1.436l 2.016-2.016 c 2.116-2.116, 2.116-5.5470.00-7.663C 469.562,282.205, 466.132,282.205, 464.016,284.321zM 517.122,292.652l 1.757,0.00 l0.00,5.328 l-1.757,0.00 L 517.122,292.652 z M 518.00,300.728c-0.524,0.00-0.948-0.424-0.948-0.948 c0.00-0.524, 0.424-0.948, 0.948-0.948c 0.524,0.00, 0.948,0.424, 0.948,0.948C 518.948,300.303, 518.524,300.728, 518.00,300.728z M 518.00,284.269 L 506.734,303.782l 22.531,0.00 L 518.00,284.269z M 518.00,288.644l 7.477,12.95L 510.523,301.595 L 518.00,288.644zM 585.266,295.066c0.00-6.222-5.044-11.266-11.266-11.266s-11.266,5.044-11.266,11.266c0.00,2.425, 0.766,4.671, 2.07,6.509 l 4.091,0.00 C 569.768,303.122, 571.725,304.199, 574.00,304.199s 4.232-1.077, 5.105-2.624l 4.091,0.00 C 584.499,299.737, 585.266,297.491, 585.266,295.066z M 581.048,289.024l-2.068,2.068c-0.297-0.371-0.634-0.709-1.005-1.005l 2.068-2.068 C 580.402,288.327, 580.739,288.665, 581.048,289.024z M 576.889,286.241c 0.449,0.147, 0.89,0.33, 1.313,0.545l-1.12,2.702 c-0.416-0.23-0.857-0.413-1.313-0.545L 576.889,286.241z M 573.289,285.81c 0.24-0.018, 0.479-0.028, 0.711-0.028s 0.471,0.009, 0.711,0.028l0.00,2.924 c-0.236-0.026-0.475-0.039-0.711-0.039s-0.475,0.013-0.711,0.039L 573.289,285.81 z M 572.94,295.611L 574.00,290.642l 1.06,4.97 c 0.675,0.374, 1.133,1.093, 1.133,1.92c0.00,1.211-0.982,2.193-2.193,2.193c-1.211,0.00-2.193-0.982-2.193-2.193 C 571.807,296.705, 572.264,295.985, 572.94,295.611z M 571.076,286.253l 1.131,2.698c-0.456,0.133-0.896,0.318-1.311,0.55 l-1.131-2.698C 570.187,286.587, 570.627,286.402, 571.076,286.253z M 567.957,288.018l 2.068,2.068 c-0.371,0.297-0.709,0.634-1.005,1.005l-2.068-2.068C 567.261,288.664, 567.598,288.327, 567.957,288.018z M 565.174,292.179 c 0.147-0.449, 0.33-0.89, 0.545-1.313l 2.703,1.12c-0.23,0.416-0.413,0.857-0.545,1.314L 565.174,292.179z M 580.095,293.203 c-0.139-0.454-0.328-0.891-0.566-1.305l 2.685-1.162c 0.221,0.418, 0.41,0.856, 0.565,1.305L 580.095,293.203zM 630.00,304.775C 621.696,296.693, 619.362,293.72, 618.856,290.673 C 618.238,286.944, 621.013,283.225, 625.337,283.225c 1.853,0.00, 3.537,0.712, 4.663,1.901c 1.125-1.189, 2.809-1.901, 4.663-1.901 c 4.305,0.00, 7.103,3.701, 6.481,7.448C 640.649,293.654, 638.469,296.533, 630.00,304.775z M 625.337,285.412 c-1.746,0.00-3.218,0.879-3.938,2.351c-1.843,3.77, 2.307,7.599, 8.60,13.905 C 636.317,295.338, 640.439,291.525, 638.60,287.763c-0.72-1.472-2.192-2.351-3.938-2.351c-2.814,0.00-4.013,2.216-4.663,3.262 C 629.39,287.691, 628.294,285.412, 625.337,285.412zM 690.666,282.734L 681.334,282.734 L 674.734,289.334l0.00,9.333 L 681.334,305.266l 9.333,0.00 L 697.266,298.666L 697.266,289.334 L 690.666,282.734z M 689.734,299.765l-3.679-3.679l-3.679,3.679l-1.976-1.977l 3.678-3.679l-3.679-3.679l 1.977-1.976l 3.678,3.678 l 3.678-3.678l 1.978,1.976l-3.678,3.678l 3.679,3.678L 689.734,299.765z"></path></svg>