<?xml version="1.0" encoding="utf-8"?>

<!-- The icon can be used freely in both personal and commercial projects with no attribution required, but always appreciated. 
You may NOT sub-license, resell, rent, redistribute or otherwise transfer the icon without express written permission from iconmonstr.com -->

<!DOCTYPE svg PUBLIC "-//W3C//DTD SVG 1.1//EN" "http://www.w3.org/Graphics/SVG/1.1/DTD/svg11.dtd">
<svg version="1.1" xmlns="http://www.w3.org/2000/svg" xmlns:xlink="http://www.w3.org/1999/xlink" x="0px" y="0px"
	 width="512px" height="512px" viewBox="0 0 512 512" enable-background="new 0 0 512 512" xml:space="preserve">
<path id="basket-12-icon" d="M411.011,195.241l-81.022,166.291H182.301l-80.845-166.291H50v40h11.041
	c9.166,0,17.533,5.221,21.561,13.457l74.732,152.834H355l74.409-152.799c4.02-8.254,12.396-13.492,21.577-13.492H462v-40H411.011z
	 M257.001,146.019c-42.963,0-77.793,34.828-77.793,77.791c0,42.964,34.83,77.791,77.793,77.791s77.791-34.827,77.791-77.791
	C334.792,180.847,299.964,146.019,257.001,146.019z M304.81,237.944h-33.674v33.673H245.13v-33.673h-33.672v-26.005h33.672v-33.672
	h26.006v33.672h33.674V237.944z"/>
</svg>
