<?xml version="1.0" encoding="utf-8"?>


<!-- The icon can be used freely in both personal and commercial projects with no attribution required, but always appreciated. 
You may NOT sub-license, resell, rent, redistribute or otherwise transfer the icon without express written permission from iconmonstr.com -->


<!DOCTYPE svg PUBLIC "-//W3C//DTD SVG 1.1//EN" "http://www.w3.org/Graphics/SVG/1.1/DTD/svg11.dtd">

<svg version="1.1" xmlns="http://www.w3.org/2000/svg" xmlns:xlink="http://www.w3.org/1999/xlink" x="0px" y="0px"

	 width="512px" height="512px" viewBox="0 0 512 512" enable-background="new 0 0 512 512" xml:space="preserve">

<path id="deviantart-icon" d="M250.422,200.122c74.489-1.354,114.638,23.148,124.252,70.647h-60.887v-51.126

	c-16.108-5.599-33.073-7.877-50.661-7.746v96.674H462c-9.613-77.145-98.163-137.576-206-137.576c-1.865,0-3.723,0.022-5.577,0.058

	v-35.382c-16.942-1.111-33.589,1.548-49.887,8.676v32.166C119.118,193.071,57.899,245.173,50,308.571h200.422V200.122z

	 M200.536,270.77h-62.591c6.75-32.608,27.569-54.232,62.591-63.521V270.77z"/>

</svg>

