<?xml version="1.0" encoding="utf-8"?>

<!-- The icon can be used freely in both personal and commercial projects with no attribution required, but always appreciated. 
You may NOT sub-license, resell, rent, redistribute or otherwise transfer the icon without express written permission from iconmonstr.com -->

<!DOCTYPE svg PUBLIC "-//W3C//DTD SVG 1.1//EN" "http://www.w3.org/Graphics/SVG/1.1/DTD/svg11.dtd">
<svg version="1.1" xmlns="http://www.w3.org/2000/svg" xmlns:xlink="http://www.w3.org/1999/xlink" x="0px" y="0px"
	 width="512px" height="512px" viewBox="0 0 512 512" enable-background="new 0 0 512 512" xml:space="preserve">
<path id="microphone-icon" d="M324,243c0,37.556-30.444,68-68,68c-37.555,0-68-30.444-68-68V118c0-37.555,30.445-68,68-68
	c37.556,0,68,30.445,68,68V243z M354,208v35c0,54.037-43.963,98-98,98c-54.038,0-98-43.963-98-98v-35h-40v35
	c0,76.094,61.907,138,138,138c76.094,0,138-61.906,138-138v-35H354z M256,401l-89,61h172L256,401z"/>
</svg>
