<?xml version="1.0" encoding="utf-8"?>

<!-- The icon can be used freely in both personal and commercial projects with no attribution required, but always appreciated. 
You may NOT sub-license, resell, rent, redistribute or otherwise transfer the icon without express written permission from iconmonstr.com -->

<!DOCTYPE svg PUBLIC "-//W3C//DTD SVG 1.1//EN" "http://www.w3.org/Graphics/SVG/1.1/DTD/svg11.dtd">
<svg version="1.1" xmlns="http://www.w3.org/2000/svg" xmlns:xlink="http://www.w3.org/1999/xlink" x="0px" y="0px"
	 width="512px" height="512px" viewBox="0 0 512 512" enable-background="new 0 0 512 512" xml:space="preserve">
<path id="time-6-icon" d="M461.529,251.5c0.303,14.061-0.785,27.89-3.293,41.657L414.5,281.919
	c1.645-10.172,2.301-20.251,2.021-30.419H461.529z M450.717,322.2l-43.758-11.244c-3.57,9.833-8.072,19.217-13.398,28.05
	l36.756,26.13C438.682,351.771,445.566,337.388,450.717,322.2z M375.527,423.491c13.709-9.835,26.158-21.315,37.066-34.146
	l-36.852-26.197c-6.971,7.811-14.688,14.938-23.045,21.269L375.527,423.491z M49.586,256c0,113.771,92.229,206,206,206
	c34.006,0,66.084-8.245,94.354-22.837l-22.748-38.937C305.623,410.956,281.312,417,255.586,417c-88.918,0-161-72.082-161-161
	s72.082-161,161-161c43.789,0,87.488,17.486,116.512,45.852l-35.861,35.86l126.178,23.032L439.383,73.567l-35.461,35.46
	C366.754,72.52,311.801,50,255.586,50C141.815,50,49.586,142.229,49.586,256z M308.541,315.528v-26.203h-47.877v-23.898
	l50.246-67.435h23.779v68.096h15.044v23.237h-15.044v26.203H308.541z M308.541,266.088v-31.293l-23.31,31.293H308.541z
	 M165.149,315.528c0-17.739,5.092-31.541,22.79-44.65c20.84-15.437,36.733-21.497,36.733-35.791c0-9.445-5.682-15.312-14.827-15.312
	c-12.746,0-15.797,13.343-15.797,26.041h-26.24c-1.105-32.887,17.562-50.087,43.169-50.087c23.743,0,40.977,15.804,40.977,37.578
	c0,10.867-3.375,19.485-10.621,27.122c-11.481,12.096-28.672,18.198-39.95,31.054h51.218v24.046H165.149z"/>
</svg>
