<?xml version="1.0" encoding="utf-8"?>

<!-- The icon can be used freely in both personal and commercial projects with no attribution required, but always appreciated. 
You may NOT sub-license, resell, rent, redistribute or otherwise transfer the icon without express written permission from iconmonstr.com -->

<!DOCTYPE svg PUBLIC "-//W3C//DTD SVG 1.1//EN" "http://www.w3.org/Graphics/SVG/1.1/DTD/svg11.dtd">
<svg version="1.1" xmlns="http://www.w3.org/2000/svg" xmlns:xlink="http://www.w3.org/1999/xlink" x="0px" y="0px"
	 width="512px" height="512px" viewBox="0 0 512 512" enable-background="new 0 0 512 512" xml:space="preserve">
<path id="compass-9-icon" d="M267.918,288.917c6.371,6.369,6.371,16.7,0,23.07c-6.372,6.374-16.701,6.372-23.071,0
	c-6.372-6.37-6.372-16.701,0-23.07C251.215,282.542,261.547,282.542,267.918,288.917z M294.015,296.047l37.662-70.89l-70.892,37.66
	c-11.361-1.306-22.772,2.409-31.197,10.837c-8.36,8.359-11.986,19.684-10.888,30.62l-38.374,72.236l72.197-38.359
	c11.132,1.119,22.334-2.585,30.653-10.905C291.177,319.25,295.396,308.015,294.015,296.047z M299.533,145.822
	c10.848-10.154,17.557-24.066,17.557-39.399c0-31.007-27.405-56.232-61.09-56.232s-61.09,25.226-61.09,56.232
	c0,15.332,6.709,29.245,17.557,39.399c-67.754,18.988-117.441,81.195-117.441,155.013c0,88.904,72.07,160.975,160.975,160.975
	c88.903,0,160.975-72.07,160.975-160.975C416.975,227.018,367.286,164.811,299.533,145.822z M256,80.19
	c17.143,0,31.09,11.768,31.09,26.232s-13.947,26.232-31.09,26.232s-31.09-11.768-31.09-26.232S238.857,80.19,256,80.19z
	 M343.31,388.145c-23.321,23.321-54.328,36.165-87.31,36.165s-63.988-12.844-87.311-36.165
	c-23.32-23.321-36.164-54.328-36.164-87.31s12.844-63.988,36.164-87.31c23.322-23.321,54.329-36.165,87.311-36.165
	s63.988,12.844,87.31,36.165s36.165,54.328,36.165,87.31S366.631,364.823,343.31,388.145z"/>
</svg>
