<?xml version="1.0" encoding="utf-8"?> <!-- Generator: IcoMoon.io --> <!DOCTYPE svg PUBLIC "-//W3C//DTD SVG 1.1//EN" "http://www.w3.org/Graphics/SVG/1.1/DTD/svg11.dtd"> <svg version="1.1" xmlns="http://www.w3.org/2000/svg" xmlns:xlink="http://www.w3.org/1999/xlink" x="0px" y="0px" width="800" height="352" viewBox="0 0 800 352" enable-background="new 0 0 512 512" xml:space="preserve" fill="#333333"> <path d="M 28.875,8.014c-0.947,0.42-1.966,0.704-3.034,0.832c 1.091-0.654, 1.928-1.689, 2.323-2.923 c-1.021,0.605-2.151,1.045-3.355,1.282c-0.964-1.027-2.337-1.668-3.856-1.668c-3.41,0.00-5.917,3.182-5.146,6.487 c-4.391-0.22-8.283-2.324-10.889-5.52c-1.384,2.374-0.718,5.481, 1.635,7.053c-0.866-0.027-1.681-0.265-2.393-0.661 c-0.057,2.448, 1.697,4.736, 4.237,5.247c-0.744,0.202-1.558,0.249-2.386,0.09c 0.672,2.099, 2.623,3.626, 4.935,3.669 C 8.725,23.643, 5.928,24.42, 3.125,24.09c 2.338,1.499, 5.115,2.374, 8.098,2.374c 9.808,0.00, 15.35-8.284, 15.016-15.715 C 27.271,10.004, 28.167,9.073, 28.875,8.014zM 92.875,18.41c0.00,1.725-1.398,3.123-3.123,3.123l-8.686,0.00 L 81.067,10.802 c 0.332-0.121, 0.678-0.211, 1.037-0.267c 0.28-0.044, 0.567-0.067, 0.86-0.067c 2.907,0.00, 5.291,2.242, 5.515,5.092 c 0.389-0.174, 0.82-0.272, 1.274-0.272C 91.477,15.287, 92.875,16.685, 92.875,18.41z M 77.819,12.923l0.00,8.61 l 1.037,0.00 L 78.856,12.294 c-0.231,0.256-0.438,0.533-0.618,0.828C 78.102,13.048, 77.962,12.982, 77.819,12.923z M 79.426,21.533l 1.037,0.00 L 80.462,11.064 c-0.372,0.189-0.719,0.418-1.037,0.682L 79.426,21.533 z M 72.843,14.001l0.00,7.531 l 1.037,0.00 L 73.88,13.179 C 73.494,13.401, 73.145,13.679, 72.843,14.001z M 69.734,15.564l0.00,5.943 c 0.127,0.017, 0.257,0.026, 0.389,0.026l 0.544,0.00 l0.00-5.945 c-0.176-0.033-0.358-0.05-0.544-0.05C 69.991,15.538, 69.861,15.547, 69.734,15.564z M 68.36,20.959 c 0.236,0.172, 0.497,0.309, 0.777,0.407l0.00-5.662 c-0.28,0.098-0.542,0.235-0.777,0.407L 68.36,20.959 z M 71.237,15.753l0.00,5.78 l 1.037,0.00 L 72.273,14.756 c-0.233,0.388-0.41,0.814-0.517,1.267C 71.593,15.917, 71.419,15.826, 71.237,15.753z M 74.502,21.533l 1.037,0.00 L 75.538,12.62 c-0.361,0.046-0.708,0.135-1.037,0.262L 74.502,21.533 z M 76.16,21.533l 1.037,0.00 L 77.197,12.717 c-0.332-0.083-0.679-0.129-1.037-0.133L 76.16,21.533 z M 67.851,20.489l0.00-3.908 C 67.399,17.106, 67.125,17.788, 67.125,18.535C 67.125,19.282, 67.399,19.965, 67.851,20.489zM 144.603,3.125C 137.576,3.125, 134.033,8.163, 134.033,12.365c0.00,2.544, 0.963,4.807, 3.029,5.651 c 0.339,0.138, 0.642,0.005, 0.74-0.37c 0.068-0.26, 0.23-0.914, 0.302-1.187c 0.099-0.371, 0.061-0.501-0.213-0.824 c-0.596-0.703-0.976-1.612-0.976-2.901c0.00-3.738, 2.797-7.084, 7.282-7.084c 3.972,0.00, 6.154,2.427, 6.154,5.668 c0.00,4.265-1.887,7.864-4.689,7.864c-1.547,0.00-2.706-1.28-2.334-2.849c 0.445-1.874, 1.306-3.896, 1.306-5.248 c0.00-1.211-0.65-2.22-1.995-2.22c-1.582,0.00-2.852,1.636-2.852,3.828c0.00,1.396, 0.472,2.34, 0.472,2.34 s-1.619,6.859-1.902,8.06c-0.565,2.392-0.085,5.325-0.044,5.621c 0.024,0.176, 0.249,0.217, 0.351,0.085 c 0.146-0.19, 2.03-2.516, 2.67-4.84c 0.181-0.658, 1.04-4.066, 1.04-4.066c 0.514,0.98, 2.016,1.844, 3.613,1.844 c 4.755,0.00, 7.981-4.335, 7.981-10.137C 153.967,7.211, 150.251,3.125, 144.603,3.125zM 220.875,8.834l-3.414,0.00 l0.00,3.414 l-1.707,0.00 l0.00-3.414 l-3.414,0.00 l0.00-1.707 l 3.414,0.00 L 215.754,3.713 l 1.707,0.00 l0.00,3.414 L 220.875,7.127 L 220.875,8.834 z M 211.224,22.954 c0.00,2.559-2.337,5.674-8.215,5.674C 198.71,28.628, 195.125,26.774, 195.125,23.655c0.00-2.407, 1.524-5.532, 8.645-5.532 c-1.058-0.862-1.317-2.067-0.671-3.372c-4.17,0.00-6.305-2.451-6.305-5.564c0.00-3.046, 2.265-5.814, 6.884-5.814 c 1.166,0.00, 7.40,0.00, 7.40,0.00l-1.654,1.736l-1.942,0.00 c 1.37,0.785, 2.099,2.402, 2.099,4.184 c0.00,1.636-0.901,2.961-2.186,3.955c-2.281,1.764-1.697,2.749, 0.693,4.492C 210.445,19.505, 211.224,20.868, 211.224,22.954 z M 206.609,9.403c-0.344-2.619-2.05-4.768-4.044-4.828c-1.994-0.059-3.332,1.945-2.987,4.565 c 0.344,2.619, 2.24,4.449, 4.234,4.509C 205.805,13.708, 206.953,12.023, 206.609,9.403z M 208.664,23.216 c0.00-2.154-1.965-4.207-5.262-4.207c-2.971-0.033-5.489,1.878-5.489,4.092c0.00,2.26, 2.146,4.141, 5.117,4.141 C 206.829,27.242, 208.664,25.476, 208.664,23.216zM 284.852,15.665l 0.023-0.239c-1.431-0.139-2.854-0.151-4.237-0.046 c 0.222-0.709, 0.339-1.51, 0.331-2.421c-0.018-1.935-0.663-3.443-1.678-4.694c 0.195-1.178, 0.048-2.356-0.319-3.535 c-1.449,0.119-2.753,0.593-3.915,1.418c-2.17-0.44-4.34-0.468-6.511,0.00c-1.355-0.914-2.685-1.363-3.994-1.418 c-0.388,1.298-0.448,2.577-0.12,3.835c-1.143,1.212-1.579,2.684-1.558,4.314c 0.012,0.933, 0.156,1.763, 0.421,2.497 c-1.362-0.10-2.763-0.087-4.171,0.05l 0.023,0.239c 1.434-0.139, 2.86-0.151, 4.245-0.042c 0.051,0.123, 0.102,0.246, 0.16,0.363 c-1.501-0.04-2.851,0.091-4.116,0.402l 0.057,0.233c 1.284-0.316, 2.659-0.443, 4.194-0.391 c 1.015,1.804, 2.97,2.864, 5.816,3.20c-0.661,0.537-1.017,1.171-1.108,1.888c0.00,0.00-0.299,0.00-1.508,0.00 c-2.025,0.00-2.577-2.582-4.674-2.327C 264.25,20.00, 263.844,23.225, 267.099,23.225c 1.094,0.00, 1.327,0.00, 1.368,0.00l0.00,2.956 c 0.015,0.478-0.193,0.797-0.529,1.019c 1.166,0.118, 2.042-0.464, 2.042-1.178s0.00-3.559,0.00-3.907s 0.365-0.375, 0.365-0.375l0.00,4.562 c 0.015,0.454-0.205,0.712-0.439,0.959c 1.027,0.041, 1.993-0.164, 2.037-1.038c0.00,0.00,0.00-4.147,0.00-4.366s 0.36-0.225, 0.36,0.00 s0.00,4.161,0.00,4.161c 0.011,0.738, 0.648,1.335, 1.997,1.243c-0.361-0.291-0.472-0.584-0.472-1.009s0.00-4.511,0.00-4.511s 0.372-0.019, 0.372,0.375 s0.00,3.146,0.00,3.805c0.00,0.847, 1.017,1.196, 2.177,1.163c-0.38-0.285-0.637-0.624-0.639-1.079l0.00-4.576 c-0.039-0.673-0.313-1.307-0.849-1.897c 2.602-0.40, 4.477-1.438, 5.411-3.30c 1.54-0.053, 2.92,0.074, 4.207,0.39 l 0.057-0.233c-1.275-0.313-2.636-0.444-4.151-0.401c 0.052-0.118, 0.104-0.237, 0.149-0.362 C 281.96,15.513, 283.402,15.524, 284.852,15.665z M 263.125,19.376c-0.064,0.00-0.116-0.037-0.116-0.082c0.00-0.045, 0.052-0.082, 0.116-0.082 c 0.064,0.00, 0.116,0.037, 0.116,0.082C 263.241,19.34, 263.189,19.376, 263.125,19.376z M 263.49,19.625c-0.071,0.00-0.129-0.041-0.129-0.091 s 0.058-0.091, 0.129-0.091s 0.129,0.041, 0.129,0.091S 263.561,19.625, 263.49,19.625z M 263.859,19.948 c-0.083,0.00-0.151-0.048-0.151-0.107s 0.068-0.107, 0.151-0.107c 0.083,0.00, 0.151,0.048, 0.151,0.107S 263.943,19.948, 263.859,19.948z M 264.219,20.336c-0.098,0.00-0.177-0.056-0.177-0.125s 0.079-0.125, 0.177-0.125s 0.177,0.056, 0.177,0.125S 264.316,20.336, 264.219,20.336z M 264.615,20.775c-0.108,0.00-0.196-0.062-0.196-0.139s 0.088-0.139, 0.196-0.139s 0.196,0.062, 0.196,0.139 S 264.723,20.775, 264.615,20.775z M 265.073,21.22c-0.12,0.00-0.218-0.069-0.218-0.155s 0.098-0.155, 0.218-0.155 c 0.12,0.00, 0.218,0.069, 0.218,0.155S 265.193,21.22, 265.073,21.22z M 265.693,21.643c-0.134,0.00-0.242-0.077-0.242-0.172 c0.00-0.095, 0.108-0.172, 0.242-0.172s 0.242,0.077, 0.242,0.172C 265.935,21.566, 265.826,21.643, 265.693,21.643z M 266.461,21.87 c-0.134,0.00-0.242-0.077-0.242-0.172c0.00-0.095, 0.108-0.172, 0.242-0.172s 0.242,0.077, 0.242,0.172 C 266.703,21.793, 266.595,21.87, 266.461,21.87z M 267.271,21.896c-0.134,0.00-0.242-0.077-0.242-0.172 c0.00-0.095, 0.108-0.172, 0.242-0.172s 0.242,0.077, 0.242,0.172C 267.513,21.819, 267.405,21.896, 267.271,21.896z M 268.07,21.911 c-0.134,0.00-0.242-0.077-0.242-0.172c0.00-0.095, 0.108-0.172, 0.242-0.172s 0.242,0.077, 0.242,0.172 C 268.313,21.834, 268.204,21.911, 268.07,21.911zM 332.754,11.543l-2.696,0.00 l0.00,4.402 l 2.696,0.00 L 332.754,28.875 l 5.185,0.00 L 337.94,15.89 l 3.618,0.00 l 0.385-4.347l-4.003,0.00 c0.00,0.00,0.00-1.623,0.00-2.476c0.00-1.025, 0.206-1.431, 1.197-1.431c 0.798,0.00, 2.806,0.00, 2.806,0.00L 341.942,3.125 c0.00,0.00-2.958,0.00-3.59,0.00 c-3.858,0.00-5.598,1.699-5.598,4.952C 332.754,10.91, 332.754,11.543, 332.754,11.543zM 400.00,3.125C 392.889,3.125, 387.125,8.889, 387.125,16.00c0.00,7.11, 5.764,12.875, 12.875,12.875s 12.875-5.765, 12.875-12.875 C 412.875,8.889, 407.111,3.125, 400.00,3.125z M 410.605,15.40c-2.763-0.453-5.303-0.477-7.62-0.078c-0.262-0.605-0.533-1.206-0.823-1.803 c 2.478-1.073, 4.469-2.53, 5.952-4.379C 409.563,10.85, 410.472,13.022, 410.605,15.40z M 406.483,7.588 c-1.292,1.667-3.076,2.985-5.349,3.948c-1.09-1.997-2.337-3.944-3.743-5.834c 0.836-0.212, 1.707-0.337, 2.609-0.337 C 402.441,5.364, 404.686,6.199, 406.483,7.588z M 395.201,6.521c 1.429,1.869, 2.694,3.796, 3.795,5.773 c-2.607,0.767-5.72,1.162-9.318,1.187C 390.421,10.439, 392.47,7.909, 395.201,6.521z M 389.364,16.00 c0.00-0.093, 0.011-0.183, 0.014-0.274c 4.129-0.006, 7.691-0.481, 10.675-1.419c 0.25,0.509, 0.49,1.021, 0.718,1.536 c-3.626,1.133-6.614,3.457-8.944,6.953C 390.291,20.952, 389.364,18.582, 389.364,16.00z M 393.473,24.379 c 2.113-3.313, 4.809-5.47, 8.152-6.466c 0.995,2.596, 1.726,5.268, 2.191,8.004c-1.187,0.458-2.47,0.719-3.816,0.719 C 397.539,26.636, 395.277,25.788, 393.473,24.379z M 405.903,24.841c-0.47-2.524-1.159-4.992-2.06-7.40 c 2.012-0.284, 4.228-0.21, 6.651,0.211C 410.025,20.64, 408.318,23.223, 405.903,24.841zM 463.651,12.508c 4.656-0.085, 7.165,1.447, 7.766,4.415l-3.805,0.00 l0.00-3.195 c-1.007-0.35-2.067-0.492-3.166-0.484l0.00,6.042 L 476.875,19.286 c-0.601-4.822-6.135-8.598-12.875-8.598c-0.117,0.00-0.233,0.001-0.349,0.004 l0.00-2.211 c-1.059-0.069-2.099,0.097-3.118,0.542l0.00,2.01 C 455.445,12.067, 451.619,15.323, 451.125,19.286l 12.526,0.00 L 463.651,12.508 z M 460.534,16.923l-3.912,0.00 c 0.422-2.038, 1.723-3.389, 3.912-3.97L 460.534,16.923 zM 520.116,3.125l 1.546,0.00 l 1.058,3.972L 523.704,3.125l 1.559,0.00 l-1.786,5.907l0.00,4.03 l-1.535,0.00 l0.00-4.03 L 520.116,3.125z M 525.194,11.234c0.00,1.292, 0.675,1.964, 1.997,1.964c 1.096,0.00, 1.959-0.733, 1.959-1.964L 529.15,7.641 c0.00-1.147-0.855-1.969-1.959-1.969c-1.20,0.00-1.997,0.793-1.997,1.969L 525.194,11.234 z M 526.597,7.761 c0.00-0.401, 0.185-0.699, 0.568-0.699c 0.418,0.00, 0.597,0.289, 0.597,0.699l0.00,3.41 c0.00,0.399-0.203,0.694-0.57,0.694 c-0.376,0.00-0.594-0.308-0.594-0.694L 526.597,7.761 z M 532.834,5.732l0.00,5.564 c-0.166,0.208-0.536,0.549-0.801,0.549 c-0.292,0.00-0.363-0.199-0.363-0.494L 531.67,5.732 l-1.363,0.00 l0.00,6.127 c0.00,0.724, 0.221,1.309, 0.952,1.309c 0.412,0.00, 0.985-0.215, 1.575-0.915 l0.00,0.809 l 1.363,0.00 L 534.197,5.732 L 532.834,5.732 z M 530.83,20.758c 0.092,0.122, 0.139,0.301, 0.139,0.536l0.00,3.604 c0.00,0.223-0.038,0.383-0.112,0.481 c-0.143,0.187-0.453,0.179-0.664,0.072c-0.099-0.05-0.202-0.132-0.307-0.245l0.00-4.35 c 0.088-0.096, 0.177-0.167, 0.268-0.213 C 530.379,20.529, 530.673,20.551, 530.83,20.758z M 535.199,20.60c-0.481,0.00-0.58,0.338-0.58,0.818l0.00,0.707 l 1.147,0.00 l0.00-0.707 C 535.766,20.947, 535.666,20.60, 535.199,20.60z M 539.157,25.75c0.00,1.726-1.399,3.125-3.125,3.125L 519.968,28.875 c-1.726,0.00-3.125-1.399-3.125-3.125 L 516.843,17.855 c0.00-1.726, 1.399-3.125, 3.125-3.125l 16.064,0.00 c 1.726,0.00, 3.125,1.399, 3.125,3.125L 539.157,25.75 z M 522.108,18.445l 1.512,0.00 L 523.621,17.072 l-4.486,0.00 l0.00,1.374 l 1.512,0.00 l0.00,8.09 l 1.462,0.00 L 522.108,18.445 z M 527.308,19.554l-1.298,0.00 l0.00,5.299 c-0.158,0.198-0.51,0.523-0.763,0.523c-0.278,0.00-0.346-0.19-0.346-0.47 l0.00-5.351 l-1.298,0.00 l0.00,5.835 c0.00,1.417, 0.96,1.425, 1.66,1.024c 0.259-0.148, 0.508-0.365, 0.747-0.649l0.00,0.771 l 1.298,0.00 L 527.308,19.554 z M 532.304,21.216c0.00-0.947-0.315-1.75-1.265-1.75c-0.464,0.00-0.861,0.295-1.154,0.652L 529.885,17.072 l-1.311,0.00 l0.00,9.464 l 1.311,0.00 l0.00-0.537 c 0.362,0.451, 0.758,0.625, 1.233,0.625c 0.864,0.00, 1.187-0.671, 1.187-1.535L 532.304,21.216 z M 537.102,21.431 c0.00-1.262-0.602-2.053-1.847-2.053c-1.171,0.00-1.971,0.841-1.971,2.053l0.00,3.134 c0.00,1.257, 0.634,2.16, 1.873,2.16 c 1.368,0.00, 1.945-0.815, 1.945-2.16l0.00-0.524 l-1.336,0.00 l0.00,0.485 c0.00,0.608-0.032,0.977-0.58,0.977c-0.523,0.00-0.567-0.453-0.567-0.977 l0.00-1.317 l 2.482,0.00 L 537.102,21.431 zM 604.873,22.46l-4.996,0.00 c0.00-5.437-2.718-2.853-2.718-7.618c0.00-1.72, 1.126-2.653, 2.572-2.653 c 2.136,0.00, 3.623,2.04, 1.60,5.854c-0.665,1.253, 0.708,1.551, 2.182,1.891C 604.986,20.273, 604.873,21.05, 604.873,22.46z M 580.487,19.933c 1.474-0.34, 2.847-0.638, 2.182-1.891c-2.023-3.814-0.536-5.854, 1.60-5.854 c 1.446,0.00, 2.572,0.933, 2.572,2.653c0.00,4.765-2.718,2.18-2.718,7.618L 579.127,22.46 C 579.127,21.05, 579.014,20.273, 580.487,19.933z M 596.757,19.282c-1.854-0.428-3.581-0.802-2.745-2.378c 2.545-4.798, 0.674-7.363-2.013-7.363 c-2.74,0.00-4.564,2.664-2.013,7.363c 0.861,1.586-0.93,1.96-2.745,2.378c-1.854,0.427-1.711,1.405-1.711,3.178 l 12.937,0.00 C 598.468,20.687, 598.611,19.709, 596.757,19.282zM 660.927,3.125L 651.073,3.125 c-1.139,0.00-2.063,0.923-2.063,2.063l0.00,21.625 c0.00,1.139, 0.923,2.063, 2.063,2.063l 9.854,0.00 c 1.139,0.00, 2.063-0.923, 2.063-2.063L 662.989,5.188 C 662.989,4.048, 662.066,3.125, 660.927,3.125z M 654.906,5.014l 2.313,0.00 c 0.138,0.00, 0.25,0.112, 0.25,0.25s-0.112,0.25-0.25,0.25l-2.313,0.00 c-0.138,0.00-0.25-0.112-0.25-0.25S 654.768,5.014, 654.906,5.014z M 656.063,27.691c-0.552,0.00-1.00-0.448-1.00-1.00s 0.448-1.00, 1.00-1.00 c 0.552,0.00, 1.00,0.448, 1.00,1.00S 656.615,27.691, 656.063,27.691z M 661.422,24.609L 650.578,24.609 l0.00-17.219 L 661.422,7.391 L 661.422,24.609 zM 729.584,13.516c-0.651-3.435-3.667-5.986-7.236-5.986c-2.194,0.00-4.227,0.955-5.617,2.599 c-2.322-0.619-4.755,0.736-5.433,3.049C 708.885,13.886, 707.163,16.118, 707.163,18.706c0.00,3.178, 2.586,5.764, 5.826,5.764L 727.074,24.47 c 3.178,0.00, 5.764-2.586, 5.764-5.764C 732.837,16.462, 731.559,14.466, 729.584,13.516z M 727.074,21.97L 712.989,21.97 c-1.862,0.00-3.326-1.464-3.326-3.264c0.00-2.13, 1.728-3.755, 3.887-3.364c-0.721-2.475, 2.758-3.871, 4.04-2.022 c 0.322-0.911, 1.614-3.291, 4.758-3.291c 2.377,0.00, 4.835,1.63, 4.917,5.311c 1.585,0.006, 3.074,1.152, 3.074,3.365 C 730.337,20.506, 728.873,21.97, 727.074,21.97zM 793.381,14.227c-0.278-3.498-3.204-6.25-6.774-6.25c-2.426,0.00-4.555,1.272-5.757,3.185 c-2.261-1.279-5.145,0.226-5.326,2.869C 773.046,14.334, 771.125,16.446, 771.125,19.007c0.00,2.77, 2.245,5.015, 5.015,5.015l 6.142,0.00 l0.00-4.582 l-2.076,0.00 l 4.419-4.426l 4.419,4.426l-2.076,0.00 l0.00,4.582 l 4.892,0.00 c 2.77,0.00, 5.015-2.245, 5.015-5.015 C 796.875,16.768, 795.407,14.872, 793.381,14.227zM 25.381,78.227c-0.278-3.498-3.204-6.25-6.774-6.25c-2.426,0.00-4.555,1.272-5.757,3.185 c-2.261-1.279-5.145,0.226-5.326,2.869C 5.046,78.334, 3.125,80.446, 3.125,83.007c0.00,2.77, 2.245,5.015, 5.015,5.015l 15.719,0.00 c 2.77,0.00, 5.015-2.245, 5.015-5.015C 28.875,80.768, 27.407,78.872, 25.381,78.227z M 16.625,86.016l-4.294-4.301l 2.076,0.00 l0.00-4.45 l 4.436,0.00 l0.00,4.45 l 2.076,0.00 L 16.625,86.016zM 89.891,90.875L 89.891,69.125 c0.00-1.105-0.895-2.00-2.00-2.00l-15.781,0.00 c-1.105,0.00-2.00,0.895-2.00,2.00l0.00,21.75 c0.00,1.105, 0.895,2.00, 2.00,2.00 l 15.781,0.00 C 88.995,92.875, 89.891,91.98, 89.891,90.875z M 72.609,90.063L 72.609,69.938 l 14.781,0.00 l0.00,20.125 L 72.609,90.063 z M 79.469,91.484c0.00-0.293, 0.238-0.531, 0.531-0.531 c 0.293,0.00, 0.531,0.238, 0.531,0.531c0.00,0.293-0.238,0.531-0.531,0.531C 79.707,92.016, 79.469,91.778, 79.469,91.484zM 140.35,89.416c-0.28,0.993-1.639,2.352-2.632,2.632l 12.563,0.00 c-0.959-0.248-2.384-1.673-2.632-2.632L 140.35,89.416 z M 155.313,67.952L 132.688,67.952 c-0.863,0.00-1.563,0.70-1.563,1.563l0.00,16.783 c0.00,0.863, 0.70,1.563, 1.563,1.563 l 22.625,0.00 c 0.863,0.00, 1.563-0.70, 1.563-1.563L 156.875,69.515 C 156.875,68.652, 156.175,67.952, 155.313,67.952z M 154.243,82.813L 133.757,82.813 l0.00-12.228l 20.486,0.00L 154.243,82.813 z M 215.346,69.104c-0.568,0.00-1.113-0.225-1.516-0.625L 212.469,67.125l-8.938,0.00 l-1.36,1.354 c-0.403,0.401-0.948,0.626-1.516,0.626L 196.969,69.104 L 196.969,92.875 l 22.063,0.00 L 219.031,69.104 L 215.346,69.104 z M 216.50,90.344L 199.438,90.344 l0.00-18.75 l 3.896,0.00 l 1.557,1.563L 211.219,73.156 l 1.578-1.563L 216.50,71.594 L 216.50,90.344 z M 201.555,78.304l 0.563-0.52c 0.658,0.318, 1.075,0.561, 1.815,1.088c 1.39-1.578, 2.309-2.378, 4.017-3.441 l 0.183,0.421c-1.408,1.229-2.44,2.598-3.925,5.261C 203.291,80.034, 202.68,79.347, 201.555,78.304z M 201.555,84.991 l 0.563-0.52c 0.658,0.318, 1.075,0.561, 1.815,1.088c 1.39-1.578, 2.309-2.378, 4.017-3.441l 0.183,0.421 c-1.408,1.229-2.44,2.598-3.925,5.261C 203.291,86.722, 202.68,86.034, 201.555,84.991z M 214.349,77.781l-4.375,0.00 l0.00-1.25 l 4.375,0.00 L 214.349,77.781 z M 214.349,78.875l-4.375,0.00 l0.00,1.25 l 4.375,0.00 L 214.349,78.875 z M 214.349,85.073l-4.375,0.00 l0.00-1.25 l 4.375,0.00 L 214.349,85.073 z M 214.349,86.167l-4.375,0.00 l0.00,1.25 l 4.375,0.00 L 214.349,86.167 zM 280.837,71.383c0.00,0.627-0.508,1.136-1.136,1.136s-1.136-0.508-1.136-1.136L 278.566,68.525 c0.00-0.627, 0.508-1.136, 1.136-1.136s 1.136,0.508, 1.136,1.136L 280.837,71.383 z M 265.493,68.52c0.00-0.627-0.508-1.136-1.136-1.136 c-0.627,0.00-1.136,0.508-1.136,1.136l0.00,2.858 c0.00,0.627, 0.508,1.136, 1.136,1.136c 0.627,0.00, 1.136-0.508, 1.136-1.136L 265.493,68.52 z M 282.209,70.178l0.00,1.163 c0.00,1.383-1.125,2.508-2.508,2.508c-1.383,0.00-2.508-1.125-2.508-2.508L 277.193,70.178 L 266.866,70.178 l0.00,1.158 c0.00,1.383-1.125,2.508-2.508,2.508c-1.383,0.00-2.508-1.125-2.508-2.508L 261.849,70.178 L 259.125,70.178 l0.00,22.438 l 25.75,0.00 l0.00-22.438 L 282.209,70.178 z M 282.375,90.116L 261.625,90.116 L 261.625,76.211 l 20.75,0.00 L 282.375,90.116 z M 272.635,84.949c0.00-0.921-0.48-1.64-1.274-1.945c 0.607-0.303, 0.96-0.926, 0.96-1.726 c0.00-1.545-1.506-2.468-2.963-2.468c-1.695,0.00-2.974,1.062-3.052,3.172l 1.887,0.00 c-0.016-0.873, 0.312-1.509, 1.177-1.509 c 0.516,0.00, 1.071,0.312, 1.071,0.998c0.00,0.866-0.937,0.99-1.799,0.914l0.00,1.469 c 1.225,0.00, 1.956,0.078, 1.956,1.131 c0.00,0.831-0.629,1.203-1.252,1.203c-0.945,0.00-1.331-0.705-1.365-1.666l-1.874,0.00 c-0.035,2.172, 1.28,3.317, 3.263,3.317 C 271.141,87.839, 272.635,86.756, 272.635,84.949z M 277.586,87.682L 277.586,78.979 l-1.597,0.00 c-0.198,1.324-1.142,1.712-2.493,1.675 l0.00,1.546 l 2.125,0.00 l0.00,5.482 L 277.586,87.682 zM 341.22,87.145L 330.719,87.145 l0.00-1.875 l 10.501,0.00 L 341.22,87.145 z M 341.218,83.681l-4.09,0.00 l0.00-1.875 l 4.09,0.00 L 341.218,83.681 z M 341.218,80.223l-4.09,0.00 l0.00-1.875 l 4.09,0.00 L 341.218,80.223 z M 338.614,69.625l0.00,5.359 l 5.367,0.00 L 343.98,90.375 L 328.02,90.375 L 328.02,69.625 L 338.614,69.625 M 340.176,67.125L 325.52,67.125 l0.00,25.75 l 20.96,0.00 L 346.48,73.422 L 340.176,67.125z M 335.438,83.681l-4.718,0.00 l0.00-5.333 L 335.438,78.348 L 335.438,83.681 zM 400.00,67.755L 403.039,77.109L 412.875,77.109L 404.918,82.891L 407.957,92.245L 400.00,86.464L 392.043,92.245L 395.082,82.891L 387.125,77.109L 396.961,77.109 zM 469.854,71.391l 1.312-1.909l 2.057,1.42l-1.306,1.90 C 471.281,72.266, 470.59,71.791, 469.854,71.391z M 462.108,67.07l0.00,2.981 c 0.617-0.096, 1.249-0.146, 1.892-0.146 c 0.631,0.00, 1.252,0.048, 1.858,0.14L 465.858,67.07 L 462.108,67.07 z M 474.731,82.199c0.00,5.926-4.804,10.731-10.731,10.731 c-5.927,0.00-10.731-4.804-10.731-10.731c0.00-5.926, 4.804-10.731, 10.731-10.731 C 469.927,71.468, 474.731,76.273, 474.731,82.199z M 471.918,82.199c0.00-4.377-3.542-7.918-7.918-7.918 c-4.377,0.00-7.918,3.542-7.918,7.918c0.00,4.377, 3.542,7.918, 7.918,7.918 C 468.377,90.117, 471.918,86.575, 471.918,82.199z M 466.079,82.764c0.00,1.087-0.881,1.969-1.969,1.969 c-1.087,0.00-1.969-0.881-1.969-1.969c0.00-0.706, 0.372-1.325, 0.931-1.673l 0.72-5.413c 0.015-0.122, 0.117-0.214, 0.24-0.217 c 0.123-0.003, 0.229,0.085, 0.249,0.206l 0.833,5.403C 465.692,81.414, 466.079,82.044, 466.079,82.764zM 540.846,79.719c 0.019,0.879-0.049,1.743-0.206,2.604L 537.906,81.62 c 0.103-0.636, 0.144-1.266, 0.126-1.901L 540.846,79.719 z M 540.17,84.137l-2.735-0.703c-0.223,0.615-0.504,1.201-0.837,1.753 l 2.297,1.633C 539.418,85.986, 539.848,85.087, 540.17,84.137z M 535.47,90.468c 0.857-0.615, 1.635-1.332, 2.317-2.134 l-2.303-1.637c-0.436,0.488-0.918,0.934-1.44,1.329L 535.47,90.468z M 515.099,80.00c0.00,7.111, 5.764,12.875, 12.875,12.875 c 2.125,0.00, 4.13-0.515, 5.897-1.427l-1.422-2.434C 531.101,89.685, 529.582,90.063, 527.974,90.063c-5.557,0.00-10.063-4.505-10.063-10.063 s 4.505-10.063, 10.063-10.063c 2.737,0.00, 5.468,1.093, 7.282,2.866l-2.241,2.241l 7.886,1.44L 539.461,68.598l-2.216,2.216 C 534.922,68.532, 531.488,67.125, 527.974,67.125C 520.863,67.125, 515.099,72.889, 515.099,80.00z M 531.284,83.721l0.00-1.638 l-2.992,0.00 l0.00-1.494 l 3.14-4.215l 1.486,0.00 l0.00,4.256 l 0.94,0.00 l0.00,1.452 l-0.94,0.00 l0.00,1.638 L 531.284,83.721 z M 531.284,80.631l0.00-1.956 l-1.457,1.956L 531.284,80.631 z M 522.322,83.721c0.00-1.109, 0.318-1.971, 1.424-2.791c 1.302-0.965, 2.296-1.344, 2.296-2.237c0.00-0.59-0.355-0.957-0.927-0.957 c-0.797,0.00-0.987,0.834-0.987,1.628l-1.64,0.00 c-0.069-2.055, 1.098-3.13, 2.698-3.13c 1.484,0.00, 2.561,0.988, 2.561,2.349 c0.00,0.679-0.211,1.218-0.664,1.695c-0.718,0.756-1.792,1.137-2.497,1.941l 3.201,0.00 l0.00,1.503 L 522.322,83.721 zM 593.119,72.497l0.00-1.79 l 2.973-2.973c 0.439,0.146, 0.868,0.315, 1.284,0.505 L 593.119,72.497z M 600.691,70.427L 593.119,77.999l0.00,0.881 l 0.908,0.00 l 7.558-7.558C 601.302,71.009, 601.004,70.71, 600.691,70.427z M 593.119,68.851l 1.508-1.508c-0.493-0.101-0.996-0.175-1.508-0.218L 593.119,68.851 z M 604.662,77.394l-1.487,1.487L 604.875,78.88 C 604.832,78.376, 604.761,77.88, 604.662,77.394z M 604.272,75.928c-0.145-0.44-0.314-0.869-0.503-1.286l-4.239,4.239l 1.79,0.00 L 604.272,75.928z M 603.132,73.421c-0.22-0.371-0.457-0.731-0.712-1.078L 595.883,78.88l 1.79,0.00 L 603.132,73.421z M 599.671,69.59c-0.346-0.255-0.705-0.493-1.077-0.713l-5.476,5.476l0.00,1.79 L 599.671,69.59z M 590.927,81.072L 590.927,67.125 C 584.316,67.681, 579.125,73.222, 579.125,79.976C 579.125,87.10, 584.90,92.875, 592.023,92.875C 598.778,92.875, 604.318,87.683, 604.875,81.072L 590.927,81.072 zM 668.875,88.857l0.00,2.50 L 643.125,91.357 L 643.125,68.643 l 2.50,0.00 l0.00,20.215 L 668.875,88.857 z M 667.56,71.71l-5.957,1.126l 1.436,1.418 l-5.574,5.518l-2.514-2.364l-6.763,6.745l 2.122,2.128l 4.694-4.682l 2.507,2.357l 7.668-7.59l 1.331,1.314 L 667.56,71.71zM 729.425,82.044c0.00,0.00-9.386-12.542-10.50-13.947C 718.426,67.467, 717.661,67.125, 716.723,67.125 c-1.156,0.00-2.574,0.519-4.082,1.661c-2.731,2.068-3.447,4.295-2.36,5.833c 1.087,1.538, 10.566,14.04, 10.566,14.04 L 730.83,92.875L 729.425,82.044z M 727.358,82.203c-0.51,0.391-1.205,0.602-1.983,0.586c-1.20-0.024-2.316-0.576-2.986-1.476 c0.00,0.00-4.284-5.723-5.401-7.215c 1.412-0.97, 2.791-1.241, 3.301-1.311C 722.695,75.98, 725.969,80.349, 727.358,82.203z M 719.433,71.651c-0.834,0.192-2.085,0.612-3.347,1.525c-1.259,0.911-2.037,2.122-2.475,2.997 c-0.339-0.452-0.648-0.865-0.916-1.225c 0.304-0.711, 1.005-2.044, 2.281-2.968c 1.658-1.20, 3.315-1.411, 3.616-1.44 C 718.842,70.869, 719.125,71.243, 719.433,71.651z M 711.664,72.526c 0.278-0.73, 1.00-1.562, 2.033-2.344 c 1.096-0.83, 2.199-1.306, 3.026-1.306c 0.389,0.00, 0.668,0.104, 0.83,0.309c 0.042,0.053, 0.097,0.124, 0.163,0.209 c-0.829,0.176-2.152,0.59-3.486,1.556c-1.184,0.857-1.943,1.979-2.393,2.837c-0.05-0.069-0.093-0.129-0.127-0.177 C 711.628,73.494, 711.412,73.187, 711.664,72.526z M 714.484,77.335c 0.229-0.573, 0.804-1.785, 1.877-2.748 c 0.965,1.289, 4.217,5.632, 5.40,7.217c 0.612,0.82, 0.852,1.925, 0.659,3.031c-0.133,0.76-0.468,1.432-0.897,1.818 C 720.104,84.78, 716.873,80.513, 714.484,77.335z M 727.403,89.528l-5.368-2.267c 0.574-0.507, 1.002-1.336, 1.168-2.289 c 0.117-0.67, 0.099-1.342-0.044-1.972c 0.658,0.361, 1.415,0.568, 2.20,0.583c 0.032,0.001, 0.064,0.001, 0.096,0.001 c 0.887,0.00, 1.692-0.247, 2.314-0.697l 0.759,5.85C 727.993,88.791, 727.613,89.048, 727.403,89.528zM 794.875,71.642l0.00,4.831 l-3.945,0.00 l-4.69-3.607l-1.571,2.042l 2.039,1.564l-2.115,0.00 l-4.69-3.607 l-2.774,3.607L 773.063,76.473 L 773.063,69.604 l 6.272,0.00 l 1.436,1.427c 0.394,0.391, 0.926,0.611, 1.481,0.611L 794.875,71.642 z M 796.875,78.658L 771.125,78.658 L 772.625,90.396l 22.411,0.00 L 796.875,78.658zM 3.187,152.569c 0.935-1.86, 1.973-4.412, 1.92-6.192 c-1.26-1.519-1.971-3.476-1.971-5.47c0.00-5.62, 5.452-9.73, 11.557-9.73c 6.066,0.00, 11.557,4.078, 11.557,9.73 c0.00,5.885-6.483,11.38-15.378,9.196C 9.255,151.102, 5.692,152.112, 3.187,152.569z M 27.527,152.619 c 1.698-2.048, 1.871-5.11-0.011-7.428c-1.938,4.365-6.717,7.628-12.851,7.588 c 1.78,2.09, 5.017,3.335, 8.95,2.37c 1.097,0.678, 3.514,1.363, 5.215,1.674 C 28.195,155.56, 27.491,153.827, 27.527,152.619zM 67.109,134.463l0.00,19.074 L 67.131,153.537 l 25.697,0.00 l 0.063,0.00 L 92.891,134.463 L 67.109,134.463 z M 89.971,136.65L 79.997,144.279 L 70.03,136.65L 89.971,136.65 z M 69.296,138.844l 5.344,4.09L 69.296,148.278L 69.296,138.844 z M 69.319,151.35l 7.074-7.074l 3.603,2.758 l 3.586-2.743l 7.059,7.059L 69.319,151.35 z M 90.703,148.319l-5.369-5.369l 5.369-4.106L 90.703,148.319 zM 145.183,140.05c-0.004-0.008, 0.021-0.086, 0.042-0.079c 0.014,0.004, 0.009,0.011, 0.026,0.013 c 0.017,0.001, 0.027-0.019, 0.045-0.015c 0.028,0.005, 0.047,0.031, 0.076,0.031c 0.022,0.001, 0.035-0.021, 0.056-0.023 c 0.015-0.002, 0.029,0.008, 0.045,0.005c 0.016-0.004, 0.029-0.015, 0.043-0.023c 0.027-0.016, 0.024-0.002, 0.055-0.005 c 0.01-0.001, 0.018-0.007, 0.028-0.008c 0.002,0.00, 0.004,0.00, 0.006,0.00c 0.014,0.002, 0.02,0.01, 0.016,0.026 c-0.007,0.036-0.036,0.063-0.041,0.10c-0.003,0.024, 0.028,0.038, 0.02,0.064c-0.02,0.065-0.038,0.068-0.051,0.07 c-0.018,0.003-0.03-0.003-0.038-0.006c-0.022-0.011-0.038-0.031-0.059-0.044c-0.011-0.007-0.024-0.009-0.036-0.014 c-0.037-0.016-0.143-0.089-0.176-0.087c-0.012,0.001-0.021,0.01-0.033,0.009c0.00,0.00-0.001,0.00-0.002,0.00 C 145.201,140.063, 145.19,140.062, 145.183,140.05z M 142.963,136.881c0.00,0.00,0.00,0.000.00,0.00c-0.002,0.003-0.004,0.006-0.006,0.01 c-0.003,0.007-0.001,0.015, 0.005,0.019c 0.006,0.004, 0.015,0.003, 0.019-0.003c 0.006-0.007, 0.013-0.016, 0.023-0.027 c 0.009-0.011, 0.012-0.015, 0.026-0.021c 0.011-0.005, 0.021-0.009, 0.032-0.012c 0.004-0.001, 0.009-0.001, 0.012,0.002 s 0.005,0.007, 0.005,0.011c-0.001,0.025, 0.007,0.052-0.018,0.072c-0.014,0.011-0.026,0.02-0.034,0.028 c-0.009,0.007-0.011,0.019-0.006,0.029c 0.005,0.01, 0.017,0.015, 0.027,0.011c0.00,0.00,0.00,0.00, 0.001,0.001c 0.001,0.001, 0.002,0.002, 0.002,0.003 c 0.007,0.03, 0.008,0.03, 0.047,0.006c 0.001-0.001, 0.003-0.001, 0.004-0.001c 0.001,0.00, 0.001,0.001, 0.002,0.001 c 0.005,0.01, 0.014,0.019, 0.025,0.024c 0.015,0.007, 0.026,0.021, 0.029,0.037c 0.00,0.001, 0.00,0.002, 0.001,0.003 c 0.00,0.001, 0.001,0.002, 0.001,0.003c 0.013,0.041, 0.003,0.086-0.028,0.116c-0.03,0.03-0.075,0.041-0.116,0.027 c0.00,0.000.00,0.000.00,0.00c-0.007-0.002-0.014,0.00-0.018,0.006s-0.004,0.014, 0.001,0.019c 0.004,0.005, 0.009,0.01, 0.009,0.017 c-0.001,0.025-0.033,0.016-0.043,0.033c0.00,0.000.00,0.000.00,0.001c-0.001,0.001-0.001,0.003-0.001,0.004 c0.00,0.003, 0.001,0.006, 0.003,0.009c 0.002,0.002, 0.006,0.003, 0.009,0.002c 0.015-0.003, 0.027-0.016, 0.042-0.017 c 0.029-0.002, 0.007,0.071-0.002,0.082c-0.011,0.012-0.085,0.038-0.108,0.042c-0.015,0.002-0.025,0.004-0.03,0.009 c-0.005,0.005-0.008,0.036, 0.013,0.046c 0.032,0.015, 0.061-0.013, 0.092-0.004c0.00,0.00,0.00,0.00, 0.00,0.00c 0.03,0.008, 0.057,0.024, 0.078,0.046 c 0.002,0.002, 0.004,0.003, 0.006,0.004c 0.01,0.004, 0.022,0.004, 0.032,0.00c 0.002-0.001, 0.005-0.003, 0.007-0.004 c 0.008-0.007, 0.017-0.01, 0.026-0.01c 0.007,0.00, 0.013,0.004, 0.015,0.01c 0.002,0.006,0.00,0.014-0.006,0.018 c-0.023,0.016-0.046,0.033-0.078,0.029c-0.017-0.002-0.034-0.002-0.051,0.00c-0.052,0.006-0.102,0.029-0.14,0.067 c-0.013,0.013-0.026,0.026-0.038,0.039c-0.006,0.007-0.007,0.017-0.001,0.024c 0.006,0.007, 0.016,0.009, 0.024,0.004 c 0.005-0.003, 0.012-0.007, 0.018-0.011c 0.022-0.014, 0.064-0.031, 0.086,0.013c 0.00,0.00, 0.001,0.00, 0.001,0.00 c 0.003,0.001, 0.007,0.00, 0.01-0.002c 0.03-0.023, 0.046-0.065, 0.09-0.069c 0.032-0.002, 0.055,0.028, 0.087,0.022 c 0.036-0.008, 0.066-0.035, 0.105-0.033c 0.015,0.001, 0.054,0.011, 0.058,0.014c 0.011,0.007, 0.011,0.007, 0.07,0.008 c 0.025,0.00, 0.043,0.021, 0.066,0.024c 0.029,0.004, 0.055-0.013, 0.083-0.01c 0.00,0.00, 0.00,0.00, 0.00,0.00c 0.00,0.00, 0.00,0.00, 0.00,0.00 c 0.001,0.00, 0.085-0.016, 0.083-0.051c0.00-0.0010.00-0.001-0.001-0.002c0.00,0.00-0.001,0.00-0.001-0.001 c-0.03-0.018-0.049-0.048-0.053-0.082c0.00-0.003, 0.001-0.005, 0.004-0.006c 0.003-0.001, 0.006,0.00, 0.008,0.002 c 0.002,0.001, 0.004,0.003, 0.005,0.004c 0.009,0.006, 0.015,0.007, 0.018,0.005c 0.02-0.015, 0.042-0.028, 0.063-0.04 c 0.012-0.006, 0.019-0.019, 0.025-0.045c 0.002-0.008, 0.009-0.048-0.042-0.076c0.00,0.00-0.001,0.00-0.001-0.001 c-0.004-0.002-0.099-0.051-0.126-0.036c-0.018,0.009-0.018,0.009-0.051-0.008c-0.001-0.005, 0.001-0.01, 0.004-0.013 c 0.037-0.029, 0.037-0.029, 0.037-0.037c-0.001-0.018-0.011-0.031-0.022-0.043c-0.009-0.01-0.01-0.026-0.002-0.037 c 0.00,0.00, 0.00,0.00, 0.00-0.001c 0.007-0.01-0.03-0.09-0.031-0.091c-0.003-0.003-0.004-0.004-0.009-0.004 c-0.016,0.001-0.032,0.002-0.048,0.001c-0.002,0.00-0.004,0.00-0.008,0.001c0.00,0.00-0.001,0.00-0.001-0.001 c-0.001-0.002-0.001-0.003-0.001-0.005c 0.005-0.02-0.014-0.032-0.016-0.051c-0.002-0.018, 0.003-0.036, 0.005-0.054 c 0.002-0.0160.00-0.035-0.006-0.052c-0.019-0.065-0.016-0.134, 0.007-0.196c 0.01-0.026, 0.023-0.051, 0.039-0.073 c 0.037-0.052-0.13-0.045-0.162-0.043c-0.002,0.00-0.005-0.001-0.006-0.003c-0.001-0.002-0.001-0.005, 0.00-0.007 c 0.008-0.012, 0.009-0.028, 0.021-0.039c 0.015-0.015, 0.036-0.019, 0.054-0.03c 0.039-0.024, 0.006-0.039-0.008-0.043 c-0.034-0.009-0.069-0.013-0.104-0.013c-0.013,0.00-0.026,0.002-0.04,0.007c-0.009,0.003-0.019,0.014-0.029,0.029 c-0.021,0.029-0.046,0.055-0.074,0.078c-0.002,0.001-0.003,0.002-0.004,0.004c-0.008,0.006-0.018,0.007-0.027,0.003 c-0.005-0.002-0.011-0.002-0.016,0.00c-0.001,0.00-0.002,0.001-0.003,0.001c-0.01,0.005-0.017,0.013-0.022,0.021 c-0.006,0.01-0.005,0.024, 0.003,0.033c 0.008,0.009, 0.022,0.011, 0.033,0.006c 0.00,0.00, 0.00,0.00, 0.00,0.001 c 0.002,0.003, 0.001,0.0070.00,0.011c-0.006,0.014-0.008,0.029-0.014,0.043c-0.001,0.002-0.002,0.003-0.004,0.003 c-0.003,0.00-0.005-0.001-0.006-0.003c-0.007-0.011-0.01-0.011-0.015-0.01c0.00,0.00-0.001,0.00-0.002,0.00 c-0.02,0.004-0.034,0.051-0.033,0.064c 0.00,0.005, 0.002,0.008, 0.004,0.01C 142.984,136.808, 142.986,136.85, 142.963,136.881z M 156.875,144.00C 156.875,151.111, 151.111,156.875, 144.00,156.875C 136.889,156.875, 131.125,151.111, 131.125,144.00C 131.125,136.889, 136.889,131.125, 144.00,131.125 C 151.111,131.125, 156.875,136.889, 156.875,144.00z M 147.81,138.459c-0.001-0.031, 0.051-0.03, 0.056-0.068c 0.002-0.017-0.005-0.035-0.02-0.044 c-0.019-0.013-0.027-0.009-0.049,0.001c-0.013,0.006-0.029,0.013-0.045,0.013c-0.013,0.00-0.025-0.01-0.027-0.023 c-0.002-0.012, 0.004-0.024, 0.014-0.029c 0.004-0.002, 0.005-0.007, 0.003-0.011c0.00,0.000.00,0.000.00,0.00 c-0.001-0.003-0.004-0.005-0.007-0.006c-0.035-0.009-0.066-0.014-0.09-0.017c-0.047-0.006-0.094-0.002-0.14,0.011 c-0.037,0.01-0.039,0.016-0.048,0.041c-0.023,0.064-0.032,0.09-0.04,0.101c-0.031,0.041-0.053,0.087-0.066,0.137 c-0.005,0.019-0.014,0.036-0.037,0.046c0.00,0.000.00,0.00-0.002,0.00c0.00,0.00-0.013,0.116-0.012,0.129c 0.002,0.026, 0.017,0.052, 0.008,0.079 c-0.008,0.024-0.041,0.018-0.049,0.041c0.00,0.000.00,0.0010.00,0.001c-0.014,0.039, 0.003,0.098, 0.013,0.138 c 0.001,0.004-0.001,0.007-0.004,0.009c-0.003,0.002-0.007,0.001-0.01-0.002c0.00,0.000.00,0.000.00,0.00 c-0.017-0.016-0.025-0.011-0.029-0.004c-0.003,0.005-0.003,0.012, 0.001,0.017c0.00,0.00, 0.00,0.00, 0.00,0.00l 0.048,0.067 c 0.048,0.068, 0.113,0.12, 0.189,0.152c 0.00,0.00, 0.00,0.00, 0.00,0.00c 0.042,0.018, 0.081-0.01, 0.123-0.005 c 0.046,0.005, 0.092-0.003, 0.137-0.003c 0.016,0.00, 0.047-0.005, 0.067-0.013c 0.016-0.007, 0.018-0.019, 0.019-0.032 c 0.00-0.001, 0.00-0.002, 0.00-0.003c 0.001-0.012, 0.003-0.013, 0.054-0.054c 0.037-0.029, 0.082-0.045, 0.119-0.073 c 0.063-0.049, 0.143,0.00, 0.211-0.021c 0.016-0.005, 0.229,0.075, 0.242,0.082c 0.00,0.00, 0.001,0.00, 0.001,0.00 c 0.063,0.026, 0.231,0.028, 0.271,0.039c 0.016,0.004, 0.041,0.01, 0.065,0.009c 0.002-0.001, 0.003-0.001, 0.005-0.002 c 0.033-0.016, 0.054-0.068, 0.101-0.045c 0.081,0.041, 0.308,0.005, 0.252-0.183c-0.03-0.102-0.165-0.158-0.205-0.172 c-0.122-0.044-0.202-0.149-0.309-0.215c-0.047-0.029-0.103-0.003-0.152-0.022c-0.11-0.044-0.11-0.044-0.116-0.075 c0.00-0.002, 0.001-0.005, 0.002-0.007c 0.03-0.042, 0.052-0.087, 0.066-0.137c 0.00,0.00, 0.00-0.001, 0.00-0.001 c 0.005-0.017, 0.012-0.026-0.007-0.038c-0.025-0.016-0.073-0.001-0.078-0.042c-0.004-0.033, 0.067-0.07, 0.096-0.086 c 0.024-0.014, 0.035-0.033, 0.039-0.044c 0.007-0.018-0.016-0.043-0.026-0.041c-0.034,0.004-0.126,0.059-0.14,0.06 c0.00,0.000.00,0.00-0.001,0.00c-0.004,0.001-0.008,0.002-0.012,0.004c0.00,0.00,0.00,0.000.00,0.00l-0.212,0.123 c0.00,0.00-0.001,0.00-0.001,0.001c-0.038,0.028-0.058,0.073-0.055,0.119c 0.003,0.047, 0.03,0.088, 0.072,0.11 c 0.017,0.009, 0.043,0.014, 0.034,0.032c0.00,0.000.00,0.000.00,0.00c-0.004,0.009-0.12,0.119-0.132,0.12 c-0.031,0.004-0.042-0.012-0.044-0.016c-0.001-0.002-0.002-0.004-0.003-0.006c-0.018-0.052-0.06-0.095-0.119-0.113 C 147.818,138.483, 147.81,138.472, 147.81,138.459z M 154.305,144.00c0.00-1.067-0.183-2.145-0.37-2.715 c-0.059-0.179-0.194-0.322-0.369-0.39c-0.175-0.068-0.372-0.054-0.535,0.039c-0.413,0.234-0.40,0.263-0.544,0.256 c-0.066-0.003-0.362,0.194-0.468-0.032c-0.02-0.043-0.124-0.234-0.268,0.03c-0.039,0.071-0.252,0.018-0.323-0.022 c-0.208-0.116-0.464-0.387-0.527-0.455c0.00,0.000.00,0.00-0.001,0.00c0.00,0.000.00,0.000.00,0.00 c-0.071-0.082-0.276,0.03-0.125,0.255c 0.505,0.753, 0.594,0.76, 0.737,0.835c 0.00,0.00, 0.00,0.00, 0.00,0.00 c 0.068-0.051, 0.058-0.067, 0.146-0.079c 0.054-0.008, 0.101-0.042, 0.126-0.091c 0.00,0.00, 0.001-0.001, 0.001-0.001 c 0.028-0.057, 0.08-0.098, 0.142-0.11s 0.126,0.004, 0.174,0.045c 0.00,0.00, 0.001,0.001, 0.001,0.001 c 0.087,0.075, 0.20,0.006, 0.293,0.05c 0.236,0.111, 0.146,0.336, 0.099,0.603c0.00,0.001-0.001,0.001-0.001,0.002 c-0.001,0.00-0.001,0.001-0.002,0.001c-0.022-0.004-0.042,0.013-0.042,0.034c-0.001,0.085, 0.053,0.164, 0.037,0.25 c-0.001,0.003-0.003,0.006-0.005,0.007c-0.028,0.014-0.054,0.033-0.075,0.056c-0.067,0.072-0.072,0.162-0.131,0.243 c-0.055,0.077, 0.004,0.248-0.128,0.249c-0.051,0.00-0.219,0.097-0.245,0.208c-0.031,0.132-0.103,0.249-0.206,0.336 c-0.076,0.064-0.179,0.147-0.322,0.258c-0.068,0.053-0.342,0.348-0.578,0.404c-0.033,0.008-0.066-0.005-0.086-0.032 c-0.001-0.002-0.002-0.003-0.003-0.005c-0.155-0.241-0.188-0.53-0.31-0.784c-0.144-0.301-0.534-0.381-0.643-0.714 c-0.092-0.281-0.13-0.40-0.259-0.473c-0.09-0.051-0.165-0.121-0.22-0.208c-0.09-0.141-0.227-0.343-0.339-0.451 c-0.051-0.049-0.085-0.113-0.097-0.183c-0.005-0.031-0.052-0.029-0.053,0.003c-0.006,0.112, 0.014,0.147-0.017,0.171 c-0.026,0.02-0.059,0.009-0.082-0.015c-0.08-0.083-0.211-0.233-0.244-0.317c0.00,0.000.00,0.0010.00,0.001 c-0.009,0.033-0.002,0.068, 0.017,0.095c 0.174,0.247, 1.02,1.469, 1.041,1.585c 0.141,0.769, 0.736,0.953, 1.04,1.237 c 0.057,0.053, 0.095,0.122, 0.109,0.197c 0.014,0.071, 0.048,0.132, 0.101,0.181c 0.056,0.052, 0.112,0.045, 0.43,0.005 c 0.053-0.007, 0.087-0.044, 0.123-0.078c 0.031-0.029, 0.289-0.12, 0.323-0.141c 0.07-0.045-0.017-0.018, 0.143-0.094 c 0.063-0.03, 0.136-0.218, 0.124-0.005c-0.003,0.055, 0.028,0.105, 0.022,0.16c-0.033,0.324-0.06,0.378-0.079,0.441 c-0.025,0.083-0.057,0.163-0.078,0.247c-0.097,0.398-0.251,0.822-0.519,1.135c-0.006,0.007-0.012,0.013-0.018,0.019 c-0.148,0.137-0.418,0.39-0.637,0.82c-0.138,0.271-0.334,0.506-0.478,0.773c-0.049,0.09-0.061,0.113-0.018,0.235 c 0.031,0.087, 0.122,0.488, 0.137,1.003c 0.015,0.561-0.075,0.653-0.255,0.784c-0.288,0.208-0.484,0.35-0.619,0.45 c-0.158,0.117-0.252,0.30-0.255,0.497c-0.001,0.072-0.018,0.163-0.067,0.273c 0.00,0.00, 0.00,0.001, 0.001,0.001 c 0.01,0.02-0.371,0.21-0.502,0.366c0.00,0.000.00,0.000.00,0.00c-0.001,0.0040.00,0.008, 0.001,0.011 c 0.089,0.278-1.036,1.084-1.269,1.082c-0.169-0.001-0.584,0.065-0.781,0.149c-0.133,0.057-0.493-0.065-0.52-0.142 c-0.004-0.012-0.005-0.033, 0.004-0.04c 0.088-0.073-0.209-0.503-0.28-0.551c-0.046-0.032-0.132-0.232-0.167-0.282 c-0.108-0.153, 0.078-0.369-0.043-0.522c-0.006-0.008-0.013-0.017-0.019-0.025l-0.35-0.489c-0.054-0.076-0.209-0.166-0.21-0.26 c0.00,0.00,0.00,0.00,0.00-0.001c-0.001-0.102, 0.181-0.594, 0.196-0.615c 0.017-0.024, 0.032-0.05, 0.046-0.076 c 0.007-0.015, 0.021-0.025, 0.048-0.039c 0.089-0.045, 0.216-0.158, 0.071-0.396c-0.009-0.014-0.009,0.048-0.055-0.281 c-0.03-0.217-0.315-0.708-0.363-0.759c0.00,0.00-0.33-0.158-0.482-0.469c 0.008-0.018, 0.019-0.033, 0.035-0.045 c 0.14-0.112, 0.115-0.252, 0.156-0.554c 0.002-0.015, 0.005-0.03, 0.008-0.045c 0.00-0.001, 0.00-0.002, 0.00-0.002l 0.004-0.02 c 0.00-0.001, 0.00-0.001, 0.001-0.002c 0.00,0.00, 0.00,0.00, 0.00-0.001c 0.012-0.059, 0.028-0.139-0.053-0.262 c-0.014-0.021-0.039-0.033-0.065-0.031c-0.001,0.00-0.003,0.00-0.004,0.00c-0.045,0.004-0.084-0.029-0.088-0.073 c0.00-0.0010.00-0.0010.00-0.002c0.00-0.0010.00-0.001-0.001-0.001c-0.065-0.027-0.138-0.03-0.205-0.011 c-0.149,0.044-0.465,0.108-0.501-0.097c-0.048-0.275-0.236-0.335-0.328-0.329c-0.393,0.028-0.726,0.365-1.132,0.338 c-0.018-0.001-0.041-0.01-0.058-0.016c-0.351-0.132-0.729-0.135-1.085-0.203c-0.121-0.023-0.295-0.082-0.383-0.168l-0.50-0.491 c-0.033-0.032-0.061-0.067-0.086-0.105c-0.158-0.243-0.217-0.78-0.26-0.875c-0.006-0.014-0.013-0.028-0.02-0.042l-0.043-0.081 c-0.001-0.001-0.001-0.002-0.002-0.003c0.00,0.000.00,0.000.00,0.00c-0.116-0.152-0.153-0.352-0.097-0.535l 0.197-0.656 c 0.003-0.01, 0.006-0.02, 0.008-0.03c 0.005-0.021, 0.009-0.042, 0.012-0.063c 0.047-0.326-0.015-0.445-0.046-0.504 c-0.057-0.109-0.057-0.109, 0.225-0.502c 0.513-0.715, 0.601-0.751, 0.704-0.792c0.00,0.00,0.00,0.00,0.00,0.00c 0.00,0.00, 0.001,0.00, 0.001,0.00 c 0.223,0.025, 0.646-0.247, 0.638-0.395c-0.002-0.047-0.008-0.146, 0.076-0.277c 0.032-0.051, 0.073-0.096, 0.12-0.134l 0.461-0.375 c 0.085-0.069, 0.205-0.075, 0.297-0.015c0.00,0.00,0.00,0.00, 0.00,0.00c 0.062-0.022, 0.131-0.019, 0.191,0.007c 0.079,0.035, 0.129,0.011, 0.154-0.001 c 0.279-0.134, 0.584-0.175, 2.00-0.265c 0.048-0.003, 0.094,0.018, 0.124,0.056c 0.00,0.00, 0.001,0.001, 0.001,0.001 c 0.083,0.108, 0.021,0.094, 0.116,0.253c 0.036,0.061, 0.001,0.106-0.113,0.221c-0.043,0.043-0.036,0.112-0.022,0.115 c 0.039,0.002, 0.131,0.026, 0.207,0.066c 0.10,0.052, 0.259,0.104, 0.391,0.142c 0.12,0.035, 0.226,0.104, 0.306,0.20 c 0.052,0.063, 0.753,0.481, 0.725-0.088c-0.002-0.04, 0.037-0.109, 0.102-0.162c 0.228-0.185, 0.395,0.054, 0.457,0.069 c 0.101,0.023, 0.113,0.023, 0.181,0.021c 0.001,0.00, 0.001,0.00, 0.002,0.00c 0.00,0.00, 0.001,0.00, 0.001,0.00c 0.063,0.001, 0.091,0.073, 0.291,0.059 c 0.346-0.023, 0.695,0.031, 1.04-0.03c 0.039-0.007, 0.092-0.019, 0.123-0.044c 0.382-0.316-0.005-0.702, 0.054-1.05 c 0.00-0.0010.00-0.002-0.001-0.003c-0.001-0.001-0.002-0.001-0.003-0.001c0.00,0.000.00,0.000.00,0.00 c-0.118,0.009-0.23,0.056-0.32,0.133c-0.032,0.028-0.072,0.048-0.126,0.053c-0.095,0.01-0.17-0.052-0.253-0.084 c-0.042-0.016-0.089,0.005-0.105,0.047c0.00,0.000.00,0.0010.00,0.001c-0.032,0.078-0.397,0.021-0.505-0.162 c-0.033-0.055-0.083-0.098-0.143-0.123c0.00,0.000.00,0.000.00,0.00c 0.001-0.001, 0.003-0.002, 0.004-0.004 c 0.107-0.101-0.057-0.179-0.075-0.258c-0.009-0.039, 0.012-0.079, 0.049-0.094c 0.001,0.00, 0.001-0.001, 0.002-0.001 c 0.089-0.034, 0.13-0.082, 0.112-0.069c-0.038,0.028-0.083,0.044-0.13,0.047c0.00,0.000.00,0.000.00,0.00 c-0.025,0.001-0.05-0.004-0.071-0.016c-0.053-0.029-0.113-0.045-0.173-0.045c-0.073,0.00-0.146,0.021-0.161,0.093 c-0.003,0.013-0.01,0.025-0.022,0.033c0.00,0.000.00,0.000.00,0.00c-0.009,0.007-0.021,0.008-0.032,0.003 c-0.018-0.009-0.036-0.006-0.051,0.003c-0.015,0.01-0.023,0.027-0.021,0.049c 0.006,0.063, 0.174,0.127, 0.038,0.19l-0.001,0.001 c0.00,0.00-0.059,0.034-0.064,0.037c-0.056,0.028-0.13-0.034-0.179-0.037c-0.016-0.001-0.031,0.006-0.048,0.005c0.00,0.00-0.001,0.00-0.001,0.00 c-0.01,0.00-0.015-0.004-0.018-0.006c0.00,0.000.00,0.00-0.001-0.001c-0.005-0.004-0.058-0.051-0.066-0.066 c-0.021-0.035-0.023-0.039-0.034-0.05c-0.009-0.009-0.024-0.021-0.036-0.029c-0.027-0.019-0.044-0.049-0.046-0.081 c0.00,0.00,0.00,0.00,0.00,0.00c-0.002-0.025-0.005-0.061-0.009-0.10c-0.01-0.088-0.055-0.168-0.123-0.223 c-0.018-0.014-0.04-0.022-0.063-0.021c-0.014,0.001-0.029-0.003-0.041-0.012c-0.058-0.038-0.096-0.047-0.096-0.047 c0.00,0.000.00,0.00-0.001,0.00l-0.453-0.33c-0.026-0.019-0.057-0.028-0.089-0.026c-0.026,0.002-0.041-0.023-0.056-0.045 c-0.029-0.044-0.084-0.064-0.135-0.049c-0.002,0.001-0.004,0.001-0.006,0.002c-0.032,0.012-0.047,0.051-0.03,0.082 c 0.01,0.017, 0.02,0.034, 0.031,0.05l 0.263,0.383c 0.044,0.063, 0.116,0.101, 0.193,0.10c 0.031,0.00, 0.058,0.023, 0.061,0.055 c 0.002,0.015, 0.01,0.029, 0.024,0.037c 0.125,0.072, 0.288,0.083, 0.375,0.219c 0.001,0.001, 0.002,0.003, 0.002,0.004 c 0.00,0.00, 0.00,0.001, 0.00,0.001c0.00,0.00,0.00,0.00,0.00,0.001c 0.00,0.01-0.006,0.043-0.012,0.053 c-0.009,0.017-0.043,0.025-0.052,0.016c-0.007-0.006-0.006-0.021-0.006-0.037c 0.00-0.005-0.001-0.011-0.004-0.018 c-0.013-0.036-0.04-0.044-0.076-0.059c-0.048-0.021-0.104,0.001-0.126,0.049c0.00,0.0010.00,0.001-0.001,0.001 c-0.001,0.001-0.001,0.003-0.002,0.004c-0.021,0.054, 0.014,0.071, 0.033,0.08c 0.029,0.014, 0.074,0.035, 0.062,0.099 c-0.005,0.027-0.035,0.017-0.05,0.029c0.00,0.00, 0.01-0.009-0.043,0.096c-0.018,0.036-0.001,0.044-0.048,0.068 c-0.039,0.019-0.058-0.006-0.062-0.014c-0.017-0.029, 0.006-0.055, 0.006-0.082c-0.001-0.013-0.001-0.024, 0.035-0.039 c 0.052-0.022-0.003-0.107-0.034-0.155c0.00-0.001-0.001-0.001-0.001-0.002c-0.064-0.11-0.022-0.021-0.095-0.089 c-0.045-0.042-0.164-0.113-0.187-0.142c-0.155-0.193-0.41-0.284-0.544-0.498c-0.027-0.043-0.066-0.078-0.113-0.099 c-0.03-0.014-0.067-0.024-0.107-0.022c-0.039,0.002-0.222,0.107-0.369,0.191c-0.139,0.079-0.239-0.108-0.374-0.054 c-0.146,0.058-0.06,0.249-0.183,0.32c-0.141,0.081-0.309,0.107-0.433,0.221c-0.005,0.005-0.009,0.011-0.012,0.019 c-0.038,0.087-0.104,0.126-0.109,0.147c-0.004,0.018-0.005,0.026, 0.002,0.051c 0.017,0.0530.00,0.11-0.042,0.146 c0.00,0.000.00,0.000.00,0.00c-0.027,0.024-0.004,0.10-0.029,0.113c-0.046,0.024-0.096-0.002-0.143,0.011 c-0.07,0.02-0.074,0.111-0.143,0.132c-0.09,0.027-0.177-0.03-0.267-0.01c-0.203,0.044-0.203,0.044-0.211,0.063 c-0.007,0.017-0.023,0.044-0.052,0.044c-0.105-0.002-0.066-0.134-0.116-0.191c-0.054-0.062-0.069-0.055-0.093-0.045 c-0.033,0.014-0.088,0.038-0.105,0.028c-0.023-0.014-0.04-0.035-0.067-0.042c-0.018-0.005-0.033-0.018-0.042-0.034 c-0.015-0.03, 0.023-0.15, 0.031-0.184c 0.005-0.021, 0.004-0.043-0.004-0.063c-0.009-0.024-0.031-0.039-0.057-0.04 c-0.005,0.00-0.009-0.002-0.013-0.006c-0.029-0.032, 0.092-0.155, 0.125-0.217c 0.005-0.01, 0.011-0.024, 0.015-0.034 c 0.103-0.265, 0.103-0.355, 0.082-0.443c-0.009-0.039, 0.019-0.077, 0.059-0.079c 0.022-0.001, 0.045-0.002, 0.064-0.003c0.00,0.00, 0.00,0.00,0.00,0.00 c 0.043-0.05, 0.115-0.064, 0.173-0.034c 0.08,0.041, 0.239,0.098, 0.511,0.111c 0.066,0.003, 0.132,0.017, 0.194,0.041 c 0.058,0.022, 0.107-0.028, 0.128-0.056c 0.051-0.065, 0.043-0.145, 0.053-0.221c 0.005-0.04, 0.028-0.076, 0.061-0.098c0.00,0.00,0.00,0.00, 0.00,0.00 c 0.009-0.006, 0.013-0.017, 0.012-0.027c-0.003-0.014-0.014-0.128-0.028-0.13c-0.001,0.00-0.001,0.00-0.002,0.00 c-0.113-0.012-0.077-0.157-0.151-0.204c-0.063-0.04-0.06-0.067-0.216-0.084c-0.022-0.002, 0.031-0.111, 0.121-0.139 c 0.005-0.002, 0.011-0.001, 0.016,0.001c 0.056,0.028, 0.118,0.041, 0.18,0.038c 0.024-0.001, 0.045-0.013, 0.059-0.032 c 0.014-0.019, 0.018-0.043, 0.012-0.066c0.00,0.000.00-0.0010.00-0.001c-0.007-0.024, 0.014-0.06, 0.041-0.043 c 0.052,0.034, 0.078,0.056, 0.168,0.043c 0.022-0.003, 0.04-0.02, 0.045-0.042c 0.002-0.01, 0.009-0.019, 0.018-0.025 c 0.101-0.057, 0.144-0.083, 0.164-0.106c 0.048-0.056, 0.104-0.102, 0.169-0.137c 0.092-0.051, 0.136-0.084, 0.224-0.164 c 0.038-0.034, 0.083-0.058, 0.132-0.069c 0.015-0.004, 0.025-0.018, 0.023-0.033c0.00-0.003, 0.00-0.006, 0.002-0.008 c 0.017-0.022, 0.042-0.036, 0.069-0.038c 0.064-0.006, 0.102-0.006, 0.129-0.006c 0.00,0.00, 0.001-0.001, 0.001-0.001 c 0.018-0.021, 0.045-0.033, 0.073-0.032c 0.067,0.002, 0.155,0.033, 0.141-0.151c-0.021-0.165, 0.034-0.331, 0.149-0.451 c 0.00,0.00, 0.00,0.00, 0.001-0.001c 0.052,0.022, 0.04,0.075, 0.049,0.131c 0.005,0.034-0.005,0.068-0.028,0.093 c0.00,0.00-0.001,0.001-0.001,0.001c-0.22,0.244, 0.062,0.236, 0.069,0.298c 0.00,0.00, 0.00,0.001, 0.00,0.001 c 0.001,0.011, 0.007,0.02, 0.016,0.026c 0.009,0.006, 0.02,0.007, 0.03,0.003c 0.01-0.003, 0.227-0.094, 0.235-0.088 c 0.041,0.026, 0.01,0.039, 0.043,0.069c 0.00,0.00, 0.001,0.001, 0.001,0.001c 0.049,0.045, 0.121,0.054, 0.18,0.023 c 0.125-0.066, 0.268-0.088, 0.407-0.063c 0.068,0.013, 0.237-0.151, 0.206-0.242c0.00,0.00,0.00,0.000.00,0.00 c-0.019-0.056-0.022-0.116-0.009-0.173c 0.008-0.036-0.007-0.056, 0.034-0.083c 0.021-0.014, 0.047-0.016, 0.069-0.006 c 0.029,0.013, 0.063,0.014, 0.093,0.001c 0.04-0.017, 0.067-0.055, 0.07-0.098c0.00,0.00, 0.00-0.001, 0.00-0.001 c 0.001-0.009-0.004-0.017-0.011-0.022c-0.037-0.023-0.058-0.067-0.053-0.111c 0.006-0.05, 0.044-0.089, 0.093-0.098 c 0.144-0.026, 0.17,0.054, 0.306-0.067c 0.008-0.007, 0.012-0.019, 0.009-0.029c-0.003-0.011-0.011-0.019-0.022-0.021 c0.00,0.000.00,0.000.00,0.00c-0.113-0.025-0.231-0.017-0.34,0.021l-0.132,0.046c0.00,0.000.00,0.00-0.001,0.00 c0.00,0.000.00,0.00-0.001,0.00c0.00,0.000.00,0.000.00,0.00c-0.022,0.014-0.049,0.021-0.075,0.019 c-0.092-0.007-0.15-0.094-0.186-0.191c-0.042-0.112-0.028-0.237, 0.038-0.337c 0.032-0.049, 0.049-0.113, 0.085-0.159 c 0.015-0.019, 0.021-0.044, 0.015-0.067c-0.015-0.066-0.13-0.096-0.194-0.082c-0.128,0.029-0.042,0.182-0.093,0.262 c-0.029,0.046-0.153,0.079-0.163,0.142c-0.027,0.161-0.041,0.246-0.03,0.302c 0.023,0.12, 0.011,0.243-0.035,0.356 c0.00,0.001-0.001,0.001-0.001,0.002c-0.037,0.096, 0.038,0.197-0.012,0.292c-0.059,0.111-0.194,0.023-0.226,0.157 c-0.013,0.057-0.124-0.027-0.162-0.065c-0.004-0.111-0.046-0.161-0.077-0.248c-0.025-0.07-0.082-0.124-0.153-0.145 c-0.189-0.056-0.228,0.129-0.395,0.077c-0.135-0.042-0.229-0.163-0.237-0.304s 0.075-0.271, 0.205-0.326c 0.00,0.00, 0.00,0.00, 0.00,0.00 c 0.443-0.186, 0.525-0.343, 0.555-0.448c 0.007-0.024, 0.025-0.042, 0.049-0.049c 0.00,0.00, 0.00,0.00, 0.001,0.00 c 0.00,0.00, 0.00,0.00, 0.00,0.00c 0.005-0.024, 0.017-0.046, 0.035-0.062c 0.045-0.042, 0.076-0.099, 0.117-0.145 c 0.045-0.051, 0.091-0.13, 0.091-0.13s0.00,0.00, 0.00,0.00c0.00,0.00, 0.23-0.225, 0.472-0.301c 0.112-0.035, 0.194-0.034, 0.221-0.028 c 0.028,0.006, 0.069,0.014, 0.135,0.026c0.00,0.00,0.00,0.00,0.00,0.00c-0.004,0.022, 0.002,0.044, 0.015,0.062c 0.031,0.041, 0.131,0.031, 0.253,0.087 c 0.14,0.065, 0.309,0.046, 0.461,0.077c 0.062,0.013, 0.103,0.071, 0.096,0.133c-0.007,0.063-0.061,0.109-0.124,0.108 c-0.044-0.001-0.083,0.026-0.098,0.067c-0.015,0.041-0.002,0.087, 0.032,0.114c 0.054,0.043, 0.116,0.077, 0.181,0.10 c 0.076,0.027, 0.20,0.047, 0.146-0.013c0.00,0.000.00,0.00,0.00,0.00c-0.019-0.021-0.047-0.034-0.075-0.034c-0.105,0.00-0.072-0.097-0.015-0.071 c 0.063,0.028, 0.237,0.047, 0.116-0.07c-0.015-0.014-0.017-0.038-0.004-0.054c 0.02-0.025, 0.036-0.054, 0.048-0.084 c 0.025-0.064, 0.02-0.043, 0.102-0.019c 0.014,0.004, 0.029,0.002, 0.04-0.006c 0.023-0.016, 0.054-0.029, 0.032-0.046 c-0.019-0.015, 0.02-0.048, 0.034-0.043c 0.024,0.008, 0.05,0.001, 0.066-0.019c 0.012-0.015, 0.016-0.036, 0.011-0.054 c-0.014-0.047, 0.025-0.175, 0.092-0.20c 0.016-0.006, 0.034-0.007, 0.051-0.002c 0.00,0.00, 0.00,0.00, 0.00,0.00 c 0.014-0.013, 0.03-0.023, 0.048-0.03c 0.03-0.011, 0.082-0.033, 0.118-0.065c 0.037-0.032, 0.087-0.044, 0.135-0.033 c 0.00,0.00, 0.001,0.00, 0.001,0.00c 0.015-0.016, 0.014-0.042-0.001-0.057c-0.028-0.028-0.125-0.078-0.111-0.115 c 0.005-0.012, 0.064-0.027, 0.073-0.078c 0.006-0.035-0.014-0.069-0.047-0.082c-0.998-0.392-2.072-0.632-3.194-0.693 c-0.207,0.128-0.413,0.27-0.599,0.424c-0.679,0.563-1.752,0.796-1.728,0.733c-0.102,0.001-0.13-0.026-0.13-0.026 c-0.033,0.009-0.063,0.028-0.091,0.008c0.00,0.00-0.001,0.00-0.001,0.00c 0.001-0.013-0.005-0.026-0.016-0.034 c-0.036-0.024-0.106,0.033-0.276,0.119c-0.001,0.00-0.001,0.001-0.002,0.001c-0.003,0.002-0.006,0.003-0.009,0.005 c-0.072,0.038-0.152,0.047-0.206,0.048c-0.039,0.001-0.077,0.008-0.114,0.023c-0.006,0.002-0.012,0.00-0.015-0.005 c-0.012-0.02, 0.05-0.043, 0.072-0.051c 0.02-0.008, 0.011-0.031-0.074,0.018c-0.018,0.01-0.04,0.013-0.061,0.008 c-0.085-0.022-0.187,0.046-0.255,0.103c-0.011,0.009-0.024,0.014-0.04,0.007c-0.024-0.01-0.044-0.006-0.037,0.03 c 0.008,0.039-0.217,0.139-0.221,0.122c-0.004-0.012-0.017-0.019-0.03-0.017c-0.029,0.006-0.065,0.03-0.085,0.067 c-0.036,0.068-0.134,0.079-0.181,0.119c-0.049,0.041-0.122,0.082-0.122,0.082c-0.027,0.031-0.045,0.049-0.074,0.05 c-0.028,0.001-0.044-0.048-0.032-0.067c 0.007-0.011, 0.061-0.064, 0.048-0.067c-0.005-0.001-0.01-0.004-0.012-0.009 c-0.009-0.018, 0.033-0.036, 0.022-0.058c-0.007-0.014-0.088-0.019-0.095-0.026c-0.005-0.005-0.006-0.013-0.003-0.019 c 0.051-0.103, 0.057-0.109, 0.126-0.177c0.00,0.00-0.001-0.001-0.001-0.001c-0.007-0.011-0.007-0.025, 0.00-0.035 c 0.038-0.056, 0.166-0.223, 0.314-0.243c 0.039-0.006, 0.014-0.014, 0.014-0.014c-0.037-0.015-0.084-0.025-0.057-0.054 c 0.053-0.057, 0.133-0.134, 0.223-0.178c 0.043-0.021, 0.084-0.048, 0.121-0.078c 0.037-0.03, 0.161-0.084, 0.295-0.09 c 0.00,0.00, 0.00,0.00, 0.001,0.00c 0.112-0.007, 0.407-0.208, 0.41-0.211c0.00,0.000.00,0.000.00,0.00 c-0.009-0.009, 0.005-0.039, 0.002-0.054c-0.001-0.006, 0.002-0.013, 0.008-0.016c 0.029-0.015, 0.063-0.021, 0.093-0.034 c 0.004-0.002, 0.007-0.005, 0.008-0.01c 0.002-0.011-0.011-0.019-0.022-0.015c-0.061,0.023-0.087,0.032-0.101,0.036 c-0.008,0.002-0.016-0.001-0.02-0.008c-0.004-0.007-0.002-0.016, 0.004-0.021c 0.07-0.061, 0.165-0.062, 0.248-0.09 c 0.036-0.013, 0.036-0.09-0.039-0.077c-0.373,0.061-0.712,0.172-1.066,0.289c 0.00,0.00, 0.00,0.001, 0.00,0.001 c 0.003,0.011-0.071,0.046-0.08,0.055c-0.005,0.005-0.006,0.011-0.005,0.018c 0.00,0.00, 0.00,0.001, 0.00,0.001 c 0.004,0.00, 0.006,0.006, 0.003,0.009c-0.014,0.011-0.041,0.00-0.049,0.015c-0.009,0.018, 0.024,0.011, 0.031,0.024 c 0.005,0.009, 0.003,0.021-0.004,0.028c0.00,0.000.00,0.000.00,0.00c-0.011,0.011-0.066,0.036-0.075,0.025 c-0.008-0.009-0.009-0.018-0.02-0.011c-0.04,0.025-0.065,0.041-0.087,0.045c-0.08,0.014-0.181,0.057-0.181,0.057 c 0.012-0.01, 0.05-0.046, 0.056-0.059c 0.022-0.044, 0.045-0.058, 0.072-0.065c 0.019-0.005, 0.022-0.032-0.064,0.001 c-0.077,0.029-0.148,0.074-0.208,0.13c-0.05,0.047-0.11,0.099-0.153,0.121c 0.008-0.014, 0.002-0.017-0.004-0.014 c-0.005,0.003-0.046,0.039-0.062,0.035c-0.051-0.014, 0.016-0.043, 0.016-0.094c 0.005-0.009, 0.012-0.015, 0.019-0.021 c0.00,0.000.00,0.000.00,0.00c-0.058,0.025-0.111,0.062-0.153,0.109c-0.035,0.038-0.063,0.082-0.10,0.046 c-0.018-0.017-0.044-0.022-0.067-0.012c-0.142,0.066-0.283,0.136-0.421,0.209c-0.015,0.008-0.029,0.017-0.041,0.028 c-0.01,0.008-0.016,0.019-0.018,0.032c-0.002,0.015-0.027,0.047-0.037,0.063c-0.004,0.007-0.004,0.016, 0.00,0.023 c 0.013,0.02, 0.055,0.005, 0.077-0.002c 0.032-0.01, 0.066,0.003, 0.084,0.031c 0.017,0.028, 0.012,0.064-0.01,0.087 c-0.019,0.019-0.037,0.041-0.053,0.062c-0.034,0.045-0.066,0.093-0.115,0.124c-0.03,0.019-0.058,0.04-0.084,0.064 c-0.267,0.239-0.276,0.675-0.472,0.763c0.00,0.00-0.001,0.00-0.001,0.001c-0.151,0.067-0.203,0.009-0.384,0.076 c-0.035,0.013-0.068,0.004-0.101-0.005c-0.028-0.007-0.051-0.028-0.062-0.055c0.00,0.00,0.00,0.00,0.00,0.00c-0.04-0.101-0.153-0.15-0.254-0.11 c-0.017,0.007-0.035,0.01-0.054,0.004c0.00,0.00-0.001,0.00-0.001-0.001c0.00,0.000.00,0.00-0.001,0.00 c-0.033,0.009-0.244,0.077-0.229,0.107c 0.00,0.00, 0.372-0.114, 0.289,0.087c0.00,0.000.00,0.00-0.001,0.00 c-0.014,0.004-0.025,0.014-0.032,0.027c-0.009,0.019-0.02,0.03-0.051,0.037c-0.035,0.008-0.073-0.002-0.10-0.027 c0.00,0.00-0.001,0.00-0.001,0.00c-0.019,0.003-0.027,0.05-0.02,0.063c 0.01,0.017, 0.059,0.017, 0.008,0.048 c-0.03,0.018-0.07,0.028-0.084,0.061c-0.016,0.039-0.035,0.075-0.059,0.11c-0.024,0.036, 0.029,0.048-0.013,0.081 c-0.049,0.04-0.218,0.001-0.277,0.013c0.00,0.00-0.102,0.01-0.163,0.031s-0.171,0.049-0.232,0.122 c-0.105,0.127-0.096,0.153-0.218,0.119c-0.007-0.002-0.014,0.00-0.019,0.005c-1.247,1.323-2.147,2.975-2.557,4.813 c0.00,0.002-0.001,0.003-0.001,0.005c-0.027,0.117-0.058,0.26-0.103,0.529c-0.001,0.006-0.001,0.013, 0.00,0.019 c 0.006,0.03, 0.012,0.038, 0.05,0.038c 0.091,0.00, 0.168,0.064, 0.185,0.153c 0.004,0.026, 0.02,0.044, 0.04,0.052 c 0.02,0.008, 0.043,0.007, 0.065-0.009c 0.014-0.01, 0.091,0.058, 0.096,0.14c 0.003,0.044, 0.02,0.095, 0.028,0.139 c 0.011,0.053-0.003,0.108-0.038,0.149c-0.005,0.006-0.007,0.015-0.005,0.023c 0.043,0.169, 0.24,0.891, 0.28,0.928 c 0.023-0.004, 0.043,0.003, 0.056,0.018c 0.397,0.447, 0.844,1.177, 0.831,1.405c-0.089,0.168-0.08,0.159-0.006,0.25 c 0.138,0.17, 0.136,0.178, 0.083,0.352l 0.00,0.00c 0.03-0.05, 0.085-0.08, 0.143-0.08c 0.058,0.00, 0.112,0.03, 0.143,0.08 c 0.023,0.037, 0.046,0.073, 0.077,0.101c 0.082,0.073, 0.124,0.181, 0.114,0.29c0.00,0.00, 0.126,0.001, 0.30,0.132 c 0.221,0.166, 0.999,1.058, 1.03,1.302c 0.014,0.109-0.031,0.216-0.087,0.31c-0.064,0.109-0.272,0.335-0.307,0.456 c-0.017,0.06-0.114,0.088-0.114,0.124c 0.001,0.049, 0.016,0.152, 0.087,0.356c 0.021,0.06, 0.07,0.505, 0.046,0.685 c-0.014,0.105-0.014,0.124, 0.012,0.24c 0.008,0.036-0.082,0.139-0.145,0.095c-0.078-0.056-0.144-0.048-0.152-0.031 c0.00,0.000.00,0.000.00,0.00c-0.108,0.177-0.497,0.209-0.41,0.397c 0.026,0.056, 0.051,0.111, 0.074,0.168 c 0.026,0.067, 0.041,0.138, 0.043,0.21c 0.001,0.031, 0.108,0.258, 0.194,0.347c 1.876,1.962, 4.519,3.185, 7.449,3.185 C 149.691,154.305, 154.305,149.691, 154.305,144.00z M 142.477,137.432c 0.043-0.019, 0.083-0.044, 0.128-0.056 c 0.00,0.00, 0.001,0.00, 0.001,0.00c 0.063-0.017, 0.117,0.00, 0.136-0.024c 0.018-0.023, 0.05-0.066, 0.065-0.10 c 0.007-0.017-0.011-0.041, 0.012-0.053c 0.025-0.014, 0.003-0.04, 0.01-0.06c 0.017-0.051, 0.029-0.053, 0.049-0.056 c 0.02-0.003, 0.038-0.005, 0.045-0.016c 0.032-0.048-0.082-0.185-0.154-0.167c-0.074,0.019-0.134,0.128-0.159,0.126 c-0.032-0.002-0.046-0.003-0.067,0.014c-0.016,0.013-0.018,0.033-0.03,0.048c-0.014,0.018-0.033,0.033-0.047,0.051 c-0.012,0.015-0.017,0.028, 0.00,0.043c 0.013,0.011, 0.019,0.017-0.017,0.065c-0.031,0.039-0.081,0.06-0.102,0.109 c-0.008,0.018-0.006,0.052-0.004,0.066C 142.351,137.473, 142.43,137.453, 142.477,137.432zM 218.218,145.238l0.00,10.388 L 210.795,155.627 l0.00-5.646 l-5.591,0.00 l0.00,5.646 L 197.782,155.627 L 197.782,145.238 L 195.125,145.238 L 208.00,132.373l 12.875,12.865L 218.218,145.238 z M 216.63,133.529l-2.995,0.00 l0.00,2.394 l 2.995,3.001L 216.63,133.529 zM 284.875,145.734l0.00-3.468 l-1.874-0.666c-0.714-0.254-1.289-0.80-1.58-1.50 c0.00,0.000.00-0.0010.00-0.001c-0.291-0.702-0.271-1.495, 0.056-2.181l 0.853-1.795l-2.452-2.452l-1.795,0.853 c-0.686,0.326-1.48,0.347-2.182,0.056c0.00,0.00-0.001,0.00-0.001,0.00c-0.701-0.291-1.246-0.865-1.50-1.58L 273.734,131.125 l-3.468,0.00 l-0.666,1.874c-0.254,0.714-0.80,1.289-1.50,1.58c0.00,0.00-0.001,0.00-0.001,0.00 c-0.702,0.291-1.495,0.271-2.182-0.056l-1.795-0.853l-2.452,2.452l 0.853,1.795c 0.326,0.686, 0.347,1.48, 0.056,2.182 c0.00,0.000.00,0.0010.00,0.001c-0.291,0.701-0.865,1.246-1.579,1.50L 259.125,142.266l0.00,3.468 l 1.874,0.666 c 0.714,0.254, 1.289,0.80, 1.58,1.50c 0.00,0.00, 0.00,0.001, 0.00,0.001c 0.291,0.702, 0.271,1.495-0.056,2.182l-0.853,1.795 l 2.452,2.452l 1.795-0.853c 0.686-0.326, 1.48-0.347, 2.182-0.056c 0.00,0.00, 0.001,0.00, 0.001,0.00 c 0.701,0.291, 1.246,0.865, 1.50,1.579L 270.266,156.875l 3.468,0.00 l 0.662-1.862c 0.256-0.721, 0.807-1.302, 1.514-1.595 c 0.00,0.00, 0.001,0.00, 0.001,0.00c 0.695-0.289, 1.481-0.269, 2.161,0.054l 1.806,0.859l 2.452-2.452l-0.854-1.796 c-0.326-0.686-0.346-1.479-0.055-2.18c 0.00,0.00, 0.00-0.001, 0.00-0.001c 0.291-0.702, 0.866-1.247, 1.581-1.501 L 284.875,145.734z M 272.00,148.722c-2.608,0.00-4.722-2.114-4.722-4.722s 2.114-4.722, 4.722-4.722 c 2.608,0.00, 4.722,2.114, 4.722,4.722S 274.608,148.722, 272.00,148.722zM 323.125,132.594l0.00,22.813 l 25.75,0.00 l0.00-22.813 L 323.125,132.594 z M 345.75,152.281L 326.25,152.281 l0.00-13.625 l 19.50,0.00 L 345.75,152.281 z M 335.091,145.525l-4.75,4.775 l-1.716-1.708l 3.05-3.067l-3.054-3.071l 1.716-1.708L 335.091,145.525z M 343.50,147.846L 336.406,147.846 l0.00,2.375 L 343.50,150.221 L 343.50,147.846 zM 395.856,145.225l 2.363,0.00 l-5.547,5.556L 387.125,145.225l 2.363,0.00 c0.00,0.00-0.003-11.306, 13.313-12.083 C 394.377,136.753, 395.856,145.225, 395.856,145.225z M 397.199,154.858c 13.316-0.776, 13.313-12.083, 13.313-12.083L 412.875,142.775 l-5.547-5.556 l-5.547,5.556l 2.363,0.00 C 404.144,142.775, 405.623,151.247, 397.199,154.858zM 459.735,154.079L 462.527,156.875L 451.125,156.875 L 451.125,145.473 l 2.796,2.792l 6.10-6.10l 5.814,5.814L 459.735,154.079z M 465.473,131.125l 2.792,2.796l-6.034,6.034l 5.814,5.814l 6.034-6.034L 476.875,142.527L 476.875,131.125 L 465.473,131.125 zM 525.029,150.749c-5.41,0.00-9.812-4.402-9.812-9.812C 515.217,135.527, 519.619,131.125, 525.029,131.125 c 5.41,0.00, 9.812,4.402, 9.812,9.812C 534.841,146.347, 530.439,150.749, 525.029,150.749z M 525.029,134.475 c-3.563,0.00-6.462,2.899-6.462,6.462s 2.899,6.462, 6.462,6.462c 3.563,0.00, 6.462-2.899, 6.462-6.462 S 528.592,134.475, 525.029,134.475z M 534.968,147.827c-0.877,1.261-1.987,2.348-3.268,3.198L 537.55,156.875l 3.233-3.233 L 534.968,147.827zM 602.46,136.743L 604.875,134.335l0.00,9.759 L 595.108,144.095 l 2.636-2.636 c-6.43-8.132-23.325,0.104-12.12,14.377C 568.871,142.909, 588.15,123.153, 602.46,136.743zM 662.376,155.835C 673.581,141.563, 656.686,133.326, 650.256,141.459l 2.636,2.636L 643.125,144.095 L 643.125,134.335 l 2.415,2.408 C 659.85,123.153, 679.129,142.909, 662.376,155.835zM 720.00,131.125C 712.889,131.125, 707.125,136.889, 707.125,144.00s 5.764,12.875, 12.875,12.875s 12.875-5.764, 12.875-12.875S 727.111,131.125, 720.00,131.125z M 724.883,151.659l-4.82-4.82l-4.82,4.82l-2.589-2.591l 4.819-4.82l-4.82-4.819l 2.591-2.589l 4.819,4.818 l 4.818-4.819l 2.591,2.59l-4.819,4.819l 4.82,4.819L 724.883,151.659zM 784.00,131.125C 776.889,131.125, 771.125,136.889, 771.125,144.00s 5.764,12.875, 12.875,12.875s 12.875-5.764, 12.875-12.875S 791.111,131.125, 784.00,131.125z M 781.81,150.935l-6.083-6.085l 2.59-2.591l 3.493,3.494l 8.064-8.064l 2.591,2.589L 781.81,150.935zM 16.00,195.125C 8.889,195.125, 3.125,200.889, 3.125,208.00s 5.764,12.875, 12.875,12.875s 12.875-5.764, 12.875-12.875S 23.111,195.125, 16.00,195.125z M 23.913,210.34l-5.573,0.00 L 18.339,215.913 l-4.304,0.00 l0.00-5.573 l-5.573,0.00 l0.00-4.304 l 5.573,0.00 L 14.036,200.463 l 4.304,0.00 l0.00,5.573 l 5.573,0.00 L 23.913,210.34 zM 82.41,214.067l 0.00,0.00L 92.875,206.833L 82.41,199.598l0.00,3.082 c0.00,0.00-12.729,2.59-15.285,13.721 c 5.442-5.827, 15.285-5.417, 15.285-5.417L 82.41,214.067 L 82.41,214.067zM 138.11,217.391c0.00,1.924-1.56,3.484-3.484,3.484c-1.924,0.00-3.484-1.56-3.484-3.484 s 1.56-3.484, 3.484-3.484C 136.55,213.906, 138.11,215.466, 138.11,217.391z M 131.141,203.902l0.00,5.162 C 137.625,209.13, 142.886,214.391, 142.952,220.875l 5.162,0.00 C 148.048,211.53, 140.486,203.968, 131.141,203.902z M 131.141,200.288 c 5.481,0.024, 10.63,2.168, 14.508,6.047c 3.886,3.886, 6.032,9.048, 6.047,14.541l 5.162,0.00 C 156.827,206.679, 145.333,195.175, 131.141,195.125L 131.141,200.288 zM 217.888,204.131l-3.253,0.00 l0.00-2.946 l 0.713-2.432L 215.348,195.955 l-4.556,0.00 c0.00,0.00-1.168,2.568-1.58,3.561 c-1.354,3.268-2.754,6.644-5.644,7.206l0.00-1.448 L 195.125,205.273 l0.00,14.261 l 8.444,0.00 l0.00-1.232 l 2.864,0.00 l 3.183,1.743l 7.746,0.00 L 220.875,216.906 L 220.875,206.076 L 217.888,204.131z M 210.117,218.229l-3.093-1.743l-3.447,0.004L 203.577,208.562 c 0.029-0.004, 0.06-0.008, 0.094-0.013 c 4.013-0.601, 5.717-4.711, 7.22-8.338c 0.282-0.68, 0.881-2.042, 1.056-2.44l 1.585,0.00 l0.00,0.928 l-0.713,2.432l0.00,4.815 l 4.586,0.00 l 1.653,1.055l0.00,9.224 l-2.285,2.002L 210.117,218.229 zM 281.465,214.53c-3.69-0.851-7.124-1.596-5.461-4.732 c 5.063-9.546, 1.342-14.65-4.005-14.65c-5.452,0.00-9.081,5.301-4.005,14.65c 1.713,3.155-1.851,3.90-5.461,4.732 c-3.688,0.851-3.405,2.795-3.405,6.324l 25.74,0.00 C 284.87,217.325, 285.154,215.38, 281.465,214.53zM 348.873,214.46l-4.996,0.00 c0.00-5.437-2.718-2.853-2.718-7.618c0.00-1.72, 1.126-2.653, 2.572-2.653 c 2.136,0.00, 3.623,2.04, 1.60,5.854c-0.665,1.253, 0.708,1.551, 2.182,1.891C 348.986,212.273, 348.873,213.05, 348.873,214.46z M 324.487,211.933c 1.474-0.34, 2.847-0.638, 2.182-1.891c-2.023-3.814-0.536-5.854, 1.60-5.854 c 1.446,0.00, 2.572,0.933, 2.572,2.653c0.00,4.765-2.718,2.18-2.718,7.618L 323.127,214.46 C 323.127,213.05, 323.014,212.273, 324.487,211.933z M 340.757,211.282c-1.854-0.428-3.581-0.802-2.745-2.378c 2.545-4.798, 0.674-7.363-2.013-7.363 c-2.74,0.00-4.564,2.664-2.013,7.363c 0.861,1.586-0.93,1.96-2.745,2.378c-1.854,0.427-1.711,1.405-1.711,3.178 l 12.937,0.00 C 342.468,212.687, 342.611,211.709, 340.757,211.282zM 408.492,219.121L 404.83,211.913c-0.008,0.004-2.054,1.03-2.148,1.072 c-2.329,1.153-7.073-8.295-4.795-9.54l 2.167-1.088L 396.421,195.125c-0.002,0.001-2.156,1.084-2.192,1.103 c-1.496,0.795-5.558,2.676, 0.515,14.77c 6.125,12.197, 9.925,9.979, 11.553,9.22 C 406.422,220.159, 408.484,219.125, 408.492,219.121zM 458.659,206.941L 451.125,201.153l0.00,13.321 L 458.659,206.941z M 476.808,198.463L 451.213,198.463 l 12.787,9.823 L 476.808,198.463z M 467.585,208.294l-3.585,2.75l-3.591-2.758L 451.156,217.537l 25.672,0.00 L 467.585,208.294z M 469.335,206.951 L 476.875,214.49L 476.875,201.168 L 469.335,206.951zM 533.228,209.342c0.00,1.837-1.494,3.331-3.331,3.331c-1.837,0.00-3.331-1.494-3.331-3.331 c0.00-1.837, 1.494-3.331, 3.331-3.331C 531.734,206.011, 533.228,207.506, 533.228,209.342z M 540.875,201.258l0.00,16.688 L 515.125,217.945 l0.00-16.688 l 7.076,0.00 c 0.703,0.00, 1.347-0.394, 1.668-1.019l 1.12-2.184l 9.604,0.00 l 1.239,2.237c 0.33,0.596, 0.958,0.967, 1.64,0.967L 540.875,201.258 z M 521.677,204.898c0.00-0.708-0.574-1.281-1.281-1.281s-1.281,0.574-1.281,1.281s 0.574,1.281, 1.281,1.281S 521.677,205.606, 521.677,204.898z M 536.094,209.342c0.00-3.417-2.78-6.053-6.197-6.053c-3.417,0.00-6.197,2.637-6.197,6.053c0.00,3.417, 2.78,6.197, 6.197,6.197 C 533.314,215.539, 536.094,212.759, 536.094,209.342z M 520.896,198.539l-4.094,0.00 l0.00,1.688 l 4.094,0.00 L 520.896,198.539 zM 600.889,197.812L 588.483,210.217L 583.11,204.842L 579.125,208.828L 588.483,218.188L 604.875,201.795 zM 667.40,215.412L 659.985,207.999L 667.399,200.584L 663.412,196.60L 656.00,204.014L 648.586,196.601L 644.60,200.585L 652.015,207.999L 644.601,215.414L 648.585,219.40L 656.00,211.983L 663.416,219.399 zM 719.212,202.427l 13.484-2.673l-0.009-0.045L 731.785,195.156l-22.712,4.502 C 707.942,199.883, 707.125,200.874, 707.125,202.027c0.00,1.02,0.00,15.15,0.00,15.15c0.00,2.022, 1.645,3.667, 3.667,3.667l 18.416,0.00 c 2.022,0.00, 3.667-1.645, 3.667-3.667L 732.875,202.473 l0.00-0.046 L 719.212,202.427 z M 730.375,217.177c0.00,0.643-0.523,1.167-1.167,1.167L 710.792,218.344 C 710.148,218.344, 709.625,217.82, 709.625,217.177L 709.625,208.36 l 20.75,0.00 L 730.375,217.177 z M 725.221,203.677l-2.183,2.183l-3.277,0.00 l 2.183-2.183L 725.221,203.677 z M 728.702,197.042l 2.571,1.721l-3.212,0.638l-2.573-1.722L 728.702,197.042z M 722.374,198.296l 2.575,1.723l-3.212,0.638 l-2.577-1.724L 722.374,198.296z M 716.039,199.552l 2.579,1.726l-3.212,0.638L 712.825,200.189L 716.039,199.552z M 715.486,203.677 l 3.277,0.00 l-2.183,2.183l-3.277,0.00 L 715.486,203.677z M 726.212,205.86l 2.183-2.183l 3.277,0.00 l-2.183,2.183L 726.212,205.86 z M 718.558,216.582 L 718.558,209.785 l 5.543,3.399L 718.558,216.582zM 784.00,195.125C 776.889,195.125, 771.125,200.889, 771.125,208.00c0.00,7.111, 5.764,12.875, 12.875,12.875 c 7.111,0.00, 12.875-5.764, 12.875-12.875C 796.875,200.889, 791.111,195.125, 784.00,195.125z M 783.749,215.558 c-1.856,0.652-3.386-0.096-3.079-1.878c 0.307-1.783, 2.068-5.599, 2.319-6.321c 0.251-0.722-0.23-0.919-0.746-0.626 c-0.298,0.172-0.74,0.516-1.12,0.85c-0.105-0.212-0.253-0.454-0.365-0.686c 0.62-0.621, 1.655-1.454, 2.882-1.755 c 1.465-0.362, 3.914,0.216, 2.861,3.017c-0.751,1.996-1.283,3.373-1.618,4.399c-0.335,1.026, 0.063,1.241, 0.649,0.842 c 0.458-0.313, 0.946-0.738, 1.303-1.067c 0.165,0.269, 0.218,0.354, 0.382,0.663C 786.597,213.632, 784.974,215.12, 783.749,215.558z M 787.595,203.211c-0.842,0.716-2.09,0.701-2.788-0.035c-0.698-0.736-0.581-1.913, 0.26-2.63 c 0.842-0.716, 2.09-0.701, 2.788,0.035C 788.553,201.317, 788.436,202.494, 787.595,203.211zM 16.00,259.125C 8.889,259.125, 3.125,264.889, 3.125,272.00s 5.764,12.875, 12.875,12.875s 12.875-5.764, 12.875-12.875S 23.111,259.125, 16.00,259.125z M 16.141,280.556c-1.01,0.00-1.829-0.819-1.829-1.83c0.00-1.01, 0.819-1.829, 1.829-1.829c 1.01,0.00, 1.829,0.819, 1.829,1.829 C 17.97,279.737, 17.151,280.556, 16.141,280.556z M 17.579,275.149l0.00,0.329 c0.00,0.00-2.743,0.00-3.015,0.00l0.00-0.329 c0.00-0.931, 0.136-2.126, 1.217-3.164c 1.081-1.039, 2.432-1.897, 2.432-3.194c0.00-1.434-0.996-2.193-2.251-2.193 c-2.091,0.00-2.228,2.169-2.28,2.647l-2.933,0.00 c 0.078-2.262, 1.034-5.426, 5.23-5.426c 3.636,0.00, 5.271,2.435, 5.271,4.719 C 21.251,272.173, 17.579,272.805, 17.579,275.149zM 82.419,272.00L 73.578,280.884L 67.125,280.884 L 75.966,272.00L 67.125,263.116l 6.453,0.00 L 82.419,272.00z M 84.034,263.116L 77.58,263.116 L 86.422,272.00L 77.58,280.884l 6.453,0.00 L 92.875,272.00L 84.034,263.116zM 148.25,271.188c0.00,2.347-1.903,4.25-4.25,4.25c-2.347,0.00-4.25-1.903-4.25-4.25L 139.75,263.375 c0.00-2.347, 1.903-4.25, 4.25-4.25 c 2.347,0.00, 4.25,1.903, 4.25,4.25L 148.25,271.188 z M 150.125,269.00l0.00,2.188 c0.00,3.377-2.748,6.125-6.125,6.125c-3.377,0.00-6.125-2.748-6.125-6.125l0.00-2.188 l-2.50,0.00 l0.00,2.188 c0.00,4.756, 3.869,8.625, 8.625,8.625c 4.756,0.00, 8.625-3.869, 8.625-8.625l0.00-2.188 L 150.125,269.00 z M 144.00,281.063l-5.563,3.813l 10.75,0.00 L 144.00,281.063zM 215.023,260.712L 201.001,260.712 L 195.125,270.268l0.00,13.02 l 25.75,0.00 L 220.875,270.268 L 215.023,260.712z M 211.174,274.796L 204.826,274.796 c-0.582,0.00-1.055-0.472-1.055-1.055c0.00-0.582, 0.472-1.055, 1.055-1.055l 6.349,0.00 c 0.582,0.00, 1.055,0.472, 1.055,1.055 C 212.229,274.324, 211.757,274.796, 211.174,274.796z M 198.06,270.268l 4.304-7.05l 11.29,0.00 l 4.289,7.05L 198.06,270.268 z M 214.974,267.095 L 201.098,267.095 l 0.801-1.313l 12.276,0.00 L 214.974,267.095z M 213.732,265.054L 202.345,265.054 l 0.687-1.125l 10.017,0.00 L 213.732,265.054z M 216.305,269.283L 199.763,269.283 l 0.839-1.375l 14.866,0.00 L 216.305,269.283zM 259.125,260.594l0.00,22.813 l 25.75,0.00 l0.00-22.813 L 259.125,260.594 z M 281.75,272.521L 272.938,272.521 L 272.938,266.656 l 8.813,0.00 L 281.75,272.521 z M 262.25,266.656l 8.813,0.00 l0.00,13.625 L 262.25,280.281 L 262.25,266.656 z M 272.938,280.281l0.00-5.885 l 8.813,0.00 L 281.75,280.281 L 272.938,280.281 zM 336.745,274.057c 0.398,0.398, 0.398,1.044,0.00,1.442c-0.398,0.398-1.044,0.398-1.442,0.00 c-0.398-0.398-0.398-1.044,0.00-1.442C 335.701,273.659, 336.347,273.659, 336.745,274.057z M 338.376,274.503l 2.354-4.431l-4.431,2.354 c-0.71-0.082-1.423,0.151-1.95,0.677c-0.522,0.522-0.749,1.23-0.68,1.914l-2.398,4.515l 4.512-2.397 c 0.696,0.07, 1.396-0.162, 1.916-0.682C 338.199,275.953, 338.462,275.251, 338.376,274.503z M 338.721,265.114 c 0.678-0.635, 1.097-1.504, 1.097-2.462c0.00-1.938-1.713-3.514-3.818-3.514s-3.818,1.577-3.818,3.514 c0.00,0.958, 0.419,1.828, 1.097,2.462c-4.235,1.187-7.34,5.075-7.34,9.688c0.00,5.556, 4.504,10.061, 10.061,10.061 c 5.556,0.00, 10.061-4.504, 10.061-10.061C 346.061,270.189, 342.955,266.301, 338.721,265.114z M 336.00,261.012 c 1.071,0.00, 1.943,0.736, 1.943,1.639s-0.872,1.639-1.943,1.639s-1.943-0.736-1.943-1.639S 334.929,261.012, 336.00,261.012z M 341.457,280.259c-1.458,1.458-3.396,2.26-5.457,2.26s-3.999-0.803-5.457-2.26 c-1.458-1.458-2.26-3.396-2.26-5.457s 0.803-3.999, 2.26-5.457c 1.458-1.458, 3.396-2.26, 5.457-2.26 s 3.999,0.803, 5.457,2.26s 2.26,3.396, 2.26,5.457S 342.914,278.801, 341.457,280.259zM 408.593,263.339l-4.787,12.939l-1.567-6.553l-6.567-1.642L 408.593,263.339 M 412.818,259.125 L 387.182,268.537l 12.978,3.245L 403.291,284.875L 412.818,259.125zM 464.00,261.625c 3.119,0.00, 5.656,2.537, 5.656,5.656c0.00,3.599-3.753,9.474-5.656,12.679 c-3.222-5.425-5.656-9.571-5.656-12.679C 458.344,264.162, 460.881,261.625, 464.00,261.625 M 464.00,259.125c-4.505,0.00-8.156,3.652-8.156,8.156 c0.00,4.505, 3.57,9.74, 8.156,17.594c 4.587-7.854, 8.156-13.089, 8.156-17.594C 472.156,262.777, 468.505,259.125, 464.00,259.125L 464.00,259.125z M 464.00,264.371c-1.567,0.00-2.837,1.27-2.837,2.837s 1.27,2.837, 2.837,2.837s 2.837-1.27, 2.837-2.837 S 465.567,264.371, 464.00,264.371L 464.00,264.371zM 528.00,259.125c-4.505,0.00-8.156,3.652-8.156,8.156c0.00,6.698, 6.415,7.406, 8.156,17.594 c 1.741-10.188, 8.156-10.896, 8.156-17.594C 536.156,262.777, 532.505,259.125, 528.00,259.125z M 528.00,270.008c-1.615,0.00-2.925-1.31-2.925-2.925 s 1.31-2.925, 2.925-2.925s 2.925,1.31, 2.925,2.925S 529.616,270.008, 528.00,270.008zM 592.00,259.125c-4.505,0.00-8.156,3.652-8.156,8.156c0.00,4.505, 3.57,9.74, 8.156,17.594 c 4.587-7.854, 8.156-13.089, 8.156-17.594C 600.156,262.777, 596.505,259.125, 592.00,259.125z M 592.00,272.916 c-3.102,0.00-5.616-2.514-5.616-5.616c0.00-3.102, 2.514-5.616, 5.616-5.616c 3.102,0.00, 5.616,2.514, 5.616,5.616 C 597.616,270.402, 595.102,272.916, 592.00,272.916zM 656.00,259.125c-5.816,0.00-10.531,4.715-10.531,10.531C 645.469,275.563, 650.589,279.458, 656.00,284.875 c 5.411-5.417, 10.531-9.313, 10.531-15.219C 666.531,263.84, 661.816,259.125, 656.00,259.125z M 656.00,277.06c-4.267,0.00-7.726-3.459-7.726-7.726 c0.00-4.267, 3.459-7.727, 7.726-7.727c 4.267,0.00, 7.727,3.459, 7.727,7.727C 663.727,273.601, 660.267,277.06, 656.00,277.06zM 711.922,267.822l 5.758-5.758c 0.427-0.427, 1.12-0.427, 1.547,0.00c 0.427,0.427, 0.427,1.12,0.00,1.547 l-4.211,4.211L 711.922,267.822 z M 724.984,267.822l 3.094,0.00 l-5.758-5.758c-0.427-0.427-1.12-0.427-1.547,0.00 c-0.427,0.427-0.427,1.12,0.00,1.547L 724.984,267.822z M 707.125,269.363l0.00,2.50 l 0.69,0.00 c 0.573,0.00, 1.096,0.326, 1.348,0.841l 4.671,9.552L 726.188,282.256 l 4.651-9.55c 0.251-0.516, 0.775-0.843, 1.349-0.843L 732.875,271.863 l0.00-2.50 L 707.125,269.363 z M 717.328,278.774c0.00,0.431-0.35,0.781-0.781,0.781 s-0.781-0.35-0.781-0.781l0.00-5.785 c0.00-0.431, 0.35-0.781, 0.781-0.781s 0.781,0.35, 0.781,0.781L 717.328,278.774 z M 720.828,278.774 c0.00,0.431-0.35,0.781-0.781,0.781s-0.781-0.35-0.781-0.781l0.00-5.785 c0.00-0.431, 0.35-0.781, 0.781-0.781s 0.781,0.35, 0.781,0.781L 720.828,278.774 z M 724.323,278.774c0.00,0.431-0.35,0.781-0.781,0.781s-0.781-0.35-0.781-0.781l0.00-5.785 c0.00-0.431, 0.35-0.781, 0.781-0.781s 0.781,0.35, 0.781,0.781 L 724.323,278.774 zM 796.864,262.569l-0.797,2.50l-1.874,0.00 l-3.699,11.76L 776.303,276.83 L 771.135,264.976l 18.547,0.00 l-2.876,9.295l 1.882,0.00 l 3.678-11.701L 796.864,262.569 z M 786.12,278.069c-0.928,0.00-1.681,0.752-1.681,1.681 s 0.752,1.681, 1.681,1.681s 1.681-0.752, 1.681-1.681S 787.049,278.069, 786.12,278.069z M 780.565,278.069 c-0.928,0.00-1.681,0.752-1.681,1.681s 0.752,1.681, 1.681,1.681c 0.928,0.00, 1.681-0.752, 1.681-1.681 S 781.493,278.069, 780.565,278.069zM 25.688,332.203l-5.064,10.393L 11.394,342.596 l-5.053-10.393L 3.125,332.203 l0.00,2.50 l 0.69,0.00 c 0.573,0.00, 1.096,0.326, 1.348,0.841l 4.671,9.552L 22.188,345.096 l 4.651-9.55c 0.251-0.516, 0.775-0.843, 1.349-0.843L 28.875,334.703 l0.00-2.50 L 25.688,332.203 z M 16.063,329.126c-2.685,0.00-4.862,2.177-4.862,4.862c0.00,2.685, 2.177,4.862, 4.862,4.862s 4.862-2.177, 4.862-4.862 C 20.924,331.303, 18.748,329.126, 16.063,329.126z M 19.051,334.871l-2.105,0.00 l0.00,2.105 L 15.321,336.976 l0.00-2.105 l-2.104,0.00 l0.00-1.625 l 2.104,0.00 l0.00-2.104 l 1.625,0.00 l0.00,2.104 l 2.105,0.00 L 19.051,334.871 zM 85.682,328.976L 67.135,328.976 l 3.348,7.573l 12.818,0.00 L 85.682,328.976z M 92.864,326.569l-0.797,2.50 l-1.874,0.00 l-3.699,11.76L 72.303,340.83 l-1.102-2.50L 84.668,338.33 l 3.699-11.76L 92.864,326.569 z M 83.801,343.75c0.00,0.928-0.752,1.681-1.681,1.681 S 80.44,344.678, 80.44,343.75s 0.752-1.681, 1.681-1.681S 83.801,342.822, 83.801,343.75z M 78.246,343.75 c0.00,0.928-0.752,1.681-1.681,1.681c-0.928,0.00-1.681-0.752-1.681-1.681s 0.752-1.681, 1.681-1.681 C 77.493,342.069, 78.246,342.822, 78.246,343.75zM 142.23,343.813c0.00,0.928-0.752,1.681-1.681,1.681S 138.869,344.741, 138.869,343.813 s 0.752-1.681, 1.681-1.681S 142.23,342.884, 142.23,343.813z M 152.351,326.632l-3.699,11.76L 137.959,338.392 L 133.901,329.038L 131.151,329.038 l 5.182,11.854l 0.017,0.00 l 14.129,0.00 l 3.699-11.76l 1.874,0.00 l 0.797-2.50L 152.351,326.632 z M 146.105,342.132c-0.928,0.00-1.681,0.752-1.681,1.681 s 0.752,1.681, 1.681,1.681s 1.681-0.752, 1.681-1.681S 147.033,342.132, 146.105,342.132z M 143.141,326.507 c-2.685,0.00-4.862,2.177-4.862,4.862c0.00,2.685, 2.177,4.862, 4.862,4.862s 4.862-2.177, 4.862-4.862 C 148.003,328.684, 145.827,326.507, 143.141,326.507z M 146.129,332.252l-2.105,0.00 l0.00,2.105 l-1.625,0.00 l0.00-2.105 l-2.104,0.00 L 140.295,330.627 l 2.104,0.00 l0.00-2.104 l 1.625,0.00 l0.00,2.104 l 2.105,0.00 L 146.129,332.252 zM 201.083,333.958l0.00-3.917 C 201.083,326.228, 204.186,323.125, 208.00,323.125c 3.814,0.00, 6.917,3.103, 6.917,6.917l0.00,3.917 l-3.125,0.00 l0.00-3.917 C 211.792,327.951, 210.091,326.25, 208.00,326.25c-2.091,0.00-3.792,1.701-3.792,3.792l0.00,3.917 L 201.083,333.958 z M 198.75,335.833L 198.75,348.875 l 18.50,0.00 L 217.25,335.833 L 198.75,335.833 zM 264.376,340.524c 2.29-9.974, 13.696-12.295, 13.696-12.295L 278.073,325.158 L 284.875,331.949l-6.802,6.791 l0.00-3.071 C 278.073,335.67, 269.252,335.303, 264.376,340.524z M 278.128,341.777l0.00,2.502 L 261.688,344.278 L 261.688,333.63 l 3.598,0.00 c 0.719-0.926, 1.535-1.78, 2.436-2.563L 259.125,331.067 l0.00,15.775 l 21.566,0.00 L 280.691,339.218 L 278.128,341.777zM 346.908,329.602L 325.092,329.602 l0.00,5.468 l 21.816,0.00 L 346.908,329.602 z M 326.543,333.536l 0.959-2.398l 1.159,0.00 l-0.959,2.398 L 326.543,333.536 z M 328.421,333.536l 0.959-2.398l 1.159,0.00 l-0.959,2.398L 328.421,333.536 z M 330.30,333.536l 0.959-2.398l 1.159,0.00 l-0.959,2.398 L 330.30,333.536 z M 332.178,333.536l 0.959-2.398l 1.159,0.00 l-0.959,2.398L 332.178,333.536 z M 335.215,333.536l-1.159,0.00 l 0.959-2.398l 1.159,0.00 L 335.215,333.536z M 344.318,333.137c-0.442,0.00-0.801-0.359-0.801-0.801s 0.359-0.801, 0.801-0.801 c 0.443,0.00, 0.801,0.359, 0.801,0.801S 344.76,333.137, 344.318,333.137z M 345.705,328.164l-19.364,0.00 L 330.16,323.125l 11.679,0.00 L 345.705,328.164 z M 346.908,336.509L 325.092,336.509 l0.00,5.468 l 21.816,0.00 L 346.908,336.509 z M 326.543,340.442l 0.959-2.398l 1.159,0.00 l-0.959,2.398L 326.543,340.442 z M 328.421,340.442 l 0.959-2.398l 1.159,0.00 l-0.959,2.398L 328.421,340.442 z M 330.30,340.442l 0.959-2.398l 1.159,0.00 l-0.959,2.398L 330.30,340.442 z M 332.178,340.442 l 0.959-2.398l 1.159,0.00 l-0.959,2.398L 332.178,340.442 z M 335.215,340.442l-1.159,0.00 l 0.959-2.398l 1.159,0.00 L 335.215,340.442z M 344.318,340.044 c-0.442,0.00-0.801-0.358-0.801-0.801c0.00-0.443, 0.359-0.801, 0.801-0.801c 0.443,0.00, 0.801,0.358, 0.801,0.801 C 345.119,339.686, 344.76,340.044, 344.318,340.044z M 346.908,343.407L 325.092,343.407 L 325.092,348.875 l 21.816,0.00 L 346.908,343.407 z M 326.543,347.34l 0.959-2.398 l 1.159,0.00 l-0.959,2.398L 326.543,347.34 z M 328.421,347.34l 0.959-2.398l 1.159,0.00 l-0.959,2.398L 328.421,347.34 z M 330.30,347.34l 0.959-2.398 l 1.159,0.00 l-0.959,2.398L 330.30,347.34 z M 332.178,347.34l 0.959-2.398l 1.159,0.00 l-0.959,2.398L 332.178,347.34 z M 335.215,347.34l-1.159,0.00 l 0.959-2.398l 1.159,0.00 L 335.215,347.34z M 344.318,346.942c-0.442,0.00-0.801-0.358-0.801-0.801c0.00-0.443, 0.359-0.801, 0.801-0.801 c 0.443,0.00, 0.801,0.358, 0.801,0.801C 345.119,346.583, 344.76,346.942, 344.318,346.942zM 410.383,342.225l0.00,2.908 C 410.383,347.20, 405.734,348.875, 400.00,348.875c-5.734,0.00-10.383-1.675-10.383-3.742 l0.00-2.908 c 0.643,0.462, 1.449,0.869, 2.405,1.214C 394.182,344.218, 397.015,344.646, 400.00,344.646 c 2.985,0.00, 5.818-0.429, 7.977-1.207C 408.934,343.095, 409.74,342.687, 410.383,342.225z M 407.977,337.362 c-2.16,0.778-4.993,1.207-7.977,1.207c-2.985,0.00-5.818-0.429-7.977-1.207c-0.956-0.345-1.763-0.752-2.405-1.214 l0.00,2.881 c0.00,2.067, 4.648,3.742, 10.383,3.742c 5.734,0.00, 10.383-1.675, 10.383-3.742l0.00-2.881 C 409.74,336.61, 408.934,337.017, 407.977,337.362z M 400.00,323.125c-5.734,0.00-10.383,1.675-10.383,3.742 c0.00,2.067, 4.648,3.742, 10.383,3.742c 5.734,0.00, 10.383-1.675, 10.383-3.742C 410.383,324.80, 405.734,323.125, 400.00,323.125z M 407.977,331.277C 405.818,332.055, 402.985,332.484, 400.00,332.484c-2.985,0.00-5.818-0.429-7.977-1.207 c-0.956-0.345-1.763-0.752-2.405-1.214l0.00,2.889 c0.00,2.067, 4.648,3.742, 10.383,3.742c 5.734,0.00, 10.383-1.675, 10.383-3.742 l0.00-2.889 C 409.74,330.525, 408.934,330.932, 407.977,331.277zM 476.875,342.50l0.00,0.813 c0.00,0.69-0.56,1.25-1.25,1.25L 452.375,344.563 c-0.69,0.00-1.25-0.56-1.25-1.25l0.00-0.813 l 10.443,0.00 c 0.086,0.384, 0.428,0.609, 0.838,0.609l 3.188,0.00 c 0.41,0.00, 0.753-0.225, 0.838-0.609L 476.875,342.50 z M 472.99,329.125L 455.01,329.125 l0.00,10.75 l 17.979,0.00 L 472.99,329.125 M 474.677,341.563 L 453.323,341.563 L 453.323,328.688 c0.00-0.69, 0.56-1.25, 1.25-1.25l 18.854,0.00 c 0.69,0.00, 1.25,0.56, 1.25,1.25L 474.677,341.563 zM 533.401,330.599c 0.626,0.626, 0.626,1.6410.00,2.267L 524.865,341.401 c-0.626,0.626-1.641,0.626-2.267,0.00l0.00,0.00c-0.626-0.626-0.626-1.6410.00-2.267l 8.536-8.536 C 531.76,329.973, 532.775,329.973, 533.401,330.599L 533.401,330.599z M 523.596,344.961c-1.256,1.256-3.301,1.256-4.557,0.00 c-1.256-1.256-1.256-3.301,0.00-4.557l 6.049-6.043c-2.03-0.493-4.261,0.053-5.846,1.638L 516.939,338.304 c-2.418,2.418-2.418,6.339,0.00,8.758c 2.418,2.418, 6.339,2.418, 8.758,0.00l 2.304-2.304 c 1.585-1.585, 2.131-3.815, 1.639-5.845L 523.596,344.961z M 530.303,324.939l-2.304,2.304 c-1.585,1.585-2.135,3.812-1.642,5.842l 6.046-6.046c 1.256-1.256, 3.301-1.256, 4.557,0.00 c 1.256,1.256, 1.256,3.301, 0.00,4.557l-6.046,6.046c 2.03,0.492, 4.257-0.057, 5.842-1.641l 2.304-2.304 c 2.418-2.418, 2.418-6.3390.00-8.758C 536.643,322.52, 532.722,322.52, 530.303,324.939zM 590.996,334.46l 2.008,0.00 l0.00,6.089 l-2.008,0.00 L 590.996,334.46 z M 592.00,343.689c-0.598,0.00-1.083-0.485-1.083-1.083 c0.00-0.598, 0.485-1.083, 1.083-1.083c 0.598,0.00, 1.083,0.485, 1.083,1.083C 593.083,343.204, 592.598,343.689, 592.00,343.689z M 592.00,324.879 L 579.125,347.18l 25.75,0.00 L 592.00,324.879z M 592.00,329.879l 8.545,14.80L 583.455,344.68 L 592.00,329.879zM 668.875,337.219c0.00-7.111-5.764-12.875-12.875-12.875s-12.875,5.764-12.875,12.875c0.00,2.771, 0.876,5.338, 2.365,7.439 l 4.675,0.00 C 651.164,346.425, 653.401,347.656, 656.00,347.656s 4.836-1.231, 5.834-2.999l 4.675,0.00 C 667.999,342.557, 668.875,339.99, 668.875,337.219z M 664.055,330.313l-2.364,2.364c-0.339-0.424-0.725-0.81-1.149-1.149l 2.364-2.363 C 663.316,329.517, 663.702,329.902, 664.055,330.313z M 659.302,327.133c 0.513,0.168, 1.017,0.377, 1.501,0.623l-1.28,3.088 c-0.475-0.263-0.979-0.472-1.501-0.623L 659.302,327.133z M 655.188,326.64c 0.274-0.021, 0.547-0.031, 0.813-0.031s 0.538,0.011, 0.813,0.031l0.00,3.342 c-0.27-0.03-0.542-0.045-0.813-0.045s-0.543,0.015-0.813,0.045L 655.188,326.64 z M 654.788,337.841L 656.00,332.162l 1.212,5.679 c 0.772,0.427, 1.295,1.25, 1.295,2.194c0.00,1.384-1.122,2.507-2.507,2.507c-1.384,0.00-2.507-1.122-2.507-2.507 C 653.493,339.091, 654.016,338.269, 654.788,337.841z M 652.658,327.146l 1.293,3.084c-0.521,0.152-1.024,0.363-1.498,0.629 l-1.293-3.083C 651.642,327.527, 652.145,327.316, 652.658,327.146z M 649.094,329.164l 2.364,2.364 c-0.424,0.339-0.81,0.725-1.149,1.149l-2.363-2.364C 648.298,329.902, 648.684,329.517, 649.094,329.164z M 645.913,333.919 c 0.168-0.513, 0.377-1.017, 0.623-1.501l 3.089,1.28c-0.263,0.475-0.472,0.979-0.622,1.501L 645.913,333.919z M 662.965,335.089 c-0.158-0.518-0.375-1.019-0.646-1.491l 3.069-1.328c 0.252,0.478, 0.469,0.979, 0.646,1.491L 662.965,335.089zM 720.00,348.315C 710.51,339.078, 707.842,335.681, 707.264,332.197 C 706.557,327.937, 709.729,323.685, 714.671,323.685c 2.118,0.00, 4.043,0.814, 5.329,2.173c 1.286-1.359, 3.211-2.173, 5.329-2.173 c 4.92,0.00, 8.117,4.23, 7.407,8.512C 732.17,335.605, 729.679,338.895, 720.00,348.315z M 714.671,326.185 c-1.996,0.00-3.678,1.005-4.50,2.687c-2.106,4.309, 2.637,8.684, 9.829,15.891 C 727.219,337.529, 731.93,333.171, 729.829,328.873c-0.822-1.683-2.505-2.687-4.50-2.687c-3.216,0.00-4.587,2.532-5.329,3.728 C 719.303,328.79, 718.05,326.185, 714.671,326.185zM 789.333,323.125L 778.667,323.125 L 771.125,330.667l0.00,10.666 L 778.667,348.875l 10.666,0.00 L 796.875,341.333L 796.875,330.667 L 789.333,323.125z M 788.267,342.588l-4.205-4.204l-4.205,4.205l-2.259-2.26l 4.204-4.204l-4.204-4.204l 2.26-2.258l 4.204,4.203 l 4.203-4.204l 2.26,2.259l-4.204,4.204l 4.204,4.204L 788.267,342.588z"></path></svg>