<?xml version="1.0" encoding="utf-8"?> <!-- Generator: IcoMoon.io --> <!DOCTYPE svg PUBLIC "-//W3C//DTD SVG 1.1//EN" "http://www.w3.org/Graphics/SVG/1.1/DTD/svg11.dtd"> <svg version="1.1" xmlns="http://www.w3.org/2000/svg" xmlns:xlink="http://www.w3.org/1999/xlink" x="0px" y="0px" width="3200" height="1408" viewBox="0 0 3200 1408" enable-background="new 0 0 512 512" xml:space="preserve" fill="#333333"> <path d="M 115.50,32.056c-3.789,1.681-7.862,2.817-12.137,3.328c 4.362-2.615, 7.713-6.756, 9.291-11.691 c-4.083,2.422-8.605,4.18-13.419,5.128c-3.854-4.107-9.347-6.673-15.425-6.673c-13.64,0.00-23.667,12.729-20.584,25.947 c-17.563-0.881-33.133-9.294-43.556-22.078c-5.535,9.496-2.871,21.923, 6.54,28.212c-3.463-0.11-6.723-1.06-9.571-2.643 c-0.229,9.79, 6.787,18.945, 16.949,20.987c-2.974,0.809-6.231,0.995-9.543,0.362c 2.688,8.395, 10.493,14.505, 19.74,14.675 C 34.901,94.57, 23.712,97.68, 12.50,96.359c 9.351,5.995, 20.459,9.494, 32.393,9.494c 39.233,0.00, 61.399-33.138, 60.063-62.859 C 109.085,40.015, 112.667,36.294, 115.50,32.056zM 371.50,73.64c0.00,6.899-5.592,12.491-12.491,12.491l-34.742,0.00 L 324.267,43.206 c 1.328-0.484, 2.714-0.845, 4.146-1.069c 1.121-0.175, 2.268-0.268, 3.438-0.268c 11.629,0.00, 21.162,8.97, 22.061,20.368 c 1.557-0.697, 3.281-1.088, 5.097-1.088C 365.908,61.15, 371.50,66.742, 371.50,73.64z M 311.276,51.691l0.00,34.439 l 4.146,0.00 L 315.422,49.175 c-0.923,1.022-1.752,2.13-2.474,3.312C 312.407,52.193, 311.849,51.928, 311.276,51.691z M 317.703,86.13l 4.146,0.00 L 321.849,44.257 c-1.487,0.755-2.877,1.672-4.146,2.729L 317.702,86.13 z M 291.373,56.005l0.00,30.125 l 4.146,0.00 L 295.52,52.714 C 293.978,53.603, 292.582,54.715, 291.373,56.005z M 278.935,62.255l0.00,23.772 c 0.509,0.066, 1.027,0.103, 1.555,0.103l 2.177,0.00 l0.00-23.781 c-0.706-0.13-1.433-0.198-2.177-0.198C 279.962,62.151, 279.444,62.189, 278.935,62.255z M 273.441,83.838 c 0.943,0.686, 1.988,1.237, 3.11,1.627l0.00-22.648 c-1.122,0.39-2.167,0.942-3.11,1.627L 273.441,83.838 z M 284.947,63.012l0.00,23.119 l 4.146,0.00 L 289.093,59.024 c-0.933,1.552-1.64,3.255-2.07,5.066C 286.372,63.666, 285.677,63.305, 284.947,63.012z M 298.008,86.13l 4.146,0.00 L 302.154,50.48 c-1.443,0.184-2.832,0.542-4.146,1.048L 298.008,86.13 z M 304.642,86.13l 4.146,0.00 L 308.788,50.87 c-1.329-0.332-2.718-0.515-4.146-0.531L 304.642,86.13 z M 271.402,81.957l0.00-15.633 C 269.595,68.424, 268.50,71.154, 268.50,74.141C 268.50,77.129, 269.595,79.858, 271.402,81.957zM 578.413,12.50C 550.305,12.50, 536.131,32.653, 536.131,49.458c0.00,10.175, 3.853,19.229, 12.116,22.602 c 1.355,0.554, 2.569,0.019, 2.962-1.481c 0.273-1.038, 0.92-3.658, 1.209-4.748c 0.396-1.484, 0.242-2.005-0.851-3.298 c-2.382-2.811-3.905-6.449-3.905-11.602c0.00-14.951, 11.187-28.336, 29.129-28.336c 15.887,0.00, 24.616,9.708, 24.616,22.672 c0.00,17.058-7.55,31.456-18.756,31.456c-6.19,0.00-10.822-5.119-9.338-11.396c 1.779-7.495, 5.223-15.584, 5.223-20.994 c0.00-4.843-2.599-8.882-7.979-8.882c-6.327,0.00-11.41,6.545-11.41,15.313c0.00,5.584, 1.887,9.361, 1.887,9.361 s-6.474,27.434-7.61,32.239c-2.261,9.568-0.34,21.298-0.177,22.483c 0.095,0.702, 0.997,0.869, 1.405,0.339 c 0.584-0.762, 8.12-10.065, 10.681-19.36c 0.725-2.632, 4.162-16.262, 4.162-16.262c 2.055,3.921, 8.063,7.374, 14.451,7.374 c 19.019,0.00, 31.922-17.338, 31.922-40.547C 615.868,28.843, 601.004,12.50, 578.413,12.50zM 883.50,35.337l-13.655,0.00 l0.00,13.655 l-6.828,0.00 l0.00-13.655 l-13.655,0.00 l0.00-6.828 l 13.655,0.00 L 863.017,14.854 l 6.828,0.00 l0.00,13.655 L 883.50,28.509 L 883.50,35.337 z M 844.896,91.815 c0.00,10.236-9.346,22.697-32.858,22.697C 794.841,114.512, 780.50,107.095, 780.50,94.62c0.00-9.629, 6.096-22.128, 34.581-22.128 c-4.231-3.448-5.269-8.269-2.683-13.49c-16.678,0.00-25.22-9.806-25.22-22.256c0.00-12.183, 9.06-23.258, 27.538-23.258 c 4.665,0.00, 29.599,0.00, 29.599,0.00l-6.614,6.942l-7.77,0.00 c 5.481,3.14, 8.396,9.608, 8.396,16.737 c0.00,6.544-3.603,11.844-8.746,15.82c-9.126,7.056-6.79,10.995, 2.772,17.968C 841.78,78.019, 844.896,83.471, 844.896,91.815 z M 826.434,37.613c-1.377-10.476-8.201-19.071-16.176-19.311c-7.977-0.237-13.327,7.78-11.95,18.259 c 1.377,10.476, 8.959,17.794, 16.937,18.035C 823.221,54.833, 827.81,48.091, 826.434,37.613z M 834.658,92.866 c0.00-8.617-7.86-16.829-21.048-16.829c-11.886-0.131-21.958,7.511-21.958,16.368c0.00,9.039, 8.584,16.563, 20.47,16.563 C 827.317,108.966, 834.658,101.904, 834.658,92.866zM 1139.408,62.661l 0.092-0.955c-5.724-0.555-11.417-0.605-16.948-0.182 c 0.889-2.837, 1.357-6.041, 1.324-9.685c-0.073-7.741-2.654-13.77-6.711-18.774c 0.779-4.713, 0.192-9.425-1.278-14.14 c-5.797,0.474-11.013,2.373-15.659,5.671c-8.681-1.761-17.362-1.873-26.043,0.00c-5.418-3.657-10.739-5.45-15.977-5.671 c-1.552,5.191-1.792,10.308-0.479,15.339c-4.57,4.849-6.317,10.736-6.231,17.255c 0.049,3.732, 0.624,7.052, 1.685,9.988 c-5.449-0.40-11.05-0.346-16.683,0.20l 0.092,0.955c 5.737-0.557, 11.44-0.603, 16.98-0.17c 0.203,0.493, 0.408,0.985, 0.642,1.454 c-6.002-0.158-11.405,0.363-16.463,1.607l 0.229,0.931c 5.135-1.262, 10.635-1.77, 16.777-1.563 c 4.061,7.216, 11.88,11.456, 23.266,12.801c-2.645,2.148-4.067,4.683-4.434,7.55c0.00,0.00-1.197,0.00-6.03,0.00 c-8.098,0.00-10.306-10.326-18.695-9.307C 1057.00,80.00, 1055.375,92.90, 1068.397,92.90c 4.377,0.00, 5.306,0.00, 5.47,0.00l0.00,11.824 c 0.059,1.911-0.773,3.188-2.117,4.074c 4.663,0.471, 8.168-1.857, 8.168-4.713s0.00-14.237,0.00-15.63s 1.458-1.50, 1.458-1.50l0.00,18.248 c 0.061,1.816-0.821,2.848-1.758,3.835c 4.109,0.164, 7.973-0.657, 8.148-4.154c0.00,0.00,0.00-16.586,0.00-17.464s 1.439-0.90, 1.439,0.00 s0.00,16.645,0.00,16.645c 0.042,2.95, 2.59,5.342, 7.988,4.973c-1.444-1.163-1.887-2.337-1.887-4.037s0.00-18.045,0.00-18.045s 1.488-0.076, 1.488,1.50 s0.00,12.583,0.00,15.22c0.00,3.388, 4.067,4.785, 8.707,4.654c-1.52-1.139-2.549-2.498-2.556-4.314l0.00-18.304 c-0.157-2.691-1.251-5.226-3.396-7.59c 10.408-1.598, 17.909-5.753, 21.645-13.199c 6.162-0.212, 11.679,0.296, 16.827,1.562 l 0.229-0.931c-5.098-1.254-10.545-1.774-16.604-1.604c 0.21-0.473, 0.417-0.947, 0.597-1.446 C 1127.841,62.054, 1133.608,62.098, 1139.408,62.661z M 1052.50,77.506c-0.256,0.00-0.463-0.147-0.463-0.328c0.00-0.182, 0.207-0.329, 0.463-0.329 c 0.256,0.00, 0.464,0.147, 0.464,0.329C 1052.963,77.359, 1052.756,77.506, 1052.50,77.506z M 1053.958,78.501c-0.284,0.00-0.515-0.163-0.515-0.365 s 0.231-0.365, 0.515-0.365s 0.515,0.164, 0.515,0.365S 1054.242,78.501, 1053.958,78.501z M 1055.438,79.793 c-0.333,0.00-0.604-0.192-0.604-0.428s 0.271-0.428, 0.604-0.428c 0.333,0.00, 0.604,0.192, 0.604,0.428S 1055.771,79.793, 1055.438,79.793z M 1056.875,81.345c-0.39,0.00-0.706-0.224-0.706-0.501s 0.316-0.501, 0.706-0.501s 0.706,0.225, 0.706,0.501S 1057.265,81.345, 1056.875,81.345z M 1058.458,83.099c-0.433,0.00-0.785-0.249-0.785-0.556s 0.351-0.557, 0.785-0.557s 0.785,0.249, 0.785,0.557 S 1058.892,83.099, 1058.458,83.099z M 1060.292,84.879c-0.481,0.00-0.872-0.277-0.872-0.619s 0.391-0.619, 0.872-0.619 c 0.481,0.00, 0.872,0.277, 0.872,0.619S 1060.773,84.879, 1060.292,84.879z M 1062.771,86.573c-0.535,0.00-0.969-0.308-0.969-0.687 c0.00-0.38, 0.434-0.688, 0.969-0.688s 0.969,0.308, 0.969,0.688C 1063.739,86.265, 1063.306,86.573, 1062.771,86.573z M 1065.844,87.479 c-0.535,0.00-0.969-0.308-0.969-0.687c0.00-0.38, 0.434-0.688, 0.969-0.688s 0.969,0.308, 0.969,0.688 C 1066.813,87.171, 1066.379,87.479, 1065.844,87.479z M 1069.083,87.583c-0.535,0.00-0.969-0.308-0.969-0.687 c0.00-0.38, 0.434-0.688, 0.969-0.688s 0.969,0.308, 0.969,0.688C 1070.052,87.275, 1069.618,87.583, 1069.083,87.583z M 1072.281,87.646 c-0.535,0.00-0.969-0.308-0.969-0.687c0.00-0.38, 0.434-0.688, 0.969-0.688s 0.969,0.308, 0.969,0.688 C 1073.25,87.338, 1072.816,87.646, 1072.281,87.646zM 1331.017,46.173l-10.786,0.00 l0.00,17.607 l 10.786,0.00 L 1331.017,115.50 l 20.741,0.00 L 1351.758,63.559 l 14.47,0.00 l 1.54-17.387l-16.011,0.00 c0.00,0.00,0.00-6.492,0.00-9.904c0.00-4.099, 0.826-5.723, 4.787-5.723c 3.192,0.00, 11.224,0.00, 11.224,0.00L 1367.769,12.50 c0.00,0.00-11.832,0.00-14.36,0.00 c-15.434,0.00-22.392,6.795-22.392,19.808C 1331.017,43.642, 1331.017,46.173, 1331.017,46.173zM 1600.00,12.50C 1571.557,12.50, 1548.50,35.557, 1548.50,64.00c0.00,28.442, 23.057,51.50, 51.50,51.50s 51.50-23.058, 51.50-51.50 C 1651.50,35.557, 1628.443,12.50, 1600.00,12.50z M 1642.422,61.601c-11.05-1.813-21.213-1.91-30.481-0.314c-1.047-2.418-2.133-4.826-3.291-7.21 c 9.91-4.291, 17.876-10.121, 23.809-17.516C 1638.251,43.401, 1641.888,52.089, 1642.422,61.601z M 1625.933,30.351 c-5.168,6.666-12.306,11.941-21.396,15.791c-4.361-7.987-9.346-15.775-14.972-23.336c 3.345-0.85, 6.83-1.349, 10.436-1.349 C 1609.765,21.456, 1618.745,24.798, 1625.933,30.351z M 1580.804,26.084c 5.715,7.478, 10.777,15.182, 15.178,23.093 c-10.428,3.07-22.879,4.648-37.27,4.746C 1561.684,41.755, 1569.88,31.637, 1580.804,26.084z M 1557.456,64.00 c0.00-0.37, 0.046-0.73, 0.056-1.098c 16.516-0.023, 30.764-1.924, 42.702-5.675c 1.001,2.036, 1.958,4.084, 2.873,6.144 c-14.503,4.533-26.456,13.826-35.778,27.812C 1561.164,83.807, 1557.456,74.329, 1557.456,64.00z M 1573.891,97.517 c 8.45-13.252, 19.238-21.878, 32.608-25.866c 3.979,10.385, 6.905,21.07, 8.765,32.015c-4.746,1.832-9.88,2.877-15.263,2.877 C 1590.156,106.543, 1581.106,103.152, 1573.891,97.517z M 1623.614,99.362c-1.88-10.096-4.636-19.97-8.239-29.60 c 8.048-1.136, 16.91-0.841, 26.603,0.843C 1640.101,82.562, 1633.273,92.89, 1623.614,99.362zM 1854.605,50.031c 18.622-0.339, 28.66,5.787, 31.063,17.662l-15.222,0.00 l0.00-12.781 c-4.027-1.40-8.268-1.969-12.665-1.937l0.00,24.169 L 1907.50,77.143 c-2.403-19.286-24.541-34.394-51.50-34.394c-0.466,0.00-0.931,0.005-1.394,0.015 l0.00-8.845 c-4.236-0.278-8.397,0.387-12.472,2.169l0.00,8.041 C 1821.779,48.268, 1806.475,61.293, 1804.50,77.143l 50.105,0.00 L 1854.605,50.031 z M 1842.134,67.692l-15.648,0.00 c 1.688-8.152, 6.892-13.558, 15.648-15.88L 1842.134,67.692 zM 2080.465,12.50l 6.184,0.00 l 4.233,15.888L 2094.816,12.50l 6.238,0.00 l-7.145,23.626l0.00,16.122 l-6.139,0.00 l0.00-16.122 L 2080.465,12.50z M 2100.776,44.935c0.00,5.167, 2.70,7.857, 7.987,7.857c 4.385,0.00, 7.838-2.932, 7.838-7.857L 2116.601,30.563 c0.00-4.589-3.418-7.877-7.838-7.877c-4.801,0.00-7.987,3.173-7.987,7.877L 2100.776,44.935 z M 2106.386,31.046 c0.00-1.605, 0.739-2.796, 2.27-2.796c 1.672,0.00, 2.387,1.155, 2.387,2.796l0.00,13.639 c0.00,1.596-0.814,2.776-2.28,2.776 c-1.506,0.00-2.377-1.232-2.377-2.776L 2106.386,31.046 z M 2131.337,22.927l0.00,22.256 c-0.664,0.832-2.142,2.196-3.205,2.196 c-1.167,0.00-1.452-0.796-1.452-1.976L 2126.68,22.927 l-5.452,0.00 l0.00,24.507 c0.00,2.897, 0.886,5.237, 3.808,5.237c 1.649,0.00, 3.939-0.858, 6.301-3.66 l0.00,3.237 l 5.452,0.00 L 2136.788,22.927 L 2131.337,22.927 z M 2123.318,83.034c 0.37,0.488, 0.555,1.204, 0.555,2.146l0.00,14.418 c0.00,0.89-0.15,1.532-0.45,1.925 c-0.572,0.749-1.812,0.715-2.656,0.287c-0.397-0.20-0.807-0.527-1.229-0.982l0.00-17.402 c 0.352-0.383, 0.709-0.667, 1.07-0.851 C 2121.517,82.115, 2122.691,82.204, 2123.318,83.034z M 2140.796,82.401c-1.924,0.00-2.319,1.354-2.319,3.273l0.00,2.827 l 4.587,0.00 l0.00-2.827 C 2143.063,83.787, 2142.662,82.401, 2140.796,82.401z M 2156.629,103.00c0.00,6.904-5.596,12.50-12.50,12.50L 2079.871,115.50 c-6.904,0.00-12.50-5.596-12.50-12.50 L 2067.371,71.421 c0.00-6.904, 5.596-12.50, 12.50-12.50l 64.258,0.00 c 6.904,0.00, 12.50,5.596, 12.50,12.50L 2156.629,103.00 z M 2088.434,73.782l 6.049,0.00 L 2094.482,68.287 l-17.945,0.00 l0.00,5.495 l 6.049,0.00 l0.00,32.36 l 5.847,0.00 L 2088.434,73.782 z M 2109.231,78.218l-5.192,0.00 l0.00,21.196 c-0.633,0.793-2.041,2.091-3.053,2.091c-1.111,0.00-1.383-0.758-1.383-1.882 l0.00-21.406 l-5.192,0.00 l0.00,23.34 c0.00,5.666, 3.842,5.701, 6.64,4.098c 1.035-0.594, 2.03-1.46, 2.987-2.596l0.00,3.083 l 5.192,0.00 L 2109.231,78.218 z M 2129.216,84.865c0.00-3.788-1.259-7.00-5.062-7.00c-1.854,0.00-3.445,1.182-4.616,2.609L 2119.538,68.287 l-5.242,0.00 l0.00,37.855 l 5.242,0.00 l0.00-2.147 c 1.447,1.805, 3.03,2.499, 4.931,2.499c 3.454,0.00, 4.747-2.683, 4.747-6.139L 2129.217,84.865 z M 2148.406,85.725 c0.00-5.047-2.407-8.213-7.388-8.213c-4.684,0.00-7.886,3.366-7.886,8.213l0.00,12.534 c0.00,5.027, 2.535,8.639, 7.493,8.639 c 5.471,0.00, 7.78-3.259, 7.78-8.639l0.00-2.098 l-5.343,0.00 l0.00,1.941 c0.00,2.431-0.128,3.906-2.319,3.906c-2.09,0.00-2.267-1.812-2.267-3.906 l0.00-5.268 l 9.93,0.00 L 2148.406,85.725 zM 2419.492,89.84l-19.984,0.00 c-0.001-21.75-10.873-11.412-10.873-30.471c0.00-6.88, 4.504-10.614, 10.287-10.614 c 8.545,0.00, 14.492,8.159, 6.40,23.415c-2.659,5.012, 2.831,6.203, 8.728,7.564C 2419.945,81.093, 2419.492,84.201, 2419.492,89.84z M 2321.949,79.733c 5.897-1.36, 11.386-2.551, 8.728-7.564c-8.092-15.256-2.145-23.415, 6.40-23.415 c 5.784,0.00, 10.287,3.734, 10.287,10.614c0.00,19.059-10.871,8.722-10.873,30.471L 2316.508,89.84 C 2316.508,84.201, 2316.055,81.093, 2321.949,79.733z M 2387.029,77.127c-7.418-1.712-14.322-3.209-10.978-9.514c 10.179-19.191, 2.698-29.453-8.05-29.453 c-10.96,0.00-18.257,10.656-8.05,29.453c 3.444,6.343-3.721,7.839-10.979,9.514c-7.415,1.71-6.844,5.619-6.844,12.713 l 51.746,0.00 C 2393.873,82.746, 2394.444,78.837, 2387.029,77.127zM 2643.708,12.50L 2604.292,12.50 c-4.557,0.00-8.25,3.693-8.25,8.25l0.00,86.50 c0.00,4.556, 3.693,8.25, 8.25,8.25l 39.416,0.00 c 4.557,0.00, 8.25-3.693, 8.25-8.25L 2651.958,20.75 C 2651.958,16.194, 2648.265,12.50, 2643.708,12.50z M 2619.625,20.055l 9.25,0.00 c 0.552,0.00, 1.00,0.448, 1.00,1.00s-0.448,1.00-1.00,1.00l-9.25,0.00 c-0.552,0.00-1.00-0.448-1.00-1.00S 2619.073,20.055, 2619.625,20.055z M 2624.251,110.764c-2.209,0.00-4.00-1.791-4.00-4.00s 1.79-4.00, 4.00-4.00 c 2.208,0.00, 4.00,1.791, 4.00,4.00S 2626.459,110.764, 2624.251,110.764z M 2645.688,98.438L 2602.313,98.438 l0.00-68.875 L 2645.688,29.563 L 2645.688,98.438 zM 2918.335,54.063c-2.604-13.74-14.666-23.944-28.945-23.944c-8.774,0.00-16.908,3.821-22.468,10.396 c-9.287-2.477-19.02,2.945-21.733,12.195C 2835.54,55.544, 2828.65,64.474, 2828.65,74.826c0.00,12.713, 10.342,23.055, 23.305,23.055L 2908.295,97.881 c 12.713,0.00, 23.055-10.342, 23.055-23.055C 2931.35,65.847, 2926.235,57.864, 2918.335,54.063z M 2908.295,87.881L 2851.955,87.881 c-7.449,0.00-13.306-5.856-13.306-13.055c0.00-8.52, 6.912-15.02, 15.546-13.454c-2.884-9.899, 11.033-15.482, 16.16-8.087 c 1.289-3.646, 6.456-13.165, 19.033-13.165c 9.507,0.00, 19.34,6.52, 19.666,21.245c 6.341,0.025, 12.295,4.608, 12.295,13.461 C 2921.35,82.025, 2915.494,87.881, 2908.295,87.881zM 3173.526,56.91c-1.111-13.992-12.817-25.00-27.094-25.00c-9.704,0.00-18.22,5.087-23.029,12.738 c-9.046-5.114-20.581,0.903-21.304,11.475C 3092.182,57.337, 3084.50,65.783, 3084.50,76.028c0.00,11.079, 8.982,20.061, 20.061,20.061l 24.567,0.00 l0.00-18.327 l-8.304,0.00 l 17.675-17.703l 17.674,17.703l-8.303,0.00 l0.00,18.327 l 19.567,0.00 c 11.079,0.00, 20.061-8.982, 20.061-20.061 C 3187.50,67.072, 3181.629,59.488, 3173.526,56.91zM 101.526,312.91c-1.111-13.992-12.817-25.00-27.094-25.00c-9.704,0.00-18.22,5.087-23.029,12.738 c-9.046-5.114-20.581,0.903-21.304,11.475C 20.182,313.337, 12.50,321.783, 12.50,332.028c0.00,11.079, 8.982,20.061, 20.061,20.061l 62.877,0.00 c 11.079,0.00, 20.061-8.982, 20.061-20.061C 115.50,323.072, 109.629,315.488, 101.526,312.91z M 66.50,344.063l-17.174-17.203l 8.303,0.00 l0.00-17.799 l 17.742,0.00 l0.00,17.799 l 8.304,0.00 L 66.50,344.063zM 359.563,363.50L 359.563,276.50 c0.00-4.418-3.582-8.00-8.00-8.00l-63.125,0.00 c-4.418,0.00-8.00,3.582-8.00,8.00l0.00,87.00 c0.00,4.418, 3.582,8.00, 8.00,8.00 l 63.125,0.00 C 355.981,371.50, 359.563,367.918, 359.563,363.50z M 290.438,360.25L 290.438,279.75 l 59.125,0.00 l0.00,80.50 L 290.438,360.25 z M 317.875,365.937c0.00-1.173, 0.952-2.125, 2.125-2.125 c 1.174,0.00, 2.125,0.952, 2.125,2.125c0.00,1.174-0.951,2.125-2.125,2.125C 318.827,368.062, 317.875,367.111, 317.875,365.937zM 561.402,357.664c-1.119,3.972-6.555,9.408-10.527,10.527l 50.25,0.00 c-3.836-0.991-9.536-6.691-10.527-10.527L 561.402,357.664 z M 621.25,271.809L 530.75,271.809 c-3.452,0.00-6.25,2.798-6.25,6.25l0.00,67.131 c0.00,3.452, 2.798,6.25, 6.25,6.25 l 90.50,0.00 c 3.452,0.00, 6.25-2.798, 6.25-6.25L 627.50,278.059 C 627.50,274.608, 624.702,271.809, 621.25,271.809z M 616.973,331.25L 535.027,331.25 l0.00-48.913l 81.945-0.001L 616.972,331.25 z M 861.382,276.417c-2.273,0.00-4.454-0.899-6.066-2.502L 849.875,268.50l-35.75,0.00 l-5.442,5.415 c-1.612,1.603-3.793,2.502-6.066,2.502L 787.875,276.417 L 787.875,371.50 l 88.25,0.00 L 876.125,276.417 L 861.382,276.417 z M 866.00,361.375L 797.75,361.375 l0.00-75.00 l 15.583,0.00 l 6.229,6.25L 844.875,292.625 l 6.313-6.25L 866.00,286.375 L 866.00,361.375 z M 806.218,313.215l 2.25-2.08c 2.632,1.274, 4.301,2.243, 7.26,4.352c 5.561-6.312, 9.237-9.514, 16.068-13.764 l 0.732,1.684c-5.633,4.916-9.759,10.392-15.70,21.046C 813.164,320.138, 810.719,317.386, 806.218,313.215z M 806.218,339.965 l 2.25-2.08c 2.632,1.274, 4.301,2.243, 7.26,4.352c 5.561-6.312, 9.237-9.514, 16.068-13.764l 0.732,1.684 c-5.633,4.916-9.759,10.392-15.70,21.046C 813.164,346.888, 810.719,344.136, 806.218,339.965z M 857.396,311.125l-17.50,0.00 l0.00-5.00 l 17.50,0.00 L 857.396,311.125 z M 857.396,315.50l-17.50,0.00 l0.00,5.00 l 17.50,0.00 L 857.396,315.50 z M 857.396,340.292l-17.50,0.00 l0.00-5.00 l 17.50,0.00 L 857.396,340.292 z M 857.396,344.667l-17.50,0.00 l0.00,5.00 l 17.50,0.00 L 857.396,344.667 zM 1123.347,285.533c0.00,2.509-2.034,4.543-4.543,4.543s-4.543-2.034-4.543-4.543L 1114.262,274.101 c0.00-2.509, 2.034-4.543, 4.543-4.543s 4.543,2.034, 4.543,4.543L 1123.347,285.533 z M 1061.972,274.08c0.00-2.509-2.034-4.543-4.543-4.543 c-2.509,0.00-4.543,2.034-4.543,4.543l0.00,11.432 c0.00,2.509, 2.034,4.543, 4.543,4.543c 2.509,0.00, 4.543-2.034, 4.543-4.543L 1061.972,274.08 z M 1128.838,280.713l0.00,4.654 c0.00,5.532-4.501,10.034-10.033,10.034c-5.532,0.00-10.034-4.501-10.034-10.034L 1108.771,280.713 L 1067.463,280.713 l0.00,4.633 c0.00,5.532-4.501,10.034-10.033,10.034c-5.532,0.00-10.034-4.501-10.034-10.034L 1047.396,280.713 L 1036.50,280.713 l0.00,89.75 l 103.00,0.00 l0.00-89.75 L 1128.838,280.713 z M 1129.50,360.463L 1046.50,360.463 L 1046.50,304.845 l 83.00,0.00 L 1129.50,360.463 z M 1090.54,339.794c0.00-3.683-1.92-6.56-5.097-7.781c 2.429-1.213, 3.841-3.704, 3.841-6.902 c0.00-6.178-6.026-9.87-11.851-9.87c-6.779,0.00-11.898,4.247-12.208,12.689l 7.549,0.00 c-0.065-3.493, 1.247-6.037, 4.707-6.037 c 2.062,0.00, 4.282,1.249, 4.282,3.992c0.00,3.462-3.748,3.958-7.197,3.657l0.00,5.876 c 4.902,0.00, 7.825,0.311, 7.825,4.523 c0.00,3.325-2.514,4.813-5.006,4.813c-3.78,0.00-5.322-2.819-5.459-6.666l-7.495,0.00 c-0.142,8.687, 5.122,13.269, 13.05,13.269 C 1084.566,351.356, 1090.54,347.026, 1090.54,339.794z M 1110.344,350.727L 1110.344,315.916 l-6.389,0.00 c-0.792,5.297-4.57,6.846-9.971,6.70 l0.00,6.182 l 8.501,0.00 l0.00,21.928 L 1110.344,350.727 zM 1364.882,348.578L 1322.876,348.578 l0.00-7.50 l 42.005,0.00 L 1364.882,348.578 z M 1364.874,334.724l-16.36,0.00 l0.00-7.50 l 16.36,0.00 L 1364.874,334.724 z M 1364.874,320.891l-16.36,0.00 l0.00-7.50 l 16.36,0.00 L 1364.874,320.891 z M 1354.454,278.50l0.00,21.438 l 21.466,0.00 L 1375.921,361.50 L 1312.079,361.50 L 1312.079,278.50 L 1354.454,278.50 M 1360.704,268.50L 1302.079,268.50 l0.00,103.00 l 83.841,0.00 L 1385.921,293.688 L 1360.704,268.50z M 1341.75,334.724l-18.874,0.00 l0.00-21.333 L 1341.75,313.391 L 1341.75,334.724 zM 1600.00,271.021L 1612.157,308.438L 1651.50,308.438L 1619.671,331.563L 1631.829,368.98L 1600.00,345.855L 1568.171,368.98L 1580.329,331.563L 1548.50,308.438L 1587.843,308.438 zM 1879.415,285.564l 5.247-7.636l 8.229,5.681l-5.223,7.601 C 1885.123,289.062, 1882.36,287.165, 1879.415,285.564z M 1848.431,268.28l0.00,11.925 c 2.468-0.383, 4.995-0.583, 7.569-0.583 c 2.526,0.00, 5.007,0.192, 7.431,0.561L 1863.431,268.28 L 1848.431,268.28 z M 1898.923,328.796c0.00,23.706-19.217,42.924-42.923,42.924 c-23.706,0.00-42.923-19.218-42.923-42.924c0.00-23.706, 19.217-42.923, 42.923-42.923 C 1879.707,285.872, 1898.923,305.09, 1898.923,328.796z M 1887.673,328.796c0.00-17.508-14.169-31.674-31.674-31.674 c-17.508,0.00-31.673,14.169-31.673,31.674c0.00,17.508, 14.169,31.674, 31.673,31.674 C 1873.508,360.47, 1887.673,346.301, 1887.673,328.796z M 1864.316,331.057c0.00,4.349-3.526,7.875-7.875,7.875 c-4.349,0.00-7.875-3.526-7.875-7.875c0.00-2.825, 1.489-5.302, 3.724-6.691l 2.881-21.652c 0.059-0.487, 0.468-0.857, 0.958-0.868 c 0.49-0.011, 0.914,0.341, 0.995,0.825l 3.333,21.612C 1862.766,325.655, 1864.316,328.174, 1864.316,331.057zM 2163.382,318.875c 0.076,3.515-0.196,6.973-0.823,10.414L 2151.625,326.48 c 0.411-2.543, 0.575-5.063, 0.505-7.605L 2163.382,318.875 z M 2160.679,336.55l-10.94-2.811c-0.892,2.458-2.018,4.804-3.349,7.013 l 9.189,6.532C 2157.671,343.943, 2159.391,340.347, 2160.679,336.55z M 2141.882,361.873c 3.427-2.459, 6.54-5.329, 9.267-8.537 l-9.213-6.549c-1.743,1.953-3.672,3.735-5.761,5.317L 2141.882,361.873z M 2060.396,320.00c0.00,28.443, 23.057,51.50, 51.50,51.50 c 8.502,0.00, 16.521-2.061, 23.588-5.709l-5.687-9.734C 2124.406,358.739, 2118.328,360.25, 2111.897,360.25c-22.23,0.00-40.25-18.02-40.25-40.25 s 18.02-40.25, 40.25-40.25c 10.947,0.00, 21.872,4.372, 29.128,11.463l-8.965,8.965l 31.544,5.758L 2157.846,274.392l-8.865,8.865 C 2139.689,274.13, 2125.95,268.50, 2111.897,268.50C 2083.454,268.50, 2060.396,291.557, 2060.396,320.00z M 2125.135,334.882l0.00-6.551 l-11.969,0.00 l0.00-5.974 l 12.562-16.859l 5.945,0.00 l0.00,17.024 l 3.761,0.00 l0.00,5.809 l-3.761,0.00 l0.00,6.551 L 2125.135,334.882 z M 2125.135,322.522l0.00-7.823 l-5.827,7.823L 2125.135,322.522 z M 2089.287,334.882c0.00-4.435, 1.273-7.885, 5.697-11.162c 5.21-3.859, 9.183-5.374, 9.183-8.948c0.00-2.361-1.421-3.828-3.707-3.828 c-3.187,0.00-3.949,3.336-3.949,6.51l-6.56,0.00 c-0.276-8.222, 4.391-12.522, 10.792-12.522c 5.936,0.00, 10.244,3.951, 10.244,9.395 c0.00,2.717-0.844,4.871-2.655,6.78c-2.87,3.024-7.168,4.55-9.988,7.763l 12.805,0.00 l0.00,6.011 L 2089.287,334.882 zM 2372.476,289.987l0.00-7.159 l 11.89-11.89c 1.756,0.584, 3.471,1.258, 5.138,2.02 L 2372.476,289.987z M 2402.765,281.707L 2372.476,311.995l0.00,3.526 l 3.632,0.00 l 30.233-30.233C 2405.208,284.037, 2404.014,282.841, 2402.765,281.707z M 2372.476,275.404l 6.033-6.033c-1.972-0.405-3.985-0.699-6.033-0.871L 2372.476,275.404 z M 2418.647,309.575l-5.947,5.947L 2419.50,315.522 C 2419.33,313.504, 2419.042,311.52, 2418.647,309.575z M 2417.087,303.711c-0.581-1.759-1.254-3.476-2.014-5.145l-16.956,16.956l 7.159,0.00 L 2417.087,303.711z M 2412.529,293.684c-0.879-1.486-1.829-2.925-2.848-4.311L 2383.533,315.522l 7.159,0.00 L 2412.529,293.684z M 2398.685,278.361c-1.383-1.021-2.821-1.972-4.306-2.852l-21.903,21.903l0.00,7.158 L 2398.685,278.361z M 2363.708,324.289L 2363.708,268.50 C 2337.266,270.725, 2316.50,292.887, 2316.50,319.904C 2316.50,348.399, 2339.599,371.50, 2368.093,371.50C 2395.11,371.50, 2417.273,350.731, 2419.50,324.289L 2363.708,324.289 zM 2675.50,355.429l0.00,10.00 L 2572.50,365.429 L 2572.50,274.571 l 10.00,0.00 l0.00,80.858 L 2675.50,355.429 z M 2670.241,286.839l-23.828,4.505l 5.744,5.672 l-22.297,22.072l-10.057-9.454l-27.054,26.98l 8.489,8.514l 18.776-18.727l 10.027,9.426l 30.67-30.362l 5.324,5.258 L 2670.241,286.839zM 2917.699,328.175c0.00,0.00-37.545-50.167-42.00-55.788C 2873.704,269.869, 2870.643,268.50, 2866.892,268.50 c-4.624,0.00-10.297,2.078-16.328,6.644c-10.924,8.273-13.788,17.182-9.44,23.333c 4.348,6.151, 42.265,56.159, 42.265,56.159 L 2923.32,371.50L 2917.699,328.175z M 2909.431,328.811c-2.042,1.565-4.821,2.407-7.931,2.342c-4.801-0.096-9.265-2.303-11.943-5.904 c0.00,0.00-17.136-22.892-21.604-28.861c 5.646-3.881, 11.162-4.963, 13.203-5.245C 2890.781,303.918, 2903.876,321.395, 2909.431,328.811z M 2877.731,286.602c-3.334,0.768-8.338,2.447-13.387,6.101c-5.037,3.645-8.149,8.487-9.90,11.987 c-1.356-1.809-2.592-3.461-3.665-4.901c 1.217-2.844, 4.021-8.178, 9.125-11.87c 6.634-4.801, 13.261-5.644, 14.464-5.761 C 2875.367,283.474, 2876.50,284.973, 2877.731,286.602z M 2846.656,290.102c 1.114-2.919, 4.002-6.249, 8.133-9.377 c 4.385-3.321, 8.796-5.225, 12.102-5.225c 1.555,0.00, 2.672,0.415, 3.321,1.234c 0.168,0.212, 0.389,0.495, 0.652,0.835 c-3.317,0.705-8.607,2.361-13.945,6.225c-4.737,3.428-7.771,7.915-9.572,11.349c-0.20-0.276-0.372-0.515-0.507-0.706 C 2846.513,293.975, 2845.646,292.749, 2846.656,290.102z M 2857.937,309.342c 0.915-2.292, 3.215-7.139, 7.51-10.993 c 3.862,5.157, 16.868,22.529, 21.599,28.868c 2.448,3.28, 3.408,7.699, 2.635,12.124c-0.531,3.041-1.873,5.726-3.589,7.271 C 2880.415,339.12, 2867.493,322.052, 2857.937,309.342z M 2909.613,358.113l-21.472-9.068c 2.296-2.027, 4.007-5.345, 4.673-9.156 c 0.469-2.682, 0.395-5.369-0.177-7.887c 2.634,1.442, 5.658,2.27, 8.799,2.333c 0.129,0.003, 0.256,0.004, 0.384,0.004 c 3.546,0.00, 6.768-0.989, 9.257-2.788l 3.037,23.401C 2911.974,355.166, 2910.451,356.192, 2909.613,358.113zM 3179.50,286.566l0.00,19.326 l-15.78,0.00 l-18.76-14.427l-6.282,8.169l 8.155,6.258l-8.461,0.00 l-18.76-14.427 l-11.095,14.427L 3092.25,305.892 L 3092.25,278.415 l 25.087,0.00 l 5.745,5.708c 1.575,1.565, 3.704,2.443, 5.923,2.443L 3179.50,286.566 z M 3187.50,314.632L 3084.50,314.632 L 3090.50,361.585l 89.646,0.00 L 3187.50,314.632zM 12.746,610.276c 3.74-7.439, 7.891-17.649, 7.678-24.767 c-5.038-6.075-7.884-13.904-7.884-21.878c0.00-22.482, 21.81-38.919, 46.227-38.919c 24.265,0.00, 46.227,16.314, 46.227,38.919 c0.00,23.538-25.933,45.521-61.514,36.783C 37.019,604.408, 22.769,608.448, 12.746,610.276z M 110.109,610.477 c 6.793-8.191, 7.486-20.44-0.045-29.713c-7.751,17.46-26.866,30.51-51.402,30.352 c 7.12,8.358, 20.069,13.342, 35.798,9.479c 4.386,2.712, 14.058,5.453, 20.861,6.694 C 112.782,622.24, 109.964,615.309, 110.109,610.477zM 268.436,537.852l0.00,76.296 L 268.525,614.148 l 102.789,0.00 l 0.25,0.00 L 371.564,537.852 L 268.436,537.852 z M 359.883,546.602L 319.987,577.116 L 280.118,546.602L 359.883,546.602 z M 277.186,555.377l 21.376,16.36L 277.186,593.112L 277.186,555.377 z M 277.275,605.398l 28.297-28.297l 14.414,11.032 l 14.344-10.97l 28.235,28.235L 277.275,605.398 z M 362.814,593.274l-21.474-21.474l 21.474-16.424L 362.814,593.274 zM 580.734,560.20c-0.018-0.031, 0.082-0.344, 0.169-0.315c 0.056,0.018, 0.036,0.046, 0.105,0.051 c 0.068,0.005, 0.108-0.074, 0.179-0.062c 0.111,0.019, 0.187,0.122, 0.305,0.126c 0.088,0.002, 0.141-0.086, 0.226-0.092 c 0.062-0.006, 0.117,0.034, 0.179,0.02c 0.065-0.015, 0.115-0.058, 0.171-0.09c 0.109-0.064, 0.094-0.008, 0.219-0.021 c 0.039-0.005, 0.072-0.027, 0.11-0.034c 0.008-0.002, 0.017-0.002, 0.025-0.001c 0.056,0.006, 0.078,0.04, 0.066,0.106 c-0.027,0.145-0.143,0.253-0.162,0.401c-0.013,0.097, 0.112,0.15, 0.08,0.254c-0.079,0.26-0.153,0.274-0.204,0.282 c-0.071,0.012-0.121-0.011-0.151-0.025c-0.089-0.042-0.151-0.124-0.235-0.175c-0.045-0.027-0.097-0.035-0.145-0.055 c-0.146-0.063-0.572-0.356-0.704-0.348c-0.047,0.003-0.086,0.038-0.133,0.034c-0.002,0.00-0.004,0.00-0.006-0.001 C 580.802,560.254, 580.761,560.247, 580.734,560.20z M 571.853,547.523c0.00,0.00,0.00,0.000.00,0.00c-0.009,0.013-0.018,0.026-0.025,0.039 c-0.013,0.026-0.005,0.059, 0.02,0.075c 0.025,0.017, 0.058,0.012, 0.077-0.011c 0.024-0.028, 0.053-0.063, 0.092-0.11 c 0.036-0.044, 0.049-0.059, 0.103-0.083c 0.042-0.018, 0.086-0.035, 0.13-0.049c 0.017-0.005, 0.035-0.003, 0.049,0.008 s 0.022,0.027, 0.021,0.045c-0.004,0.10, 0.029,0.209-0.071,0.288c-0.058,0.045-0.103,0.081-0.138,0.11 c-0.034,0.029-0.043,0.077-0.022,0.116c 0.021,0.039, 0.067,0.058, 0.109,0.046c0.00,0.00,0.00,0.00, 0.005,0.004c 0.004,0.003, 0.006,0.007, 0.007,0.011 c 0.028,0.119, 0.032,0.119, 0.189,0.024c 0.005-0.003, 0.011-0.004, 0.016-0.002c 0.003,0.001, 0.005,0.003, 0.006,0.005 c 0.021,0.042, 0.056,0.075, 0.098,0.095c 0.059,0.029, 0.102,0.083, 0.116,0.149c 0.001,0.004, 0.002,0.008, 0.003,0.012 c 0.001,0.004, 0.002,0.007, 0.004,0.011c 0.053,0.164, 0.01,0.343-0.112,0.465c-0.122,0.121-0.302,0.164-0.465,0.109 c0.00,0.000.00,0.00-0.001,0.00c-0.027-0.009-0.057,0.001-0.074,0.025s-0.015,0.055, 0.003,0.077c 0.016,0.02, 0.035,0.038, 0.035,0.066 c-0.003,0.102-0.131,0.064-0.171,0.131c-0.001,0.001-0.001,0.001-0.002,0.002c-0.003,0.005-0.004,0.01-0.005,0.016 c-0.001,0.013, 0.004,0.026, 0.014,0.035c 0.01,0.009, 0.023,0.012, 0.036,0.009c 0.059-0.013, 0.106-0.063, 0.168-0.068 c 0.117-0.008, 0.029,0.285-0.01,0.329c-0.043,0.048-0.339,0.153-0.432,0.166c-0.06,0.009-0.10,0.015-0.12,0.036 c-0.019,0.021-0.031,0.144, 0.052,0.184c 0.127,0.06, 0.244-0.05, 0.37-0.018c0.00,0.00,0.00,0.00, 0.00,0.00c 0.119,0.031, 0.226,0.095, 0.31,0.184 c 0.007,0.008, 0.016,0.013, 0.025,0.016c 0.041,0.016, 0.086,0.015, 0.127-0.002c 0.01-0.004, 0.019-0.01, 0.028-0.017 c 0.033-0.029, 0.068-0.039, 0.104-0.041c 0.027-0.001, 0.052,0.016, 0.06,0.042c 0.009,0.026,0.00,0.054-0.022,0.07 c-0.091,0.066-0.183,0.132-0.311,0.117c-0.068-0.008-0.137-0.008-0.205-0.001c-0.209,0.022-0.407,0.115-0.559,0.267 c-0.051,0.051-0.104,0.105-0.153,0.154c-0.026,0.027-0.028,0.069-0.005,0.098c 0.023,0.029, 0.065,0.036, 0.096,0.017 c 0.022-0.013, 0.046-0.028, 0.073-0.044c 0.089-0.056, 0.254-0.122, 0.344,0.05c 0.001,0.00, 0.003,0.001, 0.004,0.001 c 0.013,0.004, 0.028,0.001, 0.039-0.007c 0.121-0.091, 0.182-0.26, 0.359-0.276c 0.126-0.01, 0.22,0.114, 0.349,0.086 c 0.145-0.03, 0.265-0.141, 0.422-0.133c 0.058,0.003, 0.217,0.046, 0.233,0.055c 0.044,0.027, 0.044,0.027, 0.279,0.031 c 0.099,0.002, 0.171,0.082, 0.265,0.097c 0.114,0.018, 0.218-0.05, 0.331-0.041c 0.001,0.00, 0.001,0.00, 0.001,0.00c 0.001,0.00, 0.001,0.00, 0.001,0.00 c 0.003,0.00, 0.339-0.064, 0.333-0.203c0.00-0.003-0.002-0.005-0.004-0.007c-0.002-0.001-0.003-0.002-0.004-0.003 c-0.118-0.07-0.197-0.192-0.213-0.328c-0.001-0.011, 0.005-0.02, 0.015-0.023c 0.011-0.003, 0.023-0.001, 0.032,0.006 c 0.007,0.005, 0.014,0.011, 0.02,0.015c 0.036,0.025, 0.059,0.028, 0.072,0.018c 0.081-0.058, 0.167-0.113, 0.253-0.161 c 0.046-0.026, 0.074-0.078, 0.10-0.179c 0.007-0.031, 0.037-0.192-0.167-0.306c-0.001-0.001-0.003-0.002-0.004-0.002 c-0.017-0.009-0.396-0.204-0.503-0.145c-0.071,0.038-0.071,0.038-0.203-0.03c-0.005-0.019, 0.003-0.04, 0.018-0.052 c 0.15-0.116, 0.149-0.117, 0.146-0.15c-0.005-0.072-0.043-0.123-0.086-0.171c-0.038-0.042-0.042-0.103-0.01-0.149 c 0.001-0.001, 0.001-0.002, 0.002-0.002c 0.029-0.039-0.121-0.361-0.123-0.363c-0.01-0.011-0.015-0.017-0.036-0.015 c-0.063,0.004-0.129,0.006-0.192,0.006c-0.008,0.00-0.018,0.001-0.033,0.004c-0.002,0.00-0.004-0.001-0.004-0.002 c-0.004-0.006-0.004-0.013-0.002-0.02c 0.02-0.079-0.057-0.13-0.065-0.202c-0.007-0.073, 0.013-0.145, 0.02-0.217 c 0.006-0.065-0.002-0.139-0.022-0.21c-0.076-0.261-0.064-0.535, 0.029-0.784c 0.039-0.103, 0.092-0.203, 0.157-0.292 c 0.149-0.207-0.521-0.181-0.648-0.172c-0.01,0.001-0.019-0.004-0.025-0.013c-0.005-0.009-0.005-0.019, 0.001-0.028 c 0.033-0.049, 0.037-0.113, 0.083-0.155c 0.061-0.059, 0.144-0.077, 0.214-0.12c 0.154-0.097, 0.025-0.156-0.031-0.171 c-0.135-0.035-0.276-0.053-0.415-0.053c-0.053,0.00-0.105,0.007-0.159,0.028c-0.035,0.013-0.076,0.057-0.117,0.114 c-0.084,0.117-0.183,0.222-0.296,0.311c-0.006,0.005-0.012,0.009-0.018,0.014c-0.032,0.024-0.073,0.029-0.108,0.014 c-0.021-0.009-0.044-0.009-0.065,0.00c-0.004,0.002-0.008,0.004-0.012,0.006c-0.038,0.02-0.067,0.05-0.088,0.084 c-0.026,0.042-0.021,0.096, 0.013,0.132c 0.034,0.036, 0.087,0.045, 0.131,0.022c 0.00,0.001, 0.001,0.002, 0.001,0.002 c 0.006,0.014, 0.006,0.0290.00,0.043c-0.025,0.055-0.033,0.116-0.056,0.172c-0.003,0.006-0.007,0.011-0.015,0.012 c-0.01,0.002-0.02-0.003-0.026-0.011c-0.028-0.044-0.042-0.044-0.061-0.04c-0.002,0.001-0.004,0.001-0.006,0.001 c-0.08,0.017-0.136,0.203-0.133,0.257c 0.001,0.018, 0.007,0.032, 0.015,0.041C 571.934,547.231, 571.944,547.40, 571.853,547.523z M 627.50,576.00C 627.50,604.442, 604.443,627.50, 576.00,627.50C 547.557,627.50, 524.50,604.442, 524.50,576.00C 524.50,547.557, 547.557,524.50, 576.00,524.50 C 604.443,524.50, 627.50,547.557, 627.50,576.00z M 591.239,553.836c-0.003-0.123, 0.204-0.12, 0.224-0.273c 0.009-0.07-0.022-0.139-0.08-0.178 c-0.074-0.05-0.107-0.035-0.198,0.005c-0.053,0.025-0.114,0.052-0.181,0.052c-0.054-0.001-0.099-0.039-0.109-0.092 c-0.009-0.047, 0.015-0.094, 0.056-0.117c 0.016-0.009, 0.021-0.028, 0.013-0.044c0.00,0.000.00-0.0010.00-0.001 c-0.006-0.012-0.017-0.021-0.029-0.024c-0.142-0.035-0.262-0.056-0.361-0.068c-0.187-0.023-0.378-0.008-0.558,0.043 c-0.149,0.041-0.157,0.065-0.191,0.164c-0.091,0.257-0.128,0.36-0.162,0.405c-0.124,0.164-0.213,0.348-0.263,0.548 c-0.019,0.076-0.058,0.142-0.146,0.184c0.00,0.00-0.001,0.00-0.009,0.00c0.00,0.002-0.053,0.465-0.049,0.515c 0.007,0.105, 0.069,0.206, 0.032,0.316 c-0.032,0.094-0.163,0.073-0.196,0.166c-0.001,0.002-0.001,0.003-0.002,0.004c-0.054,0.156, 0.012,0.393, 0.05,0.552 c 0.003,0.014-0.003,0.029-0.016,0.035c-0.013,0.007-0.028,0.004-0.038-0.006c-0.001-0.001-0.001-0.001-0.001-0.001 c-0.067-0.064-0.10-0.043-0.117-0.014c-0.012,0.021-0.011,0.047, 0.003,0.066c0.00,0.00, 0.00,0.00, 0.00,0.001l 0.192,0.269 c 0.193,0.27, 0.453,0.479, 0.757,0.608c 0.001,0.00, 0.001,0.00, 0.001,0.00c 0.166,0.073, 0.326-0.039, 0.491-0.02 c 0.183,0.021, 0.366-0.011, 0.55-0.011c 0.063,0.00, 0.189-0.019, 0.269-0.053c 0.065-0.028, 0.071-0.074, 0.077-0.129 c 0.001-0.004, 0.001-0.009, 0.001-0.014c 0.004-0.047, 0.011-0.053, 0.216-0.215c 0.147-0.116, 0.327-0.178, 0.475-0.294 c 0.251-0.197, 0.571,0.00, 0.843-0.084c 0.062-0.019, 0.914,0.301, 0.97,0.329c 0.002,0.001, 0.003,0.001, 0.004,0.002 c 0.251,0.105, 0.923,0.11, 1.084,0.155c 0.066,0.018, 0.164,0.04, 0.259,0.038c 0.006-0.003, 0.013-0.006, 0.019-0.009 c 0.133-0.063, 0.217-0.272, 0.403-0.178c 0.322,0.162, 1.232,0.02, 1.01-0.732c-0.12-0.408-0.658-0.63-0.82-0.689 c-0.487-0.176-0.806-0.595-1.235-0.858c-0.189-0.116-0.411-0.012-0.607-0.09c-0.441-0.175-0.441-0.175-0.464-0.302 c-0.002-0.01, 0.002-0.02, 0.009-0.029c 0.119-0.167, 0.207-0.35, 0.263-0.547c 0.001-0.002, 0.001-0.004, 0.001-0.005 c 0.021-0.07, 0.047-0.104-0.029-0.153c-0.101-0.064-0.294-0.003-0.314-0.168c-0.015-0.131, 0.268-0.278, 0.384-0.345 c 0.098-0.056, 0.139-0.13, 0.156-0.177c 0.026-0.072-0.063-0.171-0.102-0.165c-0.135,0.015-0.506,0.236-0.559,0.242 c-0.001,0.00-0.002,0.00-0.002,0.00c-0.017,0.002-0.033,0.007-0.048,0.016c-0.001,0.001,0.00,0.00-0.001,0.001l-0.848,0.49 c-0.001,0.001-0.002,0.001-0.003,0.002c-0.151,0.111-0.234,0.291-0.22,0.477c 0.013,0.186, 0.121,0.353, 0.286,0.441 c 0.07,0.037, 0.171,0.057, 0.136,0.128c0.00,0.000.00,0.000.00,0.001c-0.017,0.035-0.48,0.474-0.529,0.481 c-0.125,0.015-0.167-0.046-0.177-0.065c-0.004-0.008-0.008-0.016-0.011-0.024c-0.073-0.209-0.24-0.38-0.476-0.451 C 591.272,553.931, 591.24,553.886, 591.239,553.836z M 617.221,576.00c0.00-4.268-0.731-8.581-1.479-10.861 c-0.234-0.715-0.776-1.287-1.476-1.559c-0.701-0.272-1.487-0.215-2.142,0.156c-1.651,0.934-1.599,1.053-2.176,1.023 c-0.264-0.013-1.448,0.774-1.872-0.129c-0.08-0.17-0.496-0.935-1.073,0.12c-0.156,0.286-1.01,0.07-1.292-0.087 c-0.831-0.464-1.855-1.548-2.107-1.821c-0.001,0.001-0.002,0.001-0.002,0.001c0.00,0.00-0.001,0.001-0.001,0.001 c-0.284-0.329-1.105,0.121-0.501,1.019c 2.022,3.014, 2.377,3.041, 2.949,3.341c 0.001,0.00, 0.001,0.00, 0.001,0.00 c 0.27-0.203, 0.232-0.267, 0.583-0.316c 0.217-0.031, 0.405-0.167, 0.502-0.364c 0.001-0.002, 0.002-0.004, 0.003-0.005 c 0.111-0.227, 0.321-0.391, 0.568-0.442s 0.505,0.016, 0.697,0.181c 0.002,0.002, 0.004,0.003, 0.006,0.005 c 0.35,0.301, 0.801,0.023, 1.173,0.20c 0.944,0.443, 0.584,1.345, 0.397,2.413c-0.001,0.003-0.003,0.005-0.005,0.007 c-0.003,0.002-0.006,0.003-0.009,0.002c-0.087-0.018-0.169,0.05-0.17,0.138c-0.003,0.339, 0.213,0.655, 0.147,1.001 c-0.003,0.013-0.01,0.023-0.022,0.029c-0.114,0.056-0.214,0.131-0.301,0.223c-0.27,0.287-0.288,0.649-0.522,0.973 c-0.22,0.307, 0.017,0.992-0.511,0.996c-0.203,0.001-0.877,0.39-0.982,0.833c-0.123,0.526-0.411,0.995-0.825,1.343 c-0.304,0.256-0.717,0.589-1.287,1.033c-0.271,0.211-1.366,1.393-2.31,1.614c-0.13,0.03-0.265-0.019-0.344-0.127 c-0.005-0.006-0.009-0.013-0.013-0.02c-0.621-0.964-0.751-2.122-1.239-3.137c-0.577-1.204-2.138-1.522-2.572-2.856 c-0.367-1.126-0.521-1.60-1.034-1.891c-0.359-0.203-0.658-0.485-0.879-0.832c-0.36-0.566-0.908-1.37-1.358-1.804 c-0.204-0.197-0.339-0.452-0.386-0.732c-0.021-0.126-0.206-0.116-0.213,0.012c-0.026,0.448, 0.057,0.589-0.068,0.684 c-0.105,0.079-0.234,0.036-0.326-0.059c-0.321-0.331-0.846-0.932-0.978-1.268c-0.001,0.002-0.001,0.003-0.001,0.005 c-0.034,0.131-0.009,0.27, 0.069,0.38c 0.695,0.989, 4.08,5.878, 4.166,6.34c 0.564,3.076, 2.946,3.813, 4.162,4.947 c 0.228,0.213, 0.379,0.489, 0.438,0.786c 0.057,0.283, 0.192,0.529, 0.404,0.724c 0.224,0.207, 0.449,0.179, 1.718,0.021 c 0.211-0.027, 0.348-0.178, 0.493-0.313c 0.125-0.116, 1.155-0.48, 1.29-0.565c 0.278-0.18-0.068-0.074, 0.572-0.377 c 0.25-0.121, 0.544-0.874, 0.495-0.019c-0.011,0.22, 0.112,0.419, 0.089,0.64c-0.133,1.297-0.241,1.513-0.316,1.763 c-0.099,0.332-0.23,0.652-0.312,0.989c-0.389,1.59-1.004,3.286-2.075,4.54c-0.023,0.027-0.046,0.051-0.072,0.076 c-0.592,0.548-1.671,1.56-2.55,3.282c-0.553,1.083-1.336,2.025-1.913,3.091c-0.194,0.362-0.243,0.452-0.07,0.939 c 0.122,0.347, 0.489,1.954, 0.546,4.012c 0.061,2.245-0.30,2.613-1.019,3.134c-1.151,0.834-1.936,1.402-2.475,1.801 c-0.632,0.466-1.009,1.202-1.018,1.987c-0.004,0.289-0.071,0.653-0.269,1.092c 0.001,0.001, 0.001,0.002, 0.002,0.004 c 0.042,0.079-1.484,0.842-2.01,1.462c-0.001,0.001-0.001,0.001-0.001,0.001c-0.003,0.015-0.001,0.031, 0.004,0.045 c 0.354,1.111-4.142,4.335-5.077,4.328c-0.676-0.005-2.334,0.259-3.125,0.597c-0.532,0.227-1.973-0.262-2.079-0.568 c-0.016-0.046-0.021-0.13, 0.017-0.161c 0.352-0.292-0.837-2.01-1.12-2.206c-0.182-0.126-0.528-0.928-0.669-1.129 c-0.433-0.614, 0.312-1.478-0.172-2.089c-0.026-0.032-0.051-0.067-0.075-0.10l-1.401-1.957c-0.218-0.304-0.837-0.664-0.84-1.038 c0.00-0.001,0.00-0.002,0.00-0.002c-0.004-0.408, 0.725-2.377, 0.783-2.459c 0.067-0.096, 0.13-0.20, 0.182-0.305 c 0.03-0.059, 0.085-0.101, 0.193-0.157c 0.355-0.182, 0.865-0.631, 0.282-1.583c-0.034-0.058-0.034,0.193-0.219-1.126 c-0.121-0.867-1.26-2.831-1.454-3.037c0.00,0.00-1.321-0.631-1.927-1.874c 0.031-0.071, 0.078-0.132, 0.138-0.181 c 0.559-0.447, 0.459-1.008, 0.623-2.215c 0.008-0.06, 0.019-0.121, 0.032-0.181c 0.001-0.004, 0.001-0.006, 0.002-0.009l 0.017-0.08 c 0.001-0.003, 0.001-0.006, 0.002-0.008c 0.00-0.001, 0.00-0.002, 0.001-0.002c 0.05-0.238, 0.113-0.556-0.212-1.047 c-0.057-0.086-0.157-0.133-0.259-0.123c-0.005,0.001-0.011,0.001-0.016,0.002c-0.178,0.015-0.336-0.115-0.354-0.293 c-0.001-0.003-0.001-0.005-0.001-0.006c0.00-0.003-0.002-0.004-0.004-0.005c-0.262-0.106-0.551-0.121-0.822-0.042 c-0.596,0.174-1.862,0.434-2.004-0.386c-0.191-1.101-0.944-1.341-1.313-1.317c-1.573,0.111-2.904,1.462-4.529,1.353 c-0.072-0.004-0.164-0.039-0.233-0.065c-1.402-0.529-2.916-0.54-4.341-0.814c-0.484-0.093-1.181-0.328-1.532-0.673l-1.998-1.965 c-0.13-0.128-0.245-0.269-0.345-0.421c-0.634-0.974-0.87-3.118-1.039-3.502c-0.025-0.056-0.052-0.112-0.081-0.166l-0.172-0.325 c-0.002-0.004-0.004-0.007-0.006-0.011c0.00,0.000.00,0.00-0.001-0.001c-0.466-0.609-0.611-1.406-0.39-2.14l 0.79-2.625 c 0.011-0.038, 0.023-0.079, 0.033-0.118c 0.021-0.084, 0.037-0.17, 0.049-0.254c 0.188-1.304-0.061-1.78-0.184-2.014 c-0.228-0.436-0.228-0.436, 0.90-2.007c 2.052-2.862, 2.405-3.005, 2.814-3.17c0.00,0.00,0.00,0.00,0.00,0.001c 0.002,0.00, 0.003,0.00, 0.004,0.00 c 0.893,0.101, 2.583-0.987, 2.551-1.578c-0.009-0.19-0.031-0.584, 0.302-1.109c 0.129-0.203, 0.292-0.386, 0.478-0.537l 1.845-1.499 c 0.341-0.277, 0.821-0.301, 1.187-0.059c0.00,0.00,0.00,0.00, 0.00,0.00c 0.249-0.087, 0.523-0.077, 0.764,0.03c 0.316,0.139, 0.517,0.042, 0.617-0.004 c 1.117-0.536, 2.337-0.70, 8.001-1.061c 0.192-0.012, 0.377,0.071, 0.495,0.223c 0.001,0.001, 0.002,0.003, 0.003,0.004 c 0.334,0.431, 0.085,0.376, 0.463,1.013c 0.144,0.242, 0.003,0.426-0.451,0.883c-0.172,0.173-0.144,0.45-0.088,0.459 c 0.155,0.008, 0.523,0.104, 0.828,0.264c 0.401,0.209, 1.036,0.416, 1.563,0.569c 0.479,0.138, 0.905,0.417, 1.225,0.80 c 0.207,0.25, 3.011,1.925, 2.898-0.352c-0.008-0.159, 0.148-0.435, 0.409-0.648c 0.911-0.742, 1.579,0.218, 1.829,0.275 c 0.402,0.092, 0.454,0.091, 0.724,0.086c 0.002,0.00, 0.005,0.00, 0.007,0.00c 0.001,0.00, 0.003,0.00, 0.004,0.00c 0.25,0.004, 0.365,0.291, 1.165,0.237 c 1.384-0.093, 2.78,0.125, 4.159-0.119c 0.154-0.028, 0.37-0.078, 0.491-0.178c 1.528-1.263-0.021-2.808, 0.216-4.201 c 0.001-0.004-0.001-0.008-0.004-0.011c-0.003-0.003-0.007-0.005-0.011-0.004c0.00,0.00-0.001,0.00-0.001,0.00 c-0.472,0.037-0.92,0.224-1.278,0.532c-0.129,0.111-0.287,0.191-0.504,0.213c-0.382,0.038-0.68-0.21-1.012-0.336 c-0.167-0.064-0.354,0.02-0.418,0.187c0.00,0.001-0.001,0.002-0.001,0.004c-0.129,0.311-1.586,0.082-2.022-0.648 c-0.132-0.222-0.332-0.394-0.571-0.49c0.00,0.00-0.001-0.001-0.002-0.001c 0.005-0.005, 0.011-0.009, 0.016-0.015 c 0.43-0.405-0.227-0.717-0.299-1.032c-0.036-0.157, 0.046-0.316, 0.196-0.377c 0.003-0.001, 0.005-0.002, 0.009-0.004 c 0.357-0.136, 0.519-0.329, 0.448-0.277c-0.152,0.112-0.331,0.177-0.519,0.188c-0.001,0.00-0.001,0.00-0.001,0.00 c-0.10,0.005-0.198-0.017-0.285-0.065c-0.211-0.117-0.451-0.179-0.693-0.179c-0.29,0.00-0.585,0.084-0.644,0.371 c-0.011,0.053-0.042,0.101-0.086,0.132c0.00,0.000.00,0.00-0.001,0.00c-0.037,0.026-0.086,0.031-0.127,0.013 c-0.074-0.035-0.146-0.026-0.203,0.013c-0.06,0.041-0.093,0.107-0.086,0.197c 0.022,0.25, 0.698,0.507, 0.151,0.759l-0.004,0.003 c0.00,0.00-0.236,0.138-0.256,0.147c-0.225,0.112-0.519-0.136-0.715-0.148c-0.064-0.004-0.125,0.023-0.19,0.022c-0.002,0.00-0.004,0.00-0.005,0.00 c-0.038-0.001-0.062-0.016-0.071-0.023c-0.001-0.001-0.002-0.002-0.003-0.002c-0.019-0.017-0.231-0.204-0.264-0.263 c-0.083-0.141-0.091-0.154-0.135-0.201c-0.035-0.036-0.097-0.083-0.146-0.118c-0.107-0.076-0.174-0.195-0.184-0.326 c0.00,0.00,0.00,0.00,0.00-0.001c-0.007-0.102-0.019-0.244-0.038-0.401c-0.042-0.35-0.218-0.67-0.493-0.891 c-0.071-0.057-0.16-0.087-0.25-0.083c-0.058,0.003-0.116-0.013-0.166-0.046c-0.232-0.154-0.386-0.187-0.386-0.187 c-0.001-0.001-0.002-0.001-0.002-0.002l-1.81-1.32c-0.104-0.075-0.23-0.112-0.358-0.104c-0.106,0.007-0.164-0.093-0.222-0.182 c-0.117-0.177-0.336-0.258-0.539-0.197c-0.009,0.003-0.017,0.005-0.025,0.009c-0.128,0.049-0.188,0.203-0.119,0.328 c 0.038,0.069, 0.08,0.136, 0.124,0.20l 1.053,1.532c 0.175,0.254, 0.465,0.404, 0.772,0.401c 0.126-0.001, 0.232,0.094, 0.245,0.219 c 0.006,0.06, 0.041,0.117, 0.097,0.149c 0.502,0.289, 1.151,0.331, 1.50,0.877c 0.004,0.005, 0.006,0.011, 0.007,0.018 c 0.001,0.002, 0.001,0.004, 0.001,0.005c0.00,0.001,0.00,0.001,0.00,0.002c 0.002,0.041-0.025,0.172-0.047,0.211 c-0.036,0.068-0.171,0.098-0.21,0.063c-0.028-0.025-0.026-0.085-0.023-0.149c 0.001-0.02-0.005-0.045-0.014-0.071 c-0.052-0.146-0.162-0.175-0.303-0.236c-0.194-0.082-0.417,0.004-0.505,0.195c-0.001,0.002-0.002,0.004-0.003,0.006 c-0.003,0.005-0.005,0.011-0.007,0.017c-0.084,0.217, 0.056,0.283, 0.131,0.32c 0.117,0.055, 0.296,0.141, 0.247,0.395 c-0.02,0.107-0.138,0.069-0.201,0.115c0.00,0.00, 0.04-0.037-0.17,0.384c-0.074,0.143-0.005,0.177-0.191,0.272 c-0.156,0.076-0.23-0.025-0.249-0.057c-0.068-0.115, 0.026-0.218, 0.023-0.33c-0.002-0.05-0.003-0.094, 0.142-0.154 c 0.207-0.087-0.012-0.427-0.136-0.619c-0.001-0.002-0.003-0.004-0.004-0.006c-0.254-0.439-0.086-0.084-0.379-0.357 c-0.18-0.169-0.654-0.452-0.747-0.567c-0.622-0.77-1.641-1.135-2.175-1.994c-0.108-0.174-0.266-0.313-0.452-0.398 c-0.122-0.056-0.267-0.096-0.427-0.088c-0.154,0.007-0.888,0.426-1.477,0.762c-0.555,0.318-0.957-0.432-1.497-0.217 c-0.584,0.232-0.239,0.996-0.734,1.28c-0.564,0.322-1.237,0.429-1.734,0.883c-0.02,0.018-0.035,0.046-0.048,0.075 c-0.152,0.35-0.418,0.502-0.436,0.589c-0.015,0.072-0.022,0.103, 0.009,0.204c 0.066,0.2110.00,0.441-0.168,0.585 c0.00,0.00-0.001,0.001-0.001,0.001c-0.109,0.096-0.018,0.398-0.117,0.453c-0.184,0.095-0.383-0.009-0.57,0.044 c-0.282,0.08-0.296,0.445-0.572,0.529c-0.361,0.109-0.71-0.119-1.069-0.04c-0.812,0.177-0.812,0.177-0.843,0.251 c-0.029,0.067-0.094,0.178-0.208,0.177c-0.421-0.009-0.266-0.537-0.465-0.765c-0.215-0.248-0.275-0.221-0.372-0.179 c-0.131,0.057-0.351,0.152-0.419,0.113c-0.09-0.056-0.162-0.139-0.267-0.17c-0.072-0.021-0.132-0.07-0.167-0.137 c-0.06-0.119, 0.09-0.60, 0.124-0.738c 0.021-0.083, 0.015-0.171-0.015-0.251c-0.036-0.094-0.126-0.157-0.226-0.16 c-0.019,0.00-0.038-0.009-0.051-0.023c-0.118-0.13, 0.366-0.62, 0.50-0.87c 0.021-0.039, 0.043-0.095, 0.059-0.136 c 0.414-1.059, 0.413-1.418, 0.328-1.772c-0.037-0.156, 0.076-0.308, 0.236-0.317c 0.089-0.005, 0.181-0.009, 0.258-0.012c0.00,0.00, 0.00,0.00,0.00,0.00 c 0.172-0.20, 0.458-0.257, 0.693-0.138c 0.32,0.162, 0.957,0.394, 2.046,0.445c 0.264,0.013, 0.528,0.068, 0.774,0.162 c 0.231,0.088, 0.427-0.114, 0.513-0.224c 0.203-0.26, 0.172-0.581, 0.213-0.884c 0.021-0.16, 0.111-0.303, 0.246-0.392c0.00,0.00,0.00,0.00, 0.00,0.00 c 0.036-0.024, 0.054-0.067, 0.046-0.11c-0.011-0.057-0.057-0.513-0.113-0.518c-0.003,0.00-0.005-0.001-0.007-0.001 c-0.451-0.049-0.307-0.628-0.603-0.815c-0.25-0.159-0.239-0.267-0.863-0.335c-0.09-0.009, 0.122-0.442, 0.484-0.558 c 0.021-0.007, 0.043-0.005, 0.063,0.005c 0.223,0.112, 0.471,0.165, 0.72,0.153c 0.094-0.004, 0.181-0.052, 0.236-0.128 c 0.055-0.076, 0.073-0.173, 0.047-0.265c0.00-0.002-0.001-0.003-0.001-0.005c-0.026-0.095, 0.056-0.24, 0.162-0.17 c 0.207,0.136, 0.311,0.224, 0.672,0.172c 0.089-0.013, 0.162-0.079, 0.182-0.167c 0.01-0.042, 0.036-0.077, 0.074-0.099 c 0.405-0.23, 0.577-0.332, 0.657-0.424c 0.192-0.222, 0.418-0.407, 0.675-0.549c 0.366-0.204, 0.545-0.337, 0.895-0.654 c 0.15-0.136, 0.331-0.231, 0.528-0.277c 0.06-0.014, 0.10-0.072, 0.09-0.134c-0.002-0.011, 0.001-0.024, 0.009-0.033 c 0.066-0.087, 0.166-0.142, 0.276-0.153c 0.255-0.024, 0.407-0.024, 0.514-0.024c 0.001-0.001, 0.002-0.002, 0.003-0.004 c 0.074-0.085, 0.181-0.132, 0.294-0.129c 0.268,0.008, 0.619,0.131, 0.563-0.602c-0.084-0.659, 0.136-1.324, 0.595-1.804 c 0.001-0.001, 0.002-0.002, 0.002-0.002c 0.207,0.088, 0.162,0.299, 0.197,0.523c 0.021,0.134-0.019,0.271-0.11,0.37 c-0.002,0.001-0.003,0.003-0.004,0.005c-0.878,0.974, 0.247,0.943, 0.278,1.193c 0.00,0.001, 0.00,0.003, 0.001,0.004 c 0.004,0.042, 0.027,0.08, 0.063,0.102c 0.036,0.022, 0.08,0.027, 0.12,0.013c 0.038-0.014, 0.906-0.376, 0.94-0.354 c 0.164,0.103, 0.04,0.156, 0.171,0.277c 0.001,0.001, 0.002,0.002, 0.004,0.003c 0.197,0.181, 0.485,0.218, 0.721,0.093 c 0.498-0.265, 1.073-0.353, 1.628-0.251c 0.274,0.05, 0.949-0.605, 0.824-0.97c0.00,0.00,0.00,0.000.00-0.001 c-0.076-0.223-0.089-0.462-0.038-0.692c 0.032-0.144-0.027-0.223, 0.138-0.331c 0.083-0.054, 0.187-0.063, 0.278-0.022 c 0.116,0.052, 0.251,0.056, 0.372,0.004c 0.16-0.068, 0.269-0.22, 0.281-0.394c0.00-0.001, 0.00-0.002, 0.00-0.003 c 0.003-0.035-0.015-0.069-0.044-0.087c-0.149-0.093-0.234-0.267-0.211-0.446c 0.025-0.198, 0.176-0.357, 0.372-0.392 c 0.575-0.105, 0.678,0.218, 1.224-0.269c 0.033-0.029, 0.047-0.074, 0.036-0.117c-0.011-0.043-0.045-0.075-0.088-0.085 c0.00,0.000.00,0.00-0.001,0.00c-0.452-0.098-0.923-0.068-1.359,0.085l-0.527,0.184c-0.001,0.00-0.001,0.001-0.003,0.001 c-0.001,0.00-0.001,0.001-0.002,0.001c-0.001,0.00-0.001,0.001-0.001,0.001c-0.089,0.058-0.195,0.085-0.30,0.076 c-0.367-0.029-0.599-0.378-0.743-0.763c-0.167-0.447-0.11-0.948, 0.151-1.346c 0.13-0.198, 0.194-0.451, 0.339-0.636 c 0.06-0.076, 0.082-0.174, 0.06-0.269c-0.06-0.265-0.519-0.383-0.775-0.326c-0.511,0.115-0.169,0.727-0.374,1.046 c-0.118,0.185-0.611,0.316-0.654,0.567c-0.107,0.644-0.164,0.983-0.121,1.206c 0.093,0.48, 0.046,0.971-0.14,1.423 c-0.001,0.003-0.003,0.006-0.004,0.009c-0.147,0.385, 0.154,0.787-0.046,1.17c-0.234,0.445-0.777,0.093-0.903,0.629 c-0.052,0.226-0.495-0.107-0.646-0.258c-0.016-0.442-0.186-0.645-0.31-0.991c-0.10-0.28-0.328-0.495-0.613-0.581 c-0.758-0.226-0.911,0.515-1.581,0.309c-0.539-0.166-0.918-0.652-0.946-1.216s 0.299-1.086, 0.819-1.306c 0.00,0.00, 0.001,0.00, 0.001,0.00 c 1.772-0.745, 2.102-1.37, 2.22-1.79c 0.026-0.095, 0.10-0.169, 0.195-0.196c 0.001,0.00, 0.002-0.001, 0.003-0.001 c 0.00,0.00, 0.001,0.00, 0.001-0.001c 0.019-0.096, 0.068-0.182, 0.14-0.249c 0.182-0.169, 0.305-0.394, 0.468-0.58 c 0.179-0.204, 0.363-0.52, 0.363-0.52s0.00,0.00, 0.00,0.00c0.00,0.00, 0.918-0.898, 1.887-1.205c 0.449-0.141, 0.777-0.135, 0.884-0.113 c 0.112,0.023, 0.278,0.054, 0.538,0.105c0.00,0.00,0.00,0.00,0.00,0.00c-0.014,0.087, 0.009,0.177, 0.061,0.248c 0.123,0.164, 0.525,0.123, 1.01,0.347 c 0.562,0.26, 1.236,0.182, 1.843,0.309c 0.247,0.052, 0.414,0.282, 0.385,0.533c-0.029,0.251-0.245,0.438-0.497,0.431 c-0.175-0.005-0.333,0.103-0.393,0.267c-0.059,0.164-0.007,0.348, 0.13,0.457c 0.216,0.171, 0.464,0.307, 0.724,0.399 c 0.306,0.108, 0.801,0.186, 0.585-0.053c0.00,0.000.00,0.00,0.00,0.00c-0.077-0.086-0.186-0.135-0.301-0.135c-0.42-0.002-0.288-0.387-0.061-0.284 c 0.25,0.113, 0.948,0.188, 0.464-0.279c-0.06-0.058-0.066-0.151-0.015-0.216c 0.08-0.102, 0.145-0.215, 0.193-0.336 c 0.10-0.257, 0.081-0.174, 0.41-0.074c 0.057,0.017, 0.115,0.006, 0.161-0.025c 0.092-0.065, 0.216-0.115, 0.126-0.183 c-0.077-0.059, 0.081-0.193, 0.137-0.174c 0.095,0.033, 0.201,0.002, 0.264-0.077c 0.049-0.061, 0.064-0.142, 0.043-0.216 c-0.056-0.188, 0.099-0.699, 0.368-0.798c 0.066-0.024, 0.137-0.026, 0.203-0.006c 0.00,0.00, 0.001-0.001, 0.001-0.001 c 0.056-0.052, 0.122-0.092, 0.193-0.118c 0.12-0.044, 0.326-0.133, 0.471-0.258c 0.148-0.129, 0.35-0.177, 0.54-0.132 c 0.002,0.001, 0.004,0.00, 0.005-0.002c 0.059-0.066, 0.057-0.167-0.005-0.229c-0.113-0.114-0.499-0.31-0.442-0.46 c 0.018-0.049, 0.258-0.107, 0.29-0.311c 0.022-0.14-0.056-0.277-0.188-0.329c-3.992-1.567-8.287-2.527-12.774-2.773 c-0.826,0.511-1.653,1.081-2.397,1.698c-2.717,2.251-7.008,3.183-6.911,2.933c-0.41,0.005-0.518-0.106-0.518-0.106 c-0.134,0.034-0.253,0.11-0.364,0.032c-0.001-0.001-0.002-0.001-0.003-0.002c 0.005-0.053-0.02-0.105-0.064-0.135 c-0.143-0.097-0.424,0.131-1.105,0.476c-0.003,0.001-0.005,0.003-0.007,0.004c-0.013,0.006-0.025,0.013-0.037,0.019 c-0.287,0.152-0.609,0.188-0.826,0.192c-0.157,0.003-0.309,0.033-0.455,0.09c-0.022,0.009-0.047,0.001-0.06-0.02 c-0.05-0.081, 0.199-0.171, 0.287-0.205c 0.082-0.032, 0.043-0.123-0.297,0.071c-0.073,0.042-0.161,0.053-0.243,0.033 c-0.341-0.087-0.75,0.186-1.02,0.411c-0.042,0.035-0.097,0.055-0.162,0.028c-0.094-0.04-0.177-0.026-0.149,0.12 c 0.032,0.157-0.867,0.554-0.882,0.487c-0.018-0.049-0.069-0.077-0.119-0.067c-0.118,0.025-0.26,0.12-0.339,0.269 c-0.144,0.272-0.534,0.318-0.725,0.476c-0.197,0.164-0.489,0.327-0.489,0.327c-0.107,0.124-0.18,0.194-0.295,0.199 c-0.112,0.005-0.177-0.192-0.128-0.267c 0.03-0.045, 0.245-0.257, 0.194-0.269c-0.021-0.004-0.04-0.018-0.05-0.037 c-0.037-0.07, 0.132-0.144, 0.088-0.231c-0.029-0.058-0.354-0.077-0.38-0.106c-0.019-0.021-0.023-0.052-0.011-0.078 c 0.202-0.411, 0.228-0.437, 0.503-0.708c-0.001-0.002-0.002-0.003-0.003-0.004c-0.029-0.043-0.029-0.099, 0.001-0.141 c 0.153-0.224, 0.662-0.892, 1.255-0.974c 0.157-0.022, 0.056-0.055, 0.056-0.055c-0.148-0.058-0.337-0.10-0.229-0.217 c 0.211-0.229, 0.533-0.534, 0.894-0.714c 0.173-0.086, 0.335-0.191, 0.483-0.314c 0.147-0.121, 0.643-0.337, 1.179-0.361 c 0.001,0.00, 0.002,0.00, 0.002,0.00c 0.447-0.029, 1.629-0.834, 1.639-0.845c-0.001,0.00-0.001-0.001-0.001-0.001 c-0.036-0.035, 0.019-0.155, 0.007-0.216c-0.005-0.025, 0.008-0.051, 0.031-0.063c 0.116-0.061, 0.251-0.084, 0.371-0.137 c 0.016-0.007, 0.027-0.021, 0.03-0.039c 0.006-0.045-0.045-0.075-0.088-0.059c-0.245,0.091-0.347,0.129-0.405,0.146 c-0.031,0.009-0.065-0.004-0.08-0.033c-0.015-0.028-0.009-0.064, 0.015-0.085c 0.281-0.242, 0.659-0.246, 0.993-0.361 c 0.145-0.05, 0.146-0.359-0.157-0.309c-1.492,0.246-2.849,0.69-4.265,1.158c 0.00,0.001, 0.001,0.002, 0.001,0.003 c 0.01,0.042-0.285,0.183-0.322,0.22c-0.018,0.018-0.026,0.045-0.018,0.07c 0.00,0.002, 0.001,0.003, 0.001,0.005 c 0.018,0.002, 0.024,0.024, 0.01,0.034c-0.056,0.042-0.163-0.001-0.195,0.059c-0.038,0.072, 0.097,0.044, 0.122,0.094 c 0.019,0.038, 0.013,0.084-0.017,0.114c0.00,0.00-0.001,0.00-0.001,0.001c-0.044,0.045-0.265,0.142-0.299,0.102 c-0.031-0.038-0.037-0.071-0.081-0.043c-0.158,0.102-0.258,0.163-0.349,0.179c-0.319,0.056-0.725,0.226-0.725,0.226 c 0.048-0.041, 0.199-0.184, 0.225-0.238c 0.087-0.176, 0.182-0.231, 0.288-0.26c 0.076-0.02, 0.088-0.127-0.254,0.003 c-0.308,0.117-0.593,0.295-0.833,0.522c-0.202,0.19-0.439,0.396-0.61,0.484c 0.033-0.055, 0.009-0.069-0.015-0.058 c-0.02,0.01-0.182,0.157-0.247,0.14c-0.204-0.055, 0.062-0.171, 0.062-0.374c 0.021-0.034, 0.049-0.061, 0.078-0.086 c-0.001,0.00-0.001,0.00-0.001,0.001c-0.233,0.099-0.443,0.248-0.614,0.435c-0.138,0.15-0.251,0.33-0.399,0.183 c-0.07-0.069-0.177-0.089-0.269-0.046c-0.569,0.266-1.13,0.545-1.684,0.836c-0.059,0.031-0.114,0.068-0.165,0.111 c-0.038,0.032-0.064,0.078-0.07,0.127c-0.009,0.059-0.11,0.189-0.147,0.252c-0.017,0.028-0.016,0.064, 0.001,0.091 c 0.051,0.078, 0.22,0.021, 0.309-0.008c 0.127-0.042, 0.266,0.01, 0.335,0.125c 0.067,0.112, 0.05,0.255-0.041,0.347 c-0.075,0.077-0.148,0.163-0.213,0.249c-0.136,0.181-0.264,0.372-0.459,0.495c-0.119,0.075-0.233,0.161-0.338,0.255 c-1.068,0.958-1.103,2.70-1.889,3.051c-0.002,0.001-0.004,0.002-0.005,0.002c-0.603,0.268-0.813,0.036-1.535,0.306 c-0.141,0.052-0.272,0.015-0.404-0.021c-0.112-0.03-0.203-0.112-0.246-0.22c0.00,0.00,0.00,0.00,0.00-0.001c-0.159-0.402-0.613-0.60-1.015-0.442 c-0.068,0.026-0.139,0.038-0.217,0.017c-0.002-0.001-0.003-0.001-0.004-0.002c-0.001-0.001-0.001-0.001-0.002-0.002 c-0.132,0.038-0.978,0.308-0.918,0.427c 0.001,0.001, 1.489-0.455, 1.155,0.35c-0.001,0.00-0.002,0.001-0.002,0.001 c-0.056,0.016-0.101,0.055-0.126,0.108c-0.036,0.076-0.08,0.119-0.204,0.148c-0.142,0.033-0.292-0.007-0.399-0.106 c-0.001-0.001-0.002-0.001-0.003-0.001c-0.076,0.013-0.109,0.20-0.079,0.252c 0.039,0.067, 0.236,0.066, 0.032,0.192 c-0.12,0.073-0.281,0.113-0.335,0.243c-0.064,0.154-0.142,0.302-0.235,0.441c-0.097,0.145, 0.114,0.191-0.051,0.325 c-0.196,0.159-0.873,0.006-1.109,0.05c-0.001,0.00-0.407,0.04-0.651,0.125s-0.686,0.196-0.929,0.489 c-0.419,0.506-0.382,0.613-0.872,0.476c-0.028-0.008-0.057,0.00-0.077,0.021c-4.987,5.291-8.588,11.902-10.228,19.252 c-0.001,0.006-0.003,0.013-0.004,0.018c-0.108,0.469-0.232,1.042-0.412,2.115c-0.004,0.025-0.004,0.051, 0.002,0.076 c 0.025,0.12, 0.048,0.151, 0.201,0.151c 0.362,0.00, 0.673,0.257, 0.74,0.613c 0.017,0.102, 0.079,0.174, 0.161,0.208 c 0.081,0.033, 0.172,0.026, 0.258-0.034c 0.055-0.039, 0.364,0.231, 0.384,0.56c 0.011,0.178, 0.079,0.382, 0.114,0.557 c 0.042,0.212-0.013,0.431-0.151,0.597c-0.021,0.026-0.029,0.06-0.021,0.093c 0.174,0.677, 0.959,3.563, 1.121,3.713 c 0.094-0.018, 0.171,0.013, 0.222,0.071c 1.586,1.788, 3.377,4.707, 3.325,5.622c-0.358,0.67-0.319,0.636-0.023,0.999 c 0.552,0.679, 0.543,0.711, 0.334,1.409l 0.001-0.001c 0.122-0.198, 0.339-0.318, 0.572-0.318c 0.233,0.001, 0.449,0.121, 0.571,0.319 c 0.091,0.147, 0.182,0.294, 0.306,0.405c 0.327,0.293, 0.495,0.724, 0.455,1.161c0.00,0.001, 0.503,0.005, 1.199,0.529 c 0.882,0.663, 3.997,4.23, 4.119,5.207c 0.054,0.435-0.124,0.862-0.347,1.24c-0.257,0.434-1.088,1.339-1.23,1.825 c-0.07,0.242-0.457,0.351-0.455,0.495c 0.004,0.197, 0.065,0.61, 0.349,1.422c 0.085,0.24, 0.281,2.022, 0.183,2.74 c-0.057,0.42-0.056,0.495, 0.047,0.959c 0.034,0.144-0.329,0.557-0.579,0.379c-0.313-0.224-0.574-0.191-0.607-0.125 c0.00,0.0010.00,0.001-0.001,0.001c-0.432,0.709-1.988,0.835-1.641,1.59c 0.102,0.223, 0.206,0.446, 0.295,0.672 c 0.105,0.267, 0.163,0.554, 0.172,0.84c 0.003,0.123, 0.433,1.031, 0.775,1.39c 7.505,7.849, 18.078,12.739, 29.794,12.739 C 598.766,617.221, 617.221,598.766, 617.221,576.00z M 569.907,549.729c 0.171-0.074, 0.331-0.177, 0.512-0.226 c 0.002-0.001, 0.004-0.001, 0.005-0.002c 0.25-0.069, 0.469-0.001, 0.544-0.096c 0.073-0.094, 0.20-0.264, 0.259-0.401 c 0.028-0.068-0.043-0.164, 0.046-0.212c 0.10-0.055, 0.012-0.161, 0.038-0.238c 0.069-0.206, 0.116-0.211, 0.197-0.223 c 0.079-0.011, 0.153-0.021, 0.181-0.064c 0.13-0.191-0.328-0.741-0.614-0.667c-0.297,0.076-0.536,0.51-0.636,0.504 c-0.126-0.007-0.183-0.011-0.268,0.056c-0.065,0.05-0.073,0.134-0.122,0.194c-0.057,0.073-0.132,0.13-0.19,0.203 c-0.049,0.059-0.066,0.112, 0.002,0.173c 0.05,0.044, 0.078,0.069-0.07,0.26c-0.122,0.157-0.324,0.241-0.409,0.434 c-0.03,0.07-0.026,0.21-0.016,0.266C 569.405,549.892, 569.718,549.811, 569.907,549.729zM 872.873,580.954l0.00,41.553 L 843.181,622.507 l0.00-22.582 l-22.363,0.00 l0.00,22.582 L 791.127,622.507 L 791.127,580.954 L 780.50,580.954 L 832.00,529.493l 51.50,51.461L 872.873,580.954 z M 866.518,534.118l-11.979,0.00 l0.00,9.578 l 11.979,12.006L 866.518,534.118 zM 1139.50,582.936l0.00-13.871 l-7.495-2.666c-2.858-1.016-5.157-3.199-6.319-6.00 c-0.001-0.001-0.001-0.002-0.002-0.003c-1.165-2.809-1.083-5.979, 0.222-8.726l 3.413-7.181l-9.809-9.809l-7.18,3.413 c-2.745,1.305-5.92,1.387-8.727,0.222c-0.001-0.001-0.003-0.001-0.004-0.001c-2.804-1.163-4.983-3.458-6.00-6.318L 1094.935,524.50 l-13.871,0.00 l-2.666,7.495c-1.016,2.858-3.199,5.157-6.00,6.319c-0.001,0.001-0.002,0.001-0.004,0.001 c-2.809,1.165-5.98,1.083-8.726-0.222l-7.181-3.413l-9.809,9.809l 3.413,7.18c 1.305,2.745, 1.386,5.92, 0.222,8.727 c-0.001,0.001-0.001,0.002-0.002,0.003c-1.162,2.804-3.458,4.983-6.318,6.00L 1036.50,569.064l0.00,13.871 l 7.495,2.665 c 2.858,1.016, 5.157,3.199, 6.319,6.00c 0.001,0.001, 0.001,0.003, 0.001,0.004c 1.165,2.809, 1.083,5.98-0.222,8.726l-3.413,7.181 l 9.809,9.809l 7.18-3.413c 2.745-1.305, 5.92-1.387, 8.727-0.222c 0.001,0.001, 0.003,0.001, 0.004,0.002 c 2.804,1.162, 4.982,3.458, 6.00,6.318L 1081.064,627.50l 13.871,0.00 l 2.649-7.447c 1.026-2.885, 3.227-5.206, 6.054-6.381 c 0.001-0.001, 0.002-0.001, 0.004-0.002c 2.782-1.157, 5.923-1.078, 8.645,0.216l 7.226,3.434l 9.809-9.809l-3.415-7.184 c-1.304-2.742-1.385-5.915-0.222-8.719c 0.001-0.001, 0.001-0.002, 0.002-0.004c 1.163-2.806, 3.462-4.987, 6.324-6.005 L 1139.50,582.936z M 1088.00,594.886c-10.431,0.00-18.887-8.456-18.887-18.887s 8.456-18.887, 18.887-18.887 c 10.431,0.00, 18.887,8.456, 18.887,18.887S 1098.431,594.886, 1088.00,594.886zM 1292.50,530.375l0.00,91.25 l 103.00,0.00 l0.00-91.25 L 1292.50,530.375 z M 1383.00,609.125L 1305.00,609.125 l0.00-54.50 l 78.00,0.00 L 1383.00,609.125 z M 1340.364,582.099l-19.00,19.099 l-6.865-6.833l 12.20-12.266l-12.217-12.284l 6.865-6.832L 1340.364,582.099z M 1374.00,591.382L 1345.625,591.382 l0.00,9.50 L 1374.00,600.882 L 1374.00,591.382 zM 1583.423,580.90l 9.453,0.00 l-22.188,22.226L 1548.50,580.90l 9.453,0.00 c0.00,0.00-0.013-45.225, 53.25-48.331 C 1577.506,547.011, 1583.423,580.90, 1583.423,580.90z M 1588.797,619.431c 53.263-3.106, 53.25-48.331, 53.25-48.331L 1651.50,571.10 l-22.188-22.226 l-22.188,22.226l 9.453,0.00 C 1616.577,571.10, 1622.494,604.989, 1588.797,619.431zM 1838.941,616.314L 1850.108,627.50L 1804.50,627.50 L 1804.50,581.893 l 11.186,11.166l 24.399-24.399l 23.255,23.255L 1838.941,616.314z M 1861.893,524.50l 11.166,11.186l-24.136,24.136l 23.255,23.255l 24.136-24.136L 1907.50,570.107L 1907.50,524.50 L 1861.893,524.50 zM 2100.116,602.995c-21.641,0.00-39.247-17.607-39.247-39.248C 2060.869,542.107, 2078.475,524.50, 2100.116,524.50 c 21.641,0.00, 39.248,17.607, 39.248,39.248C 2139.364,585.389, 2121.757,602.995, 2100.116,602.995z M 2100.116,537.90 c-14.252,0.00-25.847,11.595-25.847,25.848s 11.595,25.847, 25.847,25.847c 14.252,0.00, 25.848-11.595, 25.848-25.847 S 2114.368,537.90, 2100.116,537.90z M 2139.871,591.307c-3.508,5.045-7.949,9.392-13.073,12.791L 2150.20,627.50l 12.932-12.932 L 2139.871,591.307zM 2409.842,546.971L 2419.50,537.341l0.00,39.038 L 2380.433,576.379 l 10.544-10.544 c-25.72-32.529-93.301,0.417-48.481,57.507C 2275.485,571.636, 2352.60,492.611, 2409.842,546.971zM 2649.504,623.342C 2694.323,566.252, 2626.743,533.306, 2601.023,565.835l 10.544,10.544L 2572.50,576.379 L 2572.50,537.341 l 9.658,9.63 C 2639.40,492.611, 2716.515,571.636, 2649.504,623.342zM 2880.00,524.50C 2851.557,524.50, 2828.50,547.557, 2828.50,576.00s 23.057,51.50, 51.50,51.50s 51.50-23.057, 51.50-51.50S 2908.443,524.50, 2880.00,524.50z M 2899.531,606.636l-19.28-19.279l-19.281,19.282l-10.356-10.362l 19.276-19.279l-19.279-19.277l 10.362-10.356l 19.276,19.273 l 19.273-19.276l 10.365,10.358l-19.276,19.277l 19.278,19.276L 2899.531,606.636zM 3136.00,524.50C 3107.557,524.50, 3084.50,547.557, 3084.50,576.00s 23.057,51.50, 51.50,51.50s 51.50-23.057, 51.50-51.50S 3164.443,524.50, 3136.00,524.50z M 3127.238,603.74l-24.331-24.338l 10.36-10.362l 13.971,13.975l 32.255-32.255l 10.365,10.358L 3127.238,603.74zM 64.00,780.50C 35.557,780.50, 12.50,803.557, 12.50,832.00s 23.057,51.50, 51.50,51.50s 51.50-23.057, 51.50-51.50S 92.443,780.50, 64.00,780.50z M 95.65,841.358l-22.293,0.00 L 73.358,863.65 l-17.215,0.00 l0.00-22.292 l-22.293,0.00 l0.00-17.215 l 22.293,0.00 L 56.142,801.85 l 17.215,0.00 l0.00,22.292 l 22.293,0.00 L 95.65,841.358 zM 329.64,856.268l 0.001-0.001L 371.50,827.331L 329.64,798.393l0.00,12.328 c0.00,0.00-50.916,10.362-61.14,54.885 c 21.767-23.306, 61.14-21.667, 61.14-21.667L 329.64,856.268 L 329.64,856.268zM 552.439,869.562c0.00,7.698-6.24,13.938-13.938,13.938c-7.697,0.00-13.938-6.24-13.938-13.938 s 6.24-13.938, 13.938-13.938C 546.199,855.625, 552.439,861.865, 552.439,869.562z M 524.564,815.606l0.00,20.648 C 550.498,836.521, 571.543,857.565, 571.809,883.50l 20.648,0.00 C 592.191,846.12, 561.944,815.873, 524.564,815.606z M 524.564,801.151 c 21.924,0.095, 42.521,8.674, 58.034,24.187c 15.544,15.543, 24.127,36.191, 24.189,58.163l 20.65,0.00 C 627.307,826.715, 581.333,780.698, 524.564,780.50L 524.564,801.151 zM 871.553,816.525l-13.01,0.00 l0.00-11.783 l 2.85-9.729L 861.393,783.82 l-18.222,0.00 c0.00,0.00-4.673,10.273-6.319,14.243 c-5.417,13.071-11.014,26.576-22.576,28.823l0.00-5.793 L 780.50,821.094 l0.00,57.043 l 33.777,0.00 l0.00-4.929 l 11.458,0.00 l 12.734,6.973l 30.983,0.00 L 883.50,867.624 L 883.50,824.304 L 871.553,816.525z M 840.468,872.916l-12.373-6.974l-13.787,0.015L 814.307,834.249 c 0.115-0.015, 0.241-0.033, 0.377-0.054 c 16.054-2.404, 22.868-18.845, 28.88-33.351c 1.128-2.721, 3.523-8.17, 4.224-9.76l 6.341,0.00 l0.00,3.714 l-2.85,9.73l0.00,19.261 l 18.344,0.00 l 6.613,4.22l0.00,36.898 l-9.141,8.009L 840.468,872.916 zM 1125.862,858.118c-14.759-3.404-28.497-6.385-21.844-18.929 c 20.253-38.182, 5.368-58.602-16.018-58.602c-21.808,0.00-36.326,21.203-16.018,58.602c 6.853,12.62-7.402,15.598-21.844,18.929 c-14.753,3.402-13.618,11.181-13.618,25.294l 102.96,0.00 C 1139.48,869.299, 1140.615,861.521, 1125.862,858.118zM 1395.492,857.84l-19.984,0.00 c-0.001-21.75-10.873-11.412-10.873-30.471c0.00-6.88, 4.504-10.614, 10.287-10.614 c 8.545,0.00, 14.492,8.159, 6.40,23.415c-2.659,5.012, 2.831,6.203, 8.728,7.564C 1395.945,849.093, 1395.492,852.201, 1395.492,857.84z M 1297.949,847.733c 5.897-1.36, 11.386-2.551, 8.728-7.564c-8.092-15.256-2.145-23.415, 6.40-23.415 c 5.784,0.00, 10.287,3.734, 10.287,10.614c0.00,19.059-10.871,8.722-10.873,30.471L 1292.508,857.84 C 1292.508,852.201, 1292.055,849.093, 1297.949,847.733z M 1363.029,845.127c-7.418-1.712-14.322-3.209-10.978-9.514c 10.179-19.191, 2.698-29.453-8.05-29.453 c-10.96,0.00-18.257,10.656-8.05,29.453c 3.444,6.343-3.721,7.839-10.979,9.514c-7.415,1.71-6.844,5.619-6.844,12.713 l 51.746,0.00 C 1369.873,850.746, 1370.444,846.837, 1363.029,845.127zM 1633.968,876.484L 1619.319,847.653c-0.033,0.016-8.215,4.118-8.592,4.288 c-9.317,4.611-28.291-33.181-19.178-38.162l 8.666-4.351L 1585.684,780.50c-0.01,0.005-8.623,4.337-8.767,4.41 c-5.986,3.18-22.233,10.703, 2.058,59.078c 24.499,48.79, 39.698,39.917, 46.212,36.88 C 1625.689,880.635, 1633.936,876.501, 1633.968,876.484zM 1834.636,827.763L 1804.50,804.614l0.00,53.285 L 1834.636,827.763z M 1907.232,793.852L 1804.854,793.852 l 51.148,39.291 L 1907.232,793.852z M 1870.339,833.174l-14.341,10.998l-14.364-11.034L 1804.625,870.148l 102.688,0.00 L 1870.339,833.174z M 1877.342,827.803 L 1907.50,857.961L 1907.50,804.673 L 1877.342,827.803zM 2132.913,837.37c0.00,7.348-5.977,13.325-13.325,13.325c-7.347,0.00-13.325-5.977-13.325-13.325 c0.00-7.347, 5.977-13.325, 13.325-13.325C 2126.936,824.045, 2132.913,830.023, 2132.913,837.37z M 2163.50,805.031l0.00,66.75 L 2060.50,871.781 l0.00-66.75 l 28.305,0.00 c 2.813,0.00, 5.39-1.574, 6.673-4.077l 4.48-8.735l 38.416,0.00 l 4.955,8.946c 1.321,2.386, 3.834,3.866, 6.561,3.866L 2163.50,805.031 z M 2086.708,819.594c0.00-2.83-2.295-5.125-5.125-5.125s-5.125,2.295-5.125,5.125s 2.295,5.125, 5.125,5.125S 2086.708,822.424, 2086.708,819.594z M 2144.375,837.37c0.00-13.667-11.119-24.213-24.787-24.213c-13.667,0.00-24.787,10.546-24.787,24.213c0.00,13.668, 11.119,24.787, 24.787,24.787 C 2133.256,862.156, 2144.375,851.037, 2144.375,837.37z M 2083.583,794.156l-16.375,0.00 l0.00,6.75 l 16.375,0.00 L 2083.583,794.156 zM 2403.555,791.246L 2353.932,840.869L 2332.439,819.369L 2316.50,835.311L 2353.933,872.754L 2419.50,807.181 zM 2669.598,861.649L 2639.939,831.994L 2669.594,802.337L 2653.649,786.402L 2623.999,816.056L 2594.344,786.405L 2578.402,802.338L 2608.062,831.996L 2578.405,861.656L 2594.338,877.598L 2624.001,847.933L 2653.663,877.594 zM 2876.848,809.709l 53.937-10.691l-0.036-0.182L 2927.139,780.625l-90.85,18.009 C 2831.768,799.53, 2828.50,803.496, 2828.50,808.106c0.00,4.078,0.00,60.602,0.00,60.602c0.00,8.088, 6.58,14.667, 14.667,14.667l 73.666,0.00 c 8.088,0.00, 14.667-6.58, 14.667-14.667L 2931.50,809.894 l0.00-0.185 L 2876.848,809.708 z M 2921.50,868.708c0.00,2.574-2.094,4.667-4.667,4.667L 2843.167,873.375 C 2840.593,873.375, 2838.50,871.281, 2838.50,868.708L 2838.50,833.441 l 83.00,0.00 L 2921.50,868.708 z M 2900.882,814.709l-8.733,8.733l-13.107,0.00 l 8.733-8.733L 2900.882,814.709 z M 2914.806,788.167l 10.285,6.882l-12.849,2.554l-10.293-6.888L 2914.806,788.167z M 2889.495,793.184l 10.30,6.892l-12.848,2.553 l-10.307-6.897L 2889.495,793.184z M 2864.156,798.207l 10.314,6.902l-12.849,2.553L 2851.30,800.755L 2864.156,798.207z M 2861.943,814.709 l 13.107,0.00 l-8.733,8.733l-13.107,0.00 L 2861.943,814.709z M 2904.846,823.441l 8.733-8.733l 13.107,0.00 l-8.733,8.733L 2904.846,823.441 z M 2874.231,866.328 L 2874.231,839.138 l 22.173,13.595L 2874.231,866.328zM 3136.00,780.501C 3107.557,780.501, 3084.50,803.557, 3084.50,832.00c0.00,28.442, 23.057,51.499, 51.50,51.499 c 28.442,0.00, 51.50-23.057, 51.50-51.499C 3187.50,803.557, 3164.442,780.501, 3136.00,780.501z M 3134.997,862.233 c-7.423,2.609-13.544-0.383-12.316-7.512c 1.228-7.131, 8.273-22.397, 9.277-25.284c 1.004-2.887-0.922-3.678-2.986-2.504 c-1.191,0.687-2.96,2.063-4.479,3.401c-0.421-0.848-1.014-1.817-1.458-2.746c 2.479-2.484, 6.622-5.814, 11.527-7.021 c 5.86-1.447, 15.656,0.866, 11.446,12.068c-3.006,7.984-5.132,13.494-6.472,17.597c-1.339,4.104, 0.252,4.965, 2.595,3.366 c 1.831-1.25, 3.782-2.951, 5.212-4.27c 0.661,1.075, 0.874,1.418, 1.528,2.654C 3146.39,854.526, 3139.896,860.481, 3134.997,862.233z M 3150.379,812.843c-3.367,2.866-8.358,2.804-11.15-0.14c-2.792-2.942-2.325-7.652, 1.041-10.518 c 3.367-2.866, 8.359-2.804, 11.15,0.138C 3154.211,805.267, 3153.745,809.975, 3150.379,812.843zM 64.00,1036.50C 35.557,1036.50, 12.50,1059.557, 12.50,1088.00s 23.057,51.50, 51.50,51.50s 51.50-23.057, 51.50-51.50S 92.443,1036.50, 64.00,1036.50z M 64.563,1122.225c-4.04,0.00-7.317-3.277-7.317-7.319c0.00-4.04, 3.277-7.316, 7.317-7.316c 4.042,0.00, 7.317,3.276, 7.317,7.316 C 71.88,1118.948, 68.604,1122.225, 64.563,1122.225z M 70.316,1100.596l0.00,1.317 c0.00,0.00-10.971,0.00-12.062,0.00l0.00-1.317 c0.00-3.724, 0.543-8.503, 4.868-12.657c 4.325-4.155, 9.729-7.587, 9.729-12.777c0.00-5.737-3.982-8.773-9.002-8.773 c-8.366,0.00-8.912,8.676-9.119,10.587l-11.732,0.00 c 0.313-9.047, 4.136-21.702, 20.921-21.702c 14.546,0.00, 21.085,9.742, 21.085,18.877 C 85.003,1088.692, 70.316,1091.218, 70.316,1100.596zM 329.678,1088.00L 294.313,1123.534L 268.50,1123.534 L 303.865,1088.00L 268.50,1052.466l 25.813,0.00 L 329.678,1088.00z M 336.135,1052.466L 310.322,1052.466 L 345.687,1088.00L 310.322,1123.534l 25.813,0.00 L 371.50,1088.00L 336.135,1052.466zM 593.00,1084.75c0.00,9.389-7.611,17.00-17.00,17.00c-9.389,0.00-17.00-7.611-17.00-17.00L 559.00,1053.50 c0.00-9.389, 7.611-17.00, 17.00-17.00 c 9.389,0.00, 17.00,7.611, 17.00,17.00L 593.00,1084.75 z M 600.50,1076.00l0.00,8.75 c0.00,13.509-10.991,24.50-24.50,24.50c-13.509,0.00-24.50-10.991-24.50-24.50l0.00-8.75 l-10.00,0.00 l0.00,8.75 c0.00,19.023, 15.477,34.50, 34.50,34.50c 19.023,0.00, 34.50-15.476, 34.50-34.50l0.00-8.75 L 600.50,1076.00 z M 576.00,1124.25l-22.25,15.25l 43.00,0.00 L 576.00,1124.25zM 860.092,1042.848L 804.006,1042.848 L 780.50,1081.074l0.00,52.078 l 103.00,0.00 L 883.50,1081.074 L 860.092,1042.848z M 844.697,1099.184L 819.303,1099.184 c-2.329,0.00-4.218-1.889-4.218-4.219c0.00-2.329, 1.889-4.218, 4.218-4.218l 25.394,0.00 c 2.33,0.00, 4.218,1.889, 4.218,4.218 C 848.915,1097.295, 847.027,1099.184, 844.697,1099.184z M 792.24,1081.074l 17.215-28.201l 45.159,0.00 l 17.155,28.201L 792.24,1081.074 z M 859.897,1068.382 L 804.393,1068.382 l 3.204-5.25l 49.105,0.00 L 859.897,1068.382z M 854.929,1060.215L 809.379,1060.215 l 2.747-4.50l 40.066,0.00 L 854.929,1060.215z M 865.219,1077.132L 799.052,1077.132 l 3.357-5.50l 59.465,0.00 L 865.219,1077.132zM 1036.50,1042.375l0.00,91.25 l 103.00,0.00 l0.00-91.25 L 1036.50,1042.375 z M 1127.00,1090.083L 1091.75,1090.083 L 1091.75,1066.625 l 35.25,0.00 L 1127.00,1090.083 z M 1049.00,1066.625l 35.25,0.00 l0.00,54.50 L 1049.00,1121.125 L 1049.00,1066.625 z M 1091.75,1121.125l0.00-23.542 l 35.25,0.00 L 1127.00,1121.125 L 1091.75,1121.125 zM 1346.98,1096.229c 1.593,1.592, 1.593,4.175,0.00,5.768c-1.593,1.593-4.175,1.593-5.768,0.00 c-1.593-1.593-1.593-4.175,0.00-5.768C 1342.804,1094.635, 1345.387,1094.635, 1346.98,1096.229z M 1353.504,1098.012l 9.415-17.723l-17.723,9.415 c-2.84-0.327-5.693,0.602-7.799,2.709c-2.09,2.09-2.997,4.921-2.722,7.655l-9.594,18.059l 18.049-9.59 c 2.783,0.28, 5.583-0.646, 7.663-2.726C 1352.794,1103.813, 1353.849,1101.004, 1353.504,1098.012z M 1354.883,1060.456 c 2.712-2.538, 4.389-6.016, 4.389-9.85c0.00-7.752-6.851-14.058-15.273-14.058s-15.273,6.306-15.273,14.058 c0.00,3.833, 1.677,7.311, 4.389,9.85c-16.939,4.747-29.36,20.299-29.36,38.753c0.00,22.226, 18.017,40.244, 40.244,40.244 c 22.226,0.00, 40.244-18.017, 40.244-40.244C 1384.244,1080.755, 1371.822,1065.203, 1354.883,1060.456z M 1344.00,1044.047 c 4.286,0.00, 7.772,2.942, 7.772,6.558s-3.487,6.558-7.772,6.558s-7.772-2.942-7.772-6.558S 1339.714,1044.047, 1344.00,1044.047z M 1365.828,1121.036c-5.83,5.83-13.582,9.041-21.828,9.041s-15.997-3.211-21.828-9.041 c-5.83-5.83-9.041-13.582-9.041-21.828s 3.211-15.997, 9.041-21.828c 5.83-5.83, 13.582-9.041, 21.828-9.041 s 15.997,3.211, 21.828,9.041s 9.041,13.582, 9.041,21.828S 1371.658,1115.206, 1365.828,1121.036zM 1634.372,1053.357l-19.148,51.757l-6.268-26.213l-26.267-6.568L 1634.372,1053.357 M 1651.271,1036.50 L 1548.729,1074.149l 51.913,12.981L 1613.165,1139.50L 1651.271,1036.50zM 1856.00,1046.50c 12.476,0.00, 22.625,10.149, 22.625,22.625c0.00,14.395-15.011,37.896-22.625,50.717 c-12.887-21.70-22.625-38.282-22.625-50.717C 1833.375,1056.65, 1843.525,1046.50, 1856.00,1046.50 M 1856.00,1036.50c-18.018,0.00-32.625,14.607-32.625,32.625 c0.00,18.018, 14.278,38.958, 32.625,70.375c 18.347-31.416, 32.625-52.357, 32.625-70.375C 1888.625,1051.107, 1874.019,1036.50, 1856.00,1036.50L 1856.00,1036.50z M 1856.00,1057.484c-6.268,0.00-11.349,5.081-11.349,11.349s 5.081,11.349, 11.349,11.349s 11.349-5.081, 11.349-11.349 S 1862.268,1057.484, 1856.00,1057.484L 1856.00,1057.484zM 2112.00,1036.50c-18.018,0.00-32.625,14.607-32.625,32.625c0.00,26.792, 25.66,29.625, 32.625,70.375 c 6.965-40.75, 32.625-43.583, 32.625-70.375C 2144.625,1051.107, 2130.019,1036.50, 2112.00,1036.50z M 2112.00,1080.033c-6.462,0.00-11.70-5.238-11.70-11.70 s 5.238-11.70, 11.70-11.70s 11.70,5.238, 11.70,11.70S 2118.462,1080.033, 2112.00,1080.033zM 2368.00,1036.50c-18.018,0.00-32.625,14.607-32.625,32.625c0.00,18.018, 14.278,38.958, 32.625,70.375 c 18.347-31.416, 32.625-52.357, 32.625-70.375C 2400.625,1051.107, 2386.019,1036.50, 2368.00,1036.50z M 2367.999,1091.665 c-12.406,0.00-22.464-10.057-22.464-22.464c0.00-12.406, 10.057-22.463, 22.464-22.463c 12.407,0.00, 22.464,10.057, 22.464,22.463 C 2390.464,1081.608, 2380.406,1091.665, 2367.999,1091.665zM 2624.00,1036.50c-23.265,0.00-42.125,18.86-42.125,42.125C 2581.875,1102.25, 2602.358,1117.833, 2624.00,1139.50 c 21.642-21.667, 42.125-37.25, 42.125-60.875C 2666.125,1055.36, 2647.265,1036.50, 2624.00,1036.50z M 2624.00,1108.24c-17.069,0.00-30.906-13.837-30.906-30.906 c0.00-17.069, 13.837-30.906, 30.906-30.906c 17.069,0.00, 30.906,13.837, 30.906,30.906C 2654.906,1094.402, 2641.069,1108.24, 2624.00,1108.24zM 2847.688,1071.286l 23.031-23.031c 1.708-1.708, 4.479-1.708, 6.188,0.00c 1.708,1.709, 1.708,4.479,0.00,6.187 l-16.844,16.844L 2847.688,1071.286 z M 2899.938,1071.286l 12.374,0.00 l-23.031-23.031c-1.708-1.708-4.479-1.708-6.187,0.00 c-1.709,1.709-1.709,4.479,0.00,6.187L 2899.938,1071.286z M 2828.50,1077.453l0.00,10.00 l 2.76,0.00 c 2.292,0.00, 4.383,1.306, 5.39,3.364l 18.683,38.209L 2904.75,1129.026 l 18.602-38.20c 1.005-2.063, 3.099-3.373, 5.394-3.373L 2931.50,1087.453 l0.00-10.00 L 2828.50,1077.453 z M 2869.313,1115.096c0.00,1.726-1.399,3.125-3.125,3.125 s-3.125-1.399-3.125-3.125l0.00-23.139 c0.00-1.726, 1.399-3.125, 3.125-3.125s 3.125,1.399, 3.125,3.125L 2869.313,1115.096 z M 2883.313,1115.096 c0.00,1.726-1.399,3.125-3.125,3.125s-3.125-1.399-3.125-3.125l0.00-23.139 c0.00-1.726, 1.399-3.125, 3.125-3.125s 3.125,1.399, 3.125,3.125L 2883.313,1115.096 z M 2897.292,1115.096c0.00,1.726-1.399,3.125-3.125,3.125s-3.125-1.399-3.125-3.125l0.00-23.139 c0.00-1.726, 1.399-3.125, 3.125-3.125s 3.125,1.399, 3.125,3.125 L 2897.292,1115.096 zM 3187.458,1050.277l-3.187,10.00l-7.495,0.00 l-14.794,47.041L 3105.214,1107.319 L 3084.542,1059.902l 74.186,0.00 l-11.505,37.181l 7.53,0.00 l 14.712-46.806L 3187.458,1050.277 z M 3144.481,1112.277c-3.713,0.00-6.723,3.01-6.723,6.723 s 3.01,6.723, 6.723,6.723s 6.723-3.01, 6.723-6.723S 3148.194,1112.277, 3144.481,1112.277z M 3122.26,1112.277 c-3.713,0.00-6.723,3.01-6.723,6.723s 3.01,6.723, 6.723,6.723c 3.713,0.00, 6.723-3.01, 6.723-6.723 S 3125.973,1112.277, 3122.26,1112.277zM 102.753,1328.81l-20.256,41.573L 45.575,1370.383 l-20.211-41.573L 12.50,1328.81 l0.00,10.00 l 2.76,0.00 c 2.292,0.00, 4.383,1.305, 5.39,3.364l 18.683,38.209L 88.75,1380.383 l 18.602-38.20c 1.005-2.063, 3.099-3.373, 5.394-3.373L 115.50,1338.81 l0.00-10.00 L 102.753,1328.81 z M 64.25,1316.505c-10.741,0.00-19.448,8.707-19.448,19.448c0.00,10.741, 8.707,19.448, 19.448,19.448s 19.448-8.707, 19.448-19.448 C 83.698,1325.212, 74.991,1316.505, 64.25,1316.505z M 76.203,1339.486l-8.418,0.00 l0.00,8.418 L 61.282,1347.904 l0.00-8.418 l-8.418,0.00 l0.00-6.501 l 8.418,0.00 l0.00-8.418 l 6.502,0.00 l0.00,8.418 l 8.418,0.00 L 76.202,1339.486 zM 342.728,1315.902L 268.542,1315.902 l 13.391,30.291l 51.271,0.00 L 342.728,1315.902z M 371.458,1306.277l-3.187,10.00 l-7.495,0.00 l-14.794,47.041L 289.214,1363.319 l-4.406-10.00L 338.67,1353.319 l 14.795-47.041L 371.458,1306.277 z M 335.204,1375.00c0.00,3.713-3.01,6.723-6.723,6.723 S 321.759,1378.713, 321.759,1375.00s 3.01-6.723, 6.723-6.723S 335.204,1371.287, 335.204,1375.00z M 312.983,1375.00 c0.00,3.713-3.01,6.723-6.723,6.723c-3.713,0.00-6.723-3.01-6.723-6.723s 3.01-6.723, 6.723-6.723 C 309.973,1368.277, 312.983,1371.287, 312.983,1375.00zM 568.92,1375.25c0.00,3.713-3.01,6.723-6.723,6.723S 555.475,1378.963, 555.475,1375.25 s 3.01-6.723, 6.723-6.723S 568.92,1371.537, 568.92,1375.25z M 609.402,1306.527l-14.795,47.041L 551.834,1353.569 L 535.604,1316.152L 524.604,1316.152 l 20.729,47.416l 0.069,0.00 l 56.517,0.00 l 14.794-47.041l 7.495,0.00 l 3.187-10.00L 609.402,1306.527 z M 584.419,1368.527c-3.713,0.00-6.723,3.01-6.723,6.723 s 3.01,6.723, 6.723,6.723s 6.723-3.01, 6.723-6.723S 588.132,1368.527, 584.419,1368.527z M 572.566,1306.027 c-10.741,0.00-19.448,8.707-19.448,19.448c0.00,10.741, 8.707,19.448, 19.448,19.448s 19.448-8.707, 19.448-19.448 C 592.013,1314.734, 583.306,1306.027, 572.566,1306.027z M 584.517,1329.009l-8.418,0.00 l0.00,8.418 l-6.502,0.00 l0.00-8.418 l-8.418,0.00 L 561.18,1322.508 l 8.418,0.00 l0.00-8.418 l 6.502,0.00 l0.00,8.418 l 8.418,0.00 L 584.517,1329.009 zM 804.333,1335.833l0.00-15.666 C 804.333,1304.911, 816.745,1292.50, 832.00,1292.50c 15.255,0.00, 27.667,12.411, 27.667,27.667l0.00,15.666 l-12.50,0.00 l0.00-15.666 C 847.167,1311.804, 840.363,1305.00, 832.00,1305.00c-8.363,0.00-15.167,6.804-15.167,15.167l0.00,15.666 L 804.333,1335.833 z M 795.00,1343.333L 795.00,1395.50 l 74.00,0.00 L 869.00,1343.333 L 795.00,1343.333 zM 1057.505,1362.096c 9.161-39.895, 54.786-49.181, 54.786-49.181L 1112.291,1300.634 L 1139.50,1327.798l-27.209,27.165 l0.00-12.282 C 1112.291,1342.681, 1077.01,1341.212, 1057.505,1362.096z M 1112.512,1367.106l0.00,10.007 L 1046.753,1377.114 L 1046.753,1334.521 l 14.39,0.00 c 2.876-3.704, 6.141-7.122, 9.745-10.253L 1036.50,1324.268 l0.00,63.099 l 86.265,0.00 L 1122.765,1356.871 L 1112.512,1367.106zM 1387.632,1318.41L 1300.368,1318.41 l0.00,21.872 l 87.264,0.00 L 1387.632,1318.41 z M 1306.172,1334.142l 3.837-9.594l 4.635,0.00 l-3.837,9.594 L 1306.172,1334.142 z M 1313.685,1334.142l 3.837-9.594l 4.635,0.00 l-3.837,9.594L 1313.685,1334.142 z M 1321.198,1334.142l 3.837-9.594l 4.635,0.00 l-3.837,9.594 L 1321.198,1334.142 z M 1328.711,1334.142l 3.837-9.594l 4.635,0.00 l-3.837,9.594L 1328.711,1334.142 z M 1340.859,1334.142l-4.635,0.00 l 3.837-9.594l 4.635,0.00 L 1340.859,1334.142z M 1377.271,1332.549c-1.768,0.00-3.204-1.435-3.204-3.204s 1.435-3.204, 3.204-3.204 c 1.77,0.00, 3.204,1.434, 3.204,3.204S 1379.041,1332.549, 1377.271,1332.549z M 1382.821,1312.654l-77.455,0.00 L 1320.641,1292.50l 46.718,0.00 L 1382.821,1312.654 z M 1387.632,1346.037L 1300.368,1346.037 l0.00,21.872 l 87.264,0.00 L 1387.632,1346.037 z M 1306.172,1361.77l 3.837-9.594l 4.635,0.00 l-3.837,9.594L 1306.172,1361.77 z M 1313.685,1361.77 l 3.837-9.594l 4.635,0.00 l-3.837,9.594L 1313.685,1361.77 z M 1321.198,1361.77l 3.837-9.594l 4.635,0.00 l-3.837,9.594L 1321.198,1361.77 z M 1328.711,1361.77 l 3.837-9.594l 4.635,0.00 l-3.837,9.594L 1328.711,1361.77 z M 1340.859,1361.77l-4.635,0.00 l 3.837-9.594l 4.635,0.00 L 1340.859,1361.77z M 1377.271,1360.177 c-1.768,0.00-3.204-1.434-3.204-3.204c0.00-1.77, 1.435-3.204, 3.204-3.204c 1.77,0.00, 3.204,1.433, 3.204,3.204 C 1380.476,1358.743, 1379.041,1360.177, 1377.271,1360.177z M 1387.632,1373.627L 1300.368,1373.627 L 1300.368,1395.50 l 87.264,0.00 L 1387.632,1373.627 z M 1306.172,1389.361l 3.837-9.594 l 4.635,0.00 l-3.837,9.594L 1306.172,1389.361 z M 1313.685,1389.361l 3.837-9.594l 4.635,0.00 l-3.837,9.594L 1313.685,1389.361 z M 1321.198,1389.361l 3.837-9.594 l 4.635,0.00 l-3.837,9.594L 1321.198,1389.361 z M 1328.711,1389.361l 3.837-9.594l 4.635,0.00 l-3.837,9.594L 1328.711,1389.361 z M 1340.859,1389.361l-4.635,0.00 l 3.837-9.594l 4.635,0.00 L 1340.859,1389.361z M 1377.271,1387.767c-1.768,0.00-3.204-1.433-3.204-3.203c0.00-1.77, 1.435-3.204, 3.204-3.204 c 1.77,0.00, 3.204,1.433, 3.204,3.204C 1380.476,1386.334, 1379.041,1387.767, 1377.271,1387.767zM 1641.531,1368.901l0.00,11.631 C 1641.531,1388.799, 1622.937,1395.50, 1600.00,1395.50c-22.937,0.00-41.531-6.701-41.531-14.967 l0.00-11.631 c 2.571,1.848, 5.796,3.477, 9.621,4.856C 1576.73,1376.87, 1588.062,1378.585, 1600.00,1378.585 c 11.938,0.00, 23.27-1.714, 31.91-4.828C 1635.734,1372.379, 1638.96,1370.749, 1641.531,1368.901z M 1631.909,1349.447 c-8.639,3.114-19.971,4.828-31.91,4.828c-11.938,0.00-23.27-1.714-31.91-4.828c-3.825-1.379-7.05-3.007-9.621-4.855 l0.00,11.526 c0.00,8.266, 18.594,14.967, 41.531,14.967c 22.937,0.00, 41.531-6.701, 41.531-14.967l0.00-11.526 C 1638.96,1346.439, 1635.734,1348.069, 1631.909,1349.447z M 1600.00,1292.50c-22.937,0.00-41.531,6.701-41.531,14.967 c0.00,8.267, 18.594,14.968, 41.531,14.968c 22.937,0.00, 41.531-6.701, 41.531-14.968C 1641.531,1299.201, 1622.937,1292.50, 1600.00,1292.50z M 1631.909,1325.107C 1623.27,1328.22, 1611.938,1329.935, 1600.00,1329.935c-11.938,0.00-23.27-1.715-31.91-4.828 c-3.825-1.379-7.05-3.008-9.621-4.856l0.00,11.556 c0.00,8.266, 18.594,14.967, 41.531,14.967c 22.937,0.00, 41.531-6.701, 41.531-14.967 l0.00-11.556 C 1638.96,1322.099, 1635.734,1323.728, 1631.909,1325.107zM 1907.50,1370.00l0.00,3.25 c0.00,2.761-2.239,5.00-5.00,5.00L 1809.50,1378.25 c-2.761,0.00-5.00-2.239-5.00-5.00l0.00-3.25 l 41.772,0.00 c 0.343,1.537, 1.712,2.438, 3.353,2.438l 12.75,0.00 c 1.641,0.00, 3.01-0.90, 3.353-2.438L 1907.50,1370.00 z M 1891.959,1316.50L 1820.041,1316.50 l0.00,43.00 l 71.917,0.00 L 1891.959,1316.50 M 1898.709,1366.25 L 1813.292,1366.25 L 1813.292,1314.75 c0.00-2.761, 2.239-5.00, 5.00-5.00l 75.417,0.00 c 2.761,0.00, 5.00,2.239, 5.00,5.00L 1898.709,1366.25 zM 2133.604,1322.396c 2.503,2.503, 2.503,6.5630.00,9.066L 2099.462,1365.605 c-2.503,2.504-6.563,2.503-9.066,0.00l0.00,0.00c-2.504-2.503-2.504-6.5630.00-9.066l 34.142-34.142 C 2127.041,1319.892, 2131.10,1319.892, 2133.604,1322.396L 2133.604,1322.396z M 2094.385,1379.844c-5.026,5.026-13.203,5.026-18.229,0.00 c-5.026-5.026-5.026-13.204,0.00-18.229l 24.198-24.17c-8.12-1.971-17.042,0.213-23.383,6.553L 2067.755,1353.214 c-9.673,9.673-9.673,25.357,0.00,35.031c 9.674,9.673, 25.358,9.673, 35.031,0.00l 9.216-9.216 c 6.339-6.34, 8.524-15.261, 6.554-23.379L 2094.385,1379.844z M 2121.214,1299.755l-9.216,9.216 c-6.34,6.34-8.539,15.249-6.567,23.369l 24.184-24.184c 5.026-5.026, 13.203-5.026, 18.229,0.00 c 5.026,5.026, 5.026,13.203, 0.00,18.229l-24.183,24.183c 8.119,1.97, 17.028-0.226, 23.367-6.566l 9.216-9.216 c 9.673-9.673, 9.673-25.3570.00-35.031C 2146.571,1290.082, 2130.888,1290.082, 2121.214,1299.755zM 2363.985,1337.838l 8.03,0.00 l0.00,24.355 l-8.03,0.00 L 2363.985,1337.838 z M 2368.00,1374.755c-2.393,0.00-4.333-1.94-4.333-4.333 c0.00-2.393, 1.94-4.334, 4.333-4.334c 2.393,0.00, 4.333,1.94, 4.333,4.334C 2372.334,1372.814, 2370.393,1374.755, 2368.00,1374.755z M 2368.00,1299.517 L 2316.50,1388.718l 103.00,0.00 L 2368.00,1299.517z M 2368.00,1319.517l 34.179,59.201L 2333.82,1378.718 L 2368.00,1319.517zM 2675.50,1348.875c0.00-28.443-23.057-51.50-51.50-51.50s-51.50,23.057-51.50,51.50c0.00,11.085, 3.503,21.352, 9.462,29.755 l 18.701,0.00 C 2604.655,1385.70, 2613.602,1390.625, 2624.00,1390.625s 19.345-4.925, 23.337-11.995l 18.701,0.00 C 2671.997,1370.227, 2675.50,1359.96, 2675.50,1348.875z M 2656.219,1321.252l-9.454,9.454c-1.357-1.697-2.899-3.24-4.596-4.596l 9.454-9.454 C 2653.266,1318.066, 2654.809,1319.609, 2656.219,1321.252z M 2637.206,1308.53c 2.053,0.672, 4.068,1.509, 6.003,2.492l-5.121,12.354 c-1.902-1.052-3.917-1.888-6.004-2.49L 2637.206,1308.53z M 2620.75,1306.559c 1.097-0.084, 2.188-0.126, 3.25-0.126s 2.154,0.042, 3.25,0.126l0.00,13.368 c-1.079-0.12-2.17-0.18-3.25-0.18s-2.171,0.061-3.25,0.18L 2620.75,1306.559 z M 2619.153,1351.366L 2624.00,1328.648l 4.847,22.718 c 3.088,1.709, 5.179,4.998, 5.179,8.777c0.00,5.537-4.489,10.026-10.027,10.026c-5.537,0.00-10.026-4.489-10.026-10.026 C 2613.974,1356.364, 2616.065,1353.075, 2619.153,1351.366z M 2610.633,1308.584l 5.171,12.335c-2.084,0.61-4.096,1.454-5.994,2.515 l-5.171-12.334C 2606.568,1310.11, 2608.58,1309.265, 2610.633,1308.584z M 2596.377,1316.656l 9.454,9.454 c-1.697,1.356-3.24,2.899-4.596,4.596l-9.454-9.454C 2593.191,1319.609, 2594.734,1318.066, 2596.377,1316.656z M 2583.653,1335.675 c 0.672-2.054, 1.508-4.069, 2.491-6.004l 12.355,5.119c-1.052,1.901-1.888,3.917-2.489,6.005L 2583.653,1335.675z M 2651.862,1340.358 c-0.633-2.074-1.501-4.075-2.585-5.963l 12.275-5.313c 1.009,1.911, 1.876,3.914, 2.583,5.965L 2651.862,1340.358zM 2879.999,1393.259C 2842.04,1356.312, 2831.368,1342.722, 2829.057,1328.79 C 2826.23,1311.746, 2838.916,1294.741, 2858.684,1294.741c 8.472,0.00, 16.171,3.255, 21.315,8.691c 5.144-5.436, 12.843-8.691, 21.314-8.691 c 19.682,0.00, 32.469,16.92, 29.628,34.048C 2928.681,1342.419, 2918.715,1355.578, 2879.999,1393.259z M 2858.684,1304.741 c-7.982,0.00-14.711,4.018-18.001,10.749c-8.423,17.235, 10.547,34.737, 39.316,63.563 C 2908.877,1350.118, 2927.72,1332.685, 2919.316,1315.49c-3.289-6.731-10.019-10.749-18.002-10.749c-12.863,0.00-18.347,10.129-21.314,14.912 C 2877.212,1315.161, 2872.20,1304.741, 2858.684,1304.741zM 3157.332,1292.50L 3114.668,1292.50 L 3084.50,1322.668l0.00,42.664 L 3114.668,1395.50l 42.664,0.00 L 3187.50,1365.332L 3187.50,1322.668 L 3157.332,1292.50z M 3153.069,1370.352l-16.819-16.818l-16.818,16.82l-9.034-9.039l 16.815-16.818l-16.817-16.816l 9.039-9.034l 16.814,16.812 l 16.811-16.814l 9.041,9.035l-16.814,16.816l 16.817,16.814L 3153.069,1370.352z"></path></svg>