<?xml version="1.0" encoding="utf-8"?> <!-- Generator: IcoMoon.io --> <!DOCTYPE svg PUBLIC "-//W3C//DTD SVG 1.1//EN" "http://www.w3.org/Graphics/SVG/1.1/DTD/svg11.dtd"> <svg width="480" height="448" viewBox="0 0 480 448" xmlns="http://www.w3.org/2000/svg" xmlns:xlink="http://www.w3.org/1999/xlink" fill="#333333"><path d="M 160.00,352.00q0.00-13.25 -9.375-22.625t-22.625-9.375t-22.625,9.375t-9.375,22.625t 9.375,22.625t 22.625,9.375t 22.625-9.375t 9.375-22.625zM 64.00,224.00l 96.00,0.00 l0.00-64.00 l-39.50,0.00 q-3.50,0.50 -5.50,2.25l-48.75,48.75q-1.75,3.00 -2.25,5.50l0.00,7.50 zM 384.00,352.00q0.00-13.25 -9.375-22.625t-22.625-9.375t-22.625,9.375t-9.375,22.625t 9.375,22.625t 22.625,9.375 t 22.625-9.375t 9.375-22.625zM 416.00,184.00l0.00-48.00 q0.00-3.50 -2.25-5.75t-5.75-2.25l-56.00,0.00 l0.00-56.00 q0.00-3.50 -2.25-5.75t-5.75-2.25l-48.00,0.00 q-3.50,0.00 -5.75,2.25t-2.25,5.75l0.00,56.00 l-56.00,0.00 q-3.50,0.00 -5.75,2.25t-2.25,5.75l0.00,48.00 q0.00,3.50 2.25,5.75t 5.75,2.25l 56.00,0.00 l0.00,56.00 q0.00,3.50 2.25,5.75t 5.75,2.25l 48.00,0.00 q 3.50,0.00 5.75-2.25t 2.25-5.75l0.00-56.00 l 56.00,0.00 q 3.50,0.00 5.75-2.25t 2.25-5.75zM 480.00,48.00l0.00,288.00 q0.00,6.50 -4.75,11.25t-11.25,4.75l-48.00,0.00 q0.00,26.50 -18.75,45.25t-45.25,18.75t-45.25-18.75t-18.75-45.25l-96.00,0.00 q0.00,26.50 -18.75,45.25t-45.25,18.75t-45.25-18.75t-18.75-45.25l-32.00,0.00 q-6.50,0.00 -11.25-4.75t-4.75-11.25t 4.75-11.25t 11.25-4.75l0.00-104.00 q0.00-6.50 3.25-14.50t 8.00-12.75l 49.50-49.50q 4.75-4.75 12.75-8.00t 14.50-3.25l 40.00,0.00 l0.00-80.00 q0.00-6.50 4.75-11.25t 11.25-4.75l 288.00,0.00 q 6.50,0.00 11.25,4.75t 4.75,11.25z" ></path></svg>