<?xml version="1.0" encoding="utf-8"?> <!-- Generator: IcoMoon.io --> <!DOCTYPE svg PUBLIC "-//W3C//DTD SVG 1.1//EN" "http://www.w3.org/Graphics/SVG/1.1/DTD/svg11.dtd"> <svg width="500.00000000000006" height="500" viewBox="0 0 500 500" xmlns="http://www.w3.org/2000/svg" xmlns:xlink="http://www.w3.org/1999/xlink" fill="#333333"><path d="M 250.025,480.00c 127.025,0.00, 229.975-102.975, 229.975-230.00s-102.95-230.00-229.975-230.00C 122.975,20.00, 20.00,122.975, 20.00,250.00S 122.975,480.00, 250.025,480.00z M 250.025,70.00c 99.425,0.00, 179.975,80.60, 179.975,180.00s-80.575,180.00-179.975,180.00C 150.575,430.00, 70.00,349.425, 70.00,250.00S 150.575,70.00, 250.025,70.00z M 205.00,346.25 l 90.025,0.00 L 295.025,244.00 l 56.25,0.00 l-101.25-95.25L 148.75,244.00L 205.00,244.00 L 205.00,346.25 z" ></path></svg>