<?xml version="1.0" encoding="utf-8"?> <!-- Generator: IcoMoon.io --> <!DOCTYPE svg PUBLIC "-//W3C//DTD SVG 1.1//EN" "http://www.w3.org/Graphics/SVG/1.1/DTD/svg11.dtd"> <svg width="500.00000000000006" height="500" viewBox="0 0 500 500" xmlns="http://www.w3.org/2000/svg" xmlns:xlink="http://www.w3.org/1999/xlink" fill="#333333"><path d="M 406.85,254.30l-47.575-19.75L 359.275,175.00 l-147.00-60.875L 147.15,142.825l0.00,67.80 L 147.55,211.00L 90.125,235.00l0.00,61.725 l 61.275,26.55l 62.15-25.70 l 4.275,1.70l 125.575,51.875l 2.975,0.85l 2.60-0.85l 58.275-24.85l 4.275-2.175l0.00-67.725 L 406.85,254.30z M 338.70,333.125l-0.425-0.40 l0.00,0.40 L 228.15,287.75L 228.15,244.00 l 110.125,45.075l0.00,1.70 l 0.425,0.00 L 338.70,333.125 z M 346.00,277.425L 311.275,262.50l 37.725-15.95l 35.575,15.025L 346.00,277.425z M 396.55,314.30l-42.85,18.425l0.00-41.975 l 42.85-18.05L 396.55,314.30 z M 250.00,10.00c-132.55,0.00-240.00,107.45-240.00,240.00s 107.45,240.00, 240.00,240.00s 240.00-107.45, 240.00-240.00 S 382.55,10.00, 250.00,10.00z M 250.00,446.00c-108.25,0.00-196.00-87.75-196.00-196.00S 141.75,54.00, 250.00,54.00s 196.00,87.75, 196.00,196.00S 358.25,446.00, 250.00,446.00z" ></path></svg>