<?xml version="1.0" encoding="utf-8"?> <!-- Generator: IcoMoon.io --> <!DOCTYPE svg PUBLIC "-//W3C//DTD SVG 1.1//EN" "http://www.w3.org/Graphics/SVG/1.1/DTD/svg11.dtd"> <svg width="512" height="512" viewBox="0 0 512 512" xmlns="http://www.w3.org/2000/svg" xmlns:xlink="http://www.w3.org/1999/xlink" fill="#333333"><path d="M 435.062,262.166c 4.875-3.625, 9.812-7.187, 14.229-11.604c 13.208-13.229, 23.271-29.333, 29.792-47.854 c 2.083-5.792, 0.604-12.292-3.772-16.625c-4.354-4.375-10.812-5.854-16.623-3.792c-35.396,12.50-73.688,4.00-99.896-22.25 c-26.249-26.25-34.791-64.521-22.249-99.896c 2.042-5.812, 0.583-12.271-3.792-16.646c-4.333-4.333-10.812-5.833-16.625-3.791 c-18.542,6.583-34.625,16.625-47.834,29.833c-33.541,33.50-43.979,81.00-32.479,123.792c-43.25,5.521-82.125,28.50-108.021,63.792 c-5.229-0.75-10.479-1.125-15.792-1.125c-61.75,0.00-112.00,50.249-112.00,112.00c0.00,61.75, 50.25,112.00, 112.00,112.00c 13.688,0.00, 27.084-2.501, 39.709-7.334 C 180.665,497.916, 217.499,512.00, 255.999,512.00c 38.542,0.00, 75.333-14.084, 104.291-39.334c 12.625,4.833, 26.021,7.334, 39.709,7.334 c 61.75,0.00, 112.00-50.25, 112.00-112.00C 512.00,318.562, 479.583,276.979, 435.062,262.166z M 290.916,92.167c 2.542-2.583, 5.271-4.979, 8.146-7.229 c-2.25,35.979, 10.729,71.375, 37.104,97.729c 26.376,26.375, 61.771,39.333, 97.751,37.104c-13.792,17.584-32.792,28.521-53.126,33.188 c-27.375-34.75-67.604-56.624-111.958-60.187C 256.562,158.813, 263.75,119.333, 290.916,92.167z" ></path></svg>