<?xml version="1.0" encoding="utf-8"?> <!-- Generator: IcoMoon.io --> <!DOCTYPE svg PUBLIC "-//W3C//DTD SVG 1.1//EN" "http://www.w3.org/Graphics/SVG/1.1/DTD/svg11.dtd"> <svg width="448" height="448" viewBox="0 0 448 448" xmlns="http://www.w3.org/2000/svg" xmlns:xlink="http://www.w3.org/1999/xlink" fill="#333333"><path d="M 128.00,312.00l0.00,48.00 q0.00,10.00 -7.00,17.00t-17.00,7.00l-80.00,0.00 q-10.00,0.00 -17.00-7.00t-7.00-17.00l0.00-48.00 q0.00-10.00 7.00-17.00t 17.00-7.00l 80.00,0.00 q 10.00,0.00 17.00,7.00t 7.00,17.00zM 128.00,184.00l0.00,48.00 q0.00,10.00 -7.00,17.00t-17.00,7.00l-80.00,0.00 q-10.00,0.00 -17.00-7.00t-7.00-17.00l0.00-48.00 q0.00-10.00 7.00-17.00t 17.00-7.00l 80.00,0.00 q 10.00,0.00 17.00,7.00t 7.00,17.00zM 288.00,312.00l0.00,48.00 q0.00,10.00 -7.00,17.00t-17.00,7.00l-80.00,0.00 q-10.00,0.00 -17.00-7.00t-7.00-17.00l0.00-48.00 q0.00-10.00 7.00-17.00t 17.00-7.00l 80.00,0.00 q 10.00,0.00 17.00,7.00t 7.00,17.00zM 128.00,56.00l0.00,48.00 q0.00,10.00 -7.00,17.00t-17.00,7.00l-80.00,0.00 q-10.00,0.00 -17.00-7.00t-7.00-17.00l0.00-48.00 q0.00-10.00 7.00-17.00t 17.00-7.00l 80.00,0.00 q 10.00,0.00 17.00,7.00t 7.00,17.00zM 288.00,184.00l0.00,48.00 q0.00,10.00 -7.00,17.00t-17.00,7.00l-80.00,0.00 q-10.00,0.00 -17.00-7.00t-7.00-17.00l0.00-48.00 q0.00-10.00 7.00-17.00t 17.00-7.00 l 80.00,0.00 q 10.00,0.00 17.00,7.00t 7.00,17.00zM 448.00,312.00l0.00,48.00 q0.00,10.00 -7.00,17.00t-17.00,7.00l-80.00,0.00 q-10.00,0.00 -17.00-7.00t-7.00-17.00l0.00-48.00 q0.00-10.00 7.00-17.00t 17.00-7.00l 80.00,0.00 q 10.00,0.00 17.00,7.00t 7.00,17.00zM 288.00,56.00l0.00,48.00 q0.00,10.00 -7.00,17.00t-17.00,7.00l-80.00,0.00 q-10.00,0.00 -17.00-7.00t-7.00-17.00l0.00-48.00 q0.00-10.00 7.00-17.00t 17.00-7.00l 80.00,0.00 q 10.00,0.00 17.00,7.00t 7.00,17.00zM 448.00,184.00l0.00,48.00 q0.00,10.00 -7.00,17.00t-17.00,7.00l-80.00,0.00 q-10.00,0.00 -17.00-7.00t-7.00-17.00l0.00-48.00 q0.00-10.00 7.00-17.00t 17.00-7.00l 80.00,0.00 q 10.00,0.00 17.00,7.00t 7.00,17.00zM 448.00,56.00l0.00,48.00 q0.00,10.00 -7.00,17.00t-17.00,7.00l-80.00,0.00 q-10.00,0.00 -17.00-7.00t-7.00-17.00l0.00-48.00 q0.00-10.00 7.00-17.00t 17.00-7.00l 80.00,0.00 q 10.00,0.00 17.00,7.00t 7.00,17.00z" ></path></svg>