<?xml version="1.0" encoding="utf-8"?> <!-- Generator: IcoMoon.io --> <!DOCTYPE svg PUBLIC "-//W3C//DTD SVG 1.1//EN" "http://www.w3.org/Graphics/SVG/1.1/DTD/svg11.dtd"> <svg width="512" height="512" viewBox="0 0 512 512" xmlns="http://www.w3.org/2000/svg" xmlns:xlink="http://www.w3.org/1999/xlink" fill="#333333"><path d="M 259.952,75.728c0.00,26.944, 20.336,45.20, 45.44,45.20c 25.104,0.00, 45.472-18.272, 45.472-45.20 c0.00-26.96-20.352-45.216-45.472-45.216C 280.304,30.512, 259.952,48.768, 259.952,75.728z M 161.536,230.00c0.00,5.344-0.976,18.608, 0.128,26.592 l 39.664-47.728c 8.208-8.992, 17.696-15.28, 22.544-13.584c 4.864,1.696, 7.52,7.408, 5.936,12.72L 164.16,425.44 c-7.568,25.408, 6.736,50.368, 41.584,56.064c 51.024,0.00, 81.344-34.528, 111.168-79.28c0.00-5.344, 1.776-19.408, 0.704-27.408l-39.664,47.712 c-8.224,8.992-18.416,15.28-23.28,13.60c-4.48-1.568-7.104-6.56-6.224-11.536l 66.112-218.448c 5.504-27.744-9.44-52.992-41.024-56.224 C 240.32,149.936, 191.36,185.264, 161.536,230.00z" ></path></svg>