<?xml version="1.0" encoding="utf-8"?> <!-- Generator: IcoMoon.io --> <!DOCTYPE svg PUBLIC "-//W3C//DTD SVG 1.1//EN" "http://www.w3.org/Graphics/SVG/1.1/DTD/svg11.dtd"> <svg width="512" height="512" viewBox="0 0 512 512" xmlns="http://www.w3.org/2000/svg" xmlns:xlink="http://www.w3.org/1999/xlink" fill="#333333"><path d="M 54.80,223.248c0.00,0.00, 386.192,0.00, 386.768,0.00c 9.328-4.08, 8.912-12.832, 0.176-18.64 C 432.992,198.768, 247.84,65.12, 247.84,65.12S 64.128,198.768, 54.80,204.608C 45.488,210.416, 44.896,219.168, 54.80,223.248z M 247.84,131.12 c 15.44,0.00, 27.968,12.512, 27.968,27.952s-12.528,27.968-27.968,27.968s-27.952-12.528-27.952-27.968S 232.40,131.12, 247.84,131.12z M 64.432,430.912 l 367.488,0.00 l0.00-15.632 L 64.432,415.28 L 64.432,430.912 z M 144.00,398.976l0.00-142.448 l 15.648,0.00 L 159.648,238.88 L 79.76,238.88 l0.00,16.048 l 15.648,0.00 l0.00,144.032 L 144.00,398.96 z M 272.48,398.976L 272.48,255.52 l 15.648,0.00 l0.00-15.648 l-79.872,0.00 l0.00,15.04 l 15.632,0.00 l0.00,144.032 L 272.48,398.944 z M 48.48,462.88l 399.408,0.00 l0.00-14.624 L 48.48,448.256 L 48.48,462.88 z M 399.968,398.976L 399.968,255.52 l 15.648,0.00 l0.00-15.648 l-79.888,0.00 l0.00,15.04 l 15.664,0.00 l0.00,144.032 L 399.968,398.944 z" ></path></svg>