<?xml version="1.0" encoding="utf-8"?> <!-- Generator: IcoMoon.io --> <!DOCTYPE svg PUBLIC "-//W3C//DTD SVG 1.1//EN" "http://www.w3.org/Graphics/SVG/1.1/DTD/svg11.dtd"> <svg width="512" height="512" viewBox="0 0 512 512" xmlns="http://www.w3.org/2000/svg" xmlns:xlink="http://www.w3.org/1999/xlink" fill="#333333"><path d="M 512.00,134.833c0.00-49.146-40.00-89.124-89.167-89.124c-2.396,0.00-4.771,0.083-7.146,0.27 C 392.562,17.146, 357.709,0.00, 320.00,0.00c-37.688,0.00-72.562,17.146-95.688,45.979c-2.375-0.187-4.771-0.27-7.188-0.27 C 168.00,45.709, 128.00,85.688, 128.00,134.833c0.00,5.146, 0.688,10.125, 1.50,15.042c-0.542,0.708-1.188,1.354-1.708,2.083 c-5.229-0.75-10.479-1.125-15.792-1.125c-61.75,0.00-112.00,50.25-112.00,112.00c0.00,61.751, 50.25,112.00, 112.00,112.00c 13.688,0.00, 27.084-2.499, 39.709-7.333 c 18.354,16.00, 40.104,26.938, 63.207,33.208L 192.00,416.00l 32.00,32.00l-32.00,64.00l 96.00-64.00l-32.00-32.00l 4.812-9.583c 36.75-1.125, 71.75-14.729, 99.479-38.917 c 12.625,4.834, 26.021,7.333, 39.709,7.333c 61.75,0.00, 112.00-50.249, 112.00-112.00c0.00-25.666-9.042-49.083-23.666-68.00 C 502.916,178.958, 512.00,158.021, 512.00,134.833z" ></path></svg>