<?xml version="1.0" encoding="utf-8"?> <!-- Generator: IcoMoon.io --> <!DOCTYPE svg PUBLIC "-//W3C//DTD SVG 1.1//EN" "http://www.w3.org/Graphics/SVG/1.1/DTD/svg11.dtd"> <svg width="512" height="512" viewBox="0 0 512 512" xmlns="http://www.w3.org/2000/svg" xmlns:xlink="http://www.w3.org/1999/xlink" fill="#333333"><path d="M 400.00,64.00c-5.312,0.00-10.562,0.375-15.792,1.125C 354.334,24.417, 307.188,0.00, 256.00,0.00 c-51.188,0.00-98.312,24.417-128.208,65.125C 122.562,64.375, 117.312,64.00, 112.00,64.00C 50.25,64.00,0.00,114.25,0.00,176.00s 50.25,112.00, 112.00,112.00 c 13.688,0.00, 27.084-2.50, 39.709-7.333c 12.291,10.708, 26.25,18.958, 40.916,25.416l 24.916-24.874 c-23.458-7.626-44.166-21.271-59.604-39.876C 144.938,250.50, 129.125,256.00, 112.00,256.00c-44.188,0.00-80.00-35.812-80.00-80.00s 35.812-80.00, 80.00-80.00 c 10.812,0.00, 21.062,2.208, 30.438,6.083C 163.667,60.667, 206.291,32.00, 256.00,32.00s 92.334,28.667, 113.541,70.083 C 378.938,98.208, 389.209,96.00, 400.00,96.00c 44.188,0.00, 80.00,35.812, 80.00,80.00s-35.812,80.00-80.00,80.00c-17.125,0.00-32.916-5.50-45.938-14.667 c-10.375,12.521-23.312,22.667-37.625,30.584L 303.00,312.25c 20.875-6.562, 40.50-16.938, 57.291-31.583 C 372.916,285.50, 386.312,288.00, 400.00,288.00c 61.75,0.00, 112.00-50.25, 112.00-112.00S 461.75,64.00, 400.00,64.00z M 192.00,352.00l 32.00,32.00l-32.00,96.00l 96.00-96.00l-32.00-32.00l 32.00-96.00 L 192.00,352.00z" ></path></svg>