<?xml version="1.0" encoding="utf-8"?> <!-- Generator: IcoMoon.io --> <!DOCTYPE svg PUBLIC "-//W3C//DTD SVG 1.1//EN" "http://www.w3.org/Graphics/SVG/1.1/DTD/svg11.dtd"> <svg width="512" height="512" viewBox="0 0 512 512" xmlns="http://www.w3.org/2000/svg" xmlns:xlink="http://www.w3.org/1999/xlink" fill="#333333"><path d="M 351.984,64.00l-192.00,0.00 C 142.32,64.00, 128.00,78.336, 128.00,96.00l0.00,320.00 c0.00,17.664, 14.32,32.00, 31.984,32.00l 192.00,0.00 C 369.664,448.00, 384.00,433.664, 384.00,416.00L 384.00,96.00 C 384.00,78.336, 369.664,64.00, 351.984,64.00z M 208.00,80.00l 80.00,0.00 l 0.992,16.00L 208.00,96.00 L 208.00,80.00 z M 255.664,424.00c-8.832,0.00-16.00-7.152-16.00-16.00s 7.168-16.00, 16.00-16.00 c 8.848,0.00, 16.00,7.152, 16.00,16.00S 264.496,424.00, 255.664,424.00z M 351.984,368.00l-192.00,0.00 l 0.336-256.00l 191.664,0.00 L 351.984,368.00 z" ></path></svg>