<?xml version="1.0" encoding="utf-8"?> <!-- Generator: IcoMoon.io --> <!DOCTYPE svg PUBLIC "-//W3C//DTD SVG 1.1//EN" "http://www.w3.org/Graphics/SVG/1.1/DTD/svg11.dtd"> <svg width="512" height="512" viewBox="0 0 512 512" xmlns="http://www.w3.org/2000/svg" xmlns:xlink="http://www.w3.org/1999/xlink" fill="#333333"><path d="M0.00,367.824L0.00,160.176 l 31.824,0.00 l0.00,95.536 l 31.52,0.00 l0.00-95.536 l 33.168,0.00 l0.00,31.84 L 127.68,192.016 l0.00-31.84 l 32.192,0.00 l0.00,63.68 l 31.84,0.00 l0.00-63.68 l 32.496,0.00 l0.00,31.168 l 31.184,0.00 l0.00-31.168 l 33.168,0.00 l0.00,63.68 l 31.168,0.00 l0.00-63.68 l 32.512,0.00 l0.00,95.536 l 30.496,0.00 l0.00-95.536 l 33.52,0.00 l0.00,31.168 l 31.52,0.00 l0.00-31.168 l 32.848,0.00 l0.00,63.68 l 30.176,0.00 l0.00-63.68 l 33.52,0.00 l0.00,31.168 l 30.832,0.00 l0.00-31.168 L 608.00,160.176 l0.00,63.68 l 31.52,0.00 l0.00-63.68 l 32.512,0.00 l0.00,207.664 L0.00,367.84 z" ></path></svg>