<?xml version="1.0" encoding="utf-8"?> <!-- Generator: IcoMoon.io --> <!DOCTYPE svg PUBLIC "-//W3C//DTD SVG 1.1//EN" "http://www.w3.org/Graphics/SVG/1.1/DTD/svg11.dtd"> <svg width="500.00000000000006" height="500" viewBox="0 0 500 500" xmlns="http://www.w3.org/2000/svg" xmlns:xlink="http://www.w3.org/1999/xlink" fill="#333333"><path d="M 500.00,470.00c0.00,0.00-0.975-94.675-6.775-104.475c-8.625-14.625-28.65-24.65-65.85-40.20c-37.075-15.50-48.95-28.60-48.95-56.575 c0.00-16.825, 11.325-11.325, 16.30-42.10c 2.05-12.775, 12.05-0.225, 13.975-29.35c0.00-11.625-5.45-14.525-5.45-14.525s 2.75-17.20, 3.85-30.425 c 1.35-16.50-8.325-59.075-59.80-59.075s-61.10,42.60-59.775,59.075c 1.075,13.225, 3.825,30.425, 3.825,30.425s-5.45,2.90-5.45,14.525 c 1.925,29.15, 11.925,16.60, 14.00,29.35c 4.95,30.775, 16.275,25.275, 16.275,42.10c0.00,19.025-5.50,31.175-20.675,41.85 c 81.00,40.55, 91.875,48.825, 91.875,85.075L 387.375,470.00 L 500.00,470.00 z M 255.60,339.375c-49.475-20.65-65.25-38.10-65.25-75.425c0.00-22.40, 15.10-15.10, 21.725-56.15 c 2.725-17.025, 16.10-0.275, 18.625-39.125c0.00-15.50-7.275-19.35-7.275-19.35s 3.70-22.925, 5.15-40.575C 230.375,86.80, 217.475,30.00, 148.85,30.00 c-68.625,0.00-81.50,56.775-79.70,78.75c 1.45,17.65, 5.125,40.575, 5.125,40.575S 67.025,153.175, 67.025,168.675 c 2.575,38.875, 15.90,22.125, 18.65,39.125c 6.625,41.05, 21.725,33.725, 21.725,56.15c0.00,37.325-15.825,54.775-65.25,75.425 C 27.075,345.675,0.00,355.45,0.00,378.90L0.00,470.00 l 347.35,0.00 c0.00,0.00,0.00-53.875,0.00-68.275C 347.35,380.30, 305.175,360.125, 255.60,339.375z" ></path></svg>