<?xml version="1.0" encoding="utf-8"?> <!-- Generator: IcoMoon.io --> <!DOCTYPE svg PUBLIC "-//W3C//DTD SVG 1.1//EN" "http://www.w3.org/Graphics/SVG/1.1/DTD/svg11.dtd"> <svg width="500.00000000000006" height="500" viewBox="0 0 500 500" xmlns="http://www.w3.org/2000/svg" xmlns:xlink="http://www.w3.org/1999/xlink" fill="#333333"><path d="M 450.00,50.00L 50.00,50.00 C 22.50,50.00,0.00,72.50,0.00,100.00l0.00,300.00 c0.00,27.50, 22.50,50.00, 50.00,50.00l 400.00,0.00 c 27.525,0.00, 50.00-22.50, 50.00-50.00L 500.00,100.00 C 500.00,72.50, 477.525,50.00, 450.00,50.00z M 450.00,400.00L 50.00,400.00 L 50.00,100.00 l 400.00,0.00 L 450.00,400.00 z M 225.00,302.50L 100.00,302.50 L 100.00,347.50 l 125.00,0.00 L 225.00,302.50 z M 225.00,227.50L 100.00,227.50 l0.00,45.00 l 125.00,0.00 L 225.00,227.50 z M 225.00,152.50L 100.00,152.50 l0.00,45.00 l 125.00,0.00 L 225.00,152.50 z M 397.50,312.50c0.00,0.00-42.50-11.10-42.50-32.95c0.00-20.80, 27.525-29.55, 27.525-72.05 c0.00-34.50-10.50-55.00-45.025-55.00s-45.00,20.475-45.00,55.00c0.00,42.50, 27.50,51.25, 27.50,72.05c0.00,21.85-42.475,32.95-42.475,32.95C 275.00,312.50, 275.00,347.50, 275.00,347.50 l 125.00,0.00 C 400.00,347.50, 400.00,312.50, 397.50,312.50z" ></path></svg>