<?xml version="1.0" encoding="utf-8"?> <!-- Generator: IcoMoon.io --> <!DOCTYPE svg PUBLIC "-//W3C//DTD SVG 1.1//EN" "http://www.w3.org/Graphics/SVG/1.1/DTD/svg11.dtd"> <svg width="512" height="512" viewBox="0 0 512 512" xmlns="http://www.w3.org/2000/svg" xmlns:xlink="http://www.w3.org/1999/xlink" fill="#333333"><path d="M 417.042,70.792C 393.062,46.229, 359.917,32.00, 325.312,32.00 c-34.562,0.00-67.688,14.229-91.665,38.792c-52.813,2.438-95.021,46.167-95.021,99.542c0.00,54.978, 44.709,99.708, 99.688,99.708 c 5.834,0.00, 11.604-0.501, 17.271-1.50c 20.729,13.521, 44.917,20.833, 69.729,20.833c 24.854,0.00, 49.063-7.312, 69.772-20.833 c 5.707,0.999, 11.458,1.50, 17.291,1.50c 54.938,0.00, 99.625-44.73, 99.625-99.708C 512.00,116.958, 469.812,73.208, 417.042,70.792z M 412.375,238.042c-8.312,0.00-16.375-1.50-24.00-4.458c-17.50,15.25-39.75,23.792-63.063,23.792c-23.249,0.00-45.499-8.542-62.999-23.792 c-7.625,2.959-15.75,4.458-24.00,4.458c-37.312,0.00-67.688-30.375-67.688-67.708c0.00-37.292, 30.375-67.667, 67.688-67.667 c 3.188,0.00, 6.375,0.25, 9.521,0.688C 265.938,78.771, 294.375,64.00, 325.312,64.00c 30.938,0.00, 59.438,14.771, 77.501,39.354 c 3.125-0.438, 6.312-0.688, 9.562-0.688c 37.312,0.00, 67.625,30.375, 67.625,67.667C 480.00,207.667, 449.688,238.042, 412.375,238.042z M 144.00,256.688L 16.00,256.688 c-8.833,0.00-16.00,7.146-16.00,16.00c0.00,8.853, 7.167,16.00, 16.00,16.00l 128.00,0.00 c 8.833,0.00, 16.00-7.147, 16.00-16.00 C 160.00,263.834, 152.833,256.688, 144.00,256.688z M 16.00,224.688l 64.00,0.00 c 8.833,0.00, 16.00-7.146, 16.00-16.00c0.00-8.854-7.167-16.00-16.00-16.00L 16.00,192.688 c-8.833,0.00-16.00,7.146-16.00,16.00C0.00,217.542, 7.167,224.688, 16.00,224.688z M 48.00,160.688l 64.00,0.00 c 8.833,0.00, 16.00-7.146, 16.00-16.00c0.00-8.854-7.167-16.00-16.00-16.00L 48.00,128.688 c-8.833,0.00-16.00,7.146-16.00,16.00C 32.00,153.542, 39.167,160.688, 48.00,160.688z M 224.00,384.00c0.00,17.688, 14.312,32.00, 32.00,32.00s 32.00-14.312, 32.00-32.00s-32.00-64.00-32.00-64.00 S 224.00,366.312, 224.00,384.00z M 352.00,448.00c0.00,17.688, 14.312,32.00, 32.00,32.00s 32.00-14.312, 32.00-32.00s-32.00-64.00-32.00-64.00S 352.00,430.312, 352.00,448.00z" ></path></svg>