<?xml version="1.0" encoding="utf-8"?> <!-- Generator: IcoMoon.io --> <!DOCTYPE svg PUBLIC "-//W3C//DTD SVG 1.1//EN" "http://www.w3.org/Graphics/SVG/1.1/DTD/svg11.dtd"> <svg width="512" height="512" viewBox="0 0 512 512" xmlns="http://www.w3.org/2000/svg" xmlns:xlink="http://www.w3.org/1999/xlink" fill="#333333"><path d="M 185.968,121.648l 96.992,56.00c 7.664,4.416, 17.44,1.792, 21.84-5.856 c 4.432-7.648, 1.808-17.44-5.84-21.84l-96.992-56.00c-7.664-4.416-17.44-1.792-21.856,5.84C 175.68,107.44, 178.32,117.216, 185.968,121.648z M 274.976,191.504l-96.992-56.00l-56.00,96.992l 96.992,56.00L 274.976,191.504z M 97.968,274.064l 96.992,56.00c 7.648,4.416, 17.44,1.792, 21.84-5.856 c 4.416-7.648, 1.792-17.44-5.84-21.84l-96.992-56.00c-7.664-4.416-17.44-1.792-21.856,5.84C 87.68,259.856, 90.32,269.648, 97.968,274.064z M 432.192,319.216l-177.216-93.072l-16.00,27.712l 169.216,106.928c 11.472,6.624, 26.16,2.704, 32.784-8.784S 443.664,325.84, 432.192,319.216z M 256.528,400.00c0.00-8.848-7.168-16.00-16.00-16.00l-144.00,0.00 c-8.848,0.00-16.00,7.152-16.00,16.00c0.00,8.832,0.00,16.00,0.00,16.00L 64.00,415.664L 64.528,432.00l 208.00,0.00 l 0.752-15.328L 257.536,416.00 C 257.536,416.00, 256.528,408.832, 256.528,400.00z" ></path></svg>