<?xml version="1.0" encoding="utf-8"?> <!-- Generator: IcoMoon.io --> <!DOCTYPE svg PUBLIC "-//W3C//DTD SVG 1.1//EN" "http://www.w3.org/Graphics/SVG/1.1/DTD/svg11.dtd"> <svg width="352" height="448" viewBox="0 0 352 448" xmlns="http://www.w3.org/2000/svg" xmlns:xlink="http://www.w3.org/1999/xlink" fill="#333333"><path d="M 96.00,328.00l0.00,16.00 q0.00,3.25 -2.375,5.625t-5.625,2.375l-16.00,0.00 q-3.25,0.00 -5.625-2.375t-2.375-5.625l0.00-16.00 q0.00-3.25 2.375-5.625t 5.625-2.375l 16.00,0.00 q 3.25,0.00 5.625,2.375t 2.375,5.625zM 96.00,264.00l0.00,16.00 q0.00,3.25 -2.375,5.625t-5.625,2.375l-16.00,0.00 q-3.25,0.00 -5.625-2.375t-2.375-5.625l0.00-16.00 q0.00-3.25 2.375-5.625t 5.625-2.375l 16.00,0.00 q 3.25,0.00 5.625,2.375t 2.375,5.625z M 160.00,264.00l0.00,16.00 q0.00,3.25 -2.375,5.625t-5.625,2.375l-16.00,0.00 q-3.25,0.00 -5.625-2.375t-2.375-5.625l0.00-16.00 q0.00-3.25 2.375-5.625t 5.625-2.375l 16.00,0.00 q 3.25,0.00 5.625,2.375t 2.375,5.625zM 96.00,200.00l0.00,16.00 q0.00,3.25 -2.375,5.625t-5.625,2.375l-16.00,0.00 q-3.25,0.00 -5.625-2.375t-2.375-5.625l0.00-16.00 q0.00-3.25 2.375-5.625t 5.625-2.375l 16.00,0.00 q 3.25,0.00 5.625,2.375t 2.375,5.625z M 288.00,328.00l0.00,16.00 q0.00,3.25 -2.375,5.625t-5.625,2.375l-16.00,0.00 q-3.25,0.00 -5.625-2.375t-2.375-5.625l0.00-16.00 q0.00-3.25 2.375-5.625t 5.625-2.375l 16.00,0.00 q 3.25,0.00 5.625,2.375t 2.375,5.625zM 224.00,264.00l0.00,16.00 q0.00,3.25 -2.375,5.625t-5.625,2.375l-16.00,0.00 q-3.25,0.00 -5.625-2.375t-2.375-5.625l0.00-16.00 q0.00-3.25 2.375-5.625t 5.625-2.375l 16.00,0.00 q 3.25,0.00 5.625,2.375t 2.375,5.625z M 160.00,200.00l0.00,16.00 q0.00,3.25 -2.375,5.625t-5.625,2.375l-16.00,0.00 q-3.25,0.00 -5.625-2.375t-2.375-5.625l0.00-16.00 q0.00-3.25 2.375-5.625t 5.625-2.375l 16.00,0.00 q 3.25,0.00 5.625,2.375t 2.375,5.625zM 96.00,136.00l0.00,16.00 q0.00,3.25 -2.375,5.625t-5.625,2.375l-16.00,0.00 q-3.25,0.00 -5.625-2.375t-2.375-5.625l0.00-16.00 q0.00-3.25 2.375-5.625t 5.625-2.375l 16.00,0.00 q 3.25,0.00 5.625,2.375t 2.375,5.625z M 288.00,264.00l0.00,16.00 q0.00,3.25 -2.375,5.625t-5.625,2.375l-16.00,0.00 q-3.25,0.00 -5.625-2.375t-2.375-5.625l0.00-16.00 q0.00-3.25 2.375-5.625t 5.625-2.375l 16.00,0.00 q 3.25,0.00 5.625,2.375t 2.375,5.625zM 224.00,200.00l0.00,16.00 q0.00,3.25 -2.375,5.625t-5.625,2.375l-16.00,0.00 q-3.25,0.00 -5.625-2.375t-2.375-5.625l0.00-16.00 q0.00-3.25 2.375-5.625t 5.625-2.375l 16.00,0.00 q 3.25,0.00 5.625,2.375t 2.375,5.625z M 160.00,136.00l0.00,16.00 q0.00,3.25 -2.375,5.625t-5.625,2.375l-16.00,0.00 q-3.25,0.00 -5.625-2.375t-2.375-5.625l0.00-16.00 q0.00-3.25 2.375-5.625t 5.625-2.375l 16.00,0.00 q 3.25,0.00 5.625,2.375t 2.375,5.625zM 96.00,72.00l0.00,16.00 q0.00,3.25 -2.375,5.625t-5.625,2.375l-16.00,0.00 q-3.25,0.00 -5.625-2.375t-2.375-5.625l0.00-16.00 q0.00-3.25 2.375-5.625t 5.625-2.375l 16.00,0.00 q 3.25,0.00 5.625,2.375t 2.375,5.625z M 288.00,200.00l0.00,16.00 q0.00,3.25 -2.375,5.625t-5.625,2.375l-16.00,0.00 q-3.25,0.00 -5.625-2.375t-2.375-5.625l0.00-16.00 q0.00-3.25 2.375-5.625t 5.625-2.375l 16.00,0.00 q 3.25,0.00 5.625,2.375t 2.375,5.625zM 224.00,136.00l0.00,16.00 q0.00,3.25 -2.375,5.625t-5.625,2.375l-16.00,0.00 q-3.25,0.00 -5.625-2.375t-2.375-5.625l0.00-16.00 q0.00-3.25 2.375-5.625t 5.625-2.375l 16.00,0.00 q 3.25,0.00 5.625,2.375t 2.375,5.625z M 160.00,72.00l0.00,16.00 q0.00,3.25 -2.375,5.625t-5.625,2.375l-16.00,0.00 q-3.25,0.00 -5.625-2.375t-2.375-5.625l0.00-16.00 q0.00-3.25 2.375-5.625t 5.625-2.375l 16.00,0.00 q 3.25,0.00 5.625,2.375t 2.375,5.625zM 288.00,136.00l0.00,16.00 q0.00,3.25 -2.375,5.625t-5.625,2.375l-16.00,0.00 q-3.25,0.00 -5.625-2.375t-2.375-5.625l0.00-16.00 q0.00-3.25 2.375-5.625t 5.625-2.375l 16.00,0.00 q 3.25,0.00 5.625,2.375t 2.375,5.625z M 224.00,72.00l0.00,16.00 q0.00,3.25 -2.375,5.625t-5.625,2.375l-16.00,0.00 q-3.25,0.00 -5.625-2.375t-2.375-5.625l0.00-16.00 q0.00-3.25 2.375-5.625t 5.625-2.375l 16.00,0.00 q 3.25,0.00 5.625,2.375t 2.375,5.625zM 288.00,72.00l0.00,16.00 q0.00,3.25 -2.375,5.625t-5.625,2.375l-16.00,0.00 q-3.25,0.00 -5.625-2.375t-2.375-5.625l0.00-16.00 q0.00-3.25 2.375-5.625t 5.625-2.375l 16.00,0.00 q 3.25,0.00 5.625,2.375t 2.375,5.625z M 224.00,416.00l 96.00,0.00 l0.00-384.00 l-288.00,0.00 l0.00,384.00 l 96.00,0.00 l0.00-56.00 q0.00-3.25 2.375-5.625t 5.625-2.375l 80.00,0.00 q 3.25,0.00 5.625,2.375t 2.375,5.625l0.00,56.00 zM 352.00,16.00l0.00,416.00 q0.00,6.50 -4.75,11.25t-11.25,4.75l-320.00,0.00 q-6.50,0.00 -11.25-4.75t-4.75-11.25l0.00-416.00 q0.00-6.50 4.75-11.25t 11.25-4.75l 320.00,0.00 q 6.50,0.00 11.25,4.75t 4.75,11.25z" ></path></svg>