<?xml version="1.0" encoding="utf-8"?> <!-- Generator: IcoMoon.io --> <!DOCTYPE svg PUBLIC "-//W3C//DTD SVG 1.1//EN" "http://www.w3.org/Graphics/SVG/1.1/DTD/svg11.dtd"> <svg width="512" height="512" viewBox="0 0 512 512" xmlns="http://www.w3.org/2000/svg" xmlns:xlink="http://www.w3.org/1999/xlink" fill="#333333"><path d="M 209.167,176.375c-3.604-3.396-7.792-6.083-12.542-8.062c-4.812-1.938-9.938-2.938-15.375-2.938 c-5.458,0.00-10.584,1.00-15.375,2.938c-4.75,1.979-8.938,4.667-12.541,8.062c-3.584,3.417-6.396,7.417-8.459,12.042 c-2.042,4.605-3.062,9.479-3.062,14.583c0.00,5.125, 1.021,10.00, 3.062,14.605c 2.062,4.604, 4.875,8.625, 8.459,12.02 c 3.604,3.417, 7.791,6.125, 12.541,8.063c 4.791,1.979, 9.917,2.958, 15.375,2.958c 5.438,0.00, 10.562-0.979, 15.375-2.958 c 4.75-1.938, 8.938-4.646, 12.542-8.063c 3.583-3.395, 6.396-7.417, 8.416-12.02c 2.042-4.605, 3.104-9.479, 3.104-14.605 c0.00-5.104-1.062-9.979-3.104-14.583C 215.562,183.791, 212.75,179.791, 209.167,176.375z M 193.812,215.041 c-3.438,3.417-7.625,5.125-12.562,5.125s-9.125-1.709-12.562-5.125c-3.396-3.417-5.125-7.417-5.125-12.042 c0.00-4.75, 1.729-8.833, 5.125-12.145c 3.438-3.333, 7.625-4.979, 12.562-4.979s 9.125,1.646, 12.562,4.979 c 3.375,3.312, 5.104,7.395, 5.104,12.145C 198.916,207.625, 197.188,211.625, 193.812,215.041z M 335.25,311.791 c-6.062,1.73-12.083,2.583-18.062,2.583c-3.938,0.00-7.812-0.604-11.646-1.79c-3.854-1.209-7.354-3.084-10.499-5.646 c-3.167-2.563-5.73-5.834-7.667-9.854c-1.959-4.00-2.958-8.917-2.958-14.709l0.00-51.458 c0.00-5.792, 0.999-10.75, 2.958-14.854 c 1.937-4.083, 4.459-7.417, 7.541-9.979c 3.084-2.562, 6.542-4.396, 10.50-5.50c 3.917-1.105, 7.834-1.667, 11.771-1.667 c 5.979,0.00, 12.124,0.875, 18.437,2.688c 6.313,1.791, 12.188,4.999, 17.668,9.604l 16.896-27.146 c-6.854-5.958-14.979-10.312-24.479-13.062c-9.459-2.708-19.292-4.083-29.543-4.083c-8.354,0.00-16.583,1.208-24.583,3.584 c-8.021,2.396-15.146,5.979-21.375,10.75c-6.208,4.792-11.271,10.708-15.083,17.791c-3.875,7.084-5.791,15.333-5.791,24.708 l0.00,66.042 c0.00,9.562, 1.979,17.875, 5.916,24.959c 3.917,7.084, 9.041,12.979, 15.334,17.666c 6.332,4.708, 13.479,8.229, 21.499,10.625 c 8.042,2.375, 16.229,3.584, 24.604,3.584c 10.396,0.00, 20.271-1.542, 29.688-4.604c 9.375-3.083, 17.312-7.354, 23.812-12.792 l-16.646-27.146C 347.416,306.875, 341.292,310.104, 335.25,311.791z" ></path></svg>