<?xml version="1.0" encoding="utf-8"?> <!-- Generator: IcoMoon.io --> <!DOCTYPE svg PUBLIC "-//W3C//DTD SVG 1.1//EN" "http://www.w3.org/Graphics/SVG/1.1/DTD/svg11.dtd"> <svg width="512" height="512" viewBox="0 0 512 512" xmlns="http://www.w3.org/2000/svg" xmlns:xlink="http://www.w3.org/1999/xlink" fill="#333333"><path d="M 435.062,262.166c 4.875-3.625, 9.812-7.188, 14.229-11.604c 13.208-13.229, 23.271-29.333, 29.792-47.854 c 2.083-5.792, 0.604-12.292-3.772-16.625c-4.354-4.375-10.812-5.854-16.623-3.792c-35.396,12.50-73.688,4.00-99.896-22.25 C 332.542,133.79, 324.00,95.52, 336.542,60.145c 2.042-5.813, 0.583-12.271-3.792-16.646c-4.333-4.333-10.812-5.834-16.625-3.791 C 297.583,46.29, 281.50,56.331, 268.291,69.54c-33.541,33.50-43.979,81.00-32.479,123.792c-43.25,5.521-82.125,28.50-108.021,63.793 c-5.229-0.75-10.479-1.125-15.792-1.125c-61.75,0.00-112.00,50.25-112.00,112.001c0.00,61.749, 50.25,111.999, 112.00,111.999 c 13.688,0.00, 27.084-2.50, 39.709-7.334C 180.665,497.916, 217.499,512.00, 255.999,512.00c 38.542,0.00, 75.333-14.084, 104.291-39.334 C 372.915,477.50, 386.311,480.00, 399.999,480.00c 61.75,0.00, 112.00-50.25, 112.00-111.999C 512.00,318.562, 479.583,276.979, 435.062,262.166z M 290.916,92.166c 2.542-2.583, 5.271-4.979, 8.146-7.229c-2.25,35.979, 10.729,71.375, 37.104,97.729 c 26.376,26.375, 61.771,39.333, 97.751,37.104c-13.792,17.584-32.792,28.521-53.126,33.188 c-27.375-34.75-67.604-56.625-111.958-60.187C 256.562,158.812, 263.75,119.333, 290.916,92.166z M 400.00,448.00 c-17.125,0.00-32.916-5.50-45.938-14.667C 330.583,461.625, 295.624,480.00, 256.00,480.00c-39.625,0.00-74.584-18.375-98.062-46.667 C 144.938,442.50, 129.126,448.00, 112.00,448.00c-44.188,0.00-80.00-35.812-80.00-79.999c0.00-44.188, 35.812-80.00, 80.00-80.00c 10.812,0.00, 21.062,2.188, 30.438,6.062 c 20.188-39.355, 59.75-66.896, 106.312-69.543c 2.438-0.145, 4.812-0.521, 7.25-0.521c 12.916,0.00, 25.312,2.021, 37.00,5.583 c 15.791,4.834, 30.188,12.708, 42.688,22.854c 11.938,9.688, 21.938,21.562, 29.812,34.896c 1.333,2.25, 2.834,4.375, 4.041,6.729 c 9.396-3.875, 19.668-6.062, 30.459-6.062c 44.188,0.00, 80.00,35.812, 80.00,80.00S 444.188,448.00, 400.00,448.00z" ></path></svg>