<?xml version="1.0" encoding="utf-8"?> <!-- Generator: IcoMoon.io --> <!DOCTYPE svg PUBLIC "-//W3C//DTD SVG 1.1//EN" "http://www.w3.org/Graphics/SVG/1.1/DTD/svg11.dtd"> <svg width="512" height="512" viewBox="0 0 512 512" xmlns="http://www.w3.org/2000/svg" xmlns:xlink="http://www.w3.org/1999/xlink" fill="#333333"><path d="M 400.00,160.00c-5.312,0.00-10.562,0.375-15.792,1.125 C 354.334,120.417, 307.188,96.00, 256.00,96.00s-98.312,24.417-128.208,65.125C 122.562,160.375, 117.312,160.00, 112.00,160.00C 50.25,160.00,0.00,210.25,0.00,272.00 c0.00,61.75, 50.25,112.00, 112.00,112.00c 13.688,0.00, 27.084-2.50, 39.709-7.333C 180.666,401.917, 217.50,416.00, 256.00,416.00 c 38.542,0.00, 75.333-14.083, 104.291-39.333C 372.916,381.50, 386.312,384.00, 400.00,384.00c 61.75,0.00, 112.00-50.25, 112.00-112.00 C 512.00,210.25, 461.75,160.00, 400.00,160.00z" ></path></svg>