<?xml version="1.0" encoding="utf-8"?> <!-- Generator: IcoMoon.io --> <!DOCTYPE svg PUBLIC "-//W3C//DTD SVG 1.1//EN" "http://www.w3.org/Graphics/SVG/1.1/DTD/svg11.dtd"> <svg width="512" height="512" viewBox="0 0 512 512" xmlns="http://www.w3.org/2000/svg" xmlns:xlink="http://www.w3.org/1999/xlink" fill="#333333"><path d="M 488.334,247.417c 14.624,18.916, 23.666,42.312, 23.666,68.00c0.00,61.749-50.25,112.00-112.00,112.00 c-13.688,0.00-27.084-2.50-39.709-7.333c-28.958,25.249-65.749,39.333-104.291,39.333c-38.50,0.00-75.334-14.084-104.291-39.333 c-12.625,4.833-26.021,7.333-39.709,7.333c-61.75,0.00-112.00-50.251-112.00-112.00c0.00-61.75, 50.25-112.00, 112.00-112.00 c 5.312,0.00, 10.562,0.375, 15.792,1.125c 0.521-0.729, 1.166-1.375, 1.708-2.083c-0.812-4.938-1.50-9.896-1.50-15.041 c0.00-49.167, 40.00-89.146, 89.125-89.146c 2.416,0.00, 4.812,0.104, 7.188,0.292c 23.125-28.854, 58.00-45.979, 95.688-45.979 c 37.709,0.00, 72.562,17.125, 95.688,45.979c 2.375-0.188, 4.75-0.292, 7.146-0.292C 472.00,98.271, 512.00,138.25, 512.00,187.417 C 512.00,210.583, 502.916,231.521, 488.334,247.417z" ></path></svg>