<?xml version="1.0" encoding="utf-8"?> <!-- Generator: IcoMoon.io --> <!DOCTYPE svg PUBLIC "-//W3C//DTD SVG 1.1//EN" "http://www.w3.org/Graphics/SVG/1.1/DTD/svg11.dtd"> <svg width="512" height="512" viewBox="0 0 512 512" xmlns="http://www.w3.org/2000/svg" xmlns:xlink="http://www.w3.org/1999/xlink" fill="#333333"><path d="M 512.00,240.001c0.00-49.167-40.00-89.146-89.167-89.146c-2.396,0.00-4.771,0.104-7.146,0.291 c-23.125-28.854-57.979-45.978-95.688-45.978c-37.688,0.00-72.562,17.124-95.688,45.979c-2.375-0.188-4.771-0.291-7.188-0.291 C 168.00,150.855, 128.00,190.834, 128.00,240.001c0.00,5.146, 0.688,10.104, 1.50,15.042c-0.542,0.708-1.188,1.354-1.708,2.083 c-5.229-0.75-10.479-1.125-15.792-1.125C 50.25,256.001,0.00,306.25,0.00,368.00c0.00,61.751, 50.25,112.00, 112.00,112.00c 13.688,0.00, 27.084-2.50, 39.709-7.333 C 180.666,497.917, 217.50,512.00, 256.00,512.00c 38.542,0.00, 75.333-14.083, 104.291-39.333C 372.916,477.50, 386.312,480.00, 400.00,480.00 c 61.75,0.00, 112.00-50.249, 112.00-112.00c0.00-25.688-9.042-49.083-23.666-67.999C 502.916,284.105, 512.00,263.168, 512.00,240.001z M 400.00,448.00 c-17.125,0.00-32.916-5.499-45.938-14.666C 330.583,461.625, 295.624,480.00, 256.00,480.00c-39.625,0.00-74.584-18.375-98.062-46.666 C 144.938,442.501, 129.126,448.00, 112.00,448.00c-44.188,0.00-80.00-35.812-80.00-80.00s 35.812-79.999, 80.00-79.999c 10.812,0.00, 21.062,2.188, 30.438,6.062 c 0.562-1.062, 1.25-2.00, 1.812-3.021c 5.625-10.271, 12.562-19.688, 20.666-28.042C 188.00,239.084, 220.083,224.00, 256.00,224.00 c 49.709,0.00, 92.334,28.666, 113.541,70.062c 5.646-2.312, 11.668-3.813, 17.875-4.812L 400.00,288.00c 12.334,0.00, 23.875,3.042, 34.312,8.00 c 11.312,5.416, 21.021,13.374, 28.646,23.188c 10.50,13.521, 17.042,30.354, 17.042,48.812C 480.00,412.188, 444.188,448.00, 400.00,448.00z M 465.562,277.625c-18.479-13.458-41.00-21.624-65.562-21.624c-5.312,0.00-10.562,0.375-15.792,1.125 c-29.874-40.708-77.021-65.125-128.208-65.125c-34.125,0.00-66.312,11.042-92.938,30.334c 7.479-22.854, 28.729-39.479, 54.062-39.479 c 7.75,0.00, 15.062,1.562, 21.75,4.332c 15.188-29.562, 45.625-50.02, 81.125-50.02s 65.958,20.457, 81.084,50.02 c 6.729-2.77, 14.083-4.332, 21.749-4.332c 31.584,0.00, 57.167,25.583, 57.167,57.146C 480.00,254.48, 474.438,267.542, 465.562,277.625z" ></path></svg>