<?xml version="1.0" encoding="utf-8"?> <!-- Generator: IcoMoon.io --> <!DOCTYPE svg PUBLIC "-//W3C//DTD SVG 1.1//EN" "http://www.w3.org/Graphics/SVG/1.1/DTD/svg11.dtd"> <svg width="512" height="512" viewBox="0 0 512 512" xmlns="http://www.w3.org/2000/svg" xmlns:xlink="http://www.w3.org/1999/xlink" fill="#333333"><path d="M 208.00,64.00c 8.833,0.00, 16.00-7.167, 16.00-16.00L 224.00,16.00 c0.00-8.833-7.167-16.00-16.00-16.00s-16.00,7.167-16.00,16.00l0.00,32.00 C 192.00,56.833, 199.167,64.00, 208.00,64.00z M 332.438,106.167l 22.625-22.625c 6.249-6.25, 6.249-16.375,0.00-22.625 c-6.25-6.25-16.375-6.25-22.625,0.00l-22.625,22.625c-6.25,6.25-6.25,16.375,0.00,22.625 C 316.062,112.417, 326.188,112.417, 332.438,106.167z M 16.00,224.00l 32.00,0.00 c 8.833,0.00, 16.00-7.167, 16.00-16.00s-7.167-16.00-16.00-16.00L 16.00,192.00 c-8.833,0.00-16.00,7.167-16.00,16.00S 7.167,224.00, 16.00,224.00z M 352.00,208.00c0.00,8.833, 7.167,16.00, 16.00,16.00l 32.00,0.00 c 8.833,0.00, 16.00-7.167, 16.00-16.00s-7.167-16.00-16.00-16.00l-32.00,0.00 C 359.167,192.00, 352.00,199.167, 352.00,208.00z M 83.541,106.167c 6.251,6.25, 16.376,6.25, 22.625,0.00c 6.251-6.25, 6.251-16.375,0.00-22.625 L 83.541,60.917c-6.25-6.25-16.374-6.25-22.625,0.00c-6.25,6.25-6.25,16.375,0.00,22.625L 83.541,106.167z M 400.00,256.00 c-5.312,0.00-10.562,0.375-15.792,1.125c-16.771-22.875-39.124-40.333-64.458-51.50C 318.459,145.00, 268.938,96.00, 208.00,96.00 c-61.75,0.00-112.00,50.25-112.00,112.00c0.00,17.438, 4.334,33.75, 11.50,48.438C 47.875,258.875,0.00,307.812,0.00,368.00c0.00,61.75, 50.25,112.00, 112.00,112.00 c 13.688,0.00, 27.084-2.50, 39.709-7.333C 180.666,497.917, 217.50,512.00, 256.00,512.00c 38.542,0.00, 75.333-14.083, 104.291-39.333 C 372.916,477.50, 386.312,480.00, 400.00,480.00c 61.75,0.00, 112.00-50.25, 112.00-112.00S 461.75,256.00, 400.00,256.00z M 208.00,128.00c 39.812,0.00, 72.562,29.167, 78.708,67.25 c-10.021-2.00-20.249-3.25-30.708-3.25c-45.938,0.00-88.50,19.812-118.375,53.25C 131.688,234.083, 128.00,221.542, 128.00,208.00 C 128.00,163.812, 163.812,128.00, 208.00,128.00z M 400.00,448.00c-17.125,0.00-32.916-5.50-45.938-14.667C 330.584,461.625, 295.624,480.00, 256.00,480.00 c-39.625,0.00-74.584-18.375-98.062-46.667C 144.938,442.50, 129.125,448.00, 112.00,448.00c-44.188,0.00-80.00-35.812-80.00-80.00s 35.812-80.00, 80.00-80.00 c 7.75,0.00, 15.062,1.458, 22.125,3.541c 2.812,0.792, 5.667,1.417, 8.312,2.521c 4.375-8.562, 9.875-16.396, 15.979-23.75 C 181.792,242.188, 216.562,224.00, 256.00,224.00c 10.125,0.00, 19.834,1.458, 29.25,3.709c 10.562,2.499, 20.542,6.291, 29.834,11.291 c 23.291,12.375, 42.416,31.542, 54.457,55.063C 378.938,290.188, 389.209,288.00, 400.00,288.00c 44.188,0.00, 80.00,35.812, 80.00,80.00S 444.188,448.00, 400.00,448.00z" ></path></svg>