<?xml version="1.0" encoding="utf-8"?> <!-- Generator: IcoMoon.io --> <!DOCTYPE svg PUBLIC "-//W3C//DTD SVG 1.1//EN" "http://www.w3.org/Graphics/SVG/1.1/DTD/svg11.dtd"> <svg width="512" height="512" viewBox="0 0 512 512" xmlns="http://www.w3.org/2000/svg" xmlns:xlink="http://www.w3.org/1999/xlink" fill="#333333"><path d="M 287.792,48.00l-80.00,0.00 l0.00,48.00 l 80.00,0.00 L 287.792,48.00 z M 287.792,240.00l0.00-32.00 l-80.00,0.00 l0.00,32.00 L 287.792,240.00 z M 207.792,480.00l 80.00,0.00 l0.00-128.00 l-80.00,0.00 L 207.792,480.00 z M 399.792,192.00L 364.80,152.00L 399.792,112.00l-256.00,0.00 l-41.60,40.00l 41.60,40.00L 399.792,192.00 z M 367.792,256.00l-256.00,0.00 l 35.008,40.00L 111.792,336.00l 256.00,0.00 l 42.00-40.00L 367.792,256.00z" ></path></svg>