<?xml version="1.0" encoding="utf-8"?> <!-- Generator: IcoMoon.io --> <!DOCTYPE svg PUBLIC "-//W3C//DTD SVG 1.1//EN" "http://www.w3.org/Graphics/SVG/1.1/DTD/svg11.dtd"> <svg width="480" height="448" viewBox="0 0 480 448" xmlns="http://www.w3.org/2000/svg" xmlns:xlink="http://www.w3.org/1999/xlink" fill="#333333"><path d="M 408.00,184.00q 65.25,14.50 71.75,23.25l 0.25,0.75q-0.25,8.00 -72.00,24.00l-88.00,8.00l-56.00,16.00l-16.00,0.00 l-73.25,88.00l 17.25,0.00 q 6.50,0.00 11.25,1.125t 4.75,2.875t-4.75,2.875t-11.25,1.125l-24.00,0.00 l-40.00,0.00 l-16.00,0.00 l0.00-8.00 l 16.00,0.00 l0.00-104.00 l-40.00,0.00 l-48.00,56.00l-24.00,0.00 l-8.00-8.00l0.00-48.00 l 8.00,0.00 l0.00-8.00 l 32.00,0.00 l0.00-2.00 l-48.00-6.00l0.00-32.00 l 48.00-6.00l0.00-2.00 l-32.00,0.00 l0.00-8.00 l-8.00,0.00 l0.00-48.00 l 8.00-8.00l 24.00,0.00 l 48.00,56.00l 40.00,0.00 l0.00-104.00 l-16.00,0.00 l0.00-8.00 l 16.00,0.00 l 40.00,0.00 l 24.00,0.00 q 6.50,0.00 11.25,1.125t 4.75,2.875t-4.75,2.875t-11.25,1.125l-17.25,0.00 l 73.25,88.00l 16.00,0.00 l 56.00,16.00z" ></path></svg>