<?xml version="1.0" encoding="utf-8"?> <!-- Generator: IcoMoon.io --> <!DOCTYPE svg PUBLIC "-//W3C//DTD SVG 1.1//EN" "http://www.w3.org/Graphics/SVG/1.1/DTD/svg11.dtd"> <svg width="512" height="512" viewBox="0 0 512 512" xmlns="http://www.w3.org/2000/svg" xmlns:xlink="http://www.w3.org/1999/xlink" fill="#333333"><path d="M 416.00,384.00q-17.00-17.00 -23.75-40.75t-7.75-55.25l-32.50,0.00 l0.00,80.00 q0.00,6.50 -4.75,11.25t-11.25,4.75t-11.25-4.75t-4.75-11.25l0.00-80.00 l-32.00,0.00 l0.00,80.00 q0.00,6.50 -4.75,11.25t-11.25,4.75t-11.25-4.75t-4.75-11.25l0.00-80.00 l-32.00,0.00 l0.00,48.00 q0.00,6.50 -4.75,11.25t-11.25,4.75t-11.25-4.75t-4.75-11.25l0.00-48.00 l-32.00,0.00 l0.00,16.00 q0.00,6.50 -4.75,11.25 t-11.25,4.75t-11.25-4.75t-4.75-11.25l0.00-16.00 l-39.00,0.00 q-10.00,26.50 -29.25,49.25t-43.75,30.75q-0.50-2.50 -8.25-7.75t-7.75-8.25q0.00-39.50 15.25-62.50t 48.75-30.00l0.00-7.00 q-33.50-7.00 -48.75-30.00t-15.25-62.50q0.00-3.00 7.75-8.25t 8.25-7.75q 24.50,8.00 43.75,30.75t 29.25,49.25l 39.00,0.00 l0.00-16.00 q0.00-6.50 4.75-11.25t 11.25-4.75t 11.25,4.75t 4.75,11.25l0.00,16.00 l 32.00,0.00 l0.00-48.00 q0.00-6.50 4.75-11.25t 11.25-4.75t 11.25,4.75t 4.75,11.25l0.00,48.00 l 32.00,0.00 l0.00-80.00 q0.00-6.50 4.75-11.25t 11.25-4.75t 11.25,4.75t 4.75,11.25l0.00,80.00 l 32.00,0.00 l0.00-80.00 q0.00-6.50 4.75-11.25t 11.25-4.75t 11.25,4.75t 4.75,11.25l0.00,80.00 l 32.50,0.00 q 1.00-31.50 7.75-55.25t 23.75-40.75q 44.00,7.50 70.00,43.50t 26.00,84.50t-26.00,84.50t-70.00,43.50zM 432.00,224.00 q-6.50,0.00 -11.25,4.75t-4.75,11.25l0.00,0.00 q0.00,6.50 4.75,11.25t 11.25,4.75t 11.25-4.75t 4.75-11.25t-4.75-11.25t-11.25-4.75z" ></path></svg>