<?xml version="1.0" encoding="utf-8"?> <!-- Generator: IcoMoon.io --> <!DOCTYPE svg PUBLIC "-//W3C//DTD SVG 1.1//EN" "http://www.w3.org/Graphics/SVG/1.1/DTD/svg11.dtd"> <svg width="512" height="512" viewBox="0 0 512 512" xmlns="http://www.w3.org/2000/svg" xmlns:xlink="http://www.w3.org/1999/xlink" fill="#333333"><path d="M 128.00,192.00l 64.00,0.00 L 192.00,128.00 L 128.00,128.00 L 128.00,192.00 z M 128.00,288.00l 64.00,0.00 l0.00-64.00 L 128.00,224.00 L 128.00,288.00 z M 128.00,384.00l 64.00,0.00 l0.00-64.00 L 128.00,320.00 L 128.00,384.00 z M 224.00,128.00l0.00,64.00 l 160.00,0.00 L 384.00,128.00 L 224.00,128.00 z M 224.00,288.00l 160.00,0.00 l0.00-64.00 L 224.00,224.00 L 224.00,288.00 z M 224.00,384.00l 160.00,0.00 l0.00-64.00 L 224.00,320.00 L 224.00,384.00 z" ></path></svg>