<?xml version="1.0" encoding="utf-8"?> <!-- Generator: IcoMoon.io --> <!DOCTYPE svg PUBLIC "-//W3C//DTD SVG 1.1//EN" "http://www.w3.org/Graphics/SVG/1.1/DTD/svg11.dtd"> <svg width="512" height="512" viewBox="0 0 512 512" xmlns="http://www.w3.org/2000/svg" xmlns:xlink="http://www.w3.org/1999/xlink" fill="#333333"><path d="M 394.784,350.544c0.00,0.00, 53.28-36.448, 53.28-108.336c0.00-107.008-113.408-146.576-174.384-145.52 c-60.992,1.072-79.168,17.12-79.168,17.12S 173.76,98.72, 151.76,86.08C 134.928,79.52, 131.024,78.576, 119.328,82.336c-9.36,0.00-3.472,15.584, 0.288,21.20 c 3.728,5.616, 21.856,36.64, 21.856,36.64s-38.048,39.184-40.864,64.944c0.00-0.464-17.92-0.144-27.744-0.144s-8.896,10.704-8.896,10.704 l 0.272,75.424c0.00,0.00-0.608,10.704, 8.304,10.704c 8.896,0.00, 27.808,0.208, 27.808,0.208s 26.608,38.64, 43.472,45.664 c0.00,0.464-14.576,40.048-14.576,40.048s-7.024,12.176, 5.616,16.864c 12.64,4.672, 45.616,18.512, 59.664,22.736 c 14.032,4.208, 16.048-5.344, 16.048-5.344l 13.904-30.032l 90.96,0.144l 13.904,30.96c0.00,0.00, 2.672,14.368, 21.392,6.416 c 18.736-7.952, 39.184-17.392, 54.64-25.344c 15.44-7.952, 5.28-22.816, 5.28-22.816L 394.784,350.544z M 149.152,220.224 c-8.528,0.00-15.44-6.928-15.44-15.456s 6.912-15.44, 15.44-15.44s 15.456,6.912, 15.456,15.44S 157.68,220.224, 149.152,220.224z M 366.80,172.096 c-4.928,5.84-8.144,1.536-12.112,0.368c0.00,0.00-16.816-15.60-41.52-22.88c-25.584-7.52-52.512-3.888-52.512-3.888 c-3.968-1.168-8.784-1.296-8.816-7.424c 0.208-7.568, 9.392-7.632, 9.28-7.888c0.00,0.00, 30.304-2.80, 55.664,4.656 c 24.944,7.328, 44.00,23.264, 44.00,23.264S 370.976,165.328, 366.80,172.096z" ></path></svg>