<?xml version="1.0" encoding="utf-8"?> <!-- Generator: IcoMoon.io --> <!DOCTYPE svg PUBLIC "-//W3C//DTD SVG 1.1//EN" "http://www.w3.org/Graphics/SVG/1.1/DTD/svg11.dtd"> <svg width="512" height="512" viewBox="0 0 512 512" xmlns="http://www.w3.org/2000/svg" xmlns:xlink="http://www.w3.org/1999/xlink" fill="#333333"><path d="M 326.042,443.688l-18.00-10.376 c 0.542-3.124, 0.957-6.311, 0.957-9.624c0.00-3.312-0.415-6.50-0.999-9.625l 18.042-10.396c 8.417-4.917, 11.291-15.729, 6.458-24.104 c-4.876-8.479-15.667-11.375-24.125-6.50l-18.188,10.50c-4.876-4.146-10.375-7.396-16.50-9.604l0.00-20.896 c0.00-9.771-7.938-17.688-17.688-17.688s-17.667,7.917-17.667,17.688l0.00,20.875 c-6.125,2.188-11.646,5.479-16.521,9.625l-18.146-10.50 c-8.479-4.875-19.291-2.00-24.166,6.479c-4.875,8.417-1.938,19.25, 6.50,24.126l 17.959,10.375c-0.584,3.146-0.959,6.334-0.959,9.646 c0.00,3.313, 0.375,6.50, 0.959,9.624L 186.00,443.688c-8.459,4.875-11.375,15.75-6.50,24.188s 15.688,11.312, 24.125,6.438l 18.167-10.438 c 4.874,4.125, 10.396,7.375, 16.541,9.562l0.00,20.938 c0.00,9.749, 7.917,17.624, 17.667,17.624s 17.688-7.875, 17.688-17.624l0.00-20.938 c 6.125-2.188, 11.688-5.438, 16.521-9.625l 18.167,10.50c 8.458,4.875, 19.249,2.00, 24.125-6.438 C 337.375,459.438, 334.50,448.625, 326.042,443.688z M 256.00,441.375c-9.75,0.00-17.688-7.938-17.688-17.688s 7.938-17.646, 17.688-17.646 s 17.666,7.896, 17.666,17.646S 265.75,441.375, 256.00,441.375z M 400.00,64.00c-5.312,0.00-10.562,0.375-15.792,1.125 C 354.333,24.417, 307.188,0.00, 256.00,0.00s-98.312,24.417-128.208,65.125C 122.562,64.375, 117.312,64.00, 112.00,64.00C 50.25,64.00,0.00,114.25,0.00,176.00 s 50.25,112.00, 112.00,112.00c 13.688,0.00, 27.084-2.50, 39.709-7.333C 180.666,305.917, 217.50,320.00, 256.00,320.00c 38.542,0.00, 75.333-14.083, 104.291-39.333 C 372.916,285.50, 386.312,288.00, 400.00,288.00c 61.75,0.00, 112.00-50.25, 112.00-112.00S 461.75,64.00, 400.00,64.00z" ></path></svg>