<?xml version="1.0" encoding="utf-8"?> <!-- Generator: IcoMoon.io --> <!DOCTYPE svg PUBLIC "-//W3C//DTD SVG 1.1//EN" "http://www.w3.org/Graphics/SVG/1.1/DTD/svg11.dtd"> <svg width="512" height="512" viewBox="0 0 512 512" xmlns="http://www.w3.org/2000/svg" xmlns:xlink="http://www.w3.org/1999/xlink" fill="#333333"><path d="M 95.968,80.00L 80.176,80.00 l0.00,368.00 l 320.00,0.00 l0.00-15.408 L 96.24,431.808L 95.968,80.00z M 128.176,400.00l 80.00,0.00 L 208.176,226.00 l-80.00,80.00L 128.176,400.00 z M 224.176,400.00l 80.00,0.00 l0.00-158.00 l-32.00,32.00l-48.00-48.00L 224.176,400.00 z M 320.176,400.00l 80.00,0.00 L 400.176,157.008 l-80.00,80.00L 320.176,400.00 z M 214.192,177.072l 57.92,57.60l 114.368-113.792l 29.344,29.504L 415.12,80.00 L 344.48,80.368l 27.472,27.552l-99.872,100.16l-59.024-59.248l-89.968,89.664l 15.024,14.592L 214.192,177.072z" ></path></svg>