<?xml version="1.0" encoding="utf-8"?> <!-- Generator: IcoMoon.io --> <!DOCTYPE svg PUBLIC "-//W3C//DTD SVG 1.1//EN" "http://www.w3.org/Graphics/SVG/1.1/DTD/svg11.dtd"> <svg width="512" height="512" viewBox="0 0 512 512" xmlns="http://www.w3.org/2000/svg" xmlns:xlink="http://www.w3.org/1999/xlink" fill="#333333"><path d="M 432.00,464.00l-64.00,0.00 L 368.00,128.00 l 64.00,0.00 c 17.664,0.00, 32.00,14.336, 32.00,32.00l0.00,272.00 C 464.00,449.664, 449.664,464.00, 432.00,464.00z M 160.00,128.00L 160.00,128.00L 160.00,96.00 c0.00-17.68, 14.336-32.00, 32.00-32.00l 112.00,0.00 c 17.664,0.00, 32.00,14.32, 32.00,32.00l0.00,32.00 l0.00,336.00 L 160.00,464.00 L 160.00,128.00 z M 192.00,128.00l 112.00,0.00 c0.00,0.00,0.00-7.168,0.00-16.00c0.00-8.848-7.168-16.00-16.00-16.00l-80.00,0.00 c-8.848,0.00-16.00,7.152-16.00,16.00 C 192.00,120.832, 192.00,128.00, 192.00,128.00z M 32.00,432.00L 32.00,160.00 c0.00-17.664, 14.336-32.00, 32.00-32.00l 64.00,0.00 l0.00,336.00 L 64.00,464.00 C 46.336,464.00, 32.00,449.664, 32.00,432.00z" ></path></svg>