<?xml version="1.0" encoding="utf-8"?> <!-- Generator: IcoMoon.io --> <!DOCTYPE svg PUBLIC "-//W3C//DTD SVG 1.1//EN" "http://www.w3.org/Graphics/SVG/1.1/DTD/svg11.dtd"> <svg width="384" height="448" viewBox="0 0 384 448" xmlns="http://www.w3.org/2000/svg" xmlns:xlink="http://www.w3.org/1999/xlink" fill="#333333"><path d="M 112.00,112.00q0.00-13.25 -9.375-22.625t-22.625-9.375t-22.625,9.375t-9.375,22.625t 9.375,22.625t 22.625,9.375t 22.625-9.375t 9.375-22.625zM 378.75,256.00q0.00,13.25 -9.25,22.50l-122.75,123.00q-9.75,9.25 -22.75,9.25q-13.25,0.00 -22.50-9.25l-178.75-179.00q-9.50-9.25 -16.125-25.25t-6.625-29.25l0.00-104.00 q0.00-13.00 9.50-22.50t 22.50-9.50l 104.00,0.00 q 13.25,0.00 29.25,6.625t 25.50,16.125 l 178.75,178.50q 9.25,9.75 9.25,22.75z" ></path></svg>