<?xml version="1.0" encoding="utf-8"?> <!-- Generator: IcoMoon.io --> <!DOCTYPE svg PUBLIC "-//W3C//DTD SVG 1.1//EN" "http://www.w3.org/Graphics/SVG/1.1/DTD/svg11.dtd"> <svg width="560" height="512" viewBox="0 0 560 512" xmlns="http://www.w3.org/2000/svg" xmlns:xlink="http://www.w3.org/1999/xlink" fill="#333333"><path d="M 470.816,248.56c0.00,0.00, 10.384-139.888-117.776-155.84c-109.84-11.216-143.28,90.864-143.28,90.864 s-33.072-31.808-77.952-5.824c-40.176,24.80-33.072,70.208-33.072,70.208s-89.216,17.344-89.216,108.288C 11.504,447.088, 106.384,448.00, 106.384,448.00L 256.00,448.00 l0.00-96.00 l-48.00,0.00 l 80.00-80.00l 80.00,80.00l-48.00,0.00 l0.00,96.00 l 135.472,0.00 c0.00,0.00, 88.32,0.096, 100.72-86.32C 562.096,267.184, 470.816,248.56, 470.816,248.56z" ></path></svg>