<?xml version="1.0" encoding="utf-8"?> <!-- Generator: IcoMoon.io --> <!DOCTYPE svg PUBLIC "-//W3C//DTD SVG 1.1//EN" "http://www.w3.org/Graphics/SVG/1.1/DTD/svg11.dtd"> <svg width="512" height="512" viewBox="0 0 512 512" xmlns="http://www.w3.org/2000/svg" xmlns:xlink="http://www.w3.org/1999/xlink" fill="#333333"><path d="M 80.00,496.00L 80.00,96.00 l 66.672-64.00l 202.672,0.00 L 416.00,96.00l0.00,400.00 L 80.00,496.00 z M 96.00,480.00l 304.00,0.00 L 400.00,112.00 L 96.00,112.00 L 96.00,480.00 z M 112.00,304.00l 272.00,0.00 l0.00,160.00 L 112.00,464.00 L 112.00,304.00 z M 208.00,368.00l0.00,16.00 l 16.00,0.00 l 48.00,0.00 l 16.00,0.00 l0.00-16.00 l0.00-32.00 l-16.00,0.00 l0.00,32.00 l-48.00,0.00 l0.00-32.00 l-16.00,0.00 L 208.00,368.00 z M 112.00,128.00l 272.00,0.00 l0.00,160.00 L 112.00,288.00 L 112.00,128.00 z M 208.00,208.00l 16.00,0.00 l 48.00,0.00 l 16.00,0.00 l0.00-16.00 l0.00-32.00 l-16.00,0.00 l0.00,32.00 l-48.00,0.00 l0.00-32.00 l-16.00,0.00 L 208.00,208.00 z" ></path></svg>