<?xml version="1.0" encoding="utf-8"?> <!-- Generator: IcoMoon.io --> <!DOCTYPE svg PUBLIC "-//W3C//DTD SVG 1.1//EN" "http://www.w3.org/Graphics/SVG/1.1/DTD/svg11.dtd"> <svg width="500.00000000000006" height="500" viewBox="0 0 500 500" xmlns="http://www.w3.org/2000/svg" xmlns:xlink="http://www.w3.org/1999/xlink" fill="#333333"><path d="M 250.00,10.00c-132.55,0.00-240.00,107.45-240.00,240.00s 107.45,240.00, 240.00,240.00s 240.00-107.45, 240.00-240.00S 382.55,10.00, 250.00,10.00z M 64.875,185.65l 121.75,54.525 l 38.125,16.70l 28.30,12.875l 23.15,9.875c 4.30,3.70, 6.45,8.55, 6.45,14.55c0.00,8.60-2.95,14.725-8.80,18.425 c-5.85,3.70-12.95,5.575-21.225,5.575c-20.025,0.00-37.875-7.275-53.60-21.85l-32.975,33.425c 22.00,18.85, 46.30,28.45, 72.85,28.70l0.00,36.875 l 27.85,0.00 l0.00-36.875 c 16.55-1.425, 30.925-6.90, 43.075-16.50c 12.125-9.575, 19.80-21.90, 22.925-37.05l 88.975,39.625 C 388.375,405.00, 323.975,446.00, 250.00,446.00c-108.25,0.00-196.00-87.75-196.00-196.00C 54.00,227.45, 57.85,205.80, 64.875,185.65z M 317.775,246.575l-38.575-17.15 L 258.20,220.00L 227.75,206.30c-1.425-2.00-2.125-4.00-2.125-6.00c0.00-6.85, 2.925-11.725, 8.80-14.575c 5.825-2.85, 12.475-4.30, 19.925-4.30 c 14.00,0.00, 27.70,4.725, 41.15,14.15l 31.30-32.15c-18.025-13.725-38.025-21.15-60.00-22.30L 266.80,104.30 L 238.925,104.30 l0.00,36.85 C 224.05,142.00, 211.05,146.25, 199.90,153.775C 188.775,161.375, 181.20,171.425, 177.20,184.00l-91.375-41.00C 120.80,89.45, 181.25,54.00, 250.00,54.00 c 108.25,0.00, 196.00,87.75, 196.00,196.00c0.00,17.575-2.35,34.60-6.70,50.775L 317.775,246.575z" ></path></svg>