<?xml version="1.0" encoding="utf-8"?> <!-- Generator: IcoMoon.io --> <!DOCTYPE svg PUBLIC "-//W3C//DTD SVG 1.1//EN" "http://www.w3.org/Graphics/SVG/1.1/DTD/svg11.dtd"> <svg width="512" height="512" viewBox="0 0 512 512" xmlns="http://www.w3.org/2000/svg" xmlns:xlink="http://www.w3.org/1999/xlink" fill="#333333"><path d="M 391.392,143.696L 103.888,143.696 l 0.288-30.944l 22.976,0.00 l 48.624-47.92l 145.744,0.00 l 47.632,47.92l 22.976,0.00 L 391.392,143.696z M 272.592,96.784l-47.92,0.00 l0.00,15.968 l 47.92,0.00 L 272.592,96.784 z M 365.712,272.48L 311.68,272.48 c-11.92-23.216-35.824-39.264-63.712-39.264 s-51.792,16.048-63.696,39.264L 131.184,272.48 l-10.336-111.808l 255.568,0.00 L 365.712,272.48z M 208.704,304.416c0.00-22.048, 17.872-39.936, 39.936-39.936 c 22.048,0.00, 39.92,17.888, 39.92,39.936s-17.872,39.936-39.92,39.936C 226.576,344.352, 208.704,326.464, 208.704,304.416z M 247.968,376.976 c 28.704,0.00, 53.28-16.944, 64.80-41.264l 46.896,0.00 l-12.192,127.456L 148.816,463.168 l-11.776-127.456l 46.144,0.00 C 194.704,360.032, 219.264,376.976, 247.968,376.976z" ></path></svg>