<?xml version="1.0" encoding="utf-8"?> <!-- Generator: IcoMoon.io --> <!DOCTYPE svg PUBLIC "-//W3C//DTD SVG 1.1//EN" "http://www.w3.org/Graphics/SVG/1.1/DTD/svg11.dtd"> <svg width="512" height="512" viewBox="0 0 512 512" xmlns="http://www.w3.org/2000/svg" xmlns:xlink="http://www.w3.org/1999/xlink" fill="#333333"><path d="M 423.00,195.00l-286.00,124.00q-13.00,4.00 -24.75-3.25t-15.25-20.75t 3.25-25.75t 19.75-16.25l 286.00-124.00q 13.50-3.50 25.00,3.50t 15.25,20.75t-3.25,26.00t-20.00,15.75zM 391.00,99.00l-286.00,124.00q-13.00,4.00 -24.75-3.25t-15.25-20.75t 3.25-25.75t 19.75-15.75l 286.00-124.50q 13.50-3.50 25.00,3.50t 15.25,20.75t-3.25,26.00t-20.00,15.75zM 215.00,67.00l-78.00,28.00 q-13.00,4.00 -24.75-3.00t-15.25-20.75t 3.25-26.00t 19.75-15.75l 78.50-28.50q 13.00-3.50 24.75,3.50t 15.25,20.75t-3.25,26.00t-20.25,15.75zM 204.50,323.50q 5.00-4.50 11.50-6.50l 158.00-60.00q 13.50-3.50 25.00,3.50t 15.25,20.75t-3.25,26.00t-20.00,15.75l-135.00,51.50q-0.50,6.50 -0.50,9.50l 32.00,0.00 q 13.50,0.00 22.75,9.50t 9.25,22.75t-9.25,22.50t-22.75,9.25l-64.00,0.00 q-3.00,0.00 -6.00-0.50 q-24.50-2.50 -41.25-20.75t-16.75-42.75q0.00-21.00 12.50-37.75t 32.50-22.75zM 255.50,512.00q-26.50,0.00 -45.25-9.25t-18.75-22.75l 128.00,0.00 q0.00,13.50 -18.75,22.75t-45.25,9.25z" ></path></svg>