<?xml version="1.0" encoding="utf-8"?> <!-- Generator: IcoMoon.io --> <!DOCTYPE svg PUBLIC "-//W3C//DTD SVG 1.1//EN" "http://www.w3.org/Graphics/SVG/1.1/DTD/svg11.dtd"> <svg width="416" height="448" viewBox="0 0 416 448" xmlns="http://www.w3.org/2000/svg" xmlns:xlink="http://www.w3.org/1999/xlink" fill="#333333"><path d="M 192.00,256.00l0.00,96.00 q0.00,13.00 -9.50,22.50t-22.50,9.50l-128.00,0.00 q-13.00,0.00 -22.50-9.50t-9.50-22.50l0.00-96.00 q0.00-13.00 9.50-22.50t 22.50-9.50l 128.00,0.00 q 13.00,0.00 22.50,9.50t 9.50,22.50zM 192.00,64.00l0.00,96.00 q0.00,13.00 -9.50,22.50t-22.50,9.50l-128.00,0.00 q-13.00,0.00 -22.50-9.50t-9.50-22.50l0.00-96.00 q0.00-13.00 9.50-22.50t 22.50-9.50l 128.00,0.00 q 13.00,0.00 22.50,9.50t 9.50,22.50zM 416.00,256.00l0.00,96.00 q0.00,13.00 -9.50,22.50t-22.50,9.50 l-128.00,0.00 q-13.00,0.00 -22.50-9.50t-9.50-22.50l0.00-96.00 q0.00-13.00 9.50-22.50t 22.50-9.50l 128.00,0.00 q 13.00,0.00 22.50,9.50t 9.50,22.50zM 416.00,64.00l0.00,96.00 q0.00,13.00 -9.50,22.50t-22.50,9.50l-128.00,0.00 q-13.00,0.00 -22.50-9.50t-9.50-22.50l0.00-96.00 q0.00-13.00 9.50-22.50t 22.50-9.50l 128.00,0.00 q 13.00,0.00 22.50,9.50t 9.50,22.50z" ></path></svg>