<?xml version="1.0" encoding="utf-8"?> <!-- Generator: IcoMoon.io --> <!DOCTYPE svg PUBLIC "-//W3C//DTD SVG 1.1//EN" "http://www.w3.org/Graphics/SVG/1.1/DTD/svg11.dtd"> <svg width="512" height="512" viewBox="0 0 512 512" xmlns="http://www.w3.org/2000/svg" xmlns:xlink="http://www.w3.org/1999/xlink" fill="#333333"><path d="M 332.864,171.872c 23.168-57.92-28.624-67.472-28.624-66.784 c 16.352-40.896-16.352-68.16-46.336-68.16s-28.624,13.648-28.624,13.648s 16.352-3.408, 16.352,9.536c0.00,12.96-15.008,12.272-29.984,27.264 c-15.008,14.992-7.84,12.96-8.864,12.96c 31.168-2.048, 49.408,30.16, 83.824,18.384c-34.08,17.04-42.256-10.048-79.056-11.408 c-4.768,0.00-32.032-5.28-32.032,46.848c 39.872,4.608, 57.248,32.032, 111.088,25.904c-60.656,22.48-136.64-70.544-147.20,31.344 c0.00,21.808, 16.336,32.768, 16.336,32.768s 188.784,0.00, 188.112,0.00C 385.328,227.824, 366.944,168.464, 332.864,171.872z M 257.152,496.00L 342.40,254.896L 170.032,254.896 L 257.152,496.00z" ></path></svg>