<?xml version="1.0" encoding="utf-8"?> <!-- Generator: IcoMoon.io --> <!DOCTYPE svg PUBLIC "-//W3C//DTD SVG 1.1//EN" "http://www.w3.org/Graphics/SVG/1.1/DTD/svg11.dtd"> <svg width="512" height="512" viewBox="0 0 512 512" xmlns="http://www.w3.org/2000/svg" xmlns:xlink="http://www.w3.org/1999/xlink" fill="#333333"><path d="M 256.00,48.00C 141.12,48.00, 48.00,141.12, 48.00,256.00s 93.12,208.00, 208.00,208.00s 208.00-93.12, 208.00-208.00S 370.88,48.00, 256.00,48.00z M 288.624,332.528c-15.696,23.568-31.664,41.728-58.528,41.728c-18.336-2.992-25.872-16.128-21.904-29.52l 34.56-114.464 c 0.848-2.80-0.56-5.792-3.12-6.704c-2.544-0.896-7.536,2.416-11.856,7.152l-20.896,25.136c-0.56-4.224-0.064-11.20-0.064-14.016 c 15.696-23.568, 41.488-42.16, 58.976-42.16c 16.624,1.696, 24.496,14.992, 21.60,29.60l-34.80,115.024c-0.464,2.592, 0.912,5.232, 3.264,6.064 c 2.56,0.896, 7.936-2.416, 12.272-7.152l 20.88-25.12C 289.568,322.32, 288.624,329.712, 288.624,332.528z M 283.968,183.024 c-13.216,0.00-23.936-9.632-23.936-23.808c0.00-14.176, 10.72-23.792, 23.936-23.792s 23.936,9.632, 23.936,23.792 C 307.904,173.408, 297.184,183.024, 283.968,183.024z" ></path></svg>