<?xml version="1.0" encoding="utf-8"?> <!-- Generator: IcoMoon.io --> <!DOCTYPE svg PUBLIC "-//W3C//DTD SVG 1.1//EN" "http://www.w3.org/Graphics/SVG/1.1/DTD/svg11.dtd"> <svg width="500.00000000000006" height="500" viewBox="0 0 500 500" xmlns="http://www.w3.org/2000/svg" xmlns:xlink="http://www.w3.org/1999/xlink" fill="#333333"><path d="M 467.10,284.95l-78.70-187.30c-6.20-12.50-22.70-22.725-36.675-22.725L 300.50,74.925 L 310.00,176.55L 377.50,176.55 L 250.00,282.30L 122.50,176.55l 67.50,0.00 l 9.50-101.60L 148.30,74.95 c-13.95,0.00-30.45,10.225-36.675,22.725l-78.70,187.30c-6.25,12.50-9.45,34.00-7.175,47.80l 17.00,92.15 c 2.30,13.775, 15.575,25.05, 29.525,25.05l 355.475,0.00 c 13.975,0.00, 27.25-11.275, 29.55-25.05l 17.00-92.15 C 476.55,318.975, 473.35,297.45, 467.10,284.95z M 433.00,350.60l-6.45,37.55c-1.95,14.425-14.95,26.225-28.85,26.225L 102.30,414.375 c-13.925,0.00-26.925-11.80-28.85-26.225l-6.475-37.55c-1.925-14.425, 7.90-26.225, 21.825-26.225l 322.40,0.00 C 425.15,324.40, 434.95,336.175, 433.00,350.60z" ></path></svg>