<?xml version="1.0" encoding="utf-8"?> <!-- Generator: IcoMoon.io --> <!DOCTYPE svg PUBLIC "-//W3C//DTD SVG 1.1//EN" "http://www.w3.org/Graphics/SVG/1.1/DTD/svg11.dtd"> <svg width="512" height="512" viewBox="0 0 512 512" xmlns="http://www.w3.org/2000/svg" xmlns:xlink="http://www.w3.org/1999/xlink" fill="#333333"><path d="M 309.312,304.656c0.00,0.00-26.624,34.00-60.64,0.00c-32.992-32.00-56.992,0.00-56.992,0.00l-79.472,156.64 c-2.304,8.528, 2.768,17.296, 11.296,19.584l 263.952,0.00 c 8.528-2.288, 13.60-11.04, 11.312-19.584L 309.312,304.656z M 431.024,453.28l-127.664-214.848 l0.00-0.40 l-0.224-125.904l 8.816,0.00 c 13.216,0.00, 23.968-10.736, 23.968-23.984c0.00-13.232-10.752-23.968-23.968-23.968l-127.92,0.00 c-13.232,0.00-23.968,10.736-23.968,23.968c0.00,13.248, 10.736,23.984, 23.968,23.984l 7.712,0.00 l-0.256,125.936L 80.96,453.28 C 74.112,478.864, 89.296,505.152, 114.864,512.00L 397.12,512.00 C 422.72,505.152, 437.904,478.864, 431.024,453.28z M 392.848,495.968L 119.12,495.664 c-17.04-4.576-27.152-22.112-22.592-39.136l 111.152-217.856l 0.336-142.528l-23.968,0.00 c-4.40,0.00-7.984-3.584-7.984-8.00 c0.00-4.40, 3.584-7.984, 7.984-7.984l 127.92,0.00 c 4.40,0.00, 7.968,3.584, 7.968,7.984c0.00,4.416-3.568,8.00-7.968,8.00L 288.00,96.144 l 0.40,142.00 l 127.024,218.656C 420.00,473.872, 409.872,491.408, 392.848,495.968z M 263.68,40.192c0.00,8.832, 7.168,16.00, 16.00,16.00s 16.00-7.168, 16.00-16.00s-7.152-16.00-16.00-16.00 S 263.68,31.344, 263.68,40.192z M 279.68,0.192c 13.248,0.00, 24.00-10.736, 24.00-24.00s-10.752-24.00-24.00-24.00s-24.00,10.736-24.00,24.00 S 266.432,0.192, 279.68,0.192z M 215.68,40.192c 8.848,0.00, 16.00-7.168, 16.00-16.00s-7.152-16.00-16.00-16.00s-16.00,7.168-16.00,16.00S 206.832,40.192, 215.68,40.192z" ></path></svg>