<?xml version="1.0" encoding="utf-8"?> <!-- Generator: IcoMoon.io --> <!DOCTYPE svg PUBLIC "-//W3C//DTD SVG 1.1//EN" "http://www.w3.org/Graphics/SVG/1.1/DTD/svg11.dtd"> <svg width="480" height="448" viewBox="0 0 480 448" xmlns="http://www.w3.org/2000/svg" xmlns:xlink="http://www.w3.org/1999/xlink" fill="#333333"><path d="M 104.00,320.00q-16.50,0.00 -28.25-11.75t-11.75-28.25l0.00-176.00 q0.00-16.50 11.75-28.25t 28.25-11.75l 272.00,0.00 q 16.50,0.00 28.25,11.75t 11.75,28.25l0.00,176.00 q0.00,16.50 -11.75,28.25t-28.25,11.75l-272.00,0.00 zM 96.00,104.00l0.00,176.00 q0.00,3.25 2.375,5.625t 5.625,2.375l 272.00,0.00 q 3.25,0.00 5.625-2.375t 2.375-5.625l0.00-176.00 q0.00-3.25 -2.375-5.625t-5.625-2.375l-272.00,0.00 q-3.25,0.00 -5.625,2.375t-2.375,5.625z M 440.00,336.00l 40.00,0.00 l0.00,24.00 q0.00,10.00 -11.75,17.00t-28.25,7.00l-400.00,0.00 q-16.50,0.00 -28.25-7.00t-11.75-17.00l0.00-24.00 l 40.00,0.00 l 400.00,0.00 zM 260.00,360.00q 4.00,0.00 4.00-4.00t-4.00-4.00l-40.00,0.00 q-4.00,0.00 -4.00,4.00t 4.00,4.00l 40.00,0.00 z" ></path></svg>