<?xml version="1.0" encoding="utf-8"?> <!-- Generator: IcoMoon.io --> <!DOCTYPE svg PUBLIC "-//W3C//DTD SVG 1.1//EN" "http://www.w3.org/Graphics/SVG/1.1/DTD/svg11.dtd"> <svg width="512" height="512" viewBox="0 0 512 512" xmlns="http://www.w3.org/2000/svg" xmlns:xlink="http://www.w3.org/1999/xlink" fill="#333333"><path d="M 288.00,288.00l0.00,160.00 l 64.00,0.00 q 13.50,0.00 22.75,9.50t 9.25,22.75t-9.25,22.50t-22.75,9.25l-192.00,0.00 q-13.00,0.00 -22.50-9.25t-9.50-22.50t 9.50-22.75t 22.50-9.50l 64.00,0.00 l0.00-160.00 l-219.50-239.50q-4.50-8.00 -4.50-16.00q0.00-13.50 9.50-22.75t 22.50-9.25l 448.00,0.00 q 13.00,0.00 22.50,9.25t 9.50,22.75q0.00,8.00 -4.50,16.00zM 32.00,32.50l 119.50,127.50l 43.50,0.00 l 3.50-6.50l-36.50-65.50q-3.00-6.00 -1.25-12.25t 7.50-9.50 t 12.00-1.50t 9.75,7.25l 33.00,59.50q 9.00-3.50 17.00-3.50q 15.50,0.00 27.75,9.00t 17.25,23.00l 75.50,0.00 l 119.50-127.50l-448.00,0.00 z" ></path></svg>