<?xml version="1.0" encoding="utf-8"?> <!-- Generator: IcoMoon.io --> <!DOCTYPE svg PUBLIC "-//W3C//DTD SVG 1.1//EN" "http://www.w3.org/Graphics/SVG/1.1/DTD/svg11.dtd"> <svg width="500.00000000000006" height="500" viewBox="0 0 500 500" xmlns="http://www.w3.org/2000/svg" xmlns:xlink="http://www.w3.org/1999/xlink" fill="#333333"><path d="M 400.00,25.00L 100.00,25.00 C 72.50,25.00, 50.00,47.50, 50.00,75.00l0.00,350.00 c0.00,27.50, 22.50,50.00, 50.00,50.00l 300.00,0.00 c 27.525,0.00, 50.00-22.50, 50.00-50.00L 450.00,75.00 C 450.00,47.50, 427.525,25.00, 400.00,25.00z M 400.00,425.00L 100.00,425.00 L 100.00,75.00 l 300.00,0.00 L 400.00,425.00 z M 275.00,300.00L 150.00,300.00 l0.00,25.00 l 125.00,0.00 L 275.00,300.00 z M 350.00,200.00l-100.00,0.00 l0.00,25.00 l 100.00,0.00 L 350.00,200.00 z M 250.00,175.00l 100.00,0.00 L 350.00,125.00 l-100.00,0.00 L 250.00,175.00 z M 225.00,125.00L 150.00,125.00 l0.00,100.00 l 75.00,0.00 L 225.00,125.00 z M 200.00,250.00L 150.00,250.00 l0.00,25.00 l 50.00,0.00 L 200.00,250.00 z M 225.00,275.00l 125.00,0.00 l0.00-25.00 L 225.00,250.00 L 225.00,275.00 z M 350.00,350.00L 150.00,350.00 l0.00,25.00 l 200.00,0.00 L 350.00,350.00 z M 300.00,325.00l 50.00,0.00 l0.00-25.00 l-50.00,0.00 L 300.00,325.00 z" ></path></svg>