<?xml version="1.0" encoding="utf-8"?> <!-- Generator: IcoMoon.io --> <!DOCTYPE svg PUBLIC "-//W3C//DTD SVG 1.1//EN" "http://www.w3.org/Graphics/SVG/1.1/DTD/svg11.dtd"> <svg width="512" height="512" viewBox="0 0 512 512" xmlns="http://www.w3.org/2000/svg" xmlns:xlink="http://www.w3.org/1999/xlink" fill="#333333"><path d="M 416.00,368.00l-32.00,0.00 l0.00-32.00 l 16.00,0.00 l0.00-32.00 L 96.00,304.00 l0.00,32.00 l 16.00,0.00 l0.00,32.00 L 80.00,368.00 c-8.832,0.00-16.00-7.168-16.00-16.00L 64.00,192.00 c0.00-15.472, 64.00-32.00, 176.00-32.00 c 5.936,0.00, 11.184,0.00, 16.00,0.00c 111.008,0.00, 176.00,16.16, 176.00,32.00l0.00,160.00 C 432.00,360.832, 424.848,368.00, 416.00,368.00z M 376.00,208.00c-13.248,0.00-24.00,10.752-24.00,24.00s 10.752,24.00, 24.00,24.00 s 24.00-10.752, 24.00-24.00S 389.248,208.00, 376.00,208.00z M 128.00,64.00c0.00-8.848, 7.168-16.00, 16.00-16.00l 208.00,0.00 c 8.848,0.00, 16.00,7.152, 16.00,16.00l0.00,80.00 L 128.00,144.00 L 128.00,64.00 z M 368.00,464.00c0.00,8.832-7.152,16.00-16.00,16.00L 144.00,480.00 c-8.832,0.00-16.00-7.168-16.00-16.00l0.00-144.00 l 240.00,0.00 L 368.00,464.00 z M 336.00,336.00L 160.00,336.00 l0.00,16.00 l 176.00,0.00 L 336.00,336.00 z M 336.00,368.00L 160.00,368.00 l0.00,16.00 l 176.00,0.00 L 336.00,368.00 z M 336.00,400.00L 160.00,400.00 l0.00,16.00 l 176.00,0.00 L 336.00,400.00 z M 336.00,432.00L 160.00,432.00 l0.00,16.00 l 176.00,0.00 L 336.00,432.00 z" ></path></svg>