<?xml version="1.0" encoding="utf-8"?> <!-- Generator: IcoMoon.io --> <!DOCTYPE svg PUBLIC "-//W3C//DTD SVG 1.1//EN" "http://www.w3.org/Graphics/SVG/1.1/DTD/svg11.dtd"> <svg width="512" height="512" viewBox="0 0 512 512" xmlns="http://www.w3.org/2000/svg" xmlns:xlink="http://www.w3.org/1999/xlink" fill="#333333"><path d="M 400.00,64.00c-5.312,0.00-10.562,0.375-15.792,1.125 C 354.334,24.417, 307.188,0.00, 256.00,0.00s-98.312,24.417-128.208,65.125C 122.562,64.375, 117.312,64.00, 112.00,64.00C 50.25,64.00,0.00,114.25,0.00,176.00 s 50.25,112.00, 112.00,112.00c 13.688,0.00, 27.084-2.50, 39.709-7.333C 180.666,305.917, 217.50,320.00, 256.00,320.00c 38.542,0.00, 75.333-14.083, 104.291-39.333 C 372.916,285.50, 386.312,288.00, 400.00,288.00c 61.75,0.00, 112.00-50.25, 112.00-112.00S 461.75,64.00, 400.00,64.00z M 225.00,480.00c0.00,17.688, 14.312,32.00, 32.00,32.00 s 32.00-14.312, 32.00-32.00s-32.00-64.00-32.00-64.00S 225.00,462.312, 225.00,480.00z M 352.00,448.00c0.00,17.688, 14.312,32.00, 32.00,32.00s 32.00-14.312, 32.00-32.00s-32.00-64.00-32.00-64.00 S 352.00,430.312, 352.00,448.00z M 96.00,384.00c0.00,17.688, 14.312,32.00, 32.00,32.00s 32.00-14.312, 32.00-32.00s-32.00-64.00-32.00-64.00S 96.00,366.312, 96.00,384.00z" ></path></svg>