<?xml version="1.0" encoding="utf-8"?> <!-- Generator: IcoMoon.io --> <!DOCTYPE svg PUBLIC "-//W3C//DTD SVG 1.1//EN" "http://www.w3.org/Graphics/SVG/1.1/DTD/svg11.dtd"> <svg width="512" height="512" viewBox="0 0 512 512" xmlns="http://www.w3.org/2000/svg" xmlns:xlink="http://www.w3.org/1999/xlink" fill="#333333"><path d="M 382.872,292.25l-32.625-18.834c 1.042-5.666, 1.75-11.458, 1.75-17.416c0.00-5.979-0.708-11.792-1.792-17.458 l 32.625-18.854c 15.333-8.875, 20.542-28.438, 11.729-43.688c-8.854-15.312-28.375-20.562-43.688-11.75l-32.938,19.021 c-8.812-7.50-18.854-13.417-29.938-17.354L 287.995,128.00 c0.00-17.667-14.312-32.00-32.00-32.00c-17.666,0.00-32.00,14.333-32.00,32.00l0.00,37.896 c-11.083,3.938-21.125,9.855-29.937,17.354l-32.876-18.979c-15.312-8.833-34.896-3.604-43.749,11.708 c-8.813,15.292-3.562,34.854, 11.749,43.688l 32.563,18.813c-1.062,5.688-1.751,11.521-1.751,17.521 c0.00,5.958, 0.688,11.771, 1.751,17.438l-32.584,18.812c-15.334,8.834-20.584,28.438-11.729,43.75 c 8.811,15.25, 28.395,20.50, 43.729,11.688l 32.833-18.979c 8.813,7.50, 18.875,13.458, 30.00,17.417L 223.994,384.00 c0.00,17.688, 14.334,32.00, 32.00,32.00 c 17.688,0.00, 32.00-14.312, 32.00-32.00l0.00-37.917 c 11.125-3.958, 21.188-9.875, 29.958-17.395l 32.917,18.999c 15.312,8.812, 34.876,3.562, 43.688-11.688 C 403.414,320.688, 398.185,301.125, 382.872,292.25z M 223.997,256.00c0.00-17.667, 14.312-32.00, 32.00-32.00c 17.667,0.00, 32.00,14.333, 32.00,32.00 c0.00,17.666-14.333,32.00-32.00,32.00C 238.31,288.00, 223.997,273.666, 223.997,256.00z" ></path></svg>