<?xml version="1.0" encoding="utf-8"?> <!-- Generator: IcoMoon.io --> <!DOCTYPE svg PUBLIC "-//W3C//DTD SVG 1.1//EN" "http://www.w3.org/Graphics/SVG/1.1/DTD/svg11.dtd"> <svg width="512" height="512" viewBox="0 0 512 512" xmlns="http://www.w3.org/2000/svg" xmlns:xlink="http://www.w3.org/1999/xlink" fill="#333333"><path d="M 326.042,347.688l-18.00-10.375c 0.542-3.125, 0.958-6.312, 0.958-9.625c0.00-3.312-0.416-6.50-1.00-9.625 l 18.042-10.396c 8.417-4.917, 11.291-15.729, 6.458-24.104c-4.876-8.479-15.667-11.375-24.125-6.50l-18.188,10.50 c-4.877-4.146-10.375-7.396-16.50-9.604l0.00-20.896 c0.00-9.771-7.938-17.688-17.688-17.688s-17.666,7.917-17.666,17.688l0.00,20.875 c-6.126,2.188-11.646,5.479-16.521,9.625l-18.146-10.50c-8.479-4.875-19.292-2.00-24.167,6.479c-4.875,8.417-1.938,19.25, 6.50,24.126 l 17.959,10.375c-0.584,3.146-0.959,6.334-0.959,9.646s 0.375,6.50, 0.959,9.623L 186.00,347.688c-8.459,4.875-11.375,15.75-6.50,24.188 s 15.688,11.312, 24.125,6.438l 18.167-10.438c 4.874,4.125, 10.396,7.375, 16.542,9.562l0.00,20.938 c0.00,9.749, 7.916,17.624, 17.666,17.624 s 17.688-7.875, 17.688-17.624l0.00-20.938 c 6.125-2.188, 11.688-5.438, 16.521-9.625l 18.167,10.50c 8.458,4.875, 19.249,2.00, 24.125-6.438 C 337.375,363.438, 334.50,352.625, 326.042,347.688z M 256.00,345.375c-9.75,0.00-17.688-7.938-17.688-17.688s 7.938-17.646, 17.688-17.646 s 17.667,7.896, 17.667,17.646S 265.75,345.375, 256.00,345.375z M 400.00,64.00c-5.312,0.00-10.562,0.375-15.792,1.125 C 354.334,24.417, 307.188,0.00, 256.00,0.00c-51.188,0.00-98.312,24.417-128.208,65.125C 122.562,64.375, 117.312,64.00, 112.00,64.00 C 50.25,64.00,0.00,114.25,0.00,176.00s 50.25,112.00, 112.00,112.00c 11.812,0.00, 23.334-2.208, 34.438-5.834c 1.062-5.082, 2.729-10.041, 5.375-14.645 c 3.938-6.854, 9.562-12.312, 16.00-16.502c-3.312-3.229-6.938-6.104-9.875-9.688C 144.938,250.50, 129.125,256.00, 112.00,256.00 c-44.188,0.00-80.00-35.812-80.00-80.00c0.00-44.188, 35.812-80.00, 80.00-80.00c 10.812,0.00, 21.062,2.208, 30.438,6.083C 163.667,60.667, 206.291,32.00, 256.00,32.00 s 92.334,28.667, 113.541,70.083C 378.938,98.208, 389.209,96.00, 400.00,96.00c 44.188,0.00, 80.00,35.812, 80.00,80.00c0.00,44.188-35.812,80.00-80.00,80.00 c-17.125,0.00-32.916-5.50-45.938-14.667c-2.938,3.583-6.604,6.459-9.896,9.688c 6.459,4.207, 12.125,9.688, 16.042,16.562 c 2.708,4.646, 4.354,9.584, 5.416,14.583C 376.688,285.792, 388.188,288.00, 400.00,288.00c 61.75,0.00, 112.00-50.25, 112.00-112.00S 461.75,64.00, 400.00,64.00z" ></path></svg>