<?xml version="1.0" encoding="utf-8"?> <!-- Generator: IcoMoon.io --> <!DOCTYPE svg PUBLIC "-//W3C//DTD SVG 1.1//EN" "http://www.w3.org/Graphics/SVG/1.1/DTD/svg11.dtd"> <svg width="512" height="512" viewBox="0 0 512 512" xmlns="http://www.w3.org/2000/svg" xmlns:xlink="http://www.w3.org/1999/xlink" fill="#333333"><path d="M 256.00,144.00c-61.75,0.00-112.00,50.25-112.00,112.00c0.00,61.749, 50.25,112.00, 112.00,112.00 s 112.00-50.251, 112.00-112.00C 368.00,194.25, 317.75,144.00, 256.00,144.00z M 256.00,112.00c 8.833,0.00, 16.00-7.146, 16.00-16.00L 272.00,64.00 c0.00-8.833-7.167-16.00-16.00-16.00 c-8.854,0.00-16.00,7.167-16.00,16.00l0.00,32.00 C 240.00,104.854, 247.146,112.00, 256.00,112.00z M 256.00,400.00c-8.854,0.00-16.00,7.167-16.00,16.00l0.00,32.00 c0.00,8.854, 7.146,16.00, 16.00,16.00 c 8.833,0.00, 16.00-7.146, 16.00-16.00l0.00-32.00 C 272.00,407.167, 264.833,400.00, 256.00,400.00z M 380.417,154.167l 22.625-22.625c 6.25-6.25, 6.25-16.375,0.00-22.625 c-6.251-6.25-16.375-6.25-22.625,0.00l-22.625,22.625c-6.251,6.25-6.251,16.375,0.00,22.625 C 364.042,160.416, 374.166,160.416, 380.417,154.167z M 131.541,357.854l-22.623,22.625c-6.252,6.25-6.252,16.376,0.00,22.625 c 6.249,6.25, 16.373,6.25, 22.623,0.00l 22.625-22.625c 6.251-6.291, 6.251-16.375,0.00-22.625 C 147.917,351.604, 137.792,351.562, 131.541,357.854z M 112.00,256.00c0.00-8.833-7.167-16.00-16.00-16.00L 64.00,240.00 c-8.854,0.00-16.00,7.167-16.00,16.00 c0.00,8.854, 7.146,16.00, 16.00,16.00l 32.00,0.00 C 104.833,272.00, 112.00,264.854, 112.00,256.00z M 448.00,240.00l-32.00,0.00 c-8.854,0.00-16.00,7.167-16.00,16.00c0.00,8.854, 7.146,16.00, 16.00,16.00l 32.00,0.00 c 8.833,0.00, 16.00-7.146, 16.00-16.00C 464.00,247.167, 456.833,240.00, 448.00,240.00z M 131.521,154.167c 6.249,6.25, 16.375,6.25, 22.625,0.00 c 6.249-6.25, 6.249-16.375,0.00-22.625l-22.625-22.625c-6.25-6.25-16.376-6.25-22.625,0.00c-6.25,6.25-6.25,16.375,0.00,22.625 L 131.521,154.167z M 380.459,357.812c-6.293-6.25-16.376-6.25-22.625,0.00c-6.25,6.249-6.293,16.375,0.00,22.625l 22.625,22.625 c 6.249,6.249, 16.374,6.249, 22.625,0.00c 6.249-6.25, 6.249-16.376,0.00-22.625L 380.459,357.812z" ></path></svg>