<?xml version="1.0" encoding="utf-8"?> <!-- Generator: IcoMoon.io --> <!DOCTYPE svg PUBLIC "-//W3C//DTD SVG 1.1//EN" "http://www.w3.org/Graphics/SVG/1.1/DTD/svg11.dtd"> <svg width="512" height="512" viewBox="0 0 512 512" xmlns="http://www.w3.org/2000/svg" xmlns:xlink="http://www.w3.org/1999/xlink" fill="#333333"><path d="M 368.016,64.00l-240.00,0.00 C 110.336,64.00, 96.00,78.336, 96.00,96.00l0.00,320.00 c0.00,17.664, 14.336,32.00, 32.016,32.00l 240.00,0.00 C 385.68,448.00, 400.00,433.664, 400.00,416.00L 400.00,96.00 C 400.00,78.336, 385.68,64.00, 368.016,64.00z M 248.00,432.00c-8.832,0.00-15.984-7.152-15.984-16.00s 7.152-16.00, 15.984-16.00 c 8.848,0.00, 16.016,7.152, 16.016,16.00S 256.848,432.00, 248.00,432.00z M 367.856,383.008L 127.44,383.008 L 127.44,96.416 l 240.416,0.00 L 367.856,383.008 z" ></path></svg>