<?xml version="1.0" encoding="utf-8"?> <!-- Generator: IcoMoon.io --> <!DOCTYPE svg PUBLIC "-//W3C//DTD SVG 1.1//EN" "http://www.w3.org/Graphics/SVG/1.1/DTD/svg11.dtd"> <svg width="512" height="512" viewBox="0 0 512 512" xmlns="http://www.w3.org/2000/svg" xmlns:xlink="http://www.w3.org/1999/xlink" fill="#333333"><path d="M 384.00,352.00l0.00,25.50 t-0.50,26.00t-2.00,27.50t-3.50,24.75t-5.75,22.75t-8.50,17.00t-12.00,12.50t-15.75,4.00q-4.00,0.00 -6.75-1.75t-4.50-6.00t-2.75-8.00t-1.50-11.75t-0.50-13.00l0.00-15.00 l0.00-8.50 q0.00-31.00 -0.25-45.75t-2.00-37.50t-5.75-33.25t-11.00-22.50t-18.25-16.50t-26.75-4.50t-26.75,4.50t-18.25,16.50t-11.00,22.50t-5.75,33.25t-2.00,37.50t-0.25,45.75l0.00,8.50 l0.00,15.00 t-0.50,13.00 t-1.50,11.75t-2.75,8.00t-4.50,6.00t-6.75,1.75q-8.50,0.00 -15.75-4.00t-12.00-12.50t-8.50-17.00t-5.75-22.75t-3.50-24.75t-2.00-27.50t-0.50-26.00l0.00-25.50 q0.00-21.00 -10.00-53.50t-22.00-62.25t-22.00-68.75t-10.00-71.50q0.00-40.00 28.00-68.00t 68.00-28.00q 16.00,0.00 48.00,16.00t 48.00,16.00t 48.00-16.00t 48.00-16.00q 39.50,0.00 67.75,28.00t 28.25,68.00q0.00,32.50 -10.00,71.50t-22.00,68.75t-22.00,62.25 t-10.00,53.50z" ></path></svg>