<?xml version="1.0" encoding="utf-8"?> <!-- Generator: IcoMoon.io --> <!DOCTYPE svg PUBLIC "-//W3C//DTD SVG 1.1//EN" "http://www.w3.org/Graphics/SVG/1.1/DTD/svg11.dtd"> <svg width="500.00000000000006" height="500" viewBox="0 0 500 500" xmlns="http://www.w3.org/2000/svg" xmlns:xlink="http://www.w3.org/1999/xlink" fill="#333333"><path d="M 309.425,361.20C 247.15,338.75, 227.25,319.80, 227.25,279.225c0.00-24.35, 19.025-16.40, 27.375-61.00c 3.475-18.50, 20.275-0.30, 23.45-42.525 c0.00-16.825-9.15-21.025-9.15-21.025s 4.675-24.925, 6.475-44.075C 277.65,86.70, 261.45,25.00, 175.00,25.00S 72.35,86.70, 74.60,110.60 c 1.825,19.175, 6.50,44.075, 6.50,44.075S 71.925,158.85, 71.925,175.70c 3.225,42.225, 20.025,24.025, 23.45,42.525 c 8.375,44.60, 27.40,36.65, 27.40,61.00c0.00,40.575-19.925,59.525-82.20,81.975c-7.50,2.675-25.375,6.875-40.575,13.45L0.00,475.00 l 400.00,0.00 c0.00,0.00,0.00-36.975,0.00-52.625S 371.925,383.725, 309.425,361.20z M 425.00,225.00L 425.00,150.00 l-50.00,0.00 l0.00,75.00 l-75.00,0.00 l0.00,50.00 l 75.00,0.00 l0.00,75.00 l 50.00,0.00 l0.00-75.00 l 75.00,0.00 L 500.00,225.00 L 425.00,225.00 z" ></path></svg>