<?xml version="1.0" encoding="utf-8"?> <!-- Generator: IcoMoon.io --> <!DOCTYPE svg PUBLIC "-//W3C//DTD SVG 1.1//EN" "http://www.w3.org/Graphics/SVG/1.1/DTD/svg11.dtd"> <svg width="512" height="512" viewBox="0 0 512 512" xmlns="http://www.w3.org/2000/svg" xmlns:xlink="http://www.w3.org/1999/xlink" fill="#333333"><path d="M 33.604,256.00C 32.562,250.833, 32.00,245.479, 32.00,240.00 c0.00-44.188, 35.812-80.00, 80.00-80.00c 10.812,0.00, 21.062,2.208, 30.438,6.083C 163.667,124.667, 206.291,96.00, 256.00,96.00s 92.334,28.667, 113.541,70.083 C 378.938,162.208, 389.209,160.00, 400.00,160.00c 44.188,0.00, 80.00,35.812, 80.00,80.00c0.00,5.479-0.562,10.833-1.625,16.00l 32.00,0.00 c 0.792-5.271, 1.625-10.521, 1.625-16.00c0.00-61.75-50.25-112.00-112.00-112.00c-5.312,0.00-10.562,0.375-15.792,1.125 C 354.334,88.417, 307.188,64.00, 256.00,64.00s-98.312,24.417-128.208,65.125C 122.562,128.375, 117.312,128.00, 112.00,128.00C 50.25,128.00,0.00,178.25,0.00,240.00 c0.00,5.479, 0.854,10.729, 1.625,16.00L 33.604,256.00 z M 496.00,288.00L 16.00,288.00 c-8.833,0.00-16.00,7.167-16.00,16.00s 7.167,16.00, 16.00,16.00l 480.00,0.00 c 8.833,0.00, 16.00-7.167, 16.00-16.00 S 504.833,288.00, 496.00,288.00z M 496.00,352.00L 16.00,352.00 c-8.833,0.00-16.00,7.167-16.00,16.00s 7.167,16.00, 16.00,16.00l 480.00,0.00 c 8.833,0.00, 16.00-7.167, 16.00-16.00S 504.833,352.00, 496.00,352.00z M 496.00,416.00L 16.00,416.00 c-8.833,0.00-16.00,7.167-16.00,16.00s 7.167,16.00, 16.00,16.00l 480.00,0.00 c 8.833,0.00, 16.00-7.167, 16.00-16.00S 504.833,416.00, 496.00,416.00z" ></path></svg>