<?xml version="1.0" encoding="utf-8"?> <!-- Generator: IcoMoon.io --> <!DOCTYPE svg PUBLIC "-//W3C//DTD SVG 1.1//EN" "http://www.w3.org/Graphics/SVG/1.1/DTD/svg11.dtd"> <svg width="512" height="512" viewBox="0 0 512 512" xmlns="http://www.w3.org/2000/svg" xmlns:xlink="http://www.w3.org/1999/xlink" fill="#333333"><path d="M 512.00,320.00q0.00,54.50 -34.00,101.50q 4.50,26.50 -4.50,24.50q-2.50-0.50 -6.50-4.50q-0.50-0.50 -1.75-1.50t-1.25-1.50q-31.50,34.50 -77.50,54.00t-98.50,19.50q-78.50,0.00 -139.00-41.50t-78.50-105.50q-40.50-7.00 -62.00-16.00q-5.00-2.50 -7.25-5.00t-1.00-6.00t 2.75-6.25t 5.50-7.75l 2.50-2.50q 0.50-0.50 2.75-3.75t 2.75-3.75t 2.75-3.00t 3.00-3.00l 3.00-2.00t 3.50-1.50t 3.50-0.25t 4.50,0.25t 4.75,2.00q 7.50,3.00 22.50,12.50 q0.00-8.00 1.00-16.00q-13.00-11.50 -26.75-27.00t-18.75-23.00q-1.50-2.00 -2.25-3.75t-1.25-3.25t0.00-3.00t 0.75-2.50t 1.75-2.25t 2.00-1.75t 2.75-1.75t 3.00-1.50t 3.75-1.50t 3.50-1.75q 1.00-0.50 4.25-2.00t 4.00-1.75t 3.50-1.25t 3.75-1.00t 3.25-0.25t 3.50,0.50t 3.00,1.50t 3.25,2.50t 3.00,4.25q 4.00,6.00 11.50,21.00q 18.00-50.00 58.25-90.25t 91.75-57.25q-11.00-3.00 -26.75-3.00t-26.25-1.00t-13.50-6.00q-1.50-2.50 -2.25-4.25 t-0.75-3.50l0.00-3.00 t 1.25-2.75t 1.75-2.25t 3.00-2.25t 3.50-2.25t 4.50-2.50l 4.50-2.25q 12.50-6.50 27.00-7.00t 29.00,4.50t 27.50,11.75t 25.50,15.75l 1.75,0.00 l 1.75,0.00 q 3.00,0.00 17.00,1.00l-1.00-1.00q-6.50-13.00 -19.00-25.75t-20.75-21.75t-8.25-16.50q0.00-13.00 9.50-22.50t 22.50-9.50q 16.50,0.00 31.50,9.75t 25.50,24.00t 19.00,31.50t 12.75,31.00t 6.25,24.25q 52.00,27.50 87.00,76.50l 10.00-5.00l 32.00,48.00l-15.50,6.00 q 15.50,38.00 15.50,74.00zM 448.00,400.00q0.00-7.00 -22.50-27.50t-29.50-20.50q-10.50,0.00 -27.25,4.75t-16.75,11.25q0.00,5.50 2.50,9.00t 8.25,5.00t 9.75,1.75t 11.50,0.25q 16.50,0.00 50.00,14.50q 14.00,6.50 14.00,1.50zM 388.00,448.00q 12.00,0.00 39.50-27.50q-12.50-4.00 -27.75-7.75t-34.50-7.50t-25.75-5.25q 7.00,15.00 24.00,31.50t 24.50,16.50zM 454.00,261.50l-66.50,25.50q-3.50,8.50 -3.50,17.00 q0.00-8.50 -3.50-17.00l-66.50-25.50q-12.00,6.50 -19.00,17.75t-7.00,24.75q0.00,20.00 14.00,34.00t 34.00,14.00t 34.00-14.00t 14.00-34.00q0.00,20.00 14.00,34.00t 34.00,14.00t 34.00-14.00t 14.00-34.00q0.00-13.50 -7.00-24.75t-19.00-17.75zM 432.00,320.00q-6.50,0.00 -11.25-4.75t-4.75-11.25t 4.75-11.25t 11.25-4.75t 11.25,4.75t 4.75,11.25t-4.75,11.25t-11.25,4.75zM 336.00,320.00q-6.50,0.00 -11.25-4.75 t-4.75-11.25t 4.75-11.25t 11.25-4.75t 11.25,4.75t 4.75,11.25t-4.75,11.25t-11.25,4.75z" ></path></svg>