<?xml version="1.0" encoding="utf-8"?> <!-- Generator: IcoMoon.io --> <!DOCTYPE svg PUBLIC "-//W3C//DTD SVG 1.1//EN" "http://www.w3.org/Graphics/SVG/1.1/DTD/svg11.dtd"> <svg width="512" height="512" viewBox="0 0 512 512" xmlns="http://www.w3.org/2000/svg" xmlns:xlink="http://www.w3.org/1999/xlink" fill="#333333"><path d="M 394.992,256.592c 36.688,39.568, 53.12,78.496, 38.864,103.456 c-14.224,24.896-55.696,30.032-107.808,17.824c-15.60,52.144-40.864,86.192-69.456,86.192c-28.624,0.00-53.872-34.16-69.44-86.448 c-52.688,12.56-94.656,7.52-108.992-17.568c-14.256-24.96, 2.192-63.936, 38.88-103.552c-37.392-39.936-54.224-79.36-39.84-104.512 c 14.40-25.216, 56.768-30.192, 109.824-17.392c 15.584-52.40, 40.928-86.656, 69.584-86.656c 28.64,0.00, 53.904,34.144, 69.472,86.416 c 52.56-12.48, 94.464-7.424, 108.784,17.632C 449.20,177.152, 432.352,216.608, 394.992,256.592z M 92.032,160.656 c-11.008,19.264, 4.176,50.848, 36.32,84.24c 13.104-12.784, 28.192-25.472, 44.992-37.664c 2.048-20.256, 5.168-39.472, 9.44-56.96 C 137.872,138.736, 103.088,141.312, 92.032,160.656z M 171.536,229.776c-11.52,8.768-22.032,17.664-31.456,26.544c 9.552,8.928, 19.856,17.888, 31.52,26.72 c-0.48-8.88-0.816-17.856-0.816-27.04C 170.784,247.104, 171.072,238.368, 171.536,229.776z M 173.328,305.504 c-16.816-12.144-31.856-24.80-45.008-37.536c-31.568,33.088-46.224,64.304-35.312,83.408c 10.992,19.216, 45.408,21.888, 89.92,10.592 C 178.656,344.576, 175.36,325.664, 173.328,305.504z M 321.424,317.36c-7.136,4.688-14.432,9.296-22.032,13.728 c-7.712,4.496-15.424,8.624-23.104,12.56c 13.168,5.60, 26.048,10.48, 38.272,14.224C 317.424,345.328, 319.648,331.648, 321.424,317.36z M 256.576,446.72c 21.904,0.00, 41.344-28.56, 53.92-72.912c-17.36-4.992-35.696-11.936-54.384-20.384c-18.352,8.336-36.304,15.04-53.392,20.048 C 215.264,417.936, 234.672,446.72, 256.576,446.72z M 198.768,357.472c 11.872-3.696, 24.288-8.288, 37.056-13.728 c-7.712-3.952-15.472-8.128-23.216-12.64c-7.184-4.208-14.096-8.528-20.864-12.96C 193.488,332.176, 195.968,345.12, 198.768,357.472z M 191.776,194.496c 7.056-4.624, 14.288-9.168, 21.792-13.568c 7.408-4.336, 14.816-8.32, 22.208-12.128c-12.816-5.472-25.36-10.304-37.296-14.032 C 195.696,167.088, 193.536,180.512, 191.776,194.496z M 256.576,65.28c-21.968,0.00-41.504,28.832-54.064,73.504c 17.072,5.024, 35.056,11.92, 53.376,20.272 c 18.752-8.592, 37.088-15.456, 54.544-20.544C 297.888,94.08, 278.496,65.28, 256.576,65.28z M 314.416,154.48c-12.288,3.824-25.12,8.56-38.368,14.256 c 7.44,3.824, 14.912,7.84, 22.368,12.208c 8.032,4.688, 15.712,9.568, 23.216,14.528C 319.872,180.832, 317.328,167.312, 314.416,154.48z M 323.84,217.664 c-10.72-7.456-22.048-14.736-34.016-21.696c-11.456-6.688-22.816-12.528-34.048-17.984c-11.088,5.408-22.336,11.408-33.616,17.984 c-11.408,6.64-22.304,13.584-32.56,20.656c-0.992,12.752-1.664,25.808-1.664,39.392c0.00,13.728, 0.56,27.088, 1.552,39.984 c 10.032,6.896, 20.624,13.632, 31.696,20.096c 11.776,6.864, 23.456,12.864, 35.008,18.432c 11.408-5.536, 22.992-11.664, 34.592-18.432 c 11.504-6.704, 22.432-13.68, 32.784-20.832c 0.976-12.704, 1.664-25.712, 1.664-39.248C 325.232,242.864, 324.752,230.048, 323.84,217.664z M 418.992,351.376c 10.912-19.072-3.872-50.24-35.376-83.248c-12.816,12.384-27.488,24.672-43.776,36.496c-2.048,20.512-5.216,39.984-9.568,57.664 C 374.208,373.248, 408.112,370.416, 418.992,351.376z M 341.648,282.08c 11.024-8.416, 21.136-16.96, 30.256-25.456 c-9.152-8.64-19.024-17.328-30.192-25.888c 0.40,8.304, 0.688,16.704, 0.688,25.264C 342.384,264.864, 342.096,273.536, 341.648,282.08z M 419.952,160.656c-10.976-19.184-45.28-21.904-89.68-10.656c 4.368,17.888, 7.744,37.424, 9.76,58.256c 16.304,11.92, 30.88,24.32, 43.648,36.784 C 415.888,211.584, 430.992,179.952, 419.952,160.656z M 259.20,288.992c-18.832,0.00-34.096-15.408-34.096-34.432c0.00-19.008, 15.264-34.432, 34.096-34.432 c 18.816,0.00, 34.08,15.424, 34.08,34.432C 293.28,273.60, 278.016,288.992, 259.20,288.992z" ></path></svg>