<?xml version="1.0" encoding="utf-8"?> <!-- Generator: IcoMoon.io --> <!DOCTYPE svg PUBLIC "-//W3C//DTD SVG 1.1//EN" "http://www.w3.org/Graphics/SVG/1.1/DTD/svg11.dtd"> <svg width="512" height="512" viewBox="0 0 512 512" xmlns="http://www.w3.org/2000/svg" xmlns:xlink="http://www.w3.org/1999/xlink" fill="#333333"><path d="M 368.976,215.056c0.00,0.00, 18.752-14.256, 4.496-28.512c-14.288-14.256-28.16,4.144-28.16,4.144 l-111.504,111.52c0.00,0.00-33.648,43.376-59.136,17.12s 17.12-59.136, 17.12-59.136l 156.144-156.16c0.00,0.00, 43.904-48.368, 85.152-7.12 c 41.248,41.264-7.248,85.264-7.248,85.264L 214.432,393.60c0.00,0.00-67.648,78.144-130.288,15.504s 16.256-129.52, 16.256-129.52L 260.944,119.04 c0.00,0.00, 18.00-15.008, 4.496-28.512s-28.496,4.496-28.496,4.496L 52.784,279.20c0.00,0.00-69.52,76.272, 8.128,153.888 c 77.648,77.648, 153.904,8.144, 153.904,8.144l 253.152-253.168c0.00,0.00, 50.624-55.888-9.744-116.288s-116.288-9.744-116.288-9.744L 156.176,247.808 c0.00,0.00-55.84,45.344-5.20,95.968c 50.64,50.64, 95.216-5.952, 95.216-5.952L 368.976,215.056z" ></path></svg>