<?xml version="1.0" encoding="utf-8"?> <!-- Generator: IcoMoon.io --> <!DOCTYPE svg PUBLIC "-//W3C//DTD SVG 1.1//EN" "http://www.w3.org/Graphics/SVG/1.1/DTD/svg11.dtd"> <svg width="500.00000000000006" height="500" viewBox="0 0 500 500" xmlns="http://www.w3.org/2000/svg" xmlns:xlink="http://www.w3.org/1999/xlink" fill="#333333"><path d="M 283.275,35.00L 283.275,35.00c-122.70,0.00-199.95,42.275-194.775,76.25C 90.00,120.95, 94.125,147.375, 99.35,180.625 c-60.125,23.35-80.05,61.175-77.375,92.05c 3.15,36.525, 36.025,75.625, 108.20,82.40c 41.20,3.825, 90.775-18.75, 122.925-57.375 c-3.075-5.20-4.825-11.20-4.825-17.675c0.00-19.325, 15.65-35.00, 34.975-35.00s 35.00,15.675, 35.00,35.00c0.00,19.05-15.25,34.525-34.20,34.95 c-38.25,49.325-96.475,79.075-151.625,75.60c 1.275,8.125, 1.775,11.20, 2.40,15.325c 2.275,14.45, 58.675,59.00, 148.425,59.075l 0.025,0.00 c 89.75-0.075, 146.175-44.625, 148.425-59.075C 433.925,391.525, 472.75,145.75, 478.00,111.25C 483.20,77.30, 405.925,35.00, 283.275,35.00z M 56.85,269.625 c-1.375-16.05, 11.375-37.425, 48.075-53.475c 5.275,33.525, 11.025,69.925, 16.075,101.875C 80.90,310.15, 58.55,289.25, 56.85,269.625z M 283.25,163.10 C 193.50,163.05, 129.825,129.725, 129.825,117.30c-0.05-12.375, 63.675-45.75, 153.425-45.70c 89.75-0.05, 153.50,33.325, 153.45,45.70 C 436.70,129.725, 373.025,163.05, 283.25,163.10z" ></path></svg>