<?xml version="1.0" encoding="utf-8"?> <!-- Generator: IcoMoon.io --> <!DOCTYPE svg PUBLIC "-//W3C//DTD SVG 1.1//EN" "http://www.w3.org/Graphics/SVG/1.1/DTD/svg11.dtd"> <svg width="563" height="512" viewBox="0 0 563 512" xmlns="http://www.w3.org/2000/svg" xmlns:xlink="http://www.w3.org/1999/xlink" fill="#333333"><path d="M 340.064,272.496c0.00,0.00, 7.664-103.104-86.832-114.864 c-80.992-8.272-105.632,66.992-105.632,66.992s-24.384-23.456-57.472-4.304c-29.616,18.288-24.368,51.744-24.368,51.744S0.00,284.848,0.00,351.904 c 1.808,68.096, 70.992,66.40, 70.992,66.40l 258.768,0.688c0.00,0.00, 61.936,0.72, 73.216-63.088C 407.344,286.256, 340.064,272.496, 340.064,272.496z M 500.064,208.512c0.00,0.00, 7.664-103.104-86.816-114.88c-80.992-8.272-106.624,67.984-106.624,67.984s 47.184,27.376, 49.184,101.376 c 30.00,9.008, 61.968,33.76, 62.976,91.76l 70.976,0.256c0.00,0.00, 61.936,0.72, 73.216-63.088C 567.344,222.24, 500.064,208.512, 500.064,208.512z" ></path></svg>