<?xml version="1.0" encoding="utf-8"?> <!-- Generator: IcoMoon.io --> <!DOCTYPE svg PUBLIC "-//W3C//DTD SVG 1.1//EN" "http://www.w3.org/Graphics/SVG/1.1/DTD/svg11.dtd"> <svg width="674" height="512" viewBox="0 0 674 512" xmlns="http://www.w3.org/2000/svg" xmlns:xlink="http://www.w3.org/1999/xlink" fill="#333333"><path d="M 522.224,280.976c0.00,0.00-73.472-74.912-174.72-74.912c-98.928,0.00-196.72,74.912-196.72,74.912 l-54.928-22.928l0.00,67.264 c 8.656,2.944, 14.992,10.912, 14.992,20.56c0.00,9.744-6.464,17.728-15.248,20.608l 16.24,45.296L 63.904,411.776 l 16.384-45.68 c-7.872-3.344-13.376-11.12-13.376-20.224c0.00-8.912, 5.344-16.496, 12.976-19.952l0.00-74.544 L0.00,218.064l 351.504-157.776l 322.496,159.76L 522.224,280.976z M 343.504,244.016c 101.856,0.00, 151.776,53.92, 151.776,53.92l0.00,111.84 c0.00,0.00-51.92,41.936-159.76,41.936s-143.792-41.936-143.792-41.936l0.00-111.84 C 191.728,297.936, 241.648,244.016, 343.504,244.016z M 341.504,427.744c 70.592,0.00, 127.824-14.32, 127.824-31.952s-57.232-31.952-127.824-31.952 s-127.808,14.32-127.808,31.952S 270.912,427.744, 341.504,427.744z" ></path></svg>