<?xml version="1.0" encoding="utf-8"?> <!-- Generator: IcoMoon.io --> <!DOCTYPE svg PUBLIC "-//W3C//DTD SVG 1.1//EN" "http://www.w3.org/Graphics/SVG/1.1/DTD/svg11.dtd"> <svg width="448" height="448" viewBox="0 0 448 448" xmlns="http://www.w3.org/2000/svg" xmlns:xlink="http://www.w3.org/1999/xlink" fill="#333333"><path d="M 224.00,416.00q-6.50,0.00 -11.00-4.50l-156.00-150.50q-2.50-2.00 -6.875-6.50t-13.875-16.375t-17.00-24.375t-13.375-30.25t-5.875-34.50q0.00-55.00 31.75-86.00t 87.75-31.00q 15.50,0.00 31.625,5.375t 30.00,14.50t 23.875,17.125t 19.00,17.00q 9.00-9.00 19.00-17.00t 23.875-17.125t 30.00-14.50t 31.625-5.375q 56.00,0.00 87.75,31.00t 31.75,86.00q0.00,55.25 -57.25,112.50l-155.75,150.00 q-4.50,4.50 -11.00,4.50z" ></path></svg>