<?xml version="1.0" encoding="utf-8"?> <!-- Generator: IcoMoon.io --> <!DOCTYPE svg PUBLIC "-//W3C//DTD SVG 1.1//EN" "http://www.w3.org/Graphics/SVG/1.1/DTD/svg11.dtd"> <svg width="512" height="512" viewBox="0 0 512 512" xmlns="http://www.w3.org/2000/svg" xmlns:xlink="http://www.w3.org/1999/xlink" fill="#333333"><path d="M 385.024,105.328l-60.368,134.00l-17.568,0.00 l 64.384-142.656l-99.408,0.00 l0.00,332.336 c 20.48,0.752, 125.008,34.672, 125.008,34.672L 397.072,480.00 L 116.112,480.00 l0.00-17.424 c0.00,0.00, 106.848-33.584, 122.944-33.584L 239.056,96.672 L 142.816,96.672 l 64.40,142.656l-17.568,0.00 L 129.28,105.328 l-60.368,134.00L 51.344,239.328 l 64.768-143.456L 116.112,79.328 l 1.088,0.00 l 106.976,0.00 c0.00-21.648, 14.512-39.328, 31.44-39.328c 17.904,0.00, 31.44,18.688, 31.44,39.328l 110.048,0.00 l0.00,14.192 l 65.856,145.808l-17.568,0.00 L 385.024,105.328z M 208.32,255.664c0.00,43.088-29.888,84.512-79.024,84.512c-48.032,0.00-79.024-41.424-79.024-84.512 C 50.256,255.728, 208.32,255.728, 208.32,255.664z M 308.192,255.664c0.00,0.08, 158.064,0.08, 158.064,0.00c0.00,43.088-29.888,84.512-79.024,84.512 C 339.184,340.176, 308.192,298.752, 308.192,255.664z" ></path></svg>