<?xml version="1.0" encoding="utf-8"?> <!-- Generator: IcoMoon.io --> <!DOCTYPE svg PUBLIC "-//W3C//DTD SVG 1.1//EN" "http://www.w3.org/Graphics/SVG/1.1/DTD/svg11.dtd"> <svg width="512" height="512" viewBox="0 0 512 512" xmlns="http://www.w3.org/2000/svg" xmlns:xlink="http://www.w3.org/1999/xlink" fill="#333333"><path d="M 248.00,56.00c-114.88,0.00-208.00,93.12-208.00,208.00s 93.12,208.00, 208.00,208.00s 208.00-93.12, 208.00-208.00 S 362.88,56.00, 248.00,56.00z M 248.00,382.00c-13.264,0.00-24.00-10.752-24.00-24.00s 10.736-24.00, 24.00-24.00c 13.248,0.00, 24.00,10.752, 24.00,24.00 S 261.248,382.00, 248.00,382.00z M 272.00,278.00c0.00,13.248-10.752,24.00-24.00,24.00c-13.264,0.00-24.00-10.752-24.00-24.00l0.00-112.00 c0.00-13.264, 10.736-24.00, 24.00-24.00 c 13.248,0.00, 24.00,10.736, 24.00,24.00L 272.00,278.00 z" ></path></svg>