<?xml version="1.0" encoding="utf-8"?> <!-- Generator: IcoMoon.io --> <!DOCTYPE svg PUBLIC "-//W3C//DTD SVG 1.1//EN" "http://www.w3.org/Graphics/SVG/1.1/DTD/svg11.dtd"> <svg width="512" height="512" viewBox="0 0 512 512" xmlns="http://www.w3.org/2000/svg" xmlns:xlink="http://www.w3.org/1999/xlink" fill="#333333"><path d="M 448.00,496.00L 64.00,496.00 c-26.512,0.00-48.00-21.504-48.00-48.00L 16.00,224.00 c0.00-26.512, 21.488-48.00, 48.00-48.00l 384.00,0.00 c 26.496,0.00, 48.00,21.488, 48.00,48.00l0.00,224.00 C 496.00,474.496, 474.496,496.00, 448.00,496.00z M 128.00,288.656c-26.512,0.00-48.00,25.072-48.00,56.00c0.00,30.944, 21.488,56.00, 48.00,56.00c 26.496,0.00, 48.00-25.056, 48.00-56.00 C 176.00,313.728, 154.496,288.656, 128.00,288.656z M 252.48,302.368c-1.84-3.792-4.304-6.752-7.328-8.848c-3.04-2.112-6.816-3.536-11.312-4.288 c-3.20-0.592-7.84-0.88-13.92-0.88l-28.528,0.00 l0.00,110.624 l 16.128,0.00 l0.00-32.256 l 13.472,0.00 c 12.96,0.00, 21.888-5.696, 26.864-11.088 c 4.944-5.408, 7.424-28.992, 7.424-36.784C 255.264,314.336, 254.336,306.16, 252.48,302.368z M 336.384,383.12l-48.928,0.00 l0.00-32.128 l 47.296,0.00 l0.00-14.88 l-47.296,0.00 l0.00-32.88 l 48.80,0.00 l0.00-14.88 l-63.92,0.00 l0.00,110.624 l 64.048,0.00 L 336.384,383.12 z M 431.264,288.368L 416.64,288.368 l0.00,84.96 l-48.192-84.96l-16.432,0.00 l0.00,110.624 l 15.632,0.00 l0.00-80.976 l 48.192,80.976l 15.44,0.00 L 431.28,288.368 z M 221.168,350.88L 207.52,350.88 l0.00-47.632 l 13.408,0.00 c 5.488,0.00, 9.248,0.272, 11.296,0.816c 3.152,0.88, 5.712,2.656, 7.648,5.376 c 1.936,2.72, 2.912,6.00, 2.912,9.808c0.00,5.28-1.648,24.352-4.944,27.264C 234.544,349.424, 228.992,350.88, 221.168,350.88z M 128.00,386.00 c-17.664,0.00-32.00-17.904-32.00-40.00s 14.336-40.00, 32.00-40.00s 32.00,17.904, 32.00,40.00S 145.664,386.00, 128.00,386.00z M 400.00,176.00l-117.152-87.20C 277.344,93.232, 270.448,96.00, 262.848,96.00 c-10.592,0.00-19.904-5.20-25.712-13.136L 112.00,176.00L 96.00,176.00 l 135.888-104.288C 231.28,69.232, 230.848,66.672, 230.848,64.00c0.00-17.664, 14.336-32.00, 32.00-32.00c 17.68,0.00, 32.00,14.336, 32.00,32.00 c0.00,5.744-1.648,11.072-4.304,15.744L 416.00,176.00L 400.00,176.00 z" ></path></svg>