<?xml version="1.0" encoding="utf-8"?> <!-- Generator: IcoMoon.io --> <!DOCTYPE svg PUBLIC "-//W3C//DTD SVG 1.1//EN" "http://www.w3.org/Graphics/SVG/1.1/DTD/svg11.dtd"> <svg width="512" height="512" viewBox="0 0 512 512" xmlns="http://www.w3.org/2000/svg" xmlns:xlink="http://www.w3.org/1999/xlink" fill="#333333"><path d="M 443.728,314.16l-21.056,78.624l-0.592,0.16l-23.008,85.872l-148.736-39.84l-1.776,0.464 l-156.608-41.952l-0.272-1.024L 50.00,385.28l 7.888-29.456l 0.512,0.144L 135.664,67.616L 135.152,67.472l 8.144-30.352l 273.68,73.344l 0.256-0.896 l 75.376,20.192L 443.456,313.12L 443.728,314.16z M 454.112,151.968L 165.744,74.704l-56.928,212.48l 288.336,77.248L 454.112,151.968z M 195.744,214.272 l 19.104,32.72l 49.712-46.80l 25.328,44.256l 66.96-59.024l 16.752,136.944L 152.448,263.072L 195.744,214.272z M 210.032,182.08 c-12.56-3.376-20.032-16.304-16.656-28.864c 3.36-12.576, 16.288-20.048, 28.864-16.672c 12.56,3.376, 20.032,16.304, 16.656,28.864 C 235.536,177.984, 222.608,185.456, 210.032,182.08z M 346.24,71.664l-6.624,1.776l-60.72-16.272l 89.568-24.00l 13.856,51.696l-35.04-9.392L 346.24,71.664 z M 57.872,148.944l 19.872,74.16l-16.272,60.704L 19.392,126.72L 110.08,102.416l-9.392,35.04L 57.872,148.944z M 112.928,475.776L 96.64,415.008l 121.552,32.576 L 112.928,475.776z" ></path></svg>