<?xml version="1.0" encoding="utf-8"?> <!-- Generator: IcoMoon.io --> <!DOCTYPE svg PUBLIC "-//W3C//DTD SVG 1.1//EN" "http://www.w3.org/Graphics/SVG/1.1/DTD/svg11.dtd"> <svg width="512" height="512" viewBox="0 0 512 512" xmlns="http://www.w3.org/2000/svg" xmlns:xlink="http://www.w3.org/1999/xlink" fill="#333333"><path d="M 394.448,179.072c0.00,0.00, 7.664-103.104-86.816-114.88c-80.992-8.272-105.632,66.992-105.632,66.992s-24.368-23.456-57.472-4.304 c-29.616,18.288-24.368,51.744-24.368,51.744S 54.40,191.424, 54.40,258.464c 1.472,66.976, 71.424,67.648, 71.424,67.648l 257.312,0.00 c0.00,0.00, 65.088,0.064, 74.256-63.632C 461.728,192.816, 394.448,179.072, 394.448,179.072z M 156.096,367.152c-2.864-5.664-5.424-13.296-7.664-22.864 c-2.208,9.568-4.752,17.184-7.616,22.864c-6.016,11.952-15.632,21.248-15.632,21.248c-7.664,8.528-11.488,17.072-11.488,25.616 c0.00,9.44, 3.424,17.52, 10.256,24.288c 6.832,6.752, 14.992,10.128, 24.464,10.128c 9.536,0.00, 17.696-3.376, 24.528-10.128 c 6.848-6.768, 10.256-14.848, 10.256-24.288c0.00-8.528-3.824-17.072-11.472-25.616C 171.728,388.40, 162.128,379.104, 156.096,367.152z M 268.096,367.152 c-2.864-5.664-5.424-13.296-7.664-22.864c-2.224,9.568-4.752,17.184-7.616,22.864c-6.016,11.952-15.648,21.248-15.648,21.248 c-7.648,8.528-11.472,17.072-11.472,25.616c0.00,9.44, 3.408,17.52, 10.256,24.288c 6.816,6.752, 14.976,10.128, 24.464,10.128 c 9.536,0.00, 17.696-3.376, 24.528-10.128c 6.848-6.768, 10.256-14.848, 10.256-24.288c0.00-8.528-3.824-17.072-11.488-25.616 C 283.712,388.40, 274.112,379.104, 268.096,367.152z M 380.096,367.152c-2.864-5.664-5.424-13.296-7.664-22.864 c-2.224,9.568-4.752,17.184-7.616,22.864c-6.032,11.952-15.648,21.248-15.648,21.248c-7.648,8.528-11.472,17.072-11.472,25.616 c0.00,9.44, 3.408,17.52, 10.256,24.288c 6.816,6.752, 14.976,10.128, 24.464,10.128c 9.536,0.00, 17.696-3.376, 24.528-10.128 c 6.848-6.768, 10.256-14.848, 10.256-24.288c0.00-8.528-3.824-17.072-11.472-25.616C 395.728,388.40, 386.112,379.104, 380.096,367.152z" ></path></svg>