<?xml version="1.0" encoding="utf-8"?> <!-- Generator: IcoMoon.io --> <!DOCTYPE svg PUBLIC "-//W3C//DTD SVG 1.1//EN" "http://www.w3.org/Graphics/SVG/1.1/DTD/svg11.dtd"> <svg width="512" height="512" viewBox="0 0 512 512" xmlns="http://www.w3.org/2000/svg" xmlns:xlink="http://www.w3.org/1999/xlink" fill="#333333"><path d="M 400.00,96.00c-5.312,0.00-10.562,0.375-15.792,1.125 C 354.334,56.417, 307.188,32.00, 256.00,32.00s-98.312,24.417-128.208,65.125C 122.562,96.375, 117.312,96.00, 112.00,96.00C 50.25,96.00,0.00,146.25,0.00,208.00 c0.00,61.75, 50.25,112.00, 112.00,112.00c 13.688,0.00, 27.084-2.50, 39.709-7.333C 180.666,337.917, 217.50,352.00, 256.00,352.00 c 38.542,0.00, 75.333-14.083, 104.291-39.333C 372.916,317.50, 386.312,320.00, 400.00,320.00c 61.75,0.00, 112.00-50.25, 112.00-112.00 C 512.00,146.25, 461.75,96.00, 400.00,96.00z M 400.00,288.00c-17.125,0.00-32.916-5.50-45.938-14.667C 330.584,301.625, 295.624,320.00, 256.00,320.00 c-39.625,0.00-74.584-18.375-98.062-46.667C 144.938,282.50, 129.125,288.00, 112.00,288.00c-44.188,0.00-80.00-35.812-80.00-80.00s 35.812-80.00, 80.00-80.00 c 10.812,0.00, 21.062,2.208, 30.438,6.083C 163.667,92.667, 206.291,64.00, 256.00,64.00s 92.334,28.667, 113.541,70.083 C 378.938,130.208, 389.209,128.00, 400.00,128.00c 44.188,0.00, 80.00,35.812, 80.00,80.00S 444.188,288.00, 400.00,288.00z M 224.00,448.00c0.00,17.688, 14.312,32.00, 32.00,32.00 s 32.00-14.312, 32.00-32.00s-32.00-64.00-32.00-64.00S 224.00,430.312, 224.00,448.00z" ></path></svg>