<?xml version="1.0" encoding="utf-8"?> <!-- Generator: IcoMoon.io --> <!DOCTYPE svg PUBLIC "-//W3C//DTD SVG 1.1//EN" "http://www.w3.org/Graphics/SVG/1.1/DTD/svg11.dtd"> <svg width="512" height="512" viewBox="0 0 512 512" xmlns="http://www.w3.org/2000/svg" xmlns:xlink="http://www.w3.org/1999/xlink" fill="#333333"><path d="M 326.042,443.688l-18.00-10.376 c 0.542-3.124, 0.958-6.311, 0.958-9.624c0.00-3.312-0.416-6.50-1.00-9.625l 18.042-10.396c 8.417-4.917, 11.291-15.729, 6.458-24.104 c-4.876-8.479-15.667-11.375-24.125-6.50l-18.188,10.50c-4.876-4.146-10.375-7.396-16.50-9.604l0.00-20.896 c0.00-9.771-7.938-17.688-17.688-17.688s-17.666,7.917-17.666,17.688l0.00,20.875 c-6.126,2.188-11.646,5.479-16.521,9.625l-18.146-10.50 c-8.479-4.875-19.292-2.00-24.167,6.479c-4.875,8.417-1.938,19.25, 6.50,24.126l 17.959,10.375c-0.584,3.146-0.959,6.334-0.959,9.646 c0.00,3.313, 0.375,6.50, 0.959,9.624L 186.00,443.688c-8.459,4.875-11.375,15.75-6.50,24.188s 15.688,11.312, 24.125,6.438l 18.167-10.438 c 4.874,4.125, 10.396,7.375, 16.542,9.562l0.00,20.938 c0.00,9.749, 7.916,17.624, 17.666,17.624s 17.688-7.875, 17.688-17.624l0.00-20.938 c 6.125-2.188, 11.688-5.438, 16.521-9.625l 18.167,10.50c 8.458,4.875, 19.249,2.00, 24.125-6.438 C 337.375,459.438, 334.50,448.625, 326.042,443.688z M 256.00,441.375c-9.75,0.00-17.688-7.938-17.688-17.688s 7.938-17.646, 17.688-17.646 s 17.667,7.896, 17.667,17.646S 265.75,441.375, 256.00,441.375z M 474.166,396.25l-12.083-3.208c-0.291-3.833-1.208-7.479-2.896-10.979 l 8.771-8.771c 4.125-4.125, 4.104-10.792,0.00-14.854c-4.083-4.104-10.708-4.125-14.833,0.00l-8.791,8.75 c-3.459-1.625-7.146-2.562-10.959-2.875l-3.209-12.062c-1.499-5.583-7.25-8.938-12.874-7.438 c-5.604,1.521-8.875,7.271-7.417,12.875l 3.209,11.896c-1.584,1.084-3.084,2.292-4.50,3.667c-1.375,1.417-2.542,2.916-3.626,4.459 l-11.896-3.209c-5.604-1.499-11.396,1.876-12.896,7.438c-1.499,5.625, 1.876,11.354, 7.417,12.875l 12.00,3.229 c 0.334,3.771, 1.292,7.458, 2.979,10.959l-8.812,8.812c-4.083,4.104-4.062,10.729, 0.042,14.812 c 4.083,4.083, 10.708,4.125, 14.792,0.042l 8.832-8.833c 3.459,1.707, 7.168,2.666, 11.001,2.957l 3.166,12.021 c 1.542,5.604, 7.25,8.938, 12.876,7.438c 5.583-1.50, 8.957-7.249, 7.458-12.917l-3.209-11.896c 1.50-1.062, 3.042-2.25, 4.459-3.625 c 1.375-1.396, 2.542-2.938, 3.624-4.479l 11.917,3.209c 5.604,1.50, 11.375-1.854, 12.854-7.417 C 483.062,403.541, 479.75,397.792, 474.166,396.25z M 438.312,402.938c-4.125,4.125-10.771,4.104-14.875,0.00 c-4.062-4.062-4.104-10.729,0.00-14.854c 4.104-4.083, 10.771-4.083, 14.875,0.00C 442.375,392.188, 442.375,398.875, 438.312,402.938z M 118.938,342.50l-11.875,3.188c-1.104-1.50-2.25-3.021-3.646-4.438c-1.416-1.375-2.916-2.562-4.479-3.625l 3.188-11.938 c 1.50-5.604-1.834-11.375-7.375-12.854c-5.625-1.50-11.375,1.834-12.875,7.417l-3.25,12.062c-3.812,0.312-7.458,1.25-10.938,2.896 l-8.812-8.771c-4.125-4.125-10.75-4.104-14.834,0.00c-4.104,4.104-4.104,10.75,0.00,14.854l 8.771,8.771 c-1.646,3.50-2.604,7.188-2.896,10.979l-12.042,3.208c-5.625,1.542-8.959,7.25-7.458,12.875c 1.521,5.583, 7.271,8.875, 12.896,7.417 l 11.875-3.23c 1.062,1.604, 2.25,3.105, 3.688,4.501c 1.375,1.375, 2.875,2.604, 4.438,3.625l-3.188,11.896 c-1.50,5.625, 1.834,11.417, 7.416,12.917c 5.626,1.50, 11.334-1.833, 12.834-7.438l 3.25-12.00c 3.812-0.312, 7.50-1.271, 11.00-2.938l 8.791,8.792 c 4.084,4.124, 10.709,4.041, 14.834-0.042c 4.062-4.062, 4.125-10.708,0.00-14.812l-8.812-8.812c 1.688-3.46, 2.688-7.188, 2.938-11.001 l 12.062-3.188c 5.562-1.521, 8.896-7.25, 7.396-12.875C 130.334,344.376, 124.584,341.042, 118.938,342.50z M 88.562,370.958 c-4.104,4.104-10.75,4.104-14.875,0.00c-4.062-4.083-4.062-10.771,0.00-14.833c 4.125-4.083, 10.771-4.083, 14.875,0.00 S 92.625,366.875, 88.562,370.958z M 512.00,176.00c0.00-61.75-50.25-112.00-112.00-112.00c-5.312,0.00-10.562,0.375-15.792,1.125 C 354.334,24.417, 307.188,0.00, 256.00,0.00s-98.312,24.417-128.208,65.125C 122.562,64.375, 117.312,64.00, 112.00,64.00C 50.25,64.00,0.00,114.25,0.00,176.00 s 50.25,112.00, 112.00,112.00c 13.688,0.00, 27.084-2.50, 39.709-7.333C 180.666,305.917, 217.50,320.00, 256.00,320.00c 38.542,0.00, 75.333-14.083, 104.291-39.333 C 372.916,285.50, 386.312,288.00, 400.00,288.00C 461.75,288.00, 512.00,237.75, 512.00,176.00z" ></path></svg>