<?xml version="1.0" encoding="utf-8"?> <!-- Generator: IcoMoon.io --> <!DOCTYPE svg PUBLIC "-//W3C//DTD SVG 1.1//EN" "http://www.w3.org/Graphics/SVG/1.1/DTD/svg11.dtd"> <svg width="512" height="512" viewBox="0 0 512 512" xmlns="http://www.w3.org/2000/svg" xmlns:xlink="http://www.w3.org/1999/xlink" fill="#333333"><path d="M 256.00,144.00c-61.75,0.00-112.00,50.25-112.00,112.00c0.00,61.75, 50.25,112.00, 112.00,112.00 s 112.00-50.25, 112.00-112.00C 368.00,194.25, 317.75,144.00, 256.00,144.00z M 256.00,336.00c-44.188,0.00-80.00-35.812-80.00-80.00s 35.812-80.00, 80.00-80.00s 80.00,35.812, 80.00,80.00 S 300.188,336.00, 256.00,336.00z M 256.00,112.00c 8.833,0.00, 16.00-7.167, 16.00-16.00L 272.00,64.00 c0.00-8.833-7.167-16.00-16.00-16.00s-16.00,7.167-16.00,16.00l0.00,32.00 C 240.00,104.833, 247.167,112.00, 256.00,112.00z M 256.00,400.00c-8.833,0.00-16.00,7.167-16.00,16.00l0.00,32.00 c0.00,8.833, 7.167,16.00, 16.00,16.00s 16.00-7.167, 16.00-16.00l0.00-32.00 C 272.00,407.167, 264.833,400.00, 256.00,400.00z M 380.438,154.167l 22.625-22.625c 6.25-6.25, 6.25-16.375,0.00-22.625 c-6.25-6.25-16.375-6.25-22.625,0.00l-22.625,22.625c-6.25,6.25-6.25,16.375,0.00,22.625 C 364.062,160.417, 374.188,160.417, 380.438,154.167z M 131.562,357.834l-22.625,22.625c-6.25,6.249-6.25,16.374,0.00,22.624 s 16.375,6.25, 22.625,0.00l 22.625-22.624c 6.25-6.271, 6.25-16.376,0.00-22.625C 147.938,351.583, 137.812,351.562, 131.562,357.834z M 112.00,256.00 c0.00-8.833-7.167-16.00-16.00-16.00L 64.00,240.00 c-8.833,0.00-16.00,7.167-16.00,16.00s 7.167,16.00, 16.00,16.00l 32.00,0.00 C 104.833,272.00, 112.00,264.833, 112.00,256.00z M 448.00,240.00l-32.00,0.00 c-8.833,0.00-16.00,7.167-16.00,16.00s 7.167,16.00, 16.00,16.00l 32.00,0.00 c 8.833,0.00, 16.00-7.167, 16.00-16.00S 456.833,240.00, 448.00,240.00z M 131.541,154.167 c 6.251,6.25, 16.376,6.25, 22.625,0.00c 6.251-6.25, 6.251-16.375,0.00-22.625l-22.625-22.625c-6.25-6.25-16.374-6.25-22.625,0.00 c-6.25,6.25-6.25,16.375,0.00,22.625L 131.541,154.167z M 380.459,357.812c-6.271-6.25-16.376-6.25-22.625,0.00 c-6.251,6.25-6.271,16.375,0.00,22.625l 22.625,22.625c 6.249,6.25, 16.374,6.25, 22.624,0.00s 6.25-16.374,0.00-22.625L 380.459,357.812z" ></path></svg>