<?xml version="1.0" encoding="utf-8"?> <!-- Generator: IcoMoon.io --> <!DOCTYPE svg PUBLIC "-//W3C//DTD SVG 1.1//EN" "http://www.w3.org/Graphics/SVG/1.1/DTD/svg11.dtd"> <svg width="512" height="512" viewBox="0 0 512 512" xmlns="http://www.w3.org/2000/svg" xmlns:xlink="http://www.w3.org/1999/xlink" fill="#333333"><path d="M 400.00,64.00c-5.312,0.00-10.562,0.375-15.792,1.125C 354.334,24.417, 307.188,0.00, 256.00,0.00 s-98.312,24.417-128.208,65.125C 122.562,64.375, 117.312,64.00, 112.00,64.00C 50.25,64.00,0.00,114.25,0.00,176.00s 50.25,112.00, 112.00,112.00 c 13.688,0.00, 27.084-2.50, 39.709-7.333C 180.666,305.917, 217.50,320.00, 256.00,320.00c 38.542,0.00, 75.333-14.083, 104.291-39.333 C 372.916,285.50, 386.312,288.00, 400.00,288.00c 61.75,0.00, 112.00-50.25, 112.00-112.00S 461.75,64.00, 400.00,64.00z M 400.00,256.00c-9.709,0.00-19.209-1.75-28.25-5.208 l-18.00-6.917l-14.50,12.667C 316.00,276.833, 286.438,288.00, 256.00,288.00s-60.00-11.167-83.25-31.458l-14.50-12.667l-18.00,6.917 c-9.00,3.458-18.541,5.208-28.25,5.208c-44.125,0.00-80.00-35.896-80.00-80.00s 35.875-80.00, 80.00-80.00c 3.792,0.00, 7.50,0.271, 11.25,0.792l 18.958,2.75 l 11.354-15.458C 177.875,50.979, 215.209,32.00, 256.00,32.00c 40.812,0.00, 78.125,18.958, 102.417,52.063l 11.375,15.479l 18.999-2.75 C 392.50,96.271, 396.208,96.00, 400.00,96.00c 44.125,0.00, 80.00,35.896, 80.00,80.00S 444.125,256.00, 400.00,256.00z M 96.00,320.00c-17.688,0.00-32.00,14.312-32.00,32.00 s 14.312,32.00, 32.00,32.00s 32.00-14.312, 32.00-32.00S 113.688,320.00, 96.00,320.00z M 256.00,352.00c-17.688,0.00-32.00,14.312-32.00,32.00s 14.312,32.00, 32.00,32.00s 32.00-14.312, 32.00-32.00 S 273.688,352.00, 256.00,352.00z M 416.00,320.00c-17.688,0.00-32.00,14.312-32.00,32.00s 14.312,32.00, 32.00,32.00s 32.00-14.312, 32.00-32.00S 433.688,320.00, 416.00,320.00z M 352.00,448.00 c-17.688,0.00-32.00,14.312-32.00,32.00s 14.312,32.00, 32.00,32.00s 32.00-14.312, 32.00-32.00S 369.688,448.00, 352.00,448.00z M 160.00,448.00c-17.688,0.00-32.00,14.312-32.00,32.00 s 14.312,32.00, 32.00,32.00s 32.00-14.312, 32.00-32.00S 177.688,448.00, 160.00,448.00z" ></path></svg>