<?xml version="1.0" encoding="utf-8"?> <!-- Generator: IcoMoon.io --> <!DOCTYPE svg PUBLIC "-//W3C//DTD SVG 1.1//EN" "http://www.w3.org/Graphics/SVG/1.1/DTD/svg11.dtd"> <svg width="512" height="512" viewBox="0 0 512 512" xmlns="http://www.w3.org/2000/svg" xmlns:xlink="http://www.w3.org/1999/xlink" fill="#333333"><path d="M 256.00,95.00c 8.833,0.00, 16.00-7.167, 16.00-16.00L 272.00,47.00 c0.00-8.833-7.167-16.00-16.00-16.00s-16.00,7.167-16.00,16.00l0.00,32.00 C 240.00,87.833, 247.167,95.00, 256.00,95.00z M 380.438,137.167l 22.625-22.625c 6.249-6.25, 6.249-16.375,0.00-22.625 c-6.25-6.25-16.375-6.25-22.625,0.00l-22.625,22.625c-6.25,6.25-6.25,16.375,0.00,22.625S 374.188,143.417, 380.438,137.167z M 64.00,255.00l 32.00,0.00 c 8.833,0.00, 16.00-7.167, 16.00-16.00s-7.167-16.00-16.00-16.00L 64.00,223.00 c-8.833,0.00-16.00,7.167-16.00,16.00S 55.167,255.00, 64.00,255.00z M 400.00,239.00c0.00,8.833, 7.167,16.00, 16.00,16.00l 32.00,0.00 c 8.833,0.00, 16.00-7.167, 16.00-16.00s-7.167-16.00-16.00-16.00l-32.00,0.00 C 407.167,223.00, 400.00,230.167, 400.00,239.00z M 131.541,137.167c 6.251,6.25, 16.376,6.25, 22.625,0.00 c 6.251-6.25, 6.251-16.375,0.00-22.625l-22.625-22.625c-6.25-6.25-16.374-6.25-22.625,0.00c-6.25,6.25-6.25,16.375,0.00,22.625 L 131.541,137.167z M 145.625,255.00l 32.00,0.00 c-1.062-5.167-1.625-10.521-1.625-16.00c0.00-44.188, 35.812-80.00, 80.00-80.00c 44.188,0.00, 80.00,35.812, 80.00,80.00 c0.00,5.479-0.562,10.833-1.625,16.00l 32.00,0.00 c 0.792-5.271, 1.625-10.521, 1.625-16.00c0.00-61.75-50.25-112.00-112.00-112.00s-112.00,50.25-112.00,112.00 C 144.00,244.479, 144.875,249.729, 145.625,255.00z M 448.00,287.00L 64.00,287.00 c-8.833,0.00-16.00,7.167-16.00,16.00s 7.167,16.00, 16.00,16.00l 384.00,0.00 c 8.833,0.00, 16.00-7.167, 16.00-16.00 S 456.833,287.00, 448.00,287.00z M 448.00,351.00L 64.00,351.00 c-8.833,0.00-16.00,7.167-16.00,16.00s 7.167,16.00, 16.00,16.00l 384.00,0.00 c 8.833,0.00, 16.00-7.167, 16.00-16.00S 456.833,351.00, 448.00,351.00z M 448.00,415.00L 64.00,415.00 c-8.833,0.00-16.00,7.167-16.00,16.00s 7.167,16.00, 16.00,16.00l 384.00,0.00 c 8.833,0.00, 16.00-7.167, 16.00-16.00S 456.833,415.00, 448.00,415.00z" ></path></svg>