<?xml version="1.0" encoding="utf-8"?> <!-- Generator: IcoMoon.io --> <!DOCTYPE svg PUBLIC "-//W3C//DTD SVG 1.1//EN" "http://www.w3.org/Graphics/SVG/1.1/DTD/svg11.dtd"> <svg width="512" height="512" viewBox="0 0 512 512" xmlns="http://www.w3.org/2000/svg" xmlns:xlink="http://www.w3.org/1999/xlink" fill="#333333"><path d="M 448.00,64.00L 64.00,64.00 C 46.32,64.00, 32.00,78.336, 32.00,96.00l0.00,320.00 c0.00,17.664, 14.32,32.00, 32.00,32.00l 384.00,0.00 c 17.664,0.00, 32.00-14.336, 32.00-32.00L 480.00,96.00 C 480.00,78.336, 465.664,64.00, 448.00,64.00z M 184.992,88.00c 8.832,0.00, 15.984,7.168, 15.984,16.00s-7.152,16.00-15.984,16.00c-8.848,0.00-16.00-7.168-16.00-16.00S 176.16,88.00, 184.992,88.00z M 136.00,88.00c 8.832,0.00, 16.00,7.168, 16.00,16.00s-7.168,16.00-16.00,16.00c-8.848,0.00-16.00-7.168-16.00-16.00S 127.152,88.00, 136.00,88.00z M 87.984,88.00c 8.848,0.00, 16.00,7.168, 16.00,16.00 s-7.152,16.00-16.00,16.00C 79.152,120.00, 72.00,112.832, 72.00,104.00S 79.152,88.00, 87.984,88.00z M 448.00,416.00L 64.00,416.00 L 64.00,144.336 l 384.00,0.00 L 448.00,416.00 z M 448.00,112.336L 224.00,112.336 l0.00-16.00 l 224.00,0.00 L 448.00,112.336 z" ></path></svg>