<?xml version="1.0" encoding="utf-8"?> <!-- Generator: IcoMoon.io --> <!DOCTYPE svg PUBLIC "-//W3C//DTD SVG 1.1//EN" "http://www.w3.org/Graphics/SVG/1.1/DTD/svg11.dtd"> <svg width="512" height="512" viewBox="0 0 512 512" xmlns="http://www.w3.org/2000/svg" xmlns:xlink="http://www.w3.org/1999/xlink" fill="#333333"><path d="M 495.00,223.00l-81.625,0.00 C 405.312,151.208, 344.938,95.00, 271.00,95.00c-49.812,0.00-93.75,25.458-119.625,64.00L 47.00,159.00 c-8.833,0.00-16.00,7.167-16.00,16.00s 7.167,16.00, 16.00,16.00l 88.833,0.00 c-3.624,10.208-5.979,20.896-7.208,32.00L 79.00,223.00 c-8.833,0.00-16.00,7.167-16.00,16.00s 7.167,16.00, 16.00,16.00 l 49.625,0.00 c 1.229,11.084, 3.584,21.812, 7.208,32.00L 49.916,287.00 C 39.459,287.00, 31.00,294.167, 31.00,303.00s 8.459,16.00, 18.916,16.00l 101.459,0.00 c 25.875,38.562, 69.812,64.00, 119.625,64.00c 49.812,0.00, 93.75-25.438, 119.624-64.00l 37.46,0.00 c 10.457,0.00, 18.916-7.167, 18.916-16.00s-8.459-16.00-18.916-16.00 l-21.917,0.00 c 3.624-10.188, 5.958-20.916, 7.208-32.00L 495.00,255.00 c 8.833,0.00, 16.00-7.167, 16.00-16.00S 503.833,223.00, 495.00,223.00z M 170.229,191.00L 271.00,191.00 c 8.833,0.00, 16.00-7.167, 16.00-16.00s-7.167-16.00-16.00-16.00l-78.146,0.00 c 20.209-19.729, 47.729-32.00, 78.146-32.00c 56.291,0.00, 102.542,41.875, 110.375,96.00l-220.75,0.00 C 162.25,211.688, 165.459,200.958, 170.229,191.00z M 271.00,351.00c-30.417,0.00-57.938-12.291-78.146-32.00l 156.271,0.00 C 328.938,338.709, 301.417,351.00, 271.00,351.00z M 371.75,287.00L 170.229,287.00 c-4.77-9.958-7.979-20.688-9.604-32.00l 220.75,0.00 C 379.75,266.312, 376.541,277.042, 371.75,287.00z" ></path></svg>