<?xml version="1.0" encoding="utf-8"?> <!-- Generator: IcoMoon.io --> <!DOCTYPE svg PUBLIC "-//W3C//DTD SVG 1.1//EN" "http://www.w3.org/Graphics/SVG/1.1/DTD/svg11.dtd"> <svg version="1.1" xmlns="http://www.w3.org/2000/svg" xmlns:xlink="http://www.w3.org/1999/xlink" x="0px" y="0px" width="512px" height="512px" viewBox="0 0 512 512" enable-background="new 0 0 512 512" xml:space="preserve" fill="#333333"> <path d="M406.795,288.699c0,0-150.181-200.667-167.999-223.151C230.815,55.477,218.572,50,203.566,50 c-18.495,0-41.19,8.311-65.313,26.578c-43.697,33.091-55.152,68.727-37.758,93.333c17.394,24.605,169.059,224.635,169.059,224.635 L429.28,462L406.795,288.699z M373.723,291.244c-8.167,6.262-19.282,9.627-31.722,9.37c-19.202-0.384-37.061-9.212-47.773-23.615 c0,0-68.544-91.57-86.417-115.446c22.586-15.522,44.649-19.854,52.812-20.98C299.125,191.673,351.506,261.579,373.723,291.244z M246.924,122.409c-13.336,3.071-33.354,9.789-53.55,24.405c-20.146,14.579-32.598,33.948-39.599,47.948 c-5.425-7.236-10.367-13.843-14.66-19.604c4.867-11.375,16.086-32.71,36.5-47.482c26.535-19.203,53.045-22.577,57.857-23.045 C237.468,109.898,242,115.89,246.924,122.409z M122.624,136.409c4.455-11.676,16.008-24.997,32.532-37.509 c17.54-13.283,35.185-20.9,48.41-20.9c6.219,0,10.689,1.661,13.286,4.938c0.673,0.85,1.557,1.982,2.607,3.34 c-13.267,2.82-34.427,9.446-55.782,24.901c-18.947,13.712-31.086,31.659-38.29,45.395c-0.801-1.104-1.489-2.062-2.028-2.825 C122.053,151.901,118.585,146.995,122.624,136.409z M167.747,213.368c3.66-9.166,12.858-28.557,30.038-43.972 c15.447,20.63,67.472,90.116,86.398,115.472c9.793,13.118,13.633,30.794,10.538,48.497c-2.126,12.165-7.493,22.905-14.357,29.086 C257.658,332.479,205.973,264.208,167.747,213.368z M374.452,408.451l-85.889-36.271c9.184-8.109,16.028-21.378,18.694-36.625 c1.876-10.726,1.581-21.477-0.707-31.549c10.535,5.77,22.633,9.081,35.196,9.333c0.515,0.01,1.025,0.015,1.537,0.015 c14.185,0,27.071-3.956,37.028-11.152l12.146,93.604C383.894,396.664,377.805,400.766,374.452,408.451z" ></path></svg>