<?xml version="1.0" encoding="utf-8"?> <!-- Generator: IcoMoon.io --> <!DOCTYPE svg PUBLIC "-//W3C//DTD SVG 1.1//EN" "http://www.w3.org/Graphics/SVG/1.1/DTD/svg11.dtd"> <svg width="500.00000000000006" height="500" viewBox="0 0 500 500" xmlns="http://www.w3.org/2000/svg" xmlns:xlink="http://www.w3.org/1999/xlink" fill="#333333"><path d="M 480.00,250.00c0.00-127.025-102.975-230.00-230.00-230.00S 20.00,122.975, 20.00,250.00c0.00,127.05, 102.975,230.025, 230.00,230.025S 480.00,377.025, 480.00,250.00z M 70.00,250.00 c0.00-99.40, 80.60-180.00, 180.00-180.00s 180.00,80.60, 180.00,180.00c0.00,99.425-80.60,180.025-180.00,180.025S 70.00,349.425, 70.00,250.00z M 346.25,295.00L 346.25,205.00 L 244.00,205.00 L 244.00,148.75 L 148.75,250.00l 95.25,101.25L 244.00,295.00 L 346.25,295.00 z" ></path></svg>