<?xml version="1.0" encoding="utf-8"?> <!-- Generator: IcoMoon.io --> <!DOCTYPE svg PUBLIC "-//W3C//DTD SVG 1.1//EN" "http://www.w3.org/Graphics/SVG/1.1/DTD/svg11.dtd"> <svg width="512" height="512" viewBox="0 0 512 512" xmlns="http://www.w3.org/2000/svg" xmlns:xlink="http://www.w3.org/1999/xlink" fill="#333333"><path d="M 412.176,400.08l-43.584,0.00 l0.00,34.624 c0.00,24.736-22.048,44.768-46.784,44.768L 156.88,479.472 c-24.736,0.00-44.784-20.032-44.784-44.768l0.00-241.60 l 47.968,0.00 l0.00,238.48 l 31.808,0.00 l 0.032-238.48c 8.544,6.16, 21.344,10.736, 32.128,13.168l0.00,225.328 l 31.808,0.00 L 255.84,207.20 c 11.92-1.968, 22.848-6.448, 32.256-12.912l0.00,237.312 l 31.808,0.00 L 319.904,193.104 l 47.68,0.00 l 44.576,0.00 c 19.776,0.00, 35.824,16.032, 35.824,35.824l0.00,135.312 C 448.00,384.032, 431.952,400.08, 412.176,400.08z M 415.856,224.16l-47.28,0.00 l0.00,143.76 l 47.28,0.00 L 415.856,224.16 z M 339.552,178.272c-15.664,0.00-29.808-6.256-40.272-16.336 c-12.992,18.352-34.272,30.432-58.448,30.432c-23.312,0.00-43.808-11.312-56.912-28.544c-10.368,9.584-24.128,15.568-39.36,15.568 c-28.08,0.00-51.504-19.888-56.992-46.336C 79.024,127.456, 73.376,117.824, 73.376,106.864c0.00-17.312, 14.032-31.344, 31.344-31.344 c 1.28,0.00, 2.512,0.224, 3.744,0.368c 9.68-7.696, 21.744-12.56, 35.024-12.816c 5.968-17.696, 22.528-30.544, 42.256-30.544 c 15.184,0.00, 28.544,7.60, 36.656,19.152c 5.888-1.60, 12.016-2.592, 18.416-2.592c 6.688,0.00, 13.056,1.12, 19.184,2.864 c 8.08-11.712, 21.568-19.424, 36.864-19.424c 19.312,0.00, 35.616,12.288, 41.904,29.408c 0.272,0.00, 0.496-0.08, 0.768-0.08 c 32.16,0.00, 58.224,26.064, 58.224,58.208S 371.696,178.272, 339.552,178.272z" ></path></svg>