<?xml version="1.0" encoding="utf-8"?> <!-- Generator: IcoMoon.io --> <!DOCTYPE svg PUBLIC "-//W3C//DTD SVG 1.1//EN" "http://www.w3.org/Graphics/SVG/1.1/DTD/svg11.dtd"> <svg width="512" height="512" viewBox="0 0 512 512" xmlns="http://www.w3.org/2000/svg" xmlns:xlink="http://www.w3.org/1999/xlink" fill="#333333"><path d="M 448.272,448.256l-33.04,0.00 l-32.032-96.128L 111.824,352.128 l-32.048,96.128L 47.728,448.256 c-26.528,0.00-48.064-21.536-48.064-48.064L-0.336,111.808 c0.00-26.544, 21.536-48.048, 48.064-48.048l 400.528,0.00 c 26.544,0.00, 48.064,21.52, 48.064,48.048l0.00,288.384 C 496.336,426.72, 474.816,448.256, 448.272,448.256z M 447.264,111.808L 47.728,111.808 l0.00,208.272 l 399.536,0.00 L 447.264,111.808 z M 416.224,288.032L 79.776,288.032 L 79.776,143.856 l 336.432,0.00 L 416.208,288.032 z M 151.808,175.632c-22.128,0.00-40.048,17.936-40.048,40.048s 17.92,40.048, 40.048,40.048s 40.064-17.936, 40.064-40.048S 173.936,175.632, 151.808,175.632z M 271.024,199.936l-47.056,0.00 l0.00,32.032 l 47.056,0.00 L 271.024,199.936 z M 344.208,175.632c-22.128,0.00-40.048,17.936-40.048,40.048s 17.92,40.048, 40.048,40.048 c 22.112,0.00, 40.048-17.936, 40.048-40.048S 366.32,175.632, 344.208,175.632z M 343.12,231.968c-8.848,0.00-16.016-7.168-16.016-16.016 c0.00-8.848, 7.168-16.016, 16.016-16.016s 16.032,7.168, 16.032,16.016C 359.152,224.80, 351.968,231.968, 343.12,231.968z M 152.88,231.968 c-8.848,0.00-16.016-7.168-16.016-16.016c0.00-8.848, 7.168-16.016, 16.016-16.016c 8.864,0.00, 16.032,7.168, 16.032,16.016 C 168.912,224.80, 161.728,231.968, 152.88,231.968z M 372.16,368.144l 28.048,79.44L 94.80,447.584 l 27.024-79.44L 372.16,368.144 z M 352.144,416.208l 16.016,0.00 l0.00-16.016 l-16.016,0.00 L 352.144,416.208 z M 320.096,416.208l 16.032,0.00 l0.00-16.016 l-16.032,0.00 L 320.096,416.208 z M 207.952,416.208l 79.104,0.00 l0.00-16.016 l-79.104,0.00 L 207.952,416.208 z M 159.888,416.208l 16.016,0.00 l0.00-16.016 L 159.888,400.192 L 159.888,416.208 z M 127.84,416.208l 16.016,0.00 l0.00-16.016 L 127.84,400.192 L 127.84,416.208 z" ></path></svg>