<?xml version="1.0" encoding="utf-8"?> <!-- Generator: IcoMoon.io --> <!DOCTYPE svg PUBLIC "-//W3C//DTD SVG 1.1//EN" "http://www.w3.org/Graphics/SVG/1.1/DTD/svg11.dtd"> <svg width="500.00000000000006" height="500" viewBox="0 0 500 500" xmlns="http://www.w3.org/2000/svg" xmlns:xlink="http://www.w3.org/1999/xlink" fill="#333333"><path d="M 250.00,10.00c-132.55,0.00-240.00,107.45-240.00,240.00s 107.45,240.00, 240.00,240.00s 240.00-107.45, 240.00-240.00S 382.55,10.00, 250.00,10.00z M 64.575,186.50l 62.90,27.825L 122.875,214.325 l0.00,28.525 l 22.50,0.00 c0.00,4.025-0.40,8.025-0.40,12.05l0.00,6.825 L 122.875,261.725 l0.00,28.525 L 149.00,290.25 c 3.625,21.325, 11.65,38.575, 22.475,52.25 c 22.50,29.725, 58.675,45.80, 98.05,45.80c 25.70,0.00, 49.00-7.65, 62.675-15.275l-9.65-44.575c-8.45,4.425-27.325,10.425-45.80,10.425 c-20.10,0.00-38.975-6.00-51.825-20.475c-6.025-6.80-10.45-16.075-13.225-28.125l 87.325,0.00 l 122.65,54.30C 388.30,405.025, 323.95,446.00, 250.00,446.00 c-108.25,0.00-196.00-87.75-196.00-196.00C 54.00,227.75, 57.775,206.425, 64.575,186.50z M 308.925,242.85l 3.60,0.00 L 312.525,214.325 L 244.475,214.325 L 216.875,202.10 C 219.25,196.75, 222.05,191.975, 225.35,188.225C 237.80,172.95, 255.475,166.50, 274.75,166.50c 17.675,0.00, 34.125,5.225, 44.575,9.675l 11.25-45.825 c-14.475-6.425-35.775-12.025-60.25-12.025c-37.775,0.00-69.90,15.25-92.80,40.975c-5.10,5.875-9.50,12.475-13.50,19.425l-78.75-34.85 C 120.175,89.825, 180.875,54.00, 250.00,54.00c 108.25,0.00, 196.00,87.75, 196.00,196.00c0.00,17.50-2.325,34.45-6.625,50.575L 308.925,242.85z" ></path></svg>