<?xml version="1.0" encoding="utf-8"?> <!-- Generator: IcoMoon.io --> <!DOCTYPE svg PUBLIC "-//W3C//DTD SVG 1.1//EN" "http://www.w3.org/Graphics/SVG/1.1/DTD/svg11.dtd"> <svg width="416" height="448" viewBox="0 0 416 448" xmlns="http://www.w3.org/2000/svg" xmlns:xlink="http://www.w3.org/1999/xlink" fill="#333333"><path d="M 40.00,384.00l 152.00,0.00 l0.00-288.00 l-160.00,0.00 l0.00,280.00 q0.00,3.25 2.375,5.625t 5.625,2.375zM 384.00,376.00l0.00-280.00 l-160.00,0.00 l0.00,288.00 l 152.00,0.00 q 3.25,0.00 5.625-2.375t 2.375-5.625zM 416.00,72.00l0.00,304.00 q0.00,16.50 -11.75,28.25t-28.25,11.75l-336.00,0.00 q-16.50,0.00 -28.25-11.75t-11.75-28.25l0.00-304.00 q0.00-16.50 11.75-28.25t 28.25-11.75l 336.00,0.00 q 16.50,0.00 28.25,11.75t 11.75,28.25z" ></path></svg>