<?xml version="1.0" encoding="utf-8"?> <!-- Generator: IcoMoon.io --> <!DOCTYPE svg PUBLIC "-//W3C//DTD SVG 1.1//EN" "http://www.w3.org/Graphics/SVG/1.1/DTD/svg11.dtd"> <svg width="500.00000000000006" height="500" viewBox="0 0 500 500" xmlns="http://www.w3.org/2000/svg" xmlns:xlink="http://www.w3.org/1999/xlink" fill="#333333"><path d="M 304.10,446.475c-0.70,7.75, 5.425,14.60, 13.65,15.275l 99.625,8.175c 8.20,0.675, 15.525-5.075, 16.225-12.825l 7.80-82.15 l-129.525-10.675L 304.10,446.475z M 58.60,374.975l 7.775,82.15c 0.725,7.75, 8.05,13.50, 16.25,12.825l 99.625-8.175 c 8.20-0.675, 14.35-7.55, 13.625-15.275l-7.80-82.175L 58.60,374.975z M 45.775,239.575l 8.025,84.75l 129.525-10.65L 175.275,229.00 C 175.10,226.975, 175.00,224.85, 175.00,222.775C 175.00,183.875, 208.65,152.25, 250.00,152.25s 75.00,31.65, 75.00,70.525c0.00,2.075-0.10,4.175-0.30,6.225l-8.00,84.675l 129.50,10.65 l 8.025-84.75C 454.725,233.975, 455.00,228.35, 455.00,222.775C 455.00,116.475, 363.025,30.00, 250.00,30.00S 45.00,116.475, 45.00,222.775 C 45.00,228.35, 45.275,233.975, 45.775,239.575z" ></path></svg>