<?xml version="1.0" encoding="utf-8"?> <!-- Generator: IcoMoon.io --> <!DOCTYPE svg PUBLIC "-//W3C//DTD SVG 1.1//EN" "http://www.w3.org/Graphics/SVG/1.1/DTD/svg11.dtd"> <svg width="512" height="512" viewBox="0 0 512 512" xmlns="http://www.w3.org/2000/svg" xmlns:xlink="http://www.w3.org/1999/xlink" fill="#333333"><path d="M 262.40,414.976l0.00,47.888 c 47.872,2.576, 84.88,18.416, 84.88,33.20 c0.00,0.368-196.288,0.368-196.288,0.00c0.00-14.224, 34.272-29.584, 79.568-32.992l0.00-48.288 c-57.824-8.288-102.432-57.552-102.432-117.664l0.00-24.88 l 15.92,0.00 l0.00,24.88 c0.00,57.12, 46.304,103.44, 103.424,103.456l 0.064,0.00 c 57.12-0.016, 103.424-46.336, 103.424-103.456l0.00-24.88 l 16.928,0.00 l0.00,24.88 C 367.872,357.936, 321.216,407.568, 262.40,414.976z M 248.00,383.28c-48.56,0.00-87.904-39.344-87.904-87.904l0.00-39.632 l 71.92,0.00 l0.00-15.984 l-71.92,0.00 l0.00-15.984 l 71.92,0.00 l0.00-15.968 l-71.92,0.00 l0.00-15.984 l 71.92,0.00 L 232.016,175.84 l-71.92,0.00 L 160.096,159.856 l 71.92,0.00 L 232.016,143.872 l-71.92,0.00 L 160.096,118.56 c0.00-48.544, 39.344-86.912, 87.904-86.912 c 48.544,0.00, 87.904,38.352, 87.904,86.912l0.00,25.312 l-71.936,0.00 l0.00,15.984 l 71.936,0.00 l0.00,15.984 l-71.936,0.00 l0.00,15.984 l 71.936,0.00 l0.00,15.984 l-71.936,0.00 l0.00,15.968 l 71.936,0.00 l0.00,15.984 l-71.936,0.00 l0.00,15.984 l 71.936,0.00 l0.00,39.632 C 335.904,343.936, 296.544,383.28, 248.00,383.28z" ></path></svg>