<?xml version="1.0" encoding="utf-8"?> <!-- Generator: IcoMoon.io --> <!DOCTYPE svg PUBLIC "-//W3C//DTD SVG 1.1//EN" "http://www.w3.org/Graphics/SVG/1.1/DTD/svg11.dtd"> <svg width="720" height="512" viewBox="0 0 720 512" xmlns="http://www.w3.org/2000/svg" xmlns:xlink="http://www.w3.org/1999/xlink" fill="#333333"><path d="M 214.848,128.80c 27.44,0.00, 34.304,13.712, 52.576,11.424 c 18.288-2.288, 2.288-34.288-13.712-57.136s-52.56-11.424-80.00,4.576c-27.424,16.00-173.136,104.576-173.136,104.576L 128.00,192.24 C 128.00,192.224, 187.424,128.80, 214.848,128.80z M0.00,208.784l0.00,208.00 c0.00,17.664, 14.32,32.00, 32.00,32.00c0.00,0.00, 123.36,0.00, 257.328,0.00c 24.032,0.00, 46.00-74.672, 70.672-74.672 c 21.424,0.00, 37.536,74.672, 58.656,74.672c 142.288,0.00, 269.328,0.00, 269.328,0.00c 17.68,0.00, 32.016-14.336, 32.016-32.00l0.00-208.00 L0.00,208.784 z M 288.00,352.80c0.00,26.496-21.504,48.00-48.00,48.00L 96.00,400.80 c-26.512,0.00-48.00-21.504-48.00-48.00l0.00-48.00 c0.00-26.512, 21.488-48.00, 48.00-48.00l 144.00,0.00 c 26.496,0.00, 48.00,21.488, 48.00,48.00L 288.00,352.80 z M 672.00,352.80c0.00,26.496-21.504,48.00-48.00,48.00l-144.00,0.00 c-26.512,0.00-48.00-21.504-48.00-48.00l0.00-48.00 c0.00-26.512, 21.488-48.00, 48.00-48.00l 144.00,0.00 c 26.496,0.00, 48.00,21.488, 48.00,48.00L 672.00,352.80 z M 452.56,140.224c 18.288,2.288, 25.136-11.424, 52.576-11.424 c 27.424,0.00, 86.864,63.424, 86.864,63.424l 127.424,0.00 c0.00,0.00-145.712-88.576-173.136-104.576c-27.44-16.00-64.00-27.424-80.00-4.576S 434.288,137.936, 452.56,140.224z" ></path></svg>