<?xml version="1.0" encoding="utf-8"?> <!-- Generator: IcoMoon.io --> <!DOCTYPE svg PUBLIC "-//W3C//DTD SVG 1.1//EN" "http://www.w3.org/Graphics/SVG/1.1/DTD/svg11.dtd"> <svg width="416" height="448" viewBox="0 0 416 448" xmlns="http://www.w3.org/2000/svg" xmlns:xlink="http://www.w3.org/1999/xlink" fill="#333333"><path d="M 224.00,207.00l0.00,145.00 q0.00,26.00 -19.00,45.00t-45.00,19.00t-45.00-19.00t-19.00-45.00q0.00-6.50 4.75-11.25t 11.25-4.75t 11.25,4.75t 4.75,11.25q0.00,12.50 9.75,22.25t 22.25,9.75t 22.25-9.75t 9.75-22.25l0.00-145.00 q 8.25-2.75 16.00-2.75t 16.00,2.75zM 416.00,213.75q0.00,3.25 -2.375,5.625t-5.625,2.375q-2.75,0.00 -5.75-2.50q-12.25-11.50 -23.25-17.25t-25.50-5.75q-17.00,0.00 -32.00,9.25t-25.75,24.25 q-1.75,2.50 -4.375,7.00t-3.625,6.00q-2.75,4.25 -7.00,4.25q-4.50,0.00 -7.25-4.25q-1.00-1.50 -3.625-6.00t-4.375-7.00q-10.75-15.00 -25.625-24.25t-31.875-9.25t-31.875,9.25t-25.625,24.25q-1.75,2.50 -4.375,7.00t-3.625,6.00q-2.75,4.25 -7.25,4.25q-4.25,0.00 -7.00-4.25q-1.00-1.50 -3.625-6.00t-4.375-7.00q-10.75-15.00 -25.75-24.25t-32.00-9.25q-14.50,0.00 -25.50,5.75t-23.25,17.25 q-3.00,2.50 -5.75,2.50q-3.25,0.00 -5.625-2.375t-2.375-5.625q0.00-1.25 0.25-1.75q 11.25-45.75 43.125-79.875t 74.50-51.125t 90.125-17.00q 35.00,0.00 68.625,10.00t 61.625,28.375t 48.625,46.75t 28.875,62.875q 0.25,0.50 0.25,1.75zM 224.00,32.00l0.00,24.50 q-10.50-0.50 -16.00-0.50t-16.00,0.50l0.00-24.50 q0.00-6.50 4.75-11.25t 11.25-4.75t 11.25,4.75t 4.75,11.25z" ></path></svg>