<?xml version="1.0" encoding="utf-8"?> <!-- Generator: IcoMoon.io --> <!DOCTYPE svg PUBLIC "-//W3C//DTD SVG 1.1//EN" "http://www.w3.org/Graphics/SVG/1.1/DTD/svg11.dtd"> <svg width="512" height="512" viewBox="0 0 512 512" xmlns="http://www.w3.org/2000/svg" xmlns:xlink="http://www.w3.org/1999/xlink" fill="#333333"><path d="M 271.00,127.00c 8.833,0.00, 16.00-7.167, 16.00-16.00L 287.00,79.00 c0.00-8.833-7.167-16.00-16.00-16.00s-16.00,7.167-16.00,16.00l0.00,32.00 C 255.00,119.833, 262.167,127.00, 271.00,127.00z M 271.00,415.00c-8.833,0.00-16.00,7.167-16.00,16.00l0.00,32.00 c0.00,8.833, 7.167,16.00, 16.00,16.00s 16.00-7.167, 16.00-16.00l0.00-32.00 C 287.00,422.167, 279.833,415.00, 271.00,415.00z M 146.562,372.834l-22.625,22.625c-6.25,6.249-6.25,16.374,0.00,22.624s 16.375,6.25, 22.625,0.00 l 22.625-22.624c 6.25-6.271, 6.25-16.376,0.00-22.625C 162.938,366.583, 152.812,366.562, 146.562,372.834z M 127.00,271.00 c0.00-8.833-7.167-16.00-16.00-16.00L 79.00,255.00 c-8.833,0.00-16.00,7.167-16.00,16.00s 7.167,16.00, 16.00,16.00l 32.00,0.00 C 119.833,287.00, 127.00,279.833, 127.00,271.00z M 146.541,169.167 c 6.251,6.25, 16.376,6.25, 22.625,0.00c 6.251-6.25, 6.251-16.375,0.00-22.625l-22.625-22.625c-6.25-6.25-16.374-6.25-22.625,0.00 c-6.25,6.25-6.25,16.375,0.00,22.625L 146.541,169.167z M 335.00,159.00c-11.188,0.00-21.812,2.167-32.00,5.208 c-10.188-3.042-20.812-5.208-32.00-5.208c-61.75,0.00-112.00,50.25-112.00,112.00s 50.25,112.00, 112.00,112.00c 11.188,0.00, 21.812-2.166, 32.00-5.209 c 10.188,3.043, 20.812,5.209, 32.00,5.209c 61.75,0.00, 112.00-50.25, 112.00-112.00S 396.75,159.00, 335.00,159.00z M 255.229,349.417 C 218.583,342.084, 191.00,309.791, 191.00,271.00c0.00-38.792, 27.583-71.083, 64.229-78.417C 235.334,212.812, 223.00,240.458, 223.00,271.00 S 235.334,329.188, 255.229,349.417z" ></path></svg>