<?xml version="1.0" encoding="utf-8"?> <!-- Generator: IcoMoon.io --> <!DOCTYPE svg PUBLIC "-//W3C//DTD SVG 1.1//EN" "http://www.w3.org/Graphics/SVG/1.1/DTD/svg11.dtd"> <svg width="512" height="512" viewBox="0 0 512 512" xmlns="http://www.w3.org/2000/svg" xmlns:xlink="http://www.w3.org/1999/xlink" fill="#333333"><path d="M 417.042,166.083c-23.979-24.542-57.125-38.771-91.73-38.771 c-34.562,0.00-67.688,14.229-91.687,38.771c-52.812,2.459-95.00,46.188-95.00,99.584c0.00,54.958, 44.709,99.666, 99.688,99.666 c 5.812,0.00, 11.604-0.50, 17.25-1.499c 20.75,13.541, 44.938,20.854, 69.749,20.854c 24.854,0.00, 49.063-7.313, 69.772-20.854 c 5.707,0.999, 11.458,1.499, 17.291,1.499c 54.937,0.00, 99.625-44.708, 99.625-99.666C 512.00,212.271, 469.812,168.542, 417.042,166.083z M 144.00,352.00L 16.00,352.00 c-8.833,0.00-16.00,7.167-16.00,16.00s 7.167,16.00, 16.00,16.00l 128.00,0.00 c 8.833,0.00, 16.00-7.167, 16.00-16.00S 152.833,352.00, 144.00,352.00z M 16.00,320.00l 64.00,0.00 c 8.833,0.00, 16.00-7.167, 16.00-16.00s-7.167-16.00-16.00-16.00L 16.00,288.00 c-8.833,0.00-16.00,7.167-16.00,16.00S 7.167,320.00, 16.00,320.00z M 48.00,256.00l 64.00,0.00 c 8.833,0.00, 16.00-7.167, 16.00-16.00 s-7.167-16.00-16.00-16.00L 48.00,224.00 c-8.833,0.00-16.00,7.167-16.00,16.00S 39.167,256.00, 48.00,256.00z" ></path></svg>