<?xml version="1.0" encoding="utf-8"?> <!-- Generator: IcoMoon.io --> <!DOCTYPE svg PUBLIC "-//W3C//DTD SVG 1.1//EN" "http://www.w3.org/Graphics/SVG/1.1/DTD/svg11.dtd"> <svg width="601" height="512" viewBox="0 0 601 512" xmlns="http://www.w3.org/2000/svg" xmlns:xlink="http://www.w3.org/1999/xlink" fill="#333333"><path d="M 340.064,284.32c0.00,0.00, 7.664-103.104-86.816-114.88c-80.992-8.272-105.632,66.992-105.632,66.992 s-24.384-23.456-57.472-4.304c-29.616,18.288-24.368,51.744-24.368,51.744S0.00,296.656,0.00,363.696c 1.824,68.112, 71.008,66.416, 71.008,66.416 l 258.768,0.672c0.00,0.00, 61.936,0.736, 73.216-63.088C 407.344,298.048, 340.064,284.32, 340.064,284.32z M 518.192,293.664c0.00-66.288-53.712-120.00-120.00-120.00 c-11.216,0.00-35.056,3.648-58.576,15.824c0.00,0.032-14.704,10.032-14.704,10.032s 23.28,21.136, 25.28,77.136c0.00,0.992, 61.664,16.816, 61.664,80.816 c0.00,44.00-23.36,56.096-23.36,56.096l 9.696,0.096C 398.192,413.664, 518.192,388.672, 518.192,293.664z M 398.192,89.664l-33.744,67.504l 67.504,0.00 L 398.192,89.664z M 542.368,148.976l-71.60,23.856l 47.728,47.728L 542.368,148.976z M 534.192,327.904l 67.504-33.744l-67.504-33.744L 534.192,327.904 z M 470.784,414.48l 71.60,23.856l-23.856-71.60L 470.784,414.48z" ></path></svg>