<?xml version="1.0" encoding="utf-8"?> <!-- Generator: IcoMoon.io --> <!DOCTYPE svg PUBLIC "-//W3C//DTD SVG 1.1//EN" "http://www.w3.org/Graphics/SVG/1.1/DTD/svg11.dtd"> <svg width="512" height="512" viewBox="0 0 512 512" xmlns="http://www.w3.org/2000/svg" xmlns:xlink="http://www.w3.org/1999/xlink" fill="#333333"><path d="M 400.00,64.00c-5.312,0.00-10.562,0.375-15.792,1.125C 354.334,24.417, 307.188,0.00, 256.00,0.00 c-51.188,0.00-98.312,24.417-128.208,65.125C 122.562,64.375, 117.312,64.00, 112.00,64.00C 50.25,64.00,0.00,114.25,0.00,176.00s 50.25,112.00, 112.00,112.00 c 13.688,0.00, 27.084-2.50, 39.709-7.333c 21.541,18.771, 47.416,31.291, 75.104,36.521L 192.00,352.00l 32.00,32.00l-32.00,96.00l 96.00-96.00l-32.00-32.00l 11.00-32.999 c 34.458-2.438, 67.125-15.543, 93.291-38.334C 372.916,285.50, 386.312,288.00, 400.00,288.00c 61.75,0.00, 112.00-50.25, 112.00-112.00S 461.75,64.00, 400.00,64.00z" ></path></svg>