<?xml version="1.0" encoding="utf-8"?> <!-- Generator: IcoMoon.io --> <!DOCTYPE svg PUBLIC "-//W3C//DTD SVG 1.1//EN" "http://www.w3.org/Graphics/SVG/1.1/DTD/svg11.dtd"> <svg width="512" height="512" viewBox="0 0 512 512" xmlns="http://www.w3.org/2000/svg" xmlns:xlink="http://www.w3.org/1999/xlink" fill="#333333"><path d="M 394.448,173.856c0.00,0.00, 7.664-103.104-86.816-114.88 c-80.992-8.272-105.632,66.992-105.632,66.992s-24.368-23.456-57.472-4.304c-29.616,18.288-24.368,51.744-24.368,51.744S 54.40,186.208, 54.40,253.248 c 1.808,68.128, 70.992,66.416, 70.992,66.416l 73.328-0.496l 35.104-80.288l 102.32,2.00l-45.504,78.64l 93.536,0.816c0.00,0.00, 61.936,0.736, 73.216-63.072 C 461.728,187.60, 394.448,173.856, 394.448,173.856z M 310.304,255.20l-65.968,0.00 l-42.112,96.272l 60.352,0.00 l-49.136,108.672l 106.672-125.328l-56.128,0.00 L 310.304,255.20z" ></path></svg>