<?xml version="1.0" encoding="utf-8"?> <!-- Generator: IcoMoon.io --> <!DOCTYPE svg PUBLIC "-//W3C//DTD SVG 1.1//EN" "http://www.w3.org/Graphics/SVG/1.1/DTD/svg11.dtd"> <svg width="512" height="512" viewBox="0 0 512 512" xmlns="http://www.w3.org/2000/svg" xmlns:xlink="http://www.w3.org/1999/xlink" fill="#333333"><path d="M 431.00,192.00c-26.50,0.00-48.00,21.50-48.00,48.00c0.00,5.646, 1.167,10.958, 2.938,16.00L 79.00,256.00 c-8.833,0.00-16.00,7.167-16.00,16.00s 7.167,16.00, 16.00,16.00 l 352.00,0.00 c 26.50,0.00, 48.00-21.50, 48.00-48.00S 457.50,192.00, 431.00,192.00z M 79.00,224.00l 192.00,0.00 c 26.50,0.00, 48.00-21.50, 48.00-48.00s-21.50-48.00-48.00-48.00s-48.00,21.50-48.00,48.00 c0.00,5.646, 1.167,10.958, 2.938,16.00L 79.00,192.00 c-8.833,0.00-16.00,7.167-16.00,16.00S 70.167,224.00, 79.00,224.00z M 335.00,320.00c-0.938,0.00-1.834,0.208-2.791,0.291 c-0.625-0.041-1.146-0.291-1.771-0.291L 83.584,320.00 C 72.209,320.00, 63.00,327.167, 63.00,336.00s 9.209,16.00, 20.584,16.00l 206.354,0.00 c-1.771,5.042-2.938,10.376-2.938,16.00c0.00,26.50, 21.50,48.00, 48.00,48.00s 48.00-21.50, 48.00-48.00S 361.50,320.00, 335.00,320.00z" ></path></svg>