<?xml version="1.0" encoding="utf-8"?> <!-- Generator: IcoMoon.io --> <!DOCTYPE svg PUBLIC "-//W3C//DTD SVG 1.1//EN" "http://www.w3.org/Graphics/SVG/1.1/DTD/svg11.dtd"> <svg width="512" height="512" viewBox="0 0 512 512" xmlns="http://www.w3.org/2000/svg" xmlns:xlink="http://www.w3.org/1999/xlink" fill="#333333"><path d="M 288.00,316.00l0.00,132.00 l 64.00,0.00 q 13.00,0.00 22.50,9.25t 9.50,22.50t-9.50,22.75t-22.50,9.50l-192.00,0.00 q-13.50,0.00 -22.75-9.50t-9.25-22.75t 9.25-22.50t 22.75-9.25l 64.00,0.00 l0.00-132.00 q-55.50-13.50 -91.75-66.25t-36.25-121.75q0.00-73.00 41.00-128.00l 238.00,0.00 q 41.00,55.00 41.00,128.00q0.00,69.00 -36.50,121.75t-91.50,66.25zM 358.00,32.00l-204.00,0.00 q-26.00,43.00 -26.00,96.00 q0.00,33.50 10.50,64.00l 234.50,0.00 q 11.00-30.50 11.00-64.00q0.00-53.00 -26.00-96.00z" ></path></svg>