<?xml version="1.0" encoding="utf-8"?> <!-- Generator: IcoMoon.io --> <!DOCTYPE svg PUBLIC "-//W3C//DTD SVG 1.1//EN" "http://www.w3.org/Graphics/SVG/1.1/DTD/svg11.dtd"> <svg width="448" height="448" viewBox="0 0 448 448" xmlns="http://www.w3.org/2000/svg" xmlns:xlink="http://www.w3.org/1999/xlink" fill="#333333"><path d="M 440.00,224.00q 3.50,0.00 5.75,2.25t 2.25,5.75l0.00,16.00 q0.00,3.50 -2.25,5.75t-5.75,2.25l-432.00,0.00 q-3.50,0.00 -5.75-2.25t-2.25-5.75l0.00-16.00 q0.00-3.50 2.25-5.75t 5.75-2.25l 432.00,0.00 zM 120.75,208.00q-7.00-8.75 -12.75-20.00q-12.00-24.25 -12.00-47.00q0.00-45.25 33.50-77.25q 33.25-31.75 98.25-31.75q 12.50,0.00 41.75,4.75q 16.50,3.00 44.25,12.00q 2.50,9.50 5.25,29.50q 3.50,30.75 3.50,45.75q0.00,4.50 -1.25,11.25l-3.00,0.75l-21.00-1.50 l-3.50-0.50q-12.50-37.25 -25.75-51.25q-22.00-22.75 -52.50-22.75q-28.50,0.00 -45.50,14.75q-16.75,14.50 -16.75,36.50q0.00,18.25 16.50,35.00t 69.75,32.25q 17.25,5.00 43.25,16.50q 14.50,7.00 23.75,13.00l-185.75,0.00 zM 247.50,272.00l 102.75,0.00 q 1.75,9.75 1.75,23.00q0.00,27.75 -10.25,53.00q-5.75,13.75 -17.75,26.00q-9.25,8.75 -27.25,20.25q-20.00,12.00 -38.25,16.50q-20.00,5.25 -50.75,5.25q-28.50,0.00 -48.75-5.75 l-35.00-10.00q-14.25-4.00 -18.00-7.00q-2.00-2.00 -2.00-5.50l0.00-3.25 q0.00-27.00 -0.50-39.00q-0.25-7.50 0.00-17.00l 0.50-9.25l0.00-11.00 l 25.50-0.50q 3.75,8.50 7.50,17.75t 5.625,14.00t 3.125,6.75q 8.75,14.25 20.00,23.50q 10.75,9.00 26.25,14.25q 14.75,5.50 33.00,5.50q 16.00,0.00 34.75-6.75q 19.25-6.50 30.50-21.50q 11.75-15.25 11.75-32.25q0.00-21.00 -20.25-39.25q-8.50-7.25 -34.25-17.75z" ></path></svg>