<?xml version="1.0" encoding="utf-8"?> <!-- Generator: IcoMoon.io --> <!DOCTYPE svg PUBLIC "-//W3C//DTD SVG 1.1//EN" "http://www.w3.org/Graphics/SVG/1.1/DTD/svg11.dtd"> <svg width="512" height="512" viewBox="0 0 512 512" xmlns="http://www.w3.org/2000/svg" xmlns:xlink="http://www.w3.org/1999/xlink" fill="#333333"><path d="M 80.00,480.00L 80.00,48.00 l 160.00,0.00 l0.00,32.00 l-32.00,0.00 l0.00,32.00 l 32.00,0.00 l0.00,32.00 l-32.00,0.00 l0.00,32.00 l 32.00,0.00 l0.00,32.00 l-32.00,0.00 l0.00,32.00 l 32.00,0.00 l0.00,32.00 l 32.00,0.00 l0.00-32.00 l-32.00,0.00 l0.00-32.00 l 32.00,0.00 l0.00-32.00 l-32.00,0.00 L 240.00,144.00 l 32.00,0.00 L 272.00,112.00 l-32.00,0.00 L 240.00,80.00 l 32.00,0.00 L 272.00,48.00 l 47.856,0.00 l0.00,96.144 L 416.00,144.144 L 416.00,480.00 L 80.00,480.00 z M 272.00,288.00l-64.00,0.00 l0.00,112.00 l 64.00,0.00 L 272.00,288.00 z M 256.00,383.008l-32.00,0.00 l0.00-32.00 l 32.00,0.00 L 256.00,383.008 z M 336.00,48.00l 3.92,0.00 L 416.00,124.08l0.00,2.928 l-80.00,0.00 L 336.00,48.00 z" ></path></svg>